<?xml version="1.0"?>
<svg xmlns="http://www.w3.org/2000/svg" version="1.1" height="398mm" width="479mm" >
 <g style="fill-opacity:1.0; stroke:black; stroke-width:1;">
  <line x1="0.000000mm" y1="25.000000mm" x2="0.000000mm" y2="25.000000mm" />
  <line x1="0.000000mm" y1="25.000000mm" x2="0.000000mm" y2="388.000000mm" />
  <line x1="0.000000mm" y1="388.000000mm" x2="38.620000mm" y2="388.000000mm" />
  <line x1="38.620000mm" y1="388.000000mm" x2="38.620000mm" y2="385.500000mm" />
  <line x1="38.620000mm" y1="385.500000mm" x2="38.668000mm" y2="385.012270mm" />
  <line x1="38.668000mm" y1="385.012270mm" x2="38.810000mm" y2="384.543290mm" />
  <line x1="38.810000mm" y1="384.543290mm" x2="39.041000mm" y2="384.111070mm" />
  <line x1="39.041000mm" y1="384.111070mm" x2="39.352000mm" y2="383.732230mm" />
  <line x1="39.352000mm" y1="383.732230mm" x2="39.731000mm" y2="383.421330mm" />
  <line x1="39.731000mm" y1="383.421330mm" x2="40.163000mm" y2="383.190300mm" />
  <line x1="40.163000mm" y1="383.190300mm" x2="40.632000mm" y2="383.048040mm" />
  <line x1="40.632000mm" y1="383.048040mm" x2="41.120000mm" y2="383.000000mm" />
  <line x1="41.120000mm" y1="383.000000mm" x2="41.608000mm" y2="383.048040mm" />
  <line x1="41.608000mm" y1="383.048040mm" x2="42.077000mm" y2="383.190300mm" />
  <line x1="42.077000mm" y1="383.190300mm" x2="42.509000mm" y2="383.421330mm" />
  <line x1="42.509000mm" y1="383.421330mm" x2="42.888000mm" y2="383.732230mm" />
  <line x1="42.888000mm" y1="383.732230mm" x2="43.199000mm" y2="384.111070mm" />
  <line x1="43.199000mm" y1="384.111070mm" x2="43.430000mm" y2="384.543290mm" />
  <line x1="43.430000mm" y1="384.543290mm" x2="43.572000mm" y2="385.012270mm" />
  <line x1="43.572000mm" y1="385.012270mm" x2="43.620000mm" y2="385.500000mm" />
  <line x1="43.620000mm" y1="385.500000mm" x2="43.620000mm" y2="388.000000mm" />
  <line x1="43.620000mm" y1="388.000000mm" x2="102.500000mm" y2="388.000000mm" />
  <line x1="102.500000mm" y1="388.000000mm" x2="102.500000mm" y2="109.900000mm" />
  <line x1="102.500000mm" y1="109.900000mm" x2="102.506000mm" y2="109.651000mm" />
  <line x1="102.506000mm" y1="109.651000mm" x2="102.556000mm" y2="109.155000mm" />
  <line x1="102.556000mm" y1="109.155000mm" x2="102.655000mm" y2="108.666000mm" />
  <line x1="102.655000mm" y1="108.666000mm" x2="102.802000mm" y2="108.190000mm" />
  <line x1="102.802000mm" y1="108.190000mm" x2="102.995000mm" y2="107.731000mm" />
  <line x1="102.995000mm" y1="107.731000mm" x2="103.234000mm" y2="107.293000mm" />
  <line x1="103.234000mm" y1="107.293000mm" x2="103.514000mm" y2="106.881000mm" />
  <line x1="103.514000mm" y1="106.881000mm" x2="103.835000mm" y2="106.499000mm" />
  <line x1="103.835000mm" y1="106.499000mm" x2="104.192000mm" y2="106.151000mm" />
  <line x1="104.192000mm" y1="106.151000mm" x2="104.581000mm" y2="105.840000mm" />
  <line x1="104.581000mm" y1="105.840000mm" x2="105.000000mm" y2="105.570000mm" />
  <line x1="105.000000mm" y1="105.570000mm" x2="105.444000mm" y2="105.342000mm" />
  <line x1="105.444000mm" y1="105.342000mm" x2="105.908000mm" y2="105.160000mm" />
  <line x1="105.908000mm" y1="105.160000mm" x2="106.387000mm" y2="105.025000mm" />
  <line x1="106.387000mm" y1="105.025000mm" x2="106.878000mm" y2="104.939000mm" />
  <line x1="106.878000mm" y1="104.939000mm" x2="107.375000mm" y2="104.902000mm" />
  <line x1="107.375000mm" y1="104.902000mm" x2="107.500000mm" y2="104.900000mm" />
  <line x1="107.500000mm" y1="104.900000mm" x2="347.500000mm" y2="104.900000mm" />
  <line x1="347.500000mm" y1="104.900000mm" x2="347.874000mm" y2="104.914000mm" />
  <line x1="347.874000mm" y1="104.914000mm" x2="348.368000mm" y2="104.976000mm" />
  <line x1="348.368000mm" y1="104.976000mm" x2="348.854000mm" y2="105.087000mm" />
  <line x1="348.854000mm" y1="105.087000mm" x2="349.327000mm" y2="105.246000mm" />
  <line x1="349.327000mm" y1="105.246000mm" x2="349.781000mm" y2="105.451000mm" />
  <line x1="349.781000mm" y1="105.451000mm" x2="350.213000mm" y2="105.700000mm" />
  <line x1="350.213000mm" y1="105.700000mm" x2="350.617000mm" y2="105.991000mm" />
  <line x1="350.617000mm" y1="105.991000mm" x2="350.991000mm" y2="106.321000mm" />
  <line x1="350.991000mm" y1="106.321000mm" x2="351.330000mm" y2="106.686000mm" />
  <line x1="351.330000mm" y1="106.686000mm" x2="351.631000mm" y2="107.083000mm" />
  <line x1="351.631000mm" y1="107.083000mm" x2="351.891000mm" y2="107.509000mm" />
  <line x1="351.891000mm" y1="107.509000mm" x2="352.107000mm" y2="107.958000mm" />
  <line x1="352.107000mm" y1="107.958000mm" x2="352.278000mm" y2="108.426000mm" />
  <line x1="352.278000mm" y1="108.426000mm" x2="352.401000mm" y2="108.909000mm" />
  <line x1="352.401000mm" y1="108.909000mm" x2="352.475000mm" y2="109.402000mm" />
  <line x1="352.475000mm" y1="109.402000mm" x2="352.500000mm" y2="109.900000mm" />
  <line x1="352.500000mm" y1="109.900000mm" x2="352.500000mm" y2="388.000000mm" />
  <line x1="352.500000mm" y1="388.000000mm" x2="468.500000mm" y2="388.000000mm" />
  <line x1="468.500000mm" y1="388.000000mm" x2="468.500000mm" y2="25.000000mm" />
  <line x1="468.500000mm" y1="25.000000mm" x2="468.405000mm" y2="22.821000mm" />
  <line x1="468.405000mm" y1="22.821000mm" x2="468.120000mm" y2="20.659000mm" />
  <line x1="468.120000mm" y1="20.659000mm" x2="467.648000mm" y2="18.530000mm" />
  <line x1="467.648000mm" y1="18.530000mm" x2="466.992000mm" y2="16.449000mm" />
  <line x1="466.992000mm" y1="16.449000mm" x2="466.158000mm" y2="14.435000mm" />
  <line x1="466.158000mm" y1="14.435000mm" x2="465.151000mm" y2="12.500000mm" />
  <line x1="465.151000mm" y1="12.500000mm" x2="463.979000mm" y2="10.661000mm" />
  <line x1="463.979000mm" y1="10.661000mm" x2="462.651000mm" y2="8.930000mm" />
  <line x1="462.651000mm" y1="8.930000mm" x2="461.178000mm" y2="7.322000mm" />
  <line x1="461.178000mm" y1="7.322000mm" x2="459.570000mm" y2="5.849000mm" />
  <line x1="459.570000mm" y1="5.849000mm" x2="457.839000mm" y2="4.521000mm" />
  <line x1="457.839000mm" y1="4.521000mm" x2="456.000000mm" y2="3.349000mm" />
  <line x1="456.000000mm" y1="3.349000mm" x2="454.065000mm" y2="2.342000mm" />
  <line x1="454.065000mm" y1="2.342000mm" x2="452.051000mm" y2="1.508000mm" />
  <line x1="452.051000mm" y1="1.508000mm" x2="449.970000mm" y2="0.852000mm" />
  <line x1="449.970000mm" y1="0.852000mm" x2="447.841000mm" y2="0.380000mm" />
  <line x1="447.841000mm" y1="0.380000mm" x2="445.679000mm" y2="0.095000mm" />
  <line x1="445.679000mm" y1="0.095000mm" x2="443.500000mm" y2="0.000000mm" />
  <line x1="443.500000mm" y1="0.000000mm" x2="25.000000mm" y2="0.000000mm" />
  <line x1="25.000000mm" y1="0.000000mm" x2="22.821000mm" y2="0.095000mm" />
  <line x1="22.821000mm" y1="0.095000mm" x2="20.659000mm" y2="0.380000mm" />
  <line x1="20.659000mm" y1="0.380000mm" x2="18.530000mm" y2="0.852000mm" />
  <line x1="18.530000mm" y1="0.852000mm" x2="16.449000mm" y2="1.508000mm" />
  <line x1="16.449000mm" y1="1.508000mm" x2="14.435000mm" y2="2.342000mm" />
  <line x1="14.435000mm" y1="2.342000mm" x2="12.500000mm" y2="3.349000mm" />
  <line x1="12.500000mm" y1="3.349000mm" x2="10.661000mm" y2="4.521000mm" />
  <line x1="10.661000mm" y1="4.521000mm" x2="8.930000mm" y2="5.849000mm" />
  <line x1="8.930000mm" y1="5.849000mm" x2="7.322000mm" y2="7.322000mm" />
  <line x1="7.322000mm" y1="7.322000mm" x2="5.849000mm" y2="8.930000mm" />
  <line x1="5.849000mm" y1="8.930000mm" x2="4.521000mm" y2="10.661000mm" />
  <line x1="4.521000mm" y1="10.661000mm" x2="3.349000mm" y2="12.500000mm" />
  <line x1="3.349000mm" y1="12.500000mm" x2="2.342000mm" y2="14.435000mm" />
  <line x1="2.342000mm" y1="14.435000mm" x2="1.508000mm" y2="16.449000mm" />
  <line x1="1.508000mm" y1="16.449000mm" x2="0.852000mm" y2="18.530000mm" />
  <line x1="0.852000mm" y1="18.530000mm" x2="0.380000mm" y2="20.659000mm" />
  <line x1="0.380000mm" y1="20.659000mm" x2="0.095000mm" y2="22.821000mm" />
  <line x1="0.095000mm" y1="22.821000mm" x2="0.000000mm" y2="25.000000mm" />
  <circle cx="7.499964mm" cy="273.899964mm" r="2.200229mm" fill="none"/>
  <line x1="11.900421mm" y1="273.899964mm" x2="3.099507mm" y2="273.899964mm" />
  <line x1="7.499964mm" y1="269.499507mm" x2="7.499964mm" y2="278.300421mm" />
  <text x="9mm" y="271mm" font-size="24">
   4.4
  </text>
  <circle cx="7.499964mm" cy="232.499964mm" r="2.200229mm" fill="none"/>
  <line x1="11.900421mm" y1="232.499964mm" x2="3.099507mm" y2="232.499964mm" />
  <line x1="7.499964mm" y1="228.099507mm" x2="7.499964mm" y2="236.900421mm" />
  <text x="9mm" y="230mm" font-size="24">
   4.4
  </text>
  <circle cx="8.700009mm" cy="380.800056mm" r="2.200152mm" fill="none"/>
  <line x1="13.100314mm" y1="380.800056mm" x2="4.299705mm" y2="380.800056mm" />
  <line x1="8.700009mm" y1="376.399752mm" x2="8.700009mm" y2="385.200360mm" />
  <text x="10mm" y="378mm" font-size="24">
   4.4
  </text>
  <line x1="14.305000mm" y1="331.989500mm" x2="14.305000mm" y2="331.989500mm" />
  <line x1="14.305000mm" y1="331.989500mm" x2="14.250000mm" y2="331.500000mm" />
  <line x1="14.250000mm" y1="331.500000mm" x2="14.250000mm" y2="322.500000mm" />
  <line x1="14.250000mm" y1="322.500000mm" x2="14.305000mm" y2="322.010500mm" />
  <line x1="14.305000mm" y1="322.010500mm" x2="14.468000mm" y2="321.545500mm" />
  <line x1="14.468000mm" y1="321.545500mm" x2="14.730000mm" y2="321.128300mm" />
  <line x1="14.730000mm" y1="321.128300mm" x2="15.078000mm" y2="320.780000mm" />
  <line x1="15.078000mm" y1="320.780000mm" x2="15.495000mm" y2="320.517900mm" />
  <line x1="15.495000mm" y1="320.517900mm" x2="15.960000mm" y2="320.355200mm" />
  <line x1="15.960000mm" y1="320.355200mm" x2="16.450000mm" y2="320.300000mm" />
  <line x1="16.450000mm" y1="320.300000mm" x2="16.940000mm" y2="320.355200mm" />
  <line x1="16.940000mm" y1="320.355200mm" x2="17.405000mm" y2="320.517900mm" />
  <line x1="17.405000mm" y1="320.517900mm" x2="17.822000mm" y2="320.780000mm" />
  <line x1="17.822000mm" y1="320.780000mm" x2="18.170000mm" y2="321.128300mm" />
  <line x1="18.170000mm" y1="321.128300mm" x2="18.432000mm" y2="321.545500mm" />
  <line x1="18.432000mm" y1="321.545500mm" x2="18.595000mm" y2="322.010500mm" />
  <line x1="18.595000mm" y1="322.010500mm" x2="18.650000mm" y2="322.500000mm" />
  <line x1="18.650000mm" y1="322.500000mm" x2="18.650000mm" y2="331.500000mm" />
  <line x1="18.650000mm" y1="331.500000mm" x2="18.595000mm" y2="331.989500mm" />
  <line x1="18.595000mm" y1="331.989500mm" x2="18.432000mm" y2="332.454500mm" />
  <line x1="18.432000mm" y1="332.454500mm" x2="18.170000mm" y2="332.871700mm" />
  <line x1="18.170000mm" y1="332.871700mm" x2="17.822000mm" y2="333.220000mm" />
  <line x1="17.822000mm" y1="333.220000mm" x2="17.405000mm" y2="333.482100mm" />
  <line x1="17.405000mm" y1="333.482100mm" x2="16.940000mm" y2="333.644800mm" />
  <line x1="16.940000mm" y1="333.644800mm" x2="16.450000mm" y2="333.700000mm" />
  <line x1="16.450000mm" y1="333.700000mm" x2="15.960000mm" y2="333.644800mm" />
  <line x1="15.960000mm" y1="333.644800mm" x2="15.495000mm" y2="333.482100mm" />
  <line x1="15.495000mm" y1="333.482100mm" x2="15.078000mm" y2="333.220000mm" />
  <line x1="15.078000mm" y1="333.220000mm" x2="14.730000mm" y2="332.871700mm" />
  <line x1="14.730000mm" y1="332.871700mm" x2="14.468000mm" y2="332.454500mm" />
  <line x1="14.468000mm" y1="332.454500mm" x2="14.305000mm" y2="331.989500mm" />
  <circle cx="29.920009mm" cy="380.800056mm" r="2.200152mm" fill="none"/>
  <line x1="34.320314mm" y1="380.800056mm" x2="25.519705mm" y2="380.800056mm" />
  <line x1="29.920009mm" y1="376.399752mm" x2="29.920009mm" y2="385.200360mm" />
  <text x="32mm" y="378mm" font-size="24">
   4.4
  </text>
  <circle cx="33.499883mm" cy="315.000047mm" r="1.999981mm" fill="none"/>
  <line x1="37.499844mm" y1="315.000047mm" x2="29.499922mm" y2="315.000047mm" />
  <line x1="33.499883mm" y1="311.000086mm" x2="33.499883mm" y2="319.000008mm" />
  <text x="35mm" y="313mm" font-size="24">
   4.0
  </text>
  <circle cx="39.499818mm" cy="17.000055mm" r="2.000011mm" fill="none"/>
  <line x1="43.499840mm" y1="17.000055mm" x2="35.499795mm" y2="17.000055mm" />
  <line x1="39.499818mm" y1="13.000033mm" x2="39.499818mm" y2="21.000077mm" />
  <text x="41mm" y="15mm" font-size="24">
   4.0
  </text>
  <circle cx="40.949964mm" cy="7.499964mm" r="2.200229mm" fill="none"/>
  <line x1="45.350421mm" y1="7.499964mm" x2="36.549507mm" y2="7.499964mm" />
  <line x1="40.949964mm" y1="3.099507mm" x2="40.949964mm" y2="11.900421mm" />
  <text x="43mm" y="5mm" font-size="24">
   4.4
  </text>
  <line x1="44.405000mm" y1="331.989500mm" x2="44.405000mm" y2="331.989500mm" />
  <line x1="44.405000mm" y1="331.989500mm" x2="44.350000mm" y2="331.500000mm" />
  <line x1="44.350000mm" y1="331.500000mm" x2="44.350000mm" y2="322.500000mm" />
  <line x1="44.350000mm" y1="322.500000mm" x2="44.405000mm" y2="322.010500mm" />
  <line x1="44.405000mm" y1="322.010500mm" x2="44.568000mm" y2="321.545500mm" />
  <line x1="44.568000mm" y1="321.545500mm" x2="44.830000mm" y2="321.128300mm" />
  <line x1="44.830000mm" y1="321.128300mm" x2="45.178000mm" y2="320.780000mm" />
  <line x1="45.178000mm" y1="320.780000mm" x2="45.595000mm" y2="320.517900mm" />
  <line x1="45.595000mm" y1="320.517900mm" x2="46.060000mm" y2="320.355200mm" />
  <line x1="46.060000mm" y1="320.355200mm" x2="46.550000mm" y2="320.300000mm" />
  <line x1="46.550000mm" y1="320.300000mm" x2="47.040000mm" y2="320.355200mm" />
  <line x1="47.040000mm" y1="320.355200mm" x2="47.505000mm" y2="320.517900mm" />
  <line x1="47.505000mm" y1="320.517900mm" x2="47.922000mm" y2="320.780000mm" />
  <line x1="47.922000mm" y1="320.780000mm" x2="48.270000mm" y2="321.128300mm" />
  <line x1="48.270000mm" y1="321.128300mm" x2="48.532000mm" y2="321.545500mm" />
  <line x1="48.532000mm" y1="321.545500mm" x2="48.695000mm" y2="322.010500mm" />
  <line x1="48.695000mm" y1="322.010500mm" x2="48.750000mm" y2="322.500000mm" />
  <line x1="48.750000mm" y1="322.500000mm" x2="48.750000mm" y2="331.500000mm" />
  <line x1="48.750000mm" y1="331.500000mm" x2="48.695000mm" y2="331.989500mm" />
  <line x1="48.695000mm" y1="331.989500mm" x2="48.532000mm" y2="332.454500mm" />
  <line x1="48.532000mm" y1="332.454500mm" x2="48.270000mm" y2="332.871700mm" />
  <line x1="48.270000mm" y1="332.871700mm" x2="47.922000mm" y2="333.220000mm" />
  <line x1="47.922000mm" y1="333.220000mm" x2="47.505000mm" y2="333.482100mm" />
  <line x1="47.505000mm" y1="333.482100mm" x2="47.040000mm" y2="333.644800mm" />
  <line x1="47.040000mm" y1="333.644800mm" x2="46.550000mm" y2="333.700000mm" />
  <line x1="46.550000mm" y1="333.700000mm" x2="46.060000mm" y2="333.644800mm" />
  <line x1="46.060000mm" y1="333.644800mm" x2="45.595000mm" y2="333.482100mm" />
  <line x1="45.595000mm" y1="333.482100mm" x2="45.178000mm" y2="333.220000mm" />
  <line x1="45.178000mm" y1="333.220000mm" x2="44.830000mm" y2="332.871700mm" />
  <line x1="44.830000mm" y1="332.871700mm" x2="44.568000mm" y2="332.454500mm" />
  <line x1="44.568000mm" y1="332.454500mm" x2="44.405000mm" y2="331.989500mm" />
  <circle cx="62.249998mm" cy="354.290067mm" r="2.200127mm" fill="none"/>
  <line x1="66.650252mm" y1="354.290067mm" x2="57.849744mm" y2="354.290067mm" />
  <line x1="62.249998mm" y1="349.889813mm" x2="62.249998mm" y2="358.690321mm" />
  <text x="64mm" y="352mm" font-size="24">
   4.4
  </text>
  <circle cx="62.249964mm" cy="33.709964mm" r="2.200229mm" fill="none"/>
  <line x1="66.650421mm" y1="33.709964mm" x2="57.849507mm" y2="33.709964mm" />
  <line x1="62.249964mm" y1="29.309507mm" x2="62.249964mm" y2="38.110421mm" />
  <text x="64mm" y="31mm" font-size="24">
   4.4
  </text>
  <circle cx="66.050221mm" cy="59.319698mm" r="1.500135mm" fill="none"/>
  <line x1="69.050491mm" y1="59.319698mm" x2="63.049951mm" y2="59.319698mm" />
  <line x1="66.050221mm" y1="56.319428mm" x2="66.050221mm" y2="62.319968mm" />
  <text x="67mm" y="57mm" font-size="24">
   3.0
  </text>
  <circle cx="66.050221mm" cy="53.519698mm" r="1.500135mm" fill="none"/>
  <line x1="69.050491mm" y1="53.519698mm" x2="63.049951mm" y2="53.519698mm" />
  <line x1="66.050221mm" y1="50.519428mm" x2="66.050221mm" y2="56.519968mm" />
  <text x="67mm" y="52mm" font-size="24">
   3.0
  </text>
  <circle cx="71.049964mm" cy="7.499964mm" r="2.200229mm" fill="none"/>
  <line x1="75.450421mm" y1="7.499964mm" x2="66.649507mm" y2="7.499964mm" />
  <line x1="71.049964mm" y1="3.099507mm" x2="71.049964mm" y2="11.900421mm" />
  <text x="73mm" y="5mm" font-size="24">
   4.4
  </text>
  <circle cx="71.049872mm" cy="71.920269mm" r="1.500269mm" fill="none"/>
  <line x1="74.050410mm" y1="71.920269mm" x2="68.049333mm" y2="71.920269mm" />
  <line x1="71.049872mm" y1="68.919731mm" x2="71.049872mm" y2="74.920808mm" />
  <text x="72mm" y="70mm" font-size="24">
   3.0
  </text>
  <circle cx="71.049872mm" cy="64.720269mm" r="1.500269mm" fill="none"/>
  <line x1="74.050410mm" y1="64.720269mm" x2="68.049333mm" y2="64.720269mm" />
  <line x1="71.049872mm" y1="61.719731mm" x2="71.049872mm" y2="67.720808mm" />
  <text x="72mm" y="63mm" font-size="24">
   3.0
  </text>
  <circle cx="73.080009mm" cy="380.800056mm" r="2.200152mm" fill="none"/>
  <line x1="77.480314mm" y1="380.800056mm" x2="68.679705mm" y2="380.800056mm" />
  <line x1="73.080009mm" y1="376.399752mm" x2="73.080009mm" y2="385.200360mm" />
  <text x="75mm" y="378mm" font-size="24">
   4.4
  </text>
  <circle cx="94.300009mm" cy="380.800056mm" r="2.200152mm" fill="none"/>
  <line x1="98.700314mm" y1="380.800056mm" x2="89.899705mm" y2="380.800056mm" />
  <line x1="94.300009mm" y1="376.399752mm" x2="94.300009mm" y2="385.200360mm" />
  <text x="96mm" y="378mm" font-size="24">
   4.4
  </text>
  <circle cx="352.950221mm" cy="59.319698mm" r="1.500135mm" fill="none"/>
  <line x1="355.950491mm" y1="59.319698mm" x2="349.949951mm" y2="59.319698mm" />
  <line x1="352.950221mm" y1="56.319428mm" x2="352.950221mm" y2="62.319968mm" />
  <text x="354mm" y="57mm" font-size="24">
   3.0
  </text>
  <circle cx="352.950221mm" cy="53.519698mm" r="1.500135mm" fill="none"/>
  <line x1="355.950491mm" y1="53.519698mm" x2="349.949951mm" y2="53.519698mm" />
  <line x1="352.950221mm" y1="50.519428mm" x2="352.950221mm" y2="56.519968mm" />
  <text x="354mm" y="52mm" font-size="24">
   3.0
  </text>
  <circle cx="357.949872mm" cy="71.920269mm" r="1.500269mm" fill="none"/>
  <line x1="360.950410mm" y1="71.920269mm" x2="354.949333mm" y2="71.920269mm" />
  <line x1="357.949872mm" y1="68.919731mm" x2="357.949872mm" y2="74.920808mm" />
  <text x="359mm" y="70mm" font-size="24">
   3.0
  </text>
  <circle cx="357.949872mm" cy="64.720269mm" r="1.500269mm" fill="none"/>
  <line x1="360.950410mm" y1="64.720269mm" x2="354.949333mm" y2="64.720269mm" />
  <line x1="357.949872mm" y1="61.719731mm" x2="357.949872mm" y2="67.720808mm" />
  <text x="359mm" y="63mm" font-size="24">
   3.0
  </text>
  <circle cx="359.949964mm" cy="7.499964mm" r="2.200229mm" fill="none"/>
  <line x1="364.350421mm" y1="7.499964mm" x2="355.549507mm" y2="7.499964mm" />
  <line x1="359.949964mm" y1="3.099507mm" x2="359.949964mm" y2="11.900421mm" />
  <text x="362mm" y="5mm" font-size="24">
   4.4
  </text>
  <circle cx="361.749998mm" cy="354.290067mm" r="2.200127mm" fill="none"/>
  <line x1="366.150252mm" y1="354.290067mm" x2="357.349744mm" y2="354.290067mm" />
  <line x1="361.749998mm" y1="349.889813mm" x2="361.749998mm" y2="358.690321mm" />
  <text x="363mm" y="352mm" font-size="24">
   4.4
  </text>
  <circle cx="361.749964mm" cy="33.709964mm" r="2.200229mm" fill="none"/>
  <line x1="366.150421mm" y1="33.709964mm" x2="357.349507mm" y2="33.709964mm" />
  <line x1="361.749964mm" y1="29.309507mm" x2="361.749964mm" y2="38.110421mm" />
  <text x="363mm" y="31mm" font-size="24">
   4.4
  </text>
  <line x1="375.305000mm" y1="331.989500mm" x2="375.305000mm" y2="331.989500mm" />
  <line x1="375.305000mm" y1="331.989500mm" x2="375.250000mm" y2="331.500000mm" />
  <line x1="375.250000mm" y1="331.500000mm" x2="375.250000mm" y2="322.500000mm" />
  <line x1="375.250000mm" y1="322.500000mm" x2="375.305000mm" y2="322.010500mm" />
  <line x1="375.305000mm" y1="322.010500mm" x2="375.468000mm" y2="321.545500mm" />
  <line x1="375.468000mm" y1="321.545500mm" x2="375.730000mm" y2="321.128300mm" />
  <line x1="375.730000mm" y1="321.128300mm" x2="376.078000mm" y2="320.780000mm" />
  <line x1="376.078000mm" y1="320.780000mm" x2="376.495000mm" y2="320.517900mm" />
  <line x1="376.495000mm" y1="320.517900mm" x2="376.960000mm" y2="320.355200mm" />
  <line x1="376.960000mm" y1="320.355200mm" x2="377.450000mm" y2="320.300000mm" />
  <line x1="377.450000mm" y1="320.300000mm" x2="377.940000mm" y2="320.355200mm" />
  <line x1="377.940000mm" y1="320.355200mm" x2="378.405000mm" y2="320.517900mm" />
  <line x1="378.405000mm" y1="320.517900mm" x2="378.822000mm" y2="320.780000mm" />
  <line x1="378.822000mm" y1="320.780000mm" x2="379.170000mm" y2="321.128300mm" />
  <line x1="379.170000mm" y1="321.128300mm" x2="379.432000mm" y2="321.545500mm" />
  <line x1="379.432000mm" y1="321.545500mm" x2="379.595000mm" y2="322.010500mm" />
  <line x1="379.595000mm" y1="322.010500mm" x2="379.650000mm" y2="322.500000mm" />
  <line x1="379.650000mm" y1="322.500000mm" x2="379.650000mm" y2="331.500000mm" />
  <line x1="379.650000mm" y1="331.500000mm" x2="379.595000mm" y2="331.989500mm" />
  <line x1="379.595000mm" y1="331.989500mm" x2="379.432000mm" y2="332.454500mm" />
  <line x1="379.432000mm" y1="332.454500mm" x2="379.170000mm" y2="332.871700mm" />
  <line x1="379.170000mm" y1="332.871700mm" x2="378.822000mm" y2="333.220000mm" />
  <line x1="378.822000mm" y1="333.220000mm" x2="378.405000mm" y2="333.482100mm" />
  <line x1="378.405000mm" y1="333.482100mm" x2="377.940000mm" y2="333.644800mm" />
  <line x1="377.940000mm" y1="333.644800mm" x2="377.450000mm" y2="333.700000mm" />
  <line x1="377.450000mm" y1="333.700000mm" x2="376.960000mm" y2="333.644800mm" />
  <line x1="376.960000mm" y1="333.644800mm" x2="376.495000mm" y2="333.482100mm" />
  <line x1="376.495000mm" y1="333.482100mm" x2="376.078000mm" y2="333.220000mm" />
  <line x1="376.078000mm" y1="333.220000mm" x2="375.730000mm" y2="332.871700mm" />
  <line x1="375.730000mm" y1="332.871700mm" x2="375.468000mm" y2="332.454500mm" />
  <line x1="375.468000mm" y1="332.454500mm" x2="375.305000mm" y2="331.989500mm" />
  <circle cx="380.650009mm" cy="380.800056mm" r="2.200152mm" fill="none"/>
  <line x1="385.050314mm" y1="380.800056mm" x2="376.249705mm" y2="380.800056mm" />
  <line x1="380.650009mm" y1="376.399752mm" x2="380.650009mm" y2="385.200360mm" />
  <text x="382mm" y="378mm" font-size="24">
   4.4
  </text>
  <circle cx="390.049964mm" cy="7.499964mm" r="2.200229mm" fill="none"/>
  <line x1="394.450421mm" y1="7.499964mm" x2="385.649507mm" y2="7.499964mm" />
  <line x1="390.049964mm" y1="3.099507mm" x2="390.049964mm" y2="11.900421mm" />
  <text x="392mm" y="5mm" font-size="24">
   4.4
  </text>
  <circle cx="393.620034mm" cy="370.099968mm" r="2.500070mm" fill="none"/>
  <line x1="398.620175mm" y1="370.099968mm" x2="388.619893mm" y2="370.099968mm" />
  <line x1="393.620034mm" y1="365.099828mm" x2="393.620034mm" y2="375.100109mm" />
  <text x="396mm" y="367mm" font-size="24">
   5.0
  </text>
  <circle cx="401.870009mm" cy="380.800056mm" r="2.200152mm" fill="none"/>
  <line x1="406.270314mm" y1="380.800056mm" x2="397.469705mm" y2="380.800056mm" />
  <line x1="401.870009mm" y1="376.399752mm" x2="401.870009mm" y2="385.200360mm" />
  <text x="404mm" y="378mm" font-size="24">
   4.4
  </text>
  <line x1="405.405000mm" y1="331.989500mm" x2="405.405000mm" y2="331.989500mm" />
  <line x1="405.405000mm" y1="331.989500mm" x2="405.350000mm" y2="331.500000mm" />
  <line x1="405.350000mm" y1="331.500000mm" x2="405.350000mm" y2="322.500000mm" />
  <line x1="405.350000mm" y1="322.500000mm" x2="405.405000mm" y2="322.010500mm" />
  <line x1="405.405000mm" y1="322.010500mm" x2="405.568000mm" y2="321.545500mm" />
  <line x1="405.568000mm" y1="321.545500mm" x2="405.830000mm" y2="321.128300mm" />
  <line x1="405.830000mm" y1="321.128300mm" x2="406.178000mm" y2="320.780000mm" />
  <line x1="406.178000mm" y1="320.780000mm" x2="406.595000mm" y2="320.517900mm" />
  <line x1="406.595000mm" y1="320.517900mm" x2="407.060000mm" y2="320.355200mm" />
  <line x1="407.060000mm" y1="320.355200mm" x2="407.550000mm" y2="320.300000mm" />
  <line x1="407.550000mm" y1="320.300000mm" x2="408.040000mm" y2="320.355200mm" />
  <line x1="408.040000mm" y1="320.355200mm" x2="408.505000mm" y2="320.517900mm" />
  <line x1="408.505000mm" y1="320.517900mm" x2="408.922000mm" y2="320.780000mm" />
  <line x1="408.922000mm" y1="320.780000mm" x2="409.270000mm" y2="321.128300mm" />
  <line x1="409.270000mm" y1="321.128300mm" x2="409.532000mm" y2="321.545500mm" />
  <line x1="409.532000mm" y1="321.545500mm" x2="409.695000mm" y2="322.010500mm" />
  <line x1="409.695000mm" y1="322.010500mm" x2="409.750000mm" y2="322.500000mm" />
  <line x1="409.750000mm" y1="322.500000mm" x2="409.750000mm" y2="331.500000mm" />
  <line x1="409.750000mm" y1="331.500000mm" x2="409.695000mm" y2="331.989500mm" />
  <line x1="409.695000mm" y1="331.989500mm" x2="409.532000mm" y2="332.454500mm" />
  <line x1="409.532000mm" y1="332.454500mm" x2="409.270000mm" y2="332.871700mm" />
  <line x1="409.270000mm" y1="332.871700mm" x2="408.922000mm" y2="333.220000mm" />
  <line x1="408.922000mm" y1="333.220000mm" x2="408.505000mm" y2="333.482100mm" />
  <line x1="408.505000mm" y1="333.482100mm" x2="408.040000mm" y2="333.644800mm" />
  <line x1="408.040000mm" y1="333.644800mm" x2="407.550000mm" y2="333.700000mm" />
  <line x1="407.550000mm" y1="333.700000mm" x2="407.060000mm" y2="333.644800mm" />
  <line x1="407.060000mm" y1="333.644800mm" x2="406.595000mm" y2="333.482100mm" />
  <line x1="406.595000mm" y1="333.482100mm" x2="406.178000mm" y2="333.220000mm" />
  <line x1="406.178000mm" y1="333.220000mm" x2="405.830000mm" y2="332.871700mm" />
  <line x1="405.830000mm" y1="332.871700mm" x2="405.568000mm" y2="332.454500mm" />
  <line x1="405.568000mm" y1="332.454500mm" x2="405.405000mm" y2="331.989500mm" />
  <circle cx="418.599964mm" cy="30.849964mm" r="2.200229mm" fill="none"/>
  <line x1="423.000421mm" y1="30.849964mm" x2="414.199507mm" y2="30.849964mm" />
  <line x1="418.599964mm" y1="26.449507mm" x2="418.599964mm" y2="35.250421mm" />
  <text x="420mm" y="28mm" font-size="24">
   4.4
  </text>
  <line x1="421.145000mm" y1="20.478000mm" x2="421.145000mm" y2="20.478000mm" />
  <line x1="421.145000mm" y1="20.478000mm" x2="421.050000mm" y2="20.000000mm" />
  <line x1="421.050000mm" y1="20.000000mm" x2="421.145000mm" y2="19.522000mm" />
  <line x1="421.145000mm" y1="19.522000mm" x2="421.416000mm" y2="19.116000mm" />
  <line x1="421.416000mm" y1="19.116000mm" x2="421.822000mm" y2="18.845000mm" />
  <line x1="421.822000mm" y1="18.845000mm" x2="422.300000mm" y2="18.750000mm" />
  <line x1="422.300000mm" y1="18.750000mm" x2="449.700000mm" y2="18.750000mm" />
  <line x1="449.700000mm" y1="18.750000mm" x2="450.178000mm" y2="18.845000mm" />
  <line x1="450.178000mm" y1="18.845000mm" x2="450.584000mm" y2="19.116000mm" />
  <line x1="450.584000mm" y1="19.116000mm" x2="450.855000mm" y2="19.522000mm" />
  <line x1="450.855000mm" y1="19.522000mm" x2="450.950000mm" y2="20.000000mm" />
  <line x1="450.950000mm" y1="20.000000mm" x2="450.855000mm" y2="20.478000mm" />
  <line x1="450.855000mm" y1="20.478000mm" x2="450.584000mm" y2="20.884000mm" />
  <line x1="450.584000mm" y1="20.884000mm" x2="450.178000mm" y2="21.155000mm" />
  <line x1="450.178000mm" y1="21.155000mm" x2="449.700000mm" y2="21.250000mm" />
  <line x1="449.700000mm" y1="21.250000mm" x2="422.300000mm" y2="21.250000mm" />
  <line x1="422.300000mm" y1="21.250000mm" x2="421.822000mm" y2="21.155000mm" />
  <line x1="421.822000mm" y1="21.155000mm" x2="421.416000mm" y2="20.884000mm" />
  <line x1="421.416000mm" y1="20.884000mm" x2="421.145000mm" y2="20.478000mm" />
  <circle cx="438.580009mm" cy="380.800056mm" r="2.200152mm" fill="none"/>
  <line x1="442.980314mm" y1="380.800056mm" x2="434.179705mm" y2="380.800056mm" />
  <line x1="438.580009mm" y1="376.399752mm" x2="438.580009mm" y2="385.200360mm" />
  <text x="440mm" y="378mm" font-size="24">
   4.4
  </text>
  <circle cx="453.399964mm" cy="30.849964mm" r="2.200229mm" fill="none"/>
  <line x1="457.800421mm" y1="30.849964mm" x2="448.999507mm" y2="30.849964mm" />
  <line x1="453.399964mm" y1="26.449507mm" x2="453.399964mm" y2="35.250421mm" />
  <text x="455mm" y="28mm" font-size="24">
   4.4
  </text>
  <circle cx="459.800009mm" cy="380.800056mm" r="2.200152mm" fill="none"/>
  <line x1="464.200314mm" y1="380.800056mm" x2="455.399705mm" y2="380.800056mm" />
  <line x1="459.800009mm" y1="376.399752mm" x2="459.800009mm" y2="385.200360mm" />
  <text x="462mm" y="378mm" font-size="24">
   4.4
  </text>
 </g>
</svg>
