solid OpenSCAD_Model
  facet normal -0.614213 0.78914 0
    outer loop
      vertex -10.0318 101.507 0
      vertex -10.0318 101.507 100
      vertex -9.64084 101.811 0
    endloop
  endfacet
  facet normal -0.614213 0.78914 0
    outer loop
      vertex -10.0318 101.507 100
      vertex -9.64084 101.811 100
      vertex -9.64084 101.811 0
    endloop
  endfacet
  facet normal -0.614213 -0.78914 -0
    outer loop
      vertex -10.0318 92.0928 0
      vertex -9.64084 91.7885 0
      vertex -9.64084 91.7885 100
    endloop
  endfacet
  facet normal -0.614213 -0.78914 0
    outer loop
      vertex -10.0318 92.0928 0
      vertex -9.64084 91.7885 100
      vertex -10.0318 92.0928 100
    endloop
  endfacet
  facet normal -0.735713 0.677293 0
    outer loop
      vertex -10.3674 101.143 0
      vertex -10.0318 101.507 100
      vertex -10.0318 101.507 0
    endloop
  endfacet
  facet normal -0.735713 0.677293 0
    outer loop
      vertex -10.3674 101.143 0
      vertex -10.3674 101.143 100
      vertex -10.0318 101.507 100
    endloop
  endfacet
  facet normal -0.735713 -0.677293 0
    outer loop
      vertex -10.3674 92.4574 0
      vertex -10.0318 92.0928 0
      vertex -10.3674 92.4574 100
    endloop
  endfacet
  facet normal -0.735713 -0.677293 0
    outer loop
      vertex -10.3674 92.4574 100
      vertex -10.0318 92.0928 0
      vertex -10.0318 92.0928 100
    endloop
  endfacet
  facet normal -0.837169 0.546944 0
    outer loop
      vertex -10.6384 100.728 0
      vertex -10.3674 101.143 100
      vertex -10.3674 101.143 0
    endloop
  endfacet
  facet normal -0.837169 0.546944 0
    outer loop
      vertex -10.6384 100.728 0
      vertex -10.6384 100.728 100
      vertex -10.3674 101.143 100
    endloop
  endfacet
  facet normal -0.837169 -0.546944 0
    outer loop
      vertex -10.6384 92.8722 0
      vertex -10.3674 92.4574 0
      vertex -10.6384 92.8722 100
    endloop
  endfacet
  facet normal -0.837169 -0.546944 0
    outer loop
      vertex -10.6384 92.8722 100
      vertex -10.3674 92.4574 0
      vertex -10.3674 92.4574 100
    endloop
  endfacet
  facet normal -0.915772 0.401699 0
    outer loop
      vertex -10.8374 100.274 0
      vertex -10.6384 100.728 100
      vertex -10.6384 100.728 0
    endloop
  endfacet
  facet normal -0.915772 0.401699 0
    outer loop
      vertex -10.8374 100.274 0
      vertex -10.8374 100.274 100
      vertex -10.6384 100.728 100
    endloop
  endfacet
  facet normal -0.915772 -0.401699 0
    outer loop
      vertex -10.8374 93.3259 0
      vertex -10.6384 92.8722 0
      vertex -10.8374 93.3259 100
    endloop
  endfacet
  facet normal -0.915772 -0.401699 0
    outer loop
      vertex -10.8374 93.3259 100
      vertex -10.6384 92.8722 0
      vertex -10.6384 92.8722 100
    endloop
  endfacet
  facet normal -0.969403 -0.245476 0
    outer loop
      vertex -10.9591 93.8062 0
      vertex -10.8374 93.3259 0
      vertex -10.9591 93.8062 100
    endloop
  endfacet
  facet normal -0.969403 -0.245476 0
    outer loop
      vertex -10.9591 93.8062 100
      vertex -10.8374 93.3259 0
      vertex -10.8374 93.3259 100
    endloop
  endfacet
  facet normal -0.969403 0.245476 0
    outer loop
      vertex -10.9591 99.7938 0
      vertex -10.8374 100.274 100
      vertex -10.8374 100.274 0
    endloop
  endfacet
  facet normal -0.969403 0.245476 0
    outer loop
      vertex -10.9591 99.7938 0
      vertex -10.9591 99.7938 100
      vertex -10.8374 100.274 100
    endloop
  endfacet
  facet normal 0 0 -1
    outer loop
      vertex -11 94.3 0
      vertex -10.0318 92.0928 0
      vertex -10.3674 92.4574 0
    endloop
  endfacet
  facet normal 0 0 -1
    outer loop
      vertex -11 94.3 0
      vertex -10.3674 92.4574 0
      vertex -10.6384 92.8722 0
    endloop
  endfacet
  facet normal 0 0 -1
    outer loop
      vertex -11 94.3 0
      vertex -10.6384 92.8722 0
      vertex -10.8374 93.3259 0
    endloop
  endfacet
  facet normal 0 0 -1
    outer loop
      vertex -11 94.3 0
      vertex -10.8374 93.3259 0
      vertex -10.9591 93.8062 0
    endloop
  endfacet
  facet normal -0.996583 -0.0825969 0
    outer loop
      vertex -11 94.3 0
      vertex -10.9591 93.8062 0
      vertex -11 94.3 100
    endloop
  endfacet
  facet normal -1 -0 0
    outer loop
      vertex -11 94.3 0
      vertex -11 94.3 100
      vertex -11 99.3 100
    endloop
  endfacet
  facet normal 0 0 -1
    outer loop
      vertex -11 94.3 0
      vertex -11 99.3 0
      vertex -3.2 94.3 0
    endloop
  endfacet
  facet normal -1 0 0
    outer loop
      vertex -11 94.3 0
      vertex -11 99.3 100
      vertex -11 99.3 0
    endloop
  endfacet
  facet normal 0 0 -1
    outer loop
      vertex -11 94.3 0
      vertex -3.2 94.3 0
      vertex -8 91.3 0
    endloop
  endfacet
  facet normal 0 0 -1
    outer loop
      vertex -11 94.3 0
      vertex -8 91.3 0
      vertex -8.24773 91.3103 0
    endloop
  endfacet
  facet normal 0 0 -1
    outer loop
      vertex -11 94.3 0
      vertex -8.24773 91.3103 0
      vertex -8.73645 91.3918 0
    endloop
  endfacet
  facet normal 0 0 -1
    outer loop
      vertex -11 94.3 0
      vertex -8.73645 91.3918 0
      vertex -9.20508 91.5527 0
    endloop
  endfacet
  facet normal 0 0 -1
    outer loop
      vertex -11 94.3 0
      vertex -9.20508 91.5527 0
      vertex -9.64084 91.7885 0
    endloop
  endfacet
  facet normal 0 0 -1
    outer loop
      vertex -11 94.3 0
      vertex -9.64084 91.7885 0
      vertex -10.0318 92.0928 0
    endloop
  endfacet
  facet normal 0 0 1
    outer loop
      vertex -11 94.3 100
      vertex -10.0318 92.0928 100
      vertex -9.64084 91.7885 100
    endloop
  endfacet
  facet normal 0 0 1
    outer loop
      vertex -11 94.3 100
      vertex -10.3674 92.4574 100
      vertex -10.0318 92.0928 100
    endloop
  endfacet
  facet normal 0 0 1
    outer loop
      vertex -11 94.3 100
      vertex -10.6384 92.8722 100
      vertex -10.3674 92.4574 100
    endloop
  endfacet
  facet normal 0 0 1
    outer loop
      vertex -11 94.3 100
      vertex -10.8374 93.3259 100
      vertex -10.6384 92.8722 100
    endloop
  endfacet
  facet normal -0.996583 -0.0825969 0
    outer loop
      vertex -11 94.3 100
      vertex -10.9591 93.8062 0
      vertex -10.9591 93.8062 100
    endloop
  endfacet
  facet normal 0 0 1
    outer loop
      vertex -11 94.3 100
      vertex -10.9591 93.8062 100
      vertex -10.8374 93.3259 100
    endloop
  endfacet
  facet normal -0 0 1
    outer loop
      vertex -11 94.3 100
      vertex -8 91.3 100
      vertex -11 99.3 100
    endloop
  endfacet
  facet normal 0 0 1
    outer loop
      vertex -11 94.3 100
      vertex -8.24773 91.3103 100
      vertex -8 91.3 100
    endloop
  endfacet
  facet normal 0 0 1
    outer loop
      vertex -11 94.3 100
      vertex -8.73645 91.3918 100
      vertex -8.24773 91.3103 100
    endloop
  endfacet
  facet normal 0 0 1
    outer loop
      vertex -11 94.3 100
      vertex -9.20508 91.5527 100
      vertex -8.73645 91.3918 100
    endloop
  endfacet
  facet normal 0 0 1
    outer loop
      vertex -11 94.3 100
      vertex -9.64084 91.7885 100
      vertex -9.20508 91.5527 100
    endloop
  endfacet
  facet normal 0 0 -1
    outer loop
      vertex -11 99.3 0
      vertex -10.0318 101.507 0
      vertex -9.64084 101.811 0
    endloop
  endfacet
  facet normal 0 0 -1
    outer loop
      vertex -11 99.3 0
      vertex -10.3674 101.143 0
      vertex -10.0318 101.507 0
    endloop
  endfacet
  facet normal 0 0 -1
    outer loop
      vertex -11 99.3 0
      vertex -10.6384 100.728 0
      vertex -10.3674 101.143 0
    endloop
  endfacet
  facet normal 0 0 -1
    outer loop
      vertex -11 99.3 0
      vertex -10.8374 100.274 0
      vertex -10.6384 100.728 0
    endloop
  endfacet
  facet normal 0 0 -1
    outer loop
      vertex -11 99.3 0
      vertex -10.9591 99.7938 0
      vertex -10.8374 100.274 0
    endloop
  endfacet
  facet normal -0.996583 0.0825969 0
    outer loop
      vertex -11 99.3 0
      vertex -10.9591 99.7938 100
      vertex -10.9591 99.7938 0
    endloop
  endfacet
  facet normal -0.996583 0.0825969 0
    outer loop
      vertex -11 99.3 0
      vertex -11 99.3 100
      vertex -10.9591 99.7938 100
    endloop
  endfacet
  facet normal 0 0 -1
    outer loop
      vertex -11 99.3 0
      vertex -8 102.3 0
      vertex -3.2 94.3 0
    endloop
  endfacet
  facet normal 0 0 -1
    outer loop
      vertex -11 99.3 0
      vertex -8.24773 102.29 0
      vertex -8 102.3 0
    endloop
  endfacet
  facet normal 0 0 -1
    outer loop
      vertex -11 99.3 0
      vertex -8.73645 102.208 0
      vertex -8.24773 102.29 0
    endloop
  endfacet
  facet normal 0 0 -1
    outer loop
      vertex -11 99.3 0
      vertex -9.20508 102.047 0
      vertex -8.73645 102.208 0
    endloop
  endfacet
  facet normal 0 0 -1
    outer loop
      vertex -11 99.3 0
      vertex -9.64084 101.811 0
      vertex -9.20508 102.047 0
    endloop
  endfacet
  facet normal 0 0 1
    outer loop
      vertex -11 99.3 100
      vertex -10.0318 101.507 100
      vertex -10.3674 101.143 100
    endloop
  endfacet
  facet normal 0 0 1
    outer loop
      vertex -11 99.3 100
      vertex -10.3674 101.143 100
      vertex -10.6384 100.728 100
    endloop
  endfacet
  facet normal 0 0 1
    outer loop
      vertex -11 99.3 100
      vertex -10.6384 100.728 100
      vertex -10.8374 100.274 100
    endloop
  endfacet
  facet normal 0 0 1
    outer loop
      vertex -11 99.3 100
      vertex -10.8374 100.274 100
      vertex -10.9591 99.7938 100
    endloop
  endfacet
  facet normal 0 0 1
    outer loop
      vertex -11 99.3 100
      vertex -8 102.3 100
      vertex -8.24773 102.29 100
    endloop
  endfacet
  facet normal 0 0 1
    outer loop
      vertex -11 99.3 100
      vertex -8 91.3 100
      vertex -8 102.3 100
    endloop
  endfacet
  facet normal 0 0 1
    outer loop
      vertex -11 99.3 100
      vertex -8.24773 102.29 100
      vertex -8.73645 102.208 100
    endloop
  endfacet
  facet normal 0 0 1
    outer loop
      vertex -11 99.3 100
      vertex -8.73645 102.208 100
      vertex -9.20508 102.047 100
    endloop
  endfacet
  facet normal 0 0 1
    outer loop
      vertex -11 99.3 100
      vertex -9.20508 102.047 100
      vertex -9.64084 101.811 100
    endloop
  endfacet
  facet normal 0 0 1
    outer loop
      vertex -11 99.3 100
      vertex -9.64084 101.811 100
      vertex -10.0318 101.507 100
    endloop
  endfacet
  facet normal -0 0 -1
    outer loop
      vertex -3.2 91.3 0
      vertex -3.2 94.3 0
      vertex 0 94.3 0
    endloop
  endfacet
  facet normal 0 -1 -0
    outer loop
      vertex -3.2 91.3 0
      vertex 0 91.3 0
      vertex 0 91.3 1
    endloop
  endfacet
  facet normal 0 0 -1
    outer loop
      vertex -3.2 91.3 0
      vertex 0 94.3 0
      vertex 0 91.3 0
    endloop
  endfacet
  facet normal 0 0 -1
    outer loop
      vertex -3.2 94.3 0
      vertex 0 102.3 0
      vertex 0 94.3 0
    endloop
  endfacet
  facet normal 0 1 0
    outer loop
      vertex -8 102.3 0
      vertex -8 102.3 100
      vertex 0 102.3 0
    endloop
  endfacet
  facet normal 0 0 -1
    outer loop
      vertex -8 102.3 0
      vertex 0 102.3 0
      vertex -3.2 94.3 0
    endloop
  endfacet
  facet normal 0 1 -0
    outer loop
      vertex -8 102.3 100
      vertex 0 102.3 100
      vertex 0 102.3 0
    endloop
  endfacet
  facet normal -0 0 1
    outer loop
      vertex -8 102.3 100
      vertex 0 91.3 100
      vertex 0 102.3 100
    endloop
  endfacet
  facet normal 0 -1 0
    outer loop
      vertex -8 91.3 0
      vertex -3.2 91.3 0
      vertex 0 91.3 1
    endloop
  endfacet
  facet normal 0 0 -1
    outer loop
      vertex -8 91.3 0
      vertex -3.2 94.3 0
      vertex -3.2 91.3 0
    endloop
  endfacet
  facet normal 0 -1 0
    outer loop
      vertex -8 91.3 0
      vertex 0 91.3 1
      vertex -8 91.3 100
    endloop
  endfacet
  facet normal 0 -1 0
    outer loop
      vertex -8 91.3 100
      vertex 0 91.3 1
      vertex 0 91.3 100
    endloop
  endfacet
  facet normal 0 0 1
    outer loop
      vertex -8 91.3 100
      vertex 0 91.3 100
      vertex -8 102.3 100
    endloop
  endfacet
  facet normal -0.0413566 0.999144 0
    outer loop
      vertex -8.24773 102.29 0
      vertex -8.24773 102.29 100
      vertex -8 102.3 0
    endloop
  endfacet
  facet normal -0.0413566 0.999144 0
    outer loop
      vertex -8.24773 102.29 100
      vertex -8 102.3 100
      vertex -8 102.3 0
    endloop
  endfacet
  facet normal -0.0413566 -0.999144 -0
    outer loop
      vertex -8.24773 91.3103 0
      vertex -8 91.3 0
      vertex -8 91.3 100
    endloop
  endfacet
  facet normal -0.0413566 -0.999144 0
    outer loop
      vertex -8.24773 91.3103 0
      vertex -8 91.3 100
      vertex -8.24773 91.3103 100
    endloop
  endfacet
  facet normal -0.164604 0.98636 0
    outer loop
      vertex -8.73645 102.208 0
      vertex -8.73645 102.208 100
      vertex -8.24773 102.29 0
    endloop
  endfacet
  facet normal -0.164604 0.98636 0
    outer loop
      vertex -8.73645 102.208 100
      vertex -8.24773 102.29 100
      vertex -8.24773 102.29 0
    endloop
  endfacet
  facet normal -0.164604 -0.98636 -0
    outer loop
      vertex -8.73645 91.3918 0
      vertex -8.24773 91.3103 0
      vertex -8.24773 91.3103 100
    endloop
  endfacet
  facet normal -0.164604 -0.98636 0
    outer loop
      vertex -8.73645 91.3918 0
      vertex -8.24773 91.3103 100
      vertex -8.73645 91.3918 100
    endloop
  endfacet
  facet normal -0.324687 0.945821 0
    outer loop
      vertex -9.20508 102.047 0
      vertex -9.20508 102.047 100
      vertex -8.73645 102.208 0
    endloop
  endfacet
  facet normal -0.324687 0.945821 0
    outer loop
      vertex -9.20508 102.047 100
      vertex -8.73645 102.208 100
      vertex -8.73645 102.208 0
    endloop
  endfacet
  facet normal -0.324687 -0.945821 -0
    outer loop
      vertex -9.20508 91.5527 0
      vertex -8.73645 91.3918 0
      vertex -8.73645 91.3918 100
    endloop
  endfacet
  facet normal -0.324687 -0.945821 0
    outer loop
      vertex -9.20508 91.5527 0
      vertex -8.73645 91.3918 100
      vertex -9.20508 91.5527 100
    endloop
  endfacet
  facet normal -0.475952 0.879471 0
    outer loop
      vertex -9.64084 101.811 0
      vertex -9.64084 101.811 100
      vertex -9.20508 102.047 0
    endloop
  endfacet
  facet normal -0.475952 0.879471 0
    outer loop
      vertex -9.64084 101.811 100
      vertex -9.20508 102.047 100
      vertex -9.20508 102.047 0
    endloop
  endfacet
  facet normal -0.475952 -0.879471 -0
    outer loop
      vertex -9.64084 91.7885 0
      vertex -9.20508 91.5527 0
      vertex -9.20508 91.5527 100
    endloop
  endfacet
  facet normal -0.475952 -0.879471 0
    outer loop
      vertex -9.64084 91.7885 0
      vertex -9.20508 91.5527 100
      vertex -9.64084 91.7885 100
    endloop
  endfacet
  facet normal -1 0 0
    outer loop
      vertex 0 0 0
      vertex 0 0 1
      vertex 0 88.3 0
    endloop
  endfacet
  facet normal 0 0 -1
    outer loop
      vertex 0 0 0
      vertex 0 88.3 0
      vertex 3 3 0
    endloop
  endfacet
  facet normal 0 -1 -0
    outer loop
      vertex 0 0 0
      vertex 21.95 0 0
      vertex 21.95 0 1
    endloop
  endfacet
  facet normal 0 -1 0
    outer loop
      vertex 0 0 0
      vertex 21.95 0 1
      vertex 0 0 1
    endloop
  endfacet
  facet normal 0 0 -1
    outer loop
      vertex 0 0 0
      vertex 3 3 0
      vertex 21.95 0 0
    endloop
  endfacet
  facet normal -1 0 0
    outer loop
      vertex 0 0 1
      vertex 0 91.3 1
      vertex 0 88.3 0
    endloop
  endfacet
  facet normal 0 0 1
    outer loop
      vertex 0 0 1
      vertex 21.95 0 1
      vertex 3 3 1
    endloop
  endfacet
  facet normal 0 0 1
    outer loop
      vertex 0 0 1
      vertex 3 3 1
      vertex 0 91.3 1
    endloop
  endfacet
  facet normal 0.0413566 0.999144 0
    outer loop
      vertex 0 102.3 0
      vertex 0 102.3 100
      vertex 0.247726 102.29 0
    endloop
  endfacet
  facet normal 0 0 -1
    outer loop
      vertex 0 102.3 0
      vertex 0.247726 102.29 0
      vertex 0.73645 102.208 0
    endloop
  endfacet
  facet normal 0 0 -1
    outer loop
      vertex 0 102.3 0
      vertex 0.73645 102.208 0
      vertex 1.20508 102.047 0
    endloop
  endfacet
  facet normal 0 0 -1
    outer loop
      vertex 0 102.3 0
      vertex 1.20508 102.047 0
      vertex 1.64084 101.811 0
    endloop
  endfacet
  facet normal 0 0 -1
    outer loop
      vertex 0 102.3 0
      vertex 1.64084 101.811 0
      vertex 2.03183 101.507 0
    endloop
  endfacet
  facet normal 0 0 -1
    outer loop
      vertex 0 102.3 0
      vertex 2.03183 101.507 0
      vertex 2.36742 101.143 0
    endloop
  endfacet
  facet normal 0 0 -1
    outer loop
      vertex 0 102.3 0
      vertex 2.36742 101.143 0
      vertex 2.63841 100.728 0
    endloop
  endfacet
  facet normal 0 0 -1
    outer loop
      vertex 0 102.3 0
      vertex 2.63841 100.728 0
      vertex 2.83745 100.274 0
    endloop
  endfacet
  facet normal 0 0 -1
    outer loop
      vertex 0 102.3 0
      vertex 2.83745 100.274 0
      vertex 2.95908 99.7938 0
    endloop
  endfacet
  facet normal 0 0 -1
    outer loop
      vertex 0 102.3 0
      vertex 2.95908 99.7938 0
      vertex 3 99.3 0
    endloop
  endfacet
  facet normal 0.0413566 0.999144 -0
    outer loop
      vertex 0 102.3 100
      vertex 0.247726 102.29 100
      vertex 0.247726 102.29 0
    endloop
  endfacet
  facet normal 0 0 1
    outer loop
      vertex 0 102.3 100
      vertex 0.73645 102.208 100
      vertex 0.247726 102.29 100
    endloop
  endfacet
  facet normal 0 0 1
    outer loop
      vertex 0 102.3 100
      vertex 1.20508 102.047 100
      vertex 0.73645 102.208 100
    endloop
  endfacet
  facet normal 0 0 1
    outer loop
      vertex 0 102.3 100
      vertex 1.64084 101.811 100
      vertex 1.20508 102.047 100
    endloop
  endfacet
  facet normal 0 0 1
    outer loop
      vertex 0 102.3 100
      vertex 2.03183 101.507 100
      vertex 1.64084 101.811 100
    endloop
  endfacet
  facet normal 0 0 1
    outer loop
      vertex 0 102.3 100
      vertex 2.36742 101.143 100
      vertex 2.03183 101.507 100
    endloop
  endfacet
  facet normal 0 0 1
    outer loop
      vertex 0 102.3 100
      vertex 2.63841 100.728 100
      vertex 2.36742 101.143 100
    endloop
  endfacet
  facet normal 0 0 1
    outer loop
      vertex 0 102.3 100
      vertex 2.83745 100.274 100
      vertex 2.63841 100.728 100
    endloop
  endfacet
  facet normal 0 0 1
    outer loop
      vertex 0 102.3 100
      vertex 2.95908 99.7938 100
      vertex 2.83745 100.274 100
    endloop
  endfacet
  facet normal 0 0 1
    outer loop
      vertex 0 102.3 100
      vertex 3 94.3 100
      vertex 3 99.3 100
    endloop
  endfacet
  facet normal 0 0 1
    outer loop
      vertex 0 102.3 100
      vertex 3 99.3 100
      vertex 2.95908 99.7938 100
    endloop
  endfacet
  facet normal 0 0 -1
    outer loop
      vertex 0 88.3 0
      vertex 0 91.3 0
      vertex 3 99.3 0
    endloop
  endfacet
  facet normal -1 0 0
    outer loop
      vertex 0 88.3 0
      vertex 0 91.3 1
      vertex 0 91.3 0
    endloop
  endfacet
  facet normal 0 0 -1
    outer loop
      vertex 0 88.3 0
      vertex 3 99.3 0
      vertex 3 3 0
    endloop
  endfacet
  facet normal 0 0 -1
    outer loop
      vertex 0 91.3 0
      vertex 0 94.3 0
      vertex 3 99.3 0
    endloop
  endfacet
  facet normal 0.0413566 -0.999144 0
    outer loop
      vertex 0 91.3 1
      vertex 0.247726 91.3103 1
      vertex 0.247726 91.3103 100
    endloop
  endfacet
  facet normal 0.0413566 -0.999144 0
    outer loop
      vertex 0 91.3 1
      vertex 0.247726 91.3103 100
      vertex 0 91.3 100
    endloop
  endfacet
  facet normal -0 0 1
    outer loop
      vertex 0 91.3 1
      vertex 3 3 1
      vertex 0.247726 91.3103 1
    endloop
  endfacet
  facet normal 0 0 1
    outer loop
      vertex 0 91.3 100
      vertex 0.247726 91.3103 100
      vertex 0.73645 91.3918 100
    endloop
  endfacet
  facet normal 0 0 1
    outer loop
      vertex 0 91.3 100
      vertex 0.73645 91.3918 100
      vertex 1.20508 91.5527 100
    endloop
  endfacet
  facet normal 0 0 1
    outer loop
      vertex 0 91.3 100
      vertex 1.20508 91.5527 100
      vertex 1.64084 91.7885 100
    endloop
  endfacet
  facet normal 0 0 1
    outer loop
      vertex 0 91.3 100
      vertex 1.64084 91.7885 100
      vertex 2.03183 92.0928 100
    endloop
  endfacet
  facet normal 0 0 1
    outer loop
      vertex 0 91.3 100
      vertex 2.03183 92.0928 100
      vertex 2.36742 92.4574 100
    endloop
  endfacet
  facet normal 0 0 1
    outer loop
      vertex 0 91.3 100
      vertex 2.36742 92.4574 100
      vertex 2.63841 92.8722 100
    endloop
  endfacet
  facet normal 0 0 1
    outer loop
      vertex 0 91.3 100
      vertex 2.63841 92.8722 100
      vertex 2.83745 93.3259 100
    endloop
  endfacet
  facet normal 0 0 1
    outer loop
      vertex 0 91.3 100
      vertex 2.83745 93.3259 100
      vertex 2.95908 93.8062 100
    endloop
  endfacet
  facet normal 0 0 1
    outer loop
      vertex 0 91.3 100
      vertex 2.95908 93.8062 100
      vertex 3 94.3 100
    endloop
  endfacet
  facet normal 0 0 1
    outer loop
      vertex 0 91.3 100
      vertex 3 94.3 100
      vertex 0 102.3 100
    endloop
  endfacet
  facet normal 0 0 -1
    outer loop
      vertex 0 94.3 0
      vertex 0 102.3 0
      vertex 3 99.3 0
    endloop
  endfacet
  facet normal 0.164604 0.98636 0
    outer loop
      vertex 0.247726 102.29 0
      vertex 0.247726 102.29 100
      vertex 0.73645 102.208 0
    endloop
  endfacet
  facet normal 0.164604 0.98636 -0
    outer loop
      vertex 0.247726 102.29 100
      vertex 0.73645 102.208 100
      vertex 0.73645 102.208 0
    endloop
  endfacet
  facet normal 0.164604 -0.98636 0
    outer loop
      vertex 0.247726 91.3103 1
      vertex 0.73645 91.3918 1
      vertex 0.73645 91.3918 100
    endloop
  endfacet
  facet normal 0.164604 -0.98636 0
    outer loop
      vertex 0.247726 91.3103 1
      vertex 0.73645 91.3918 100
      vertex 0.247726 91.3103 100
    endloop
  endfacet
  facet normal -0 0 1
    outer loop
      vertex 0.247726 91.3103 1
      vertex 3 3 1
      vertex 0.73645 91.3918 1
    endloop
  endfacet
  facet normal 0.324687 0.945821 0
    outer loop
      vertex 0.73645 102.208 0
      vertex 0.73645 102.208 100
      vertex 1.20508 102.047 0
    endloop
  endfacet
  facet normal 0.324687 0.945821 -0
    outer loop
      vertex 0.73645 102.208 100
      vertex 1.20508 102.047 100
      vertex 1.20508 102.047 0
    endloop
  endfacet
  facet normal 0.324687 -0.945821 0
    outer loop
      vertex 0.73645 91.3918 1
      vertex 1.20508 91.5527 1
      vertex 1.20508 91.5527 100
    endloop
  endfacet
  facet normal 0.324687 -0.945821 0
    outer loop
      vertex 0.73645 91.3918 1
      vertex 1.20508 91.5527 100
      vertex 0.73645 91.3918 100
    endloop
  endfacet
  facet normal -0 0 1
    outer loop
      vertex 0.73645 91.3918 1
      vertex 3 3 1
      vertex 1.20508 91.5527 1
    endloop
  endfacet
  facet normal 0.475952 0.879471 0
    outer loop
      vertex 1.20508 102.047 0
      vertex 1.20508 102.047 100
      vertex 1.64084 101.811 0
    endloop
  endfacet
  facet normal 0.475952 0.879471 -0
    outer loop
      vertex 1.20508 102.047 100
      vertex 1.64084 101.811 100
      vertex 1.64084 101.811 0
    endloop
  endfacet
  facet normal 0.475952 -0.879471 0
    outer loop
      vertex 1.20508 91.5527 1
      vertex 1.64084 91.7885 1
      vertex 1.64084 91.7885 100
    endloop
  endfacet
  facet normal 0.475952 -0.879471 0
    outer loop
      vertex 1.20508 91.5527 1
      vertex 1.64084 91.7885 100
      vertex 1.20508 91.5527 100
    endloop
  endfacet
  facet normal -0 0 1
    outer loop
      vertex 1.20508 91.5527 1
      vertex 3 3 1
      vertex 1.64084 91.7885 1
    endloop
  endfacet
  facet normal 0.614213 0.78914 0
    outer loop
      vertex 1.64084 101.811 0
      vertex 1.64084 101.811 100
      vertex 2.03183 101.507 0
    endloop
  endfacet
  facet normal 0.614213 0.78914 -0
    outer loop
      vertex 1.64084 101.811 100
      vertex 2.03183 101.507 100
      vertex 2.03183 101.507 0
    endloop
  endfacet
  facet normal 0.614213 -0.78914 0
    outer loop
      vertex 1.64084 91.7885 1
      vertex 2.03183 92.0928 1
      vertex 2.03183 92.0928 100
    endloop
  endfacet
  facet normal 0.614213 -0.78914 0
    outer loop
      vertex 1.64084 91.7885 1
      vertex 2.03183 92.0928 100
      vertex 1.64084 91.7885 100
    endloop
  endfacet
  facet normal -0 0 1
    outer loop
      vertex 1.64084 91.7885 1
      vertex 3 3 1
      vertex 2.03183 92.0928 1
    endloop
  endfacet
  facet normal 0.735713 0.677293 0
    outer loop
      vertex 2.03183 101.507 0
      vertex 2.03183 101.507 100
      vertex 2.36742 101.143 100
    endloop
  endfacet
  facet normal 0.735713 0.677293 0
    outer loop
      vertex 2.03183 101.507 0
      vertex 2.36742 101.143 100
      vertex 2.36742 101.143 0
    endloop
  endfacet
  facet normal 0.735713 -0.677293 0
    outer loop
      vertex 2.03183 92.0928 1
      vertex 2.36742 92.4574 1
      vertex 2.03183 92.0928 100
    endloop
  endfacet
  facet normal -0 0 1
    outer loop
      vertex 2.03183 92.0928 1
      vertex 3 3 1
      vertex 2.36742 92.4574 1
    endloop
  endfacet
  facet normal 0.735713 -0.677293 0
    outer loop
      vertex 2.03183 92.0928 100
      vertex 2.36742 92.4574 1
      vertex 2.36742 92.4574 100
    endloop
  endfacet
  facet normal 0.837169 0.546944 0
    outer loop
      vertex 2.36742 101.143 0
      vertex 2.36742 101.143 100
      vertex 2.63841 100.728 100
    endloop
  endfacet
  facet normal 0.837169 0.546944 0
    outer loop
      vertex 2.36742 101.143 0
      vertex 2.63841 100.728 100
      vertex 2.63841 100.728 0
    endloop
  endfacet
  facet normal 0.837169 -0.546944 0
    outer loop
      vertex 2.36742 92.4574 1
      vertex 2.63841 92.8722 1
      vertex 2.36742 92.4574 100
    endloop
  endfacet
  facet normal -0 0 1
    outer loop
      vertex 2.36742 92.4574 1
      vertex 3 3 1
      vertex 2.63841 92.8722 1
    endloop
  endfacet
  facet normal 0.837169 -0.546944 0
    outer loop
      vertex 2.36742 92.4574 100
      vertex 2.63841 92.8722 1
      vertex 2.63841 92.8722 100
    endloop
  endfacet
  facet normal 0.915772 0.401699 0
    outer loop
      vertex 2.63841 100.728 0
      vertex 2.63841 100.728 100
      vertex 2.83745 100.274 100
    endloop
  endfacet
  facet normal 0.915772 0.401699 0
    outer loop
      vertex 2.63841 100.728 0
      vertex 2.83745 100.274 100
      vertex 2.83745 100.274 0
    endloop
  endfacet
  facet normal 0.915772 -0.401699 0
    outer loop
      vertex 2.63841 92.8722 1
      vertex 2.83745 93.3259 1
      vertex 2.63841 92.8722 100
    endloop
  endfacet
  facet normal -0 0 1
    outer loop
      vertex 2.63841 92.8722 1
      vertex 3 3 1
      vertex 2.83745 93.3259 1
    endloop
  endfacet
  facet normal 0.915772 -0.401699 0
    outer loop
      vertex 2.63841 92.8722 100
      vertex 2.83745 93.3259 1
      vertex 2.83745 93.3259 100
    endloop
  endfacet
  facet normal 0.969403 0.245476 0
    outer loop
      vertex 2.83745 100.274 0
      vertex 2.83745 100.274 100
      vertex 2.95908 99.7938 100
    endloop
  endfacet
  facet normal 0.969403 0.245476 0
    outer loop
      vertex 2.83745 100.274 0
      vertex 2.95908 99.7938 100
      vertex 2.95908 99.7938 0
    endloop
  endfacet
  facet normal 0.969403 -0.245476 0
    outer loop
      vertex 2.83745 93.3259 1
      vertex 2.95908 93.8062 1
      vertex 2.83745 93.3259 100
    endloop
  endfacet
  facet normal -0 0 1
    outer loop
      vertex 2.83745 93.3259 1
      vertex 3 3 1
      vertex 2.95908 93.8062 1
    endloop
  endfacet
  facet normal 0.969403 -0.245476 0
    outer loop
      vertex 2.83745 93.3259 100
      vertex 2.95908 93.8062 1
      vertex 2.95908 93.8062 100
    endloop
  endfacet
  facet normal 0 0 1
    outer loop
      vertex 2.95908 93.8062 1
      vertex 3 3 1
      vertex 3 94.3 1
    endloop
  endfacet
  facet normal 0.996583 -0.0825969 0
    outer loop
      vertex 2.95908 93.8062 1
      vertex 3 94.3 1
      vertex 2.95908 93.8062 100
    endloop
  endfacet
  facet normal 0.996583 -0.0825969 0
    outer loop
      vertex 2.95908 93.8062 100
      vertex 3 94.3 1
      vertex 3 94.3 100
    endloop
  endfacet
  facet normal 0.996583 0.0825969 0
    outer loop
      vertex 2.95908 99.7938 0
      vertex 2.95908 99.7938 100
      vertex 3 99.3 100
    endloop
  endfacet
  facet normal 0.996583 0.0825969 0
    outer loop
      vertex 2.95908 99.7938 0
      vertex 3 99.3 100
      vertex 3 99.3 0
    endloop
  endfacet
  facet normal 1 0 0
    outer loop
      vertex 21.95 0 0
      vertex 21.95 3 0
      vertex 21.95 0 1
    endloop
  endfacet
  facet normal 1 -0 0
    outer loop
      vertex 21.95 0 1
      vertex 21.95 3 0
      vertex 21.95 3 1
    endloop
  endfacet
  facet normal 0 0 -1
    outer loop
      vertex 3 3 0
      vertex 21.95 3 0
      vertex 21.95 0 0
    endloop
  endfacet
  facet normal 0 1 0
    outer loop
      vertex 3 3 0
      vertex 3 3 1
      vertex 21.95 3 0
    endloop
  endfacet
  facet normal 1 0 0
    outer loop
      vertex 3 3 0
      vertex 3 94.3 1
      vertex 3 3 1
    endloop
  endfacet
  facet normal 1 0 0
    outer loop
      vertex 3 3 0
      vertex 3 99.3 0
      vertex 3 94.3 1
    endloop
  endfacet
  facet normal -0 0 1
    outer loop
      vertex 3 3 1
      vertex 21.95 0 1
      vertex 21.95 3 1
    endloop
  endfacet
  facet normal 0 1 -0
    outer loop
      vertex 3 3 1
      vertex 21.95 3 1
      vertex 21.95 3 0
    endloop
  endfacet
  facet normal 1 0 0
    outer loop
      vertex 3 94.3 1
      vertex 3 99.3 0
      vertex 3 99.3 100
    endloop
  endfacet
  facet normal 1 0 0
    outer loop
      vertex 3 94.3 1
      vertex 3 99.3 100
      vertex 3 94.3 100
    endloop
  endfacet
endsolid OpenSCAD_Model
