<?xml version="1.0"?>
<svg xmlns="http://www.w3.org/2000/svg" version="1.1" height="394mm" width="479mm" >
 <g style="fill-opacity:1.0; stroke:black; stroke-width:1;">
  <line x1="38.620000mm" y1="384.000000mm" x2="38.620000mm" y2="384.000000mm" />
  <line x1="38.620000mm" y1="384.000000mm" x2="38.620000mm" y2="381.500000mm" />
  <line x1="38.620000mm" y1="381.500000mm" x2="38.668000mm" y2="381.012280mm" />
  <line x1="38.668000mm" y1="381.012280mm" x2="38.810000mm" y2="380.543300mm" />
  <line x1="38.810000mm" y1="380.543300mm" x2="39.041000mm" y2="380.111080mm" />
  <line x1="39.041000mm" y1="380.111080mm" x2="39.352000mm" y2="379.732240mm" />
  <line x1="39.352000mm" y1="379.732240mm" x2="39.731000mm" y2="379.421340mm" />
  <line x1="39.731000mm" y1="379.421340mm" x2="40.163000mm" y2="379.190310mm" />
  <line x1="40.163000mm" y1="379.190310mm" x2="40.632000mm" y2="379.048050mm" />
  <line x1="40.632000mm" y1="379.048050mm" x2="41.120000mm" y2="379.000000mm" />
  <line x1="41.120000mm" y1="379.000000mm" x2="41.608000mm" y2="379.048050mm" />
  <line x1="41.608000mm" y1="379.048050mm" x2="42.077000mm" y2="379.190310mm" />
  <line x1="42.077000mm" y1="379.190310mm" x2="42.509000mm" y2="379.421340mm" />
  <line x1="42.509000mm" y1="379.421340mm" x2="42.888000mm" y2="379.732240mm" />
  <line x1="42.888000mm" y1="379.732240mm" x2="43.199000mm" y2="380.111080mm" />
  <line x1="43.199000mm" y1="380.111080mm" x2="43.430000mm" y2="380.543300mm" />
  <line x1="43.430000mm" y1="380.543300mm" x2="43.572000mm" y2="381.012280mm" />
  <line x1="43.572000mm" y1="381.012280mm" x2="43.620000mm" y2="381.500020mm" />
  <line x1="43.620000mm" y1="381.500020mm" x2="43.620000mm" y2="384.000000mm" />
  <line x1="43.620000mm" y1="384.000000mm" x2="102.500000mm" y2="384.000000mm" />
  <line x1="102.500000mm" y1="384.000000mm" x2="102.500000mm" y2="105.900000mm" />
  <line x1="102.500000mm" y1="105.900000mm" x2="102.506000mm" y2="105.651000mm" />
  <line x1="102.506000mm" y1="105.651000mm" x2="102.556000mm" y2="105.155000mm" />
  <line x1="102.556000mm" y1="105.155000mm" x2="102.655000mm" y2="104.666000mm" />
  <line x1="102.655000mm" y1="104.666000mm" x2="102.802000mm" y2="104.190000mm" />
  <line x1="102.802000mm" y1="104.190000mm" x2="102.995000mm" y2="103.731000mm" />
  <line x1="102.995000mm" y1="103.731000mm" x2="103.234000mm" y2="103.293000mm" />
  <line x1="103.234000mm" y1="103.293000mm" x2="103.514000mm" y2="102.881000mm" />
  <line x1="103.514000mm" y1="102.881000mm" x2="103.835000mm" y2="102.499000mm" />
  <line x1="103.835000mm" y1="102.499000mm" x2="104.192000mm" y2="102.151000mm" />
  <line x1="104.192000mm" y1="102.151000mm" x2="104.581000mm" y2="101.840000mm" />
  <line x1="104.581000mm" y1="101.840000mm" x2="105.000000mm" y2="101.570000mm" />
  <line x1="105.000000mm" y1="101.570000mm" x2="105.444000mm" y2="101.342000mm" />
  <line x1="105.444000mm" y1="101.342000mm" x2="105.908000mm" y2="101.160000mm" />
  <line x1="105.908000mm" y1="101.160000mm" x2="106.387000mm" y2="101.025000mm" />
  <line x1="106.387000mm" y1="101.025000mm" x2="106.878000mm" y2="100.939000mm" />
  <line x1="106.878000mm" y1="100.939000mm" x2="107.375000mm" y2="100.902000mm" />
  <line x1="107.375000mm" y1="100.902000mm" x2="107.500000mm" y2="100.900000mm" />
  <line x1="107.500000mm" y1="100.900000mm" x2="347.500000mm" y2="100.900000mm" />
  <line x1="347.500000mm" y1="100.900000mm" x2="347.874000mm" y2="100.914000mm" />
  <line x1="347.874000mm" y1="100.914000mm" x2="348.368000mm" y2="100.976000mm" />
  <line x1="348.368000mm" y1="100.976000mm" x2="348.854000mm" y2="101.087000mm" />
  <line x1="348.854000mm" y1="101.087000mm" x2="349.327000mm" y2="101.246000mm" />
  <line x1="349.327000mm" y1="101.246000mm" x2="349.781000mm" y2="101.451000mm" />
  <line x1="349.781000mm" y1="101.451000mm" x2="350.213000mm" y2="101.700000mm" />
  <line x1="350.213000mm" y1="101.700000mm" x2="350.617000mm" y2="101.991000mm" />
  <line x1="350.617000mm" y1="101.991000mm" x2="350.991000mm" y2="102.321000mm" />
  <line x1="350.991000mm" y1="102.321000mm" x2="351.330000mm" y2="102.686000mm" />
  <line x1="351.330000mm" y1="102.686000mm" x2="351.631000mm" y2="103.083000mm" />
  <line x1="351.631000mm" y1="103.083000mm" x2="351.891000mm" y2="103.509000mm" />
  <line x1="351.891000mm" y1="103.509000mm" x2="352.107000mm" y2="103.958000mm" />
  <line x1="352.107000mm" y1="103.958000mm" x2="352.278000mm" y2="104.426000mm" />
  <line x1="352.278000mm" y1="104.426000mm" x2="352.401000mm" y2="104.909000mm" />
  <line x1="352.401000mm" y1="104.909000mm" x2="352.475000mm" y2="105.402000mm" />
  <line x1="352.475000mm" y1="105.402000mm" x2="352.500000mm" y2="105.900000mm" />
  <line x1="352.500000mm" y1="105.900000mm" x2="352.500000mm" y2="384.000000mm" />
  <line x1="352.500000mm" y1="384.000000mm" x2="468.500000mm" y2="384.000000mm" />
  <line x1="468.500000mm" y1="384.000000mm" x2="468.500000mm" y2="25.000000mm" />
  <line x1="468.500000mm" y1="25.000000mm" x2="468.405000mm" y2="22.821000mm" />
  <line x1="468.405000mm" y1="22.821000mm" x2="468.120000mm" y2="20.659000mm" />
  <line x1="468.120000mm" y1="20.659000mm" x2="467.648000mm" y2="18.530000mm" />
  <line x1="467.648000mm" y1="18.530000mm" x2="466.992000mm" y2="16.450000mm" />
  <line x1="466.992000mm" y1="16.450000mm" x2="466.158000mm" y2="14.435000mm" />
  <line x1="466.158000mm" y1="14.435000mm" x2="465.151000mm" y2="12.500000mm" />
  <line x1="465.151000mm" y1="12.500000mm" x2="463.979000mm" y2="10.661000mm" />
  <line x1="463.979000mm" y1="10.661000mm" x2="462.651000mm" y2="8.930000mm" />
  <line x1="462.651000mm" y1="8.930000mm" x2="461.178000mm" y2="7.322000mm" />
  <line x1="461.178000mm" y1="7.322000mm" x2="459.570000mm" y2="5.849000mm" />
  <line x1="459.570000mm" y1="5.849000mm" x2="457.839000mm" y2="4.521000mm" />
  <line x1="457.839000mm" y1="4.521000mm" x2="456.000000mm" y2="3.349000mm" />
  <line x1="456.000000mm" y1="3.349000mm" x2="454.065000mm" y2="2.342000mm" />
  <line x1="454.065000mm" y1="2.342000mm" x2="452.050000mm" y2="1.508000mm" />
  <line x1="452.050000mm" y1="1.508000mm" x2="449.970000mm" y2="0.852000mm" />
  <line x1="449.970000mm" y1="0.852000mm" x2="447.841000mm" y2="0.380000mm" />
  <line x1="447.841000mm" y1="0.380000mm" x2="445.679000mm" y2="0.095000mm" />
  <line x1="445.679000mm" y1="0.095000mm" x2="443.500000mm" y2="0.000000mm" />
  <line x1="443.500000mm" y1="0.000000mm" x2="25.000000mm" y2="0.000000mm" />
  <line x1="25.000000mm" y1="0.000000mm" x2="22.821000mm" y2="0.095000mm" />
  <line x1="22.821000mm" y1="0.095000mm" x2="20.659000mm" y2="0.380000mm" />
  <line x1="20.659000mm" y1="0.380000mm" x2="18.530000mm" y2="0.852000mm" />
  <line x1="18.530000mm" y1="0.852000mm" x2="16.450000mm" y2="1.508000mm" />
  <line x1="16.450000mm" y1="1.508000mm" x2="14.435000mm" y2="2.342000mm" />
  <line x1="14.435000mm" y1="2.342000mm" x2="12.500000mm" y2="3.349000mm" />
  <line x1="12.500000mm" y1="3.349000mm" x2="10.661000mm" y2="4.521000mm" />
  <line x1="10.661000mm" y1="4.521000mm" x2="8.930000mm" y2="5.849000mm" />
  <line x1="8.930000mm" y1="5.849000mm" x2="7.322000mm" y2="7.322000mm" />
  <line x1="7.322000mm" y1="7.322000mm" x2="5.849000mm" y2="8.930000mm" />
  <line x1="5.849000mm" y1="8.930000mm" x2="4.521000mm" y2="10.661000mm" />
  <line x1="4.521000mm" y1="10.661000mm" x2="3.349000mm" y2="12.500000mm" />
  <line x1="3.349000mm" y1="12.500000mm" x2="2.342000mm" y2="14.435000mm" />
  <line x1="2.342000mm" y1="14.435000mm" x2="1.508000mm" y2="16.450000mm" />
  <line x1="1.508000mm" y1="16.450000mm" x2="0.852000mm" y2="18.530000mm" />
  <line x1="0.852000mm" y1="18.530000mm" x2="0.380000mm" y2="20.659000mm" />
  <line x1="0.380000mm" y1="20.659000mm" x2="0.095000mm" y2="22.821000mm" />
  <line x1="0.095000mm" y1="22.821000mm" x2="0.000000mm" y2="25.000000mm" />
  <line x1="0.000000mm" y1="25.000000mm" x2="0.000000mm" y2="384.000000mm" />
  <line x1="0.000000mm" y1="384.000000mm" x2="38.620000mm" y2="384.000000mm" />
  <circle cx="71.050000mm" cy="7.499945mm" r="2.200055mm" fill="none"/>
  <line x1="75.450111mm" y1="7.499945mm" x2="66.649889mm" y2="7.499945mm" />
  <line x1="71.050000mm" y1="3.099834mm" x2="71.050000mm" y2="11.900055mm" />
  <text x="73mm" y="5mm" font-size="24">
   4.4
  </text>
  <circle cx="359.950000mm" cy="7.499945mm" r="2.200055mm" fill="none"/>
  <line x1="364.350111mm" y1="7.499945mm" x2="355.549889mm" y2="7.499945mm" />
  <line x1="359.950000mm" y1="3.099834mm" x2="359.950000mm" y2="11.900055mm" />
  <text x="362mm" y="5mm" font-size="24">
   4.4
  </text>
  <circle cx="40.950000mm" cy="7.499945mm" r="2.200055mm" fill="none"/>
  <line x1="45.350111mm" y1="7.499945mm" x2="36.549889mm" y2="7.499945mm" />
  <line x1="40.950000mm" y1="3.099834mm" x2="40.950000mm" y2="11.900055mm" />
  <text x="43mm" y="5mm" font-size="24">
   4.4
  </text>
  <circle cx="390.050000mm" cy="7.499945mm" r="2.200055mm" fill="none"/>
  <line x1="394.450111mm" y1="7.499945mm" x2="385.649889mm" y2="7.499945mm" />
  <line x1="390.050000mm" y1="3.099834mm" x2="390.050000mm" y2="11.900055mm" />
  <text x="392mm" y="5mm" font-size="24">
   4.4
  </text>
  <circle cx="39.500000mm" cy="16.999798mm" r="1.999777mm" fill="none"/>
  <line x1="43.499554mm" y1="16.999798mm" x2="35.500446mm" y2="16.999798mm" />
  <line x1="39.500000mm" y1="13.000245mm" x2="39.500000mm" y2="20.999352mm" />
  <text x="41mm" y="15mm" font-size="24">
   4.0
  </text>
  <line x1="449.700000mm" y1="21.250000mm" x2="449.700000mm" y2="21.250000mm" />
  <line x1="449.700000mm" y1="21.250000mm" x2="422.300000mm" y2="21.250000mm" />
  <line x1="422.300000mm" y1="21.250000mm" x2="421.822000mm" y2="21.155000mm" />
  <line x1="421.822000mm" y1="21.155000mm" x2="421.416000mm" y2="20.884000mm" />
  <line x1="421.416000mm" y1="20.884000mm" x2="421.145000mm" y2="20.478000mm" />
  <line x1="421.145000mm" y1="20.478000mm" x2="421.050000mm" y2="20.000000mm" />
  <line x1="421.050000mm" y1="20.000000mm" x2="421.145000mm" y2="19.522000mm" />
  <line x1="421.145000mm" y1="19.522000mm" x2="421.416000mm" y2="19.116000mm" />
  <line x1="421.416000mm" y1="19.116000mm" x2="421.822000mm" y2="18.845000mm" />
  <line x1="421.822000mm" y1="18.845000mm" x2="422.300000mm" y2="18.750000mm" />
  <line x1="422.300000mm" y1="18.750000mm" x2="449.700000mm" y2="18.750000mm" />
  <line x1="449.700000mm" y1="18.750000mm" x2="450.178000mm" y2="18.845000mm" />
  <line x1="450.178000mm" y1="18.845000mm" x2="450.584000mm" y2="19.116000mm" />
  <line x1="450.584000mm" y1="19.116000mm" x2="450.855000mm" y2="19.522000mm" />
  <line x1="450.855000mm" y1="19.522000mm" x2="450.950000mm" y2="20.000000mm" />
  <line x1="450.950000mm" y1="20.000000mm" x2="450.855000mm" y2="20.478000mm" />
  <line x1="450.855000mm" y1="20.478000mm" x2="450.584000mm" y2="20.884000mm" />
  <line x1="450.584000mm" y1="20.884000mm" x2="450.178000mm" y2="21.155000mm" />
  <line x1="450.178000mm" y1="21.155000mm" x2="449.700000mm" y2="21.250000mm" />
  <circle cx="453.400000mm" cy="30.849945mm" r="2.200055mm" fill="none"/>
  <line x1="457.800111mm" y1="30.849945mm" x2="448.999889mm" y2="30.849945mm" />
  <line x1="453.400000mm" y1="26.449834mm" x2="453.400000mm" y2="35.250055mm" />
  <text x="455mm" y="28mm" font-size="24">
   4.4
  </text>
  <circle cx="418.600000mm" cy="30.849945mm" r="2.200055mm" fill="none"/>
  <line x1="423.000111mm" y1="30.849945mm" x2="414.199889mm" y2="30.849945mm" />
  <line x1="418.600000mm" y1="26.449834mm" x2="418.600000mm" y2="35.250055mm" />
  <text x="420mm" y="28mm" font-size="24">
   4.4
  </text>
  <circle cx="62.250000mm" cy="33.709945mm" r="2.200055mm" fill="none"/>
  <line x1="66.650111mm" y1="33.709945mm" x2="57.849889mm" y2="33.709945mm" />
  <line x1="62.250000mm" y1="29.309834mm" x2="62.250000mm" y2="38.110055mm" />
  <text x="64mm" y="31mm" font-size="24">
   4.4
  </text>
  <circle cx="361.750000mm" cy="33.709945mm" r="2.200055mm" fill="none"/>
  <line x1="366.150111mm" y1="33.709945mm" x2="357.349889mm" y2="33.709945mm" />
  <line x1="361.750000mm" y1="29.309834mm" x2="361.750000mm" y2="38.110055mm" />
  <text x="363mm" y="31mm" font-size="24">
   4.4
  </text>
  <circle cx="352.950000mm" cy="53.519647mm" r="1.500353mm" fill="none"/>
  <line x1="355.950706mm" y1="53.519647mm" x2="349.949294mm" y2="53.519647mm" />
  <line x1="352.950000mm" y1="50.518941mm" x2="352.950000mm" y2="56.520353mm" />
  <text x="354mm" y="52mm" font-size="24">
   3.0
  </text>
  <circle cx="66.050000mm" cy="53.519647mm" r="1.500353mm" fill="none"/>
  <line x1="69.050706mm" y1="53.519647mm" x2="63.049294mm" y2="53.519647mm" />
  <line x1="66.050000mm" y1="50.518941mm" x2="66.050000mm" y2="56.520353mm" />
  <text x="67mm" y="52mm" font-size="24">
   3.0
  </text>
  <circle cx="66.050000mm" cy="59.319647mm" r="1.500353mm" fill="none"/>
  <line x1="69.050706mm" y1="59.319647mm" x2="63.049294mm" y2="59.319647mm" />
  <line x1="66.050000mm" y1="56.318941mm" x2="66.050000mm" y2="62.320353mm" />
  <text x="67mm" y="57mm" font-size="24">
   3.0
  </text>
  <circle cx="352.950000mm" cy="59.319647mm" r="1.500353mm" fill="none"/>
  <line x1="355.950706mm" y1="59.319647mm" x2="349.949294mm" y2="59.319647mm" />
  <line x1="352.950000mm" y1="56.318941mm" x2="352.950000mm" y2="62.320353mm" />
  <text x="354mm" y="57mm" font-size="24">
   3.0
  </text>
  <circle cx="357.950136mm" cy="64.720380mm" r="1.500072mm" fill="none"/>
  <line x1="360.950281mm" y1="64.720380mm" x2="354.949992mm" y2="64.720380mm" />
  <line x1="357.950136mm" y1="61.720236mm" x2="357.950136mm" y2="67.720525mm" />
  <text x="359mm" y="63mm" font-size="24">
   3.0
  </text>
  <circle cx="71.050136mm" cy="64.720380mm" r="1.500072mm" fill="none"/>
  <line x1="74.050281mm" y1="64.720380mm" x2="68.049992mm" y2="64.720380mm" />
  <line x1="71.050136mm" y1="61.720236mm" x2="71.050136mm" y2="67.720525mm" />
  <text x="72mm" y="63mm" font-size="24">
   3.0
  </text>
  <circle cx="357.950136mm" cy="71.920380mm" r="1.500072mm" fill="none"/>
  <line x1="360.950281mm" y1="71.920380mm" x2="354.949992mm" y2="71.920380mm" />
  <line x1="357.950136mm" y1="68.920236mm" x2="357.950136mm" y2="74.920525mm" />
  <text x="359mm" y="70mm" font-size="24">
   3.0
  </text>
  <circle cx="71.050136mm" cy="71.920380mm" r="1.500072mm" fill="none"/>
  <line x1="74.050281mm" y1="71.920380mm" x2="68.049992mm" y2="71.920380mm" />
  <line x1="71.050136mm" y1="68.920236mm" x2="71.050136mm" y2="74.920525mm" />
  <text x="72mm" y="70mm" font-size="24">
   3.0
  </text>
  <circle cx="7.500000mm" cy="232.499945mm" r="2.200055mm" fill="none"/>
  <line x1="11.900111mm" y1="232.499945mm" x2="3.099889mm" y2="232.499945mm" />
  <line x1="7.500000mm" y1="228.099834mm" x2="7.500000mm" y2="236.900055mm" />
  <text x="9mm" y="230mm" font-size="24">
   4.4
  </text>
  <circle cx="7.500000mm" cy="273.899945mm" r="2.200055mm" fill="none"/>
  <line x1="11.900111mm" y1="273.899945mm" x2="3.099889mm" y2="273.899945mm" />
  <line x1="7.500000mm" y1="269.499834mm" x2="7.500000mm" y2="278.300055mm" />
  <text x="9mm" y="271mm" font-size="24">
   4.4
  </text>
  <circle cx="33.500000mm" cy="310.999943mm" r="2.000030mm" fill="none"/>
  <line x1="37.500060mm" y1="310.999943mm" x2="29.499940mm" y2="310.999943mm" />
  <line x1="33.500000mm" y1="306.999883mm" x2="33.500000mm" y2="315.000003mm" />
  <text x="35mm" y="308mm" font-size="24">
   4.0
  </text>
  <line x1="377.450000mm" y1="329.700000mm" x2="377.450000mm" y2="329.700000mm" />
  <line x1="377.450000mm" y1="329.700000mm" x2="376.960000mm" y2="329.644900mm" />
  <line x1="376.960000mm" y1="329.644900mm" x2="376.495000mm" y2="329.482100mm" />
  <line x1="376.495000mm" y1="329.482100mm" x2="376.078000mm" y2="329.220000mm" />
  <line x1="376.078000mm" y1="329.220000mm" x2="375.730000mm" y2="328.871700mm" />
  <line x1="375.730000mm" y1="328.871700mm" x2="375.468000mm" y2="328.454600mm" />
  <line x1="375.468000mm" y1="328.454600mm" x2="375.305000mm" y2="327.989500mm" />
  <line x1="375.305000mm" y1="327.989500mm" x2="375.250000mm" y2="327.500000mm" />
  <line x1="375.250000mm" y1="327.500000mm" x2="375.250000mm" y2="318.500000mm" />
  <line x1="375.250000mm" y1="318.500000mm" x2="375.305000mm" y2="318.010500mm" />
  <line x1="375.305000mm" y1="318.010500mm" x2="375.468000mm" y2="317.545500mm" />
  <line x1="375.468000mm" y1="317.545500mm" x2="375.730000mm" y2="317.128300mm" />
  <line x1="375.730000mm" y1="317.128300mm" x2="376.078000mm" y2="316.780000mm" />
  <line x1="376.078000mm" y1="316.780000mm" x2="376.495000mm" y2="316.517900mm" />
  <line x1="376.495000mm" y1="316.517900mm" x2="376.960000mm" y2="316.355200mm" />
  <line x1="376.960000mm" y1="316.355200mm" x2="377.450000mm" y2="316.300000mm" />
  <line x1="377.450000mm" y1="316.300000mm" x2="377.940000mm" y2="316.355200mm" />
  <line x1="377.940000mm" y1="316.355200mm" x2="378.405000mm" y2="316.517900mm" />
  <line x1="378.405000mm" y1="316.517900mm" x2="378.822000mm" y2="316.780000mm" />
  <line x1="378.822000mm" y1="316.780000mm" x2="379.170000mm" y2="317.128300mm" />
  <line x1="379.170000mm" y1="317.128300mm" x2="379.432000mm" y2="317.545500mm" />
  <line x1="379.432000mm" y1="317.545500mm" x2="379.595000mm" y2="318.010500mm" />
  <line x1="379.595000mm" y1="318.010500mm" x2="379.650000mm" y2="318.500000mm" />
  <line x1="379.650000mm" y1="318.500000mm" x2="379.650000mm" y2="327.500000mm" />
  <line x1="379.650000mm" y1="327.500000mm" x2="379.595000mm" y2="327.989500mm" />
  <line x1="379.595000mm" y1="327.989500mm" x2="379.432000mm" y2="328.454600mm" />
  <line x1="379.432000mm" y1="328.454600mm" x2="379.170000mm" y2="328.871700mm" />
  <line x1="379.170000mm" y1="328.871700mm" x2="378.822000mm" y2="329.220000mm" />
  <line x1="378.822000mm" y1="329.220000mm" x2="378.405000mm" y2="329.482100mm" />
  <line x1="378.405000mm" y1="329.482100mm" x2="377.940000mm" y2="329.644900mm" />
  <line x1="377.940000mm" y1="329.644900mm" x2="377.450000mm" y2="329.700000mm" />
  <line x1="16.450000mm" y1="329.700000mm" x2="16.450000mm" y2="329.700000mm" />
  <line x1="16.450000mm" y1="329.700000mm" x2="15.960000mm" y2="329.644900mm" />
  <line x1="15.960000mm" y1="329.644900mm" x2="15.495000mm" y2="329.482100mm" />
  <line x1="15.495000mm" y1="329.482100mm" x2="15.078000mm" y2="329.220000mm" />
  <line x1="15.078000mm" y1="329.220000mm" x2="14.730000mm" y2="328.871700mm" />
  <line x1="14.730000mm" y1="328.871700mm" x2="14.468000mm" y2="328.454600mm" />
  <line x1="14.468000mm" y1="328.454600mm" x2="14.305000mm" y2="327.989500mm" />
  <line x1="14.305000mm" y1="327.989500mm" x2="14.250000mm" y2="327.500000mm" />
  <line x1="14.250000mm" y1="327.500000mm" x2="14.250000mm" y2="318.500000mm" />
  <line x1="14.250000mm" y1="318.500000mm" x2="14.305000mm" y2="318.010500mm" />
  <line x1="14.305000mm" y1="318.010500mm" x2="14.468000mm" y2="317.545500mm" />
  <line x1="14.468000mm" y1="317.545500mm" x2="14.730000mm" y2="317.128300mm" />
  <line x1="14.730000mm" y1="317.128300mm" x2="15.078000mm" y2="316.780000mm" />
  <line x1="15.078000mm" y1="316.780000mm" x2="15.495000mm" y2="316.517900mm" />
  <line x1="15.495000mm" y1="316.517900mm" x2="15.960000mm" y2="316.355200mm" />
  <line x1="15.960000mm" y1="316.355200mm" x2="16.450000mm" y2="316.300000mm" />
  <line x1="16.450000mm" y1="316.300000mm" x2="16.940000mm" y2="316.355200mm" />
  <line x1="16.940000mm" y1="316.355200mm" x2="17.405000mm" y2="316.517900mm" />
  <line x1="17.405000mm" y1="316.517900mm" x2="17.822000mm" y2="316.780000mm" />
  <line x1="17.822000mm" y1="316.780000mm" x2="18.170000mm" y2="317.128300mm" />
  <line x1="18.170000mm" y1="317.128300mm" x2="18.432000mm" y2="317.545500mm" />
  <line x1="18.432000mm" y1="317.545500mm" x2="18.595000mm" y2="318.010500mm" />
  <line x1="18.595000mm" y1="318.010500mm" x2="18.650000mm" y2="318.500000mm" />
  <line x1="18.650000mm" y1="318.500000mm" x2="18.650000mm" y2="327.500000mm" />
  <line x1="18.650000mm" y1="327.500000mm" x2="18.595000mm" y2="327.989500mm" />
  <line x1="18.595000mm" y1="327.989500mm" x2="18.432000mm" y2="328.454600mm" />
  <line x1="18.432000mm" y1="328.454600mm" x2="18.170000mm" y2="328.871700mm" />
  <line x1="18.170000mm" y1="328.871700mm" x2="17.822000mm" y2="329.220000mm" />
  <line x1="17.822000mm" y1="329.220000mm" x2="17.405000mm" y2="329.482100mm" />
  <line x1="17.405000mm" y1="329.482100mm" x2="16.940000mm" y2="329.644900mm" />
  <line x1="16.940000mm" y1="329.644900mm" x2="16.450000mm" y2="329.700000mm" />
  <line x1="407.550000mm" y1="329.700000mm" x2="407.550000mm" y2="329.700000mm" />
  <line x1="407.550000mm" y1="329.700000mm" x2="407.060000mm" y2="329.644900mm" />
  <line x1="407.060000mm" y1="329.644900mm" x2="406.595000mm" y2="329.482100mm" />
  <line x1="406.595000mm" y1="329.482100mm" x2="406.178000mm" y2="329.220000mm" />
  <line x1="406.178000mm" y1="329.220000mm" x2="405.830000mm" y2="328.871700mm" />
  <line x1="405.830000mm" y1="328.871700mm" x2="405.568000mm" y2="328.454600mm" />
  <line x1="405.568000mm" y1="328.454600mm" x2="405.405000mm" y2="327.989500mm" />
  <line x1="405.405000mm" y1="327.989500mm" x2="405.350000mm" y2="327.500000mm" />
  <line x1="405.350000mm" y1="327.500000mm" x2="405.350000mm" y2="318.500000mm" />
  <line x1="405.350000mm" y1="318.500000mm" x2="405.405000mm" y2="318.010500mm" />
  <line x1="405.405000mm" y1="318.010500mm" x2="405.568000mm" y2="317.545500mm" />
  <line x1="405.568000mm" y1="317.545500mm" x2="405.830000mm" y2="317.128300mm" />
  <line x1="405.830000mm" y1="317.128300mm" x2="406.178000mm" y2="316.780000mm" />
  <line x1="406.178000mm" y1="316.780000mm" x2="406.595000mm" y2="316.517900mm" />
  <line x1="406.595000mm" y1="316.517900mm" x2="407.060000mm" y2="316.355200mm" />
  <line x1="407.060000mm" y1="316.355200mm" x2="407.550000mm" y2="316.300000mm" />
  <line x1="407.550000mm" y1="316.300000mm" x2="408.040000mm" y2="316.355200mm" />
  <line x1="408.040000mm" y1="316.355200mm" x2="408.505000mm" y2="316.517900mm" />
  <line x1="408.505000mm" y1="316.517900mm" x2="408.922000mm" y2="316.780000mm" />
  <line x1="408.922000mm" y1="316.780000mm" x2="409.270000mm" y2="317.128300mm" />
  <line x1="409.270000mm" y1="317.128300mm" x2="409.532000mm" y2="317.545500mm" />
  <line x1="409.532000mm" y1="317.545500mm" x2="409.695000mm" y2="318.010500mm" />
  <line x1="409.695000mm" y1="318.010500mm" x2="409.750000mm" y2="318.500000mm" />
  <line x1="409.750000mm" y1="318.500000mm" x2="409.750000mm" y2="327.500000mm" />
  <line x1="409.750000mm" y1="327.500000mm" x2="409.695000mm" y2="327.989500mm" />
  <line x1="409.695000mm" y1="327.989500mm" x2="409.532000mm" y2="328.454600mm" />
  <line x1="409.532000mm" y1="328.454600mm" x2="409.270000mm" y2="328.871700mm" />
  <line x1="409.270000mm" y1="328.871700mm" x2="408.922000mm" y2="329.220000mm" />
  <line x1="408.922000mm" y1="329.220000mm" x2="408.505000mm" y2="329.482100mm" />
  <line x1="408.505000mm" y1="329.482100mm" x2="408.040000mm" y2="329.644900mm" />
  <line x1="408.040000mm" y1="329.644900mm" x2="407.550000mm" y2="329.700000mm" />
  <line x1="46.550000mm" y1="329.700000mm" x2="46.550000mm" y2="329.700000mm" />
  <line x1="46.550000mm" y1="329.700000mm" x2="46.060000mm" y2="329.644900mm" />
  <line x1="46.060000mm" y1="329.644900mm" x2="45.595000mm" y2="329.482100mm" />
  <line x1="45.595000mm" y1="329.482100mm" x2="45.178000mm" y2="329.220000mm" />
  <line x1="45.178000mm" y1="329.220000mm" x2="44.830000mm" y2="328.871700mm" />
  <line x1="44.830000mm" y1="328.871700mm" x2="44.568000mm" y2="328.454600mm" />
  <line x1="44.568000mm" y1="328.454600mm" x2="44.405000mm" y2="327.989500mm" />
  <line x1="44.405000mm" y1="327.989500mm" x2="44.350000mm" y2="327.500000mm" />
  <line x1="44.350000mm" y1="327.500000mm" x2="44.350000mm" y2="318.500000mm" />
  <line x1="44.350000mm" y1="318.500000mm" x2="44.405000mm" y2="318.010500mm" />
  <line x1="44.405000mm" y1="318.010500mm" x2="44.568000mm" y2="317.545500mm" />
  <line x1="44.568000mm" y1="317.545500mm" x2="44.830000mm" y2="317.128300mm" />
  <line x1="44.830000mm" y1="317.128300mm" x2="45.178000mm" y2="316.780000mm" />
  <line x1="45.178000mm" y1="316.780000mm" x2="45.595000mm" y2="316.517900mm" />
  <line x1="45.595000mm" y1="316.517900mm" x2="46.060000mm" y2="316.355200mm" />
  <line x1="46.060000mm" y1="316.355200mm" x2="46.550000mm" y2="316.300000mm" />
  <line x1="46.550000mm" y1="316.300000mm" x2="47.040000mm" y2="316.355200mm" />
  <line x1="47.040000mm" y1="316.355200mm" x2="47.505000mm" y2="316.517900mm" />
  <line x1="47.505000mm" y1="316.517900mm" x2="47.922000mm" y2="316.780000mm" />
  <line x1="47.922000mm" y1="316.780000mm" x2="48.270000mm" y2="317.128300mm" />
  <line x1="48.270000mm" y1="317.128300mm" x2="48.532000mm" y2="317.545500mm" />
  <line x1="48.532000mm" y1="317.545500mm" x2="48.695000mm" y2="318.010500mm" />
  <line x1="48.695000mm" y1="318.010500mm" x2="48.750000mm" y2="318.500000mm" />
  <line x1="48.750000mm" y1="318.500000mm" x2="48.750000mm" y2="327.500000mm" />
  <line x1="48.750000mm" y1="327.500000mm" x2="48.695000mm" y2="327.989500mm" />
  <line x1="48.695000mm" y1="327.989500mm" x2="48.532000mm" y2="328.454600mm" />
  <line x1="48.532000mm" y1="328.454600mm" x2="48.270000mm" y2="328.871700mm" />
  <line x1="48.270000mm" y1="328.871700mm" x2="47.922000mm" y2="329.220000mm" />
  <line x1="47.922000mm" y1="329.220000mm" x2="47.505000mm" y2="329.482100mm" />
  <line x1="47.505000mm" y1="329.482100mm" x2="47.040000mm" y2="329.644900mm" />
  <line x1="47.040000mm" y1="329.644900mm" x2="46.550000mm" y2="329.700000mm" />
  <circle cx="361.750000mm" cy="350.290096mm" r="2.199904mm" fill="none"/>
  <line x1="366.149808mm" y1="350.290096mm" x2="357.350192mm" y2="350.290096mm" />
  <line x1="361.750000mm" y1="345.890288mm" x2="361.750000mm" y2="354.689904mm" />
  <text x="363mm" y="348mm" font-size="24">
   4.4
  </text>
  <circle cx="62.250000mm" cy="350.290096mm" r="2.199904mm" fill="none"/>
  <line x1="66.649808mm" y1="350.290096mm" x2="57.850192mm" y2="350.290096mm" />
  <line x1="62.250000mm" y1="345.890288mm" x2="62.250000mm" y2="354.689904mm" />
  <text x="64mm" y="348mm" font-size="24">
   4.4
  </text>
  <circle cx="393.620028mm" cy="366.099820mm" r="2.500180mm" fill="none"/>
  <line x1="398.620388mm" y1="366.099820mm" x2="388.619668mm" y2="366.099820mm" />
  <line x1="393.620028mm" y1="361.099460mm" x2="393.620028mm" y2="371.100180mm" />
  <text x="396mm" y="363mm" font-size="24">
   5.0
  </text>
  <circle cx="73.080000mm" cy="376.800098mm" r="2.199922mm" fill="none"/>
  <line x1="77.479844mm" y1="376.800098mm" x2="68.680156mm" y2="376.800098mm" />
  <line x1="73.080000mm" y1="372.400254mm" x2="73.080000mm" y2="381.199942mm" />
  <text x="75mm" y="374mm" font-size="24">
   4.4
  </text>
  <circle cx="8.700000mm" cy="376.800098mm" r="2.199922mm" fill="none"/>
  <line x1="13.099844mm" y1="376.800098mm" x2="4.300156mm" y2="376.800098mm" />
  <line x1="8.700000mm" y1="372.400254mm" x2="8.700000mm" y2="381.199942mm" />
  <text x="10mm" y="374mm" font-size="24">
   4.4
  </text>
  <circle cx="459.800000mm" cy="376.800098mm" r="2.199922mm" fill="none"/>
  <line x1="464.199844mm" y1="376.800098mm" x2="455.400156mm" y2="376.800098mm" />
  <line x1="459.800000mm" y1="372.400254mm" x2="459.800000mm" y2="381.199942mm" />
  <text x="461mm" y="374mm" font-size="24">
   4.4
  </text>
  <circle cx="438.580000mm" cy="376.800098mm" r="2.199922mm" fill="none"/>
  <line x1="442.979844mm" y1="376.800098mm" x2="434.180156mm" y2="376.800098mm" />
  <line x1="438.580000mm" y1="372.400254mm" x2="438.580000mm" y2="381.199942mm" />
  <text x="440mm" y="374mm" font-size="24">
   4.4
  </text>
  <circle cx="29.920000mm" cy="376.800098mm" r="2.199922mm" fill="none"/>
  <line x1="34.319844mm" y1="376.800098mm" x2="25.520156mm" y2="376.800098mm" />
  <line x1="29.920000mm" y1="372.400254mm" x2="29.920000mm" y2="381.199942mm" />
  <text x="32mm" y="374mm" font-size="24">
   4.4
  </text>
  <circle cx="401.870000mm" cy="376.800098mm" r="2.199922mm" fill="none"/>
  <line x1="406.269844mm" y1="376.800098mm" x2="397.470156mm" y2="376.800098mm" />
  <line x1="401.870000mm" y1="372.400254mm" x2="401.870000mm" y2="381.199942mm" />
  <text x="404mm" y="374mm" font-size="24">
   4.4
  </text>
  <circle cx="380.650000mm" cy="376.800098mm" r="2.199922mm" fill="none"/>
  <line x1="385.049844mm" y1="376.800098mm" x2="376.250156mm" y2="376.800098mm" />
  <line x1="380.650000mm" y1="372.400254mm" x2="380.650000mm" y2="381.199942mm" />
  <text x="382mm" y="374mm" font-size="24">
   4.4
  </text>
  <circle cx="94.300000mm" cy="376.800098mm" r="2.199922mm" fill="none"/>
  <line x1="98.699844mm" y1="376.800098mm" x2="89.900156mm" y2="376.800098mm" />
  <line x1="94.300000mm" y1="372.400254mm" x2="94.300000mm" y2="381.199942mm" />
  <text x="96mm" y="374mm" font-size="24">
   4.4
  </text>
  <line x1="122.500000mm" y1="384.000000mm" x2="122.500000mm" y2="384.000000mm" />
  <line x1="122.500000mm" y1="384.000000mm" x2="332.747700mm" y2="383.989761mm" />
  <line x1="332.747700mm" y1="383.989761mm" x2="333.236500mm" y2="383.908203mm" />
  <line x1="333.236500mm" y1="383.908203mm" x2="333.705100mm" y2="383.747330mm" />
  <line x1="333.705100mm" y1="383.747330mm" x2="334.140800mm" y2="383.511505mm" />
  <line x1="334.140800mm" y1="383.511505mm" x2="334.532000mm" y2="383.207184mm" />
  <line x1="334.532000mm" y1="383.207184mm" x2="334.867000mm" y2="382.842650mm" />
  <line x1="334.867000mm" y1="382.842650mm" x2="335.138000mm" y2="382.427860mm" />
  <line x1="335.138000mm" y1="382.427860mm" x2="335.337000mm" y2="381.974110mm" />
  <line x1="335.337000mm" y1="381.974110mm" x2="335.459000mm" y2="381.493790mm" />
  <line x1="335.459000mm" y1="381.493790mm" x2="335.500000mm" y2="381.000000mm" />
  <line x1="335.500000mm" y1="381.000000mm" x2="335.490000mm" y2="170.752000mm" />
  <line x1="335.490000mm" y1="170.752000mm" x2="335.408000mm" y2="170.264000mm" />
  <line x1="335.408000mm" y1="170.264000mm" x2="335.247000mm" y2="169.795000mm" />
  <line x1="335.247000mm" y1="169.795000mm" x2="335.011000mm" y2="169.359000mm" />
  <line x1="335.011000mm" y1="169.359000mm" x2="334.707000mm" y2="168.968000mm" />
  <line x1="334.707000mm" y1="168.968000mm" x2="334.343000mm" y2="168.633000mm" />
  <line x1="334.343000mm" y1="168.633000mm" x2="333.927800mm" y2="168.362000mm" />
  <line x1="333.927800mm" y1="168.362000mm" x2="333.474100mm" y2="168.163000mm" />
  <line x1="333.474100mm" y1="168.163000mm" x2="332.993800mm" y2="168.041000mm" />
  <line x1="332.993800mm" y1="168.041000mm" x2="332.500000mm" y2="168.000000mm" />
  <line x1="332.500000mm" y1="168.000000mm" x2="246.010000mm" y2="168.004000mm" />
  <line x1="246.010000mm" y1="168.004000mm" x2="246.010000mm" y2="173.000000mm" />
  <line x1="246.010000mm" y1="173.000000mm" x2="208.990000mm" y2="173.000000mm" />
  <line x1="208.990000mm" y1="173.000000mm" x2="208.990000mm" y2="168.006000mm" />
  <line x1="208.990000mm" y1="168.006000mm" x2="122.252000mm" y2="168.010000mm" />
  <line x1="122.252000mm" y1="168.010000mm" x2="121.764000mm" y2="168.092000mm" />
  <line x1="121.764000mm" y1="168.092000mm" x2="121.295000mm" y2="168.253000mm" />
  <line x1="121.295000mm" y1="168.253000mm" x2="120.859000mm" y2="168.489000mm" />
  <line x1="120.859000mm" y1="168.489000mm" x2="120.468000mm" y2="168.793000mm" />
  <line x1="120.468000mm" y1="168.793000mm" x2="120.133000mm" y2="169.157000mm" />
  <line x1="120.133000mm" y1="169.157000mm" x2="119.862000mm" y2="169.572000mm" />
  <line x1="119.862000mm" y1="169.572000mm" x2="119.663000mm" y2="170.026000mm" />
  <line x1="119.663000mm" y1="170.026000mm" x2="119.541000mm" y2="170.506000mm" />
  <line x1="119.541000mm" y1="170.506000mm" x2="119.500000mm" y2="171.000000mm" />
  <line x1="119.500000mm" y1="171.000000mm" x2="119.510000mm" y2="381.247740mm" />
  <line x1="119.510000mm" y1="381.247740mm" x2="119.592000mm" y2="381.736470mm" />
  <line x1="119.592000mm" y1="381.736470mm" x2="119.753000mm" y2="382.205090mm" />
  <line x1="119.753000mm" y1="382.205090mm" x2="119.989000mm" y2="382.640850mm" />
  <line x1="119.989000mm" y1="382.640850mm" x2="120.293000mm" y2="383.031845mm" />
  <line x1="120.293000mm" y1="383.031845mm" x2="120.657000mm" y2="383.367432mm" />
  <line x1="120.657000mm" y1="383.367432mm" x2="121.072000mm" y2="383.638428mm" />
  <line x1="121.072000mm" y1="383.638428mm" x2="121.526000mm" y2="383.837463mm" />
  <line x1="121.526000mm" y1="383.837463mm" x2="122.006000mm" y2="383.959091mm" />
  <line x1="122.006000mm" y1="383.959091mm" x2="122.500000mm" y2="384.000000mm" />
  <circle cx="123.000000mm" cy="171.499997mm" r="1.250003mm" fill="none"/>
  <line x1="125.500005mm" y1="171.499997mm" x2="120.499995mm" y2="171.499997mm" />
  <line x1="123.000000mm" y1="168.999992mm" x2="123.000000mm" y2="174.000003mm" />
  <text x="124mm" y="170mm" font-size="24">
   2.5
  </text>
  <circle cx="331.999950mm" cy="171.500098mm" r="1.249902mm" fill="none"/>
  <line x1="334.499755mm" y1="171.500098mm" x2="329.500145mm" y2="171.500098mm" />
  <line x1="331.999950mm" y1="169.000293mm" x2="331.999950mm" y2="173.999902mm" />
  <text x="333mm" y="170mm" font-size="24">
   2.5
  </text>
  <circle cx="206.839811mm" cy="177.999831mm" r="1.649797mm" fill="none"/>
  <line x1="210.139405mm" y1="177.999831mm" x2="203.540216mm" y2="177.999831mm" />
  <line x1="206.839811mm" y1="174.700237mm" x2="206.839811mm" y2="181.299425mm" />
  <text x="208mm" y="176mm" font-size="24">
   3.3
  </text>
  <circle cx="248.159811mm" cy="177.999831mm" r="1.649797mm" fill="none"/>
  <line x1="251.459405mm" y1="177.999831mm" x2="244.860216mm" y2="177.999831mm" />
  <line x1="248.159811mm" y1="174.700237mm" x2="248.159811mm" y2="181.299425mm" />
  <text x="249mm" y="176mm" font-size="24">
   3.3
  </text>
  <circle cx="153.200189mm" cy="186.999831mm" r="1.649797mm" fill="none"/>
  <line x1="156.499784mm" y1="186.999831mm" x2="149.900595mm" y2="186.999831mm" />
  <line x1="153.200189mm" y1="183.700237mm" x2="153.200189mm" y2="190.299425mm" />
  <text x="154mm" y="185mm" font-size="24">
   3.3
  </text>
  <circle cx="125.800544mm" cy="206.999805mm" r="1.649827mm" fill="none"/>
  <line x1="129.100198mm" y1="206.999805mm" x2="122.500889mm" y2="206.999805mm" />
  <line x1="125.800544mm" y1="203.700151mm" x2="125.800544mm" y2="210.299459mm" />
  <text x="127mm" y="205mm" font-size="24">
   3.3
  </text>
  <circle cx="195.990121mm" cy="215.675620mm" r="1.649985mm" fill="none"/>
  <line x1="199.290090mm" y1="215.675620mm" x2="192.690151mm" y2="215.675620mm" />
  <line x1="195.990121mm" y1="212.375650mm" x2="195.990121mm" y2="218.975589mm" />
  <text x="197mm" y="214mm" font-size="24">
   3.3
  </text>
  <circle cx="195.990121mm" cy="230.324620mm" r="1.649985mm" fill="none"/>
  <line x1="199.290090mm" y1="230.324620mm" x2="192.690151mm" y2="230.324620mm" />
  <line x1="195.990121mm" y1="227.024650mm" x2="195.990121mm" y2="233.624589mm" />
  <text x="197mm" y="228mm" font-size="24">
   3.3
  </text>
  <circle cx="329.200189mm" cy="265.999831mm" r="1.649797mm" fill="none"/>
  <line x1="332.499784mm" y1="265.999831mm" x2="325.900595mm" y2="265.999831mm" />
  <line x1="329.200189mm" y1="262.700237mm" x2="329.200189mm" y2="269.299425mm" />
  <text x="330mm" y="264mm" font-size="24">
   3.3
  </text>
  <circle cx="301.799988mm" cy="286.000003mm" r="1.650009mm" fill="none"/>
  <line x1="305.100007mm" y1="286.000003mm" x2="298.499970mm" y2="286.000003mm" />
  <line x1="301.799988mm" y1="282.699984mm" x2="301.799988mm" y2="289.300022mm" />
  <text x="303mm" y="284mm" font-size="24">
   3.3
  </text>
  <circle cx="195.989988mm" cy="314.525403mm" r="1.650009mm" fill="none"/>
  <line x1="199.290007mm" y1="314.525403mm" x2="192.689970mm" y2="314.525403mm" />
  <line x1="195.989988mm" y1="311.225384mm" x2="195.989988mm" y2="317.825422mm" />
  <text x="197mm" y="312mm" font-size="24">
   3.3
  </text>
  <circle cx="195.989988mm" cy="329.174603mm" r="1.650009mm" fill="none"/>
  <line x1="199.290007mm" y1="329.174603mm" x2="192.689970mm" y2="329.174603mm" />
  <line x1="195.989988mm" y1="325.874584mm" x2="195.989988mm" y2="332.474622mm" />
  <text x="197mm" y="327mm" font-size="24">
   3.3
  </text>
  <circle cx="153.199988mm" cy="345.000003mm" r="1.650009mm" fill="none"/>
  <line x1="156.500007mm" y1="345.000003mm" x2="149.899970mm" y2="345.000003mm" />
  <line x1="153.199988mm" y1="341.699984mm" x2="153.199988mm" y2="348.300022mm" />
  <text x="154mm" y="343mm" font-size="24">
   3.3
  </text>
  <circle cx="125.800343mm" cy="364.999977mm" r="1.650039mm" fill="none"/>
  <line x1="129.100421mm" y1="364.999977mm" x2="122.500264mm" y2="364.999977mm" />
  <line x1="125.800343mm" y1="361.699898mm" x2="125.800343mm" y2="368.300056mm" />
  <text x="127mm" y="363mm" font-size="24">
   3.3
  </text>
  <circle cx="123.000000mm" cy="380.499901mm" r="1.250099mm" fill="none"/>
  <line x1="125.500199mm" y1="380.499901mm" x2="120.499801mm" y2="380.499901mm" />
  <line x1="123.000000mm" y1="377.999702mm" x2="123.000000mm" y2="383.000099mm" />
  <text x="124mm" y="379mm" font-size="24">
   2.5
  </text>
  <circle cx="331.999950mm" cy="380.500001mm" r="1.249999mm" fill="none"/>
  <line x1="334.499948mm" y1="380.500001mm" x2="329.499952mm" y2="380.500001mm" />
  <line x1="331.999950mm" y1="378.000002mm" x2="331.999950mm" y2="382.999999mm" />
  <text x="333mm" y="379mm" font-size="24">
   2.5
  </text>
 </g>
</svg>
