  0
SECTION
  2
BLOCKS
  0
ENDSEC
  0
SECTION
  2
ENTITIES
  0
LINE
  8
0
 10
0
 20
-166
 11
359
 21
-166
  0
LINE
  8
0
 10
359
 20
-166
 11
361.179
 21
-165.905
  0
LINE
  8
0
 10
361.179
 20
-165.905
 11
363.341
 21
-165.62
  0
LINE
  8
0
 10
363.341
 20
-165.62
 11
365.47
 21
-165.148
  0
LINE
  8
0
 10
365.47
 20
-165.148
 11
367.551
 21
-164.492
  0
LINE
  8
0
 10
367.551
 20
-164.492
 11
369.565
 21
-163.658
  0
LINE
  8
0
 10
369.565
 20
-163.658
 11
371.5
 21
-162.651
  0
LINE
  8
0
 10
371.5
 20
-162.651
 11
373.339
 21
-161.479
  0
LINE
  8
0
 10
373.339
 20
-161.479
 11
375.07
 21
-160.151
  0
LINE
  8
0
 10
375.07
 20
-160.151
 11
376.678
 21
-158.678
  0
LINE
  8
0
 10
376.678
 20
-158.678
 11
378.151
 21
-157.07
  0
LINE
  8
0
 10
378.151
 20
-157.07
 11
379.479
 21
-155.339
  0
LINE
  8
0
 10
379.479
 20
-155.339
 11
380.651
 21
-153.5
  0
LINE
  8
0
 10
380.651
 20
-153.5
 11
381.658
 21
-151.565
  0
LINE
  8
0
 10
381.658
 20
-151.565
 11
382.492
 21
-149.551
  0
LINE
  8
0
 10
382.492
 20
-149.551
 11
383.148
 21
-147.47
  0
LINE
  8
0
 10
383.148
 20
-147.47
 11
383.62
 21
-145.341
  0
LINE
  8
0
 10
383.62
 20
-145.341
 11
383.905
 21
-143.179
  0
LINE
  8
0
 10
383.905
 20
-143.179
 11
384
 21
-141
  0
LINE
  8
0
 10
384
 20
-141
 11
384
 21
0
  0
LINE
  8
0
 10
384
 20
0
 11
329.565
 21
0
  0
LINE
  8
0
 10
329.565
 20
0
 11
329.565
 21
-2.24107
  0
LINE
  8
0
 10
329.565
 20
-2.24107
 11
329.45
 21
-2.70921
  0
LINE
  8
0
 10
329.45
 20
-2.70921
 11
329.226
 21
-3.13613
  0
LINE
  8
0
 10
329.226
 20
-3.13613
 11
328.906
 21
-3.49702
  0
LINE
  8
0
 10
328.906
 20
-3.49702
 11
328.509
 21
-3.77091
  0
LINE
  8
0
 10
328.509
 20
-3.77091
 11
328.059
 21
-3.94188
  0
LINE
  8
0
 10
328.059
 20
-3.94188
 11
327.58
 21
-4
  0
LINE
  8
0
 10
327.58
 20
-4
 11
327.101
 21
-3.94188
  0
LINE
  8
0
 10
327.101
 20
-3.94188
 11
326.651
 21
-3.77091
  0
LINE
  8
0
 10
326.651
 20
-3.77091
 11
326.254
 21
-3.49702
  0
LINE
  8
0
 10
326.254
 20
-3.49702
 11
325.934
 21
-3.13613
  0
LINE
  8
0
 10
325.934
 20
-3.13613
 11
325.71
 21
-2.70921
  0
LINE
  8
0
 10
325.71
 20
-2.70921
 11
325.595
 21
-2.24107
  0
LINE
  8
0
 10
325.595
 20
-2.24107
 11
325.595
 21
0
  0
LINE
  8
0
 10
325.595
 20
0
 11
318.67
 21
0
  0
LINE
  8
0
 10
318.67
 20
0
 11
318.67
 21
-3.24774
  0
LINE
  8
0
 10
318.67
 20
-3.24774
 11
318.588
 21
-3.73646
  0
LINE
  8
0
 10
318.588
 20
-3.73646
 11
318.427
 21
-4.20509
  0
LINE
  8
0
 10
318.427
 20
-4.20509
 11
318.192
 21
-4.64084
  0
LINE
  8
0
 10
318.192
 20
-4.64084
 11
317.887
 21
-5.03184
  0
LINE
  8
0
 10
317.887
 20
-5.03184
 11
317.523
 21
-5.36742
  0
LINE
  8
0
 10
317.523
 20
-5.36742
 11
317.108
 21
-5.63842
  0
LINE
  8
0
 10
317.108
 20
-5.63842
 11
316.654
 21
-5.83745
  0
LINE
  8
0
 10
316.654
 20
-5.83745
 11
316.174
 21
-5.95908
  0
LINE
  8
0
 10
316.174
 20
-5.95908
 11
315.68
 21
-6
  0
LINE
  8
0
 10
315.68
 20
-6
 11
315.186
 21
-5.95908
  0
LINE
  8
0
 10
315.186
 20
-5.95908
 11
314.706
 21
-5.83745
  0
LINE
  8
0
 10
314.706
 20
-5.83745
 11
314.252
 21
-5.63842
  0
LINE
  8
0
 10
314.252
 20
-5.63842
 11
313.837
 21
-5.36742
  0
LINE
  8
0
 10
313.837
 20
-5.36742
 11
313.473
 21
-5.03184
  0
LINE
  8
0
 10
313.473
 20
-5.03184
 11
313.169
 21
-4.64084
  0
LINE
  8
0
 10
313.169
 20
-4.64084
 11
312.933
 21
-4.20509
  0
LINE
  8
0
 10
312.933
 20
-4.20509
 11
312.772
 21
-3.73646
  0
LINE
  8
0
 10
312.772
 20
-3.73646
 11
312.69
 21
-3.24774
  0
LINE
  8
0
 10
312.69
 20
-3.24774
 11
312.69
 21
0
  0
LINE
  8
0
 10
312.69
 20
0
 11
0
 21
0
  0
LINE
  8
0
 10
0
 20
0
 11
0
 21
-14.4
  0
LINE
  8
0
 10
0
 20
-14.4
 11
2.5
 21
-14.4
  0
LINE
  8
0
 10
2.5
 20
-14.4
 11
2.98773
 21
-14.448
  0
LINE
  8
0
 10
2.98773
 20
-14.448
 11
3.45671
 21
-14.5903
  0
LINE
  8
0
 10
3.45671
 20
-14.5903
 11
3.88893
 21
-14.8213
  0
LINE
  8
0
 10
3.88893
 20
-14.8213
 11
4.26777
 21
-15.1322
  0
LINE
  8
0
 10
4.26777
 20
-15.1322
 11
4.57867
 21
-15.5111
  0
LINE
  8
0
 10
4.57867
 20
-15.5111
 11
4.8097
 21
-15.9433
  0
LINE
  8
0
 10
4.8097
 20
-15.9433
 11
4.95196
 21
-16.4123
  0
LINE
  8
0
 10
4.95196
 20
-16.4123
 11
5
 21
-16.9
  0
LINE
  8
0
 10
5
 20
-16.9
 11
4.95196
 21
-17.3877
  0
LINE
  8
0
 10
4.95196
 20
-17.3877
 11
4.8097
 21
-17.8567
  0
LINE
  8
0
 10
4.8097
 20
-17.8567
 11
4.57867
 21
-18.2889
  0
LINE
  8
0
 10
4.57867
 20
-18.2889
 11
4.26777
 21
-18.6678
  0
LINE
  8
0
 10
4.26777
 20
-18.6678
 11
3.88893
 21
-18.9787
  0
LINE
  8
0
 10
3.88893
 20
-18.9787
 11
3.45671
 21
-19.2097
  0
LINE
  8
0
 10
3.45671
 20
-19.2097
 11
2.98773
 21
-19.352
  0
LINE
  8
0
 10
2.98773
 20
-19.352
 11
2.5
 21
-19.4
  0
LINE
  8
0
 10
2.5
 20
-19.4
 11
0
 21
-19.4
  0
LINE
  8
0
 10
0
 20
-19.4
 11
0
 21
-24.4146
  0
LINE
  8
0
 10
0
 20
-24.4146
 11
2.24107
 21
-24.4146
  0
LINE
  8
0
 10
2.24107
 20
-24.4146
 11
2.70921
 21
-24.53
  0
LINE
  8
0
 10
2.70921
 20
-24.53
 11
3.13613
 21
-24.754
  0
LINE
  8
0
 10
3.13613
 20
-24.754
 11
3.49702
 21
-25.0738
  0
LINE
  8
0
 10
3.49702
 20
-25.0738
 11
3.77091
 21
-25.4706
  0
LINE
  8
0
 10
3.77091
 20
-25.4706
 11
3.94188
 21
-25.9214
  0
LINE
  8
0
 10
3.94188
 20
-25.9214
 11
4
 21
-26.4
  0
LINE
  8
0
 10
4
 20
-26.4
 11
3.94188
 21
-26.8786
  0
LINE
  8
0
 10
3.94188
 20
-26.8786
 11
3.77091
 21
-27.3294
  0
LINE
  8
0
 10
3.77091
 20
-27.3294
 11
3.49702
 21
-27.7262
  0
LINE
  8
0
 10
3.49702
 20
-27.7262
 11
3.13613
 21
-28.046
  0
LINE
  8
0
 10
3.13613
 20
-28.046
 11
2.70921
 21
-28.27
  0
LINE
  8
0
 10
2.70921
 20
-28.27
 11
2.24107
 21
-28.3854
  0
LINE
  8
0
 10
2.24107
 20
-28.3854
 11
0
 21
-28.3854
  0
LINE
  8
0
 10
0
 20
-28.3854
 11
0
 21
-87.9146
  0
LINE
  8
0
 10
0
 20
-87.9146
 11
2.24107
 21
-87.9146
  0
LINE
  8
0
 10
2.24107
 20
-87.9146
 11
2.70921
 21
-88.03
  0
LINE
  8
0
 10
2.70921
 20
-88.03
 11
3.13613
 21
-88.254
  0
LINE
  8
0
 10
3.13613
 20
-88.254
 11
3.49702
 21
-88.5738
  0
LINE
  8
0
 10
3.49702
 20
-88.5738
 11
3.77091
 21
-88.9706
  0
LINE
  8
0
 10
3.77091
 20
-88.9706
 11
3.94188
 21
-89.4214
  0
LINE
  8
0
 10
3.94188
 20
-89.4214
 11
4
 21
-89.9
  0
LINE
  8
0
 10
4
 20
-89.9
 11
3.94188
 21
-90.3786
  0
LINE
  8
0
 10
3.94188
 20
-90.3786
 11
3.77091
 21
-90.8294
  0
LINE
  8
0
 10
3.77091
 20
-90.8294
 11
3.49702
 21
-91.2262
  0
LINE
  8
0
 10
3.49702
 20
-91.2262
 11
3.13613
 21
-91.546
  0
LINE
  8
0
 10
3.13613
 20
-91.546
 11
2.70921
 21
-91.77
  0
LINE
  8
0
 10
2.70921
 20
-91.77
 11
2.24107
 21
-91.8854
  0
LINE
  8
0
 10
2.24107
 20
-91.8854
 11
0
 21
-91.8854
  0
LINE
  8
0
 10
0
 20
-91.8854
 11
0
 21
-99
  0
LINE
  8
0
 10
0
 20
-99
 11
3.5
 21
-99
  0
LINE
  8
0
 10
3.5
 20
-99
 11
3.9981
 21
-99.0356
  0
LINE
  8
0
 10
3.9981
 20
-99.0356
 11
4.48606
 21
-99.1418
  0
LINE
  8
0
 10
4.48606
 20
-99.1418
 11
4.95395
 21
-99.3163
  0
LINE
  8
0
 10
4.95395
 20
-99.3163
 11
5.39224
 21
-99.5556
  0
LINE
  8
0
 10
5.39224
 20
-99.5556
 11
5.79201
 21
-99.8549
  0
LINE
  8
0
 10
5.79201
 20
-99.8549
 11
6.14512
 21
-100.208
  0
LINE
  8
0
 10
6.14512
 20
-100.208
 11
6.44439
 21
-100.608
  0
LINE
  8
0
 10
6.44439
 20
-100.608
 11
6.68371
 21
-101.046
  0
LINE
  8
0
 10
6.68371
 20
-101.046
 11
6.85822
 21
-101.514
  0
LINE
  8
0
 10
6.85822
 20
-101.514
 11
6.96437
 21
-102.002
  0
LINE
  8
0
 10
6.96437
 20
-102.002
 11
7
 21
-102.5
  0
LINE
  8
0
 10
7
 20
-102.5
 11
6.96437
 21
-102.998
  0
LINE
  8
0
 10
6.96437
 20
-102.998
 11
6.85822
 21
-103.486
  0
LINE
  8
0
 10
6.85822
 20
-103.486
 11
6.68371
 21
-103.954
  0
LINE
  8
0
 10
6.68371
 20
-103.954
 11
6.44439
 21
-104.392
  0
LINE
  8
0
 10
6.44439
 20
-104.392
 11
6.14512
 21
-104.792
  0
LINE
  8
0
 10
6.14512
 20
-104.792
 11
5.79201
 21
-105.145
  0
LINE
  8
0
 10
5.79201
 20
-105.145
 11
5.39224
 21
-105.444
  0
LINE
  8
0
 10
5.39224
 20
-105.444
 11
4.95395
 21
-105.684
  0
LINE
  8
0
 10
4.95395
 20
-105.684
 11
4.48606
 21
-105.858
  0
LINE
  8
0
 10
4.48606
 20
-105.858
 11
3.9981
 21
-105.964
  0
LINE
  8
0
 10
3.9981
 20
-105.964
 11
3.5
 21
-106
  0
LINE
  8
0
 10
3.5
 20
-106
 11
0
 21
-106
  0
LINE
  8
0
 10
0
 20
-106
 11
0
 21
-166
  0
LINE
  8
0
 10
5
 20
-157.3
 11
5.05516
 21
-156.81
  0
LINE
  8
0
 10
5.05516
 20
-156.81
 11
5.21787
 21
-156.345
  0
LINE
  8
0
 10
5.21787
 20
-156.345
 11
5.47997
 21
-155.928
  0
LINE
  8
0
 10
5.47997
 20
-155.928
 11
5.82832
 21
-155.58
  0
LINE
  8
0
 10
5.82832
 20
-155.58
 11
6.24546
 21
-155.318
  0
LINE
  8
0
 10
6.24546
 20
-155.318
 11
6.71045
 21
-155.155
  0
LINE
  8
0
 10
6.71045
 20
-155.155
 11
7.2
 21
-155.1
  0
LINE
  8
0
 10
7.2
 20
-155.1
 11
7.68955
 21
-155.155
  0
LINE
  8
0
 10
7.68955
 20
-155.155
 11
8.15454
 21
-155.318
  0
LINE
  8
0
 10
8.15454
 20
-155.318
 11
8.57168
 21
-155.58
  0
LINE
  8
0
 10
8.57168
 20
-155.58
 11
8.92003
 21
-155.928
  0
LINE
  8
0
 10
8.92003
 20
-155.928
 11
9.18213
 21
-156.345
  0
LINE
  8
0
 10
9.18213
 20
-156.345
 11
9.34484
 21
-156.81
  0
LINE
  8
0
 10
9.34484
 20
-156.81
 11
9.4
 21
-157.3
  0
LINE
  8
0
 10
9.4
 20
-157.3
 11
9.34484
 21
-157.79
  0
LINE
  8
0
 10
9.34484
 20
-157.79
 11
9.18213
 21
-158.255
  0
LINE
  8
0
 10
9.18213
 20
-158.255
 11
8.92003
 21
-158.672
  0
LINE
  8
0
 10
8.92003
 20
-158.672
 11
8.57168
 21
-159.02
  0
LINE
  8
0
 10
8.57168
 20
-159.02
 11
8.15454
 21
-159.282
  0
LINE
  8
0
 10
8.15454
 20
-159.282
 11
7.68955
 21
-159.445
  0
LINE
  8
0
 10
7.68955
 20
-159.445
 11
7.2
 21
-159.5
  0
LINE
  8
0
 10
7.2
 20
-159.5
 11
6.71045
 21
-159.445
  0
LINE
  8
0
 10
6.71045
 20
-159.445
 11
6.24546
 21
-159.282
  0
LINE
  8
0
 10
6.24546
 20
-159.282
 11
5.82832
 21
-159.02
  0
LINE
  8
0
 10
5.82832
 20
-159.02
 11
5.47997
 21
-158.672
  0
LINE
  8
0
 10
5.47997
 20
-158.672
 11
5.21787
 21
-158.255
  0
LINE
  8
0
 10
5.21787
 20
-158.255
 11
5.05516
 21
-157.79
  0
LINE
  8
0
 10
5.05516
 20
-157.79
 11
5
 21
-157.3
  0
LINE
  8
0
 10
5
 20
-136.08
 11
5.05516
 21
-135.59
  0
LINE
  8
0
 10
5.05516
 20
-135.59
 11
5.21787
 21
-135.125
  0
LINE
  8
0
 10
5.21787
 20
-135.125
 11
5.47997
 21
-134.708
  0
LINE
  8
0
 10
5.47997
 20
-134.708
 11
5.82832
 21
-134.36
  0
LINE
  8
0
 10
5.82832
 20
-134.36
 11
6.24546
 21
-134.098
  0
LINE
  8
0
 10
6.24546
 20
-134.098
 11
6.71045
 21
-133.935
  0
LINE
  8
0
 10
6.71045
 20
-133.935
 11
7.2
 21
-133.88
  0
LINE
  8
0
 10
7.2
 20
-133.88
 11
7.68955
 21
-133.935
  0
LINE
  8
0
 10
7.68955
 20
-133.935
 11
8.15454
 21
-134.098
  0
LINE
  8
0
 10
8.15454
 20
-134.098
 11
8.57168
 21
-134.36
  0
LINE
  8
0
 10
8.57168
 20
-134.36
 11
8.92003
 21
-134.708
  0
LINE
  8
0
 10
8.92003
 20
-134.708
 11
9.18213
 21
-135.125
  0
LINE
  8
0
 10
9.18213
 20
-135.125
 11
9.34484
 21
-135.59
  0
LINE
  8
0
 10
9.34484
 20
-135.59
 11
9.4
 21
-136.08
  0
LINE
  8
0
 10
9.4
 20
-136.08
 11
9.34484
 21
-136.57
  0
LINE
  8
0
 10
9.34484
 20
-136.57
 11
9.18213
 21
-137.035
  0
LINE
  8
0
 10
9.18213
 20
-137.035
 11
8.92003
 21
-137.452
  0
LINE
  8
0
 10
8.92003
 20
-137.452
 11
8.57168
 21
-137.8
  0
LINE
  8
0
 10
8.57168
 20
-137.8
 11
8.15454
 21
-138.062
  0
LINE
  8
0
 10
8.15454
 20
-138.062
 11
7.68955
 21
-138.225
  0
LINE
  8
0
 10
7.68955
 20
-138.225
 11
7.2
 21
-138.28
  0
LINE
  8
0
 10
7.2
 20
-138.28
 11
6.71045
 21
-138.225
  0
LINE
  8
0
 10
6.71045
 20
-138.225
 11
6.24546
 21
-138.062
  0
LINE
  8
0
 10
6.24546
 20
-138.062
 11
5.82832
 21
-137.8
  0
LINE
  8
0
 10
5.82832
 20
-137.8
 11
5.47997
 21
-137.452
  0
LINE
  8
0
 10
5.47997
 20
-137.452
 11
5.21787
 21
-137.035
  0
LINE
  8
0
 10
5.21787
 20
-137.035
 11
5.05516
 21
-136.57
  0
LINE
  8
0
 10
5.05516
 20
-136.57
 11
5
 21
-136.08
  0
LINE
  8
0
 10
19.71
 20
-99.5
 11
19.7833
 21
-99.0137
  0
LINE
  8
0
 10
19.7833
 20
-99.0137
 11
19.9967
 21
-98.5705
  0
LINE
  8
0
 10
19.9967
 20
-98.5705
 11
20.3312
 21
-98.21
  0
LINE
  8
0
 10
20.3312
 20
-98.21
 11
20.7572
 21
-97.9641
  0
LINE
  8
0
 10
20.7572
 20
-97.9641
 11
21.2367
 21
-97.8546
  0
LINE
  8
0
 10
21.2367
 20
-97.8546
 11
21.7272
 21
-97.8914
  0
LINE
  8
0
 10
21.7272
 20
-97.8914
 11
22.185
 21
-98.0711
  0
LINE
  8
0
 10
22.185
 20
-98.0711
 11
22.5695
 21
-98.3777
  0
LINE
  8
0
 10
22.5695
 20
-98.3777
 11
22.8466
 21
-98.7841
  0
LINE
  8
0
 10
22.8466
 20
-98.7841
 11
22.9916
 21
-99.2541
  0
LINE
  8
0
 10
22.9916
 20
-99.2541
 11
22.9916
 21
-99.7459
  0
LINE
  8
0
 10
22.9916
 20
-99.7459
 11
22.8466
 21
-100.216
  0
LINE
  8
0
 10
22.8466
 20
-100.216
 11
22.5695
 21
-100.622
  0
LINE
  8
0
 10
22.5695
 20
-100.622
 11
22.185
 21
-100.929
  0
LINE
  8
0
 10
22.185
 20
-100.929
 11
21.7272
 21
-101.109
  0
LINE
  8
0
 10
21.7272
 20
-101.109
 11
21.2367
 21
-101.145
  0
LINE
  8
0
 10
21.2367
 20
-101.145
 11
20.7572
 21
-101.036
  0
LINE
  8
0
 10
20.7572
 20
-101.036
 11
20.3312
 21
-100.79
  0
LINE
  8
0
 10
20.3312
 20
-100.79
 11
19.9967
 21
-100.429
  0
LINE
  8
0
 10
19.9967
 20
-100.429
 11
19.7833
 21
-99.9863
  0
LINE
  8
0
 10
19.7833
 20
-99.9863
 11
19.71
 21
-99.5
  0
LINE
  8
0
 10
19.71
 20
-25.5
 11
19.7833
 21
-25.0137
  0
LINE
  8
0
 10
19.7833
 20
-25.0137
 11
19.9967
 21
-24.5705
  0
LINE
  8
0
 10
19.9967
 20
-24.5705
 11
20.3312
 21
-24.21
  0
LINE
  8
0
 10
20.3312
 20
-24.21
 11
20.7572
 21
-23.9641
  0
LINE
  8
0
 10
20.7572
 20
-23.9641
 11
21.2367
 21
-23.8546
  0
LINE
  8
0
 10
21.2367
 20
-23.8546
 11
21.7272
 21
-23.8914
  0
LINE
  8
0
 10
21.7272
 20
-23.8914
 11
22.185
 21
-24.0711
  0
LINE
  8
0
 10
22.185
 20
-24.0711
 11
22.5695
 21
-24.3777
  0
LINE
  8
0
 10
22.5695
 20
-24.3777
 11
22.8466
 21
-24.7841
  0
LINE
  8
0
 10
22.8466
 20
-24.7841
 11
22.9916
 21
-25.2541
  0
LINE
  8
0
 10
22.9916
 20
-25.2541
 11
22.9916
 21
-25.7459
  0
LINE
  8
0
 10
22.9916
 20
-25.7459
 11
22.8466
 21
-26.2159
  0
LINE
  8
0
 10
22.8466
 20
-26.2159
 11
22.5695
 21
-26.6223
  0
LINE
  8
0
 10
22.5695
 20
-26.6223
 11
22.185
 21
-26.9289
  0
LINE
  8
0
 10
22.185
 20
-26.9289
 11
21.7272
 21
-27.1086
  0
LINE
  8
0
 10
21.7272
 20
-27.1086
 11
21.2367
 21
-27.1454
  0
LINE
  8
0
 10
21.2367
 20
-27.1454
 11
20.7572
 21
-27.0359
  0
LINE
  8
0
 10
20.7572
 20
-27.0359
 11
20.3312
 21
-26.79
  0
LINE
  8
0
 10
20.3312
 20
-26.79
 11
19.9967
 21
-26.4295
  0
LINE
  8
0
 10
19.9967
 20
-26.4295
 11
19.7833
 21
-25.9863
  0
LINE
  8
0
 10
19.7833
 20
-25.9863
 11
19.71
 21
-25.5
  0
LINE
  8
0
 10
20.9
 20
-7.2
 11
20.9552
 21
-6.71045
  0
LINE
  8
0
 10
20.9552
 20
-6.71045
 11
21.1179
 21
-6.24546
  0
LINE
  8
0
 10
21.1179
 20
-6.24546
 11
21.38
 21
-5.82832
  0
LINE
  8
0
 10
21.38
 20
-5.82832
 11
21.7283
 21
-5.47997
  0
LINE
  8
0
 10
21.7283
 20
-5.47997
 11
22.1455
 21
-5.21787
  0
LINE
  8
0
 10
22.1455
 20
-5.21787
 11
22.6105
 21
-5.05516
  0
LINE
  8
0
 10
22.6105
 20
-5.05516
 11
23.1
 21
-5
  0
LINE
  8
0
 10
23.1
 20
-5
 11
23.5895
 21
-5.05516
  0
LINE
  8
0
 10
23.5895
 20
-5.05516
 11
24.0545
 21
-5.21787
  0
LINE
  8
0
 10
24.0545
 20
-5.21787
 11
24.4717
 21
-5.47997
  0
LINE
  8
0
 10
24.4717
 20
-5.47997
 11
24.82
 21
-5.82832
  0
LINE
  8
0
 10
24.82
 20
-5.82832
 11
25.0821
 21
-6.24546
  0
LINE
  8
0
 10
25.0821
 20
-6.24546
 11
25.2448
 21
-6.71045
  0
LINE
  8
0
 10
25.2448
 20
-6.71045
 11
25.3
 21
-7.2
  0
LINE
  8
0
 10
25.3
 20
-7.2
 11
25.2448
 21
-7.68955
  0
LINE
  8
0
 10
25.2448
 20
-7.68955
 11
25.0821
 21
-8.15454
  0
LINE
  8
0
 10
25.0821
 20
-8.15454
 11
24.82
 21
-8.57168
  0
LINE
  8
0
 10
24.82
 20
-8.57168
 11
24.4717
 21
-8.92003
  0
LINE
  8
0
 10
24.4717
 20
-8.92003
 11
24.0545
 21
-9.18213
  0
LINE
  8
0
 10
24.0545
 20
-9.18213
 11
23.5895
 21
-9.34484
  0
LINE
  8
0
 10
23.5895
 20
-9.34484
 11
23.1
 21
-9.4
  0
LINE
  8
0
 10
23.1
 20
-9.4
 11
22.6105
 21
-9.34484
  0
LINE
  8
0
 10
22.6105
 20
-9.34484
 11
22.1455
 21
-9.18213
  0
LINE
  8
0
 10
22.1455
 20
-9.18213
 11
21.7283
 21
-8.92003
  0
LINE
  8
0
 10
21.7283
 20
-8.92003
 11
21.38
 21
-8.57168
  0
LINE
  8
0
 10
21.38
 20
-8.57168
 11
21.1179
 21
-8.15454
  0
LINE
  8
0
 10
21.1179
 20
-8.15454
 11
20.9552
 21
-7.68955
  0
LINE
  8
0
 10
20.9552
 20
-7.68955
 11
20.9
 21
-7.2
  0
LINE
  8
0
 10
42.12
 20
-7.2
 11
42.1752
 21
-6.71045
  0
LINE
  8
0
 10
42.1752
 20
-6.71045
 11
42.3379
 21
-6.24546
  0
LINE
  8
0
 10
42.3379
 20
-6.24546
 11
42.6
 21
-5.82832
  0
LINE
  8
0
 10
42.6
 20
-5.82832
 11
42.9483
 21
-5.47997
  0
LINE
  8
0
 10
42.9483
 20
-5.47997
 11
43.3655
 21
-5.21787
  0
LINE
  8
0
 10
43.3655
 20
-5.21787
 11
43.8305
 21
-5.05516
  0
LINE
  8
0
 10
43.8305
 20
-5.05516
 11
44.32
 21
-5
  0
LINE
  8
0
 10
44.32
 20
-5
 11
44.8095
 21
-5.05516
  0
LINE
  8
0
 10
44.8095
 20
-5.05516
 11
45.2745
 21
-5.21787
  0
LINE
  8
0
 10
45.2745
 20
-5.21787
 11
45.6917
 21
-5.47997
  0
LINE
  8
0
 10
45.6917
 20
-5.47997
 11
46.04
 21
-5.82832
  0
LINE
  8
0
 10
46.04
 20
-5.82832
 11
46.3021
 21
-6.24546
  0
LINE
  8
0
 10
46.3021
 20
-6.24546
 11
46.4648
 21
-6.71045
  0
LINE
  8
0
 10
46.4648
 20
-6.71045
 11
46.52
 21
-7.2
  0
LINE
  8
0
 10
46.52
 20
-7.2
 11
46.4648
 21
-7.68955
  0
LINE
  8
0
 10
46.4648
 20
-7.68955
 11
46.3021
 21
-8.15454
  0
LINE
  8
0
 10
46.3021
 20
-8.15454
 11
46.04
 21
-8.57168
  0
LINE
  8
0
 10
46.04
 20
-8.57168
 11
45.6917
 21
-8.92003
  0
LINE
  8
0
 10
45.6917
 20
-8.92003
 11
45.2745
 21
-9.18213
  0
LINE
  8
0
 10
45.2745
 20
-9.18213
 11
44.8095
 21
-9.34484
  0
LINE
  8
0
 10
44.8095
 20
-9.34484
 11
44.32
 21
-9.4
  0
LINE
  8
0
 10
44.32
 20
-9.4
 11
43.8305
 21
-9.34484
  0
LINE
  8
0
 10
43.8305
 20
-9.34484
 11
43.3655
 21
-9.18213
  0
LINE
  8
0
 10
43.3655
 20
-9.18213
 11
42.9483
 21
-8.92003
  0
LINE
  8
0
 10
42.9483
 20
-8.92003
 11
42.6
 21
-8.57168
  0
LINE
  8
0
 10
42.6
 20
-8.57168
 11
42.3379
 21
-8.15454
  0
LINE
  8
0
 10
42.3379
 20
-8.15454
 11
42.1752
 21
-7.68955
  0
LINE
  8
0
 10
42.1752
 20
-7.68955
 11
42.12
 21
-7.2
  0
LINE
  8
0
 10
44.7
 20
-117.5
 11
44.7552
 21
-117.01
  0
LINE
  8
0
 10
44.7552
 20
-117.01
 11
44.9179
 21
-116.545
  0
LINE
  8
0
 10
44.9179
 20
-116.545
 11
45.18
 21
-116.128
  0
LINE
  8
0
 10
45.18
 20
-116.128
 11
45.5283
 21
-115.78
  0
LINE
  8
0
 10
45.5283
 20
-115.78
 11
45.9455
 21
-115.518
  0
LINE
  8
0
 10
45.9455
 20
-115.518
 11
46.4105
 21
-115.355
  0
LINE
  8
0
 10
46.4105
 20
-115.355
 11
46.9
 21
-115.3
  0
LINE
  8
0
 10
46.9
 20
-115.3
 11
47.3895
 21
-115.355
  0
LINE
  8
0
 10
47.3895
 20
-115.355
 11
47.8545
 21
-115.518
  0
LINE
  8
0
 10
47.8545
 20
-115.518
 11
48.2717
 21
-115.78
  0
LINE
  8
0
 10
48.2717
 20
-115.78
 11
48.62
 21
-116.128
  0
LINE
  8
0
 10
48.62
 20
-116.128
 11
48.8821
 21
-116.545
  0
LINE
  8
0
 10
48.8821
 20
-116.545
 11
49.0448
 21
-117.01
  0
LINE
  8
0
 10
49.0448
 20
-117.01
 11
49.1
 21
-117.5
  0
LINE
  8
0
 10
49.1
 20
-117.5
 11
49.0448
 21
-117.99
  0
LINE
  8
0
 10
49.0448
 20
-117.99
 11
48.8821
 21
-118.455
  0
LINE
  8
0
 10
48.8821
 20
-118.455
 11
48.62
 21
-118.872
  0
LINE
  8
0
 10
48.62
 20
-118.872
 11
48.2717
 21
-119.22
  0
LINE
  8
0
 10
48.2717
 20
-119.22
 11
47.8545
 21
-119.482
  0
LINE
  8
0
 10
47.8545
 20
-119.482
 11
47.3895
 21
-119.645
  0
LINE
  8
0
 10
47.3895
 20
-119.645
 11
46.9
 21
-119.7
  0
LINE
  8
0
 10
46.9
 20
-119.7
 11
46.4105
 21
-119.645
  0
LINE
  8
0
 10
46.4105
 20
-119.645
 11
45.9455
 21
-119.482
  0
LINE
  8
0
 10
45.9455
 20
-119.482
 11
45.5283
 21
-119.22
  0
LINE
  8
0
 10
45.5283
 20
-119.22
 11
45.18
 21
-118.872
  0
LINE
  8
0
 10
45.18
 20
-118.872
 11
44.9179
 21
-118.455
  0
LINE
  8
0
 10
44.9179
 20
-118.455
 11
44.7552
 21
-117.99
  0
LINE
  8
0
 10
44.7552
 20
-117.99
 11
44.7
 21
-117.5
  0
LINE
  8
0
 10
44.7
 20
-67.5
 11
44.7552
 21
-67.0105
  0
LINE
  8
0
 10
44.7552
 20
-67.0105
 11
44.9179
 21
-66.5455
  0
LINE
  8
0
 10
44.9179
 20
-66.5455
 11
45.18
 21
-66.1283
  0
LINE
  8
0
 10
45.18
 20
-66.1283
 11
45.5283
 21
-65.78
  0
LINE
  8
0
 10
45.5283
 20
-65.78
 11
45.9455
 21
-65.5179
  0
LINE
  8
0
 10
45.9455
 20
-65.5179
 11
46.4105
 21
-65.3552
  0
LINE
  8
0
 10
46.4105
 20
-65.3552
 11
46.9
 21
-65.3
  0
LINE
  8
0
 10
46.9
 20
-65.3
 11
47.3895
 21
-65.3552
  0
LINE
  8
0
 10
47.3895
 20
-65.3552
 11
47.8545
 21
-65.5179
  0
LINE
  8
0
 10
47.8545
 20
-65.5179
 11
48.2717
 21
-65.78
  0
LINE
  8
0
 10
48.2717
 20
-65.78
 11
48.62
 21
-66.1283
  0
LINE
  8
0
 10
48.62
 20
-66.1283
 11
48.8821
 21
-66.5455
  0
LINE
  8
0
 10
48.8821
 20
-66.5455
 11
49.0448
 21
-67.0105
  0
LINE
  8
0
 10
49.0448
 20
-67.0105
 11
49.1
 21
-67.5
  0
LINE
  8
0
 10
49.1
 20
-67.5
 11
49.0448
 21
-67.9895
  0
LINE
  8
0
 10
49.0448
 20
-67.9895
 11
48.8821
 21
-68.4545
  0
LINE
  8
0
 10
48.8821
 20
-68.4545
 11
48.62
 21
-68.8717
  0
LINE
  8
0
 10
48.62
 20
-68.8717
 11
48.2717
 21
-69.22
  0
LINE
  8
0
 10
48.2717
 20
-69.22
 11
47.8545
 21
-69.4821
  0
LINE
  8
0
 10
47.8545
 20
-69.4821
 11
47.3895
 21
-69.6448
  0
LINE
  8
0
 10
47.3895
 20
-69.6448
 11
46.9
 21
-69.7
  0
LINE
  8
0
 10
46.9
 20
-69.7
 11
46.4105
 21
-69.6448
  0
LINE
  8
0
 10
46.4105
 20
-69.6448
 11
45.9455
 21
-69.4821
  0
LINE
  8
0
 10
45.9455
 20
-69.4821
 11
45.5283
 21
-69.22
  0
LINE
  8
0
 10
45.5283
 20
-69.22
 11
45.18
 21
-68.8717
  0
LINE
  8
0
 10
45.18
 20
-68.8717
 11
44.9179
 21
-68.4545
  0
LINE
  8
0
 10
44.9179
 20
-68.4545
 11
44.7552
 21
-67.9895
  0
LINE
  8
0
 10
44.7552
 20
-67.9895
 11
44.7
 21
-67.5
  0
LINE
  8
0
 10
64.71
 20
-94.5
 11
64.7833
 21
-94.0137
  0
LINE
  8
0
 10
64.7833
 20
-94.0137
 11
64.9967
 21
-93.5705
  0
LINE
  8
0
 10
64.9967
 20
-93.5705
 11
65.3312
 21
-93.21
  0
LINE
  8
0
 10
65.3312
 20
-93.21
 11
65.7572
 21
-92.9641
  0
LINE
  8
0
 10
65.7572
 20
-92.9641
 11
66.2367
 21
-92.8546
  0
LINE
  8
0
 10
66.2367
 20
-92.8546
 11
66.7272
 21
-92.8914
  0
LINE
  8
0
 10
66.7272
 20
-92.8914
 11
67.185
 21
-93.0711
  0
LINE
  8
0
 10
67.185
 20
-93.0711
 11
67.5695
 21
-93.3777
  0
LINE
  8
0
 10
67.5695
 20
-93.3777
 11
67.8466
 21
-93.7841
  0
LINE
  8
0
 10
67.8466
 20
-93.7841
 11
67.9916
 21
-94.2541
  0
LINE
  8
0
 10
67.9916
 20
-94.2541
 11
67.9916
 21
-94.7459
  0
LINE
  8
0
 10
67.9916
 20
-94.7459
 11
67.8466
 21
-95.2159
  0
LINE
  8
0
 10
67.8466
 20
-95.2159
 11
67.5695
 21
-95.6223
  0
LINE
  8
0
 10
67.5695
 20
-95.6223
 11
67.185
 21
-95.9289
  0
LINE
  8
0
 10
67.185
 20
-95.9289
 11
66.7272
 21
-96.1086
  0
LINE
  8
0
 10
66.7272
 20
-96.1086
 11
66.2367
 21
-96.1454
  0
LINE
  8
0
 10
66.2367
 20
-96.1454
 11
65.7572
 21
-96.0359
  0
LINE
  8
0
 10
65.7572
 20
-96.0359
 11
65.3312
 21
-95.79
  0
LINE
  8
0
 10
65.3312
 20
-95.79
 11
64.9967
 21
-95.4295
  0
LINE
  8
0
 10
64.9967
 20
-95.4295
 11
64.7833
 21
-94.9863
  0
LINE
  8
0
 10
64.7833
 20
-94.9863
 11
64.71
 21
-94.5
  0
LINE
  8
0
 10
64.71
 20
-25.5
 11
64.7833
 21
-25.0137
  0
LINE
  8
0
 10
64.7833
 20
-25.0137
 11
64.9967
 21
-24.5705
  0
LINE
  8
0
 10
64.9967
 20
-24.5705
 11
65.3312
 21
-24.21
  0
LINE
  8
0
 10
65.3312
 20
-24.21
 11
65.7572
 21
-23.9641
  0
LINE
  8
0
 10
65.7572
 20
-23.9641
 11
66.2367
 21
-23.8546
  0
LINE
  8
0
 10
66.2367
 20
-23.8546
 11
66.7272
 21
-23.8914
  0
LINE
  8
0
 10
66.7272
 20
-23.8914
 11
67.185
 21
-24.0711
  0
LINE
  8
0
 10
67.185
 20
-24.0711
 11
67.5695
 21
-24.3777
  0
LINE
  8
0
 10
67.5695
 20
-24.3777
 11
67.8466
 21
-24.7841
  0
LINE
  8
0
 10
67.8466
 20
-24.7841
 11
67.9916
 21
-25.2541
  0
LINE
  8
0
 10
67.9916
 20
-25.2541
 11
67.9916
 21
-25.7459
  0
LINE
  8
0
 10
67.9916
 20
-25.7459
 11
67.8466
 21
-26.2159
  0
LINE
  8
0
 10
67.8466
 20
-26.2159
 11
67.5695
 21
-26.6223
  0
LINE
  8
0
 10
67.5695
 20
-26.6223
 11
67.185
 21
-26.9289
  0
LINE
  8
0
 10
67.185
 20
-26.9289
 11
66.7272
 21
-27.1086
  0
LINE
  8
0
 10
66.7272
 20
-27.1086
 11
66.2367
 21
-27.1454
  0
LINE
  8
0
 10
66.2367
 20
-27.1454
 11
65.7572
 21
-27.0359
  0
LINE
  8
0
 10
65.7572
 20
-27.0359
 11
65.3312
 21
-26.79
  0
LINE
  8
0
 10
65.3312
 20
-26.79
 11
64.9967
 21
-26.4295
  0
LINE
  8
0
 10
64.9967
 20
-26.4295
 11
64.7833
 21
-25.9863
  0
LINE
  8
0
 10
64.7833
 20
-25.9863
 11
64.71
 21
-25.5
  0
LINE
  8
0
 10
194.7
 20
-117.5
 11
194.755
 21
-117.01
  0
LINE
  8
0
 10
194.755
 20
-117.01
 11
194.918
 21
-116.545
  0
LINE
  8
0
 10
194.918
 20
-116.545
 11
195.18
 21
-116.128
  0
LINE
  8
0
 10
195.18
 20
-116.128
 11
195.528
 21
-115.78
  0
LINE
  8
0
 10
195.528
 20
-115.78
 11
195.945
 21
-115.518
  0
LINE
  8
0
 10
195.945
 20
-115.518
 11
196.41
 21
-115.355
  0
LINE
  8
0
 10
196.41
 20
-115.355
 11
196.9
 21
-115.3
  0
LINE
  8
0
 10
196.9
 20
-115.3
 11
197.39
 21
-115.355
  0
LINE
  8
0
 10
197.39
 20
-115.355
 11
197.855
 21
-115.518
  0
LINE
  8
0
 10
197.855
 20
-115.518
 11
198.272
 21
-115.78
  0
LINE
  8
0
 10
198.272
 20
-115.78
 11
198.62
 21
-116.128
  0
LINE
  8
0
 10
198.62
 20
-116.128
 11
198.882
 21
-116.545
  0
LINE
  8
0
 10
198.882
 20
-116.545
 11
199.045
 21
-117.01
  0
LINE
  8
0
 10
199.045
 20
-117.01
 11
199.1
 21
-117.5
  0
LINE
  8
0
 10
199.1
 20
-117.5
 11
199.045
 21
-117.99
  0
LINE
  8
0
 10
199.045
 20
-117.99
 11
198.882
 21
-118.455
  0
LINE
  8
0
 10
198.882
 20
-118.455
 11
198.62
 21
-118.872
  0
LINE
  8
0
 10
198.62
 20
-118.872
 11
198.272
 21
-119.22
  0
LINE
  8
0
 10
198.272
 20
-119.22
 11
197.855
 21
-119.482
  0
LINE
  8
0
 10
197.855
 20
-119.482
 11
197.39
 21
-119.645
  0
LINE
  8
0
 10
197.39
 20
-119.645
 11
196.9
 21
-119.7
  0
LINE
  8
0
 10
196.9
 20
-119.7
 11
196.41
 21
-119.645
  0
LINE
  8
0
 10
196.41
 20
-119.645
 11
195.945
 21
-119.482
  0
LINE
  8
0
 10
195.945
 20
-119.482
 11
195.528
 21
-119.22
  0
LINE
  8
0
 10
195.528
 20
-119.22
 11
195.18
 21
-118.872
  0
LINE
  8
0
 10
195.18
 20
-118.872
 11
194.918
 21
-118.455
  0
LINE
  8
0
 10
194.918
 20
-118.455
 11
194.755
 21
-117.99
  0
LINE
  8
0
 10
194.755
 20
-117.99
 11
194.7
 21
-117.5
  0
LINE
  8
0
 10
194.7
 20
-67.5
 11
194.755
 21
-67.0105
  0
LINE
  8
0
 10
194.755
 20
-67.0105
 11
194.918
 21
-66.5455
  0
LINE
  8
0
 10
194.918
 20
-66.5455
 11
195.18
 21
-66.1283
  0
LINE
  8
0
 10
195.18
 20
-66.1283
 11
195.528
 21
-65.78
  0
LINE
  8
0
 10
195.528
 20
-65.78
 11
195.945
 21
-65.5179
  0
LINE
  8
0
 10
195.945
 20
-65.5179
 11
196.41
 21
-65.3552
  0
LINE
  8
0
 10
196.41
 20
-65.3552
 11
196.9
 21
-65.3
  0
LINE
  8
0
 10
196.9
 20
-65.3
 11
197.39
 21
-65.3552
  0
LINE
  8
0
 10
197.39
 20
-65.3552
 11
197.855
 21
-65.5179
  0
LINE
  8
0
 10
197.855
 20
-65.5179
 11
198.272
 21
-65.78
  0
LINE
  8
0
 10
198.272
 20
-65.78
 11
198.62
 21
-66.1283
  0
LINE
  8
0
 10
198.62
 20
-66.1283
 11
198.882
 21
-66.5455
  0
LINE
  8
0
 10
198.882
 20
-66.5455
 11
199.045
 21
-67.0105
  0
LINE
  8
0
 10
199.045
 20
-67.0105
 11
199.1
 21
-67.5
  0
LINE
  8
0
 10
199.1
 20
-67.5
 11
199.045
 21
-67.9895
  0
LINE
  8
0
 10
199.045
 20
-67.9895
 11
198.882
 21
-68.4545
  0
LINE
  8
0
 10
198.882
 20
-68.4545
 11
198.62
 21
-68.8717
  0
LINE
  8
0
 10
198.62
 20
-68.8717
 11
198.272
 21
-69.22
  0
LINE
  8
0
 10
198.272
 20
-69.22
 11
197.855
 21
-69.4821
  0
LINE
  8
0
 10
197.855
 20
-69.4821
 11
197.39
 21
-69.6448
  0
LINE
  8
0
 10
197.39
 20
-69.6448
 11
196.9
 21
-69.7
  0
LINE
  8
0
 10
196.9
 20
-69.7
 11
196.41
 21
-69.6448
  0
LINE
  8
0
 10
196.41
 20
-69.6448
 11
195.945
 21
-69.4821
  0
LINE
  8
0
 10
195.945
 20
-69.4821
 11
195.528
 21
-69.22
  0
LINE
  8
0
 10
195.528
 20
-69.22
 11
195.18
 21
-68.8717
  0
LINE
  8
0
 10
195.18
 20
-68.8717
 11
194.918
 21
-68.4545
  0
LINE
  8
0
 10
194.918
 20
-68.4545
 11
194.755
 21
-67.9895
  0
LINE
  8
0
 10
194.755
 20
-67.9895
 11
194.7
 21
-67.5
  0
LINE
  8
0
 10
337.48
 20
-7.2
 11
337.535
 21
-6.71045
  0
LINE
  8
0
 10
337.535
 20
-6.71045
 11
337.698
 21
-6.24546
  0
LINE
  8
0
 10
337.698
 20
-6.24546
 11
337.96
 21
-5.82832
  0
LINE
  8
0
 10
337.96
 20
-5.82832
 11
338.308
 21
-5.47997
  0
LINE
  8
0
 10
338.308
 20
-5.47997
 11
338.725
 21
-5.21787
  0
LINE
  8
0
 10
338.725
 20
-5.21787
 11
339.19
 21
-5.05516
  0
LINE
  8
0
 10
339.19
 20
-5.05516
 11
339.68
 21
-5
  0
LINE
  8
0
 10
339.68
 20
-5
 11
340.17
 21
-5.05516
  0
LINE
  8
0
 10
340.17
 20
-5.05516
 11
340.635
 21
-5.21787
  0
LINE
  8
0
 10
340.635
 20
-5.21787
 11
341.052
 21
-5.47997
  0
LINE
  8
0
 10
341.052
 20
-5.47997
 11
341.4
 21
-5.82832
  0
LINE
  8
0
 10
341.4
 20
-5.82832
 11
341.662
 21
-6.24546
  0
LINE
  8
0
 10
341.662
 20
-6.24546
 11
341.825
 21
-6.71045
  0
LINE
  8
0
 10
341.825
 20
-6.71045
 11
341.88
 21
-7.2
  0
LINE
  8
0
 10
341.88
 20
-7.2
 11
341.825
 21
-7.68955
  0
LINE
  8
0
 10
341.825
 20
-7.68955
 11
341.662
 21
-8.15454
  0
LINE
  8
0
 10
341.662
 20
-8.15454
 11
341.4
 21
-8.57168
  0
LINE
  8
0
 10
341.4
 20
-8.57168
 11
341.052
 21
-8.92003
  0
LINE
  8
0
 10
341.052
 20
-8.92003
 11
340.635
 21
-9.18213
  0
LINE
  8
0
 10
340.635
 20
-9.18213
 11
340.17
 21
-9.34484
  0
LINE
  8
0
 10
340.17
 20
-9.34484
 11
339.68
 21
-9.4
  0
LINE
  8
0
 10
339.68
 20
-9.4
 11
339.19
 21
-9.34484
  0
LINE
  8
0
 10
339.19
 20
-9.34484
 11
338.725
 21
-9.18213
  0
LINE
  8
0
 10
338.725
 20
-9.18213
 11
338.308
 21
-8.92003
  0
LINE
  8
0
 10
338.308
 20
-8.92003
 11
337.96
 21
-8.57168
  0
LINE
  8
0
 10
337.96
 20
-8.57168
 11
337.698
 21
-8.15454
  0
LINE
  8
0
 10
337.698
 20
-8.15454
 11
337.535
 21
-7.68955
  0
LINE
  8
0
 10
337.535
 20
-7.68955
 11
337.48
 21
-7.2
  0
LINE
  8
0
 10
358.7
 20
-7.2
 11
358.755
 21
-6.71045
  0
LINE
  8
0
 10
358.755
 20
-6.71045
 11
358.918
 21
-6.24546
  0
LINE
  8
0
 10
358.918
 20
-6.24546
 11
359.18
 21
-5.82832
  0
LINE
  8
0
 10
359.18
 20
-5.82832
 11
359.528
 21
-5.47997
  0
LINE
  8
0
 10
359.528
 20
-5.47997
 11
359.945
 21
-5.21787
  0
LINE
  8
0
 10
359.945
 20
-5.21787
 11
360.41
 21
-5.05516
  0
LINE
  8
0
 10
360.41
 20
-5.05516
 11
360.9
 21
-5
  0
LINE
  8
0
 10
360.9
 20
-5
 11
361.39
 21
-5.05516
  0
LINE
  8
0
 10
361.39
 20
-5.05516
 11
361.855
 21
-5.21787
  0
LINE
  8
0
 10
361.855
 20
-5.21787
 11
362.272
 21
-5.47997
  0
LINE
  8
0
 10
362.272
 20
-5.47997
 11
362.62
 21
-5.82832
  0
LINE
  8
0
 10
362.62
 20
-5.82832
 11
362.882
 21
-6.24546
  0
LINE
  8
0
 10
362.882
 20
-6.24546
 11
363.045
 21
-6.71045
  0
LINE
  8
0
 10
363.045
 20
-6.71045
 11
363.1
 21
-7.2
  0
LINE
  8
0
 10
363.1
 20
-7.2
 11
363.045
 21
-7.68955
  0
LINE
  8
0
 10
363.045
 20
-7.68955
 11
362.882
 21
-8.15454
  0
LINE
  8
0
 10
362.882
 20
-8.15454
 11
362.62
 21
-8.57168
  0
LINE
  8
0
 10
362.62
 20
-8.57168
 11
362.272
 21
-8.92003
  0
LINE
  8
0
 10
362.272
 20
-8.92003
 11
361.855
 21
-9.18213
  0
LINE
  8
0
 10
361.855
 20
-9.18213
 11
361.39
 21
-9.34484
  0
LINE
  8
0
 10
361.39
 20
-9.34484
 11
360.9
 21
-9.4
  0
LINE
  8
0
 10
360.9
 20
-9.4
 11
360.41
 21
-9.34484
  0
LINE
  8
0
 10
360.41
 20
-9.34484
 11
359.945
 21
-9.18213
  0
LINE
  8
0
 10
359.945
 20
-9.18213
 11
359.528
 21
-8.92003
  0
LINE
  8
0
 10
359.528
 20
-8.92003
 11
359.18
 21
-8.57168
  0
LINE
  8
0
 10
359.18
 20
-8.57168
 11
358.918
 21
-8.15454
  0
LINE
  8
0
 10
358.918
 20
-8.15454
 11
358.755
 21
-7.68955
  0
LINE
  8
0
 10
358.755
 20
-7.68955
 11
358.7
 21
-7.2
  0
ENDSEC
  0
SECTION
  2
OBJECTS
  0
DICTIONARY
  0
ENDSEC
  0
EOF
