<?xml version="1.0"?>
<svg xmlns="http://www.w3.org/2000/svg" version="1.1" height="346mm" width="394mm" >
 <g style="fill-opacity:1.0; stroke:black; stroke-width:1;">
  <line x1="312.690000mm" y1="166.000000mm" x2="312.690000mm" y2="166.000000mm" />
  <line x1="312.690000mm" y1="166.000000mm" x2="312.690000mm" y2="162.752270mm" />
  <line x1="312.690000mm" y1="162.752270mm" x2="312.772000mm" y2="162.263550mm" />
  <line x1="312.772000mm" y1="162.263550mm" x2="312.933000mm" y2="161.794920mm" />
  <line x1="312.933000mm" y1="161.794920mm" x2="313.168000mm" y2="161.359160mm" />
  <line x1="313.168000mm" y1="161.359160mm" x2="313.473000mm" y2="160.968170mm" />
  <line x1="313.473000mm" y1="160.968170mm" x2="313.837000mm" y2="160.632580mm" />
  <line x1="313.837000mm" y1="160.632580mm" x2="314.252000mm" y2="160.361590mm" />
  <line x1="314.252000mm" y1="160.361590mm" x2="314.706000mm" y2="160.162550mm" />
  <line x1="314.706000mm" y1="160.162550mm" x2="315.186000mm" y2="160.040920mm" />
  <line x1="315.186000mm" y1="160.040920mm" x2="315.680000mm" y2="160.000000mm" />
  <line x1="315.680000mm" y1="160.000000mm" x2="316.174000mm" y2="160.040920mm" />
  <line x1="316.174000mm" y1="160.040920mm" x2="316.654000mm" y2="160.162550mm" />
  <line x1="316.654000mm" y1="160.162550mm" x2="317.108000mm" y2="160.361590mm" />
  <line x1="317.108000mm" y1="160.361590mm" x2="317.523000mm" y2="160.632580mm" />
  <line x1="317.523000mm" y1="160.632580mm" x2="317.887000mm" y2="160.968170mm" />
  <line x1="317.887000mm" y1="160.968170mm" x2="318.191000mm" y2="161.359160mm" />
  <line x1="318.191000mm" y1="161.359160mm" x2="318.427000mm" y2="161.794920mm" />
  <line x1="318.427000mm" y1="161.794920mm" x2="318.588000mm" y2="162.263550mm" />
  <line x1="318.588000mm" y1="162.263550mm" x2="318.670000mm" y2="162.752270mm" />
  <line x1="318.670000mm" y1="162.752270mm" x2="318.670000mm" y2="166.000000mm" />
  <line x1="318.670000mm" y1="166.000000mm" x2="325.595000mm" y2="166.000000mm" />
  <line x1="325.595000mm" y1="166.000000mm" x2="325.595000mm" y2="163.758940mm" />
  <line x1="325.595000mm" y1="163.758940mm" x2="325.710000mm" y2="163.290800mm" />
  <line x1="325.710000mm" y1="163.290800mm" x2="325.934000mm" y2="162.863880mm" />
  <line x1="325.934000mm" y1="162.863880mm" x2="326.254000mm" y2="162.502990mm" />
  <line x1="326.254000mm" y1="162.502990mm" x2="326.651000mm" y2="162.229100mm" />
  <line x1="326.651000mm" y1="162.229100mm" x2="327.101000mm" y2="162.058120mm" />
  <line x1="327.101000mm" y1="162.058120mm" x2="327.580000mm" y2="162.000000mm" />
  <line x1="327.580000mm" y1="162.000000mm" x2="328.059000mm" y2="162.058120mm" />
  <line x1="328.059000mm" y1="162.058120mm" x2="328.509000mm" y2="162.229100mm" />
  <line x1="328.509000mm" y1="162.229100mm" x2="328.906000mm" y2="162.502990mm" />
  <line x1="328.906000mm" y1="162.502990mm" x2="329.226000mm" y2="162.863880mm" />
  <line x1="329.226000mm" y1="162.863880mm" x2="329.450000mm" y2="163.290800mm" />
  <line x1="329.450000mm" y1="163.290800mm" x2="329.565000mm" y2="163.758940mm" />
  <line x1="329.565000mm" y1="163.758940mm" x2="329.565000mm" y2="166.000000mm" />
  <line x1="329.565000mm" y1="166.000000mm" x2="384.000000mm" y2="166.000000mm" />
  <line x1="384.000000mm" y1="166.000000mm" x2="384.000000mm" y2="25.000000mm" />
  <line x1="384.000000mm" y1="25.000000mm" x2="383.905000mm" y2="22.821000mm" />
  <line x1="383.905000mm" y1="22.821000mm" x2="383.620000mm" y2="20.659000mm" />
  <line x1="383.620000mm" y1="20.659000mm" x2="383.148000mm" y2="18.530000mm" />
  <line x1="383.148000mm" y1="18.530000mm" x2="382.492000mm" y2="16.450000mm" />
  <line x1="382.492000mm" y1="16.450000mm" x2="381.658000mm" y2="14.435000mm" />
  <line x1="381.658000mm" y1="14.435000mm" x2="380.651000mm" y2="12.500000mm" />
  <line x1="380.651000mm" y1="12.500000mm" x2="379.479000mm" y2="10.661000mm" />
  <line x1="379.479000mm" y1="10.661000mm" x2="378.151000mm" y2="8.930000mm" />
  <line x1="378.151000mm" y1="8.930000mm" x2="376.678000mm" y2="7.322000mm" />
  <line x1="376.678000mm" y1="7.322000mm" x2="375.070000mm" y2="5.849000mm" />
  <line x1="375.070000mm" y1="5.849000mm" x2="373.339000mm" y2="4.521000mm" />
  <line x1="373.339000mm" y1="4.521000mm" x2="371.500000mm" y2="3.349000mm" />
  <line x1="371.500000mm" y1="3.349000mm" x2="369.565000mm" y2="2.342000mm" />
  <line x1="369.565000mm" y1="2.342000mm" x2="367.550000mm" y2="1.508000mm" />
  <line x1="367.550000mm" y1="1.508000mm" x2="365.470000mm" y2="0.852000mm" />
  <line x1="365.470000mm" y1="0.852000mm" x2="363.341000mm" y2="0.380000mm" />
  <line x1="363.341000mm" y1="0.380000mm" x2="361.179000mm" y2="0.095000mm" />
  <line x1="361.179000mm" y1="0.095000mm" x2="359.000000mm" y2="0.000000mm" />
  <line x1="359.000000mm" y1="0.000000mm" x2="0.000000mm" y2="0.000000mm" />
  <line x1="0.000000mm" y1="0.000000mm" x2="0.000000mm" y2="166.000000mm" />
  <line x1="0.000000mm" y1="166.000000mm" x2="312.690000mm" y2="166.000000mm" />
  <circle cx="7.199995mm" cy="8.699860mm" r="2.200140mm" fill="none"/>
  <line x1="11.600275mm" y1="8.699860mm" x2="2.799715mm" y2="8.699860mm" />
  <line x1="7.199995mm" y1="4.299580mm" x2="7.199995mm" y2="13.100140mm" />
  <text x="9mm" y="6mm" font-size="24">
   4.4
  </text>
  <circle cx="7.199995mm" cy="29.919860mm" r="2.200140mm" fill="none"/>
  <line x1="11.600275mm" y1="29.919860mm" x2="2.799715mm" y2="29.919860mm" />
  <line x1="7.199995mm" y1="25.519580mm" x2="7.199995mm" y2="34.320140mm" />
  <text x="9mm" y="27mm" font-size="24">
   4.4
  </text>
  <circle cx="51.750000mm" cy="74.850033mm" r="2.199967mm" fill="none"/>
  <line x1="56.149934mm" y1="74.850033mm" x2="47.350066mm" y2="74.850033mm" />
  <line x1="51.750000mm" y1="70.450100mm" x2="51.750000mm" y2="79.249967mm" />
  <text x="53mm" y="72mm" font-size="24">
   4.4
  </text>
  <circle cx="123.250000mm" cy="74.850096mm" r="2.199904mm" fill="none"/>
  <line x1="127.649808mm" y1="74.850096mm" x2="118.850192mm" y2="74.850096mm" />
  <line x1="123.250000mm" y1="70.450288mm" x2="123.250000mm" y2="79.249904mm" />
  <text x="125mm" y="72mm" font-size="24">
   4.4
  </text>
  <circle cx="87.500000mm" cy="110.599973mm" r="37.500027mm" fill="none"/>
  <line x1="162.500055mm" y1="110.599973mm" x2="12.499945mm" y2="110.599973mm" />
  <line x1="87.500000mm" y1="35.599918mm" x2="87.500000mm" y2="185.600027mm" />
  <text x="125mm" y="73mm" font-size="24">
   75.0
  </text>
  <circle cx="51.750000mm" cy="146.350033mm" r="2.199967mm" fill="none"/>
  <line x1="56.149934mm" y1="146.350033mm" x2="47.350066mm" y2="146.350033mm" />
  <line x1="51.750000mm" y1="141.950100mm" x2="51.750000mm" y2="150.749967mm" />
  <text x="53mm" y="144mm" font-size="24">
   4.4
  </text>
  <circle cx="123.250000mm" cy="146.350096mm" r="2.199904mm" fill="none"/>
  <line x1="127.649808mm" y1="146.350096mm" x2="118.850192mm" y2="146.350096mm" />
  <line x1="123.250000mm" y1="141.950288mm" x2="123.250000mm" y2="150.749904mm" />
  <text x="125mm" y="144mm" font-size="24">
   4.4
  </text>
  <circle cx="23.100000mm" cy="158.800035mm" r="2.199985mm" fill="none"/>
  <line x1="27.499970mm" y1="158.800035mm" x2="18.700030mm" y2="158.800035mm" />
  <line x1="23.100000mm" y1="154.400065mm" x2="23.100000mm" y2="163.200005mm" />
  <text x="25mm" y="156mm" font-size="24">
   4.4
  </text>
  <circle cx="44.320000mm" cy="158.800035mm" r="2.199985mm" fill="none"/>
  <line x1="48.719970mm" y1="158.800035mm" x2="39.920030mm" y2="158.800035mm" />
  <line x1="44.320000mm" y1="154.400065mm" x2="44.320000mm" y2="163.200005mm" />
  <text x="46mm" y="156mm" font-size="24">
   4.4
  </text>
  <circle cx="339.680000mm" cy="158.800098mm" r="2.199922mm" fill="none"/>
  <line x1="344.079844mm" y1="158.800098mm" x2="335.280156mm" y2="158.800098mm" />
  <line x1="339.680000mm" y1="154.400254mm" x2="339.680000mm" y2="163.199942mm" />
  <text x="341mm" y="156mm" font-size="24">
   4.4
  </text>
  <circle cx="360.900000mm" cy="158.800098mm" r="2.199922mm" fill="none"/>
  <line x1="365.299844mm" y1="158.800098mm" x2="356.500156mm" y2="158.800098mm" />
  <line x1="360.900000mm" y1="154.400254mm" x2="360.900000mm" y2="163.199942mm" />
  <text x="363mm" y="156mm" font-size="24">
   4.4
  </text>
  <line x1="359.000000mm" y1="336.000000mm" x2="359.000000mm" y2="336.000000mm" />
  <line x1="359.000000mm" y1="336.000000mm" x2="361.179000mm" y2="335.905000mm" />
  <line x1="361.179000mm" y1="335.905000mm" x2="363.341000mm" y2="335.620000mm" />
  <line x1="363.341000mm" y1="335.620000mm" x2="365.470000mm" y2="335.148000mm" />
  <line x1="365.470000mm" y1="335.148000mm" x2="367.550000mm" y2="334.492000mm" />
  <line x1="367.550000mm" y1="334.492000mm" x2="369.565000mm" y2="333.658000mm" />
  <line x1="369.565000mm" y1="333.658000mm" x2="371.500000mm" y2="332.651000mm" />
  <line x1="371.500000mm" y1="332.651000mm" x2="373.339000mm" y2="331.479000mm" />
  <line x1="373.339000mm" y1="331.479000mm" x2="375.070000mm" y2="330.151000mm" />
  <line x1="375.070000mm" y1="330.151000mm" x2="376.678000mm" y2="328.678000mm" />
  <line x1="376.678000mm" y1="328.678000mm" x2="378.151000mm" y2="327.070000mm" />
  <line x1="378.151000mm" y1="327.070000mm" x2="379.479000mm" y2="325.339000mm" />
  <line x1="379.479000mm" y1="325.339000mm" x2="380.651000mm" y2="323.500000mm" />
  <line x1="380.651000mm" y1="323.500000mm" x2="381.658000mm" y2="321.565000mm" />
  <line x1="381.658000mm" y1="321.565000mm" x2="382.492000mm" y2="319.550000mm" />
  <line x1="382.492000mm" y1="319.550000mm" x2="383.148000mm" y2="317.470000mm" />
  <line x1="383.148000mm" y1="317.470000mm" x2="383.620000mm" y2="315.341000mm" />
  <line x1="383.620000mm" y1="315.341000mm" x2="383.905000mm" y2="313.179000mm" />
  <line x1="383.905000mm" y1="313.179000mm" x2="384.000000mm" y2="311.000000mm" />
  <line x1="384.000000mm" y1="311.000000mm" x2="384.000000mm" y2="170.000000mm" />
  <line x1="384.000000mm" y1="170.000000mm" x2="329.565000mm" y2="170.000000mm" />
  <line x1="329.565000mm" y1="170.000000mm" x2="329.565000mm" y2="172.241060mm" />
  <line x1="329.565000mm" y1="172.241060mm" x2="329.450000mm" y2="172.709200mm" />
  <line x1="329.450000mm" y1="172.709200mm" x2="329.226000mm" y2="173.136120mm" />
  <line x1="329.226000mm" y1="173.136120mm" x2="328.906000mm" y2="173.497010mm" />
  <line x1="328.906000mm" y1="173.497010mm" x2="328.509000mm" y2="173.770900mm" />
  <line x1="328.509000mm" y1="173.770900mm" x2="328.059000mm" y2="173.941880mm" />
  <line x1="328.059000mm" y1="173.941880mm" x2="327.580000mm" y2="174.000000mm" />
  <line x1="327.580000mm" y1="174.000000mm" x2="327.101000mm" y2="173.941880mm" />
  <line x1="327.101000mm" y1="173.941880mm" x2="326.651000mm" y2="173.770900mm" />
  <line x1="326.651000mm" y1="173.770900mm" x2="326.254000mm" y2="173.497010mm" />
  <line x1="326.254000mm" y1="173.497010mm" x2="325.934000mm" y2="173.136120mm" />
  <line x1="325.934000mm" y1="173.136120mm" x2="325.710000mm" y2="172.709200mm" />
  <line x1="325.710000mm" y1="172.709200mm" x2="325.595000mm" y2="172.241060mm" />
  <line x1="325.595000mm" y1="172.241060mm" x2="325.595000mm" y2="170.000000mm" />
  <line x1="325.595000mm" y1="170.000000mm" x2="318.670000mm" y2="170.000000mm" />
  <line x1="318.670000mm" y1="170.000000mm" x2="318.670000mm" y2="173.247730mm" />
  <line x1="318.670000mm" y1="173.247730mm" x2="318.588000mm" y2="173.736450mm" />
  <line x1="318.588000mm" y1="173.736450mm" x2="318.427000mm" y2="174.205080mm" />
  <line x1="318.427000mm" y1="174.205080mm" x2="318.191000mm" y2="174.640840mm" />
  <line x1="318.191000mm" y1="174.640840mm" x2="317.887000mm" y2="175.031830mm" />
  <line x1="317.887000mm" y1="175.031830mm" x2="317.523000mm" y2="175.367420mm" />
  <line x1="317.523000mm" y1="175.367420mm" x2="317.108000mm" y2="175.638410mm" />
  <line x1="317.108000mm" y1="175.638410mm" x2="316.654000mm" y2="175.837450mm" />
  <line x1="316.654000mm" y1="175.837450mm" x2="316.174000mm" y2="175.959080mm" />
  <line x1="316.174000mm" y1="175.959080mm" x2="315.680000mm" y2="176.000000mm" />
  <line x1="315.680000mm" y1="176.000000mm" x2="315.186000mm" y2="175.959080mm" />
  <line x1="315.186000mm" y1="175.959080mm" x2="314.706000mm" y2="175.837450mm" />
  <line x1="314.706000mm" y1="175.837450mm" x2="314.252000mm" y2="175.638410mm" />
  <line x1="314.252000mm" y1="175.638410mm" x2="313.837000mm" y2="175.367420mm" />
  <line x1="313.837000mm" y1="175.367420mm" x2="313.473000mm" y2="175.031830mm" />
  <line x1="313.473000mm" y1="175.031830mm" x2="313.168000mm" y2="174.640840mm" />
  <line x1="313.168000mm" y1="174.640840mm" x2="312.933000mm" y2="174.205080mm" />
  <line x1="312.933000mm" y1="174.205080mm" x2="312.772000mm" y2="173.736450mm" />
  <line x1="312.772000mm" y1="173.736450mm" x2="312.690000mm" y2="173.247730mm" />
  <line x1="312.690000mm" y1="173.247730mm" x2="312.690000mm" y2="170.000000mm" />
  <line x1="312.690000mm" y1="170.000000mm" x2="0.000000mm" y2="170.000000mm" />
  <line x1="0.000000mm" y1="170.000000mm" x2="0.000000mm" y2="184.400000mm" />
  <line x1="0.000000mm" y1="184.400000mm" x2="2.500000mm" y2="184.400000mm" />
  <line x1="2.500000mm" y1="184.400000mm" x2="2.987720mm" y2="184.448000mm" />
  <line x1="2.987720mm" y1="184.448000mm" x2="3.456700mm" y2="184.590300mm" />
  <line x1="3.456700mm" y1="184.590300mm" x2="3.888920mm" y2="184.821300mm" />
  <line x1="3.888920mm" y1="184.821300mm" x2="4.267760mm" y2="185.132200mm" />
  <line x1="4.267760mm" y1="185.132200mm" x2="4.578660mm" y2="185.511100mm" />
  <line x1="4.578660mm" y1="185.511100mm" x2="4.809690mm" y2="185.943300mm" />
  <line x1="4.809690mm" y1="185.943300mm" x2="4.951950mm" y2="186.412300mm" />
  <line x1="4.951950mm" y1="186.412300mm" x2="5.000000mm" y2="186.900000mm" />
  <line x1="5.000000mm" y1="186.900000mm" x2="4.951950mm" y2="187.387700mm" />
  <line x1="4.951950mm" y1="187.387700mm" x2="4.809690mm" y2="187.856700mm" />
  <line x1="4.809690mm" y1="187.856700mm" x2="4.578660mm" y2="188.288900mm" />
  <line x1="4.578660mm" y1="188.288900mm" x2="4.267760mm" y2="188.667800mm" />
  <line x1="4.267760mm" y1="188.667800mm" x2="3.888920mm" y2="188.978700mm" />
  <line x1="3.888920mm" y1="188.978700mm" x2="3.456700mm" y2="189.209700mm" />
  <line x1="3.456700mm" y1="189.209700mm" x2="2.987720mm" y2="189.352000mm" />
  <line x1="2.987720mm" y1="189.352000mm" x2="2.499980mm" y2="189.400000mm" />
  <line x1="2.499980mm" y1="189.400000mm" x2="0.000000mm" y2="189.400000mm" />
  <line x1="0.000000mm" y1="189.400000mm" x2="0.000000mm" y2="194.414600mm" />
  <line x1="0.000000mm" y1="194.414600mm" x2="2.241060mm" y2="194.414600mm" />
  <line x1="2.241060mm" y1="194.414600mm" x2="2.709200mm" y2="194.530000mm" />
  <line x1="2.709200mm" y1="194.530000mm" x2="3.136120mm" y2="194.754000mm" />
  <line x1="3.136120mm" y1="194.754000mm" x2="3.497010mm" y2="195.073700mm" />
  <line x1="3.497010mm" y1="195.073700mm" x2="3.770900mm" y2="195.470600mm" />
  <line x1="3.770900mm" y1="195.470600mm" x2="3.941880mm" y2="195.921400mm" />
  <line x1="3.941880mm" y1="195.921400mm" x2="4.000000mm" y2="196.400000mm" />
  <line x1="4.000000mm" y1="196.400000mm" x2="3.941880mm" y2="196.878600mm" />
  <line x1="3.941880mm" y1="196.878600mm" x2="3.770900mm" y2="197.329400mm" />
  <line x1="3.770900mm" y1="197.329400mm" x2="3.497010mm" y2="197.726200mm" />
  <line x1="3.497010mm" y1="197.726200mm" x2="3.136120mm" y2="198.046000mm" />
  <line x1="3.136120mm" y1="198.046000mm" x2="2.709200mm" y2="198.270000mm" />
  <line x1="2.709200mm" y1="198.270000mm" x2="2.241060mm" y2="198.385400mm" />
  <line x1="2.241060mm" y1="198.385400mm" x2="0.000000mm" y2="198.385400mm" />
  <line x1="0.000000mm" y1="198.385400mm" x2="0.000000mm" y2="257.914600mm" />
  <line x1="0.000000mm" y1="257.914600mm" x2="2.241060mm" y2="257.914600mm" />
  <line x1="2.241060mm" y1="257.914600mm" x2="2.709200mm" y2="258.030000mm" />
  <line x1="2.709200mm" y1="258.030000mm" x2="3.136120mm" y2="258.254000mm" />
  <line x1="3.136120mm" y1="258.254000mm" x2="3.497010mm" y2="258.573700mm" />
  <line x1="3.497010mm" y1="258.573700mm" x2="3.770900mm" y2="258.970600mm" />
  <line x1="3.770900mm" y1="258.970600mm" x2="3.941880mm" y2="259.421400mm" />
  <line x1="3.941880mm" y1="259.421400mm" x2="4.000000mm" y2="259.900000mm" />
  <line x1="4.000000mm" y1="259.900000mm" x2="3.941880mm" y2="260.378600mm" />
  <line x1="3.941880mm" y1="260.378600mm" x2="3.770900mm" y2="260.829400mm" />
  <line x1="3.770900mm" y1="260.829400mm" x2="3.497010mm" y2="261.226200mm" />
  <line x1="3.497010mm" y1="261.226200mm" x2="3.136120mm" y2="261.546000mm" />
  <line x1="3.136120mm" y1="261.546000mm" x2="2.709200mm" y2="261.770000mm" />
  <line x1="2.709200mm" y1="261.770000mm" x2="2.241060mm" y2="261.885400mm" />
  <line x1="2.241060mm" y1="261.885400mm" x2="0.000000mm" y2="261.885400mm" />
  <line x1="0.000000mm" y1="261.885400mm" x2="0.000000mm" y2="269.000000mm" />
  <line x1="0.000000mm" y1="269.000000mm" x2="3.500000mm" y2="269.000000mm" />
  <line x1="3.500000mm" y1="269.000000mm" x2="3.998090mm" y2="269.036000mm" />
  <line x1="3.998090mm" y1="269.036000mm" x2="4.486050mm" y2="269.142000mm" />
  <line x1="4.486050mm" y1="269.142000mm" x2="4.953950mm" y2="269.316000mm" />
  <line x1="4.953950mm" y1="269.316000mm" x2="5.392240mm" y2="269.556000mm" />
  <line x1="5.392240mm" y1="269.556000mm" x2="5.792010mm" y2="269.855000mm" />
  <line x1="5.792010mm" y1="269.855000mm" x2="6.145110mm" y2="270.208000mm" />
  <line x1="6.145110mm" y1="270.208000mm" x2="6.444380mm" y2="270.608000mm" />
  <line x1="6.444380mm" y1="270.608000mm" x2="6.683700mm" y2="271.046000mm" />
  <line x1="6.683700mm" y1="271.046000mm" x2="6.858220mm" y2="271.514000mm" />
  <line x1="6.858220mm" y1="271.514000mm" x2="6.964370mm" y2="272.002000mm" />
  <line x1="6.964370mm" y1="272.002000mm" x2="7.000000mm" y2="272.500000mm" />
  <line x1="7.000000mm" y1="272.500000mm" x2="6.964370mm" y2="272.998000mm" />
  <line x1="6.964370mm" y1="272.998000mm" x2="6.858220mm" y2="273.486000mm" />
  <line x1="6.858220mm" y1="273.486000mm" x2="6.683700mm" y2="273.954000mm" />
  <line x1="6.683700mm" y1="273.954000mm" x2="6.444380mm" y2="274.392000mm" />
  <line x1="6.444380mm" y1="274.392000mm" x2="6.145110mm" y2="274.792000mm" />
  <line x1="6.145110mm" y1="274.792000mm" x2="5.792010mm" y2="275.145000mm" />
  <line x1="5.792010mm" y1="275.145000mm" x2="5.392240mm" y2="275.444000mm" />
  <line x1="5.392240mm" y1="275.444000mm" x2="4.953950mm" y2="275.684000mm" />
  <line x1="4.953950mm" y1="275.684000mm" x2="4.486050mm" y2="275.858000mm" />
  <line x1="4.486050mm" y1="275.858000mm" x2="3.998090mm" y2="275.964000mm" />
  <line x1="3.998090mm" y1="275.964000mm" x2="3.499980mm" y2="276.000000mm" />
  <line x1="3.499980mm" y1="276.000000mm" x2="0.000000mm" y2="276.000000mm" />
  <line x1="0.000000mm" y1="276.000000mm" x2="0.000000mm" y2="336.000000mm" />
  <line x1="0.000000mm" y1="336.000000mm" x2="359.000000mm" y2="336.000000mm" />
  <circle cx="23.100000mm" cy="177.200033mm" r="2.199967mm" fill="none"/>
  <line x1="27.499934mm" y1="177.200033mm" x2="18.700066mm" y2="177.200033mm" />
  <line x1="23.100000mm" y1="172.800100mm" x2="23.100000mm" y2="181.599967mm" />
  <text x="25mm" y="175mm" font-size="24">
   4.4
  </text>
  <circle cx="44.320000mm" cy="177.200033mm" r="2.199967mm" fill="none"/>
  <line x1="48.719934mm" y1="177.200033mm" x2="39.920066mm" y2="177.200033mm" />
  <line x1="44.320000mm" y1="172.800100mm" x2="44.320000mm" y2="181.599967mm" />
  <text x="46mm" y="175mm" font-size="24">
   4.4
  </text>
  <circle cx="339.680000mm" cy="177.200096mm" r="2.199904mm" fill="none"/>
  <line x1="344.079808mm" y1="177.200096mm" x2="335.280192mm" y2="177.200096mm" />
  <line x1="339.680000mm" y1="172.800288mm" x2="339.680000mm" y2="181.599904mm" />
  <text x="341mm" y="175mm" font-size="24">
   4.4
  </text>
  <circle cx="360.900000mm" cy="177.200096mm" r="2.199904mm" fill="none"/>
  <line x1="365.299808mm" y1="177.200096mm" x2="356.500192mm" y2="177.200096mm" />
  <line x1="360.900000mm" y1="172.800288mm" x2="360.900000mm" y2="181.599904mm" />
  <text x="363mm" y="175mm" font-size="24">
   4.4
  </text>
  <circle cx="21.359988mm" cy="195.500003mm" r="1.650009mm" fill="none"/>
  <line x1="24.660007mm" y1="195.500003mm" x2="18.059970mm" y2="195.500003mm" />
  <line x1="21.359988mm" y1="192.199984mm" x2="21.359988mm" y2="198.800022mm" />
  <text x="23mm" y="193mm" font-size="24">
   3.3
  </text>
  <circle cx="66.359988mm" cy="195.500003mm" r="1.650009mm" fill="none"/>
  <line x1="69.660007mm" y1="195.500003mm" x2="63.059970mm" y2="195.500003mm" />
  <line x1="66.359988mm" y1="192.199984mm" x2="66.359988mm" y2="198.800022mm" />
  <text x="68mm" y="193mm" font-size="24">
   3.3
  </text>
  <circle cx="46.900000mm" cy="237.500033mm" r="2.199967mm" fill="none"/>
  <line x1="51.299934mm" y1="237.500033mm" x2="42.500066mm" y2="237.500033mm" />
  <line x1="46.900000mm" y1="233.100100mm" x2="46.900000mm" y2="241.899967mm" />
  <text x="49mm" y="235mm" font-size="24">
   4.4
  </text>
  <circle cx="196.900000mm" cy="237.500096mm" r="2.199904mm" fill="none"/>
  <line x1="201.299808mm" y1="237.500096mm" x2="192.500192mm" y2="237.500096mm" />
  <line x1="196.900000mm" y1="233.100288mm" x2="196.900000mm" y2="241.899904mm" />
  <text x="199mm" y="235mm" font-size="24">
   4.4
  </text>
  <circle cx="66.360008mm" cy="264.499738mm" r="1.649877mm" fill="none"/>
  <line x1="69.659761mm" y1="264.499738mm" x2="63.060255mm" y2="264.499738mm" />
  <line x1="66.360008mm" y1="261.199985mm" x2="66.360008mm" y2="267.799491mm" />
  <text x="68mm" y="262mm" font-size="24">
   3.3
  </text>
  <circle cx="21.360189mm" cy="269.499831mm" r="1.649797mm" fill="none"/>
  <line x1="24.659784mm" y1="269.499831mm" x2="18.060595mm" y2="269.499831mm" />
  <line x1="21.360189mm" y1="266.200237mm" x2="21.360189mm" y2="272.799425mm" />
  <text x="23mm" y="267mm" font-size="24">
   3.3
  </text>
  <circle cx="46.900000mm" cy="287.499882mm" r="2.200118mm" fill="none"/>
  <line x1="51.300236mm" y1="287.499882mm" x2="42.499764mm" y2="287.499882mm" />
  <line x1="46.900000mm" y1="283.099646mm" x2="46.900000mm" y2="291.900118mm" />
  <text x="49mm" y="285mm" font-size="24">
   4.4
  </text>
  <circle cx="196.900000mm" cy="287.499945mm" r="2.200055mm" fill="none"/>
  <line x1="201.300111mm" y1="287.499945mm" x2="192.499889mm" y2="287.499945mm" />
  <line x1="196.900000mm" y1="283.099834mm" x2="196.900000mm" y2="291.900055mm" />
  <text x="199mm" y="285mm" font-size="24">
   4.4
  </text>
  <circle cx="7.199995mm" cy="306.079860mm" r="2.200140mm" fill="none"/>
  <line x1="11.600275mm" y1="306.079860mm" x2="2.799715mm" y2="306.079860mm" />
  <line x1="7.199995mm" y1="301.679580mm" x2="7.199995mm" y2="310.480140mm" />
  <text x="9mm" y="303mm" font-size="24">
   4.4
  </text>
  <circle cx="7.199995mm" cy="327.299860mm" r="2.200140mm" fill="none"/>
  <line x1="11.600275mm" y1="327.299860mm" x2="2.799715mm" y2="327.299860mm" />
  <line x1="7.199995mm" y1="322.899580mm" x2="7.199995mm" y2="331.700140mm" />
  <text x="9mm" y="325mm" font-size="24">
   4.4
  </text>
 </g>
</svg>
