  0
SECTION
  2
BLOCKS
  0
ENDSEC
  0
SECTION
  2
ENTITIES
  0
LINE
  8
0
 10
-195.63
 20
2.5
 11
-195.582
 21
2.98772
  0
LINE
  8
0
 10
-195.582
 20
2.98772
 11
-195.44
 21
3.4567
  0
LINE
  8
0
 10
-195.44
 20
3.4567
 11
-195.209
 21
3.88892
  0
LINE
  8
0
 10
-195.209
 20
3.88892
 11
-194.898
 21
4.26776
  0
LINE
  8
0
 10
-194.898
 20
4.26776
 11
-194.519
 21
4.57866
  0
LINE
  8
0
 10
-194.519
 20
4.57866
 11
-194.087
 21
4.80969
  0
LINE
  8
0
 10
-194.087
 20
4.80969
 11
-193.618
 21
4.95195
  0
LINE
  8
0
 10
-193.618
 20
4.95195
 11
-193.13
 21
5
  0
LINE
  8
0
 10
-193.13
 20
5
 11
-192.642
 21
4.95195
  0
LINE
  8
0
 10
-192.642
 20
4.95195
 11
-192.173
 21
4.80969
  0
LINE
  8
0
 10
-192.173
 20
4.80969
 11
-191.741
 21
4.57866
  0
LINE
  8
0
 10
-191.741
 20
4.57866
 11
-191.362
 21
4.26776
  0
LINE
  8
0
 10
-191.362
 20
4.26776
 11
-191.051
 21
3.88892
  0
LINE
  8
0
 10
-191.051
 20
3.88892
 11
-190.82
 21
3.4567
  0
LINE
  8
0
 10
-190.82
 20
3.4567
 11
-190.678
 21
2.98772
  0
LINE
  8
0
 10
-190.678
 20
2.98772
 11
-190.63
 21
2.49998
  0
LINE
  8
0
 10
-190.63
 20
2.49998
 11
-190.63
 21
0
  0
LINE
  8
0
 10
-190.63
 20
0
 11
-131.75
 21
0
  0
LINE
  8
0
 10
-131.75
 20
0
 11
-131.75
 21
278.1
  0
LINE
  8
0
 10
-131.75
 20
278.1
 11
-131.744
 21
278.349
  0
LINE
  8
0
 10
-131.744
 20
278.349
 11
-131.694
 21
278.845
  0
LINE
  8
0
 10
-131.694
 20
278.845
 11
-131.595
 21
279.334
  0
LINE
  8
0
 10
-131.595
 20
279.334
 11
-131.448
 21
279.81
  0
LINE
  8
0
 10
-131.448
 20
279.81
 11
-131.255
 21
280.269
  0
LINE
  8
0
 10
-131.255
 20
280.269
 11
-131.016
 21
280.707
  0
LINE
  8
0
 10
-131.016
 20
280.707
 11
-130.736
 21
281.119
  0
LINE
  8
0
 10
-130.736
 20
281.119
 11
-130.415
 21
281.501
  0
LINE
  8
0
 10
-130.415
 20
281.501
 11
-130.058
 21
281.849
  0
LINE
  8
0
 10
-130.058
 20
281.849
 11
-129.669
 21
282.16
  0
LINE
  8
0
 10
-129.669
 20
282.16
 11
-129.25
 21
282.43
  0
LINE
  8
0
 10
-129.25
 20
282.43
 11
-128.806
 21
282.658
  0
LINE
  8
0
 10
-128.806
 20
282.658
 11
-128.342
 21
282.84
  0
LINE
  8
0
 10
-128.342
 20
282.84
 11
-127.863
 21
282.975
  0
LINE
  8
0
 10
-127.863
 20
282.975
 11
-127.372
 21
283.061
  0
LINE
  8
0
 10
-127.372
 20
283.061
 11
-126.875
 21
283.098
  0
LINE
  8
0
 10
-126.875
 20
283.098
 11
-126.75
 21
283.1
  0
LINE
  8
0
 10
-126.75
 20
283.1
 11
113.25
 21
283.1
  0
LINE
  8
0
 10
113.25
 20
283.1
 11
113.624
 21
283.086
  0
LINE
  8
0
 10
113.624
 20
283.086
 11
114.118
 21
283.024
  0
LINE
  8
0
 10
114.118
 20
283.024
 11
114.604
 21
282.913
  0
LINE
  8
0
 10
114.604
 20
282.913
 11
115.077
 21
282.754
  0
LINE
  8
0
 10
115.077
 20
282.754
 11
115.531
 21
282.549
  0
LINE
  8
0
 10
115.531
 20
282.549
 11
115.963
 21
282.3
  0
LINE
  8
0
 10
115.963
 20
282.3
 11
116.367
 21
282.009
  0
LINE
  8
0
 10
116.367
 20
282.009
 11
116.741
 21
281.679
  0
LINE
  8
0
 10
116.741
 20
281.679
 11
117.08
 21
281.314
  0
LINE
  8
0
 10
117.08
 20
281.314
 11
117.381
 21
280.917
  0
LINE
  8
0
 10
117.381
 20
280.917
 11
117.641
 21
280.491
  0
LINE
  8
0
 10
117.641
 20
280.491
 11
117.857
 21
280.042
  0
LINE
  8
0
 10
117.857
 20
280.042
 11
118.028
 21
279.574
  0
LINE
  8
0
 10
118.028
 20
279.574
 11
118.151
 21
279.091
  0
LINE
  8
0
 10
118.151
 20
279.091
 11
118.225
 21
278.598
  0
LINE
  8
0
 10
118.225
 20
278.598
 11
118.25
 21
278.1
  0
LINE
  8
0
 10
118.25
 20
278.1
 11
118.25
 21
0
  0
LINE
  8
0
 10
118.25
 20
0
 11
234.25
 21
0
  0
LINE
  8
0
 10
234.25
 20
0
 11
234.25
 21
359
  0
LINE
  8
0
 10
234.25
 20
359
 11
234.155
 21
361.179
  0
LINE
  8
0
 10
234.155
 20
361.179
 11
233.87
 21
363.341
  0
LINE
  8
0
 10
233.87
 20
363.341
 11
233.398
 21
365.47
  0
LINE
  8
0
 10
233.398
 20
365.47
 11
232.742
 21
367.55
  0
LINE
  8
0
 10
232.742
 20
367.55
 11
231.908
 21
369.565
  0
LINE
  8
0
 10
231.908
 20
369.565
 11
230.901
 21
371.5
  0
LINE
  8
0
 10
230.901
 20
371.5
 11
229.729
 21
373.339
  0
LINE
  8
0
 10
229.729
 20
373.339
 11
228.401
 21
375.07
  0
LINE
  8
0
 10
228.401
 20
375.07
 11
226.928
 21
376.678
  0
LINE
  8
0
 10
226.928
 20
376.678
 11
225.32
 21
378.151
  0
LINE
  8
0
 10
225.32
 20
378.151
 11
223.589
 21
379.479
  0
LINE
  8
0
 10
223.589
 20
379.479
 11
221.75
 21
380.651
  0
LINE
  8
0
 10
221.75
 20
380.651
 11
219.815
 21
381.658
  0
LINE
  8
0
 10
219.815
 20
381.658
 11
217.8
 21
382.492
  0
LINE
  8
0
 10
217.8
 20
382.492
 11
215.72
 21
383.148
  0
LINE
  8
0
 10
215.72
 20
383.148
 11
213.591
 21
383.62
  0
LINE
  8
0
 10
213.591
 20
383.62
 11
211.429
 21
383.905
  0
LINE
  8
0
 10
211.429
 20
383.905
 11
209.25
 21
384
  0
LINE
  8
0
 10
209.25
 20
384
 11
-209.25
 21
384
  0
LINE
  8
0
 10
-209.25
 20
384
 11
-211.429
 21
383.905
  0
LINE
  8
0
 10
-211.429
 20
383.905
 11
-213.591
 21
383.62
  0
LINE
  8
0
 10
-213.591
 20
383.62
 11
-215.72
 21
383.148
  0
LINE
  8
0
 10
-215.72
 20
383.148
 11
-217.8
 21
382.492
  0
LINE
  8
0
 10
-217.8
 20
382.492
 11
-219.815
 21
381.658
  0
LINE
  8
0
 10
-219.815
 20
381.658
 11
-221.75
 21
380.651
  0
LINE
  8
0
 10
-221.75
 20
380.651
 11
-223.589
 21
379.479
  0
LINE
  8
0
 10
-223.589
 20
379.479
 11
-225.32
 21
378.151
  0
LINE
  8
0
 10
-225.32
 20
378.151
 11
-226.928
 21
376.678
  0
LINE
  8
0
 10
-226.928
 20
376.678
 11
-228.401
 21
375.07
  0
LINE
  8
0
 10
-228.401
 20
375.07
 11
-229.729
 21
373.339
  0
LINE
  8
0
 10
-229.729
 20
373.339
 11
-230.901
 21
371.5
  0
LINE
  8
0
 10
-230.901
 20
371.5
 11
-231.908
 21
369.565
  0
LINE
  8
0
 10
-231.908
 20
369.565
 11
-232.742
 21
367.55
  0
LINE
  8
0
 10
-232.742
 20
367.55
 11
-233.398
 21
365.47
  0
LINE
  8
0
 10
-233.398
 20
365.47
 11
-233.87
 21
363.341
  0
LINE
  8
0
 10
-233.87
 20
363.341
 11
-234.155
 21
361.179
  0
LINE
  8
0
 10
-234.155
 20
361.179
 11
-234.25
 21
359
  0
LINE
  8
0
 10
-234.25
 20
359
 11
-234.25
 21
0
  0
LINE
  8
0
 10
-234.25
 20
0
 11
-195.63
 21
0
  0
LINE
  8
0
 10
-195.63
 20
0
 11
-195.63
 21
2.5
  0
LINE
  8
0
 10
-163.69
 20
374.355
 11
-164.155
 21
374.518
  0
LINE
  8
0
 10
-164.155
 20
374.518
 11
-164.572
 21
374.78
  0
LINE
  8
0
 10
-164.572
 20
374.78
 11
-164.92
 21
375.128
  0
LINE
  8
0
 10
-164.92
 20
375.128
 11
-165.182
 21
375.545
  0
LINE
  8
0
 10
-165.182
 20
375.545
 11
-165.345
 21
376.01
  0
LINE
  8
0
 10
-165.345
 20
376.01
 11
-165.4
 21
376.5
  0
LINE
  8
0
 10
-165.4
 20
376.5
 11
-165.345
 21
376.99
  0
LINE
  8
0
 10
-165.345
 20
376.99
 11
-165.182
 21
377.455
  0
LINE
  8
0
 10
-165.182
 20
377.455
 11
-164.92
 21
377.872
  0
LINE
  8
0
 10
-164.92
 20
377.872
 11
-164.572
 21
378.22
  0
LINE
  8
0
 10
-164.572
 20
378.22
 11
-164.155
 21
378.482
  0
LINE
  8
0
 10
-164.155
 20
378.482
 11
-163.69
 21
378.645
  0
LINE
  8
0
 10
-163.69
 20
378.645
 11
-163.2
 21
378.7
  0
LINE
  8
0
 10
-163.2
 20
378.7
 11
-162.71
 21
378.645
  0
LINE
  8
0
 10
-162.71
 20
378.645
 11
-162.245
 21
378.482
  0
LINE
  8
0
 10
-162.245
 20
378.482
 11
-161.828
 21
378.22
  0
LINE
  8
0
 10
-161.828
 20
378.22
 11
-161.48
 21
377.872
  0
LINE
  8
0
 10
-161.48
 20
377.872
 11
-161.218
 21
377.455
  0
LINE
  8
0
 10
-161.218
 20
377.455
 11
-161.055
 21
376.99
  0
LINE
  8
0
 10
-161.055
 20
376.99
 11
-161
 21
376.5
  0
LINE
  8
0
 10
-161
 20
376.5
 11
-161.055
 21
376.01
  0
LINE
  8
0
 10
-161.055
 20
376.01
 11
-161.218
 21
375.545
  0
LINE
  8
0
 10
-161.218
 20
375.545
 11
-161.48
 21
375.128
  0
LINE
  8
0
 10
-161.48
 20
375.128
 11
-161.828
 21
374.78
  0
LINE
  8
0
 10
-161.828
 20
374.78
 11
-162.245
 21
374.518
  0
LINE
  8
0
 10
-162.245
 20
374.518
 11
-162.71
 21
374.355
  0
LINE
  8
0
 10
-162.71
 20
374.355
 11
-163.2
 21
374.3
  0
LINE
  8
0
 10
-163.2
 20
374.3
 11
-163.69
 21
374.355
  0
LINE
  8
0
 10
125.21
 20
374.355
 11
124.745
 21
374.518
  0
LINE
  8
0
 10
124.745
 20
374.518
 11
124.328
 21
374.78
  0
LINE
  8
0
 10
124.328
 20
374.78
 11
123.98
 21
375.128
  0
LINE
  8
0
 10
123.98
 20
375.128
 11
123.718
 21
375.545
  0
LINE
  8
0
 10
123.718
 20
375.545
 11
123.555
 21
376.01
  0
LINE
  8
0
 10
123.555
 20
376.01
 11
123.5
 21
376.5
  0
LINE
  8
0
 10
123.5
 20
376.5
 11
123.555
 21
376.99
  0
LINE
  8
0
 10
123.555
 20
376.99
 11
123.718
 21
377.455
  0
LINE
  8
0
 10
123.718
 20
377.455
 11
123.98
 21
377.872
  0
LINE
  8
0
 10
123.98
 20
377.872
 11
124.328
 21
378.22
  0
LINE
  8
0
 10
124.328
 20
378.22
 11
124.745
 21
378.482
  0
LINE
  8
0
 10
124.745
 20
378.482
 11
125.21
 21
378.645
  0
LINE
  8
0
 10
125.21
 20
378.645
 11
125.7
 21
378.7
  0
LINE
  8
0
 10
125.7
 20
378.7
 11
126.19
 21
378.645
  0
LINE
  8
0
 10
126.19
 20
378.645
 11
126.655
 21
378.482
  0
LINE
  8
0
 10
126.655
 20
378.482
 11
127.072
 21
378.22
  0
LINE
  8
0
 10
127.072
 20
378.22
 11
127.42
 21
377.872
  0
LINE
  8
0
 10
127.42
 20
377.872
 11
127.682
 21
377.455
  0
LINE
  8
0
 10
127.682
 20
377.455
 11
127.845
 21
376.99
  0
LINE
  8
0
 10
127.845
 20
376.99
 11
127.9
 21
376.5
  0
LINE
  8
0
 10
127.9
 20
376.5
 11
127.845
 21
376.01
  0
LINE
  8
0
 10
127.845
 20
376.01
 11
127.682
 21
375.545
  0
LINE
  8
0
 10
127.682
 20
375.545
 11
127.42
 21
375.128
  0
LINE
  8
0
 10
127.42
 20
375.128
 11
127.072
 21
374.78
  0
LINE
  8
0
 10
127.072
 20
374.78
 11
126.655
 21
374.518
  0
LINE
  8
0
 10
126.655
 20
374.518
 11
126.19
 21
374.355
  0
LINE
  8
0
 10
126.19
 20
374.355
 11
125.7
 21
374.3
  0
LINE
  8
0
 10
125.7
 20
374.3
 11
125.21
 21
374.355
  0
LINE
  8
0
 10
-193.79
 20
374.355
 11
-194.255
 21
374.518
  0
LINE
  8
0
 10
-194.255
 20
374.518
 11
-194.672
 21
374.78
  0
LINE
  8
0
 10
-194.672
 20
374.78
 11
-195.02
 21
375.128
  0
LINE
  8
0
 10
-195.02
 20
375.128
 11
-195.282
 21
375.545
  0
LINE
  8
0
 10
-195.282
 20
375.545
 11
-195.445
 21
376.01
  0
LINE
  8
0
 10
-195.445
 20
376.01
 11
-195.5
 21
376.5
  0
LINE
  8
0
 10
-195.5
 20
376.5
 11
-195.445
 21
376.99
  0
LINE
  8
0
 10
-195.445
 20
376.99
 11
-195.282
 21
377.455
  0
LINE
  8
0
 10
-195.282
 20
377.455
 11
-195.02
 21
377.872
  0
LINE
  8
0
 10
-195.02
 20
377.872
 11
-194.672
 21
378.22
  0
LINE
  8
0
 10
-194.672
 20
378.22
 11
-194.255
 21
378.482
  0
LINE
  8
0
 10
-194.255
 20
378.482
 11
-193.79
 21
378.645
  0
LINE
  8
0
 10
-193.79
 20
378.645
 11
-193.3
 21
378.7
  0
LINE
  8
0
 10
-193.3
 20
378.7
 11
-192.81
 21
378.645
  0
LINE
  8
0
 10
-192.81
 20
378.645
 11
-192.345
 21
378.482
  0
LINE
  8
0
 10
-192.345
 20
378.482
 11
-191.928
 21
378.22
  0
LINE
  8
0
 10
-191.928
 20
378.22
 11
-191.58
 21
377.872
  0
LINE
  8
0
 10
-191.58
 20
377.872
 11
-191.318
 21
377.455
  0
LINE
  8
0
 10
-191.318
 20
377.455
 11
-191.155
 21
376.99
  0
LINE
  8
0
 10
-191.155
 20
376.99
 11
-191.1
 21
376.5
  0
LINE
  8
0
 10
-191.1
 20
376.5
 11
-191.155
 21
376.01
  0
LINE
  8
0
 10
-191.155
 20
376.01
 11
-191.318
 21
375.545
  0
LINE
  8
0
 10
-191.318
 20
375.545
 11
-191.58
 21
375.128
  0
LINE
  8
0
 10
-191.58
 20
375.128
 11
-191.928
 21
374.78
  0
LINE
  8
0
 10
-191.928
 20
374.78
 11
-192.345
 21
374.518
  0
LINE
  8
0
 10
-192.345
 20
374.518
 11
-192.81
 21
374.355
  0
LINE
  8
0
 10
-192.81
 20
374.355
 11
-193.3
 21
374.3
  0
LINE
  8
0
 10
-193.3
 20
374.3
 11
-193.79
 21
374.355
  0
LINE
  8
0
 10
155.31
 20
374.355
 11
154.845
 21
374.518
  0
LINE
  8
0
 10
154.845
 20
374.518
 11
154.428
 21
374.78
  0
LINE
  8
0
 10
154.428
 20
374.78
 11
154.08
 21
375.128
  0
LINE
  8
0
 10
154.08
 20
375.128
 11
153.818
 21
375.545
  0
LINE
  8
0
 10
153.818
 20
375.545
 11
153.655
 21
376.01
  0
LINE
  8
0
 10
153.655
 20
376.01
 11
153.6
 21
376.5
  0
LINE
  8
0
 10
153.6
 20
376.5
 11
153.655
 21
376.99
  0
LINE
  8
0
 10
153.655
 20
376.99
 11
153.818
 21
377.455
  0
LINE
  8
0
 10
153.818
 20
377.455
 11
154.08
 21
377.872
  0
LINE
  8
0
 10
154.08
 20
377.872
 11
154.428
 21
378.22
  0
LINE
  8
0
 10
154.428
 20
378.22
 11
154.845
 21
378.482
  0
LINE
  8
0
 10
154.845
 20
378.482
 11
155.31
 21
378.645
  0
LINE
  8
0
 10
155.31
 20
378.645
 11
155.8
 21
378.7
  0
LINE
  8
0
 10
155.8
 20
378.7
 11
156.29
 21
378.645
  0
LINE
  8
0
 10
156.29
 20
378.645
 11
156.755
 21
378.482
  0
LINE
  8
0
 10
156.755
 20
378.482
 11
157.172
 21
378.22
  0
LINE
  8
0
 10
157.172
 20
378.22
 11
157.52
 21
377.872
  0
LINE
  8
0
 10
157.52
 20
377.872
 11
157.782
 21
377.455
  0
LINE
  8
0
 10
157.782
 20
377.455
 11
157.945
 21
376.99
  0
LINE
  8
0
 10
157.945
 20
376.99
 11
158
 21
376.5
  0
LINE
  8
0
 10
158
 20
376.5
 11
157.945
 21
376.01
  0
LINE
  8
0
 10
157.945
 20
376.01
 11
157.782
 21
375.545
  0
LINE
  8
0
 10
157.782
 20
375.545
 11
157.52
 21
375.128
  0
LINE
  8
0
 10
157.52
 20
375.128
 11
157.172
 21
374.78
  0
LINE
  8
0
 10
157.172
 20
374.78
 11
156.755
 21
374.518
  0
LINE
  8
0
 10
156.755
 20
374.518
 11
156.29
 21
374.355
  0
LINE
  8
0
 10
156.29
 20
374.355
 11
155.8
 21
374.3
  0
LINE
  8
0
 10
155.8
 20
374.3
 11
155.31
 21
374.355
  0
LINE
  8
0
 10
-194.991
 20
365.015
 11
-195.459
 21
365.13
  0
LINE
  8
0
 10
-195.459
 20
365.13
 11
-195.886
 21
365.354
  0
LINE
  8
0
 10
-195.886
 20
365.354
 11
-196.247
 21
365.674
  0
LINE
  8
0
 10
-196.247
 20
365.674
 11
-196.521
 21
366.071
  0
LINE
  8
0
 10
-196.521
 20
366.071
 11
-196.692
 21
366.521
  0
LINE
  8
0
 10
-196.692
 20
366.521
 11
-196.75
 21
367
  0
LINE
  8
0
 10
-196.75
 20
367
 11
-196.692
 21
367.479
  0
LINE
  8
0
 10
-196.692
 20
367.479
 11
-196.521
 21
367.929
  0
LINE
  8
0
 10
-196.521
 20
367.929
 11
-196.247
 21
368.326
  0
LINE
  8
0
 10
-196.247
 20
368.326
 11
-195.886
 21
368.646
  0
LINE
  8
0
 10
-195.886
 20
368.646
 11
-195.459
 21
368.87
  0
LINE
  8
0
 10
-195.459
 20
368.87
 11
-194.991
 21
368.985
  0
LINE
  8
0
 10
-194.991
 20
368.985
 11
-194.509
 21
368.985
  0
LINE
  8
0
 10
-194.509
 20
368.985
 11
-194.041
 21
368.87
  0
LINE
  8
0
 10
-194.041
 20
368.87
 11
-193.614
 21
368.646
  0
LINE
  8
0
 10
-193.614
 20
368.646
 11
-193.253
 21
368.326
  0
LINE
  8
0
 10
-193.253
 20
368.326
 11
-192.979
 21
367.929
  0
LINE
  8
0
 10
-192.979
 20
367.929
 11
-192.808
 21
367.479
  0
LINE
  8
0
 10
-192.808
 20
367.479
 11
-192.75
 21
367
  0
LINE
  8
0
 10
-192.75
 20
367
 11
-192.808
 21
366.521
  0
LINE
  8
0
 10
-192.808
 20
366.521
 11
-192.979
 21
366.071
  0
LINE
  8
0
 10
-192.979
 20
366.071
 11
-193.253
 21
365.674
  0
LINE
  8
0
 10
-193.253
 20
365.674
 11
-193.614
 21
365.354
  0
LINE
  8
0
 10
-193.614
 20
365.354
 11
-194.041
 21
365.13
  0
LINE
  8
0
 10
-194.041
 20
365.13
 11
-194.509
 21
365.015
  0
LINE
  8
0
 10
-194.509
 20
365.015
 11
-194.991
 21
365.015
  0
LINE
  8
0
 10
188.05
 20
362.75
 11
187.572
 21
362.845
  0
LINE
  8
0
 10
187.572
 20
362.845
 11
187.166
 21
363.116
  0
LINE
  8
0
 10
187.166
 20
363.116
 11
186.895
 21
363.522
  0
LINE
  8
0
 10
186.895
 20
363.522
 11
186.8
 21
364
  0
LINE
  8
0
 10
186.8
 20
364
 11
186.895
 21
364.478
  0
LINE
  8
0
 10
186.895
 20
364.478
 11
187.166
 21
364.884
  0
LINE
  8
0
 10
187.166
 20
364.884
 11
187.572
 21
365.155
  0
LINE
  8
0
 10
187.572
 20
365.155
 11
188.05
 21
365.25
  0
LINE
  8
0
 10
188.05
 20
365.25
 11
215.45
 21
365.25
  0
LINE
  8
0
 10
215.45
 20
365.25
 11
215.928
 21
365.155
  0
LINE
  8
0
 10
215.928
 20
365.155
 11
216.334
 21
364.884
  0
LINE
  8
0
 10
216.334
 20
364.884
 11
216.605
 21
364.478
  0
LINE
  8
0
 10
216.605
 20
364.478
 11
216.7
 21
364
  0
LINE
  8
0
 10
216.7
 20
364
 11
216.605
 21
363.522
  0
LINE
  8
0
 10
216.605
 20
363.522
 11
216.334
 21
363.116
  0
LINE
  8
0
 10
216.334
 20
363.116
 11
215.928
 21
362.845
  0
LINE
  8
0
 10
215.928
 20
362.845
 11
215.45
 21
362.75
  0
LINE
  8
0
 10
215.45
 20
362.75
 11
188.05
 21
362.75
  0
LINE
  8
0
 10
218.66
 20
351.005
 11
218.195
 21
351.168
  0
LINE
  8
0
 10
218.195
 20
351.168
 11
217.778
 21
351.43
  0
LINE
  8
0
 10
217.778
 20
351.43
 11
217.43
 21
351.778
  0
LINE
  8
0
 10
217.43
 20
351.778
 11
217.168
 21
352.195
  0
LINE
  8
0
 10
217.168
 20
352.195
 11
217.005
 21
352.66
  0
LINE
  8
0
 10
217.005
 20
352.66
 11
216.95
 21
353.15
  0
LINE
  8
0
 10
216.95
 20
353.15
 11
217.005
 21
353.64
  0
LINE
  8
0
 10
217.005
 20
353.64
 11
217.168
 21
354.105
  0
LINE
  8
0
 10
217.168
 20
354.105
 11
217.43
 21
354.522
  0
LINE
  8
0
 10
217.43
 20
354.522
 11
217.778
 21
354.87
  0
LINE
  8
0
 10
217.778
 20
354.87
 11
218.195
 21
355.132
  0
LINE
  8
0
 10
218.195
 20
355.132
 11
218.66
 21
355.295
  0
LINE
  8
0
 10
218.66
 20
355.295
 11
219.15
 21
355.35
  0
LINE
  8
0
 10
219.15
 20
355.35
 11
219.64
 21
355.295
  0
LINE
  8
0
 10
219.64
 20
355.295
 11
220.105
 21
355.132
  0
LINE
  8
0
 10
220.105
 20
355.132
 11
220.522
 21
354.87
  0
LINE
  8
0
 10
220.522
 20
354.87
 11
220.87
 21
354.522
  0
LINE
  8
0
 10
220.87
 20
354.522
 11
221.132
 21
354.105
  0
LINE
  8
0
 10
221.132
 20
354.105
 11
221.295
 21
353.64
  0
LINE
  8
0
 10
221.295
 20
353.64
 11
221.35
 21
353.15
  0
LINE
  8
0
 10
221.35
 20
353.15
 11
221.295
 21
352.66
  0
LINE
  8
0
 10
221.295
 20
352.66
 11
221.132
 21
352.195
  0
LINE
  8
0
 10
221.132
 20
352.195
 11
220.87
 21
351.778
  0
LINE
  8
0
 10
220.87
 20
351.778
 11
220.522
 21
351.43
  0
LINE
  8
0
 10
220.522
 20
351.43
 11
220.105
 21
351.168
  0
LINE
  8
0
 10
220.105
 20
351.168
 11
219.64
 21
351.005
  0
LINE
  8
0
 10
219.64
 20
351.005
 11
219.15
 21
350.95
  0
LINE
  8
0
 10
219.15
 20
350.95
 11
218.66
 21
351.005
  0
LINE
  8
0
 10
183.86
 20
351.005
 11
183.395
 21
351.168
  0
LINE
  8
0
 10
183.395
 20
351.168
 11
182.978
 21
351.43
  0
LINE
  8
0
 10
182.978
 20
351.43
 11
182.63
 21
351.778
  0
LINE
  8
0
 10
182.63
 20
351.778
 11
182.368
 21
352.195
  0
LINE
  8
0
 10
182.368
 20
352.195
 11
182.205
 21
352.66
  0
LINE
  8
0
 10
182.205
 20
352.66
 11
182.15
 21
353.15
  0
LINE
  8
0
 10
182.15
 20
353.15
 11
182.205
 21
353.64
  0
LINE
  8
0
 10
182.205
 20
353.64
 11
182.368
 21
354.105
  0
LINE
  8
0
 10
182.368
 20
354.105
 11
182.63
 21
354.522
  0
LINE
  8
0
 10
182.63
 20
354.522
 11
182.978
 21
354.87
  0
LINE
  8
0
 10
182.978
 20
354.87
 11
183.395
 21
355.132
  0
LINE
  8
0
 10
183.395
 20
355.132
 11
183.86
 21
355.295
  0
LINE
  8
0
 10
183.86
 20
355.295
 11
184.35
 21
355.35
  0
LINE
  8
0
 10
184.35
 20
355.35
 11
184.84
 21
355.295
  0
LINE
  8
0
 10
184.84
 20
355.295
 11
185.305
 21
355.132
  0
LINE
  8
0
 10
185.305
 20
355.132
 11
185.722
 21
354.87
  0
LINE
  8
0
 10
185.722
 20
354.87
 11
186.07
 21
354.522
  0
LINE
  8
0
 10
186.07
 20
354.522
 11
186.332
 21
354.105
  0
LINE
  8
0
 10
186.332
 20
354.105
 11
186.495
 21
353.64
  0
LINE
  8
0
 10
186.495
 20
353.64
 11
186.55
 21
353.15
  0
LINE
  8
0
 10
186.55
 20
353.15
 11
186.495
 21
352.66
  0
LINE
  8
0
 10
186.495
 20
352.66
 11
186.332
 21
352.195
  0
LINE
  8
0
 10
186.332
 20
352.195
 11
186.07
 21
351.778
  0
LINE
  8
0
 10
186.07
 20
351.778
 11
185.722
 21
351.43
  0
LINE
  8
0
 10
185.722
 20
351.43
 11
185.305
 21
351.168
  0
LINE
  8
0
 10
185.305
 20
351.168
 11
184.84
 21
351.005
  0
LINE
  8
0
 10
184.84
 20
351.005
 11
184.35
 21
350.95
  0
LINE
  8
0
 10
184.35
 20
350.95
 11
183.86
 21
351.005
  0
LINE
  8
0
 10
-172.49
 20
348.145
 11
-172.955
 21
348.308
  0
LINE
  8
0
 10
-172.955
 20
348.308
 11
-173.372
 21
348.57
  0
LINE
  8
0
 10
-173.372
 20
348.57
 11
-173.72
 21
348.918
  0
LINE
  8
0
 10
-173.72
 20
348.918
 11
-173.982
 21
349.335
  0
LINE
  8
0
 10
-173.982
 20
349.335
 11
-174.145
 21
349.8
  0
LINE
  8
0
 10
-174.145
 20
349.8
 11
-174.2
 21
350.29
  0
LINE
  8
0
 10
-174.2
 20
350.29
 11
-174.145
 21
350.78
  0
LINE
  8
0
 10
-174.145
 20
350.78
 11
-173.982
 21
351.245
  0
LINE
  8
0
 10
-173.982
 20
351.245
 11
-173.72
 21
351.662
  0
LINE
  8
0
 10
-173.72
 20
351.662
 11
-173.372
 21
352.01
  0
LINE
  8
0
 10
-173.372
 20
352.01
 11
-172.955
 21
352.272
  0
LINE
  8
0
 10
-172.955
 20
352.272
 11
-172.49
 21
352.435
  0
LINE
  8
0
 10
-172.49
 20
352.435
 11
-172
 21
352.49
  0
LINE
  8
0
 10
-172
 20
352.49
 11
-171.51
 21
352.435
  0
LINE
  8
0
 10
-171.51
 20
352.435
 11
-171.045
 21
352.272
  0
LINE
  8
0
 10
-171.045
 20
352.272
 11
-170.628
 21
352.01
  0
LINE
  8
0
 10
-170.628
 20
352.01
 11
-170.28
 21
351.662
  0
LINE
  8
0
 10
-170.28
 20
351.662
 11
-170.018
 21
351.245
  0
LINE
  8
0
 10
-170.018
 20
351.245
 11
-169.855
 21
350.78
  0
LINE
  8
0
 10
-169.855
 20
350.78
 11
-169.8
 21
350.29
  0
LINE
  8
0
 10
-169.8
 20
350.29
 11
-169.855
 21
349.8
  0
LINE
  8
0
 10
-169.855
 20
349.8
 11
-170.018
 21
349.335
  0
LINE
  8
0
 10
-170.018
 20
349.335
 11
-170.28
 21
348.918
  0
LINE
  8
0
 10
-170.28
 20
348.918
 11
-170.628
 21
348.57
  0
LINE
  8
0
 10
-170.628
 20
348.57
 11
-171.045
 21
348.308
  0
LINE
  8
0
 10
-171.045
 20
348.308
 11
-171.51
 21
348.145
  0
LINE
  8
0
 10
-171.51
 20
348.145
 11
-172
 21
348.09
  0
LINE
  8
0
 10
-172
 20
348.09
 11
-172.49
 21
348.145
  0
LINE
  8
0
 10
127.01
 20
348.145
 11
126.545
 21
348.308
  0
LINE
  8
0
 10
126.545
 20
348.308
 11
126.128
 21
348.57
  0
LINE
  8
0
 10
126.128
 20
348.57
 11
125.78
 21
348.918
  0
LINE
  8
0
 10
125.78
 20
348.918
 11
125.518
 21
349.335
  0
LINE
  8
0
 10
125.518
 20
349.335
 11
125.355
 21
349.8
  0
LINE
  8
0
 10
125.355
 20
349.8
 11
125.3
 21
350.29
  0
LINE
  8
0
 10
125.3
 20
350.29
 11
125.355
 21
350.78
  0
LINE
  8
0
 10
125.355
 20
350.78
 11
125.518
 21
351.245
  0
LINE
  8
0
 10
125.518
 20
351.245
 11
125.78
 21
351.662
  0
LINE
  8
0
 10
125.78
 20
351.662
 11
126.128
 21
352.01
  0
LINE
  8
0
 10
126.128
 20
352.01
 11
126.545
 21
352.272
  0
LINE
  8
0
 10
126.545
 20
352.272
 11
127.01
 21
352.435
  0
LINE
  8
0
 10
127.01
 20
352.435
 11
127.5
 21
352.49
  0
LINE
  8
0
 10
127.5
 20
352.49
 11
127.99
 21
352.435
  0
LINE
  8
0
 10
127.99
 20
352.435
 11
128.455
 21
352.272
  0
LINE
  8
0
 10
128.455
 20
352.272
 11
128.872
 21
352.01
  0
LINE
  8
0
 10
128.872
 20
352.01
 11
129.22
 21
351.662
  0
LINE
  8
0
 10
129.22
 20
351.662
 11
129.482
 21
351.245
  0
LINE
  8
0
 10
129.482
 20
351.245
 11
129.645
 21
350.78
  0
LINE
  8
0
 10
129.645
 20
350.78
 11
129.7
 21
350.29
  0
LINE
  8
0
 10
129.7
 20
350.29
 11
129.645
 21
349.8
  0
LINE
  8
0
 10
129.645
 20
349.8
 11
129.482
 21
349.335
  0
LINE
  8
0
 10
129.482
 20
349.335
 11
129.22
 21
348.918
  0
LINE
  8
0
 10
129.22
 20
348.918
 11
128.872
 21
348.57
  0
LINE
  8
0
 10
128.872
 20
348.57
 11
128.455
 21
348.308
  0
LINE
  8
0
 10
128.455
 20
348.308
 11
127.99
 21
348.145
  0
LINE
  8
0
 10
127.99
 20
348.145
 11
127.5
 21
348.09
  0
LINE
  8
0
 10
127.5
 20
348.09
 11
127.01
 21
348.145
  0
LINE
  8
0
 10
118.213
 20
329.061
 11
117.779
 21
329.296
  0
LINE
  8
0
 10
117.779
 20
329.296
 11
117.444
 21
329.66
  0
LINE
  8
0
 10
117.444
 20
329.66
 11
117.246
 21
330.112
  0
LINE
  8
0
 10
117.246
 20
330.112
 11
117.205
 21
330.604
  0
LINE
  8
0
 10
117.205
 20
330.604
 11
117.326
 21
331.083
  0
LINE
  8
0
 10
117.326
 20
331.083
 11
117.596
 21
331.496
  0
LINE
  8
0
 10
117.596
 20
331.496
 11
117.986
 21
331.799
  0
LINE
  8
0
 10
117.986
 20
331.799
 11
118.453
 21
331.96
  0
LINE
  8
0
 10
118.453
 20
331.96
 11
118.947
 21
331.96
  0
LINE
  8
0
 10
118.947
 20
331.96
 11
119.414
 21
331.799
  0
LINE
  8
0
 10
119.414
 20
331.799
 11
119.804
 21
331.496
  0
LINE
  8
0
 10
119.804
 20
331.496
 11
120.074
 21
331.083
  0
LINE
  8
0
 10
120.074
 20
331.083
 11
120.195
 21
330.604
  0
LINE
  8
0
 10
120.195
 20
330.604
 11
120.154
 21
330.112
  0
LINE
  8
0
 10
120.154
 20
330.112
 11
119.956
 21
329.66
  0
LINE
  8
0
 10
119.956
 20
329.66
 11
119.621
 21
329.296
  0
LINE
  8
0
 10
119.621
 20
329.296
 11
119.187
 21
329.061
  0
LINE
  8
0
 10
119.187
 20
329.061
 11
118.7
 21
328.98
  0
LINE
  8
0
 10
118.7
 20
328.98
 11
118.213
 21
329.061
  0
LINE
  8
0
 10
-168.687
 20
329.061
 11
-169.121
 21
329.296
  0
LINE
  8
0
 10
-169.121
 20
329.296
 11
-169.456
 21
329.66
  0
LINE
  8
0
 10
-169.456
 20
329.66
 11
-169.654
 21
330.112
  0
LINE
  8
0
 10
-169.654
 20
330.112
 11
-169.695
 21
330.604
  0
LINE
  8
0
 10
-169.695
 20
330.604
 11
-169.574
 21
331.083
  0
LINE
  8
0
 10
-169.574
 20
331.083
 11
-169.304
 21
331.496
  0
LINE
  8
0
 10
-169.304
 20
331.496
 11
-168.914
 21
331.799
  0
LINE
  8
0
 10
-168.914
 20
331.799
 11
-168.447
 21
331.96
  0
LINE
  8
0
 10
-168.447
 20
331.96
 11
-167.953
 21
331.96
  0
LINE
  8
0
 10
-167.953
 20
331.96
 11
-167.486
 21
331.799
  0
LINE
  8
0
 10
-167.486
 20
331.799
 11
-167.096
 21
331.496
  0
LINE
  8
0
 10
-167.096
 20
331.496
 11
-166.826
 21
331.083
  0
LINE
  8
0
 10
-166.826
 20
331.083
 11
-166.705
 21
330.604
  0
LINE
  8
0
 10
-166.705
 20
330.604
 11
-166.746
 21
330.112
  0
LINE
  8
0
 10
-166.746
 20
330.112
 11
-166.944
 21
329.66
  0
LINE
  8
0
 10
-166.944
 20
329.66
 11
-167.279
 21
329.296
  0
LINE
  8
0
 10
-167.279
 20
329.296
 11
-167.713
 21
329.061
  0
LINE
  8
0
 10
-167.713
 20
329.061
 11
-168.2
 21
328.98
  0
LINE
  8
0
 10
-168.2
 20
328.98
 11
-168.687
 21
329.061
  0
LINE
  8
0
 10
-168.687
 20
323.261
 11
-169.121
 21
323.496
  0
LINE
  8
0
 10
-169.121
 20
323.496
 11
-169.456
 21
323.86
  0
LINE
  8
0
 10
-169.456
 20
323.86
 11
-169.654
 21
324.312
  0
LINE
  8
0
 10
-169.654
 20
324.312
 11
-169.695
 21
324.804
  0
LINE
  8
0
 10
-169.695
 20
324.804
 11
-169.574
 21
325.283
  0
LINE
  8
0
 10
-169.574
 20
325.283
 11
-169.304
 21
325.696
  0
LINE
  8
0
 10
-169.304
 20
325.696
 11
-168.914
 21
325.999
  0
LINE
  8
0
 10
-168.914
 20
325.999
 11
-168.447
 21
326.16
  0
LINE
  8
0
 10
-168.447
 20
326.16
 11
-167.953
 21
326.16
  0
LINE
  8
0
 10
-167.953
 20
326.16
 11
-167.486
 21
325.999
  0
LINE
  8
0
 10
-167.486
 20
325.999
 11
-167.096
 21
325.696
  0
LINE
  8
0
 10
-167.096
 20
325.696
 11
-166.826
 21
325.283
  0
LINE
  8
0
 10
-166.826
 20
325.283
 11
-166.705
 21
324.804
  0
LINE
  8
0
 10
-166.705
 20
324.804
 11
-166.746
 21
324.312
  0
LINE
  8
0
 10
-166.746
 20
324.312
 11
-166.944
 21
323.86
  0
LINE
  8
0
 10
-166.944
 20
323.86
 11
-167.279
 21
323.496
  0
LINE
  8
0
 10
-167.279
 20
323.496
 11
-167.713
 21
323.261
  0
LINE
  8
0
 10
-167.713
 20
323.261
 11
-168.2
 21
323.18
  0
LINE
  8
0
 10
-168.2
 20
323.18
 11
-168.687
 21
323.261
  0
LINE
  8
0
 10
118.213
 20
323.261
 11
117.779
 21
323.496
  0
LINE
  8
0
 10
117.779
 20
323.496
 11
117.444
 21
323.86
  0
LINE
  8
0
 10
117.444
 20
323.86
 11
117.246
 21
324.312
  0
LINE
  8
0
 10
117.246
 20
324.312
 11
117.205
 21
324.804
  0
LINE
  8
0
 10
117.205
 20
324.804
 11
117.326
 21
325.283
  0
LINE
  8
0
 10
117.326
 20
325.283
 11
117.596
 21
325.696
  0
LINE
  8
0
 10
117.596
 20
325.696
 11
117.986
 21
325.999
  0
LINE
  8
0
 10
117.986
 20
325.999
 11
118.453
 21
326.16
  0
LINE
  8
0
 10
118.453
 20
326.16
 11
118.947
 21
326.16
  0
LINE
  8
0
 10
118.947
 20
326.16
 11
119.414
 21
325.999
  0
LINE
  8
0
 10
119.414
 20
325.999
 11
119.804
 21
325.696
  0
LINE
  8
0
 10
119.804
 20
325.696
 11
120.074
 21
325.283
  0
LINE
  8
0
 10
120.074
 20
325.283
 11
120.195
 21
324.804
  0
LINE
  8
0
 10
120.195
 20
324.804
 11
120.154
 21
324.312
  0
LINE
  8
0
 10
120.154
 20
324.312
 11
119.956
 21
323.86
  0
LINE
  8
0
 10
119.956
 20
323.86
 11
119.621
 21
323.496
  0
LINE
  8
0
 10
119.621
 20
323.496
 11
119.187
 21
323.261
  0
LINE
  8
0
 10
119.187
 20
323.261
 11
118.7
 21
323.18
  0
LINE
  8
0
 10
118.7
 20
323.18
 11
118.213
 21
323.261
  0
LINE
  8
0
 10
123.453
 20
317.8
 11
122.986
 21
317.961
  0
LINE
  8
0
 10
122.986
 20
317.961
 11
122.596
 21
318.264
  0
LINE
  8
0
 10
122.596
 20
318.264
 11
122.326
 21
318.677
  0
LINE
  8
0
 10
122.326
 20
318.677
 11
122.205
 21
319.156
  0
LINE
  8
0
 10
122.205
 20
319.156
 11
122.246
 21
319.648
  0
LINE
  8
0
 10
122.246
 20
319.648
 11
122.444
 21
320.1
  0
LINE
  8
0
 10
122.444
 20
320.1
 11
122.779
 21
320.464
  0
LINE
  8
0
 10
122.779
 20
320.464
 11
123.213
 21
320.699
  0
LINE
  8
0
 10
123.213
 20
320.699
 11
123.7
 21
320.78
  0
LINE
  8
0
 10
123.7
 20
320.78
 11
124.187
 21
320.699
  0
LINE
  8
0
 10
124.187
 20
320.699
 11
124.621
 21
320.464
  0
LINE
  8
0
 10
124.621
 20
320.464
 11
124.956
 21
320.1
  0
LINE
  8
0
 10
124.956
 20
320.1
 11
125.154
 21
319.648
  0
LINE
  8
0
 10
125.154
 20
319.648
 11
125.195
 21
319.156
  0
LINE
  8
0
 10
125.195
 20
319.156
 11
125.074
 21
318.677
  0
LINE
  8
0
 10
125.074
 20
318.677
 11
124.804
 21
318.264
  0
LINE
  8
0
 10
124.804
 20
318.264
 11
124.414
 21
317.961
  0
LINE
  8
0
 10
124.414
 20
317.961
 11
123.947
 21
317.8
  0
LINE
  8
0
 10
123.947
 20
317.8
 11
123.453
 21
317.8
  0
LINE
  8
0
 10
-163.447
 20
317.8
 11
-163.914
 21
317.961
  0
LINE
  8
0
 10
-163.914
 20
317.961
 11
-164.304
 21
318.264
  0
LINE
  8
0
 10
-164.304
 20
318.264
 11
-164.574
 21
318.677
  0
LINE
  8
0
 10
-164.574
 20
318.677
 11
-164.695
 21
319.156
  0
LINE
  8
0
 10
-164.695
 20
319.156
 11
-164.654
 21
319.648
  0
LINE
  8
0
 10
-164.654
 20
319.648
 11
-164.456
 21
320.1
  0
LINE
  8
0
 10
-164.456
 20
320.1
 11
-164.121
 21
320.464
  0
LINE
  8
0
 10
-164.121
 20
320.464
 11
-163.687
 21
320.699
  0
LINE
  8
0
 10
-163.687
 20
320.699
 11
-163.2
 21
320.78
  0
LINE
  8
0
 10
-163.2
 20
320.78
 11
-162.713
 21
320.699
  0
LINE
  8
0
 10
-162.713
 20
320.699
 11
-162.279
 21
320.464
  0
LINE
  8
0
 10
-162.279
 20
320.464
 11
-161.944
 21
320.1
  0
LINE
  8
0
 10
-161.944
 20
320.1
 11
-161.746
 21
319.648
  0
LINE
  8
0
 10
-161.746
 20
319.648
 11
-161.705
 21
319.156
  0
LINE
  8
0
 10
-161.705
 20
319.156
 11
-161.826
 21
318.677
  0
LINE
  8
0
 10
-161.826
 20
318.677
 11
-162.096
 21
318.264
  0
LINE
  8
0
 10
-162.096
 20
318.264
 11
-162.486
 21
317.961
  0
LINE
  8
0
 10
-162.486
 20
317.961
 11
-162.953
 21
317.8
  0
LINE
  8
0
 10
-162.953
 20
317.8
 11
-163.447
 21
317.8
  0
LINE
  8
0
 10
123.453
 20
310.6
 11
122.986
 21
310.761
  0
LINE
  8
0
 10
122.986
 20
310.761
 11
122.596
 21
311.064
  0
LINE
  8
0
 10
122.596
 20
311.064
 11
122.326
 21
311.477
  0
LINE
  8
0
 10
122.326
 20
311.477
 11
122.205
 21
311.956
  0
LINE
  8
0
 10
122.205
 20
311.956
 11
122.246
 21
312.448
  0
LINE
  8
0
 10
122.246
 20
312.448
 11
122.444
 21
312.9
  0
LINE
  8
0
 10
122.444
 20
312.9
 11
122.779
 21
313.264
  0
LINE
  8
0
 10
122.779
 20
313.264
 11
123.213
 21
313.499
  0
LINE
  8
0
 10
123.213
 20
313.499
 11
123.7
 21
313.58
  0
LINE
  8
0
 10
123.7
 20
313.58
 11
124.187
 21
313.499
  0
LINE
  8
0
 10
124.187
 20
313.499
 11
124.621
 21
313.264
  0
LINE
  8
0
 10
124.621
 20
313.264
 11
124.956
 21
312.9
  0
LINE
  8
0
 10
124.956
 20
312.9
 11
125.154
 21
312.448
  0
LINE
  8
0
 10
125.154
 20
312.448
 11
125.195
 21
311.956
  0
LINE
  8
0
 10
125.195
 20
311.956
 11
125.074
 21
311.477
  0
LINE
  8
0
 10
125.074
 20
311.477
 11
124.804
 21
311.064
  0
LINE
  8
0
 10
124.804
 20
311.064
 11
124.414
 21
310.761
  0
LINE
  8
0
 10
124.414
 20
310.761
 11
123.947
 21
310.6
  0
LINE
  8
0
 10
123.947
 20
310.6
 11
123.453
 21
310.6
  0
LINE
  8
0
 10
-163.447
 20
310.6
 11
-163.914
 21
310.761
  0
LINE
  8
0
 10
-163.914
 20
310.761
 11
-164.304
 21
311.064
  0
LINE
  8
0
 10
-164.304
 20
311.064
 11
-164.574
 21
311.477
  0
LINE
  8
0
 10
-164.574
 20
311.477
 11
-164.695
 21
311.956
  0
LINE
  8
0
 10
-164.695
 20
311.956
 11
-164.654
 21
312.448
  0
LINE
  8
0
 10
-164.654
 20
312.448
 11
-164.456
 21
312.9
  0
LINE
  8
0
 10
-164.456
 20
312.9
 11
-164.121
 21
313.264
  0
LINE
  8
0
 10
-164.121
 20
313.264
 11
-163.687
 21
313.499
  0
LINE
  8
0
 10
-163.687
 20
313.499
 11
-163.2
 21
313.58
  0
LINE
  8
0
 10
-163.2
 20
313.58
 11
-162.713
 21
313.499
  0
LINE
  8
0
 10
-162.713
 20
313.499
 11
-162.279
 21
313.264
  0
LINE
  8
0
 10
-162.279
 20
313.264
 11
-161.944
 21
312.9
  0
LINE
  8
0
 10
-161.944
 20
312.9
 11
-161.746
 21
312.448
  0
LINE
  8
0
 10
-161.746
 20
312.448
 11
-161.705
 21
311.956
  0
LINE
  8
0
 10
-161.705
 20
311.956
 11
-161.826
 21
311.477
  0
LINE
  8
0
 10
-161.826
 20
311.477
 11
-162.096
 21
311.064
  0
LINE
  8
0
 10
-162.096
 20
311.064
 11
-162.486
 21
310.761
  0
LINE
  8
0
 10
-162.486
 20
310.761
 11
-162.953
 21
310.6
  0
LINE
  8
0
 10
-162.953
 20
310.6
 11
-163.447
 21
310.6
  0
LINE
  8
0
 10
-227.24
 20
149.355
 11
-227.705
 21
149.518
  0
LINE
  8
0
 10
-227.705
 20
149.518
 11
-228.122
 21
149.78
  0
LINE
  8
0
 10
-228.122
 20
149.78
 11
-228.47
 21
150.128
  0
LINE
  8
0
 10
-228.47
 20
150.128
 11
-228.732
 21
150.545
  0
LINE
  8
0
 10
-228.732
 20
150.545
 11
-228.895
 21
151.01
  0
LINE
  8
0
 10
-228.895
 20
151.01
 11
-228.95
 21
151.5
  0
LINE
  8
0
 10
-228.95
 20
151.5
 11
-228.895
 21
151.99
  0
LINE
  8
0
 10
-228.895
 20
151.99
 11
-228.732
 21
152.455
  0
LINE
  8
0
 10
-228.732
 20
152.455
 11
-228.47
 21
152.872
  0
LINE
  8
0
 10
-228.47
 20
152.872
 11
-228.122
 21
153.22
  0
LINE
  8
0
 10
-228.122
 20
153.22
 11
-227.705
 21
153.482
  0
LINE
  8
0
 10
-227.705
 20
153.482
 11
-227.24
 21
153.645
  0
LINE
  8
0
 10
-227.24
 20
153.645
 11
-226.75
 21
153.7
  0
LINE
  8
0
 10
-226.75
 20
153.7
 11
-226.26
 21
153.645
  0
LINE
  8
0
 10
-226.26
 20
153.645
 11
-225.795
 21
153.482
  0
LINE
  8
0
 10
-225.795
 20
153.482
 11
-225.378
 21
153.22
  0
LINE
  8
0
 10
-225.378
 20
153.22
 11
-225.03
 21
152.872
  0
LINE
  8
0
 10
-225.03
 20
152.872
 11
-224.768
 21
152.455
  0
LINE
  8
0
 10
-224.768
 20
152.455
 11
-224.605
 21
151.99
  0
LINE
  8
0
 10
-224.605
 20
151.99
 11
-224.55
 21
151.5
  0
LINE
  8
0
 10
-224.55
 20
151.5
 11
-224.605
 21
151.01
  0
LINE
  8
0
 10
-224.605
 20
151.01
 11
-224.768
 21
150.545
  0
LINE
  8
0
 10
-224.768
 20
150.545
 11
-225.03
 21
150.128
  0
LINE
  8
0
 10
-225.03
 20
150.128
 11
-225.378
 21
149.78
  0
LINE
  8
0
 10
-225.378
 20
149.78
 11
-225.795
 21
149.518
  0
LINE
  8
0
 10
-225.795
 20
149.518
 11
-226.26
 21
149.355
  0
LINE
  8
0
 10
-226.26
 20
149.355
 11
-226.75
 21
149.3
  0
LINE
  8
0
 10
-226.75
 20
149.3
 11
-227.24
 21
149.355
  0
LINE
  8
0
 10
-227.24
 20
107.955
 11
-227.705
 21
108.118
  0
LINE
  8
0
 10
-227.705
 20
108.118
 11
-228.122
 21
108.38
  0
LINE
  8
0
 10
-228.122
 20
108.38
 11
-228.47
 21
108.728
  0
LINE
  8
0
 10
-228.47
 20
108.728
 11
-228.732
 21
109.145
  0
LINE
  8
0
 10
-228.732
 20
109.145
 11
-228.895
 21
109.61
  0
LINE
  8
0
 10
-228.895
 20
109.61
 11
-228.95
 21
110.1
  0
LINE
  8
0
 10
-228.95
 20
110.1
 11
-228.895
 21
110.59
  0
LINE
  8
0
 10
-228.895
 20
110.59
 11
-228.732
 21
111.055
  0
LINE
  8
0
 10
-228.732
 20
111.055
 11
-228.47
 21
111.472
  0
LINE
  8
0
 10
-228.47
 20
111.472
 11
-228.122
 21
111.82
  0
LINE
  8
0
 10
-228.122
 20
111.82
 11
-227.705
 21
112.082
  0
LINE
  8
0
 10
-227.705
 20
112.082
 11
-227.24
 21
112.245
  0
LINE
  8
0
 10
-227.24
 20
112.245
 11
-226.75
 21
112.3
  0
LINE
  8
0
 10
-226.75
 20
112.3
 11
-226.26
 21
112.245
  0
LINE
  8
0
 10
-226.26
 20
112.245
 11
-225.795
 21
112.082
  0
LINE
  8
0
 10
-225.795
 20
112.082
 11
-225.378
 21
111.82
  0
LINE
  8
0
 10
-225.378
 20
111.82
 11
-225.03
 21
111.472
  0
LINE
  8
0
 10
-225.03
 20
111.472
 11
-224.768
 21
111.055
  0
LINE
  8
0
 10
-224.768
 20
111.055
 11
-224.605
 21
110.59
  0
LINE
  8
0
 10
-224.605
 20
110.59
 11
-224.55
 21
110.1
  0
LINE
  8
0
 10
-224.55
 20
110.1
 11
-224.605
 21
109.61
  0
LINE
  8
0
 10
-224.605
 20
109.61
 11
-224.768
 21
109.145
  0
LINE
  8
0
 10
-224.768
 20
109.145
 11
-225.03
 21
108.728
  0
LINE
  8
0
 10
-225.03
 20
108.728
 11
-225.378
 21
108.38
  0
LINE
  8
0
 10
-225.378
 20
108.38
 11
-225.795
 21
108.118
  0
LINE
  8
0
 10
-225.795
 20
108.118
 11
-226.26
 21
107.955
  0
LINE
  8
0
 10
-226.26
 20
107.955
 11
-226.75
 21
107.9
  0
LINE
  8
0
 10
-226.75
 20
107.9
 11
-227.24
 21
107.955
  0
LINE
  8
0
 10
-200.991
 20
71.0146
 11
-201.459
 21
71.13
  0
LINE
  8
0
 10
-201.459
 20
71.13
 11
-201.886
 21
71.354
  0
LINE
  8
0
 10
-201.886
 20
71.354
 11
-202.247
 21
71.6738
  0
LINE
  8
0
 10
-202.247
 20
71.6738
 11
-202.521
 21
72.0705
  0
LINE
  8
0
 10
-202.521
 20
72.0705
 11
-202.692
 21
72.5214
  0
LINE
  8
0
 10
-202.692
 20
72.5214
 11
-202.75
 21
73
  0
LINE
  8
0
 10
-202.75
 20
73
 11
-202.692
 21
73.4786
  0
LINE
  8
0
 10
-202.692
 20
73.4786
 11
-202.521
 21
73.9294
  0
LINE
  8
0
 10
-202.521
 20
73.9294
 11
-202.247
 21
74.3262
  0
LINE
  8
0
 10
-202.247
 20
74.3262
 11
-201.886
 21
74.646
  0
LINE
  8
0
 10
-201.886
 20
74.646
 11
-201.459
 21
74.87
  0
LINE
  8
0
 10
-201.459
 20
74.87
 11
-200.991
 21
74.9854
  0
LINE
  8
0
 10
-200.991
 20
74.9854
 11
-200.509
 21
74.9854
  0
LINE
  8
0
 10
-200.509
 20
74.9854
 11
-200.041
 21
74.87
  0
LINE
  8
0
 10
-200.041
 20
74.87
 11
-199.614
 21
74.646
  0
LINE
  8
0
 10
-199.614
 20
74.646
 11
-199.253
 21
74.3262
  0
LINE
  8
0
 10
-199.253
 20
74.3262
 11
-198.979
 21
73.9294
  0
LINE
  8
0
 10
-198.979
 20
73.9294
 11
-198.808
 21
73.4786
  0
LINE
  8
0
 10
-198.808
 20
73.4786
 11
-198.75
 21
73
  0
LINE
  8
0
 10
-198.75
 20
73
 11
-198.808
 21
72.5214
  0
LINE
  8
0
 10
-198.808
 20
72.5214
 11
-198.979
 21
72.0705
  0
LINE
  8
0
 10
-198.979
 20
72.0705
 11
-199.253
 21
71.6738
  0
LINE
  8
0
 10
-199.253
 20
71.6738
 11
-199.614
 21
71.354
  0
LINE
  8
0
 10
-199.614
 20
71.354
 11
-200.041
 21
71.13
  0
LINE
  8
0
 10
-200.041
 20
71.13
 11
-200.509
 21
71.0146
  0
LINE
  8
0
 10
-200.509
 20
71.0146
 11
-200.991
 21
71.0146
  0
LINE
  8
0
 10
142.71
 20
54.3551
 11
142.245
 21
54.5179
  0
LINE
  8
0
 10
142.245
 20
54.5179
 11
141.828
 21
54.78
  0
LINE
  8
0
 10
141.828
 20
54.78
 11
141.48
 21
55.1283
  0
LINE
  8
0
 10
141.48
 20
55.1283
 11
141.218
 21
55.5454
  0
LINE
  8
0
 10
141.218
 20
55.5454
 11
141.055
 21
56.0105
  0
LINE
  8
0
 10
141.055
 20
56.0105
 11
141
 21
56.5
  0
LINE
  8
0
 10
141
 20
56.5
 11
141
 21
65.5
  0
LINE
  8
0
 10
141
 20
65.5
 11
141.055
 21
65.9895
  0
LINE
  8
0
 10
141.055
 20
65.9895
 11
141.218
 21
66.4545
  0
LINE
  8
0
 10
141.218
 20
66.4545
 11
141.48
 21
66.8717
  0
LINE
  8
0
 10
141.48
 20
66.8717
 11
141.828
 21
67.22
  0
LINE
  8
0
 10
141.828
 20
67.22
 11
142.245
 21
67.4821
  0
LINE
  8
0
 10
142.245
 20
67.4821
 11
142.71
 21
67.6448
  0
LINE
  8
0
 10
142.71
 20
67.6448
 11
143.2
 21
67.7
  0
LINE
  8
0
 10
143.2
 20
67.7
 11
143.69
 21
67.6448
  0
LINE
  8
0
 10
143.69
 20
67.6448
 11
144.155
 21
67.4821
  0
LINE
  8
0
 10
144.155
 20
67.4821
 11
144.572
 21
67.22
  0
LINE
  8
0
 10
144.572
 20
67.22
 11
144.92
 21
66.8717
  0
LINE
  8
0
 10
144.92
 20
66.8717
 11
145.182
 21
66.4545
  0
LINE
  8
0
 10
145.182
 20
66.4545
 11
145.345
 21
65.9895
  0
LINE
  8
0
 10
145.345
 20
65.9895
 11
145.4
 21
65.5
  0
LINE
  8
0
 10
145.4
 20
65.5
 11
145.4
 21
56.5
  0
LINE
  8
0
 10
145.4
 20
56.5
 11
145.345
 21
56.0105
  0
LINE
  8
0
 10
145.345
 20
56.0105
 11
145.182
 21
55.5454
  0
LINE
  8
0
 10
145.182
 20
55.5454
 11
144.92
 21
55.1283
  0
LINE
  8
0
 10
144.92
 20
55.1283
 11
144.572
 21
54.78
  0
LINE
  8
0
 10
144.572
 20
54.78
 11
144.155
 21
54.5179
  0
LINE
  8
0
 10
144.155
 20
54.5179
 11
143.69
 21
54.3551
  0
LINE
  8
0
 10
143.69
 20
54.3551
 11
143.2
 21
54.3
  0
LINE
  8
0
 10
143.2
 20
54.3
 11
142.71
 21
54.3551
  0
LINE
  8
0
 10
-218.29
 20
54.3551
 11
-218.755
 21
54.5179
  0
LINE
  8
0
 10
-218.755
 20
54.5179
 11
-219.172
 21
54.78
  0
LINE
  8
0
 10
-219.172
 20
54.78
 11
-219.52
 21
55.1283
  0
LINE
  8
0
 10
-219.52
 20
55.1283
 11
-219.782
 21
55.5454
  0
LINE
  8
0
 10
-219.782
 20
55.5454
 11
-219.945
 21
56.0105
  0
LINE
  8
0
 10
-219.945
 20
56.0105
 11
-220
 21
56.5
  0
LINE
  8
0
 10
-220
 20
56.5
 11
-220
 21
65.5
  0
LINE
  8
0
 10
-220
 20
65.5
 11
-219.945
 21
65.9895
  0
LINE
  8
0
 10
-219.945
 20
65.9895
 11
-219.782
 21
66.4545
  0
LINE
  8
0
 10
-219.782
 20
66.4545
 11
-219.52
 21
66.8717
  0
LINE
  8
0
 10
-219.52
 20
66.8717
 11
-219.172
 21
67.22
  0
LINE
  8
0
 10
-219.172
 20
67.22
 11
-218.755
 21
67.4821
  0
LINE
  8
0
 10
-218.755
 20
67.4821
 11
-218.29
 21
67.6448
  0
LINE
  8
0
 10
-218.29
 20
67.6448
 11
-217.8
 21
67.7
  0
LINE
  8
0
 10
-217.8
 20
67.7
 11
-217.31
 21
67.6448
  0
LINE
  8
0
 10
-217.31
 20
67.6448
 11
-216.845
 21
67.4821
  0
LINE
  8
0
 10
-216.845
 20
67.4821
 11
-216.428
 21
67.22
  0
LINE
  8
0
 10
-216.428
 20
67.22
 11
-216.08
 21
66.8717
  0
LINE
  8
0
 10
-216.08
 20
66.8717
 11
-215.818
 21
66.4545
  0
LINE
  8
0
 10
-215.818
 20
66.4545
 11
-215.655
 21
65.9895
  0
LINE
  8
0
 10
-215.655
 20
65.9895
 11
-215.6
 21
65.5
  0
LINE
  8
0
 10
-215.6
 20
65.5
 11
-215.6
 21
56.5
  0
LINE
  8
0
 10
-215.6
 20
56.5
 11
-215.655
 21
56.0105
  0
LINE
  8
0
 10
-215.655
 20
56.0105
 11
-215.818
 21
55.5454
  0
LINE
  8
0
 10
-215.818
 20
55.5454
 11
-216.08
 21
55.1283
  0
LINE
  8
0
 10
-216.08
 20
55.1283
 11
-216.428
 21
54.78
  0
LINE
  8
0
 10
-216.428
 20
54.78
 11
-216.845
 21
54.5179
  0
LINE
  8
0
 10
-216.845
 20
54.5179
 11
-217.31
 21
54.3551
  0
LINE
  8
0
 10
-217.31
 20
54.3551
 11
-217.8
 21
54.3
  0
LINE
  8
0
 10
-217.8
 20
54.3
 11
-218.29
 21
54.3551
  0
LINE
  8
0
 10
172.81
 20
54.3551
 11
172.345
 21
54.5179
  0
LINE
  8
0
 10
172.345
 20
54.5179
 11
171.928
 21
54.78
  0
LINE
  8
0
 10
171.928
 20
54.78
 11
171.58
 21
55.1283
  0
LINE
  8
0
 10
171.58
 20
55.1283
 11
171.318
 21
55.5454
  0
LINE
  8
0
 10
171.318
 20
55.5454
 11
171.155
 21
56.0105
  0
LINE
  8
0
 10
171.155
 20
56.0105
 11
171.1
 21
56.5
  0
LINE
  8
0
 10
171.1
 20
56.5
 11
171.1
 21
65.5
  0
LINE
  8
0
 10
171.1
 20
65.5
 11
171.155
 21
65.9895
  0
LINE
  8
0
 10
171.155
 20
65.9895
 11
171.318
 21
66.4545
  0
LINE
  8
0
 10
171.318
 20
66.4545
 11
171.58
 21
66.8717
  0
LINE
  8
0
 10
171.58
 20
66.8717
 11
171.928
 21
67.22
  0
LINE
  8
0
 10
171.928
 20
67.22
 11
172.345
 21
67.4821
  0
LINE
  8
0
 10
172.345
 20
67.4821
 11
172.81
 21
67.6448
  0
LINE
  8
0
 10
172.81
 20
67.6448
 11
173.3
 21
67.7
  0
LINE
  8
0
 10
173.3
 20
67.7
 11
173.79
 21
67.6448
  0
LINE
  8
0
 10
173.79
 20
67.6448
 11
174.255
 21
67.4821
  0
LINE
  8
0
 10
174.255
 20
67.4821
 11
174.672
 21
67.22
  0
LINE
  8
0
 10
174.672
 20
67.22
 11
175.02
 21
66.8717
  0
LINE
  8
0
 10
175.02
 20
66.8717
 11
175.282
 21
66.4545
  0
LINE
  8
0
 10
175.282
 20
66.4545
 11
175.445
 21
65.9895
  0
LINE
  8
0
 10
175.445
 20
65.9895
 11
175.5
 21
65.5
  0
LINE
  8
0
 10
175.5
 20
65.5
 11
175.5
 21
56.5
  0
LINE
  8
0
 10
175.5
 20
56.5
 11
175.445
 21
56.0105
  0
LINE
  8
0
 10
175.445
 20
56.0105
 11
175.282
 21
55.5454
  0
LINE
  8
0
 10
175.282
 20
55.5454
 11
175.02
 21
55.1283
  0
LINE
  8
0
 10
175.02
 20
55.1283
 11
174.672
 21
54.78
  0
LINE
  8
0
 10
174.672
 20
54.78
 11
174.255
 21
54.5179
  0
LINE
  8
0
 10
174.255
 20
54.5179
 11
173.79
 21
54.3551
  0
LINE
  8
0
 10
173.79
 20
54.3551
 11
173.3
 21
54.3
  0
LINE
  8
0
 10
173.3
 20
54.3
 11
172.81
 21
54.3551
  0
LINE
  8
0
 10
-188.19
 20
54.3551
 11
-188.655
 21
54.5179
  0
LINE
  8
0
 10
-188.655
 20
54.5179
 11
-189.072
 21
54.78
  0
LINE
  8
0
 10
-189.072
 20
54.78
 11
-189.42
 21
55.1283
  0
LINE
  8
0
 10
-189.42
 20
55.1283
 11
-189.682
 21
55.5454
  0
LINE
  8
0
 10
-189.682
 20
55.5454
 11
-189.845
 21
56.0105
  0
LINE
  8
0
 10
-189.845
 20
56.0105
 11
-189.9
 21
56.5
  0
LINE
  8
0
 10
-189.9
 20
56.5
 11
-189.9
 21
65.5
  0
LINE
  8
0
 10
-189.9
 20
65.5
 11
-189.845
 21
65.9895
  0
LINE
  8
0
 10
-189.845
 20
65.9895
 11
-189.682
 21
66.4545
  0
LINE
  8
0
 10
-189.682
 20
66.4545
 11
-189.42
 21
66.8717
  0
LINE
  8
0
 10
-189.42
 20
66.8717
 11
-189.072
 21
67.22
  0
LINE
  8
0
 10
-189.072
 20
67.22
 11
-188.655
 21
67.4821
  0
LINE
  8
0
 10
-188.655
 20
67.4821
 11
-188.19
 21
67.6448
  0
LINE
  8
0
 10
-188.19
 20
67.6448
 11
-187.7
 21
67.7
  0
LINE
  8
0
 10
-187.7
 20
67.7
 11
-187.21
 21
67.6448
  0
LINE
  8
0
 10
-187.21
 20
67.6448
 11
-186.745
 21
67.4821
  0
LINE
  8
0
 10
-186.745
 20
67.4821
 11
-186.328
 21
67.22
  0
LINE
  8
0
 10
-186.328
 20
67.22
 11
-185.98
 21
66.8717
  0
LINE
  8
0
 10
-185.98
 20
66.8717
 11
-185.718
 21
66.4545
  0
LINE
  8
0
 10
-185.718
 20
66.4545
 11
-185.555
 21
65.9895
  0
LINE
  8
0
 10
-185.555
 20
65.9895
 11
-185.5
 21
65.5
  0
LINE
  8
0
 10
-185.5
 20
65.5
 11
-185.5
 21
56.5
  0
LINE
  8
0
 10
-185.5
 20
56.5
 11
-185.555
 21
56.0105
  0
LINE
  8
0
 10
-185.555
 20
56.0105
 11
-185.718
 21
55.5454
  0
LINE
  8
0
 10
-185.718
 20
55.5454
 11
-185.98
 21
55.1283
  0
LINE
  8
0
 10
-185.98
 20
55.1283
 11
-186.328
 21
54.78
  0
LINE
  8
0
 10
-186.328
 20
54.78
 11
-186.745
 21
54.5179
  0
LINE
  8
0
 10
-186.745
 20
54.5179
 11
-187.21
 21
54.3551
  0
LINE
  8
0
 10
-187.21
 20
54.3551
 11
-187.7
 21
54.3
  0
LINE
  8
0
 10
-187.7
 20
54.3
 11
-188.19
 21
54.3551
  0
LINE
  8
0
 10
127.01
 20
31.5652
 11
126.545
 21
31.7279
  0
LINE
  8
0
 10
126.545
 20
31.7279
 11
126.128
 21
31.99
  0
LINE
  8
0
 10
126.128
 20
31.99
 11
125.78
 21
32.3383
  0
LINE
  8
0
 10
125.78
 20
32.3383
 11
125.518
 21
32.7554
  0
LINE
  8
0
 10
125.518
 20
32.7554
 11
125.355
 21
33.2204
  0
LINE
  8
0
 10
125.355
 20
33.2204
 11
125.3
 21
33.71
  0
LINE
  8
0
 10
125.3
 20
33.71
 11
125.355
 21
34.1995
  0
LINE
  8
0
 10
125.355
 20
34.1995
 11
125.518
 21
34.6645
  0
LINE
  8
0
 10
125.518
 20
34.6645
 11
125.78
 21
35.0817
  0
LINE
  8
0
 10
125.78
 20
35.0817
 11
126.128
 21
35.43
  0
LINE
  8
0
 10
126.128
 20
35.43
 11
126.545
 21
35.6921
  0
LINE
  8
0
 10
126.545
 20
35.6921
 11
127.01
 21
35.8548
  0
LINE
  8
0
 10
127.01
 20
35.8548
 11
127.5
 21
35.91
  0
LINE
  8
0
 10
127.5
 20
35.91
 11
127.99
 21
35.8548
  0
LINE
  8
0
 10
127.99
 20
35.8548
 11
128.455
 21
35.6921
  0
LINE
  8
0
 10
128.455
 20
35.6921
 11
128.872
 21
35.43
  0
LINE
  8
0
 10
128.872
 20
35.43
 11
129.22
 21
35.0817
  0
LINE
  8
0
 10
129.22
 20
35.0817
 11
129.482
 21
34.6645
  0
LINE
  8
0
 10
129.482
 20
34.6645
 11
129.645
 21
34.1995
  0
LINE
  8
0
 10
129.645
 20
34.1995
 11
129.7
 21
33.71
  0
LINE
  8
0
 10
129.7
 20
33.71
 11
129.645
 21
33.2204
  0
LINE
  8
0
 10
129.645
 20
33.2204
 11
129.482
 21
32.7554
  0
LINE
  8
0
 10
129.482
 20
32.7554
 11
129.22
 21
32.3383
  0
LINE
  8
0
 10
129.22
 20
32.3383
 11
128.872
 21
31.99
  0
LINE
  8
0
 10
128.872
 20
31.99
 11
128.455
 21
31.7279
  0
LINE
  8
0
 10
128.455
 20
31.7279
 11
127.99
 21
31.5652
  0
LINE
  8
0
 10
127.99
 20
31.5652
 11
127.5
 21
31.51
  0
LINE
  8
0
 10
127.5
 20
31.51
 11
127.01
 21
31.5652
  0
LINE
  8
0
 10
-172.49
 20
31.5652
 11
-172.955
 21
31.7279
  0
LINE
  8
0
 10
-172.955
 20
31.7279
 11
-173.372
 21
31.99
  0
LINE
  8
0
 10
-173.372
 20
31.99
 11
-173.72
 21
32.3383
  0
LINE
  8
0
 10
-173.72
 20
32.3383
 11
-173.982
 21
32.7554
  0
LINE
  8
0
 10
-173.982
 20
32.7554
 11
-174.145
 21
33.2204
  0
LINE
  8
0
 10
-174.145
 20
33.2204
 11
-174.2
 21
33.71
  0
LINE
  8
0
 10
-174.2
 20
33.71
 11
-174.145
 21
34.1995
  0
LINE
  8
0
 10
-174.145
 20
34.1995
 11
-173.982
 21
34.6645
  0
LINE
  8
0
 10
-173.982
 20
34.6645
 11
-173.72
 21
35.0817
  0
LINE
  8
0
 10
-173.72
 20
35.0817
 11
-173.372
 21
35.43
  0
LINE
  8
0
 10
-173.372
 20
35.43
 11
-172.955
 21
35.6921
  0
LINE
  8
0
 10
-172.955
 20
35.6921
 11
-172.49
 21
35.8548
  0
LINE
  8
0
 10
-172.49
 20
35.8548
 11
-172
 21
35.91
  0
LINE
  8
0
 10
-172
 20
35.91
 11
-171.51
 21
35.8548
  0
LINE
  8
0
 10
-171.51
 20
35.8548
 11
-171.045
 21
35.6921
  0
LINE
  8
0
 10
-171.045
 20
35.6921
 11
-170.628
 21
35.43
  0
LINE
  8
0
 10
-170.628
 20
35.43
 11
-170.28
 21
35.0817
  0
LINE
  8
0
 10
-170.28
 20
35.0817
 11
-170.018
 21
34.6645
  0
LINE
  8
0
 10
-170.018
 20
34.6645
 11
-169.855
 21
34.1995
  0
LINE
  8
0
 10
-169.855
 20
34.1995
 11
-169.8
 21
33.71
  0
LINE
  8
0
 10
-169.8
 20
33.71
 11
-169.855
 21
33.2204
  0
LINE
  8
0
 10
-169.855
 20
33.2204
 11
-170.018
 21
32.7554
  0
LINE
  8
0
 10
-170.018
 20
32.7554
 11
-170.28
 21
32.3383
  0
LINE
  8
0
 10
-170.28
 20
32.3383
 11
-170.628
 21
31.99
  0
LINE
  8
0
 10
-170.628
 20
31.99
 11
-171.045
 21
31.7279
  0
LINE
  8
0
 10
-171.045
 20
31.7279
 11
-171.51
 21
31.5652
  0
LINE
  8
0
 10
-171.51
 20
31.5652
 11
-172
 21
31.51
  0
LINE
  8
0
 10
-172
 20
31.51
 11
-172.49
 21
31.5652
  0
LINE
  8
0
 10
158.882
 20
15.448
 11
158.413
 21
15.5903
  0
LINE
  8
0
 10
158.413
 20
15.5903
 11
157.981
 21
15.8213
  0
LINE
  8
0
 10
157.981
 20
15.8213
 11
157.602
 21
16.1322
  0
LINE
  8
0
 10
157.602
 20
16.1322
 11
157.291
 21
16.5111
  0
LINE
  8
0
 10
157.291
 20
16.5111
 11
157.06
 21
16.9433
  0
LINE
  8
0
 10
157.06
 20
16.9433
 11
156.918
 21
17.4123
  0
LINE
  8
0
 10
156.918
 20
17.4123
 11
156.87
 21
17.9
  0
LINE
  8
0
 10
156.87
 20
17.9
 11
156.918
 21
18.3877
  0
LINE
  8
0
 10
156.918
 20
18.3877
 11
157.06
 21
18.8567
  0
LINE
  8
0
 10
157.06
 20
18.8567
 11
157.291
 21
19.2889
  0
LINE
  8
0
 10
157.291
 20
19.2889
 11
157.602
 21
19.6678
  0
LINE
  8
0
 10
157.602
 20
19.6678
 11
157.981
 21
19.9787
  0
LINE
  8
0
 10
157.981
 20
19.9787
 11
158.413
 21
20.2097
  0
LINE
  8
0
 10
158.413
 20
20.2097
 11
158.882
 21
20.352
  0
LINE
  8
0
 10
158.882
 20
20.352
 11
159.37
 21
20.4
  0
LINE
  8
0
 10
159.37
 20
20.4
 11
159.858
 21
20.352
  0
LINE
  8
0
 10
159.858
 20
20.352
 11
160.327
 21
20.2097
  0
LINE
  8
0
 10
160.327
 20
20.2097
 11
160.759
 21
19.9787
  0
LINE
  8
0
 10
160.759
 20
19.9787
 11
161.138
 21
19.6678
  0
LINE
  8
0
 10
161.138
 20
19.6678
 11
161.449
 21
19.2889
  0
LINE
  8
0
 10
161.449
 20
19.2889
 11
161.68
 21
18.8567
  0
LINE
  8
0
 10
161.68
 20
18.8567
 11
161.822
 21
18.3877
  0
LINE
  8
0
 10
161.822
 20
18.3877
 11
161.87
 21
17.9
  0
LINE
  8
0
 10
161.87
 20
17.9
 11
161.822
 21
17.4123
  0
LINE
  8
0
 10
161.822
 20
17.4123
 11
161.68
 21
16.9433
  0
LINE
  8
0
 10
161.68
 20
16.9433
 11
161.449
 21
16.5111
  0
LINE
  8
0
 10
161.449
 20
16.5111
 11
161.138
 21
16.1322
  0
LINE
  8
0
 10
161.138
 20
16.1322
 11
160.759
 21
15.8213
  0
LINE
  8
0
 10
160.759
 20
15.8213
 11
160.327
 21
15.5903
  0
LINE
  8
0
 10
160.327
 20
15.5903
 11
159.858
 21
15.448
  0
LINE
  8
0
 10
159.858
 20
15.448
 11
159.37
 21
15.4
  0
LINE
  8
0
 10
159.37
 20
15.4
 11
158.882
 21
15.448
  0
LINE
  8
0
 10
-161.66
 20
5.05515
 11
-162.125
 21
5.21786
  0
LINE
  8
0
 10
-162.125
 20
5.21786
 11
-162.542
 21
5.47997
  0
LINE
  8
0
 10
-162.542
 20
5.47997
 11
-162.89
 21
5.82831
  0
LINE
  8
0
 10
-162.89
 20
5.82831
 11
-163.152
 21
6.24545
  0
LINE
  8
0
 10
-163.152
 20
6.24545
 11
-163.315
 21
6.71045
  0
LINE
  8
0
 10
-163.315
 20
6.71045
 11
-163.37
 21
7.2
  0
LINE
  8
0
 10
-163.37
 20
7.2
 11
-163.315
 21
7.68954
  0
LINE
  8
0
 10
-163.315
 20
7.68954
 11
-163.152
 21
8.15454
  0
LINE
  8
0
 10
-163.152
 20
8.15454
 11
-162.89
 21
8.57167
  0
LINE
  8
0
 10
-162.89
 20
8.57167
 11
-162.542
 21
8.92003
  0
LINE
  8
0
 10
-162.542
 20
8.92003
 11
-162.125
 21
9.18213
  0
LINE
  8
0
 10
-162.125
 20
9.18213
 11
-161.66
 21
9.34483
  0
LINE
  8
0
 10
-161.66
 20
9.34483
 11
-161.17
 21
9.39999
  0
LINE
  8
0
 10
-161.17
 20
9.39999
 11
-160.68
 21
9.34483
  0
LINE
  8
0
 10
-160.68
 20
9.34483
 11
-160.215
 21
9.18213
  0
LINE
  8
0
 10
-160.215
 20
9.18213
 11
-159.798
 21
8.92003
  0
LINE
  8
0
 10
-159.798
 20
8.92003
 11
-159.45
 21
8.57167
  0
LINE
  8
0
 10
-159.45
 20
8.57167
 11
-159.188
 21
8.15454
  0
LINE
  8
0
 10
-159.188
 20
8.15454
 11
-159.025
 21
7.68954
  0
LINE
  8
0
 10
-159.025
 20
7.68954
 11
-158.97
 21
7.2
  0
LINE
  8
0
 10
-158.97
 20
7.2
 11
-159.025
 21
6.71045
  0
LINE
  8
0
 10
-159.025
 20
6.71045
 11
-159.188
 21
6.24545
  0
LINE
  8
0
 10
-159.188
 20
6.24545
 11
-159.45
 21
5.82831
  0
LINE
  8
0
 10
-159.45
 20
5.82831
 11
-159.798
 21
5.47997
  0
LINE
  8
0
 10
-159.798
 20
5.47997
 11
-160.215
 21
5.21786
  0
LINE
  8
0
 10
-160.215
 20
5.21786
 11
-160.68
 21
5.05515
  0
LINE
  8
0
 10
-160.68
 20
5.05515
 11
-161.17
 21
4.99998
  0
LINE
  8
0
 10
-161.17
 20
4.99998
 11
-161.66
 21
5.05515
  0
LINE
  8
0
 10
-226.04
 20
5.05515
 11
-226.505
 21
5.21786
  0
LINE
  8
0
 10
-226.505
 20
5.21786
 11
-226.922
 21
5.47997
  0
LINE
  8
0
 10
-226.922
 20
5.47997
 11
-227.27
 21
5.82831
  0
LINE
  8
0
 10
-227.27
 20
5.82831
 11
-227.532
 21
6.24545
  0
LINE
  8
0
 10
-227.532
 20
6.24545
 11
-227.695
 21
6.71045
  0
LINE
  8
0
 10
-227.695
 20
6.71045
 11
-227.75
 21
7.2
  0
LINE
  8
0
 10
-227.75
 20
7.2
 11
-227.695
 21
7.68954
  0
LINE
  8
0
 10
-227.695
 20
7.68954
 11
-227.532
 21
8.15454
  0
LINE
  8
0
 10
-227.532
 20
8.15454
 11
-227.27
 21
8.57167
  0
LINE
  8
0
 10
-227.27
 20
8.57167
 11
-226.922
 21
8.92003
  0
LINE
  8
0
 10
-226.922
 20
8.92003
 11
-226.505
 21
9.18213
  0
LINE
  8
0
 10
-226.505
 20
9.18213
 11
-226.04
 21
9.34483
  0
LINE
  8
0
 10
-226.04
 20
9.34483
 11
-225.55
 21
9.39999
  0
LINE
  8
0
 10
-225.55
 20
9.39999
 11
-225.06
 21
9.34483
  0
LINE
  8
0
 10
-225.06
 20
9.34483
 11
-224.595
 21
9.18213
  0
LINE
  8
0
 10
-224.595
 20
9.18213
 11
-224.178
 21
8.92003
  0
LINE
  8
0
 10
-224.178
 20
8.92003
 11
-223.83
 21
8.57167
  0
LINE
  8
0
 10
-223.83
 20
8.57167
 11
-223.568
 21
8.15454
  0
LINE
  8
0
 10
-223.568
 20
8.15454
 11
-223.405
 21
7.68954
  0
LINE
  8
0
 10
-223.405
 20
7.68954
 11
-223.35
 21
7.2
  0
LINE
  8
0
 10
-223.35
 20
7.2
 11
-223.405
 21
6.71045
  0
LINE
  8
0
 10
-223.405
 20
6.71045
 11
-223.568
 21
6.24545
  0
LINE
  8
0
 10
-223.568
 20
6.24545
 11
-223.83
 21
5.82831
  0
LINE
  8
0
 10
-223.83
 20
5.82831
 11
-224.178
 21
5.47997
  0
LINE
  8
0
 10
-224.178
 20
5.47997
 11
-224.595
 21
5.21786
  0
LINE
  8
0
 10
-224.595
 20
5.21786
 11
-225.06
 21
5.05515
  0
LINE
  8
0
 10
-225.06
 20
5.05515
 11
-225.55
 21
4.99998
  0
LINE
  8
0
 10
-225.55
 20
4.99998
 11
-226.04
 21
5.05515
  0
LINE
  8
0
 10
225.06
 20
5.05515
 11
224.595
 21
5.21786
  0
LINE
  8
0
 10
224.595
 20
5.21786
 11
224.178
 21
5.47997
  0
LINE
  8
0
 10
224.178
 20
5.47997
 11
223.83
 21
5.82831
  0
LINE
  8
0
 10
223.83
 20
5.82831
 11
223.568
 21
6.24545
  0
LINE
  8
0
 10
223.568
 20
6.24545
 11
223.405
 21
6.71045
  0
LINE
  8
0
 10
223.405
 20
6.71045
 11
223.35
 21
7.2
  0
LINE
  8
0
 10
223.35
 20
7.2
 11
223.405
 21
7.68954
  0
LINE
  8
0
 10
223.405
 20
7.68954
 11
223.568
 21
8.15454
  0
LINE
  8
0
 10
223.568
 20
8.15454
 11
223.83
 21
8.57167
  0
LINE
  8
0
 10
223.83
 20
8.57167
 11
224.178
 21
8.92003
  0
LINE
  8
0
 10
224.178
 20
8.92003
 11
224.595
 21
9.18213
  0
LINE
  8
0
 10
224.595
 20
9.18213
 11
225.06
 21
9.34483
  0
LINE
  8
0
 10
225.06
 20
9.34483
 11
225.55
 21
9.39999
  0
LINE
  8
0
 10
225.55
 20
9.39999
 11
226.04
 21
9.34483
  0
LINE
  8
0
 10
226.04
 20
9.34483
 11
226.505
 21
9.18213
  0
LINE
  8
0
 10
226.505
 20
9.18213
 11
226.922
 21
8.92003
  0
LINE
  8
0
 10
226.922
 20
8.92003
 11
227.27
 21
8.57167
  0
LINE
  8
0
 10
227.27
 20
8.57167
 11
227.532
 21
8.15454
  0
LINE
  8
0
 10
227.532
 20
8.15454
 11
227.695
 21
7.68954
  0
LINE
  8
0
 10
227.695
 20
7.68954
 11
227.75
 21
7.2
  0
LINE
  8
0
 10
227.75
 20
7.2
 11
227.695
 21
6.71045
  0
LINE
  8
0
 10
227.695
 20
6.71045
 11
227.532
 21
6.24545
  0
LINE
  8
0
 10
227.532
 20
6.24545
 11
227.27
 21
5.82831
  0
LINE
  8
0
 10
227.27
 20
5.82831
 11
226.922
 21
5.47997
  0
LINE
  8
0
 10
226.922
 20
5.47997
 11
226.505
 21
5.21786
  0
LINE
  8
0
 10
226.505
 20
5.21786
 11
226.04
 21
5.05515
  0
LINE
  8
0
 10
226.04
 20
5.05515
 11
225.55
 21
4.99998
  0
LINE
  8
0
 10
225.55
 20
4.99998
 11
225.06
 21
5.05515
  0
LINE
  8
0
 10
203.84
 20
5.05515
 11
203.375
 21
5.21786
  0
LINE
  8
0
 10
203.375
 20
5.21786
 11
202.958
 21
5.47997
  0
LINE
  8
0
 10
202.958
 20
5.47997
 11
202.61
 21
5.82831
  0
LINE
  8
0
 10
202.61
 20
5.82831
 11
202.348
 21
6.24545
  0
LINE
  8
0
 10
202.348
 20
6.24545
 11
202.185
 21
6.71045
  0
LINE
  8
0
 10
202.185
 20
6.71045
 11
202.13
 21
7.2
  0
LINE
  8
0
 10
202.13
 20
7.2
 11
202.185
 21
7.68954
  0
LINE
  8
0
 10
202.185
 20
7.68954
 11
202.348
 21
8.15454
  0
LINE
  8
0
 10
202.348
 20
8.15454
 11
202.61
 21
8.57167
  0
LINE
  8
0
 10
202.61
 20
8.57167
 11
202.958
 21
8.92003
  0
LINE
  8
0
 10
202.958
 20
8.92003
 11
203.375
 21
9.18213
  0
LINE
  8
0
 10
203.375
 20
9.18213
 11
203.84
 21
9.34483
  0
LINE
  8
0
 10
203.84
 20
9.34483
 11
204.33
 21
9.39999
  0
LINE
  8
0
 10
204.33
 20
9.39999
 11
204.82
 21
9.34483
  0
LINE
  8
0
 10
204.82
 20
9.34483
 11
205.285
 21
9.18213
  0
LINE
  8
0
 10
205.285
 20
9.18213
 11
205.702
 21
8.92003
  0
LINE
  8
0
 10
205.702
 20
8.92003
 11
206.05
 21
8.57167
  0
LINE
  8
0
 10
206.05
 20
8.57167
 11
206.312
 21
8.15454
  0
LINE
  8
0
 10
206.312
 20
8.15454
 11
206.475
 21
7.68954
  0
LINE
  8
0
 10
206.475
 20
7.68954
 11
206.53
 21
7.2
  0
LINE
  8
0
 10
206.53
 20
7.2
 11
206.475
 21
6.71045
  0
LINE
  8
0
 10
206.475
 20
6.71045
 11
206.312
 21
6.24545
  0
LINE
  8
0
 10
206.312
 20
6.24545
 11
206.05
 21
5.82831
  0
LINE
  8
0
 10
206.05
 20
5.82831
 11
205.702
 21
5.47997
  0
LINE
  8
0
 10
205.702
 20
5.47997
 11
205.285
 21
5.21786
  0
LINE
  8
0
 10
205.285
 20
5.21786
 11
204.82
 21
5.05515
  0
LINE
  8
0
 10
204.82
 20
5.05515
 11
204.33
 21
4.99998
  0
LINE
  8
0
 10
204.33
 20
4.99998
 11
203.84
 21
5.05515
  0
LINE
  8
0
 10
-204.82
 20
5.05515
 11
-205.285
 21
5.21786
  0
LINE
  8
0
 10
-205.285
 20
5.21786
 11
-205.702
 21
5.47997
  0
LINE
  8
0
 10
-205.702
 20
5.47997
 11
-206.05
 21
5.82831
  0
LINE
  8
0
 10
-206.05
 20
5.82831
 11
-206.312
 21
6.24545
  0
LINE
  8
0
 10
-206.312
 20
6.24545
 11
-206.475
 21
6.71045
  0
LINE
  8
0
 10
-206.475
 20
6.71045
 11
-206.53
 21
7.2
  0
LINE
  8
0
 10
-206.53
 20
7.2
 11
-206.475
 21
7.68954
  0
LINE
  8
0
 10
-206.475
 20
7.68954
 11
-206.312
 21
8.15454
  0
LINE
  8
0
 10
-206.312
 20
8.15454
 11
-206.05
 21
8.57167
  0
LINE
  8
0
 10
-206.05
 20
8.57167
 11
-205.702
 21
8.92003
  0
LINE
  8
0
 10
-205.702
 20
8.92003
 11
-205.285
 21
9.18213
  0
LINE
  8
0
 10
-205.285
 20
9.18213
 11
-204.82
 21
9.34483
  0
LINE
  8
0
 10
-204.82
 20
9.34483
 11
-204.33
 21
9.39999
  0
LINE
  8
0
 10
-204.33
 20
9.39999
 11
-203.84
 21
9.34483
  0
LINE
  8
0
 10
-203.84
 20
9.34483
 11
-203.375
 21
9.18213
  0
LINE
  8
0
 10
-203.375
 20
9.18213
 11
-202.958
 21
8.92003
  0
LINE
  8
0
 10
-202.958
 20
8.92003
 11
-202.61
 21
8.57167
  0
LINE
  8
0
 10
-202.61
 20
8.57167
 11
-202.348
 21
8.15454
  0
LINE
  8
0
 10
-202.348
 20
8.15454
 11
-202.185
 21
7.68954
  0
LINE
  8
0
 10
-202.185
 20
7.68954
 11
-202.13
 21
7.2
  0
LINE
  8
0
 10
-202.13
 20
7.2
 11
-202.185
 21
6.71045
  0
LINE
  8
0
 10
-202.185
 20
6.71045
 11
-202.348
 21
6.24545
  0
LINE
  8
0
 10
-202.348
 20
6.24545
 11
-202.61
 21
5.82831
  0
LINE
  8
0
 10
-202.61
 20
5.82831
 11
-202.958
 21
5.47997
  0
LINE
  8
0
 10
-202.958
 20
5.47997
 11
-203.375
 21
5.21786
  0
LINE
  8
0
 10
-203.375
 20
5.21786
 11
-203.84
 21
5.05515
  0
LINE
  8
0
 10
-203.84
 20
5.05515
 11
-204.33
 21
4.99998
  0
LINE
  8
0
 10
-204.33
 20
4.99998
 11
-204.82
 21
5.05515
  0
LINE
  8
0
 10
167.13
 20
5.05515
 11
166.665
 21
5.21786
  0
LINE
  8
0
 10
166.665
 20
5.21786
 11
166.248
 21
5.47997
  0
LINE
  8
0
 10
166.248
 20
5.47997
 11
165.9
 21
5.82831
  0
LINE
  8
0
 10
165.9
 20
5.82831
 11
165.638
 21
6.24545
  0
LINE
  8
0
 10
165.638
 20
6.24545
 11
165.475
 21
6.71045
  0
LINE
  8
0
 10
165.475
 20
6.71045
 11
165.42
 21
7.2
  0
LINE
  8
0
 10
165.42
 20
7.2
 11
165.475
 21
7.68954
  0
LINE
  8
0
 10
165.475
 20
7.68954
 11
165.638
 21
8.15454
  0
LINE
  8
0
 10
165.638
 20
8.15454
 11
165.9
 21
8.57167
  0
LINE
  8
0
 10
165.9
 20
8.57167
 11
166.248
 21
8.92003
  0
LINE
  8
0
 10
166.248
 20
8.92003
 11
166.665
 21
9.18213
  0
LINE
  8
0
 10
166.665
 20
9.18213
 11
167.13
 21
9.34483
  0
LINE
  8
0
 10
167.13
 20
9.34483
 11
167.62
 21
9.39999
  0
LINE
  8
0
 10
167.62
 20
9.39999
 11
168.11
 21
9.34483
  0
LINE
  8
0
 10
168.11
 20
9.34483
 11
168.575
 21
9.18213
  0
LINE
  8
0
 10
168.575
 20
9.18213
 11
168.992
 21
8.92003
  0
LINE
  8
0
 10
168.992
 20
8.92003
 11
169.34
 21
8.57167
  0
LINE
  8
0
 10
169.34
 20
8.57167
 11
169.602
 21
8.15454
  0
LINE
  8
0
 10
169.602
 20
8.15454
 11
169.765
 21
7.68954
  0
LINE
  8
0
 10
169.765
 20
7.68954
 11
169.82
 21
7.2
  0
LINE
  8
0
 10
169.82
 20
7.2
 11
169.765
 21
6.71045
  0
LINE
  8
0
 10
169.765
 20
6.71045
 11
169.602
 21
6.24545
  0
LINE
  8
0
 10
169.602
 20
6.24545
 11
169.34
 21
5.82831
  0
LINE
  8
0
 10
169.34
 20
5.82831
 11
168.992
 21
5.47997
  0
LINE
  8
0
 10
168.992
 20
5.47997
 11
168.575
 21
5.21786
  0
LINE
  8
0
 10
168.575
 20
5.21786
 11
168.11
 21
5.05515
  0
LINE
  8
0
 10
168.11
 20
5.05515
 11
167.62
 21
4.99998
  0
LINE
  8
0
 10
167.62
 20
4.99998
 11
167.13
 21
5.05515
  0
LINE
  8
0
 10
145.91
 20
5.05515
 11
145.445
 21
5.21786
  0
LINE
  8
0
 10
145.445
 20
5.21786
 11
145.028
 21
5.47997
  0
LINE
  8
0
 10
145.028
 20
5.47997
 11
144.68
 21
5.82831
  0
LINE
  8
0
 10
144.68
 20
5.82831
 11
144.418
 21
6.24545
  0
LINE
  8
0
 10
144.418
 20
6.24545
 11
144.255
 21
6.71045
  0
LINE
  8
0
 10
144.255
 20
6.71045
 11
144.2
 21
7.2
  0
LINE
  8
0
 10
144.2
 20
7.2
 11
144.255
 21
7.68954
  0
LINE
  8
0
 10
144.255
 20
7.68954
 11
144.418
 21
8.15454
  0
LINE
  8
0
 10
144.418
 20
8.15454
 11
144.68
 21
8.57167
  0
LINE
  8
0
 10
144.68
 20
8.57167
 11
145.028
 21
8.92003
  0
LINE
  8
0
 10
145.028
 20
8.92003
 11
145.445
 21
9.18213
  0
LINE
  8
0
 10
145.445
 20
9.18213
 11
145.91
 21
9.34483
  0
LINE
  8
0
 10
145.91
 20
9.34483
 11
146.4
 21
9.39999
  0
LINE
  8
0
 10
146.4
 20
9.39999
 11
146.89
 21
9.34483
  0
LINE
  8
0
 10
146.89
 20
9.34483
 11
147.355
 21
9.18213
  0
LINE
  8
0
 10
147.355
 20
9.18213
 11
147.772
 21
8.92003
  0
LINE
  8
0
 10
147.772
 20
8.92003
 11
148.12
 21
8.57167
  0
LINE
  8
0
 10
148.12
 20
8.57167
 11
148.382
 21
8.15454
  0
LINE
  8
0
 10
148.382
 20
8.15454
 11
148.545
 21
7.68954
  0
LINE
  8
0
 10
148.545
 20
7.68954
 11
148.6
 21
7.2
  0
LINE
  8
0
 10
148.6
 20
7.2
 11
148.545
 21
6.71045
  0
LINE
  8
0
 10
148.545
 20
6.71045
 11
148.382
 21
6.24545
  0
LINE
  8
0
 10
148.382
 20
6.24545
 11
148.12
 21
5.82831
  0
LINE
  8
0
 10
148.12
 20
5.82831
 11
147.772
 21
5.47997
  0
LINE
  8
0
 10
147.772
 20
5.47997
 11
147.355
 21
5.21786
  0
LINE
  8
0
 10
147.355
 20
5.21786
 11
146.89
 21
5.05515
  0
LINE
  8
0
 10
146.89
 20
5.05515
 11
146.4
 21
4.99998
  0
LINE
  8
0
 10
146.4
 20
4.99998
 11
145.91
 21
5.05515
  0
LINE
  8
0
 10
-140.44
 20
5.05515
 11
-140.905
 21
5.21786
  0
LINE
  8
0
 10
-140.905
 20
5.21786
 11
-141.322
 21
5.47997
  0
LINE
  8
0
 10
-141.322
 20
5.47997
 11
-141.67
 21
5.82831
  0
LINE
  8
0
 10
-141.67
 20
5.82831
 11
-141.932
 21
6.24545
  0
LINE
  8
0
 10
-141.932
 20
6.24545
 11
-142.095
 21
6.71045
  0
LINE
  8
0
 10
-142.095
 20
6.71045
 11
-142.15
 21
7.2
  0
LINE
  8
0
 10
-142.15
 20
7.2
 11
-142.095
 21
7.68954
  0
LINE
  8
0
 10
-142.095
 20
7.68954
 11
-141.932
 21
8.15454
  0
LINE
  8
0
 10
-141.932
 20
8.15454
 11
-141.67
 21
8.57167
  0
LINE
  8
0
 10
-141.67
 20
8.57167
 11
-141.322
 21
8.92003
  0
LINE
  8
0
 10
-141.322
 20
8.92003
 11
-140.905
 21
9.18213
  0
LINE
  8
0
 10
-140.905
 20
9.18213
 11
-140.44
 21
9.34483
  0
LINE
  8
0
 10
-140.44
 20
9.34483
 11
-139.95
 21
9.39999
  0
LINE
  8
0
 10
-139.95
 20
9.39999
 11
-139.46
 21
9.34483
  0
LINE
  8
0
 10
-139.46
 20
9.34483
 11
-138.995
 21
9.18213
  0
LINE
  8
0
 10
-138.995
 20
9.18213
 11
-138.578
 21
8.92003
  0
LINE
  8
0
 10
-138.578
 20
8.92003
 11
-138.23
 21
8.57167
  0
LINE
  8
0
 10
-138.23
 20
8.57167
 11
-137.968
 21
8.15454
  0
LINE
  8
0
 10
-137.968
 20
8.15454
 11
-137.805
 21
7.68954
  0
LINE
  8
0
 10
-137.805
 20
7.68954
 11
-137.75
 21
7.2
  0
LINE
  8
0
 10
-137.75
 20
7.2
 11
-137.805
 21
6.71045
  0
LINE
  8
0
 10
-137.805
 20
6.71045
 11
-137.968
 21
6.24545
  0
LINE
  8
0
 10
-137.968
 20
6.24545
 11
-138.23
 21
5.82831
  0
LINE
  8
0
 10
-138.23
 20
5.82831
 11
-138.578
 21
5.47997
  0
LINE
  8
0
 10
-138.578
 20
5.47997
 11
-138.995
 21
5.21786
  0
LINE
  8
0
 10
-138.995
 20
5.21786
 11
-139.46
 21
5.05515
  0
LINE
  8
0
 10
-139.46
 20
5.05515
 11
-139.95
 21
4.99998
  0
LINE
  8
0
 10
-139.95
 20
4.99998
 11
-140.44
 21
5.05515
  0
LINE
  8
0
 10
98.4977
 20
0.0102386
 11
98.9865
 21
0.0917969
  0
LINE
  8
0
 10
98.9865
 20
0.0917969
 11
99.4551
 21
0.25267
  0
LINE
  8
0
 10
99.4551
 20
0.25267
 11
99.8908
 21
0.488495
  0
LINE
  8
0
 10
99.8908
 20
0.488495
 11
100.282
 21
0.792816
  0
LINE
  8
0
 10
100.282
 20
0.792816
 11
100.617
 21
1.15735
  0
LINE
  8
0
 10
100.617
 20
1.15735
 11
100.888
 21
1.57214
  0
LINE
  8
0
 10
100.888
 20
1.57214
 11
101.087
 21
2.02589
  0
LINE
  8
0
 10
101.087
 20
2.02589
 11
101.209
 21
2.50621
  0
LINE
  8
0
 10
101.209
 20
2.50621
 11
101.25
 21
3
  0
LINE
  8
0
 10
101.25
 20
3
 11
101.24
 21
213.248
  0
LINE
  8
0
 10
101.24
 20
213.248
 11
101.158
 21
213.736
  0
LINE
  8
0
 10
101.158
 20
213.736
 11
100.997
 21
214.205
  0
LINE
  8
0
 10
100.997
 20
214.205
 11
100.761
 21
214.641
  0
LINE
  8
0
 10
100.761
 20
214.641
 11
100.457
 21
215.032
  0
LINE
  8
0
 10
100.457
 20
215.032
 11
100.093
 21
215.367
  0
LINE
  8
0
 10
100.093
 20
215.367
 11
99.6778
 21
215.638
  0
LINE
  8
0
 10
99.6778
 20
215.638
 11
99.2241
 21
215.837
  0
LINE
  8
0
 10
99.2241
 20
215.837
 11
98.7438
 21
215.959
  0
LINE
  8
0
 10
98.7438
 20
215.959
 11
98.25
 21
216
  0
LINE
  8
0
 10
98.25
 20
216
 11
11.76
 21
215.996
  0
LINE
  8
0
 10
11.76
 20
215.996
 11
11.76
 21
211
  0
LINE
  8
0
 10
11.76
 20
211
 11
-25.26
 21
211
  0
LINE
  8
0
 10
-25.26
 20
211
 11
-25.26
 21
215.994
  0
LINE
  8
0
 10
-25.26
 20
215.994
 11
-111.998
 21
215.99
  0
LINE
  8
0
 10
-111.998
 20
215.99
 11
-112.486
 21
215.908
  0
LINE
  8
0
 10
-112.486
 20
215.908
 11
-112.955
 21
215.747
  0
LINE
  8
0
 10
-112.955
 20
215.747
 11
-113.391
 21
215.511
  0
LINE
  8
0
 10
-113.391
 20
215.511
 11
-113.782
 21
215.207
  0
LINE
  8
0
 10
-113.782
 20
215.207
 11
-114.117
 21
214.843
  0
LINE
  8
0
 10
-114.117
 20
214.843
 11
-114.388
 21
214.428
  0
LINE
  8
0
 10
-114.388
 20
214.428
 11
-114.587
 21
213.974
  0
LINE
  8
0
 10
-114.587
 20
213.974
 11
-114.709
 21
213.494
  0
LINE
  8
0
 10
-114.709
 20
213.494
 11
-114.75
 21
213
  0
LINE
  8
0
 10
-114.75
 20
213
 11
-114.74
 21
2.75226
  0
LINE
  8
0
 10
-114.74
 20
2.75226
 11
-114.658
 21
2.26353
  0
LINE
  8
0
 10
-114.658
 20
2.26353
 11
-114.497
 21
1.79491
  0
LINE
  8
0
 10
-114.497
 20
1.79491
 11
-114.261
 21
1.35915
  0
LINE
  8
0
 10
-114.261
 20
1.35915
 11
-113.957
 21
0.968155
  0
LINE
  8
0
 10
-113.957
 20
0.968155
 11
-113.593
 21
0.632568
  0
LINE
  8
0
 10
-113.593
 20
0.632568
 11
-113.178
 21
0.361572
  0
LINE
  8
0
 10
-113.178
 20
0.361572
 11
-112.724
 21
0.162537
  0
LINE
  8
0
 10
-112.724
 20
0.162537
 11
-112.244
 21
0.0409088
  0
LINE
  8
0
 10
-112.244
 20
0.0409088
 11
-111.75
 21
0
  0
LINE
  8
0
 10
-111.75
 20
0
 11
98.4977
 21
0.0102386
  0
LINE
  8
0
 10
-111.728
 20
211.345
 11
-112.134
 21
211.616
  0
LINE
  8
0
 10
-112.134
 20
211.616
 11
-112.405
 21
212.022
  0
LINE
  8
0
 10
-112.405
 20
212.022
 11
-112.5
 21
212.5
  0
LINE
  8
0
 10
-112.5
 20
212.5
 11
-112.405
 21
212.978
  0
LINE
  8
0
 10
-112.405
 20
212.978
 11
-112.134
 21
213.384
  0
LINE
  8
0
 10
-112.134
 20
213.384
 11
-111.728
 21
213.655
  0
LINE
  8
0
 10
-111.728
 20
213.655
 11
-111.25
 21
213.75
  0
LINE
  8
0
 10
-111.25
 20
213.75
 11
-110.772
 21
213.655
  0
LINE
  8
0
 10
-110.772
 20
213.655
 11
-110.366
 21
213.384
  0
LINE
  8
0
 10
-110.366
 20
213.384
 11
-110.095
 21
212.978
  0
LINE
  8
0
 10
-110.095
 20
212.978
 11
-110
 21
212.5
  0
LINE
  8
0
 10
-110
 20
212.5
 11
-110.095
 21
212.022
  0
LINE
  8
0
 10
-110.095
 20
212.022
 11
-110.366
 21
211.616
  0
LINE
  8
0
 10
-110.366
 20
211.616
 11
-110.772
 21
211.345
  0
LINE
  8
0
 10
-110.772
 20
211.345
 11
-111.25
 21
211.25
  0
LINE
  8
0
 10
-111.25
 20
211.25
 11
-111.728
 21
211.345
  0
LINE
  8
0
 10
97.2716
 20
211.345
 11
96.8661
 21
211.616
  0
LINE
  8
0
 10
96.8661
 20
211.616
 11
96.5951
 21
212.022
  0
LINE
  8
0
 10
96.5951
 20
212.022
 11
96.5
 21
212.5
  0
LINE
  8
0
 10
96.5
 20
212.5
 11
96.5951
 21
212.978
  0
LINE
  8
0
 10
96.5951
 20
212.978
 11
96.8661
 21
213.384
  0
LINE
  8
0
 10
96.8661
 20
213.384
 11
97.2716
 21
213.655
  0
LINE
  8
0
 10
97.2716
 20
213.655
 11
97.75
 21
213.75
  0
LINE
  8
0
 10
97.75
 20
213.75
 11
98.2283
 21
213.655
  0
LINE
  8
0
 10
98.2283
 20
213.655
 11
98.6339
 21
213.384
  0
LINE
  8
0
 10
98.6339
 20
213.384
 11
98.9048
 21
212.978
  0
LINE
  8
0
 10
98.9048
 20
212.978
 11
99
 21
212.5
  0
LINE
  8
0
 10
99
 20
212.5
 11
98.9048
 21
212.022
  0
LINE
  8
0
 10
98.9048
 20
212.022
 11
98.6339
 21
211.616
  0
LINE
  8
0
 10
98.6339
 20
211.616
 11
98.2283
 21
211.345
  0
LINE
  8
0
 10
98.2283
 20
211.345
 11
97.75
 21
211.25
  0
LINE
  8
0
 10
97.75
 20
211.25
 11
97.2716
 21
211.345
  0
LINE
  8
0
 10
-27.7771
 20
204.391
 11
-28.235
 21
204.571
  0
LINE
  8
0
 10
-28.235
 20
204.571
 11
-28.6195
 21
204.878
  0
LINE
  8
0
 10
-28.6195
 20
204.878
 11
-28.8966
 21
205.284
  0
LINE
  8
0
 10
-28.8966
 20
205.284
 11
-29.0416
 21
205.754
  0
LINE
  8
0
 10
-29.0416
 20
205.754
 11
-29.0416
 21
206.246
  0
LINE
  8
0
 10
-29.0416
 20
206.246
 11
-28.8966
 21
206.716
  0
LINE
  8
0
 10
-28.8966
 20
206.716
 11
-28.6195
 21
207.122
  0
LINE
  8
0
 10
-28.6195
 20
207.122
 11
-28.235
 21
207.429
  0
LINE
  8
0
 10
-28.235
 20
207.429
 11
-27.7771
 21
207.609
  0
LINE
  8
0
 10
-27.7771
 20
207.609
 11
-27.2867
 21
207.645
  0
LINE
  8
0
 10
-27.2867
 20
207.645
 11
-26.8072
 21
207.536
  0
LINE
  8
0
 10
-26.8072
 20
207.536
 11
-26.3812
 21
207.29
  0
LINE
  8
0
 10
-26.3812
 20
207.29
 11
-26.0467
 21
206.929
  0
LINE
  8
0
 10
-26.0467
 20
206.929
 11
-25.8333
 21
206.486
  0
LINE
  8
0
 10
-25.8333
 20
206.486
 11
-25.76
 21
206
  0
LINE
  8
0
 10
-25.76
 20
206
 11
-25.8333
 21
205.514
  0
LINE
  8
0
 10
-25.8333
 20
205.514
 11
-26.0467
 21
205.071
  0
LINE
  8
0
 10
-26.0467
 20
205.071
 11
-26.3812
 21
204.71
  0
LINE
  8
0
 10
-26.3812
 20
204.71
 11
-26.8072
 21
204.464
  0
LINE
  8
0
 10
-26.8072
 20
204.464
 11
-27.2867
 21
204.355
  0
LINE
  8
0
 10
-27.2867
 20
204.355
 11
-27.7771
 21
204.391
  0
LINE
  8
0
 10
13.5428
 20
204.391
 11
13.085
 21
204.571
  0
LINE
  8
0
 10
13.085
 20
204.571
 11
12.7005
 21
204.878
  0
LINE
  8
0
 10
12.7005
 20
204.878
 11
12.4234
 21
205.284
  0
LINE
  8
0
 10
12.4234
 20
205.284
 11
12.2784
 21
205.754
  0
LINE
  8
0
 10
12.2784
 20
205.754
 11
12.2784
 21
206.246
  0
LINE
  8
0
 10
12.2784
 20
206.246
 11
12.4234
 21
206.716
  0
LINE
  8
0
 10
12.4234
 20
206.716
 11
12.7005
 21
207.122
  0
LINE
  8
0
 10
12.7005
 20
207.122
 11
13.085
 21
207.429
  0
LINE
  8
0
 10
13.085
 20
207.429
 11
13.5428
 21
207.609
  0
LINE
  8
0
 10
13.5428
 20
207.609
 11
14.0333
 21
207.645
  0
LINE
  8
0
 10
14.0333
 20
207.645
 11
14.5128
 21
207.536
  0
LINE
  8
0
 10
14.5128
 20
207.536
 11
14.9388
 21
207.29
  0
LINE
  8
0
 10
14.9388
 20
207.29
 11
15.2733
 21
206.929
  0
LINE
  8
0
 10
15.2733
 20
206.929
 11
15.4867
 21
206.486
  0
LINE
  8
0
 10
15.4867
 20
206.486
 11
15.56
 21
206
  0
LINE
  8
0
 10
15.56
 20
206
 11
15.4867
 21
205.514
  0
LINE
  8
0
 10
15.4867
 20
205.514
 11
15.2733
 21
205.071
  0
LINE
  8
0
 10
15.2733
 20
205.071
 11
14.9388
 21
204.71
  0
LINE
  8
0
 10
14.9388
 20
204.71
 11
14.5128
 21
204.464
  0
LINE
  8
0
 10
14.5128
 20
204.464
 11
14.0333
 21
204.355
  0
LINE
  8
0
 10
14.0333
 20
204.355
 11
13.5428
 21
204.391
  0
LINE
  8
0
 10
-81.6528
 20
195.464
 11
-82.0788
 21
195.71
  0
LINE
  8
0
 10
-82.0788
 20
195.71
 11
-82.4133
 21
196.071
  0
LINE
  8
0
 10
-82.4133
 20
196.071
 11
-82.6267
 21
196.514
  0
LINE
  8
0
 10
-82.6267
 20
196.514
 11
-82.7
 21
197
  0
LINE
  8
0
 10
-82.7
 20
197
 11
-82.6267
 21
197.486
  0
LINE
  8
0
 10
-82.6267
 20
197.486
 11
-82.4133
 21
197.929
  0
LINE
  8
0
 10
-82.4133
 20
197.929
 11
-82.0788
 21
198.29
  0
LINE
  8
0
 10
-82.0788
 20
198.29
 11
-81.6528
 21
198.536
  0
LINE
  8
0
 10
-81.6528
 20
198.536
 11
-81.1733
 21
198.645
  0
LINE
  8
0
 10
-81.1733
 20
198.645
 11
-80.6828
 21
198.609
  0
LINE
  8
0
 10
-80.6828
 20
198.609
 11
-80.225
 21
198.429
  0
LINE
  8
0
 10
-80.225
 20
198.429
 11
-79.8405
 21
198.122
  0
LINE
  8
0
 10
-79.8405
 20
198.122
 11
-79.5634
 21
197.716
  0
LINE
  8
0
 10
-79.5634
 20
197.716
 11
-79.4184
 21
197.246
  0
LINE
  8
0
 10
-79.4184
 20
197.246
 11
-79.4184
 21
196.754
  0
LINE
  8
0
 10
-79.4184
 20
196.754
 11
-79.5634
 21
196.284
  0
LINE
  8
0
 10
-79.5634
 20
196.284
 11
-79.8405
 21
195.878
  0
LINE
  8
0
 10
-79.8405
 20
195.878
 11
-80.225
 21
195.571
  0
LINE
  8
0
 10
-80.225
 20
195.571
 11
-80.6828
 21
195.391
  0
LINE
  8
0
 10
-80.6828
 20
195.391
 11
-81.1733
 21
195.355
  0
LINE
  8
0
 10
-81.1733
 20
195.355
 11
-81.6528
 21
195.464
  0
LINE
  8
0
 10
-109.053
 20
175.464
 11
-109.479
 21
175.71
  0
LINE
  8
0
 10
-109.479
 20
175.71
 11
-109.813
 21
176.071
  0
LINE
  8
0
 10
-109.813
 20
176.071
 11
-110.027
 21
176.514
  0
LINE
  8
0
 10
-110.027
 20
176.514
 11
-110.1
 21
177
  0
LINE
  8
0
 10
-110.1
 20
177
 11
-110.027
 21
177.486
  0
LINE
  8
0
 10
-110.027
 20
177.486
 11
-109.813
 21
177.929
  0
LINE
  8
0
 10
-109.813
 20
177.929
 11
-109.479
 21
178.29
  0
LINE
  8
0
 10
-109.479
 20
178.29
 11
-109.053
 21
178.536
  0
LINE
  8
0
 10
-109.053
 20
178.536
 11
-108.573
 21
178.645
  0
LINE
  8
0
 10
-108.573
 20
178.645
 11
-108.083
 21
178.609
  0
LINE
  8
0
 10
-108.083
 20
178.609
 11
-107.625
 21
178.429
  0
LINE
  8
0
 10
-107.625
 20
178.429
 11
-107.24
 21
178.122
  0
LINE
  8
0
 10
-107.24
 20
178.122
 11
-106.963
 21
177.716
  0
LINE
  8
0
 10
-106.963
 20
177.716
 11
-106.818
 21
177.246
  0
LINE
  8
0
 10
-106.818
 20
177.246
 11
-106.818
 21
176.754
  0
LINE
  8
0
 10
-106.818
 20
176.754
 11
-106.963
 21
176.284
  0
LINE
  8
0
 10
-106.963
 20
176.284
 11
-107.24
 21
175.878
  0
LINE
  8
0
 10
-107.24
 20
175.878
 11
-107.625
 21
175.571
  0
LINE
  8
0
 10
-107.625
 20
175.571
 11
-108.083
 21
175.391
  0
LINE
  8
0
 10
-108.083
 20
175.391
 11
-108.573
 21
175.355
  0
LINE
  8
0
 10
-108.573
 20
175.355
 11
-109.053
 21
175.464
  0
LINE
  8
0
 10
-38.6272
 20
166.716
 11
-39.085
 21
166.896
  0
LINE
  8
0
 10
-39.085
 20
166.896
 11
-39.4695
 21
167.202
  0
LINE
  8
0
 10
-39.4695
 20
167.202
 11
-39.7466
 21
167.609
  0
LINE
  8
0
 10
-39.7466
 20
167.609
 11
-39.8916
 21
168.079
  0
LINE
  8
0
 10
-39.8916
 20
168.079
 11
-39.8916
 21
168.57
  0
LINE
  8
0
 10
-39.8916
 20
168.57
 11
-39.7466
 21
169.04
  0
LINE
  8
0
 10
-39.7466
 20
169.04
 11
-39.4695
 21
169.447
  0
LINE
  8
0
 10
-39.4695
 20
169.447
 11
-39.085
 21
169.754
  0
LINE
  8
0
 10
-39.085
 20
169.754
 11
-38.6272
 21
169.933
  0
LINE
  8
0
 10
-38.6272
 20
169.933
 11
-38.1367
 21
169.97
  0
LINE
  8
0
 10
-38.1367
 20
169.97
 11
-37.6572
 21
169.861
  0
LINE
  8
0
 10
-37.6572
 20
169.861
 11
-37.2312
 21
169.615
  0
LINE
  8
0
 10
-37.2312
 20
169.615
 11
-36.8967
 21
169.254
  0
LINE
  8
0
 10
-36.8967
 20
169.254
 11
-36.6833
 21
168.811
  0
LINE
  8
0
 10
-36.6833
 20
168.811
 11
-36.61
 21
168.325
  0
LINE
  8
0
 10
-36.61
 20
168.325
 11
-36.6833
 21
167.838
  0
LINE
  8
0
 10
-36.6833
 20
167.838
 11
-36.8967
 21
167.395
  0
LINE
  8
0
 10
-36.8967
 20
167.395
 11
-37.2312
 21
167.035
  0
LINE
  8
0
 10
-37.2312
 20
167.035
 11
-37.6572
 21
166.789
  0
LINE
  8
0
 10
-37.6572
 20
166.789
 11
-38.1367
 21
166.679
  0
LINE
  8
0
 10
-38.1367
 20
166.679
 11
-38.6272
 21
166.716
  0
LINE
  8
0
 10
-38.6272
 20
152.067
 11
-39.085
 21
152.246
  0
LINE
  8
0
 10
-39.085
 20
152.246
 11
-39.4695
 21
152.553
  0
LINE
  8
0
 10
-39.4695
 20
152.553
 11
-39.7466
 21
152.96
  0
LINE
  8
0
 10
-39.7466
 20
152.96
 11
-39.8916
 21
153.429
  0
LINE
  8
0
 10
-39.8916
 20
153.429
 11
-39.8916
 21
153.921
  0
LINE
  8
0
 10
-39.8916
 20
153.921
 11
-39.7466
 21
154.391
  0
LINE
  8
0
 10
-39.7466
 20
154.391
 11
-39.4695
 21
154.798
  0
LINE
  8
0
 10
-39.4695
 20
154.798
 11
-39.085
 21
155.104
  0
LINE
  8
0
 10
-39.085
 20
155.104
 11
-38.6272
 21
155.284
  0
LINE
  8
0
 10
-38.6272
 20
155.284
 11
-38.1367
 21
155.321
  0
LINE
  8
0
 10
-38.1367
 20
155.321
 11
-37.6572
 21
155.211
  0
LINE
  8
0
 10
-37.6572
 20
155.211
 11
-37.2312
 21
154.965
  0
LINE
  8
0
 10
-37.2312
 20
154.965
 11
-36.8967
 21
154.605
  0
LINE
  8
0
 10
-36.8967
 20
154.605
 11
-36.6833
 21
154.162
  0
LINE
  8
0
 10
-36.6833
 20
154.162
 11
-36.61
 21
153.675
  0
LINE
  8
0
 10
-36.61
 20
153.675
 11
-36.6833
 21
153.189
  0
LINE
  8
0
 10
-36.6833
 20
153.189
 11
-36.8967
 21
152.746
  0
LINE
  8
0
 10
-36.8967
 20
152.746
 11
-37.2312
 21
152.385
  0
LINE
  8
0
 10
-37.2312
 20
152.385
 11
-37.6572
 21
152.139
  0
LINE
  8
0
 10
-37.6572
 20
152.139
 11
-38.1367
 21
152.03
  0
LINE
  8
0
 10
-38.1367
 20
152.03
 11
-38.6272
 21
152.067
  0
LINE
  8
0
 10
94.3472
 20
116.464
 11
93.9212
 21
116.71
  0
LINE
  8
0
 10
93.9212
 20
116.71
 11
93.5867
 21
117.071
  0
LINE
  8
0
 10
93.5867
 20
117.071
 11
93.3733
 21
117.514
  0
LINE
  8
0
 10
93.3733
 20
117.514
 11
93.3
 21
118
  0
LINE
  8
0
 10
93.3
 20
118
 11
93.3733
 21
118.486
  0
LINE
  8
0
 10
93.3733
 20
118.486
 11
93.5867
 21
118.929
  0
LINE
  8
0
 10
93.5867
 20
118.929
 11
93.9212
 21
119.29
  0
LINE
  8
0
 10
93.9212
 20
119.29
 11
94.3472
 21
119.536
  0
LINE
  8
0
 10
94.3472
 20
119.536
 11
94.8267
 21
119.645
  0
LINE
  8
0
 10
94.8267
 20
119.645
 11
95.3172
 21
119.609
  0
LINE
  8
0
 10
95.3172
 20
119.609
 11
95.775
 21
119.429
  0
LINE
  8
0
 10
95.775
 20
119.429
 11
96.1595
 21
119.122
  0
LINE
  8
0
 10
96.1595
 20
119.122
 11
96.4366
 21
118.716
  0
LINE
  8
0
 10
96.4366
 20
118.716
 11
96.5816
 21
118.246
  0
LINE
  8
0
 10
96.5816
 20
118.246
 11
96.5816
 21
117.754
  0
LINE
  8
0
 10
96.5816
 20
117.754
 11
96.4366
 21
117.284
  0
LINE
  8
0
 10
96.4366
 20
117.284
 11
96.1595
 21
116.878
  0
LINE
  8
0
 10
96.1595
 20
116.878
 11
95.775
 21
116.571
  0
LINE
  8
0
 10
95.775
 20
116.571
 11
95.3172
 21
116.391
  0
LINE
  8
0
 10
95.3172
 20
116.391
 11
94.8267
 21
116.355
  0
LINE
  8
0
 10
94.8267
 20
116.355
 11
94.3472
 21
116.464
  0
LINE
  8
0
 10
66.9472
 20
96.4641
 11
66.5212
 21
96.71
  0
LINE
  8
0
 10
66.5212
 20
96.71
 11
66.1867
 21
97.0705
  0
LINE
  8
0
 10
66.1867
 20
97.0705
 11
65.9733
 21
97.5136
  0
LINE
  8
0
 10
65.9733
 20
97.5136
 11
65.9
 21
98
  0
LINE
  8
0
 10
65.9
 20
98
 11
65.9733
 21
98.4863
  0
LINE
  8
0
 10
65.9733
 20
98.4863
 11
66.1867
 21
98.9295
  0
LINE
  8
0
 10
66.1867
 20
98.9295
 11
66.5212
 21
99.29
  0
LINE
  8
0
 10
66.5212
 20
99.29
 11
66.9472
 21
99.5359
  0
LINE
  8
0
 10
66.9472
 20
99.5359
 11
67.4267
 21
99.6454
  0
LINE
  8
0
 10
67.4267
 20
99.6454
 11
67.9172
 21
99.6086
  0
LINE
  8
0
 10
67.9172
 20
99.6086
 11
68.375
 21
99.4289
  0
LINE
  8
0
 10
68.375
 20
99.4289
 11
68.7595
 21
99.1223
  0
LINE
  8
0
 10
68.7595
 20
99.1223
 11
69.0366
 21
98.7159
  0
LINE
  8
0
 10
69.0366
 20
98.7159
 11
69.1816
 21
98.2459
  0
LINE
  8
0
 10
69.1816
 20
98.2459
 11
69.1816
 21
97.7541
  0
LINE
  8
0
 10
69.1816
 20
97.7541
 11
69.0366
 21
97.2841
  0
LINE
  8
0
 10
69.0366
 20
97.2841
 11
68.7595
 21
96.8777
  0
LINE
  8
0
 10
68.7595
 20
96.8777
 11
68.375
 21
96.571
  0
LINE
  8
0
 10
68.375
 20
96.571
 11
67.9172
 21
96.3914
  0
LINE
  8
0
 10
67.9172
 20
96.3914
 11
67.4267
 21
96.3546
  0
LINE
  8
0
 10
67.4267
 20
96.3546
 11
66.9472
 21
96.4641
  0
LINE
  8
0
 10
-38.8628
 20
67.9386
 11
-39.2888
 21
68.1846
  0
LINE
  8
0
 10
-39.2888
 20
68.1846
 11
-39.6233
 21
68.5451
  0
LINE
  8
0
 10
-39.6233
 20
68.5451
 11
-39.8367
 21
68.9882
  0
LINE
  8
0
 10
-39.8367
 20
68.9882
 11
-39.91
 21
69.4746
  0
LINE
  8
0
 10
-39.91
 20
69.4746
 11
-39.8367
 21
69.9609
  0
LINE
  8
0
 10
-39.8367
 20
69.9609
 11
-39.6233
 21
70.4041
  0
LINE
  8
0
 10
-39.6233
 20
70.4041
 11
-39.2888
 21
70.7646
  0
LINE
  8
0
 10
-39.2888
 20
70.7646
 11
-38.8628
 21
71.0105
  0
LINE
  8
0
 10
-38.8628
 20
71.0105
 11
-38.3833
 21
71.12
  0
LINE
  8
0
 10
-38.3833
 20
71.12
 11
-37.8928
 21
71.0832
  0
LINE
  8
0
 10
-37.8928
 20
71.0832
 11
-37.435
 21
70.9035
  0
LINE
  8
0
 10
-37.435
 20
70.9035
 11
-37.0505
 21
70.5969
  0
LINE
  8
0
 10
-37.0505
 20
70.5969
 11
-36.7734
 21
70.1905
  0
LINE
  8
0
 10
-36.7734
 20
70.1905
 11
-36.6284
 21
69.7205
  0
LINE
  8
0
 10
-36.6284
 20
69.7205
 11
-36.6284
 21
69.2287
  0
LINE
  8
0
 10
-36.6284
 20
69.2287
 11
-36.7734
 21
68.7587
  0
LINE
  8
0
 10
-36.7734
 20
68.7587
 11
-37.0505
 21
68.3523
  0
LINE
  8
0
 10
-37.0505
 20
68.3523
 11
-37.435
 21
68.0456
  0
LINE
  8
0
 10
-37.435
 20
68.0456
 11
-37.8928
 21
67.8659
  0
LINE
  8
0
 10
-37.8928
 20
67.8659
 11
-38.3833
 21
67.8292
  0
LINE
  8
0
 10
-38.3833
 20
67.8292
 11
-38.8628
 21
67.9386
  0
LINE
  8
0
 10
-38.8628
 20
53.2895
 11
-39.2888
 21
53.5354
  0
LINE
  8
0
 10
-39.2888
 20
53.5354
 11
-39.6233
 21
53.8959
  0
LINE
  8
0
 10
-39.6233
 20
53.8959
 11
-39.8367
 21
54.3391
  0
LINE
  8
0
 10
-39.8367
 20
54.3391
 11
-39.91
 21
54.8254
  0
LINE
  8
0
 10
-39.91
 20
54.8254
 11
-39.8367
 21
55.3118
  0
LINE
  8
0
 10
-39.8367
 20
55.3118
 11
-39.6233
 21
55.7549
  0
LINE
  8
0
 10
-39.6233
 20
55.7549
 11
-39.2888
 21
56.1154
  0
LINE
  8
0
 10
-39.2888
 20
56.1154
 11
-38.8628
 21
56.3614
  0
LINE
  8
0
 10
-38.8628
 20
56.3614
 11
-38.3833
 21
56.4708
  0
LINE
  8
0
 10
-38.3833
 20
56.4708
 11
-37.8928
 21
56.434
  0
LINE
  8
0
 10
-37.8928
 20
56.434
 11
-37.435
 21
56.2543
  0
LINE
  8
0
 10
-37.435
 20
56.2543
 11
-37.0505
 21
55.9477
  0
LINE
  8
0
 10
-37.0505
 20
55.9477
 11
-36.7734
 21
55.5413
  0
LINE
  8
0
 10
-36.7734
 20
55.5413
 11
-36.6284
 21
55.0713
  0
LINE
  8
0
 10
-36.6284
 20
55.0713
 11
-36.6284
 21
54.5795
  0
LINE
  8
0
 10
-36.6284
 20
54.5795
 11
-36.7734
 21
54.1095
  0
LINE
  8
0
 10
-36.7734
 20
54.1095
 11
-37.0505
 21
53.7031
  0
LINE
  8
0
 10
-37.0505
 20
53.7031
 11
-37.435
 21
53.3965
  0
LINE
  8
0
 10
-37.435
 20
53.3965
 11
-37.8928
 21
53.2168
  0
LINE
  8
0
 10
-37.8928
 20
53.2168
 11
-38.3833
 21
53.18
  0
LINE
  8
0
 10
-38.3833
 20
53.18
 11
-38.8628
 21
53.2895
  0
LINE
  8
0
 10
-81.6528
 20
37.4641
 11
-82.0788
 21
37.71
  0
LINE
  8
0
 10
-82.0788
 20
37.71
 11
-82.4133
 21
38.0705
  0
LINE
  8
0
 10
-82.4133
 20
38.0705
 11
-82.6267
 21
38.5136
  0
LINE
  8
0
 10
-82.6267
 20
38.5136
 11
-82.7
 21
39
  0
LINE
  8
0
 10
-82.7
 20
39
 11
-82.6267
 21
39.4863
  0
LINE
  8
0
 10
-82.6267
 20
39.4863
 11
-82.4133
 21
39.9295
  0
LINE
  8
0
 10
-82.4133
 20
39.9295
 11
-82.0788
 21
40.29
  0
LINE
  8
0
 10
-82.0788
 20
40.29
 11
-81.6528
 21
40.5359
  0
LINE
  8
0
 10
-81.6528
 20
40.5359
 11
-81.1733
 21
40.6454
  0
LINE
  8
0
 10
-81.1733
 20
40.6454
 11
-80.6828
 21
40.6086
  0
LINE
  8
0
 10
-80.6828
 20
40.6086
 11
-80.225
 21
40.4289
  0
LINE
  8
0
 10
-80.225
 20
40.4289
 11
-79.8405
 21
40.1223
  0
LINE
  8
0
 10
-79.8405
 20
40.1223
 11
-79.5634
 21
39.7159
  0
LINE
  8
0
 10
-79.5634
 20
39.7159
 11
-79.4184
 21
39.2459
  0
LINE
  8
0
 10
-79.4184
 20
39.2459
 11
-79.4184
 21
38.7541
  0
LINE
  8
0
 10
-79.4184
 20
38.7541
 11
-79.5634
 21
38.2841
  0
LINE
  8
0
 10
-79.5634
 20
38.2841
 11
-79.8405
 21
37.8777
  0
LINE
  8
0
 10
-79.8405
 20
37.8777
 11
-80.225
 21
37.571
  0
LINE
  8
0
 10
-80.225
 20
37.571
 11
-80.6828
 21
37.3914
  0
LINE
  8
0
 10
-80.6828
 20
37.3914
 11
-81.1733
 21
37.3546
  0
LINE
  8
0
 10
-81.1733
 20
37.3546
 11
-81.6528
 21
37.4641
  0
LINE
  8
0
 10
-109.053
 20
17.4641
 11
-109.479
 21
17.71
  0
LINE
  8
0
 10
-109.479
 20
17.71
 11
-109.813
 21
18.0705
  0
LINE
  8
0
 10
-109.813
 20
18.0705
 11
-110.027
 21
18.5136
  0
LINE
  8
0
 10
-110.027
 20
18.5136
 11
-110.1
 21
19
  0
LINE
  8
0
 10
-110.1
 20
19
 11
-110.027
 21
19.4863
  0
LINE
  8
0
 10
-110.027
 20
19.4863
 11
-109.813
 21
19.9295
  0
LINE
  8
0
 10
-109.813
 20
19.9295
 11
-109.479
 21
20.29
  0
LINE
  8
0
 10
-109.479
 20
20.29
 11
-109.053
 21
20.5359
  0
LINE
  8
0
 10
-109.053
 20
20.5359
 11
-108.573
 21
20.6454
  0
LINE
  8
0
 10
-108.573
 20
20.6454
 11
-108.083
 21
20.6086
  0
LINE
  8
0
 10
-108.083
 20
20.6086
 11
-107.625
 21
20.4289
  0
LINE
  8
0
 10
-107.625
 20
20.4289
 11
-107.24
 21
20.1223
  0
LINE
  8
0
 10
-107.24
 20
20.1223
 11
-106.963
 21
19.7159
  0
LINE
  8
0
 10
-106.963
 20
19.7159
 11
-106.818
 21
19.2459
  0
LINE
  8
0
 10
-106.818
 20
19.2459
 11
-106.818
 21
18.7541
  0
LINE
  8
0
 10
-106.818
 20
18.7541
 11
-106.963
 21
18.2841
  0
LINE
  8
0
 10
-106.963
 20
18.2841
 11
-107.24
 21
17.8777
  0
LINE
  8
0
 10
-107.24
 20
17.8777
 11
-107.625
 21
17.571
  0
LINE
  8
0
 10
-107.625
 20
17.571
 11
-108.083
 21
17.3914
  0
LINE
  8
0
 10
-108.083
 20
17.3914
 11
-108.573
 21
17.3546
  0
LINE
  8
0
 10
-108.573
 20
17.3546
 11
-109.053
 21
17.4641
  0
LINE
  8
0
 10
-111.728
 20
2.34514
 11
-112.134
 21
2.6161
  0
LINE
  8
0
 10
-112.134
 20
2.6161
 11
-112.405
 21
3.02164
  0
LINE
  8
0
 10
-112.405
 20
3.02164
 11
-112.5
 21
3.5
  0
LINE
  8
0
 10
-112.5
 20
3.5
 11
-112.405
 21
3.97835
  0
LINE
  8
0
 10
-112.405
 20
3.97835
 11
-112.134
 21
4.38388
  0
LINE
  8
0
 10
-112.134
 20
4.38388
 11
-111.728
 21
4.65485
  0
LINE
  8
0
 10
-111.728
 20
4.65485
 11
-111.25
 21
4.75
  0
LINE
  8
0
 10
-111.25
 20
4.75
 11
-110.772
 21
4.65485
  0
LINE
  8
0
 10
-110.772
 20
4.65485
 11
-110.366
 21
4.38388
  0
LINE
  8
0
 10
-110.366
 20
4.38388
 11
-110.095
 21
3.97835
  0
LINE
  8
0
 10
-110.095
 20
3.97835
 11
-110
 21
3.5
  0
LINE
  8
0
 10
-110
 20
3.5
 11
-110.095
 21
3.02164
  0
LINE
  8
0
 10
-110.095
 20
3.02164
 11
-110.366
 21
2.6161
  0
LINE
  8
0
 10
-110.366
 20
2.6161
 11
-110.772
 21
2.34514
  0
LINE
  8
0
 10
-110.772
 20
2.34514
 11
-111.25
 21
2.25
  0
LINE
  8
0
 10
-111.25
 20
2.25
 11
-111.728
 21
2.34514
  0
LINE
  8
0
 10
97.2716
 20
2.34514
 11
96.8661
 21
2.6161
  0
LINE
  8
0
 10
96.8661
 20
2.6161
 11
96.5951
 21
3.02164
  0
LINE
  8
0
 10
96.5951
 20
3.02164
 11
96.5
 21
3.5
  0
LINE
  8
0
 10
96.5
 20
3.5
 11
96.5951
 21
3.97835
  0
LINE
  8
0
 10
96.5951
 20
3.97835
 11
96.8661
 21
4.38388
  0
LINE
  8
0
 10
96.8661
 20
4.38388
 11
97.2716
 21
4.65485
  0
LINE
  8
0
 10
97.2716
 20
4.65485
 11
97.75
 21
4.75
  0
LINE
  8
0
 10
97.75
 20
4.75
 11
98.2283
 21
4.65485
  0
LINE
  8
0
 10
98.2283
 20
4.65485
 11
98.6339
 21
4.38388
  0
LINE
  8
0
 10
98.6339
 20
4.38388
 11
98.9048
 21
3.97835
  0
LINE
  8
0
 10
98.9048
 20
3.97835
 11
99
 21
3.5
  0
LINE
  8
0
 10
99
 20
3.5
 11
98.9048
 21
3.02164
  0
LINE
  8
0
 10
98.9048
 20
3.02164
 11
98.6339
 21
2.6161
  0
LINE
  8
0
 10
98.6339
 20
2.6161
 11
98.2283
 21
2.34514
  0
LINE
  8
0
 10
98.2283
 20
2.34514
 11
97.75
 21
2.25
  0
LINE
  8
0
 10
97.75
 20
2.25
 11
97.2716
 21
2.34514
  0
ENDSEC
  0
SECTION
  2
OBJECTS
  0
DICTIONARY
  0
ENDSEC
  0
EOF
