  0
SECTION
  2
BLOCKS
  0
ENDSEC
  0
SECTION
  2
ENTITIES
  0
LINE
  8
0
 10
312.69
 20
3.24773
 11
312.772
 21
3.73645
  0
LINE
  8
0
 10
312.772
 20
3.73645
 11
312.933
 21
4.20508
  0
LINE
  8
0
 10
312.933
 20
4.20508
 11
313.168
 21
4.64084
  0
LINE
  8
0
 10
313.168
 20
4.64084
 11
313.473
 21
5.03183
  0
LINE
  8
0
 10
313.473
 20
5.03183
 11
313.837
 21
5.36742
  0
LINE
  8
0
 10
313.837
 20
5.36742
 11
314.252
 21
5.63841
  0
LINE
  8
0
 10
314.252
 20
5.63841
 11
314.706
 21
5.83745
  0
LINE
  8
0
 10
314.706
 20
5.83745
 11
315.186
 21
5.95908
  0
LINE
  8
0
 10
315.186
 20
5.95908
 11
315.68
 21
6
  0
LINE
  8
0
 10
315.68
 20
6
 11
316.174
 21
5.95908
  0
LINE
  8
0
 10
316.174
 20
5.95908
 11
316.654
 21
5.83745
  0
LINE
  8
0
 10
316.654
 20
5.83745
 11
317.108
 21
5.63841
  0
LINE
  8
0
 10
317.108
 20
5.63841
 11
317.523
 21
5.36742
  0
LINE
  8
0
 10
317.523
 20
5.36742
 11
317.887
 21
5.03183
  0
LINE
  8
0
 10
317.887
 20
5.03183
 11
318.191
 21
4.64084
  0
LINE
  8
0
 10
318.191
 20
4.64084
 11
318.427
 21
4.20508
  0
LINE
  8
0
 10
318.427
 20
4.20508
 11
318.588
 21
3.73645
  0
LINE
  8
0
 10
318.588
 20
3.73645
 11
318.67
 21
3.24773
  0
LINE
  8
0
 10
318.67
 20
3.24773
 11
318.67
 21
0
  0
LINE
  8
0
 10
318.67
 20
0
 11
325.595
 21
0
  0
LINE
  8
0
 10
325.595
 20
0
 11
325.595
 21
2.24106
  0
LINE
  8
0
 10
325.595
 20
2.24106
 11
325.71
 21
2.7092
  0
LINE
  8
0
 10
325.71
 20
2.7092
 11
325.934
 21
3.13612
  0
LINE
  8
0
 10
325.934
 20
3.13612
 11
326.254
 21
3.49701
  0
LINE
  8
0
 10
326.254
 20
3.49701
 11
326.651
 21
3.7709
  0
LINE
  8
0
 10
326.651
 20
3.7709
 11
327.101
 21
3.94188
  0
LINE
  8
0
 10
327.101
 20
3.94188
 11
327.58
 21
4
  0
LINE
  8
0
 10
327.58
 20
4
 11
328.059
 21
3.94188
  0
LINE
  8
0
 10
328.059
 20
3.94188
 11
328.509
 21
3.7709
  0
LINE
  8
0
 10
328.509
 20
3.7709
 11
328.906
 21
3.49701
  0
LINE
  8
0
 10
328.906
 20
3.49701
 11
329.226
 21
3.13612
  0
LINE
  8
0
 10
329.226
 20
3.13612
 11
329.45
 21
2.7092
  0
LINE
  8
0
 10
329.45
 20
2.7092
 11
329.565
 21
2.24106
  0
LINE
  8
0
 10
329.565
 20
2.24106
 11
329.565
 21
0
  0
LINE
  8
0
 10
329.565
 20
0
 11
384
 21
0
  0
LINE
  8
0
 10
384
 20
0
 11
384
 21
141
  0
LINE
  8
0
 10
384
 20
141
 11
383.905
 21
143.179
  0
LINE
  8
0
 10
383.905
 20
143.179
 11
383.62
 21
145.341
  0
LINE
  8
0
 10
383.62
 20
145.341
 11
383.148
 21
147.47
  0
LINE
  8
0
 10
383.148
 20
147.47
 11
382.492
 21
149.55
  0
LINE
  8
0
 10
382.492
 20
149.55
 11
381.658
 21
151.565
  0
LINE
  8
0
 10
381.658
 20
151.565
 11
380.651
 21
153.5
  0
LINE
  8
0
 10
380.651
 20
153.5
 11
379.479
 21
155.339
  0
LINE
  8
0
 10
379.479
 20
155.339
 11
378.151
 21
157.07
  0
LINE
  8
0
 10
378.151
 20
157.07
 11
376.678
 21
158.678
  0
LINE
  8
0
 10
376.678
 20
158.678
 11
375.07
 21
160.151
  0
LINE
  8
0
 10
375.07
 20
160.151
 11
373.339
 21
161.479
  0
LINE
  8
0
 10
373.339
 20
161.479
 11
371.5
 21
162.651
  0
LINE
  8
0
 10
371.5
 20
162.651
 11
369.565
 21
163.658
  0
LINE
  8
0
 10
369.565
 20
163.658
 11
367.55
 21
164.492
  0
LINE
  8
0
 10
367.55
 20
164.492
 11
365.47
 21
165.148
  0
LINE
  8
0
 10
365.47
 20
165.148
 11
363.341
 21
165.62
  0
LINE
  8
0
 10
363.341
 20
165.62
 11
361.179
 21
165.905
  0
LINE
  8
0
 10
361.179
 20
165.905
 11
359
 21
166
  0
LINE
  8
0
 10
359
 20
166
 11
0
 21
166
  0
LINE
  8
0
 10
0
 20
166
 11
0
 21
0
  0
LINE
  8
0
 10
0
 20
0
 11
312.69
 21
0
  0
LINE
  8
0
 10
312.69
 20
0
 11
312.69
 21
3.24773
  0
LINE
  8
0
 10
6.71045
 20
155.155
 11
6.24545
 21
155.318
  0
LINE
  8
0
 10
6.24545
 20
155.318
 11
5.82831
 21
155.58
  0
LINE
  8
0
 10
5.82831
 20
155.58
 11
5.47997
 21
155.928
  0
LINE
  8
0
 10
5.47997
 20
155.928
 11
5.21786
 21
156.345
  0
LINE
  8
0
 10
5.21786
 20
156.345
 11
5.05515
 21
156.81
  0
LINE
  8
0
 10
5.05515
 20
156.81
 11
4.99998
 21
157.3
  0
LINE
  8
0
 10
4.99998
 20
157.3
 11
5.05515
 21
157.79
  0
LINE
  8
0
 10
5.05515
 20
157.79
 11
5.21786
 21
158.255
  0
LINE
  8
0
 10
5.21786
 20
158.255
 11
5.47997
 21
158.672
  0
LINE
  8
0
 10
5.47997
 20
158.672
 11
5.82831
 21
159.02
  0
LINE
  8
0
 10
5.82831
 20
159.02
 11
6.24545
 21
159.282
  0
LINE
  8
0
 10
6.24545
 20
159.282
 11
6.71045
 21
159.445
  0
LINE
  8
0
 10
6.71045
 20
159.445
 11
7.2
 21
159.5
  0
LINE
  8
0
 10
7.2
 20
159.5
 11
7.68954
 21
159.445
  0
LINE
  8
0
 10
7.68954
 20
159.445
 11
8.15454
 21
159.282
  0
LINE
  8
0
 10
8.15454
 20
159.282
 11
8.57167
 21
159.02
  0
LINE
  8
0
 10
8.57167
 20
159.02
 11
8.92003
 21
158.672
  0
LINE
  8
0
 10
8.92003
 20
158.672
 11
9.18213
 21
158.255
  0
LINE
  8
0
 10
9.18213
 20
158.255
 11
9.34483
 21
157.79
  0
LINE
  8
0
 10
9.34483
 20
157.79
 11
9.39999
 21
157.3
  0
LINE
  8
0
 10
9.39999
 20
157.3
 11
9.34483
 21
156.81
  0
LINE
  8
0
 10
9.34483
 20
156.81
 11
9.18213
 21
156.345
  0
LINE
  8
0
 10
9.18213
 20
156.345
 11
8.92003
 21
155.928
  0
LINE
  8
0
 10
8.92003
 20
155.928
 11
8.57167
 21
155.58
  0
LINE
  8
0
 10
8.57167
 20
155.58
 11
8.15454
 21
155.318
  0
LINE
  8
0
 10
8.15454
 20
155.318
 11
7.68954
 21
155.155
  0
LINE
  8
0
 10
7.68954
 20
155.155
 11
7.2
 21
155.1
  0
LINE
  8
0
 10
7.2
 20
155.1
 11
6.71045
 21
155.155
  0
LINE
  8
0
 10
6.71045
 20
133.935
 11
6.24545
 21
134.098
  0
LINE
  8
0
 10
6.24545
 20
134.098
 11
5.82831
 21
134.36
  0
LINE
  8
0
 10
5.82831
 20
134.36
 11
5.47997
 21
134.708
  0
LINE
  8
0
 10
5.47997
 20
134.708
 11
5.21786
 21
135.125
  0
LINE
  8
0
 10
5.21786
 20
135.125
 11
5.05515
 21
135.59
  0
LINE
  8
0
 10
5.05515
 20
135.59
 11
4.99998
 21
136.08
  0
LINE
  8
0
 10
4.99998
 20
136.08
 11
5.05515
 21
136.57
  0
LINE
  8
0
 10
5.05515
 20
136.57
 11
5.21786
 21
137.035
  0
LINE
  8
0
 10
5.21786
 20
137.035
 11
5.47997
 21
137.452
  0
LINE
  8
0
 10
5.47997
 20
137.452
 11
5.82831
 21
137.8
  0
LINE
  8
0
 10
5.82831
 20
137.8
 11
6.24545
 21
138.062
  0
LINE
  8
0
 10
6.24545
 20
138.062
 11
6.71045
 21
138.225
  0
LINE
  8
0
 10
6.71045
 20
138.225
 11
7.2
 21
138.28
  0
LINE
  8
0
 10
7.2
 20
138.28
 11
7.68954
 21
138.225
  0
LINE
  8
0
 10
7.68954
 20
138.225
 11
8.15454
 21
138.062
  0
LINE
  8
0
 10
8.15454
 20
138.062
 11
8.57167
 21
137.8
  0
LINE
  8
0
 10
8.57167
 20
137.8
 11
8.92003
 21
137.452
  0
LINE
  8
0
 10
8.92003
 20
137.452
 11
9.18213
 21
137.035
  0
LINE
  8
0
 10
9.18213
 20
137.035
 11
9.34483
 21
136.57
  0
LINE
  8
0
 10
9.34483
 20
136.57
 11
9.39999
 21
136.08
  0
LINE
  8
0
 10
9.39999
 20
136.08
 11
9.34483
 21
135.59
  0
LINE
  8
0
 10
9.34483
 20
135.59
 11
9.18213
 21
135.125
  0
LINE
  8
0
 10
9.18213
 20
135.125
 11
8.92003
 21
134.708
  0
LINE
  8
0
 10
8.92003
 20
134.708
 11
8.57167
 21
134.36
  0
LINE
  8
0
 10
8.57167
 20
134.36
 11
8.15454
 21
134.098
  0
LINE
  8
0
 10
8.15454
 20
134.098
 11
7.68954
 21
133.935
  0
LINE
  8
0
 10
7.68954
 20
133.935
 11
7.2
 21
133.88
  0
LINE
  8
0
 10
7.2
 20
133.88
 11
6.71045
 21
133.935
  0
LINE
  8
0
 10
51.2605
 20
89.0052
 11
50.7955
 21
89.1679
  0
LINE
  8
0
 10
50.7955
 20
89.1679
 11
50.3783
 21
89.43
  0
LINE
  8
0
 10
50.3783
 20
89.43
 11
50.03
 21
89.7783
  0
LINE
  8
0
 10
50.03
 20
89.7783
 11
49.7679
 21
90.1954
  0
LINE
  8
0
 10
49.7679
 20
90.1954
 11
49.6051
 21
90.6604
  0
LINE
  8
0
 10
49.6051
 20
90.6604
 11
49.55
 21
91.15
  0
LINE
  8
0
 10
49.55
 20
91.15
 11
49.6051
 21
91.6395
  0
LINE
  8
0
 10
49.6051
 20
91.6395
 11
49.7679
 21
92.1045
  0
LINE
  8
0
 10
49.7679
 20
92.1045
 11
50.03
 21
92.5217
  0
LINE
  8
0
 10
50.03
 20
92.5217
 11
50.3783
 21
92.87
  0
LINE
  8
0
 10
50.3783
 20
92.87
 11
50.7955
 21
93.1321
  0
LINE
  8
0
 10
50.7955
 20
93.1321
 11
51.2605
 21
93.2948
  0
LINE
  8
0
 10
51.2605
 20
93.2948
 11
51.75
 21
93.35
  0
LINE
  8
0
 10
51.75
 20
93.35
 11
52.2395
 21
93.2948
  0
LINE
  8
0
 10
52.2395
 20
93.2948
 11
52.7045
 21
93.1321
  0
LINE
  8
0
 10
52.7045
 20
93.1321
 11
53.1217
 21
92.87
  0
LINE
  8
0
 10
53.1217
 20
92.87
 11
53.47
 21
92.5217
  0
LINE
  8
0
 10
53.47
 20
92.5217
 11
53.7321
 21
92.1045
  0
LINE
  8
0
 10
53.7321
 20
92.1045
 11
53.8948
 21
91.6395
  0
LINE
  8
0
 10
53.8948
 20
91.6395
 11
53.95
 21
91.15
  0
LINE
  8
0
 10
53.95
 20
91.15
 11
53.8948
 21
90.6604
  0
LINE
  8
0
 10
53.8948
 20
90.6604
 11
53.7321
 21
90.1954
  0
LINE
  8
0
 10
53.7321
 20
90.1954
 11
53.47
 21
89.7783
  0
LINE
  8
0
 10
53.47
 20
89.7783
 11
53.1217
 21
89.43
  0
LINE
  8
0
 10
53.1217
 20
89.43
 11
52.7045
 21
89.1679
  0
LINE
  8
0
 10
52.7045
 20
89.1679
 11
52.2395
 21
89.0052
  0
LINE
  8
0
 10
52.2395
 20
89.0052
 11
51.75
 21
88.95
  0
LINE
  8
0
 10
51.75
 20
88.95
 11
51.2605
 21
89.0052
  0
LINE
  8
0
 10
122.76
 20
89.0052
 11
122.295
 21
89.1679
  0
LINE
  8
0
 10
122.295
 20
89.1679
 11
121.878
 21
89.43
  0
LINE
  8
0
 10
121.878
 20
89.43
 11
121.53
 21
89.7783
  0
LINE
  8
0
 10
121.53
 20
89.7783
 11
121.268
 21
90.1954
  0
LINE
  8
0
 10
121.268
 20
90.1954
 11
121.105
 21
90.6604
  0
LINE
  8
0
 10
121.105
 20
90.6604
 11
121.05
 21
91.15
  0
LINE
  8
0
 10
121.05
 20
91.15
 11
121.105
 21
91.6395
  0
LINE
  8
0
 10
121.105
 20
91.6395
 11
121.268
 21
92.1045
  0
LINE
  8
0
 10
121.268
 20
92.1045
 11
121.53
 21
92.5217
  0
LINE
  8
0
 10
121.53
 20
92.5217
 11
121.878
 21
92.87
  0
LINE
  8
0
 10
121.878
 20
92.87
 11
122.295
 21
93.1321
  0
LINE
  8
0
 10
122.295
 20
93.1321
 11
122.76
 21
93.2948
  0
LINE
  8
0
 10
122.76
 20
93.2948
 11
123.25
 21
93.35
  0
LINE
  8
0
 10
123.25
 20
93.35
 11
123.74
 21
93.2948
  0
LINE
  8
0
 10
123.74
 20
93.2948
 11
124.205
 21
93.1321
  0
LINE
  8
0
 10
124.205
 20
93.1321
 11
124.622
 21
92.87
  0
LINE
  8
0
 10
124.622
 20
92.87
 11
124.97
 21
92.5217
  0
LINE
  8
0
 10
124.97
 20
92.5217
 11
125.232
 21
92.1045
  0
LINE
  8
0
 10
125.232
 20
92.1045
 11
125.395
 21
91.6395
  0
LINE
  8
0
 10
125.395
 20
91.6395
 11
125.45
 21
91.15
  0
LINE
  8
0
 10
125.45
 20
91.15
 11
125.395
 21
90.6604
  0
LINE
  8
0
 10
125.395
 20
90.6604
 11
125.232
 21
90.1954
  0
LINE
  8
0
 10
125.232
 20
90.1954
 11
124.97
 21
89.7783
  0
LINE
  8
0
 10
124.97
 20
89.7783
 11
124.622
 21
89.43
  0
LINE
  8
0
 10
124.622
 20
89.43
 11
124.205
 21
89.1679
  0
LINE
  8
0
 10
124.205
 20
89.1679
 11
123.74
 21
89.0052
  0
LINE
  8
0
 10
123.74
 20
89.0052
 11
123.25
 21
88.95
  0
LINE
  8
0
 10
123.25
 20
88.95
 11
122.76
 21
89.0052
  0
LINE
  8
0
 10
84.2317
 20
18.0427
 11
80.9882
 21
18.4697
  0
LINE
  8
0
 10
80.9882
 20
18.4697
 11
77.7943
 21
19.1778
  0
LINE
  8
0
 10
77.7943
 20
19.1778
 11
74.6742
 21
20.1615
  0
LINE
  8
0
 10
74.6742
 20
20.1615
 11
71.6518
 21
21.4135
  0
LINE
  8
0
 10
71.6518
 20
21.4135
 11
68.75
 21
22.924
  0
LINE
  8
0
 10
68.75
 20
22.924
 11
65.9909
 21
24.6818
  0
LINE
  8
0
 10
65.9909
 20
24.6818
 11
63.3955
 21
26.6733
  0
LINE
  8
0
 10
63.3955
 20
26.6733
 11
60.9835
 21
28.8835
  0
LINE
  8
0
 10
60.9835
 20
28.8835
 11
58.7733
 21
31.2955
  0
LINE
  8
0
 10
58.7733
 20
31.2955
 11
56.7818
 21
33.8909
  0
LINE
  8
0
 10
56.7818
 20
33.8909
 11
55.024
 21
36.65
  0
LINE
  8
0
 10
55.024
 20
36.65
 11
53.5135
 21
39.5518
  0
LINE
  8
0
 10
53.5135
 20
39.5518
 11
52.2615
 21
42.5742
  0
LINE
  8
0
 10
52.2615
 20
42.5742
 11
51.2778
 21
45.6943
  0
LINE
  8
0
 10
51.2778
 20
45.6943
 11
50.5697
 21
48.8882
  0
LINE
  8
0
 10
50.5697
 20
48.8882
 11
50.1427
 21
52.1317
  0
LINE
  8
0
 10
50.1427
 20
52.1317
 11
50
 21
55.4
  0
LINE
  8
0
 10
50
 20
55.4
 11
50.1427
 21
58.6683
  0
LINE
  8
0
 10
50.1427
 20
58.6683
 11
50.5697
 21
61.9118
  0
LINE
  8
0
 10
50.5697
 20
61.9118
 11
51.2778
 21
65.1057
  0
LINE
  8
0
 10
51.2778
 20
65.1057
 11
52.2615
 21
68.2258
  0
LINE
  8
0
 10
52.2615
 20
68.2258
 11
53.5135
 21
71.2482
  0
LINE
  8
0
 10
53.5135
 20
71.2482
 11
55.024
 21
74.15
  0
LINE
  8
0
 10
55.024
 20
74.15
 11
56.7818
 21
76.9091
  0
LINE
  8
0
 10
56.7818
 20
76.9091
 11
58.7733
 21
79.5045
  0
LINE
  8
0
 10
58.7733
 20
79.5045
 11
60.9835
 21
81.9165
  0
LINE
  8
0
 10
60.9835
 20
81.9165
 11
63.3955
 21
84.1267
  0
LINE
  8
0
 10
63.3955
 20
84.1267
 11
65.9909
 21
86.1182
  0
LINE
  8
0
 10
65.9909
 20
86.1182
 11
68.75
 21
87.8759
  0
LINE
  8
0
 10
68.75
 20
87.8759
 11
71.6518
 21
89.3865
  0
LINE
  8
0
 10
71.6518
 20
89.3865
 11
74.6742
 21
90.6385
  0
LINE
  8
0
 10
74.6742
 20
90.6385
 11
77.7943
 21
91.6222
  0
LINE
  8
0
 10
77.7943
 20
91.6222
 11
80.9882
 21
92.3303
  0
LINE
  8
0
 10
80.9882
 20
92.3303
 11
84.2317
 21
92.7573
  0
LINE
  8
0
 10
84.2317
 20
92.7573
 11
87.5
 21
92.9
  0
LINE
  8
0
 10
87.5
 20
92.9
 11
90.7683
 21
92.7573
  0
LINE
  8
0
 10
90.7683
 20
92.7573
 11
94.0118
 21
92.3303
  0
LINE
  8
0
 10
94.0118
 20
92.3303
 11
97.2057
 21
91.6222
  0
LINE
  8
0
 10
97.2057
 20
91.6222
 11
100.326
 21
90.6385
  0
LINE
  8
0
 10
100.326
 20
90.6385
 11
103.348
 21
89.3865
  0
LINE
  8
0
 10
103.348
 20
89.3865
 11
106.25
 21
87.8759
  0
LINE
  8
0
 10
106.25
 20
87.8759
 11
109.009
 21
86.1182
  0
LINE
  8
0
 10
109.009
 20
86.1182
 11
111.605
 21
84.1267
  0
LINE
  8
0
 10
111.605
 20
84.1267
 11
114.016
 21
81.9165
  0
LINE
  8
0
 10
114.016
 20
81.9165
 11
116.227
 21
79.5045
  0
LINE
  8
0
 10
116.227
 20
79.5045
 11
118.218
 21
76.9091
  0
LINE
  8
0
 10
118.218
 20
76.9091
 11
119.976
 21
74.15
  0
LINE
  8
0
 10
119.976
 20
74.15
 11
121.487
 21
71.2482
  0
LINE
  8
0
 10
121.487
 20
71.2482
 11
122.738
 21
68.2258
  0
LINE
  8
0
 10
122.738
 20
68.2258
 11
123.722
 21
65.1057
  0
LINE
  8
0
 10
123.722
 20
65.1057
 11
124.43
 21
61.9118
  0
LINE
  8
0
 10
124.43
 20
61.9118
 11
124.857
 21
58.6683
  0
LINE
  8
0
 10
124.857
 20
58.6683
 11
125
 21
55.4
  0
LINE
  8
0
 10
125
 20
55.4
 11
124.857
 21
52.1317
  0
LINE
  8
0
 10
124.857
 20
52.1317
 11
124.43
 21
48.8882
  0
LINE
  8
0
 10
124.43
 20
48.8882
 11
123.722
 21
45.6943
  0
LINE
  8
0
 10
123.722
 20
45.6943
 11
122.738
 21
42.5742
  0
LINE
  8
0
 10
122.738
 20
42.5742
 11
121.487
 21
39.5518
  0
LINE
  8
0
 10
121.487
 20
39.5518
 11
119.976
 21
36.65
  0
LINE
  8
0
 10
119.976
 20
36.65
 11
118.218
 21
33.8909
  0
LINE
  8
0
 10
118.218
 20
33.8909
 11
116.227
 21
31.2955
  0
LINE
  8
0
 10
116.227
 20
31.2955
 11
114.016
 21
28.8835
  0
LINE
  8
0
 10
114.016
 20
28.8835
 11
111.605
 21
26.6733
  0
LINE
  8
0
 10
111.605
 20
26.6733
 11
109.009
 21
24.6818
  0
LINE
  8
0
 10
109.009
 20
24.6818
 11
106.25
 21
22.924
  0
LINE
  8
0
 10
106.25
 20
22.924
 11
103.348
 21
21.4135
  0
LINE
  8
0
 10
103.348
 20
21.4135
 11
100.326
 21
20.1615
  0
LINE
  8
0
 10
100.326
 20
20.1615
 11
97.2057
 21
19.1778
  0
LINE
  8
0
 10
97.2057
 20
19.1778
 11
94.0118
 21
18.4697
  0
LINE
  8
0
 10
94.0118
 20
18.4697
 11
90.7683
 21
18.0427
  0
LINE
  8
0
 10
90.7683
 20
18.0427
 11
87.5
 21
17.9
  0
LINE
  8
0
 10
87.5
 20
17.9
 11
84.2317
 21
18.0427
  0
LINE
  8
0
 10
51.2605
 20
17.5052
 11
50.7955
 21
17.6679
  0
LINE
  8
0
 10
50.7955
 20
17.6679
 11
50.3783
 21
17.93
  0
LINE
  8
0
 10
50.3783
 20
17.93
 11
50.03
 21
18.2783
  0
LINE
  8
0
 10
50.03
 20
18.2783
 11
49.7679
 21
18.6954
  0
LINE
  8
0
 10
49.7679
 20
18.6954
 11
49.6051
 21
19.1604
  0
LINE
  8
0
 10
49.6051
 20
19.1604
 11
49.55
 21
19.65
  0
LINE
  8
0
 10
49.55
 20
19.65
 11
49.6051
 21
20.1395
  0
LINE
  8
0
 10
49.6051
 20
20.1395
 11
49.7679
 21
20.6045
  0
LINE
  8
0
 10
49.7679
 20
20.6045
 11
50.03
 21
21.0217
  0
LINE
  8
0
 10
50.03
 20
21.0217
 11
50.3783
 21
21.37
  0
LINE
  8
0
 10
50.3783
 20
21.37
 11
50.7955
 21
21.6321
  0
LINE
  8
0
 10
50.7955
 20
21.6321
 11
51.2605
 21
21.7948
  0
LINE
  8
0
 10
51.2605
 20
21.7948
 11
51.75
 21
21.85
  0
LINE
  8
0
 10
51.75
 20
21.85
 11
52.2395
 21
21.7948
  0
LINE
  8
0
 10
52.2395
 20
21.7948
 11
52.7045
 21
21.6321
  0
LINE
  8
0
 10
52.7045
 20
21.6321
 11
53.1217
 21
21.37
  0
LINE
  8
0
 10
53.1217
 20
21.37
 11
53.47
 21
21.0217
  0
LINE
  8
0
 10
53.47
 20
21.0217
 11
53.7321
 21
20.6045
  0
LINE
  8
0
 10
53.7321
 20
20.6045
 11
53.8948
 21
20.1395
  0
LINE
  8
0
 10
53.8948
 20
20.1395
 11
53.95
 21
19.65
  0
LINE
  8
0
 10
53.95
 20
19.65
 11
53.8948
 21
19.1604
  0
LINE
  8
0
 10
53.8948
 20
19.1604
 11
53.7321
 21
18.6954
  0
LINE
  8
0
 10
53.7321
 20
18.6954
 11
53.47
 21
18.2783
  0
LINE
  8
0
 10
53.47
 20
18.2783
 11
53.1217
 21
17.93
  0
LINE
  8
0
 10
53.1217
 20
17.93
 11
52.7045
 21
17.6679
  0
LINE
  8
0
 10
52.7045
 20
17.6679
 11
52.2395
 21
17.5052
  0
LINE
  8
0
 10
52.2395
 20
17.5052
 11
51.75
 21
17.45
  0
LINE
  8
0
 10
51.75
 20
17.45
 11
51.2605
 21
17.5052
  0
LINE
  8
0
 10
122.76
 20
17.5052
 11
122.295
 21
17.6679
  0
LINE
  8
0
 10
122.295
 20
17.6679
 11
121.878
 21
17.93
  0
LINE
  8
0
 10
121.878
 20
17.93
 11
121.53
 21
18.2783
  0
LINE
  8
0
 10
121.53
 20
18.2783
 11
121.268
 21
18.6954
  0
LINE
  8
0
 10
121.268
 20
18.6954
 11
121.105
 21
19.1604
  0
LINE
  8
0
 10
121.105
 20
19.1604
 11
121.05
 21
19.65
  0
LINE
  8
0
 10
121.05
 20
19.65
 11
121.105
 21
20.1395
  0
LINE
  8
0
 10
121.105
 20
20.1395
 11
121.268
 21
20.6045
  0
LINE
  8
0
 10
121.268
 20
20.6045
 11
121.53
 21
21.0217
  0
LINE
  8
0
 10
121.53
 20
21.0217
 11
121.878
 21
21.37
  0
LINE
  8
0
 10
121.878
 20
21.37
 11
122.295
 21
21.6321
  0
LINE
  8
0
 10
122.295
 20
21.6321
 11
122.76
 21
21.7948
  0
LINE
  8
0
 10
122.76
 20
21.7948
 11
123.25
 21
21.85
  0
LINE
  8
0
 10
123.25
 20
21.85
 11
123.74
 21
21.7948
  0
LINE
  8
0
 10
123.74
 20
21.7948
 11
124.205
 21
21.6321
  0
LINE
  8
0
 10
124.205
 20
21.6321
 11
124.622
 21
21.37
  0
LINE
  8
0
 10
124.622
 20
21.37
 11
124.97
 21
21.0217
  0
LINE
  8
0
 10
124.97
 20
21.0217
 11
125.232
 21
20.6045
  0
LINE
  8
0
 10
125.232
 20
20.6045
 11
125.395
 21
20.1395
  0
LINE
  8
0
 10
125.395
 20
20.1395
 11
125.45
 21
19.65
  0
LINE
  8
0
 10
125.45
 20
19.65
 11
125.395
 21
19.1604
  0
LINE
  8
0
 10
125.395
 20
19.1604
 11
125.232
 21
18.6954
  0
LINE
  8
0
 10
125.232
 20
18.6954
 11
124.97
 21
18.2783
  0
LINE
  8
0
 10
124.97
 20
18.2783
 11
124.622
 21
17.93
  0
LINE
  8
0
 10
124.622
 20
17.93
 11
124.205
 21
17.6679
  0
LINE
  8
0
 10
124.205
 20
17.6679
 11
123.74
 21
17.5052
  0
LINE
  8
0
 10
123.74
 20
17.5052
 11
123.25
 21
17.45
  0
LINE
  8
0
 10
123.25
 20
17.45
 11
122.76
 21
17.5052
  0
LINE
  8
0
 10
22.6104
 20
5.05515
 11
22.1454
 21
5.21786
  0
LINE
  8
0
 10
22.1454
 20
5.21786
 11
21.7283
 21
5.47997
  0
LINE
  8
0
 10
21.7283
 20
5.47997
 11
21.38
 21
5.82831
  0
LINE
  8
0
 10
21.38
 20
5.82831
 11
21.1179
 21
6.24545
  0
LINE
  8
0
 10
21.1179
 20
6.24545
 11
20.9552
 21
6.71045
  0
LINE
  8
0
 10
20.9552
 20
6.71045
 11
20.9
 21
7.2
  0
LINE
  8
0
 10
20.9
 20
7.2
 11
20.9552
 21
7.68954
  0
LINE
  8
0
 10
20.9552
 20
7.68954
 11
21.1179
 21
8.15454
  0
LINE
  8
0
 10
21.1179
 20
8.15454
 11
21.38
 21
8.57167
  0
LINE
  8
0
 10
21.38
 20
8.57167
 11
21.7283
 21
8.92003
  0
LINE
  8
0
 10
21.7283
 20
8.92003
 11
22.1454
 21
9.18213
  0
LINE
  8
0
 10
22.1454
 20
9.18213
 11
22.6104
 21
9.34483
  0
LINE
  8
0
 10
22.6104
 20
9.34483
 11
23.1
 21
9.39999
  0
LINE
  8
0
 10
23.1
 20
9.39999
 11
23.5895
 21
9.34483
  0
LINE
  8
0
 10
23.5895
 20
9.34483
 11
24.0545
 21
9.18213
  0
LINE
  8
0
 10
24.0545
 20
9.18213
 11
24.4717
 21
8.92003
  0
LINE
  8
0
 10
24.4717
 20
8.92003
 11
24.82
 21
8.57167
  0
LINE
  8
0
 10
24.82
 20
8.57167
 11
25.0821
 21
8.15454
  0
LINE
  8
0
 10
25.0821
 20
8.15454
 11
25.2448
 21
7.68954
  0
LINE
  8
0
 10
25.2448
 20
7.68954
 11
25.3
 21
7.2
  0
LINE
  8
0
 10
25.3
 20
7.2
 11
25.2448
 21
6.71045
  0
LINE
  8
0
 10
25.2448
 20
6.71045
 11
25.0821
 21
6.24545
  0
LINE
  8
0
 10
25.0821
 20
6.24545
 11
24.82
 21
5.82831
  0
LINE
  8
0
 10
24.82
 20
5.82831
 11
24.4717
 21
5.47997
  0
LINE
  8
0
 10
24.4717
 20
5.47997
 11
24.0545
 21
5.21786
  0
LINE
  8
0
 10
24.0545
 20
5.21786
 11
23.5895
 21
5.05515
  0
LINE
  8
0
 10
23.5895
 20
5.05515
 11
23.1
 21
4.99998
  0
LINE
  8
0
 10
23.1
 20
4.99998
 11
22.6104
 21
5.05515
  0
LINE
  8
0
 10
43.8304
 20
5.05515
 11
43.3654
 21
5.21786
  0
LINE
  8
0
 10
43.3654
 20
5.21786
 11
42.9483
 21
5.47997
  0
LINE
  8
0
 10
42.9483
 20
5.47997
 11
42.6
 21
5.82831
  0
LINE
  8
0
 10
42.6
 20
5.82831
 11
42.3379
 21
6.24545
  0
LINE
  8
0
 10
42.3379
 20
6.24545
 11
42.1752
 21
6.71045
  0
LINE
  8
0
 10
42.1752
 20
6.71045
 11
42.12
 21
7.2
  0
LINE
  8
0
 10
42.12
 20
7.2
 11
42.1752
 21
7.68954
  0
LINE
  8
0
 10
42.1752
 20
7.68954
 11
42.3379
 21
8.15454
  0
LINE
  8
0
 10
42.3379
 20
8.15454
 11
42.6
 21
8.57167
  0
LINE
  8
0
 10
42.6
 20
8.57167
 11
42.9483
 21
8.92003
  0
LINE
  8
0
 10
42.9483
 20
8.92003
 11
43.3654
 21
9.18213
  0
LINE
  8
0
 10
43.3654
 20
9.18213
 11
43.8304
 21
9.34483
  0
LINE
  8
0
 10
43.8304
 20
9.34483
 11
44.32
 21
9.39999
  0
LINE
  8
0
 10
44.32
 20
9.39999
 11
44.8095
 21
9.34483
  0
LINE
  8
0
 10
44.8095
 20
9.34483
 11
45.2745
 21
9.18213
  0
LINE
  8
0
 10
45.2745
 20
9.18213
 11
45.6917
 21
8.92003
  0
LINE
  8
0
 10
45.6917
 20
8.92003
 11
46.04
 21
8.57167
  0
LINE
  8
0
 10
46.04
 20
8.57167
 11
46.3021
 21
8.15454
  0
LINE
  8
0
 10
46.3021
 20
8.15454
 11
46.4648
 21
7.68954
  0
LINE
  8
0
 10
46.4648
 20
7.68954
 11
46.52
 21
7.2
  0
LINE
  8
0
 10
46.52
 20
7.2
 11
46.4648
 21
6.71045
  0
LINE
  8
0
 10
46.4648
 20
6.71045
 11
46.3021
 21
6.24545
  0
LINE
  8
0
 10
46.3021
 20
6.24545
 11
46.04
 21
5.82831
  0
LINE
  8
0
 10
46.04
 20
5.82831
 11
45.6917
 21
5.47997
  0
LINE
  8
0
 10
45.6917
 20
5.47997
 11
45.2745
 21
5.21786
  0
LINE
  8
0
 10
45.2745
 20
5.21786
 11
44.8095
 21
5.05515
  0
LINE
  8
0
 10
44.8095
 20
5.05515
 11
44.32
 21
4.99998
  0
LINE
  8
0
 10
44.32
 20
4.99998
 11
43.8304
 21
5.05515
  0
LINE
  8
0
 10
339.19
 20
5.05515
 11
338.725
 21
5.21786
  0
LINE
  8
0
 10
338.725
 20
5.21786
 11
338.308
 21
5.47997
  0
LINE
  8
0
 10
338.308
 20
5.47997
 11
337.96
 21
5.82831
  0
LINE
  8
0
 10
337.96
 20
5.82831
 11
337.698
 21
6.24545
  0
LINE
  8
0
 10
337.698
 20
6.24545
 11
337.535
 21
6.71045
  0
LINE
  8
0
 10
337.535
 20
6.71045
 11
337.48
 21
7.2
  0
LINE
  8
0
 10
337.48
 20
7.2
 11
337.535
 21
7.68954
  0
LINE
  8
0
 10
337.535
 20
7.68954
 11
337.698
 21
8.15454
  0
LINE
  8
0
 10
337.698
 20
8.15454
 11
337.96
 21
8.57167
  0
LINE
  8
0
 10
337.96
 20
8.57167
 11
338.308
 21
8.92003
  0
LINE
  8
0
 10
338.308
 20
8.92003
 11
338.725
 21
9.18213
  0
LINE
  8
0
 10
338.725
 20
9.18213
 11
339.19
 21
9.34483
  0
LINE
  8
0
 10
339.19
 20
9.34483
 11
339.68
 21
9.39999
  0
LINE
  8
0
 10
339.68
 20
9.39999
 11
340.17
 21
9.34483
  0
LINE
  8
0
 10
340.17
 20
9.34483
 11
340.635
 21
9.18213
  0
LINE
  8
0
 10
340.635
 20
9.18213
 11
341.052
 21
8.92003
  0
LINE
  8
0
 10
341.052
 20
8.92003
 11
341.4
 21
8.57167
  0
LINE
  8
0
 10
341.4
 20
8.57167
 11
341.662
 21
8.15454
  0
LINE
  8
0
 10
341.662
 20
8.15454
 11
341.825
 21
7.68954
  0
LINE
  8
0
 10
341.825
 20
7.68954
 11
341.88
 21
7.2
  0
LINE
  8
0
 10
341.88
 20
7.2
 11
341.825
 21
6.71045
  0
LINE
  8
0
 10
341.825
 20
6.71045
 11
341.662
 21
6.24545
  0
LINE
  8
0
 10
341.662
 20
6.24545
 11
341.4
 21
5.82831
  0
LINE
  8
0
 10
341.4
 20
5.82831
 11
341.052
 21
5.47997
  0
LINE
  8
0
 10
341.052
 20
5.47997
 11
340.635
 21
5.21786
  0
LINE
  8
0
 10
340.635
 20
5.21786
 11
340.17
 21
5.05515
  0
LINE
  8
0
 10
340.17
 20
5.05515
 11
339.68
 21
4.99998
  0
LINE
  8
0
 10
339.68
 20
4.99998
 11
339.19
 21
5.05515
  0
LINE
  8
0
 10
360.41
 20
5.05515
 11
359.945
 21
5.21786
  0
LINE
  8
0
 10
359.945
 20
5.21786
 11
359.528
 21
5.47997
  0
LINE
  8
0
 10
359.528
 20
5.47997
 11
359.18
 21
5.82831
  0
LINE
  8
0
 10
359.18
 20
5.82831
 11
358.918
 21
6.24545
  0
LINE
  8
0
 10
358.918
 20
6.24545
 11
358.755
 21
6.71045
  0
LINE
  8
0
 10
358.755
 20
6.71045
 11
358.7
 21
7.2
  0
LINE
  8
0
 10
358.7
 20
7.2
 11
358.755
 21
7.68954
  0
LINE
  8
0
 10
358.755
 20
7.68954
 11
358.918
 21
8.15454
  0
LINE
  8
0
 10
358.918
 20
8.15454
 11
359.18
 21
8.57167
  0
LINE
  8
0
 10
359.18
 20
8.57167
 11
359.528
 21
8.92003
  0
LINE
  8
0
 10
359.528
 20
8.92003
 11
359.945
 21
9.18213
  0
LINE
  8
0
 10
359.945
 20
9.18213
 11
360.41
 21
9.34483
  0
LINE
  8
0
 10
360.41
 20
9.34483
 11
360.9
 21
9.39999
  0
LINE
  8
0
 10
360.9
 20
9.39999
 11
361.39
 21
9.34483
  0
LINE
  8
0
 10
361.39
 20
9.34483
 11
361.855
 21
9.18213
  0
LINE
  8
0
 10
361.855
 20
9.18213
 11
362.272
 21
8.92003
  0
LINE
  8
0
 10
362.272
 20
8.92003
 11
362.62
 21
8.57167
  0
LINE
  8
0
 10
362.62
 20
8.57167
 11
362.882
 21
8.15454
  0
LINE
  8
0
 10
362.882
 20
8.15454
 11
363.045
 21
7.68954
  0
LINE
  8
0
 10
363.045
 20
7.68954
 11
363.1
 21
7.2
  0
LINE
  8
0
 10
363.1
 20
7.2
 11
363.045
 21
6.71045
  0
LINE
  8
0
 10
363.045
 20
6.71045
 11
362.882
 21
6.24545
  0
LINE
  8
0
 10
362.882
 20
6.24545
 11
362.62
 21
5.82831
  0
LINE
  8
0
 10
362.62
 20
5.82831
 11
362.272
 21
5.47997
  0
LINE
  8
0
 10
362.272
 20
5.47997
 11
361.855
 21
5.21786
  0
LINE
  8
0
 10
361.855
 20
5.21786
 11
361.39
 21
5.05515
  0
LINE
  8
0
 10
361.39
 20
5.05515
 11
360.9
 21
4.99998
  0
LINE
  8
0
 10
360.9
 20
4.99998
 11
360.41
 21
5.05515
  0
LINE
  8
0
 10
361.179
 20
-169.905
 11
363.341
 21
-169.62
  0
LINE
  8
0
 10
363.341
 20
-169.62
 11
365.47
 21
-169.148
  0
LINE
  8
0
 10
365.47
 20
-169.148
 11
367.55
 21
-168.492
  0
LINE
  8
0
 10
367.55
 20
-168.492
 11
369.565
 21
-167.658
  0
LINE
  8
0
 10
369.565
 20
-167.658
 11
371.5
 21
-166.651
  0
LINE
  8
0
 10
371.5
 20
-166.651
 11
373.339
 21
-165.479
  0
LINE
  8
0
 10
373.339
 20
-165.479
 11
375.07
 21
-164.151
  0
LINE
  8
0
 10
375.07
 20
-164.151
 11
376.678
 21
-162.678
  0
LINE
  8
0
 10
376.678
 20
-162.678
 11
378.151
 21
-161.07
  0
LINE
  8
0
 10
378.151
 20
-161.07
 11
379.479
 21
-159.339
  0
LINE
  8
0
 10
379.479
 20
-159.339
 11
380.651
 21
-157.5
  0
LINE
  8
0
 10
380.651
 20
-157.5
 11
381.658
 21
-155.565
  0
LINE
  8
0
 10
381.658
 20
-155.565
 11
382.492
 21
-153.55
  0
LINE
  8
0
 10
382.492
 20
-153.55
 11
383.148
 21
-151.47
  0
LINE
  8
0
 10
383.148
 20
-151.47
 11
383.62
 21
-149.341
  0
LINE
  8
0
 10
383.62
 20
-149.341
 11
383.905
 21
-147.179
  0
LINE
  8
0
 10
383.905
 20
-147.179
 11
384
 21
-145
  0
LINE
  8
0
 10
384
 20
-145
 11
384
 21
-4
  0
LINE
  8
0
 10
384
 20
-4
 11
329.565
 21
-4
  0
LINE
  8
0
 10
329.565
 20
-4
 11
329.565
 21
-6.24106
  0
LINE
  8
0
 10
329.565
 20
-6.24106
 11
329.45
 21
-6.7092
  0
LINE
  8
0
 10
329.45
 20
-6.7092
 11
329.226
 21
-7.13612
  0
LINE
  8
0
 10
329.226
 20
-7.13612
 11
328.906
 21
-7.49701
  0
LINE
  8
0
 10
328.906
 20
-7.49701
 11
328.509
 21
-7.7709
  0
LINE
  8
0
 10
328.509
 20
-7.7709
 11
328.059
 21
-7.94188
  0
LINE
  8
0
 10
328.059
 20
-7.94188
 11
327.58
 21
-8
  0
LINE
  8
0
 10
327.58
 20
-8
 11
327.101
 21
-7.94188
  0
LINE
  8
0
 10
327.101
 20
-7.94188
 11
326.651
 21
-7.7709
  0
LINE
  8
0
 10
326.651
 20
-7.7709
 11
326.254
 21
-7.49701
  0
LINE
  8
0
 10
326.254
 20
-7.49701
 11
325.934
 21
-7.13612
  0
LINE
  8
0
 10
325.934
 20
-7.13612
 11
325.71
 21
-6.7092
  0
LINE
  8
0
 10
325.71
 20
-6.7092
 11
325.595
 21
-6.24106
  0
LINE
  8
0
 10
325.595
 20
-6.24106
 11
325.595
 21
-4
  0
LINE
  8
0
 10
325.595
 20
-4
 11
318.67
 21
-4
  0
LINE
  8
0
 10
318.67
 20
-4
 11
318.67
 21
-7.24773
  0
LINE
  8
0
 10
318.67
 20
-7.24773
 11
318.588
 21
-7.73645
  0
LINE
  8
0
 10
318.588
 20
-7.73645
 11
318.427
 21
-8.20508
  0
LINE
  8
0
 10
318.427
 20
-8.20508
 11
318.191
 21
-8.64084
  0
LINE
  8
0
 10
318.191
 20
-8.64084
 11
317.887
 21
-9.03183
  0
LINE
  8
0
 10
317.887
 20
-9.03183
 11
317.523
 21
-9.36742
  0
LINE
  8
0
 10
317.523
 20
-9.36742
 11
317.108
 21
-9.63841
  0
LINE
  8
0
 10
317.108
 20
-9.63841
 11
316.654
 21
-9.83745
  0
LINE
  8
0
 10
316.654
 20
-9.83745
 11
316.174
 21
-9.95908
  0
LINE
  8
0
 10
316.174
 20
-9.95908
 11
315.68
 21
-10
  0
LINE
  8
0
 10
315.68
 20
-10
 11
315.186
 21
-9.95908
  0
LINE
  8
0
 10
315.186
 20
-9.95908
 11
314.706
 21
-9.83745
  0
LINE
  8
0
 10
314.706
 20
-9.83745
 11
314.252
 21
-9.63841
  0
LINE
  8
0
 10
314.252
 20
-9.63841
 11
313.837
 21
-9.36742
  0
LINE
  8
0
 10
313.837
 20
-9.36742
 11
313.473
 21
-9.03183
  0
LINE
  8
0
 10
313.473
 20
-9.03183
 11
313.168
 21
-8.64084
  0
LINE
  8
0
 10
313.168
 20
-8.64084
 11
312.933
 21
-8.20508
  0
LINE
  8
0
 10
312.933
 20
-8.20508
 11
312.772
 21
-7.73645
  0
LINE
  8
0
 10
312.772
 20
-7.73645
 11
312.69
 21
-7.24773
  0
LINE
  8
0
 10
312.69
 20
-7.24773
 11
312.69
 21
-4
  0
LINE
  8
0
 10
312.69
 20
-4
 11
0
 21
-4
  0
LINE
  8
0
 10
0
 20
-4
 11
0
 21
-18.4
  0
LINE
  8
0
 10
0
 20
-18.4
 11
2.5
 21
-18.4
  0
LINE
  8
0
 10
2.5
 20
-18.4
 11
2.98772
 21
-18.448
  0
LINE
  8
0
 10
2.98772
 20
-18.448
 11
3.4567
 21
-18.5903
  0
LINE
  8
0
 10
3.4567
 20
-18.5903
 11
3.88892
 21
-18.8213
  0
LINE
  8
0
 10
3.88892
 20
-18.8213
 11
4.26776
 21
-19.1322
  0
LINE
  8
0
 10
4.26776
 20
-19.1322
 11
4.57866
 21
-19.5111
  0
LINE
  8
0
 10
4.57866
 20
-19.5111
 11
4.80969
 21
-19.9433
  0
LINE
  8
0
 10
4.80969
 20
-19.9433
 11
4.95195
 21
-20.4123
  0
LINE
  8
0
 10
4.95195
 20
-20.4123
 11
5
 21
-20.9
  0
LINE
  8
0
 10
5
 20
-20.9
 11
4.95195
 21
-21.3877
  0
LINE
  8
0
 10
4.95195
 20
-21.3877
 11
4.80969
 21
-21.8567
  0
LINE
  8
0
 10
4.80969
 20
-21.8567
 11
4.57866
 21
-22.2889
  0
LINE
  8
0
 10
4.57866
 20
-22.2889
 11
4.26776
 21
-22.6678
  0
LINE
  8
0
 10
4.26776
 20
-22.6678
 11
3.88892
 21
-22.9787
  0
LINE
  8
0
 10
3.88892
 20
-22.9787
 11
3.4567
 21
-23.2097
  0
LINE
  8
0
 10
3.4567
 20
-23.2097
 11
2.98772
 21
-23.352
  0
LINE
  8
0
 10
2.98772
 20
-23.352
 11
2.49998
 21
-23.4
  0
LINE
  8
0
 10
2.49998
 20
-23.4
 11
0
 21
-23.4
  0
LINE
  8
0
 10
0
 20
-23.4
 11
0
 21
-28.4146
  0
LINE
  8
0
 10
0
 20
-28.4146
 11
2.24106
 21
-28.4146
  0
LINE
  8
0
 10
2.24106
 20
-28.4146
 11
2.7092
 21
-28.53
  0
LINE
  8
0
 10
2.7092
 20
-28.53
 11
3.13612
 21
-28.754
  0
LINE
  8
0
 10
3.13612
 20
-28.754
 11
3.49701
 21
-29.0737
  0
LINE
  8
0
 10
3.49701
 20
-29.0737
 11
3.7709
 21
-29.4706
  0
LINE
  8
0
 10
3.7709
 20
-29.4706
 11
3.94188
 21
-29.9214
  0
LINE
  8
0
 10
3.94188
 20
-29.9214
 11
4
 21
-30.4
  0
LINE
  8
0
 10
4
 20
-30.4
 11
3.94188
 21
-30.8786
  0
LINE
  8
0
 10
3.94188
 20
-30.8786
 11
3.7709
 21
-31.3294
  0
LINE
  8
0
 10
3.7709
 20
-31.3294
 11
3.49701
 21
-31.7262
  0
LINE
  8
0
 10
3.49701
 20
-31.7262
 11
3.13612
 21
-32.046
  0
LINE
  8
0
 10
3.13612
 20
-32.046
 11
2.7092
 21
-32.27
  0
LINE
  8
0
 10
2.7092
 20
-32.27
 11
2.24106
 21
-32.3854
  0
LINE
  8
0
 10
2.24106
 20
-32.3854
 11
0
 21
-32.3854
  0
LINE
  8
0
 10
0
 20
-32.3854
 11
0
 21
-91.9146
  0
LINE
  8
0
 10
0
 20
-91.9146
 11
2.24106
 21
-91.9146
  0
LINE
  8
0
 10
2.24106
 20
-91.9146
 11
2.7092
 21
-92.03
  0
LINE
  8
0
 10
2.7092
 20
-92.03
 11
3.13612
 21
-92.254
  0
LINE
  8
0
 10
3.13612
 20
-92.254
 11
3.49701
 21
-92.5737
  0
LINE
  8
0
 10
3.49701
 20
-92.5737
 11
3.7709
 21
-92.9706
  0
LINE
  8
0
 10
3.7709
 20
-92.9706
 11
3.94188
 21
-93.4214
  0
LINE
  8
0
 10
3.94188
 20
-93.4214
 11
4
 21
-93.9
  0
LINE
  8
0
 10
4
 20
-93.9
 11
3.94188
 21
-94.3786
  0
LINE
  8
0
 10
3.94188
 20
-94.3786
 11
3.7709
 21
-94.8294
  0
LINE
  8
0
 10
3.7709
 20
-94.8294
 11
3.49701
 21
-95.2262
  0
LINE
  8
0
 10
3.49701
 20
-95.2262
 11
3.13612
 21
-95.546
  0
LINE
  8
0
 10
3.13612
 20
-95.546
 11
2.7092
 21
-95.77
  0
LINE
  8
0
 10
2.7092
 20
-95.77
 11
2.24106
 21
-95.8854
  0
LINE
  8
0
 10
2.24106
 20
-95.8854
 11
0
 21
-95.8854
  0
LINE
  8
0
 10
0
 20
-95.8854
 11
0
 21
-103
  0
LINE
  8
0
 10
0
 20
-103
 11
3.5
 21
-103
  0
LINE
  8
0
 10
3.5
 20
-103
 11
3.99809
 21
-103.036
  0
LINE
  8
0
 10
3.99809
 20
-103.036
 11
4.48605
 21
-103.142
  0
LINE
  8
0
 10
4.48605
 20
-103.142
 11
4.95395
 21
-103.316
  0
LINE
  8
0
 10
4.95395
 20
-103.316
 11
5.39224
 21
-103.556
  0
LINE
  8
0
 10
5.39224
 20
-103.556
 11
5.79201
 21
-103.855
  0
LINE
  8
0
 10
5.79201
 20
-103.855
 11
6.14511
 21
-104.208
  0
LINE
  8
0
 10
6.14511
 20
-104.208
 11
6.44438
 21
-104.608
  0
LINE
  8
0
 10
6.44438
 20
-104.608
 11
6.6837
 21
-105.046
  0
LINE
  8
0
 10
6.6837
 20
-105.046
 11
6.85822
 21
-105.514
  0
LINE
  8
0
 10
6.85822
 20
-105.514
 11
6.96437
 21
-106.002
  0
LINE
  8
0
 10
6.96437
 20
-106.002
 11
7
 21
-106.5
  0
LINE
  8
0
 10
7
 20
-106.5
 11
6.96437
 21
-106.998
  0
LINE
  8
0
 10
6.96437
 20
-106.998
 11
6.85822
 21
-107.486
  0
LINE
  8
0
 10
6.85822
 20
-107.486
 11
6.6837
 21
-107.954
  0
LINE
  8
0
 10
6.6837
 20
-107.954
 11
6.44438
 21
-108.392
  0
LINE
  8
0
 10
6.44438
 20
-108.392
 11
6.14511
 21
-108.792
  0
LINE
  8
0
 10
6.14511
 20
-108.792
 11
5.79201
 21
-109.145
  0
LINE
  8
0
 10
5.79201
 20
-109.145
 11
5.39224
 21
-109.444
  0
LINE
  8
0
 10
5.39224
 20
-109.444
 11
4.95395
 21
-109.684
  0
LINE
  8
0
 10
4.95395
 20
-109.684
 11
4.48605
 21
-109.858
  0
LINE
  8
0
 10
4.48605
 20
-109.858
 11
3.99809
 21
-109.964
  0
LINE
  8
0
 10
3.99809
 20
-109.964
 11
3.49998
 21
-110
  0
LINE
  8
0
 10
3.49998
 20
-110
 11
0
 21
-110
  0
LINE
  8
0
 10
0
 20
-110
 11
0
 21
-170
  0
LINE
  8
0
 10
0
 20
-170
 11
359
 21
-170
  0
LINE
  8
0
 10
359
 20
-170
 11
361.179
 21
-169.905
  0
LINE
  8
0
 10
22.6104
 20
-13.3448
 11
22.1454
 21
-13.1821
  0
LINE
  8
0
 10
22.1454
 20
-13.1821
 11
21.7283
 21
-12.92
  0
LINE
  8
0
 10
21.7283
 20
-12.92
 11
21.38
 21
-12.5717
  0
LINE
  8
0
 10
21.38
 20
-12.5717
 11
21.1179
 21
-12.1545
  0
LINE
  8
0
 10
21.1179
 20
-12.1545
 11
20.9552
 21
-11.6895
  0
LINE
  8
0
 10
20.9552
 20
-11.6895
 11
20.9
 21
-11.2
  0
LINE
  8
0
 10
20.9
 20
-11.2
 11
20.9552
 21
-10.7104
  0
LINE
  8
0
 10
20.9552
 20
-10.7104
 11
21.1179
 21
-10.2455
  0
LINE
  8
0
 10
21.1179
 20
-10.2455
 11
21.38
 21
-9.82831
  0
LINE
  8
0
 10
21.38
 20
-9.82831
 11
21.7283
 21
-9.47997
  0
LINE
  8
0
 10
21.7283
 20
-9.47997
 11
22.1454
 21
-9.21786
  0
LINE
  8
0
 10
22.1454
 20
-9.21786
 11
22.6104
 21
-9.05515
  0
LINE
  8
0
 10
22.6104
 20
-9.05515
 11
23.1
 21
-8.99998
  0
LINE
  8
0
 10
23.1
 20
-8.99998
 11
23.5895
 21
-9.05515
  0
LINE
  8
0
 10
23.5895
 20
-9.05515
 11
24.0545
 21
-9.21786
  0
LINE
  8
0
 10
24.0545
 20
-9.21786
 11
24.4717
 21
-9.47997
  0
LINE
  8
0
 10
24.4717
 20
-9.47997
 11
24.82
 21
-9.82831
  0
LINE
  8
0
 10
24.82
 20
-9.82831
 11
25.0821
 21
-10.2455
  0
LINE
  8
0
 10
25.0821
 20
-10.2455
 11
25.2448
 21
-10.7104
  0
LINE
  8
0
 10
25.2448
 20
-10.7104
 11
25.3
 21
-11.2
  0
LINE
  8
0
 10
25.3
 20
-11.2
 11
25.2448
 21
-11.6895
  0
LINE
  8
0
 10
25.2448
 20
-11.6895
 11
25.0821
 21
-12.1545
  0
LINE
  8
0
 10
25.0821
 20
-12.1545
 11
24.82
 21
-12.5717
  0
LINE
  8
0
 10
24.82
 20
-12.5717
 11
24.4717
 21
-12.92
  0
LINE
  8
0
 10
24.4717
 20
-12.92
 11
24.0545
 21
-13.1821
  0
LINE
  8
0
 10
24.0545
 20
-13.1821
 11
23.5895
 21
-13.3448
  0
LINE
  8
0
 10
23.5895
 20
-13.3448
 11
23.1
 21
-13.4
  0
LINE
  8
0
 10
23.1
 20
-13.4
 11
22.6104
 21
-13.3448
  0
LINE
  8
0
 10
43.8304
 20
-13.3448
 11
43.3654
 21
-13.1821
  0
LINE
  8
0
 10
43.3654
 20
-13.1821
 11
42.9483
 21
-12.92
  0
LINE
  8
0
 10
42.9483
 20
-12.92
 11
42.6
 21
-12.5717
  0
LINE
  8
0
 10
42.6
 20
-12.5717
 11
42.3379
 21
-12.1545
  0
LINE
  8
0
 10
42.3379
 20
-12.1545
 11
42.1752
 21
-11.6895
  0
LINE
  8
0
 10
42.1752
 20
-11.6895
 11
42.12
 21
-11.2
  0
LINE
  8
0
 10
42.12
 20
-11.2
 11
42.1752
 21
-10.7104
  0
LINE
  8
0
 10
42.1752
 20
-10.7104
 11
42.3379
 21
-10.2455
  0
LINE
  8
0
 10
42.3379
 20
-10.2455
 11
42.6
 21
-9.82831
  0
LINE
  8
0
 10
42.6
 20
-9.82831
 11
42.9483
 21
-9.47997
  0
LINE
  8
0
 10
42.9483
 20
-9.47997
 11
43.3654
 21
-9.21786
  0
LINE
  8
0
 10
43.3654
 20
-9.21786
 11
43.8304
 21
-9.05515
  0
LINE
  8
0
 10
43.8304
 20
-9.05515
 11
44.32
 21
-8.99998
  0
LINE
  8
0
 10
44.32
 20
-8.99998
 11
44.8095
 21
-9.05515
  0
LINE
  8
0
 10
44.8095
 20
-9.05515
 11
45.2745
 21
-9.21786
  0
LINE
  8
0
 10
45.2745
 20
-9.21786
 11
45.6917
 21
-9.47997
  0
LINE
  8
0
 10
45.6917
 20
-9.47997
 11
46.04
 21
-9.82831
  0
LINE
  8
0
 10
46.04
 20
-9.82831
 11
46.3021
 21
-10.2455
  0
LINE
  8
0
 10
46.3021
 20
-10.2455
 11
46.4648
 21
-10.7104
  0
LINE
  8
0
 10
46.4648
 20
-10.7104
 11
46.52
 21
-11.2
  0
LINE
  8
0
 10
46.52
 20
-11.2
 11
46.4648
 21
-11.6895
  0
LINE
  8
0
 10
46.4648
 20
-11.6895
 11
46.3021
 21
-12.1545
  0
LINE
  8
0
 10
46.3021
 20
-12.1545
 11
46.04
 21
-12.5717
  0
LINE
  8
0
 10
46.04
 20
-12.5717
 11
45.6917
 21
-12.92
  0
LINE
  8
0
 10
45.6917
 20
-12.92
 11
45.2745
 21
-13.1821
  0
LINE
  8
0
 10
45.2745
 20
-13.1821
 11
44.8095
 21
-13.3448
  0
LINE
  8
0
 10
44.8095
 20
-13.3448
 11
44.32
 21
-13.4
  0
LINE
  8
0
 10
44.32
 20
-13.4
 11
43.8304
 21
-13.3448
  0
LINE
  8
0
 10
339.19
 20
-13.3448
 11
338.725
 21
-13.1821
  0
LINE
  8
0
 10
338.725
 20
-13.1821
 11
338.308
 21
-12.92
  0
LINE
  8
0
 10
338.308
 20
-12.92
 11
337.96
 21
-12.5717
  0
LINE
  8
0
 10
337.96
 20
-12.5717
 11
337.698
 21
-12.1545
  0
LINE
  8
0
 10
337.698
 20
-12.1545
 11
337.535
 21
-11.6895
  0
LINE
  8
0
 10
337.535
 20
-11.6895
 11
337.48
 21
-11.2
  0
LINE
  8
0
 10
337.48
 20
-11.2
 11
337.535
 21
-10.7104
  0
LINE
  8
0
 10
337.535
 20
-10.7104
 11
337.698
 21
-10.2455
  0
LINE
  8
0
 10
337.698
 20
-10.2455
 11
337.96
 21
-9.82831
  0
LINE
  8
0
 10
337.96
 20
-9.82831
 11
338.308
 21
-9.47997
  0
LINE
  8
0
 10
338.308
 20
-9.47997
 11
338.725
 21
-9.21786
  0
LINE
  8
0
 10
338.725
 20
-9.21786
 11
339.19
 21
-9.05515
  0
LINE
  8
0
 10
339.19
 20
-9.05515
 11
339.68
 21
-8.99998
  0
LINE
  8
0
 10
339.68
 20
-8.99998
 11
340.17
 21
-9.05515
  0
LINE
  8
0
 10
340.17
 20
-9.05515
 11
340.635
 21
-9.21786
  0
LINE
  8
0
 10
340.635
 20
-9.21786
 11
341.052
 21
-9.47997
  0
LINE
  8
0
 10
341.052
 20
-9.47997
 11
341.4
 21
-9.82831
  0
LINE
  8
0
 10
341.4
 20
-9.82831
 11
341.662
 21
-10.2455
  0
LINE
  8
0
 10
341.662
 20
-10.2455
 11
341.825
 21
-10.7104
  0
LINE
  8
0
 10
341.825
 20
-10.7104
 11
341.88
 21
-11.2
  0
LINE
  8
0
 10
341.88
 20
-11.2
 11
341.825
 21
-11.6895
  0
LINE
  8
0
 10
341.825
 20
-11.6895
 11
341.662
 21
-12.1545
  0
LINE
  8
0
 10
341.662
 20
-12.1545
 11
341.4
 21
-12.5717
  0
LINE
  8
0
 10
341.4
 20
-12.5717
 11
341.052
 21
-12.92
  0
LINE
  8
0
 10
341.052
 20
-12.92
 11
340.635
 21
-13.1821
  0
LINE
  8
0
 10
340.635
 20
-13.1821
 11
340.17
 21
-13.3448
  0
LINE
  8
0
 10
340.17
 20
-13.3448
 11
339.68
 21
-13.4
  0
LINE
  8
0
 10
339.68
 20
-13.4
 11
339.19
 21
-13.3448
  0
LINE
  8
0
 10
360.41
 20
-13.3448
 11
359.945
 21
-13.1821
  0
LINE
  8
0
 10
359.945
 20
-13.1821
 11
359.528
 21
-12.92
  0
LINE
  8
0
 10
359.528
 20
-12.92
 11
359.18
 21
-12.5717
  0
LINE
  8
0
 10
359.18
 20
-12.5717
 11
358.918
 21
-12.1545
  0
LINE
  8
0
 10
358.918
 20
-12.1545
 11
358.755
 21
-11.6895
  0
LINE
  8
0
 10
358.755
 20
-11.6895
 11
358.7
 21
-11.2
  0
LINE
  8
0
 10
358.7
 20
-11.2
 11
358.755
 21
-10.7104
  0
LINE
  8
0
 10
358.755
 20
-10.7104
 11
358.918
 21
-10.2455
  0
LINE
  8
0
 10
358.918
 20
-10.2455
 11
359.18
 21
-9.82831
  0
LINE
  8
0
 10
359.18
 20
-9.82831
 11
359.528
 21
-9.47997
  0
LINE
  8
0
 10
359.528
 20
-9.47997
 11
359.945
 21
-9.21786
  0
LINE
  8
0
 10
359.945
 20
-9.21786
 11
360.41
 21
-9.05515
  0
LINE
  8
0
 10
360.41
 20
-9.05515
 11
360.9
 21
-8.99998
  0
LINE
  8
0
 10
360.9
 20
-8.99998
 11
361.39
 21
-9.05515
  0
LINE
  8
0
 10
361.39
 20
-9.05515
 11
361.855
 21
-9.21786
  0
LINE
  8
0
 10
361.855
 20
-9.21786
 11
362.272
 21
-9.47997
  0
LINE
  8
0
 10
362.272
 20
-9.47997
 11
362.62
 21
-9.82831
  0
LINE
  8
0
 10
362.62
 20
-9.82831
 11
362.882
 21
-10.2455
  0
LINE
  8
0
 10
362.882
 20
-10.2455
 11
363.045
 21
-10.7104
  0
LINE
  8
0
 10
363.045
 20
-10.7104
 11
363.1
 21
-11.2
  0
LINE
  8
0
 10
363.1
 20
-11.2
 11
363.045
 21
-11.6895
  0
LINE
  8
0
 10
363.045
 20
-11.6895
 11
362.882
 21
-12.1545
  0
LINE
  8
0
 10
362.882
 20
-12.1545
 11
362.62
 21
-12.5717
  0
LINE
  8
0
 10
362.62
 20
-12.5717
 11
362.272
 21
-12.92
  0
LINE
  8
0
 10
362.272
 20
-12.92
 11
361.855
 21
-13.1821
  0
LINE
  8
0
 10
361.855
 20
-13.1821
 11
361.39
 21
-13.3448
  0
LINE
  8
0
 10
361.39
 20
-13.3448
 11
360.9
 21
-13.4
  0
LINE
  8
0
 10
360.9
 20
-13.4
 11
360.41
 21
-13.3448
  0
LINE
  8
0
 10
20.7572
 20
-31.0359
 11
20.3312
 21
-30.79
  0
LINE
  8
0
 10
20.3312
 20
-30.79
 11
19.9967
 21
-30.4295
  0
LINE
  8
0
 10
19.9967
 20
-30.4295
 11
19.7833
 21
-29.9863
  0
LINE
  8
0
 10
19.7833
 20
-29.9863
 11
19.71
 21
-29.5
  0
LINE
  8
0
 10
19.71
 20
-29.5
 11
19.7833
 21
-29.0136
  0
LINE
  8
0
 10
19.7833
 20
-29.0136
 11
19.9967
 21
-28.5705
  0
LINE
  8
0
 10
19.9967
 20
-28.5705
 11
20.3312
 21
-28.21
  0
LINE
  8
0
 10
20.3312
 20
-28.21
 11
20.7572
 21
-27.9641
  0
LINE
  8
0
 10
20.7572
 20
-27.9641
 11
21.2367
 21
-27.8546
  0
LINE
  8
0
 10
21.2367
 20
-27.8546
 11
21.7272
 21
-27.8914
  0
LINE
  8
0
 10
21.7272
 20
-27.8914
 11
22.185
 21
-28.071
  0
LINE
  8
0
 10
22.185
 20
-28.071
 11
22.5695
 21
-28.3777
  0
LINE
  8
0
 10
22.5695
 20
-28.3777
 11
22.8466
 21
-28.7841
  0
LINE
  8
0
 10
22.8466
 20
-28.7841
 11
22.9916
 21
-29.2541
  0
LINE
  8
0
 10
22.9916
 20
-29.2541
 11
22.9916
 21
-29.7459
  0
LINE
  8
0
 10
22.9916
 20
-29.7459
 11
22.8466
 21
-30.2159
  0
LINE
  8
0
 10
22.8466
 20
-30.2159
 11
22.5695
 21
-30.6223
  0
LINE
  8
0
 10
22.5695
 20
-30.6223
 11
22.185
 21
-30.9289
  0
LINE
  8
0
 10
22.185
 20
-30.9289
 11
21.7272
 21
-31.1086
  0
LINE
  8
0
 10
21.7272
 20
-31.1086
 11
21.2367
 21
-31.1454
  0
LINE
  8
0
 10
21.2367
 20
-31.1454
 11
20.7572
 21
-31.0359
  0
LINE
  8
0
 10
65.7572
 20
-31.0359
 11
65.3312
 21
-30.79
  0
LINE
  8
0
 10
65.3312
 20
-30.79
 11
64.9967
 21
-30.4295
  0
LINE
  8
0
 10
64.9967
 20
-30.4295
 11
64.7833
 21
-29.9863
  0
LINE
  8
0
 10
64.7833
 20
-29.9863
 11
64.71
 21
-29.5
  0
LINE
  8
0
 10
64.71
 20
-29.5
 11
64.7833
 21
-29.0136
  0
LINE
  8
0
 10
64.7833
 20
-29.0136
 11
64.9967
 21
-28.5705
  0
LINE
  8
0
 10
64.9967
 20
-28.5705
 11
65.3312
 21
-28.21
  0
LINE
  8
0
 10
65.3312
 20
-28.21
 11
65.7572
 21
-27.9641
  0
LINE
  8
0
 10
65.7572
 20
-27.9641
 11
66.2367
 21
-27.8546
  0
LINE
  8
0
 10
66.2367
 20
-27.8546
 11
66.7272
 21
-27.8914
  0
LINE
  8
0
 10
66.7272
 20
-27.8914
 11
67.185
 21
-28.071
  0
LINE
  8
0
 10
67.185
 20
-28.071
 11
67.5695
 21
-28.3777
  0
LINE
  8
0
 10
67.5695
 20
-28.3777
 11
67.8466
 21
-28.7841
  0
LINE
  8
0
 10
67.8466
 20
-28.7841
 11
67.9916
 21
-29.2541
  0
LINE
  8
0
 10
67.9916
 20
-29.2541
 11
67.9916
 21
-29.7459
  0
LINE
  8
0
 10
67.9916
 20
-29.7459
 11
67.8466
 21
-30.2159
  0
LINE
  8
0
 10
67.8466
 20
-30.2159
 11
67.5695
 21
-30.6223
  0
LINE
  8
0
 10
67.5695
 20
-30.6223
 11
67.185
 21
-30.9289
  0
LINE
  8
0
 10
67.185
 20
-30.9289
 11
66.7272
 21
-31.1086
  0
LINE
  8
0
 10
66.7272
 20
-31.1086
 11
66.2367
 21
-31.1454
  0
LINE
  8
0
 10
66.2367
 20
-31.1454
 11
65.7572
 21
-31.0359
  0
LINE
  8
0
 10
46.4104
 20
-73.6448
 11
45.9454
 21
-73.4821
  0
LINE
  8
0
 10
45.9454
 20
-73.4821
 11
45.5283
 21
-73.22
  0
LINE
  8
0
 10
45.5283
 20
-73.22
 11
45.18
 21
-72.8717
  0
LINE
  8
0
 10
45.18
 20
-72.8717
 11
44.9179
 21
-72.4545
  0
LINE
  8
0
 10
44.9179
 20
-72.4545
 11
44.7552
 21
-71.9895
  0
LINE
  8
0
 10
44.7552
 20
-71.9895
 11
44.7
 21
-71.5
  0
LINE
  8
0
 10
44.7
 20
-71.5
 11
44.7552
 21
-71.0105
  0
LINE
  8
0
 10
44.7552
 20
-71.0105
 11
44.9179
 21
-70.5455
  0
LINE
  8
0
 10
44.9179
 20
-70.5455
 11
45.18
 21
-70.1283
  0
LINE
  8
0
 10
45.18
 20
-70.1283
 11
45.5283
 21
-69.78
  0
LINE
  8
0
 10
45.5283
 20
-69.78
 11
45.9454
 21
-69.5179
  0
LINE
  8
0
 10
45.9454
 20
-69.5179
 11
46.4104
 21
-69.3551
  0
LINE
  8
0
 10
46.4104
 20
-69.3551
 11
46.9
 21
-69.3
  0
LINE
  8
0
 10
46.9
 20
-69.3
 11
47.3895
 21
-69.3551
  0
LINE
  8
0
 10
47.3895
 20
-69.3551
 11
47.8545
 21
-69.5179
  0
LINE
  8
0
 10
47.8545
 20
-69.5179
 11
48.2717
 21
-69.78
  0
LINE
  8
0
 10
48.2717
 20
-69.78
 11
48.62
 21
-70.1283
  0
LINE
  8
0
 10
48.62
 20
-70.1283
 11
48.8821
 21
-70.5455
  0
LINE
  8
0
 10
48.8821
 20
-70.5455
 11
49.0448
 21
-71.0105
  0
LINE
  8
0
 10
49.0448
 20
-71.0105
 11
49.1
 21
-71.5
  0
LINE
  8
0
 10
49.1
 20
-71.5
 11
49.0448
 21
-71.9895
  0
LINE
  8
0
 10
49.0448
 20
-71.9895
 11
48.8821
 21
-72.4545
  0
LINE
  8
0
 10
48.8821
 20
-72.4545
 11
48.62
 21
-72.8717
  0
LINE
  8
0
 10
48.62
 20
-72.8717
 11
48.2717
 21
-73.22
  0
LINE
  8
0
 10
48.2717
 20
-73.22
 11
47.8545
 21
-73.4821
  0
LINE
  8
0
 10
47.8545
 20
-73.4821
 11
47.3895
 21
-73.6448
  0
LINE
  8
0
 10
47.3895
 20
-73.6448
 11
46.9
 21
-73.7
  0
LINE
  8
0
 10
46.9
 20
-73.7
 11
46.4104
 21
-73.6448
  0
LINE
  8
0
 10
196.41
 20
-73.6448
 11
195.945
 21
-73.4821
  0
LINE
  8
0
 10
195.945
 20
-73.4821
 11
195.528
 21
-73.22
  0
LINE
  8
0
 10
195.528
 20
-73.22
 11
195.18
 21
-72.8717
  0
LINE
  8
0
 10
195.18
 20
-72.8717
 11
194.918
 21
-72.4545
  0
LINE
  8
0
 10
194.918
 20
-72.4545
 11
194.755
 21
-71.9895
  0
LINE
  8
0
 10
194.755
 20
-71.9895
 11
194.7
 21
-71.5
  0
LINE
  8
0
 10
194.7
 20
-71.5
 11
194.755
 21
-71.0105
  0
LINE
  8
0
 10
194.755
 20
-71.0105
 11
194.918
 21
-70.5455
  0
LINE
  8
0
 10
194.918
 20
-70.5455
 11
195.18
 21
-70.1283
  0
LINE
  8
0
 10
195.18
 20
-70.1283
 11
195.528
 21
-69.78
  0
LINE
  8
0
 10
195.528
 20
-69.78
 11
195.945
 21
-69.5179
  0
LINE
  8
0
 10
195.945
 20
-69.5179
 11
196.41
 21
-69.3551
  0
LINE
  8
0
 10
196.41
 20
-69.3551
 11
196.9
 21
-69.3
  0
LINE
  8
0
 10
196.9
 20
-69.3
 11
197.39
 21
-69.3551
  0
LINE
  8
0
 10
197.39
 20
-69.3551
 11
197.855
 21
-69.5179
  0
LINE
  8
0
 10
197.855
 20
-69.5179
 11
198.272
 21
-69.78
  0
LINE
  8
0
 10
198.272
 20
-69.78
 11
198.62
 21
-70.1283
  0
LINE
  8
0
 10
198.62
 20
-70.1283
 11
198.882
 21
-70.5455
  0
LINE
  8
0
 10
198.882
 20
-70.5455
 11
199.045
 21
-71.0105
  0
LINE
  8
0
 10
199.045
 20
-71.0105
 11
199.1
 21
-71.5
  0
LINE
  8
0
 10
199.1
 20
-71.5
 11
199.045
 21
-71.9895
  0
LINE
  8
0
 10
199.045
 20
-71.9895
 11
198.882
 21
-72.4545
  0
LINE
  8
0
 10
198.882
 20
-72.4545
 11
198.62
 21
-72.8717
  0
LINE
  8
0
 10
198.62
 20
-72.8717
 11
198.272
 21
-73.22
  0
LINE
  8
0
 10
198.272
 20
-73.22
 11
197.855
 21
-73.4821
  0
LINE
  8
0
 10
197.855
 20
-73.4821
 11
197.39
 21
-73.6448
  0
LINE
  8
0
 10
197.39
 20
-73.6448
 11
196.9
 21
-73.7
  0
LINE
  8
0
 10
196.9
 20
-73.7
 11
196.41
 21
-73.6448
  0
LINE
  8
0
 10
65.7572
 20
-100.036
 11
65.3312
 21
-99.79
  0
LINE
  8
0
 10
65.3312
 20
-99.79
 11
64.9967
 21
-99.4295
  0
LINE
  8
0
 10
64.9967
 20
-99.4295
 11
64.7833
 21
-98.9863
  0
LINE
  8
0
 10
64.7833
 20
-98.9863
 11
64.71
 21
-98.5
  0
LINE
  8
0
 10
64.71
 20
-98.5
 11
64.7833
 21
-98.0136
  0
LINE
  8
0
 10
64.7833
 20
-98.0136
 11
64.9967
 21
-97.5705
  0
LINE
  8
0
 10
64.9967
 20
-97.5705
 11
65.3312
 21
-97.21
  0
LINE
  8
0
 10
65.3312
 20
-97.21
 11
65.7572
 21
-96.9641
  0
LINE
  8
0
 10
65.7572
 20
-96.9641
 11
66.2367
 21
-96.8546
  0
LINE
  8
0
 10
66.2367
 20
-96.8546
 11
66.7272
 21
-96.8914
  0
LINE
  8
0
 10
66.7272
 20
-96.8914
 11
67.185
 21
-97.071
  0
LINE
  8
0
 10
67.185
 20
-97.071
 11
67.5695
 21
-97.3777
  0
LINE
  8
0
 10
67.5695
 20
-97.3777
 11
67.8466
 21
-97.7841
  0
LINE
  8
0
 10
67.8466
 20
-97.7841
 11
67.9916
 21
-98.2541
  0
LINE
  8
0
 10
67.9916
 20
-98.2541
 11
67.9916
 21
-98.7459
  0
LINE
  8
0
 10
67.9916
 20
-98.7459
 11
67.8466
 21
-99.2159
  0
LINE
  8
0
 10
67.8466
 20
-99.2159
 11
67.5695
 21
-99.6223
  0
LINE
  8
0
 10
67.5695
 20
-99.6223
 11
67.185
 21
-99.9289
  0
LINE
  8
0
 10
67.185
 20
-99.9289
 11
66.7272
 21
-100.109
  0
LINE
  8
0
 10
66.7272
 20
-100.109
 11
66.2367
 21
-100.145
  0
LINE
  8
0
 10
66.2367
 20
-100.145
 11
65.7572
 21
-100.036
  0
LINE
  8
0
 10
20.7572
 20
-105.036
 11
20.3312
 21
-104.79
  0
LINE
  8
0
 10
20.3312
 20
-104.79
 11
19.9967
 21
-104.429
  0
LINE
  8
0
 10
19.9967
 20
-104.429
 11
19.7833
 21
-103.986
  0
LINE
  8
0
 10
19.7833
 20
-103.986
 11
19.71
 21
-103.5
  0
LINE
  8
0
 10
19.71
 20
-103.5
 11
19.7833
 21
-103.014
  0
LINE
  8
0
 10
19.7833
 20
-103.014
 11
19.9967
 21
-102.571
  0
LINE
  8
0
 10
19.9967
 20
-102.571
 11
20.3312
 21
-102.21
  0
LINE
  8
0
 10
20.3312
 20
-102.21
 11
20.7572
 21
-101.964
  0
LINE
  8
0
 10
20.7572
 20
-101.964
 11
21.2367
 21
-101.855
  0
LINE
  8
0
 10
21.2367
 20
-101.855
 11
21.7272
 21
-101.891
  0
LINE
  8
0
 10
21.7272
 20
-101.891
 11
22.185
 21
-102.071
  0
LINE
  8
0
 10
22.185
 20
-102.071
 11
22.5695
 21
-102.378
  0
LINE
  8
0
 10
22.5695
 20
-102.378
 11
22.8466
 21
-102.784
  0
LINE
  8
0
 10
22.8466
 20
-102.784
 11
22.9916
 21
-103.254
  0
LINE
  8
0
 10
22.9916
 20
-103.254
 11
22.9916
 21
-103.746
  0
LINE
  8
0
 10
22.9916
 20
-103.746
 11
22.8466
 21
-104.216
  0
LINE
  8
0
 10
22.8466
 20
-104.216
 11
22.5695
 21
-104.622
  0
LINE
  8
0
 10
22.5695
 20
-104.622
 11
22.185
 21
-104.929
  0
LINE
  8
0
 10
22.185
 20
-104.929
 11
21.7272
 21
-105.109
  0
LINE
  8
0
 10
21.7272
 20
-105.109
 11
21.2367
 21
-105.145
  0
LINE
  8
0
 10
21.2367
 20
-105.145
 11
20.7572
 21
-105.036
  0
LINE
  8
0
 10
46.4104
 20
-123.645
 11
45.9454
 21
-123.482
  0
LINE
  8
0
 10
45.9454
 20
-123.482
 11
45.5283
 21
-123.22
  0
LINE
  8
0
 10
45.5283
 20
-123.22
 11
45.18
 21
-122.872
  0
LINE
  8
0
 10
45.18
 20
-122.872
 11
44.9179
 21
-122.455
  0
LINE
  8
0
 10
44.9179
 20
-122.455
 11
44.7552
 21
-121.99
  0
LINE
  8
0
 10
44.7552
 20
-121.99
 11
44.7
 21
-121.5
  0
LINE
  8
0
 10
44.7
 20
-121.5
 11
44.7552
 21
-121.01
  0
LINE
  8
0
 10
44.7552
 20
-121.01
 11
44.9179
 21
-120.545
  0
LINE
  8
0
 10
44.9179
 20
-120.545
 11
45.18
 21
-120.128
  0
LINE
  8
0
 10
45.18
 20
-120.128
 11
45.5283
 21
-119.78
  0
LINE
  8
0
 10
45.5283
 20
-119.78
 11
45.9454
 21
-119.518
  0
LINE
  8
0
 10
45.9454
 20
-119.518
 11
46.4104
 21
-119.355
  0
LINE
  8
0
 10
46.4104
 20
-119.355
 11
46.9
 21
-119.3
  0
LINE
  8
0
 10
46.9
 20
-119.3
 11
47.3895
 21
-119.355
  0
LINE
  8
0
 10
47.3895
 20
-119.355
 11
47.8545
 21
-119.518
  0
LINE
  8
0
 10
47.8545
 20
-119.518
 11
48.2717
 21
-119.78
  0
LINE
  8
0
 10
48.2717
 20
-119.78
 11
48.62
 21
-120.128
  0
LINE
  8
0
 10
48.62
 20
-120.128
 11
48.8821
 21
-120.545
  0
LINE
  8
0
 10
48.8821
 20
-120.545
 11
49.0448
 21
-121.01
  0
LINE
  8
0
 10
49.0448
 20
-121.01
 11
49.1
 21
-121.5
  0
LINE
  8
0
 10
49.1
 20
-121.5
 11
49.0448
 21
-121.99
  0
LINE
  8
0
 10
49.0448
 20
-121.99
 11
48.8821
 21
-122.455
  0
LINE
  8
0
 10
48.8821
 20
-122.455
 11
48.62
 21
-122.872
  0
LINE
  8
0
 10
48.62
 20
-122.872
 11
48.2717
 21
-123.22
  0
LINE
  8
0
 10
48.2717
 20
-123.22
 11
47.8545
 21
-123.482
  0
LINE
  8
0
 10
47.8545
 20
-123.482
 11
47.3895
 21
-123.645
  0
LINE
  8
0
 10
47.3895
 20
-123.645
 11
46.9
 21
-123.7
  0
LINE
  8
0
 10
46.9
 20
-123.7
 11
46.4104
 21
-123.645
  0
LINE
  8
0
 10
196.41
 20
-123.645
 11
195.945
 21
-123.482
  0
LINE
  8
0
 10
195.945
 20
-123.482
 11
195.528
 21
-123.22
  0
LINE
  8
0
 10
195.528
 20
-123.22
 11
195.18
 21
-122.872
  0
LINE
  8
0
 10
195.18
 20
-122.872
 11
194.918
 21
-122.455
  0
LINE
  8
0
 10
194.918
 20
-122.455
 11
194.755
 21
-121.99
  0
LINE
  8
0
 10
194.755
 20
-121.99
 11
194.7
 21
-121.5
  0
LINE
  8
0
 10
194.7
 20
-121.5
 11
194.755
 21
-121.01
  0
LINE
  8
0
 10
194.755
 20
-121.01
 11
194.918
 21
-120.545
  0
LINE
  8
0
 10
194.918
 20
-120.545
 11
195.18
 21
-120.128
  0
LINE
  8
0
 10
195.18
 20
-120.128
 11
195.528
 21
-119.78
  0
LINE
  8
0
 10
195.528
 20
-119.78
 11
195.945
 21
-119.518
  0
LINE
  8
0
 10
195.945
 20
-119.518
 11
196.41
 21
-119.355
  0
LINE
  8
0
 10
196.41
 20
-119.355
 11
196.9
 21
-119.3
  0
LINE
  8
0
 10
196.9
 20
-119.3
 11
197.39
 21
-119.355
  0
LINE
  8
0
 10
197.39
 20
-119.355
 11
197.855
 21
-119.518
  0
LINE
  8
0
 10
197.855
 20
-119.518
 11
198.272
 21
-119.78
  0
LINE
  8
0
 10
198.272
 20
-119.78
 11
198.62
 21
-120.128
  0
LINE
  8
0
 10
198.62
 20
-120.128
 11
198.882
 21
-120.545
  0
LINE
  8
0
 10
198.882
 20
-120.545
 11
199.045
 21
-121.01
  0
LINE
  8
0
 10
199.045
 20
-121.01
 11
199.1
 21
-121.5
  0
LINE
  8
0
 10
199.1
 20
-121.5
 11
199.045
 21
-121.99
  0
LINE
  8
0
 10
199.045
 20
-121.99
 11
198.882
 21
-122.455
  0
LINE
  8
0
 10
198.882
 20
-122.455
 11
198.62
 21
-122.872
  0
LINE
  8
0
 10
198.62
 20
-122.872
 11
198.272
 21
-123.22
  0
LINE
  8
0
 10
198.272
 20
-123.22
 11
197.855
 21
-123.482
  0
LINE
  8
0
 10
197.855
 20
-123.482
 11
197.39
 21
-123.645
  0
LINE
  8
0
 10
197.39
 20
-123.645
 11
196.9
 21
-123.7
  0
LINE
  8
0
 10
196.9
 20
-123.7
 11
196.41
 21
-123.645
  0
LINE
  8
0
 10
6.71045
 20
-142.225
 11
6.24545
 21
-142.062
  0
LINE
  8
0
 10
6.24545
 20
-142.062
 11
5.82831
 21
-141.8
  0
LINE
  8
0
 10
5.82831
 20
-141.8
 11
5.47997
 21
-141.452
  0
LINE
  8
0
 10
5.47997
 20
-141.452
 11
5.21786
 21
-141.035
  0
LINE
  8
0
 10
5.21786
 20
-141.035
 11
5.05515
 21
-140.57
  0
LINE
  8
0
 10
5.05515
 20
-140.57
 11
4.99998
 21
-140.08
  0
LINE
  8
0
 10
4.99998
 20
-140.08
 11
5.05515
 21
-139.59
  0
LINE
  8
0
 10
5.05515
 20
-139.59
 11
5.21786
 21
-139.125
  0
LINE
  8
0
 10
5.21786
 20
-139.125
 11
5.47997
 21
-138.708
  0
LINE
  8
0
 10
5.47997
 20
-138.708
 11
5.82831
 21
-138.36
  0
LINE
  8
0
 10
5.82831
 20
-138.36
 11
6.24545
 21
-138.098
  0
LINE
  8
0
 10
6.24545
 20
-138.098
 11
6.71045
 21
-137.935
  0
LINE
  8
0
 10
6.71045
 20
-137.935
 11
7.2
 21
-137.88
  0
LINE
  8
0
 10
7.2
 20
-137.88
 11
7.68954
 21
-137.935
  0
LINE
  8
0
 10
7.68954
 20
-137.935
 11
8.15454
 21
-138.098
  0
LINE
  8
0
 10
8.15454
 20
-138.098
 11
8.57167
 21
-138.36
  0
LINE
  8
0
 10
8.57167
 20
-138.36
 11
8.92003
 21
-138.708
  0
LINE
  8
0
 10
8.92003
 20
-138.708
 11
9.18213
 21
-139.125
  0
LINE
  8
0
 10
9.18213
 20
-139.125
 11
9.34483
 21
-139.59
  0
LINE
  8
0
 10
9.34483
 20
-139.59
 11
9.39999
 21
-140.08
  0
LINE
  8
0
 10
9.39999
 20
-140.08
 11
9.34483
 21
-140.57
  0
LINE
  8
0
 10
9.34483
 20
-140.57
 11
9.18213
 21
-141.035
  0
LINE
  8
0
 10
9.18213
 20
-141.035
 11
8.92003
 21
-141.452
  0
LINE
  8
0
 10
8.92003
 20
-141.452
 11
8.57167
 21
-141.8
  0
LINE
  8
0
 10
8.57167
 20
-141.8
 11
8.15454
 21
-142.062
  0
LINE
  8
0
 10
8.15454
 20
-142.062
 11
7.68954
 21
-142.225
  0
LINE
  8
0
 10
7.68954
 20
-142.225
 11
7.2
 21
-142.28
  0
LINE
  8
0
 10
7.2
 20
-142.28
 11
6.71045
 21
-142.225
  0
LINE
  8
0
 10
6.71045
 20
-163.445
 11
6.24545
 21
-163.282
  0
LINE
  8
0
 10
6.24545
 20
-163.282
 11
5.82831
 21
-163.02
  0
LINE
  8
0
 10
5.82831
 20
-163.02
 11
5.47997
 21
-162.672
  0
LINE
  8
0
 10
5.47997
 20
-162.672
 11
5.21786
 21
-162.255
  0
LINE
  8
0
 10
5.21786
 20
-162.255
 11
5.05515
 21
-161.79
  0
LINE
  8
0
 10
5.05515
 20
-161.79
 11
4.99998
 21
-161.3
  0
LINE
  8
0
 10
4.99998
 20
-161.3
 11
5.05515
 21
-160.81
  0
LINE
  8
0
 10
5.05515
 20
-160.81
 11
5.21786
 21
-160.345
  0
LINE
  8
0
 10
5.21786
 20
-160.345
 11
5.47997
 21
-159.928
  0
LINE
  8
0
 10
5.47997
 20
-159.928
 11
5.82831
 21
-159.58
  0
LINE
  8
0
 10
5.82831
 20
-159.58
 11
6.24545
 21
-159.318
  0
LINE
  8
0
 10
6.24545
 20
-159.318
 11
6.71045
 21
-159.155
  0
LINE
  8
0
 10
6.71045
 20
-159.155
 11
7.2
 21
-159.1
  0
LINE
  8
0
 10
7.2
 20
-159.1
 11
7.68954
 21
-159.155
  0
LINE
  8
0
 10
7.68954
 20
-159.155
 11
8.15454
 21
-159.318
  0
LINE
  8
0
 10
8.15454
 20
-159.318
 11
8.57167
 21
-159.58
  0
LINE
  8
0
 10
8.57167
 20
-159.58
 11
8.92003
 21
-159.928
  0
LINE
  8
0
 10
8.92003
 20
-159.928
 11
9.18213
 21
-160.345
  0
LINE
  8
0
 10
9.18213
 20
-160.345
 11
9.34483
 21
-160.81
  0
LINE
  8
0
 10
9.34483
 20
-160.81
 11
9.39999
 21
-161.3
  0
LINE
  8
0
 10
9.39999
 20
-161.3
 11
9.34483
 21
-161.79
  0
LINE
  8
0
 10
9.34483
 20
-161.79
 11
9.18213
 21
-162.255
  0
LINE
  8
0
 10
9.18213
 20
-162.255
 11
8.92003
 21
-162.672
  0
LINE
  8
0
 10
8.92003
 20
-162.672
 11
8.57167
 21
-163.02
  0
LINE
  8
0
 10
8.57167
 20
-163.02
 11
8.15454
 21
-163.282
  0
LINE
  8
0
 10
8.15454
 20
-163.282
 11
7.68954
 21
-163.445
  0
LINE
  8
0
 10
7.68954
 20
-163.445
 11
7.2
 21
-163.5
  0
LINE
  8
0
 10
7.2
 20
-163.5
 11
6.71045
 21
-163.445
  0
ENDSEC
  0
SECTION
  2
OBJECTS
  0
DICTIONARY
  0
ENDSEC
  0
EOF
