  0
SECTION
  2
BLOCKS
  0
ENDSEC
  0
SECTION
  2
ENTITIES
  0
LINE
  8
0
 10
-234.25
 20
0
 11
-195.63
 21
0
  0
LINE
  8
0
 10
-195.63
 20
0
 11
-195.63
 21
2.5
  0
LINE
  8
0
 10
-195.63
 20
2.5
 11
-195.582
 21
2.98773
  0
LINE
  8
0
 10
-195.582
 20
2.98773
 11
-195.44
 21
3.45671
  0
LINE
  8
0
 10
-195.44
 20
3.45671
 11
-195.209
 21
3.88893
  0
LINE
  8
0
 10
-195.209
 20
3.88893
 11
-194.898
 21
4.26777
  0
LINE
  8
0
 10
-194.898
 20
4.26777
 11
-194.519
 21
4.57867
  0
LINE
  8
0
 10
-194.519
 20
4.57867
 11
-194.087
 21
4.8097
  0
LINE
  8
0
 10
-194.087
 20
4.8097
 11
-193.618
 21
4.95196
  0
LINE
  8
0
 10
-193.618
 20
4.95196
 11
-193.13
 21
5
  0
LINE
  8
0
 10
-193.13
 20
5
 11
-192.642
 21
4.95196
  0
LINE
  8
0
 10
-192.642
 20
4.95196
 11
-192.173
 21
4.8097
  0
LINE
  8
0
 10
-192.173
 20
4.8097
 11
-191.741
 21
4.57867
  0
LINE
  8
0
 10
-191.741
 20
4.57867
 11
-191.362
 21
4.26777
  0
LINE
  8
0
 10
-191.362
 20
4.26777
 11
-191.051
 21
3.88893
  0
LINE
  8
0
 10
-191.051
 20
3.88893
 11
-190.82
 21
3.45671
  0
LINE
  8
0
 10
-190.82
 20
3.45671
 11
-190.678
 21
2.98773
  0
LINE
  8
0
 10
-190.678
 20
2.98773
 11
-190.63
 21
2.5
  0
LINE
  8
0
 10
-190.63
 20
2.5
 11
-190.63
 21
0
  0
LINE
  8
0
 10
-190.63
 20
0
 11
-131.75
 21
0
  0
LINE
  8
0
 10
-131.75
 20
0
 11
-131.75
 21
278.1
  0
LINE
  8
0
 10
-131.75
 20
278.1
 11
-131.744
 21
278.349
  0
LINE
  8
0
 10
-131.744
 20
278.349
 11
-131.694
 21
278.845
  0
LINE
  8
0
 10
-131.694
 20
278.845
 11
-131.595
 21
279.334
  0
LINE
  8
0
 10
-131.595
 20
279.334
 11
-131.448
 21
279.81
  0
LINE
  8
0
 10
-131.448
 20
279.81
 11
-131.255
 21
280.269
  0
LINE
  8
0
 10
-131.255
 20
280.269
 11
-131.016
 21
280.707
  0
LINE
  8
0
 10
-131.016
 20
280.707
 11
-130.736
 21
281.119
  0
LINE
  8
0
 10
-130.736
 20
281.119
 11
-130.415
 21
281.501
  0
LINE
  8
0
 10
-130.415
 20
281.501
 11
-130.058
 21
281.849
  0
LINE
  8
0
 10
-130.058
 20
281.849
 11
-129.669
 21
282.16
  0
LINE
  8
0
 10
-129.669
 20
282.16
 11
-129.25
 21
282.43
  0
LINE
  8
0
 10
-129.25
 20
282.43
 11
-128.806
 21
282.658
  0
LINE
  8
0
 10
-128.806
 20
282.658
 11
-128.342
 21
282.84
  0
LINE
  8
0
 10
-128.342
 20
282.84
 11
-127.863
 21
282.975
  0
LINE
  8
0
 10
-127.863
 20
282.975
 11
-127.372
 21
283.061
  0
LINE
  8
0
 10
-127.372
 20
283.061
 11
-126.875
 21
283.098
  0
LINE
  8
0
 10
-126.875
 20
283.098
 11
-126.75
 21
283.1
  0
LINE
  8
0
 10
-126.75
 20
283.1
 11
113.25
 21
283.1
  0
LINE
  8
0
 10
113.25
 20
283.1
 11
113.624
 21
283.086
  0
LINE
  8
0
 10
113.624
 20
283.086
 11
114.118
 21
283.024
  0
LINE
  8
0
 10
114.118
 20
283.024
 11
114.604
 21
282.913
  0
LINE
  8
0
 10
114.604
 20
282.913
 11
115.077
 21
282.754
  0
LINE
  8
0
 10
115.077
 20
282.754
 11
115.531
 21
282.549
  0
LINE
  8
0
 10
115.531
 20
282.549
 11
115.963
 21
282.3
  0
LINE
  8
0
 10
115.963
 20
282.3
 11
116.367
 21
282.009
  0
LINE
  8
0
 10
116.367
 20
282.009
 11
116.741
 21
281.679
  0
LINE
  8
0
 10
116.741
 20
281.679
 11
117.08
 21
281.314
  0
LINE
  8
0
 10
117.08
 20
281.314
 11
117.381
 21
280.917
  0
LINE
  8
0
 10
117.381
 20
280.917
 11
117.641
 21
280.491
  0
LINE
  8
0
 10
117.641
 20
280.491
 11
117.857
 21
280.042
  0
LINE
  8
0
 10
117.857
 20
280.042
 11
118.028
 21
279.574
  0
LINE
  8
0
 10
118.028
 20
279.574
 11
118.151
 21
279.091
  0
LINE
  8
0
 10
118.151
 20
279.091
 11
118.225
 21
278.598
  0
LINE
  8
0
 10
118.225
 20
278.598
 11
118.25
 21
278.1
  0
LINE
  8
0
 10
118.25
 20
278.1
 11
118.25
 21
0
  0
LINE
  8
0
 10
118.25
 20
0
 11
234.25
 21
0
  0
LINE
  8
0
 10
234.25
 20
0
 11
234.25
 21
359
  0
LINE
  8
0
 10
234.25
 20
359
 11
234.155
 21
361.179
  0
LINE
  8
0
 10
234.155
 20
361.179
 11
233.87
 21
363.341
  0
LINE
  8
0
 10
233.87
 20
363.341
 11
233.398
 21
365.47
  0
LINE
  8
0
 10
233.398
 20
365.47
 11
232.742
 21
367.551
  0
LINE
  8
0
 10
232.742
 20
367.551
 11
231.908
 21
369.565
  0
LINE
  8
0
 10
231.908
 20
369.565
 11
230.901
 21
371.5
  0
LINE
  8
0
 10
230.901
 20
371.5
 11
229.729
 21
373.339
  0
LINE
  8
0
 10
229.729
 20
373.339
 11
228.401
 21
375.07
  0
LINE
  8
0
 10
228.401
 20
375.07
 11
226.928
 21
376.678
  0
LINE
  8
0
 10
226.928
 20
376.678
 11
225.32
 21
378.151
  0
LINE
  8
0
 10
225.32
 20
378.151
 11
223.589
 21
379.479
  0
LINE
  8
0
 10
223.589
 20
379.479
 11
221.75
 21
380.651
  0
LINE
  8
0
 10
221.75
 20
380.651
 11
219.815
 21
381.658
  0
LINE
  8
0
 10
219.815
 20
381.658
 11
217.801
 21
382.492
  0
LINE
  8
0
 10
217.801
 20
382.492
 11
215.72
 21
383.148
  0
LINE
  8
0
 10
215.72
 20
383.148
 11
213.591
 21
383.62
  0
LINE
  8
0
 10
213.591
 20
383.62
 11
211.429
 21
383.905
  0
LINE
  8
0
 10
211.429
 20
383.905
 11
209.25
 21
384
  0
LINE
  8
0
 10
209.25
 20
384
 11
-209.25
 21
384
  0
LINE
  8
0
 10
-209.25
 20
384
 11
-211.429
 21
383.905
  0
LINE
  8
0
 10
-211.429
 20
383.905
 11
-213.591
 21
383.62
  0
LINE
  8
0
 10
-213.591
 20
383.62
 11
-215.72
 21
383.148
  0
LINE
  8
0
 10
-215.72
 20
383.148
 11
-217.801
 21
382.492
  0
LINE
  8
0
 10
-217.801
 20
382.492
 11
-219.815
 21
381.658
  0
LINE
  8
0
 10
-219.815
 20
381.658
 11
-221.75
 21
380.651
  0
LINE
  8
0
 10
-221.75
 20
380.651
 11
-223.589
 21
379.479
  0
LINE
  8
0
 10
-223.589
 20
379.479
 11
-225.32
 21
378.151
  0
LINE
  8
0
 10
-225.32
 20
378.151
 11
-226.928
 21
376.678
  0
LINE
  8
0
 10
-226.928
 20
376.678
 11
-228.401
 21
375.07
  0
LINE
  8
0
 10
-228.401
 20
375.07
 11
-229.729
 21
373.339
  0
LINE
  8
0
 10
-229.729
 20
373.339
 11
-230.901
 21
371.5
  0
LINE
  8
0
 10
-230.901
 20
371.5
 11
-231.908
 21
369.565
  0
LINE
  8
0
 10
-231.908
 20
369.565
 11
-232.742
 21
367.551
  0
LINE
  8
0
 10
-232.742
 20
367.551
 11
-233.398
 21
365.47
  0
LINE
  8
0
 10
-233.398
 20
365.47
 11
-233.87
 21
363.341
  0
LINE
  8
0
 10
-233.87
 20
363.341
 11
-234.155
 21
361.179
  0
LINE
  8
0
 10
-234.155
 20
361.179
 11
-234.25
 21
359
  0
LINE
  8
0
 10
-234.25
 20
359
 11
-234.25
 21
0
  0
LINE
  8
0
 10
-228.95
 20
110.1
 11
-228.895
 21
110.59
  0
LINE
  8
0
 10
-228.895
 20
110.59
 11
-228.732
 21
111.055
  0
LINE
  8
0
 10
-228.732
 20
111.055
 11
-228.47
 21
111.472
  0
LINE
  8
0
 10
-228.47
 20
111.472
 11
-228.122
 21
111.82
  0
LINE
  8
0
 10
-228.122
 20
111.82
 11
-227.705
 21
112.082
  0
LINE
  8
0
 10
-227.705
 20
112.082
 11
-227.24
 21
112.245
  0
LINE
  8
0
 10
-227.24
 20
112.245
 11
-226.75
 21
112.3
  0
LINE
  8
0
 10
-226.75
 20
112.3
 11
-226.26
 21
112.245
  0
LINE
  8
0
 10
-226.26
 20
112.245
 11
-225.795
 21
112.082
  0
LINE
  8
0
 10
-225.795
 20
112.082
 11
-225.378
 21
111.82
  0
LINE
  8
0
 10
-225.378
 20
111.82
 11
-225.03
 21
111.472
  0
LINE
  8
0
 10
-225.03
 20
111.472
 11
-224.768
 21
111.055
  0
LINE
  8
0
 10
-224.768
 20
111.055
 11
-224.605
 21
110.59
  0
LINE
  8
0
 10
-224.605
 20
110.59
 11
-224.55
 21
110.1
  0
LINE
  8
0
 10
-224.55
 20
110.1
 11
-224.605
 21
109.61
  0
LINE
  8
0
 10
-224.605
 20
109.61
 11
-224.768
 21
109.145
  0
LINE
  8
0
 10
-224.768
 20
109.145
 11
-225.03
 21
108.728
  0
LINE
  8
0
 10
-225.03
 20
108.728
 11
-225.378
 21
108.38
  0
LINE
  8
0
 10
-225.378
 20
108.38
 11
-225.795
 21
108.118
  0
LINE
  8
0
 10
-225.795
 20
108.118
 11
-226.26
 21
107.955
  0
LINE
  8
0
 10
-226.26
 20
107.955
 11
-226.75
 21
107.9
  0
LINE
  8
0
 10
-226.75
 20
107.9
 11
-227.24
 21
107.955
  0
LINE
  8
0
 10
-227.24
 20
107.955
 11
-227.705
 21
108.118
  0
LINE
  8
0
 10
-227.705
 20
108.118
 11
-228.122
 21
108.38
  0
LINE
  8
0
 10
-228.122
 20
108.38
 11
-228.47
 21
108.728
  0
LINE
  8
0
 10
-228.47
 20
108.728
 11
-228.732
 21
109.145
  0
LINE
  8
0
 10
-228.732
 20
109.145
 11
-228.895
 21
109.61
  0
LINE
  8
0
 10
-228.895
 20
109.61
 11
-228.95
 21
110.1
  0
LINE
  8
0
 10
-228.95
 20
151.5
 11
-228.895
 21
151.99
  0
LINE
  8
0
 10
-228.895
 20
151.99
 11
-228.732
 21
152.455
  0
LINE
  8
0
 10
-228.732
 20
152.455
 11
-228.47
 21
152.872
  0
LINE
  8
0
 10
-228.47
 20
152.872
 11
-228.122
 21
153.22
  0
LINE
  8
0
 10
-228.122
 20
153.22
 11
-227.705
 21
153.482
  0
LINE
  8
0
 10
-227.705
 20
153.482
 11
-227.24
 21
153.645
  0
LINE
  8
0
 10
-227.24
 20
153.645
 11
-226.75
 21
153.7
  0
LINE
  8
0
 10
-226.75
 20
153.7
 11
-226.26
 21
153.645
  0
LINE
  8
0
 10
-226.26
 20
153.645
 11
-225.795
 21
153.482
  0
LINE
  8
0
 10
-225.795
 20
153.482
 11
-225.378
 21
153.22
  0
LINE
  8
0
 10
-225.378
 20
153.22
 11
-225.03
 21
152.872
  0
LINE
  8
0
 10
-225.03
 20
152.872
 11
-224.768
 21
152.455
  0
LINE
  8
0
 10
-224.768
 20
152.455
 11
-224.605
 21
151.99
  0
LINE
  8
0
 10
-224.605
 20
151.99
 11
-224.55
 21
151.5
  0
LINE
  8
0
 10
-224.55
 20
151.5
 11
-224.605
 21
151.01
  0
LINE
  8
0
 10
-224.605
 20
151.01
 11
-224.768
 21
150.545
  0
LINE
  8
0
 10
-224.768
 20
150.545
 11
-225.03
 21
150.128
  0
LINE
  8
0
 10
-225.03
 20
150.128
 11
-225.378
 21
149.78
  0
LINE
  8
0
 10
-225.378
 20
149.78
 11
-225.795
 21
149.518
  0
LINE
  8
0
 10
-225.795
 20
149.518
 11
-226.26
 21
149.355
  0
LINE
  8
0
 10
-226.26
 20
149.355
 11
-226.75
 21
149.3
  0
LINE
  8
0
 10
-226.75
 20
149.3
 11
-227.24
 21
149.355
  0
LINE
  8
0
 10
-227.24
 20
149.355
 11
-227.705
 21
149.518
  0
LINE
  8
0
 10
-227.705
 20
149.518
 11
-228.122
 21
149.78
  0
LINE
  8
0
 10
-228.122
 20
149.78
 11
-228.47
 21
150.128
  0
LINE
  8
0
 10
-228.47
 20
150.128
 11
-228.732
 21
150.545
  0
LINE
  8
0
 10
-228.732
 20
150.545
 11
-228.895
 21
151.01
  0
LINE
  8
0
 10
-228.895
 20
151.01
 11
-228.95
 21
151.5
  0
LINE
  8
0
 10
-227.75
 20
7.2
 11
-227.695
 21
7.68955
  0
LINE
  8
0
 10
-227.695
 20
7.68955
 11
-227.532
 21
8.15454
  0
LINE
  8
0
 10
-227.532
 20
8.15454
 11
-227.27
 21
8.57168
  0
LINE
  8
0
 10
-227.27
 20
8.57168
 11
-226.922
 21
8.92003
  0
LINE
  8
0
 10
-226.922
 20
8.92003
 11
-226.505
 21
9.18213
  0
LINE
  8
0
 10
-226.505
 20
9.18213
 11
-226.04
 21
9.34484
  0
LINE
  8
0
 10
-226.04
 20
9.34484
 11
-225.55
 21
9.4
  0
LINE
  8
0
 10
-225.55
 20
9.4
 11
-225.06
 21
9.34484
  0
LINE
  8
0
 10
-225.06
 20
9.34484
 11
-224.595
 21
9.18213
  0
LINE
  8
0
 10
-224.595
 20
9.18213
 11
-224.178
 21
8.92003
  0
LINE
  8
0
 10
-224.178
 20
8.92003
 11
-223.83
 21
8.57168
  0
LINE
  8
0
 10
-223.83
 20
8.57168
 11
-223.568
 21
8.15454
  0
LINE
  8
0
 10
-223.568
 20
8.15454
 11
-223.405
 21
7.68955
  0
LINE
  8
0
 10
-223.405
 20
7.68955
 11
-223.35
 21
7.2
  0
LINE
  8
0
 10
-223.35
 20
7.2
 11
-223.405
 21
6.71045
  0
LINE
  8
0
 10
-223.405
 20
6.71045
 11
-223.568
 21
6.24546
  0
LINE
  8
0
 10
-223.568
 20
6.24546
 11
-223.83
 21
5.82832
  0
LINE
  8
0
 10
-223.83
 20
5.82832
 11
-224.178
 21
5.47997
  0
LINE
  8
0
 10
-224.178
 20
5.47997
 11
-224.595
 21
5.21787
  0
LINE
  8
0
 10
-224.595
 20
5.21787
 11
-225.06
 21
5.05516
  0
LINE
  8
0
 10
-225.06
 20
5.05516
 11
-225.55
 21
5
  0
LINE
  8
0
 10
-225.55
 20
5
 11
-226.04
 21
5.05516
  0
LINE
  8
0
 10
-226.04
 20
5.05516
 11
-226.505
 21
5.21787
  0
LINE
  8
0
 10
-226.505
 20
5.21787
 11
-226.922
 21
5.47997
  0
LINE
  8
0
 10
-226.922
 20
5.47997
 11
-227.27
 21
5.82832
  0
LINE
  8
0
 10
-227.27
 20
5.82832
 11
-227.532
 21
6.24546
  0
LINE
  8
0
 10
-227.532
 20
6.24546
 11
-227.695
 21
6.71045
  0
LINE
  8
0
 10
-227.695
 20
6.71045
 11
-227.75
 21
7.2
  0
LINE
  8
0
 10
-220
 20
56.5
 11
-220
 21
65.5
  0
LINE
  8
0
 10
-220
 20
65.5
 11
-219.945
 21
65.9895
  0
LINE
  8
0
 10
-219.945
 20
65.9895
 11
-219.782
 21
66.4545
  0
LINE
  8
0
 10
-219.782
 20
66.4545
 11
-219.52
 21
66.8717
  0
LINE
  8
0
 10
-219.52
 20
66.8717
 11
-219.172
 21
67.22
  0
LINE
  8
0
 10
-219.172
 20
67.22
 11
-218.755
 21
67.4821
  0
LINE
  8
0
 10
-218.755
 20
67.4821
 11
-218.29
 21
67.6448
  0
LINE
  8
0
 10
-218.29
 20
67.6448
 11
-217.8
 21
67.7
  0
LINE
  8
0
 10
-217.8
 20
67.7
 11
-217.31
 21
67.6448
  0
LINE
  8
0
 10
-217.31
 20
67.6448
 11
-216.845
 21
67.4821
  0
LINE
  8
0
 10
-216.845
 20
67.4821
 11
-216.428
 21
67.22
  0
LINE
  8
0
 10
-216.428
 20
67.22
 11
-216.08
 21
66.8717
  0
LINE
  8
0
 10
-216.08
 20
66.8717
 11
-215.818
 21
66.4545
  0
LINE
  8
0
 10
-215.818
 20
66.4545
 11
-215.655
 21
65.9895
  0
LINE
  8
0
 10
-215.655
 20
65.9895
 11
-215.6
 21
65.5
  0
LINE
  8
0
 10
-215.6
 20
65.5
 11
-215.6
 21
56.5
  0
LINE
  8
0
 10
-215.6
 20
56.5
 11
-215.655
 21
56.0105
  0
LINE
  8
0
 10
-215.655
 20
56.0105
 11
-215.818
 21
55.5455
  0
LINE
  8
0
 10
-215.818
 20
55.5455
 11
-216.08
 21
55.1283
  0
LINE
  8
0
 10
-216.08
 20
55.1283
 11
-216.428
 21
54.78
  0
LINE
  8
0
 10
-216.428
 20
54.78
 11
-216.845
 21
54.5179
  0
LINE
  8
0
 10
-216.845
 20
54.5179
 11
-217.31
 21
54.3552
  0
LINE
  8
0
 10
-217.31
 20
54.3552
 11
-217.8
 21
54.3
  0
LINE
  8
0
 10
-217.8
 20
54.3
 11
-218.29
 21
54.3552
  0
LINE
  8
0
 10
-218.29
 20
54.3552
 11
-218.755
 21
54.5179
  0
LINE
  8
0
 10
-218.755
 20
54.5179
 11
-219.172
 21
54.78
  0
LINE
  8
0
 10
-219.172
 20
54.78
 11
-219.52
 21
55.1283
  0
LINE
  8
0
 10
-219.52
 20
55.1283
 11
-219.782
 21
55.5455
  0
LINE
  8
0
 10
-219.782
 20
55.5455
 11
-219.945
 21
56.0105
  0
LINE
  8
0
 10
-219.945
 20
56.0105
 11
-220
 21
56.5
  0
LINE
  8
0
 10
-206.53
 20
7.2
 11
-206.475
 21
7.68955
  0
LINE
  8
0
 10
-206.475
 20
7.68955
 11
-206.312
 21
8.15454
  0
LINE
  8
0
 10
-206.312
 20
8.15454
 11
-206.05
 21
8.57168
  0
LINE
  8
0
 10
-206.05
 20
8.57168
 11
-205.702
 21
8.92003
  0
LINE
  8
0
 10
-205.702
 20
8.92003
 11
-205.285
 21
9.18213
  0
LINE
  8
0
 10
-205.285
 20
9.18213
 11
-204.82
 21
9.34484
  0
LINE
  8
0
 10
-204.82
 20
9.34484
 11
-204.33
 21
9.4
  0
LINE
  8
0
 10
-204.33
 20
9.4
 11
-203.84
 21
9.34484
  0
LINE
  8
0
 10
-203.84
 20
9.34484
 11
-203.375
 21
9.18213
  0
LINE
  8
0
 10
-203.375
 20
9.18213
 11
-202.958
 21
8.92003
  0
LINE
  8
0
 10
-202.958
 20
8.92003
 11
-202.61
 21
8.57168
  0
LINE
  8
0
 10
-202.61
 20
8.57168
 11
-202.348
 21
8.15454
  0
LINE
  8
0
 10
-202.348
 20
8.15454
 11
-202.185
 21
7.68955
  0
LINE
  8
0
 10
-202.185
 20
7.68955
 11
-202.13
 21
7.2
  0
LINE
  8
0
 10
-202.13
 20
7.2
 11
-202.185
 21
6.71045
  0
LINE
  8
0
 10
-202.185
 20
6.71045
 11
-202.348
 21
6.24546
  0
LINE
  8
0
 10
-202.348
 20
6.24546
 11
-202.61
 21
5.82832
  0
LINE
  8
0
 10
-202.61
 20
5.82832
 11
-202.958
 21
5.47997
  0
LINE
  8
0
 10
-202.958
 20
5.47997
 11
-203.375
 21
5.21787
  0
LINE
  8
0
 10
-203.375
 20
5.21787
 11
-203.84
 21
5.05516
  0
LINE
  8
0
 10
-203.84
 20
5.05516
 11
-204.33
 21
5
  0
LINE
  8
0
 10
-204.33
 20
5
 11
-204.82
 21
5.05516
  0
LINE
  8
0
 10
-204.82
 20
5.05516
 11
-205.285
 21
5.21787
  0
LINE
  8
0
 10
-205.285
 20
5.21787
 11
-205.702
 21
5.47997
  0
LINE
  8
0
 10
-205.702
 20
5.47997
 11
-206.05
 21
5.82832
  0
LINE
  8
0
 10
-206.05
 20
5.82832
 11
-206.312
 21
6.24546
  0
LINE
  8
0
 10
-206.312
 20
6.24546
 11
-206.475
 21
6.71045
  0
LINE
  8
0
 10
-206.475
 20
6.71045
 11
-206.53
 21
7.2
  0
LINE
  8
0
 10
-202.75
 20
73
 11
-202.692
 21
73.4786
  0
LINE
  8
0
 10
-202.692
 20
73.4786
 11
-202.521
 21
73.9294
  0
LINE
  8
0
 10
-202.521
 20
73.9294
 11
-202.247
 21
74.3262
  0
LINE
  8
0
 10
-202.247
 20
74.3262
 11
-201.886
 21
74.646
  0
LINE
  8
0
 10
-201.886
 20
74.646
 11
-201.459
 21
74.87
  0
LINE
  8
0
 10
-201.459
 20
74.87
 11
-200.991
 21
74.9854
  0
LINE
  8
0
 10
-200.991
 20
74.9854
 11
-200.509
 21
74.9854
  0
LINE
  8
0
 10
-200.509
 20
74.9854
 11
-200.041
 21
74.87
  0
LINE
  8
0
 10
-200.041
 20
74.87
 11
-199.614
 21
74.646
  0
LINE
  8
0
 10
-199.614
 20
74.646
 11
-199.253
 21
74.3262
  0
LINE
  8
0
 10
-199.253
 20
74.3262
 11
-198.979
 21
73.9294
  0
LINE
  8
0
 10
-198.979
 20
73.9294
 11
-198.808
 21
73.4786
  0
LINE
  8
0
 10
-198.808
 20
73.4786
 11
-198.75
 21
73
  0
LINE
  8
0
 10
-198.75
 20
73
 11
-198.808
 21
72.5214
  0
LINE
  8
0
 10
-198.808
 20
72.5214
 11
-198.979
 21
72.0706
  0
LINE
  8
0
 10
-198.979
 20
72.0706
 11
-199.253
 21
71.6738
  0
LINE
  8
0
 10
-199.253
 20
71.6738
 11
-199.614
 21
71.354
  0
LINE
  8
0
 10
-199.614
 20
71.354
 11
-200.041
 21
71.13
  0
LINE
  8
0
 10
-200.041
 20
71.13
 11
-200.509
 21
71.0146
  0
LINE
  8
0
 10
-200.509
 20
71.0146
 11
-200.991
 21
71.0146
  0
LINE
  8
0
 10
-200.991
 20
71.0146
 11
-201.459
 21
71.13
  0
LINE
  8
0
 10
-201.459
 20
71.13
 11
-201.886
 21
71.354
  0
LINE
  8
0
 10
-201.886
 20
71.354
 11
-202.247
 21
71.6738
  0
LINE
  8
0
 10
-202.247
 20
71.6738
 11
-202.521
 21
72.0706
  0
LINE
  8
0
 10
-202.521
 20
72.0706
 11
-202.692
 21
72.5214
  0
LINE
  8
0
 10
-202.692
 20
72.5214
 11
-202.75
 21
73
  0
LINE
  8
0
 10
-196.75
 20
367
 11
-196.692
 21
367.479
  0
LINE
  8
0
 10
-196.692
 20
367.479
 11
-196.521
 21
367.929
  0
LINE
  8
0
 10
-196.521
 20
367.929
 11
-196.247
 21
368.326
  0
LINE
  8
0
 10
-196.247
 20
368.326
 11
-195.886
 21
368.646
  0
LINE
  8
0
 10
-195.886
 20
368.646
 11
-195.459
 21
368.87
  0
LINE
  8
0
 10
-195.459
 20
368.87
 11
-194.991
 21
368.985
  0
LINE
  8
0
 10
-194.991
 20
368.985
 11
-194.509
 21
368.985
  0
LINE
  8
0
 10
-194.509
 20
368.985
 11
-194.041
 21
368.87
  0
LINE
  8
0
 10
-194.041
 20
368.87
 11
-193.614
 21
368.646
  0
LINE
  8
0
 10
-193.614
 20
368.646
 11
-193.253
 21
368.326
  0
LINE
  8
0
 10
-193.253
 20
368.326
 11
-192.979
 21
367.929
  0
LINE
  8
0
 10
-192.979
 20
367.929
 11
-192.808
 21
367.479
  0
LINE
  8
0
 10
-192.808
 20
367.479
 11
-192.75
 21
367
  0
LINE
  8
0
 10
-192.75
 20
367
 11
-192.808
 21
366.521
  0
LINE
  8
0
 10
-192.808
 20
366.521
 11
-192.979
 21
366.071
  0
LINE
  8
0
 10
-192.979
 20
366.071
 11
-193.253
 21
365.674
  0
LINE
  8
0
 10
-193.253
 20
365.674
 11
-193.614
 21
365.354
  0
LINE
  8
0
 10
-193.614
 20
365.354
 11
-194.041
 21
365.13
  0
LINE
  8
0
 10
-194.041
 20
365.13
 11
-194.509
 21
365.015
  0
LINE
  8
0
 10
-194.509
 20
365.015
 11
-194.991
 21
365.015
  0
LINE
  8
0
 10
-194.991
 20
365.015
 11
-195.459
 21
365.13
  0
LINE
  8
0
 10
-195.459
 20
365.13
 11
-195.886
 21
365.354
  0
LINE
  8
0
 10
-195.886
 20
365.354
 11
-196.247
 21
365.674
  0
LINE
  8
0
 10
-196.247
 20
365.674
 11
-196.521
 21
366.071
  0
LINE
  8
0
 10
-196.521
 20
366.071
 11
-196.692
 21
366.521
  0
LINE
  8
0
 10
-196.692
 20
366.521
 11
-196.75
 21
367
  0
LINE
  8
0
 10
-195.5
 20
376.5
 11
-195.445
 21
376.99
  0
LINE
  8
0
 10
-195.445
 20
376.99
 11
-195.282
 21
377.455
  0
LINE
  8
0
 10
-195.282
 20
377.455
 11
-195.02
 21
377.872
  0
LINE
  8
0
 10
-195.02
 20
377.872
 11
-194.672
 21
378.22
  0
LINE
  8
0
 10
-194.672
 20
378.22
 11
-194.255
 21
378.482
  0
LINE
  8
0
 10
-194.255
 20
378.482
 11
-193.79
 21
378.645
  0
LINE
  8
0
 10
-193.79
 20
378.645
 11
-193.3
 21
378.7
  0
LINE
  8
0
 10
-193.3
 20
378.7
 11
-192.81
 21
378.645
  0
LINE
  8
0
 10
-192.81
 20
378.645
 11
-192.345
 21
378.482
  0
LINE
  8
0
 10
-192.345
 20
378.482
 11
-191.928
 21
378.22
  0
LINE
  8
0
 10
-191.928
 20
378.22
 11
-191.58
 21
377.872
  0
LINE
  8
0
 10
-191.58
 20
377.872
 11
-191.318
 21
377.455
  0
LINE
  8
0
 10
-191.318
 20
377.455
 11
-191.155
 21
376.99
  0
LINE
  8
0
 10
-191.155
 20
376.99
 11
-191.1
 21
376.5
  0
LINE
  8
0
 10
-191.1
 20
376.5
 11
-191.155
 21
376.01
  0
LINE
  8
0
 10
-191.155
 20
376.01
 11
-191.318
 21
375.545
  0
LINE
  8
0
 10
-191.318
 20
375.545
 11
-191.58
 21
375.128
  0
LINE
  8
0
 10
-191.58
 20
375.128
 11
-191.928
 21
374.78
  0
LINE
  8
0
 10
-191.928
 20
374.78
 11
-192.345
 21
374.518
  0
LINE
  8
0
 10
-192.345
 20
374.518
 11
-192.81
 21
374.355
  0
LINE
  8
0
 10
-192.81
 20
374.355
 11
-193.3
 21
374.3
  0
LINE
  8
0
 10
-193.3
 20
374.3
 11
-193.79
 21
374.355
  0
LINE
  8
0
 10
-193.79
 20
374.355
 11
-194.255
 21
374.518
  0
LINE
  8
0
 10
-194.255
 20
374.518
 11
-194.672
 21
374.78
  0
LINE
  8
0
 10
-194.672
 20
374.78
 11
-195.02
 21
375.128
  0
LINE
  8
0
 10
-195.02
 20
375.128
 11
-195.282
 21
375.545
  0
LINE
  8
0
 10
-195.282
 20
375.545
 11
-195.445
 21
376.01
  0
LINE
  8
0
 10
-195.445
 20
376.01
 11
-195.5
 21
376.5
  0
LINE
  8
0
 10
-189.9
 20
56.5
 11
-189.9
 21
65.5
  0
LINE
  8
0
 10
-189.9
 20
65.5
 11
-189.845
 21
65.9895
  0
LINE
  8
0
 10
-189.845
 20
65.9895
 11
-189.682
 21
66.4545
  0
LINE
  8
0
 10
-189.682
 20
66.4545
 11
-189.42
 21
66.8717
  0
LINE
  8
0
 10
-189.42
 20
66.8717
 11
-189.072
 21
67.22
  0
LINE
  8
0
 10
-189.072
 20
67.22
 11
-188.655
 21
67.4821
  0
LINE
  8
0
 10
-188.655
 20
67.4821
 11
-188.19
 21
67.6448
  0
LINE
  8
0
 10
-188.19
 20
67.6448
 11
-187.7
 21
67.7
  0
LINE
  8
0
 10
-187.7
 20
67.7
 11
-187.21
 21
67.6448
  0
LINE
  8
0
 10
-187.21
 20
67.6448
 11
-186.745
 21
67.4821
  0
LINE
  8
0
 10
-186.745
 20
67.4821
 11
-186.328
 21
67.22
  0
LINE
  8
0
 10
-186.328
 20
67.22
 11
-185.98
 21
66.8717
  0
LINE
  8
0
 10
-185.98
 20
66.8717
 11
-185.718
 21
66.4545
  0
LINE
  8
0
 10
-185.718
 20
66.4545
 11
-185.555
 21
65.9895
  0
LINE
  8
0
 10
-185.555
 20
65.9895
 11
-185.5
 21
65.5
  0
LINE
  8
0
 10
-185.5
 20
65.5
 11
-185.5
 21
56.5
  0
LINE
  8
0
 10
-185.5
 20
56.5
 11
-185.555
 21
56.0105
  0
LINE
  8
0
 10
-185.555
 20
56.0105
 11
-185.718
 21
55.5455
  0
LINE
  8
0
 10
-185.718
 20
55.5455
 11
-185.98
 21
55.1283
  0
LINE
  8
0
 10
-185.98
 20
55.1283
 11
-186.328
 21
54.78
  0
LINE
  8
0
 10
-186.328
 20
54.78
 11
-186.745
 21
54.5179
  0
LINE
  8
0
 10
-186.745
 20
54.5179
 11
-187.21
 21
54.3552
  0
LINE
  8
0
 10
-187.21
 20
54.3552
 11
-187.7
 21
54.3
  0
LINE
  8
0
 10
-187.7
 20
54.3
 11
-188.19
 21
54.3552
  0
LINE
  8
0
 10
-188.19
 20
54.3552
 11
-188.655
 21
54.5179
  0
LINE
  8
0
 10
-188.655
 20
54.5179
 11
-189.072
 21
54.78
  0
LINE
  8
0
 10
-189.072
 20
54.78
 11
-189.42
 21
55.1283
  0
LINE
  8
0
 10
-189.42
 20
55.1283
 11
-189.682
 21
55.5455
  0
LINE
  8
0
 10
-189.682
 20
55.5455
 11
-189.845
 21
56.0105
  0
LINE
  8
0
 10
-189.845
 20
56.0105
 11
-189.9
 21
56.5
  0
LINE
  8
0
 10
-174.2
 20
33.71
 11
-174.145
 21
34.1995
  0
LINE
  8
0
 10
-174.145
 20
34.1995
 11
-173.982
 21
34.6645
  0
LINE
  8
0
 10
-173.982
 20
34.6645
 11
-173.72
 21
35.0817
  0
LINE
  8
0
 10
-173.72
 20
35.0817
 11
-173.372
 21
35.43
  0
LINE
  8
0
 10
-173.372
 20
35.43
 11
-172.955
 21
35.6921
  0
LINE
  8
0
 10
-172.955
 20
35.6921
 11
-172.49
 21
35.8548
  0
LINE
  8
0
 10
-172.49
 20
35.8548
 11
-172
 21
35.91
  0
LINE
  8
0
 10
-172
 20
35.91
 11
-171.51
 21
35.8548
  0
LINE
  8
0
 10
-171.51
 20
35.8548
 11
-171.045
 21
35.6921
  0
LINE
  8
0
 10
-171.045
 20
35.6921
 11
-170.628
 21
35.43
  0
LINE
  8
0
 10
-170.628
 20
35.43
 11
-170.28
 21
35.0817
  0
LINE
  8
0
 10
-170.28
 20
35.0817
 11
-170.018
 21
34.6645
  0
LINE
  8
0
 10
-170.018
 20
34.6645
 11
-169.855
 21
34.1995
  0
LINE
  8
0
 10
-169.855
 20
34.1995
 11
-169.8
 21
33.71
  0
LINE
  8
0
 10
-169.8
 20
33.71
 11
-169.855
 21
33.2205
  0
LINE
  8
0
 10
-169.855
 20
33.2205
 11
-170.018
 21
32.7555
  0
LINE
  8
0
 10
-170.018
 20
32.7555
 11
-170.28
 21
32.3383
  0
LINE
  8
0
 10
-170.28
 20
32.3383
 11
-170.628
 21
31.99
  0
LINE
  8
0
 10
-170.628
 20
31.99
 11
-171.045
 21
31.7279
  0
LINE
  8
0
 10
-171.045
 20
31.7279
 11
-171.51
 21
31.5652
  0
LINE
  8
0
 10
-171.51
 20
31.5652
 11
-172
 21
31.51
  0
LINE
  8
0
 10
-172
 20
31.51
 11
-172.49
 21
31.5652
  0
LINE
  8
0
 10
-172.49
 20
31.5652
 11
-172.955
 21
31.7279
  0
LINE
  8
0
 10
-172.955
 20
31.7279
 11
-173.372
 21
31.99
  0
LINE
  8
0
 10
-173.372
 20
31.99
 11
-173.72
 21
32.3383
  0
LINE
  8
0
 10
-173.72
 20
32.3383
 11
-173.982
 21
32.7555
  0
LINE
  8
0
 10
-173.982
 20
32.7555
 11
-174.145
 21
33.2205
  0
LINE
  8
0
 10
-174.145
 20
33.2205
 11
-174.2
 21
33.71
  0
LINE
  8
0
 10
-174.2
 20
350.29
 11
-174.145
 21
350.78
  0
LINE
  8
0
 10
-174.145
 20
350.78
 11
-173.982
 21
351.245
  0
LINE
  8
0
 10
-173.982
 20
351.245
 11
-173.72
 21
351.662
  0
LINE
  8
0
 10
-173.72
 20
351.662
 11
-173.372
 21
352.01
  0
LINE
  8
0
 10
-173.372
 20
352.01
 11
-172.955
 21
352.272
  0
LINE
  8
0
 10
-172.955
 20
352.272
 11
-172.49
 21
352.435
  0
LINE
  8
0
 10
-172.49
 20
352.435
 11
-172
 21
352.49
  0
LINE
  8
0
 10
-172
 20
352.49
 11
-171.51
 21
352.435
  0
LINE
  8
0
 10
-171.51
 20
352.435
 11
-171.045
 21
352.272
  0
LINE
  8
0
 10
-171.045
 20
352.272
 11
-170.628
 21
352.01
  0
LINE
  8
0
 10
-170.628
 20
352.01
 11
-170.28
 21
351.662
  0
LINE
  8
0
 10
-170.28
 20
351.662
 11
-170.018
 21
351.245
  0
LINE
  8
0
 10
-170.018
 20
351.245
 11
-169.855
 21
350.78
  0
LINE
  8
0
 10
-169.855
 20
350.78
 11
-169.8
 21
350.29
  0
LINE
  8
0
 10
-169.8
 20
350.29
 11
-169.855
 21
349.8
  0
LINE
  8
0
 10
-169.855
 20
349.8
 11
-170.018
 21
349.335
  0
LINE
  8
0
 10
-170.018
 20
349.335
 11
-170.28
 21
348.918
  0
LINE
  8
0
 10
-170.28
 20
348.918
 11
-170.628
 21
348.57
  0
LINE
  8
0
 10
-170.628
 20
348.57
 11
-171.045
 21
348.308
  0
LINE
  8
0
 10
-171.045
 20
348.308
 11
-171.51
 21
348.145
  0
LINE
  8
0
 10
-171.51
 20
348.145
 11
-172
 21
348.09
  0
LINE
  8
0
 10
-172
 20
348.09
 11
-172.49
 21
348.145
  0
LINE
  8
0
 10
-172.49
 20
348.145
 11
-172.955
 21
348.308
  0
LINE
  8
0
 10
-172.955
 20
348.308
 11
-173.372
 21
348.57
  0
LINE
  8
0
 10
-173.372
 20
348.57
 11
-173.72
 21
348.918
  0
LINE
  8
0
 10
-173.72
 20
348.918
 11
-173.982
 21
349.335
  0
LINE
  8
0
 10
-173.982
 20
349.335
 11
-174.145
 21
349.8
  0
LINE
  8
0
 10
-174.145
 20
349.8
 11
-174.2
 21
350.29
  0
LINE
  8
0
 10
-169.695
 20
324.804
 11
-169.574
 21
325.283
  0
LINE
  8
0
 10
-169.574
 20
325.283
 11
-169.304
 21
325.696
  0
LINE
  8
0
 10
-169.304
 20
325.696
 11
-168.914
 21
325.999
  0
LINE
  8
0
 10
-168.914
 20
325.999
 11
-168.447
 21
326.16
  0
LINE
  8
0
 10
-168.447
 20
326.16
 11
-167.953
 21
326.16
  0
LINE
  8
0
 10
-167.953
 20
326.16
 11
-167.486
 21
325.999
  0
LINE
  8
0
 10
-167.486
 20
325.999
 11
-167.096
 21
325.696
  0
LINE
  8
0
 10
-167.096
 20
325.696
 11
-166.826
 21
325.283
  0
LINE
  8
0
 10
-166.826
 20
325.283
 11
-166.705
 21
324.804
  0
LINE
  8
0
 10
-166.705
 20
324.804
 11
-166.746
 21
324.312
  0
LINE
  8
0
 10
-166.746
 20
324.312
 11
-166.944
 21
323.86
  0
LINE
  8
0
 10
-166.944
 20
323.86
 11
-167.279
 21
323.496
  0
LINE
  8
0
 10
-167.279
 20
323.496
 11
-167.713
 21
323.261
  0
LINE
  8
0
 10
-167.713
 20
323.261
 11
-168.2
 21
323.18
  0
LINE
  8
0
 10
-168.2
 20
323.18
 11
-168.687
 21
323.261
  0
LINE
  8
0
 10
-168.687
 20
323.261
 11
-169.121
 21
323.496
  0
LINE
  8
0
 10
-169.121
 20
323.496
 11
-169.456
 21
323.86
  0
LINE
  8
0
 10
-169.456
 20
323.86
 11
-169.654
 21
324.312
  0
LINE
  8
0
 10
-169.654
 20
324.312
 11
-169.695
 21
324.804
  0
LINE
  8
0
 10
-169.695
 20
330.604
 11
-169.574
 21
331.083
  0
LINE
  8
0
 10
-169.574
 20
331.083
 11
-169.304
 21
331.496
  0
LINE
  8
0
 10
-169.304
 20
331.496
 11
-168.914
 21
331.799
  0
LINE
  8
0
 10
-168.914
 20
331.799
 11
-168.447
 21
331.96
  0
LINE
  8
0
 10
-168.447
 20
331.96
 11
-167.953
 21
331.96
  0
LINE
  8
0
 10
-167.953
 20
331.96
 11
-167.486
 21
331.799
  0
LINE
  8
0
 10
-167.486
 20
331.799
 11
-167.096
 21
331.496
  0
LINE
  8
0
 10
-167.096
 20
331.496
 11
-166.826
 21
331.083
  0
LINE
  8
0
 10
-166.826
 20
331.083
 11
-166.705
 21
330.604
  0
LINE
  8
0
 10
-166.705
 20
330.604
 11
-166.746
 21
330.112
  0
LINE
  8
0
 10
-166.746
 20
330.112
 11
-166.944
 21
329.66
  0
LINE
  8
0
 10
-166.944
 20
329.66
 11
-167.279
 21
329.296
  0
LINE
  8
0
 10
-167.279
 20
329.296
 11
-167.713
 21
329.061
  0
LINE
  8
0
 10
-167.713
 20
329.061
 11
-168.2
 21
328.98
  0
LINE
  8
0
 10
-168.2
 20
328.98
 11
-168.687
 21
329.061
  0
LINE
  8
0
 10
-168.687
 20
329.061
 11
-169.121
 21
329.296
  0
LINE
  8
0
 10
-169.121
 20
329.296
 11
-169.456
 21
329.66
  0
LINE
  8
0
 10
-169.456
 20
329.66
 11
-169.654
 21
330.112
  0
LINE
  8
0
 10
-169.654
 20
330.112
 11
-169.695
 21
330.604
  0
LINE
  8
0
 10
-165.4
 20
376.5
 11
-165.345
 21
376.99
  0
LINE
  8
0
 10
-165.345
 20
376.99
 11
-165.182
 21
377.455
  0
LINE
  8
0
 10
-165.182
 20
377.455
 11
-164.92
 21
377.872
  0
LINE
  8
0
 10
-164.92
 20
377.872
 11
-164.572
 21
378.22
  0
LINE
  8
0
 10
-164.572
 20
378.22
 11
-164.155
 21
378.482
  0
LINE
  8
0
 10
-164.155
 20
378.482
 11
-163.69
 21
378.645
  0
LINE
  8
0
 10
-163.69
 20
378.645
 11
-163.2
 21
378.7
  0
LINE
  8
0
 10
-163.2
 20
378.7
 11
-162.71
 21
378.645
  0
LINE
  8
0
 10
-162.71
 20
378.645
 11
-162.245
 21
378.482
  0
LINE
  8
0
 10
-162.245
 20
378.482
 11
-161.828
 21
378.22
  0
LINE
  8
0
 10
-161.828
 20
378.22
 11
-161.48
 21
377.872
  0
LINE
  8
0
 10
-161.48
 20
377.872
 11
-161.218
 21
377.455
  0
LINE
  8
0
 10
-161.218
 20
377.455
 11
-161.055
 21
376.99
  0
LINE
  8
0
 10
-161.055
 20
376.99
 11
-161
 21
376.5
  0
LINE
  8
0
 10
-161
 20
376.5
 11
-161.055
 21
376.01
  0
LINE
  8
0
 10
-161.055
 20
376.01
 11
-161.218
 21
375.545
  0
LINE
  8
0
 10
-161.218
 20
375.545
 11
-161.48
 21
375.128
  0
LINE
  8
0
 10
-161.48
 20
375.128
 11
-161.828
 21
374.78
  0
LINE
  8
0
 10
-161.828
 20
374.78
 11
-162.245
 21
374.518
  0
LINE
  8
0
 10
-162.245
 20
374.518
 11
-162.71
 21
374.355
  0
LINE
  8
0
 10
-162.71
 20
374.355
 11
-163.2
 21
374.3
  0
LINE
  8
0
 10
-163.2
 20
374.3
 11
-163.69
 21
374.355
  0
LINE
  8
0
 10
-163.69
 20
374.355
 11
-164.155
 21
374.518
  0
LINE
  8
0
 10
-164.155
 20
374.518
 11
-164.572
 21
374.78
  0
LINE
  8
0
 10
-164.572
 20
374.78
 11
-164.92
 21
375.128
  0
LINE
  8
0
 10
-164.92
 20
375.128
 11
-165.182
 21
375.545
  0
LINE
  8
0
 10
-165.182
 20
375.545
 11
-165.345
 21
376.01
  0
LINE
  8
0
 10
-165.345
 20
376.01
 11
-165.4
 21
376.5
  0
LINE
  8
0
 10
-164.695
 20
311.956
 11
-164.654
 21
312.448
  0
LINE
  8
0
 10
-164.654
 20
312.448
 11
-164.456
 21
312.9
  0
LINE
  8
0
 10
-164.456
 20
312.9
 11
-164.121
 21
313.264
  0
LINE
  8
0
 10
-164.121
 20
313.264
 11
-163.687
 21
313.499
  0
LINE
  8
0
 10
-163.687
 20
313.499
 11
-163.2
 21
313.58
  0
LINE
  8
0
 10
-163.2
 20
313.58
 11
-162.713
 21
313.499
  0
LINE
  8
0
 10
-162.713
 20
313.499
 11
-162.279
 21
313.264
  0
LINE
  8
0
 10
-162.279
 20
313.264
 11
-161.944
 21
312.9
  0
LINE
  8
0
 10
-161.944
 20
312.9
 11
-161.746
 21
312.448
  0
LINE
  8
0
 10
-161.746
 20
312.448
 11
-161.705
 21
311.956
  0
LINE
  8
0
 10
-161.705
 20
311.956
 11
-161.826
 21
311.477
  0
LINE
  8
0
 10
-161.826
 20
311.477
 11
-162.096
 21
311.064
  0
LINE
  8
0
 10
-162.096
 20
311.064
 11
-162.486
 21
310.761
  0
LINE
  8
0
 10
-162.486
 20
310.761
 11
-162.953
 21
310.6
  0
LINE
  8
0
 10
-162.953
 20
310.6
 11
-163.447
 21
310.6
  0
LINE
  8
0
 10
-163.447
 20
310.6
 11
-163.914
 21
310.761
  0
LINE
  8
0
 10
-163.914
 20
310.761
 11
-164.304
 21
311.064
  0
LINE
  8
0
 10
-164.304
 20
311.064
 11
-164.574
 21
311.477
  0
LINE
  8
0
 10
-164.574
 20
311.477
 11
-164.695
 21
311.956
  0
LINE
  8
0
 10
-164.695
 20
319.156
 11
-164.654
 21
319.648
  0
LINE
  8
0
 10
-164.654
 20
319.648
 11
-164.456
 21
320.1
  0
LINE
  8
0
 10
-164.456
 20
320.1
 11
-164.121
 21
320.464
  0
LINE
  8
0
 10
-164.121
 20
320.464
 11
-163.687
 21
320.699
  0
LINE
  8
0
 10
-163.687
 20
320.699
 11
-163.2
 21
320.78
  0
LINE
  8
0
 10
-163.2
 20
320.78
 11
-162.713
 21
320.699
  0
LINE
  8
0
 10
-162.713
 20
320.699
 11
-162.279
 21
320.464
  0
LINE
  8
0
 10
-162.279
 20
320.464
 11
-161.944
 21
320.1
  0
LINE
  8
0
 10
-161.944
 20
320.1
 11
-161.746
 21
319.648
  0
LINE
  8
0
 10
-161.746
 20
319.648
 11
-161.705
 21
319.156
  0
LINE
  8
0
 10
-161.705
 20
319.156
 11
-161.826
 21
318.677
  0
LINE
  8
0
 10
-161.826
 20
318.677
 11
-162.096
 21
318.264
  0
LINE
  8
0
 10
-162.096
 20
318.264
 11
-162.486
 21
317.961
  0
LINE
  8
0
 10
-162.486
 20
317.961
 11
-162.953
 21
317.8
  0
LINE
  8
0
 10
-162.953
 20
317.8
 11
-163.447
 21
317.8
  0
LINE
  8
0
 10
-163.447
 20
317.8
 11
-163.914
 21
317.961
  0
LINE
  8
0
 10
-163.914
 20
317.961
 11
-164.304
 21
318.264
  0
LINE
  8
0
 10
-164.304
 20
318.264
 11
-164.574
 21
318.677
  0
LINE
  8
0
 10
-164.574
 20
318.677
 11
-164.695
 21
319.156
  0
LINE
  8
0
 10
-163.37
 20
7.2
 11
-163.315
 21
7.68955
  0
LINE
  8
0
 10
-163.315
 20
7.68955
 11
-163.152
 21
8.15454
  0
LINE
  8
0
 10
-163.152
 20
8.15454
 11
-162.89
 21
8.57168
  0
LINE
  8
0
 10
-162.89
 20
8.57168
 11
-162.542
 21
8.92003
  0
LINE
  8
0
 10
-162.542
 20
8.92003
 11
-162.125
 21
9.18213
  0
LINE
  8
0
 10
-162.125
 20
9.18213
 11
-161.66
 21
9.34484
  0
LINE
  8
0
 10
-161.66
 20
9.34484
 11
-161.17
 21
9.4
  0
LINE
  8
0
 10
-161.17
 20
9.4
 11
-160.68
 21
9.34484
  0
LINE
  8
0
 10
-160.68
 20
9.34484
 11
-160.215
 21
9.18213
  0
LINE
  8
0
 10
-160.215
 20
9.18213
 11
-159.798
 21
8.92003
  0
LINE
  8
0
 10
-159.798
 20
8.92003
 11
-159.45
 21
8.57168
  0
LINE
  8
0
 10
-159.45
 20
8.57168
 11
-159.188
 21
8.15454
  0
LINE
  8
0
 10
-159.188
 20
8.15454
 11
-159.025
 21
7.68955
  0
LINE
  8
0
 10
-159.025
 20
7.68955
 11
-158.97
 21
7.2
  0
LINE
  8
0
 10
-158.97
 20
7.2
 11
-159.025
 21
6.71045
  0
LINE
  8
0
 10
-159.025
 20
6.71045
 11
-159.188
 21
6.24546
  0
LINE
  8
0
 10
-159.188
 20
6.24546
 11
-159.45
 21
5.82832
  0
LINE
  8
0
 10
-159.45
 20
5.82832
 11
-159.798
 21
5.47997
  0
LINE
  8
0
 10
-159.798
 20
5.47997
 11
-160.215
 21
5.21787
  0
LINE
  8
0
 10
-160.215
 20
5.21787
 11
-160.68
 21
5.05516
  0
LINE
  8
0
 10
-160.68
 20
5.05516
 11
-161.17
 21
5
  0
LINE
  8
0
 10
-161.17
 20
5
 11
-161.66
 21
5.05516
  0
LINE
  8
0
 10
-161.66
 20
5.05516
 11
-162.125
 21
5.21787
  0
LINE
  8
0
 10
-162.125
 20
5.21787
 11
-162.542
 21
5.47997
  0
LINE
  8
0
 10
-162.542
 20
5.47997
 11
-162.89
 21
5.82832
  0
LINE
  8
0
 10
-162.89
 20
5.82832
 11
-163.152
 21
6.24546
  0
LINE
  8
0
 10
-163.152
 20
6.24546
 11
-163.315
 21
6.71045
  0
LINE
  8
0
 10
-163.315
 20
6.71045
 11
-163.37
 21
7.2
  0
LINE
  8
0
 10
-142.15
 20
7.2
 11
-142.095
 21
7.68955
  0
LINE
  8
0
 10
-142.095
 20
7.68955
 11
-141.932
 21
8.15454
  0
LINE
  8
0
 10
-141.932
 20
8.15454
 11
-141.67
 21
8.57168
  0
LINE
  8
0
 10
-141.67
 20
8.57168
 11
-141.322
 21
8.92003
  0
LINE
  8
0
 10
-141.322
 20
8.92003
 11
-140.905
 21
9.18213
  0
LINE
  8
0
 10
-140.905
 20
9.18213
 11
-140.44
 21
9.34484
  0
LINE
  8
0
 10
-140.44
 20
9.34484
 11
-139.95
 21
9.4
  0
LINE
  8
0
 10
-139.95
 20
9.4
 11
-139.46
 21
9.34484
  0
LINE
  8
0
 10
-139.46
 20
9.34484
 11
-138.995
 21
9.18213
  0
LINE
  8
0
 10
-138.995
 20
9.18213
 11
-138.578
 21
8.92003
  0
LINE
  8
0
 10
-138.578
 20
8.92003
 11
-138.23
 21
8.57168
  0
LINE
  8
0
 10
-138.23
 20
8.57168
 11
-137.968
 21
8.15454
  0
LINE
  8
0
 10
-137.968
 20
8.15454
 11
-137.805
 21
7.68955
  0
LINE
  8
0
 10
-137.805
 20
7.68955
 11
-137.75
 21
7.2
  0
LINE
  8
0
 10
-137.75
 20
7.2
 11
-137.805
 21
6.71045
  0
LINE
  8
0
 10
-137.805
 20
6.71045
 11
-137.968
 21
6.24546
  0
LINE
  8
0
 10
-137.968
 20
6.24546
 11
-138.23
 21
5.82832
  0
LINE
  8
0
 10
-138.23
 20
5.82832
 11
-138.578
 21
5.47997
  0
LINE
  8
0
 10
-138.578
 20
5.47997
 11
-138.995
 21
5.21787
  0
LINE
  8
0
 10
-138.995
 20
5.21787
 11
-139.46
 21
5.05516
  0
LINE
  8
0
 10
-139.46
 20
5.05516
 11
-139.95
 21
5
  0
LINE
  8
0
 10
-139.95
 20
5
 11
-140.44
 21
5.05516
  0
LINE
  8
0
 10
-140.44
 20
5.05516
 11
-140.905
 21
5.21787
  0
LINE
  8
0
 10
-140.905
 20
5.21787
 11
-141.322
 21
5.47997
  0
LINE
  8
0
 10
-141.322
 20
5.47997
 11
-141.67
 21
5.82832
  0
LINE
  8
0
 10
-141.67
 20
5.82832
 11
-141.932
 21
6.24546
  0
LINE
  8
0
 10
-141.932
 20
6.24546
 11
-142.095
 21
6.71045
  0
LINE
  8
0
 10
-142.095
 20
6.71045
 11
-142.15
 21
7.2
  0
LINE
  8
0
 10
117.205
 20
324.804
 11
117.326
 21
325.283
  0
LINE
  8
0
 10
117.326
 20
325.283
 11
117.596
 21
325.696
  0
LINE
  8
0
 10
117.596
 20
325.696
 11
117.986
 21
325.999
  0
LINE
  8
0
 10
117.986
 20
325.999
 11
118.453
 21
326.16
  0
LINE
  8
0
 10
118.453
 20
326.16
 11
118.947
 21
326.16
  0
LINE
  8
0
 10
118.947
 20
326.16
 11
119.414
 21
325.999
  0
LINE
  8
0
 10
119.414
 20
325.999
 11
119.804
 21
325.696
  0
LINE
  8
0
 10
119.804
 20
325.696
 11
120.074
 21
325.283
  0
LINE
  8
0
 10
120.074
 20
325.283
 11
120.195
 21
324.804
  0
LINE
  8
0
 10
120.195
 20
324.804
 11
120.154
 21
324.312
  0
LINE
  8
0
 10
120.154
 20
324.312
 11
119.956
 21
323.86
  0
LINE
  8
0
 10
119.956
 20
323.86
 11
119.621
 21
323.496
  0
LINE
  8
0
 10
119.621
 20
323.496
 11
119.187
 21
323.261
  0
LINE
  8
0
 10
119.187
 20
323.261
 11
118.7
 21
323.18
  0
LINE
  8
0
 10
118.7
 20
323.18
 11
118.213
 21
323.261
  0
LINE
  8
0
 10
118.213
 20
323.261
 11
117.779
 21
323.496
  0
LINE
  8
0
 10
117.779
 20
323.496
 11
117.444
 21
323.86
  0
LINE
  8
0
 10
117.444
 20
323.86
 11
117.246
 21
324.312
  0
LINE
  8
0
 10
117.246
 20
324.312
 11
117.205
 21
324.804
  0
LINE
  8
0
 10
117.205
 20
330.604
 11
117.326
 21
331.083
  0
LINE
  8
0
 10
117.326
 20
331.083
 11
117.596
 21
331.496
  0
LINE
  8
0
 10
117.596
 20
331.496
 11
117.986
 21
331.799
  0
LINE
  8
0
 10
117.986
 20
331.799
 11
118.453
 21
331.96
  0
LINE
  8
0
 10
118.453
 20
331.96
 11
118.947
 21
331.96
  0
LINE
  8
0
 10
118.947
 20
331.96
 11
119.414
 21
331.799
  0
LINE
  8
0
 10
119.414
 20
331.799
 11
119.804
 21
331.496
  0
LINE
  8
0
 10
119.804
 20
331.496
 11
120.074
 21
331.083
  0
LINE
  8
0
 10
120.074
 20
331.083
 11
120.195
 21
330.604
  0
LINE
  8
0
 10
120.195
 20
330.604
 11
120.154
 21
330.112
  0
LINE
  8
0
 10
120.154
 20
330.112
 11
119.956
 21
329.66
  0
LINE
  8
0
 10
119.956
 20
329.66
 11
119.621
 21
329.296
  0
LINE
  8
0
 10
119.621
 20
329.296
 11
119.187
 21
329.061
  0
LINE
  8
0
 10
119.187
 20
329.061
 11
118.7
 21
328.98
  0
LINE
  8
0
 10
118.7
 20
328.98
 11
118.213
 21
329.061
  0
LINE
  8
0
 10
118.213
 20
329.061
 11
117.779
 21
329.296
  0
LINE
  8
0
 10
117.779
 20
329.296
 11
117.444
 21
329.66
  0
LINE
  8
0
 10
117.444
 20
329.66
 11
117.246
 21
330.112
  0
LINE
  8
0
 10
117.246
 20
330.112
 11
117.205
 21
330.604
  0
LINE
  8
0
 10
122.205
 20
311.956
 11
122.246
 21
312.448
  0
LINE
  8
0
 10
122.246
 20
312.448
 11
122.444
 21
312.9
  0
LINE
  8
0
 10
122.444
 20
312.9
 11
122.779
 21
313.264
  0
LINE
  8
0
 10
122.779
 20
313.264
 11
123.213
 21
313.499
  0
LINE
  8
0
 10
123.213
 20
313.499
 11
123.7
 21
313.58
  0
LINE
  8
0
 10
123.7
 20
313.58
 11
124.187
 21
313.499
  0
LINE
  8
0
 10
124.187
 20
313.499
 11
124.621
 21
313.264
  0
LINE
  8
0
 10
124.621
 20
313.264
 11
124.956
 21
312.9
  0
LINE
  8
0
 10
124.956
 20
312.9
 11
125.154
 21
312.448
  0
LINE
  8
0
 10
125.154
 20
312.448
 11
125.195
 21
311.956
  0
LINE
  8
0
 10
125.195
 20
311.956
 11
125.074
 21
311.477
  0
LINE
  8
0
 10
125.074
 20
311.477
 11
124.804
 21
311.064
  0
LINE
  8
0
 10
124.804
 20
311.064
 11
124.414
 21
310.761
  0
LINE
  8
0
 10
124.414
 20
310.761
 11
123.947
 21
310.6
  0
LINE
  8
0
 10
123.947
 20
310.6
 11
123.453
 21
310.6
  0
LINE
  8
0
 10
123.453
 20
310.6
 11
122.986
 21
310.761
  0
LINE
  8
0
 10
122.986
 20
310.761
 11
122.596
 21
311.064
  0
LINE
  8
0
 10
122.596
 20
311.064
 11
122.326
 21
311.477
  0
LINE
  8
0
 10
122.326
 20
311.477
 11
122.205
 21
311.956
  0
LINE
  8
0
 10
122.205
 20
319.156
 11
122.246
 21
319.648
  0
LINE
  8
0
 10
122.246
 20
319.648
 11
122.444
 21
320.1
  0
LINE
  8
0
 10
122.444
 20
320.1
 11
122.779
 21
320.464
  0
LINE
  8
0
 10
122.779
 20
320.464
 11
123.213
 21
320.699
  0
LINE
  8
0
 10
123.213
 20
320.699
 11
123.7
 21
320.78
  0
LINE
  8
0
 10
123.7
 20
320.78
 11
124.187
 21
320.699
  0
LINE
  8
0
 10
124.187
 20
320.699
 11
124.621
 21
320.464
  0
LINE
  8
0
 10
124.621
 20
320.464
 11
124.956
 21
320.1
  0
LINE
  8
0
 10
124.956
 20
320.1
 11
125.154
 21
319.648
  0
LINE
  8
0
 10
125.154
 20
319.648
 11
125.195
 21
319.156
  0
LINE
  8
0
 10
125.195
 20
319.156
 11
125.074
 21
318.677
  0
LINE
  8
0
 10
125.074
 20
318.677
 11
124.804
 21
318.264
  0
LINE
  8
0
 10
124.804
 20
318.264
 11
124.414
 21
317.961
  0
LINE
  8
0
 10
124.414
 20
317.961
 11
123.947
 21
317.8
  0
LINE
  8
0
 10
123.947
 20
317.8
 11
123.453
 21
317.8
  0
LINE
  8
0
 10
123.453
 20
317.8
 11
122.986
 21
317.961
  0
LINE
  8
0
 10
122.986
 20
317.961
 11
122.596
 21
318.264
  0
LINE
  8
0
 10
122.596
 20
318.264
 11
122.326
 21
318.677
  0
LINE
  8
0
 10
122.326
 20
318.677
 11
122.205
 21
319.156
  0
LINE
  8
0
 10
123.5
 20
376.5
 11
123.555
 21
376.99
  0
LINE
  8
0
 10
123.555
 20
376.99
 11
123.718
 21
377.455
  0
LINE
  8
0
 10
123.718
 20
377.455
 11
123.98
 21
377.872
  0
LINE
  8
0
 10
123.98
 20
377.872
 11
124.328
 21
378.22
  0
LINE
  8
0
 10
124.328
 20
378.22
 11
124.745
 21
378.482
  0
LINE
  8
0
 10
124.745
 20
378.482
 11
125.21
 21
378.645
  0
LINE
  8
0
 10
125.21
 20
378.645
 11
125.7
 21
378.7
  0
LINE
  8
0
 10
125.7
 20
378.7
 11
126.19
 21
378.645
  0
LINE
  8
0
 10
126.19
 20
378.645
 11
126.655
 21
378.482
  0
LINE
  8
0
 10
126.655
 20
378.482
 11
127.072
 21
378.22
  0
LINE
  8
0
 10
127.072
 20
378.22
 11
127.42
 21
377.872
  0
LINE
  8
0
 10
127.42
 20
377.872
 11
127.682
 21
377.455
  0
LINE
  8
0
 10
127.682
 20
377.455
 11
127.845
 21
376.99
  0
LINE
  8
0
 10
127.845
 20
376.99
 11
127.9
 21
376.5
  0
LINE
  8
0
 10
127.9
 20
376.5
 11
127.845
 21
376.01
  0
LINE
  8
0
 10
127.845
 20
376.01
 11
127.682
 21
375.545
  0
LINE
  8
0
 10
127.682
 20
375.545
 11
127.42
 21
375.128
  0
LINE
  8
0
 10
127.42
 20
375.128
 11
127.072
 21
374.78
  0
LINE
  8
0
 10
127.072
 20
374.78
 11
126.655
 21
374.518
  0
LINE
  8
0
 10
126.655
 20
374.518
 11
126.19
 21
374.355
  0
LINE
  8
0
 10
126.19
 20
374.355
 11
125.7
 21
374.3
  0
LINE
  8
0
 10
125.7
 20
374.3
 11
125.21
 21
374.355
  0
LINE
  8
0
 10
125.21
 20
374.355
 11
124.745
 21
374.518
  0
LINE
  8
0
 10
124.745
 20
374.518
 11
124.328
 21
374.78
  0
LINE
  8
0
 10
124.328
 20
374.78
 11
123.98
 21
375.128
  0
LINE
  8
0
 10
123.98
 20
375.128
 11
123.718
 21
375.545
  0
LINE
  8
0
 10
123.718
 20
375.545
 11
123.555
 21
376.01
  0
LINE
  8
0
 10
123.555
 20
376.01
 11
123.5
 21
376.5
  0
LINE
  8
0
 10
125.3
 20
33.71
 11
125.355
 21
34.1995
  0
LINE
  8
0
 10
125.355
 20
34.1995
 11
125.518
 21
34.6645
  0
LINE
  8
0
 10
125.518
 20
34.6645
 11
125.78
 21
35.0817
  0
LINE
  8
0
 10
125.78
 20
35.0817
 11
126.128
 21
35.43
  0
LINE
  8
0
 10
126.128
 20
35.43
 11
126.545
 21
35.6921
  0
LINE
  8
0
 10
126.545
 20
35.6921
 11
127.01
 21
35.8548
  0
LINE
  8
0
 10
127.01
 20
35.8548
 11
127.5
 21
35.91
  0
LINE
  8
0
 10
127.5
 20
35.91
 11
127.99
 21
35.8548
  0
LINE
  8
0
 10
127.99
 20
35.8548
 11
128.455
 21
35.6921
  0
LINE
  8
0
 10
128.455
 20
35.6921
 11
128.872
 21
35.43
  0
LINE
  8
0
 10
128.872
 20
35.43
 11
129.22
 21
35.0817
  0
LINE
  8
0
 10
129.22
 20
35.0817
 11
129.482
 21
34.6645
  0
LINE
  8
0
 10
129.482
 20
34.6645
 11
129.645
 21
34.1995
  0
LINE
  8
0
 10
129.645
 20
34.1995
 11
129.7
 21
33.71
  0
LINE
  8
0
 10
129.7
 20
33.71
 11
129.645
 21
33.2205
  0
LINE
  8
0
 10
129.645
 20
33.2205
 11
129.482
 21
32.7555
  0
LINE
  8
0
 10
129.482
 20
32.7555
 11
129.22
 21
32.3383
  0
LINE
  8
0
 10
129.22
 20
32.3383
 11
128.872
 21
31.99
  0
LINE
  8
0
 10
128.872
 20
31.99
 11
128.455
 21
31.7279
  0
LINE
  8
0
 10
128.455
 20
31.7279
 11
127.99
 21
31.5652
  0
LINE
  8
0
 10
127.99
 20
31.5652
 11
127.5
 21
31.51
  0
LINE
  8
0
 10
127.5
 20
31.51
 11
127.01
 21
31.5652
  0
LINE
  8
0
 10
127.01
 20
31.5652
 11
126.545
 21
31.7279
  0
LINE
  8
0
 10
126.545
 20
31.7279
 11
126.128
 21
31.99
  0
LINE
  8
0
 10
126.128
 20
31.99
 11
125.78
 21
32.3383
  0
LINE
  8
0
 10
125.78
 20
32.3383
 11
125.518
 21
32.7555
  0
LINE
  8
0
 10
125.518
 20
32.7555
 11
125.355
 21
33.2205
  0
LINE
  8
0
 10
125.355
 20
33.2205
 11
125.3
 21
33.71
  0
LINE
  8
0
 10
125.3
 20
350.29
 11
125.355
 21
350.78
  0
LINE
  8
0
 10
125.355
 20
350.78
 11
125.518
 21
351.245
  0
LINE
  8
0
 10
125.518
 20
351.245
 11
125.78
 21
351.662
  0
LINE
  8
0
 10
125.78
 20
351.662
 11
126.128
 21
352.01
  0
LINE
  8
0
 10
126.128
 20
352.01
 11
126.545
 21
352.272
  0
LINE
  8
0
 10
126.545
 20
352.272
 11
127.01
 21
352.435
  0
LINE
  8
0
 10
127.01
 20
352.435
 11
127.5
 21
352.49
  0
LINE
  8
0
 10
127.5
 20
352.49
 11
127.99
 21
352.435
  0
LINE
  8
0
 10
127.99
 20
352.435
 11
128.455
 21
352.272
  0
LINE
  8
0
 10
128.455
 20
352.272
 11
128.872
 21
352.01
  0
LINE
  8
0
 10
128.872
 20
352.01
 11
129.22
 21
351.662
  0
LINE
  8
0
 10
129.22
 20
351.662
 11
129.482
 21
351.245
  0
LINE
  8
0
 10
129.482
 20
351.245
 11
129.645
 21
350.78
  0
LINE
  8
0
 10
129.645
 20
350.78
 11
129.7
 21
350.29
  0
LINE
  8
0
 10
129.7
 20
350.29
 11
129.645
 21
349.8
  0
LINE
  8
0
 10
129.645
 20
349.8
 11
129.482
 21
349.335
  0
LINE
  8
0
 10
129.482
 20
349.335
 11
129.22
 21
348.918
  0
LINE
  8
0
 10
129.22
 20
348.918
 11
128.872
 21
348.57
  0
LINE
  8
0
 10
128.872
 20
348.57
 11
128.455
 21
348.308
  0
LINE
  8
0
 10
128.455
 20
348.308
 11
127.99
 21
348.145
  0
LINE
  8
0
 10
127.99
 20
348.145
 11
127.5
 21
348.09
  0
LINE
  8
0
 10
127.5
 20
348.09
 11
127.01
 21
348.145
  0
LINE
  8
0
 10
127.01
 20
348.145
 11
126.545
 21
348.308
  0
LINE
  8
0
 10
126.545
 20
348.308
 11
126.128
 21
348.57
  0
LINE
  8
0
 10
126.128
 20
348.57
 11
125.78
 21
348.918
  0
LINE
  8
0
 10
125.78
 20
348.918
 11
125.518
 21
349.335
  0
LINE
  8
0
 10
125.518
 20
349.335
 11
125.355
 21
349.8
  0
LINE
  8
0
 10
125.355
 20
349.8
 11
125.3
 21
350.29
  0
LINE
  8
0
 10
141
 20
56.5
 11
141
 21
65.5
  0
LINE
  8
0
 10
141
 20
65.5
 11
141.055
 21
65.9895
  0
LINE
  8
0
 10
141.055
 20
65.9895
 11
141.218
 21
66.4545
  0
LINE
  8
0
 10
141.218
 20
66.4545
 11
141.48
 21
66.8717
  0
LINE
  8
0
 10
141.48
 20
66.8717
 11
141.828
 21
67.22
  0
LINE
  8
0
 10
141.828
 20
67.22
 11
142.245
 21
67.4821
  0
LINE
  8
0
 10
142.245
 20
67.4821
 11
142.71
 21
67.6448
  0
LINE
  8
0
 10
142.71
 20
67.6448
 11
143.2
 21
67.7
  0
LINE
  8
0
 10
143.2
 20
67.7
 11
143.69
 21
67.6448
  0
LINE
  8
0
 10
143.69
 20
67.6448
 11
144.155
 21
67.4821
  0
LINE
  8
0
 10
144.155
 20
67.4821
 11
144.572
 21
67.22
  0
LINE
  8
0
 10
144.572
 20
67.22
 11
144.92
 21
66.8717
  0
LINE
  8
0
 10
144.92
 20
66.8717
 11
145.182
 21
66.4545
  0
LINE
  8
0
 10
145.182
 20
66.4545
 11
145.345
 21
65.9895
  0
LINE
  8
0
 10
145.345
 20
65.9895
 11
145.4
 21
65.5
  0
LINE
  8
0
 10
145.4
 20
65.5
 11
145.4
 21
56.5
  0
LINE
  8
0
 10
145.4
 20
56.5
 11
145.345
 21
56.0105
  0
LINE
  8
0
 10
145.345
 20
56.0105
 11
145.182
 21
55.5455
  0
LINE
  8
0
 10
145.182
 20
55.5455
 11
144.92
 21
55.1283
  0
LINE
  8
0
 10
144.92
 20
55.1283
 11
144.572
 21
54.78
  0
LINE
  8
0
 10
144.572
 20
54.78
 11
144.155
 21
54.5179
  0
LINE
  8
0
 10
144.155
 20
54.5179
 11
143.69
 21
54.3552
  0
LINE
  8
0
 10
143.69
 20
54.3552
 11
143.2
 21
54.3
  0
LINE
  8
0
 10
143.2
 20
54.3
 11
142.71
 21
54.3552
  0
LINE
  8
0
 10
142.71
 20
54.3552
 11
142.245
 21
54.5179
  0
LINE
  8
0
 10
142.245
 20
54.5179
 11
141.828
 21
54.78
  0
LINE
  8
0
 10
141.828
 20
54.78
 11
141.48
 21
55.1283
  0
LINE
  8
0
 10
141.48
 20
55.1283
 11
141.218
 21
55.5455
  0
LINE
  8
0
 10
141.218
 20
55.5455
 11
141.055
 21
56.0105
  0
LINE
  8
0
 10
141.055
 20
56.0105
 11
141
 21
56.5
  0
LINE
  8
0
 10
144.2
 20
7.2
 11
144.255
 21
7.68955
  0
LINE
  8
0
 10
144.255
 20
7.68955
 11
144.418
 21
8.15454
  0
LINE
  8
0
 10
144.418
 20
8.15454
 11
144.68
 21
8.57168
  0
LINE
  8
0
 10
144.68
 20
8.57168
 11
145.028
 21
8.92003
  0
LINE
  8
0
 10
145.028
 20
8.92003
 11
145.445
 21
9.18213
  0
LINE
  8
0
 10
145.445
 20
9.18213
 11
145.91
 21
9.34484
  0
LINE
  8
0
 10
145.91
 20
9.34484
 11
146.4
 21
9.4
  0
LINE
  8
0
 10
146.4
 20
9.4
 11
146.89
 21
9.34484
  0
LINE
  8
0
 10
146.89
 20
9.34484
 11
147.355
 21
9.18213
  0
LINE
  8
0
 10
147.355
 20
9.18213
 11
147.772
 21
8.92003
  0
LINE
  8
0
 10
147.772
 20
8.92003
 11
148.12
 21
8.57168
  0
LINE
  8
0
 10
148.12
 20
8.57168
 11
148.382
 21
8.15454
  0
LINE
  8
0
 10
148.382
 20
8.15454
 11
148.545
 21
7.68955
  0
LINE
  8
0
 10
148.545
 20
7.68955
 11
148.6
 21
7.2
  0
LINE
  8
0
 10
148.6
 20
7.2
 11
148.545
 21
6.71045
  0
LINE
  8
0
 10
148.545
 20
6.71045
 11
148.382
 21
6.24546
  0
LINE
  8
0
 10
148.382
 20
6.24546
 11
148.12
 21
5.82832
  0
LINE
  8
0
 10
148.12
 20
5.82832
 11
147.772
 21
5.47997
  0
LINE
  8
0
 10
147.772
 20
5.47997
 11
147.355
 21
5.21787
  0
LINE
  8
0
 10
147.355
 20
5.21787
 11
146.89
 21
5.05516
  0
LINE
  8
0
 10
146.89
 20
5.05516
 11
146.4
 21
5
  0
LINE
  8
0
 10
146.4
 20
5
 11
145.91
 21
5.05516
  0
LINE
  8
0
 10
145.91
 20
5.05516
 11
145.445
 21
5.21787
  0
LINE
  8
0
 10
145.445
 20
5.21787
 11
145.028
 21
5.47997
  0
LINE
  8
0
 10
145.028
 20
5.47997
 11
144.68
 21
5.82832
  0
LINE
  8
0
 10
144.68
 20
5.82832
 11
144.418
 21
6.24546
  0
LINE
  8
0
 10
144.418
 20
6.24546
 11
144.255
 21
6.71045
  0
LINE
  8
0
 10
144.255
 20
6.71045
 11
144.2
 21
7.2
  0
LINE
  8
0
 10
153.6
 20
376.5
 11
153.655
 21
376.99
  0
LINE
  8
0
 10
153.655
 20
376.99
 11
153.818
 21
377.455
  0
LINE
  8
0
 10
153.818
 20
377.455
 11
154.08
 21
377.872
  0
LINE
  8
0
 10
154.08
 20
377.872
 11
154.428
 21
378.22
  0
LINE
  8
0
 10
154.428
 20
378.22
 11
154.845
 21
378.482
  0
LINE
  8
0
 10
154.845
 20
378.482
 11
155.31
 21
378.645
  0
LINE
  8
0
 10
155.31
 20
378.645
 11
155.8
 21
378.7
  0
LINE
  8
0
 10
155.8
 20
378.7
 11
156.29
 21
378.645
  0
LINE
  8
0
 10
156.29
 20
378.645
 11
156.755
 21
378.482
  0
LINE
  8
0
 10
156.755
 20
378.482
 11
157.172
 21
378.22
  0
LINE
  8
0
 10
157.172
 20
378.22
 11
157.52
 21
377.872
  0
LINE
  8
0
 10
157.52
 20
377.872
 11
157.782
 21
377.455
  0
LINE
  8
0
 10
157.782
 20
377.455
 11
157.945
 21
376.99
  0
LINE
  8
0
 10
157.945
 20
376.99
 11
158
 21
376.5
  0
LINE
  8
0
 10
158
 20
376.5
 11
157.945
 21
376.01
  0
LINE
  8
0
 10
157.945
 20
376.01
 11
157.782
 21
375.545
  0
LINE
  8
0
 10
157.782
 20
375.545
 11
157.52
 21
375.128
  0
LINE
  8
0
 10
157.52
 20
375.128
 11
157.172
 21
374.78
  0
LINE
  8
0
 10
157.172
 20
374.78
 11
156.755
 21
374.518
  0
LINE
  8
0
 10
156.755
 20
374.518
 11
156.29
 21
374.355
  0
LINE
  8
0
 10
156.29
 20
374.355
 11
155.8
 21
374.3
  0
LINE
  8
0
 10
155.8
 20
374.3
 11
155.31
 21
374.355
  0
LINE
  8
0
 10
155.31
 20
374.355
 11
154.845
 21
374.518
  0
LINE
  8
0
 10
154.845
 20
374.518
 11
154.428
 21
374.78
  0
LINE
  8
0
 10
154.428
 20
374.78
 11
154.08
 21
375.128
  0
LINE
  8
0
 10
154.08
 20
375.128
 11
153.818
 21
375.545
  0
LINE
  8
0
 10
153.818
 20
375.545
 11
153.655
 21
376.01
  0
LINE
  8
0
 10
153.655
 20
376.01
 11
153.6
 21
376.5
  0
LINE
  8
0
 10
156.87
 20
17.9
 11
156.918
 21
18.3877
  0
LINE
  8
0
 10
156.918
 20
18.3877
 11
157.06
 21
18.8567
  0
LINE
  8
0
 10
157.06
 20
18.8567
 11
157.291
 21
19.2889
  0
LINE
  8
0
 10
157.291
 20
19.2889
 11
157.602
 21
19.6678
  0
LINE
  8
0
 10
157.602
 20
19.6678
 11
157.981
 21
19.9787
  0
LINE
  8
0
 10
157.981
 20
19.9787
 11
158.413
 21
20.2097
  0
LINE
  8
0
 10
158.413
 20
20.2097
 11
158.882
 21
20.352
  0
LINE
  8
0
 10
158.882
 20
20.352
 11
159.37
 21
20.4
  0
LINE
  8
0
 10
159.37
 20
20.4
 11
159.858
 21
20.352
  0
LINE
  8
0
 10
159.858
 20
20.352
 11
160.327
 21
20.2097
  0
LINE
  8
0
 10
160.327
 20
20.2097
 11
160.759
 21
19.9787
  0
LINE
  8
0
 10
160.759
 20
19.9787
 11
161.138
 21
19.6678
  0
LINE
  8
0
 10
161.138
 20
19.6678
 11
161.449
 21
19.2889
  0
LINE
  8
0
 10
161.449
 20
19.2889
 11
161.68
 21
18.8567
  0
LINE
  8
0
 10
161.68
 20
18.8567
 11
161.822
 21
18.3877
  0
LINE
  8
0
 10
161.822
 20
18.3877
 11
161.87
 21
17.9
  0
LINE
  8
0
 10
161.87
 20
17.9
 11
161.822
 21
17.4123
  0
LINE
  8
0
 10
161.822
 20
17.4123
 11
161.68
 21
16.9433
  0
LINE
  8
0
 10
161.68
 20
16.9433
 11
161.449
 21
16.5111
  0
LINE
  8
0
 10
161.449
 20
16.5111
 11
161.138
 21
16.1322
  0
LINE
  8
0
 10
161.138
 20
16.1322
 11
160.759
 21
15.8213
  0
LINE
  8
0
 10
160.759
 20
15.8213
 11
160.327
 21
15.5903
  0
LINE
  8
0
 10
160.327
 20
15.5903
 11
159.858
 21
15.448
  0
LINE
  8
0
 10
159.858
 20
15.448
 11
159.37
 21
15.4
  0
LINE
  8
0
 10
159.37
 20
15.4
 11
158.882
 21
15.448
  0
LINE
  8
0
 10
158.882
 20
15.448
 11
158.413
 21
15.5903
  0
LINE
  8
0
 10
158.413
 20
15.5903
 11
157.981
 21
15.8213
  0
LINE
  8
0
 10
157.981
 20
15.8213
 11
157.602
 21
16.1322
  0
LINE
  8
0
 10
157.602
 20
16.1322
 11
157.291
 21
16.5111
  0
LINE
  8
0
 10
157.291
 20
16.5111
 11
157.06
 21
16.9433
  0
LINE
  8
0
 10
157.06
 20
16.9433
 11
156.918
 21
17.4123
  0
LINE
  8
0
 10
156.918
 20
17.4123
 11
156.87
 21
17.9
  0
LINE
  8
0
 10
165.42
 20
7.2
 11
165.475
 21
7.68955
  0
LINE
  8
0
 10
165.475
 20
7.68955
 11
165.638
 21
8.15454
  0
LINE
  8
0
 10
165.638
 20
8.15454
 11
165.9
 21
8.57168
  0
LINE
  8
0
 10
165.9
 20
8.57168
 11
166.248
 21
8.92003
  0
LINE
  8
0
 10
166.248
 20
8.92003
 11
166.665
 21
9.18213
  0
LINE
  8
0
 10
166.665
 20
9.18213
 11
167.13
 21
9.34484
  0
LINE
  8
0
 10
167.13
 20
9.34484
 11
167.62
 21
9.4
  0
LINE
  8
0
 10
167.62
 20
9.4
 11
168.11
 21
9.34484
  0
LINE
  8
0
 10
168.11
 20
9.34484
 11
168.575
 21
9.18213
  0
LINE
  8
0
 10
168.575
 20
9.18213
 11
168.992
 21
8.92003
  0
LINE
  8
0
 10
168.992
 20
8.92003
 11
169.34
 21
8.57168
  0
LINE
  8
0
 10
169.34
 20
8.57168
 11
169.602
 21
8.15454
  0
LINE
  8
0
 10
169.602
 20
8.15454
 11
169.765
 21
7.68955
  0
LINE
  8
0
 10
169.765
 20
7.68955
 11
169.82
 21
7.2
  0
LINE
  8
0
 10
169.82
 20
7.2
 11
169.765
 21
6.71045
  0
LINE
  8
0
 10
169.765
 20
6.71045
 11
169.602
 21
6.24546
  0
LINE
  8
0
 10
169.602
 20
6.24546
 11
169.34
 21
5.82832
  0
LINE
  8
0
 10
169.34
 20
5.82832
 11
168.992
 21
5.47997
  0
LINE
  8
0
 10
168.992
 20
5.47997
 11
168.575
 21
5.21787
  0
LINE
  8
0
 10
168.575
 20
5.21787
 11
168.11
 21
5.05516
  0
LINE
  8
0
 10
168.11
 20
5.05516
 11
167.62
 21
5
  0
LINE
  8
0
 10
167.62
 20
5
 11
167.13
 21
5.05516
  0
LINE
  8
0
 10
167.13
 20
5.05516
 11
166.665
 21
5.21787
  0
LINE
  8
0
 10
166.665
 20
5.21787
 11
166.248
 21
5.47997
  0
LINE
  8
0
 10
166.248
 20
5.47997
 11
165.9
 21
5.82832
  0
LINE
  8
0
 10
165.9
 20
5.82832
 11
165.638
 21
6.24546
  0
LINE
  8
0
 10
165.638
 20
6.24546
 11
165.475
 21
6.71045
  0
LINE
  8
0
 10
165.475
 20
6.71045
 11
165.42
 21
7.2
  0
LINE
  8
0
 10
171.1
 20
56.5
 11
171.1
 21
65.5
  0
LINE
  8
0
 10
171.1
 20
65.5
 11
171.155
 21
65.9895
  0
LINE
  8
0
 10
171.155
 20
65.9895
 11
171.318
 21
66.4545
  0
LINE
  8
0
 10
171.318
 20
66.4545
 11
171.58
 21
66.8717
  0
LINE
  8
0
 10
171.58
 20
66.8717
 11
171.928
 21
67.22
  0
LINE
  8
0
 10
171.928
 20
67.22
 11
172.345
 21
67.4821
  0
LINE
  8
0
 10
172.345
 20
67.4821
 11
172.81
 21
67.6448
  0
LINE
  8
0
 10
172.81
 20
67.6448
 11
173.3
 21
67.7
  0
LINE
  8
0
 10
173.3
 20
67.7
 11
173.79
 21
67.6448
  0
LINE
  8
0
 10
173.79
 20
67.6448
 11
174.255
 21
67.4821
  0
LINE
  8
0
 10
174.255
 20
67.4821
 11
174.672
 21
67.22
  0
LINE
  8
0
 10
174.672
 20
67.22
 11
175.02
 21
66.8717
  0
LINE
  8
0
 10
175.02
 20
66.8717
 11
175.282
 21
66.4545
  0
LINE
  8
0
 10
175.282
 20
66.4545
 11
175.445
 21
65.9895
  0
LINE
  8
0
 10
175.445
 20
65.9895
 11
175.5
 21
65.5
  0
LINE
  8
0
 10
175.5
 20
65.5
 11
175.5
 21
56.5
  0
LINE
  8
0
 10
175.5
 20
56.5
 11
175.445
 21
56.0105
  0
LINE
  8
0
 10
175.445
 20
56.0105
 11
175.282
 21
55.5455
  0
LINE
  8
0
 10
175.282
 20
55.5455
 11
175.02
 21
55.1283
  0
LINE
  8
0
 10
175.02
 20
55.1283
 11
174.672
 21
54.78
  0
LINE
  8
0
 10
174.672
 20
54.78
 11
174.255
 21
54.5179
  0
LINE
  8
0
 10
174.255
 20
54.5179
 11
173.79
 21
54.3552
  0
LINE
  8
0
 10
173.79
 20
54.3552
 11
173.3
 21
54.3
  0
LINE
  8
0
 10
173.3
 20
54.3
 11
172.81
 21
54.3552
  0
LINE
  8
0
 10
172.81
 20
54.3552
 11
172.345
 21
54.5179
  0
LINE
  8
0
 10
172.345
 20
54.5179
 11
171.928
 21
54.78
  0
LINE
  8
0
 10
171.928
 20
54.78
 11
171.58
 21
55.1283
  0
LINE
  8
0
 10
171.58
 20
55.1283
 11
171.318
 21
55.5455
  0
LINE
  8
0
 10
171.318
 20
55.5455
 11
171.155
 21
56.0105
  0
LINE
  8
0
 10
171.155
 20
56.0105
 11
171.1
 21
56.5
  0
LINE
  8
0
 10
182.15
 20
353.15
 11
182.205
 21
353.64
  0
LINE
  8
0
 10
182.205
 20
353.64
 11
182.368
 21
354.105
  0
LINE
  8
0
 10
182.368
 20
354.105
 11
182.63
 21
354.522
  0
LINE
  8
0
 10
182.63
 20
354.522
 11
182.978
 21
354.87
  0
LINE
  8
0
 10
182.978
 20
354.87
 11
183.395
 21
355.132
  0
LINE
  8
0
 10
183.395
 20
355.132
 11
183.86
 21
355.295
  0
LINE
  8
0
 10
183.86
 20
355.295
 11
184.35
 21
355.35
  0
LINE
  8
0
 10
184.35
 20
355.35
 11
184.84
 21
355.295
  0
LINE
  8
0
 10
184.84
 20
355.295
 11
185.305
 21
355.132
  0
LINE
  8
0
 10
185.305
 20
355.132
 11
185.722
 21
354.87
  0
LINE
  8
0
 10
185.722
 20
354.87
 11
186.07
 21
354.522
  0
LINE
  8
0
 10
186.07
 20
354.522
 11
186.332
 21
354.105
  0
LINE
  8
0
 10
186.332
 20
354.105
 11
186.495
 21
353.64
  0
LINE
  8
0
 10
186.495
 20
353.64
 11
186.55
 21
353.15
  0
LINE
  8
0
 10
186.55
 20
353.15
 11
186.495
 21
352.66
  0
LINE
  8
0
 10
186.495
 20
352.66
 11
186.332
 21
352.195
  0
LINE
  8
0
 10
186.332
 20
352.195
 11
186.07
 21
351.778
  0
LINE
  8
0
 10
186.07
 20
351.778
 11
185.722
 21
351.43
  0
LINE
  8
0
 10
185.722
 20
351.43
 11
185.305
 21
351.168
  0
LINE
  8
0
 10
185.305
 20
351.168
 11
184.84
 21
351.005
  0
LINE
  8
0
 10
184.84
 20
351.005
 11
184.35
 21
350.95
  0
LINE
  8
0
 10
184.35
 20
350.95
 11
183.86
 21
351.005
  0
LINE
  8
0
 10
183.86
 20
351.005
 11
183.395
 21
351.168
  0
LINE
  8
0
 10
183.395
 20
351.168
 11
182.978
 21
351.43
  0
LINE
  8
0
 10
182.978
 20
351.43
 11
182.63
 21
351.778
  0
LINE
  8
0
 10
182.63
 20
351.778
 11
182.368
 21
352.195
  0
LINE
  8
0
 10
182.368
 20
352.195
 11
182.205
 21
352.66
  0
LINE
  8
0
 10
182.205
 20
352.66
 11
182.15
 21
353.15
  0
LINE
  8
0
 10
186.8
 20
364
 11
186.895
 21
364.478
  0
LINE
  8
0
 10
186.895
 20
364.478
 11
187.166
 21
364.884
  0
LINE
  8
0
 10
187.166
 20
364.884
 11
187.572
 21
365.155
  0
LINE
  8
0
 10
187.572
 20
365.155
 11
188.05
 21
365.25
  0
LINE
  8
0
 10
188.05
 20
365.25
 11
215.45
 21
365.25
  0
LINE
  8
0
 10
215.45
 20
365.25
 11
215.928
 21
365.155
  0
LINE
  8
0
 10
215.928
 20
365.155
 11
216.334
 21
364.884
  0
LINE
  8
0
 10
216.334
 20
364.884
 11
216.605
 21
364.478
  0
LINE
  8
0
 10
216.605
 20
364.478
 11
216.7
 21
364
  0
LINE
  8
0
 10
216.7
 20
364
 11
216.605
 21
363.522
  0
LINE
  8
0
 10
216.605
 20
363.522
 11
216.334
 21
363.116
  0
LINE
  8
0
 10
216.334
 20
363.116
 11
215.928
 21
362.845
  0
LINE
  8
0
 10
215.928
 20
362.845
 11
215.45
 21
362.75
  0
LINE
  8
0
 10
215.45
 20
362.75
 11
188.05
 21
362.75
  0
LINE
  8
0
 10
188.05
 20
362.75
 11
187.572
 21
362.845
  0
LINE
  8
0
 10
187.572
 20
362.845
 11
187.166
 21
363.116
  0
LINE
  8
0
 10
187.166
 20
363.116
 11
186.895
 21
363.522
  0
LINE
  8
0
 10
186.895
 20
363.522
 11
186.8
 21
364
  0
LINE
  8
0
 10
202.13
 20
7.2
 11
202.185
 21
7.68955
  0
LINE
  8
0
 10
202.185
 20
7.68955
 11
202.348
 21
8.15454
  0
LINE
  8
0
 10
202.348
 20
8.15454
 11
202.61
 21
8.57168
  0
LINE
  8
0
 10
202.61
 20
8.57168
 11
202.958
 21
8.92003
  0
LINE
  8
0
 10
202.958
 20
8.92003
 11
203.375
 21
9.18213
  0
LINE
  8
0
 10
203.375
 20
9.18213
 11
203.84
 21
9.34484
  0
LINE
  8
0
 10
203.84
 20
9.34484
 11
204.33
 21
9.4
  0
LINE
  8
0
 10
204.33
 20
9.4
 11
204.82
 21
9.34484
  0
LINE
  8
0
 10
204.82
 20
9.34484
 11
205.285
 21
9.18213
  0
LINE
  8
0
 10
205.285
 20
9.18213
 11
205.702
 21
8.92003
  0
LINE
  8
0
 10
205.702
 20
8.92003
 11
206.05
 21
8.57168
  0
LINE
  8
0
 10
206.05
 20
8.57168
 11
206.312
 21
8.15454
  0
LINE
  8
0
 10
206.312
 20
8.15454
 11
206.475
 21
7.68955
  0
LINE
  8
0
 10
206.475
 20
7.68955
 11
206.53
 21
7.2
  0
LINE
  8
0
 10
206.53
 20
7.2
 11
206.475
 21
6.71045
  0
LINE
  8
0
 10
206.475
 20
6.71045
 11
206.312
 21
6.24546
  0
LINE
  8
0
 10
206.312
 20
6.24546
 11
206.05
 21
5.82832
  0
LINE
  8
0
 10
206.05
 20
5.82832
 11
205.702
 21
5.47997
  0
LINE
  8
0
 10
205.702
 20
5.47997
 11
205.285
 21
5.21787
  0
LINE
  8
0
 10
205.285
 20
5.21787
 11
204.82
 21
5.05516
  0
LINE
  8
0
 10
204.82
 20
5.05516
 11
204.33
 21
5
  0
LINE
  8
0
 10
204.33
 20
5
 11
203.84
 21
5.05516
  0
LINE
  8
0
 10
203.84
 20
5.05516
 11
203.375
 21
5.21787
  0
LINE
  8
0
 10
203.375
 20
5.21787
 11
202.958
 21
5.47997
  0
LINE
  8
0
 10
202.958
 20
5.47997
 11
202.61
 21
5.82832
  0
LINE
  8
0
 10
202.61
 20
5.82832
 11
202.348
 21
6.24546
  0
LINE
  8
0
 10
202.348
 20
6.24546
 11
202.185
 21
6.71045
  0
LINE
  8
0
 10
202.185
 20
6.71045
 11
202.13
 21
7.2
  0
LINE
  8
0
 10
216.95
 20
353.15
 11
217.005
 21
353.64
  0
LINE
  8
0
 10
217.005
 20
353.64
 11
217.168
 21
354.105
  0
LINE
  8
0
 10
217.168
 20
354.105
 11
217.43
 21
354.522
  0
LINE
  8
0
 10
217.43
 20
354.522
 11
217.778
 21
354.87
  0
LINE
  8
0
 10
217.778
 20
354.87
 11
218.195
 21
355.132
  0
LINE
  8
0
 10
218.195
 20
355.132
 11
218.66
 21
355.295
  0
LINE
  8
0
 10
218.66
 20
355.295
 11
219.15
 21
355.35
  0
LINE
  8
0
 10
219.15
 20
355.35
 11
219.64
 21
355.295
  0
LINE
  8
0
 10
219.64
 20
355.295
 11
220.105
 21
355.132
  0
LINE
  8
0
 10
220.105
 20
355.132
 11
220.522
 21
354.87
  0
LINE
  8
0
 10
220.522
 20
354.87
 11
220.87
 21
354.522
  0
LINE
  8
0
 10
220.87
 20
354.522
 11
221.132
 21
354.105
  0
LINE
  8
0
 10
221.132
 20
354.105
 11
221.295
 21
353.64
  0
LINE
  8
0
 10
221.295
 20
353.64
 11
221.35
 21
353.15
  0
LINE
  8
0
 10
221.35
 20
353.15
 11
221.295
 21
352.66
  0
LINE
  8
0
 10
221.295
 20
352.66
 11
221.132
 21
352.195
  0
LINE
  8
0
 10
221.132
 20
352.195
 11
220.87
 21
351.778
  0
LINE
  8
0
 10
220.87
 20
351.778
 11
220.522
 21
351.43
  0
LINE
  8
0
 10
220.522
 20
351.43
 11
220.105
 21
351.168
  0
LINE
  8
0
 10
220.105
 20
351.168
 11
219.64
 21
351.005
  0
LINE
  8
0
 10
219.64
 20
351.005
 11
219.15
 21
350.95
  0
LINE
  8
0
 10
219.15
 20
350.95
 11
218.66
 21
351.005
  0
LINE
  8
0
 10
218.66
 20
351.005
 11
218.195
 21
351.168
  0
LINE
  8
0
 10
218.195
 20
351.168
 11
217.778
 21
351.43
  0
LINE
  8
0
 10
217.778
 20
351.43
 11
217.43
 21
351.778
  0
LINE
  8
0
 10
217.43
 20
351.778
 11
217.168
 21
352.195
  0
LINE
  8
0
 10
217.168
 20
352.195
 11
217.005
 21
352.66
  0
LINE
  8
0
 10
217.005
 20
352.66
 11
216.95
 21
353.15
  0
LINE
  8
0
 10
223.35
 20
7.2
 11
223.405
 21
7.68955
  0
LINE
  8
0
 10
223.405
 20
7.68955
 11
223.568
 21
8.15454
  0
LINE
  8
0
 10
223.568
 20
8.15454
 11
223.83
 21
8.57168
  0
LINE
  8
0
 10
223.83
 20
8.57168
 11
224.178
 21
8.92003
  0
LINE
  8
0
 10
224.178
 20
8.92003
 11
224.595
 21
9.18213
  0
LINE
  8
0
 10
224.595
 20
9.18213
 11
225.06
 21
9.34484
  0
LINE
  8
0
 10
225.06
 20
9.34484
 11
225.55
 21
9.4
  0
LINE
  8
0
 10
225.55
 20
9.4
 11
226.04
 21
9.34484
  0
LINE
  8
0
 10
226.04
 20
9.34484
 11
226.505
 21
9.18213
  0
LINE
  8
0
 10
226.505
 20
9.18213
 11
226.922
 21
8.92003
  0
LINE
  8
0
 10
226.922
 20
8.92003
 11
227.27
 21
8.57168
  0
LINE
  8
0
 10
227.27
 20
8.57168
 11
227.532
 21
8.15454
  0
LINE
  8
0
 10
227.532
 20
8.15454
 11
227.695
 21
7.68955
  0
LINE
  8
0
 10
227.695
 20
7.68955
 11
227.75
 21
7.2
  0
LINE
  8
0
 10
227.75
 20
7.2
 11
227.695
 21
6.71045
  0
LINE
  8
0
 10
227.695
 20
6.71045
 11
227.532
 21
6.24546
  0
LINE
  8
0
 10
227.532
 20
6.24546
 11
227.27
 21
5.82832
  0
LINE
  8
0
 10
227.27
 20
5.82832
 11
226.922
 21
5.47997
  0
LINE
  8
0
 10
226.922
 20
5.47997
 11
226.505
 21
5.21787
  0
LINE
  8
0
 10
226.505
 20
5.21787
 11
226.04
 21
5.05516
  0
LINE
  8
0
 10
226.04
 20
5.05516
 11
225.55
 21
5
  0
LINE
  8
0
 10
225.55
 20
5
 11
225.06
 21
5.05516
  0
LINE
  8
0
 10
225.06
 20
5.05516
 11
224.595
 21
5.21787
  0
LINE
  8
0
 10
224.595
 20
5.21787
 11
224.178
 21
5.47997
  0
LINE
  8
0
 10
224.178
 20
5.47997
 11
223.83
 21
5.82832
  0
LINE
  8
0
 10
223.83
 20
5.82832
 11
223.568
 21
6.24546
  0
LINE
  8
0
 10
223.568
 20
6.24546
 11
223.405
 21
6.71045
  0
LINE
  8
0
 10
223.405
 20
6.71045
 11
223.35
 21
7.2
  0
ENDSEC
  0
SECTION
  2
OBJECTS
  0
DICTIONARY
  0
ENDSEC
  0
EOF
