  0
SECTION
  2
HEADER
  9
$ACADVER
  1
AC1014
  9
$HANDSEED
  5
FFFF
  9
$MEASUREMENT
 70
     1
  0
ENDSEC
  0
SECTION
  2
TABLES
  0
TABLE
  2
VPORT
  5
8
330
0
100
AcDbSymbolTable
 70
     4
  0
VPORT
  5
2E
330
8
100
AcDbSymbolTableRecord
100
AcDbViewportTableRecord
  2
*ACTIVE
 70
     0
 10
0.0
 20
0.0
 11
1.0
 21
1.0
 12
210.0
 22
148.5
 13
0.0
 23
0.0
 14
10.0
 24
10.0
 15
10.0
 25
10.0
 16
0.0
 26
0.0
 36
1.0
 17
0.0
 27
0.0
 37
0.0
 40
341.0
 41
1.24
 42
50.0
 43
0.0
 44
0.0
 50
0.0
 51
0.0
 71
     0
 72
   100
 73
     1
 74
     3
 75
     0
 76
     0
 77
     0
 78
     0
  0
ENDTAB
  0
TABLE
  2
LTYPE
  5
5
330
0
100
AcDbSymbolTable
 70
     1
  0
LTYPE
  5
14
330
5
100
AcDbSymbolTableRecord
100
AcDbLinetypeTableRecord
  2
BYBLOCK
 70
     0
  3

 72
    65
 73
     0
 40
0.0
  0
LTYPE
  5
15
330
5
100
AcDbSymbolTableRecord
100
AcDbLinetypeTableRecord
  2
BYLAYER
 70
     0
  3

 72
    65
 73
     0
 40
0.0
  0
LTYPE
  5
16
330
5
100
AcDbSymbolTableRecord
100
AcDbLinetypeTableRecord
  2
CONTINUOUS
 70
     0
  3
Solid line
 72
    65
 73
     0
 40
0.0
  0
ENDTAB
  0
TABLE
  2
LAYER
  5
2
100
AcDbSymbolTable
 70
1
  0
LAYER
  5
50
100
AcDbSymbolTableRecord
100
AcDbLayerTableRecord
  2
0
 70
0
  6
CONTINUOUS
  0
ENDTAB
  0
TABLE
  2
STYLE
  5
3
330
0
100
AcDbSymbolTable
 70
     1
  0
STYLE
  5
11
330
3
100
AcDbSymbolTableRecord
100
AcDbTextStyleTableRecord
  2
STANDARD
 70
     0
 40
0.0
 41
1.0
 50
0.0
 71
     0
 42
2.5
  3
txt
  4

  0
ENDTAB
  0
TABLE
  2
VIEW
  5
6
330
0
100
AcDbSymbolTable
 70
     0
  0
ENDTAB
  0
TABLE
  2
UCS
  5
7
330
0
100
AcDbSymbolTable
 70
     0
  0
ENDTAB
  0
TABLE
  2
APPID
  5
9
330
0
100
AcDbSymbolTable
 70
     2
  0
APPID
  5
12
330
9
100
AcDbSymbolTableRecord
100
AcDbRegAppTableRecord
  2
ACAD
 70
     0
  0
ENDTAB
  0
TABLE
  2
DIMSTYLE
  5
A
330
0
100
AcDbSymbolTable
 70
     1
  0
DIMSTYLE
105
27
330
A
100
AcDbSymbolTableRecord
100
AcDbDimStyleTableRecord
  2
ISO-25
 70
     0
  3

  4

  5

  6

  7

 40
1.0
 41
2.5
 42
0.625
 43
3.75
 44
1.25
 45
0.0
 46
0.0
 47
0.0
 48
0.0
140
2.5
141
2.5
142
0.0
143
0.03937007874016
144
1.0
145
0.0
146
1.0
147
0.625
 71
     0
 72
     0
 73
     0
 74
     0
 75
     0
 76
     0
 77
     1
 78
     8
170
     0
171
     3
172
     1
173
     0
174
     0
175
     0
176
     0
177
     0
178
     0
270
     2
271
     2
272
     2
273
     2
274
     3
340
11
275
     0
280
     0
281
     0
282
     0
283
     0
284
     8
285
     0
286
     0
287
     3
288
     0
  0
ENDTAB
  0
TABLE
  2
BLOCK_RECORD
  5
1
330
0
100
AcDbSymbolTable
 70
     1
  0
BLOCK_RECORD
  5
1F
330
1
100
AcDbSymbolTableRecord
100
AcDbBlockTableRecord
  2
*MODEL_SPACE
  0
BLOCK_RECORD
  5
1B
330
1
100
AcDbSymbolTableRecord
100
AcDbBlockTableRecord
  2
*PAPER_SPACE
  0
ENDTAB
  0
ENDSEC
  0
SECTION
  2
BLOCKS
  0
BLOCK
  5
20
330
1F
100
AcDbEntity
  8
0
100
AcDbBlockBegin
  2
*MODEL_SPACE
 70
     0
 10
0.0
 20
0.0
 30
0.0
  3
*MODEL_SPACE
  1

  0
ENDBLK
  5
21
330
1F
100
AcDbEntity
  8
0
100
AcDbBlockEnd
  0
BLOCK
  5
1C
330
1B
100
AcDbEntity
 67
     1
  8
0
100
AcDbBlockBegin
  2
*PAPER_SPACE
  1

  0
ENDBLK
  5
1D
330
1B
100
AcDbEntity
 67
     1
  8
0
100
AcDbBlockEnd
  0
ENDSEC
  0
SECTION
  2
ENTITIES
  0
SPLINE
  5
100
100
AcDbEntity
  8
0
 62
7
100
AcDbSpline
 70
8
 71
3
 72
8
 73
4
 74
0
 40
0
 40
0
 40
0
 40
0
 40
1
 40
1
 40
1
 40
1
 10
36.761222
 20
0.141185
 30
0.0
 10
59.299890
 20
0.144007
 30
0.0
 10
35.273530
 20
0.141185
 30
0.0
 10
41.761221
 20
0.141185
 30
0.0
  0
LWPOLYLINE
  5
101
100
AcDbEntity
  8
0
 62
7
100
AcDbPolyline
 90
75
 70
1
 10
100.697106
 20
278.986189
 30
0.0
 10
100.796104
 20
279.475189
 30
0.0
 10
100.943105
 20
279.951189
 30
0.0
 10
101.136106
 20
280.410189
 30
0.0
 10
101.375105
 20
280.848189
 30
0.0
 10
101.655107
 20
281.260189
 30
0.0
 10
101.976106
 20
281.642189
 30
0.0
 10
102.333106
 20
281.990189
 30
0.0
 10
102.722104
 20
282.301189
 30
0.0
 10
103.141105
 20
282.571189
 30
0.0
 10
103.585106
 20
282.799189
 30
0.0
 10
104.049105
 20
282.981189
 30
0.0
 10
104.528106
 20
283.116189
 30
0.0
 10
105.019105
 20
283.202189
 30
0.0
 10
105.516104
 20
283.239189
 30
0.0
 10
105.641106
 20
283.241192
 30
0.0
 10
345.641106
 20
283.241190
 30
0.0
 10
346.015107
 20
283.227189
 30
0.0
 10
346.509108
 20
283.165189
 30
0.0
 10
346.995095
 20
283.054189
 30
0.0
 10
347.468100
 20
282.895189
 30
0.0
 10
347.922110
 20
282.690189
 30
0.0
 10
348.354108
 20
282.441190
 30
0.0
 10
348.758109
 20
282.150189
 30
0.0
 10
349.132110
 20
281.820189
 30
0.0
 10
349.471115
 20
281.455189
 30
0.0
 10
349.772105
 20
281.058189
 30
0.0
 10
350.032117
 20
280.632189
 30
0.0
 10
350.248101
 20
280.183189
 30
0.0
 10
350.419100
 20
279.715190
 30
0.0
 10
350.542120
 20
279.232189
 30
0.0
 10
350.616119
 20
278.739190
 30
0.0
 10
350.641237
 20
278.241189
 30
0.0
 10
350.641237
 20
0.141185
 30
0.0
 10
464.641122
 20
0.141185
 30
0.0
 10
464.641122
 20
359.141190
 30
0.0
 10
464.546098
 20
361.320089
 30
0.0
 10
464.261110
 20
363.482089
 30
0.0
 10
463.789121
 20
365.611089
 30
0.0
 10
463.133124
 20
367.691089
 30
0.0
 10
462.299101
 20
369.706091
 30
0.0
 10
461.292104
 20
371.641091
 30
0.0
 10
460.120119
 20
373.480091
 30
0.0
 10
458.792123
 20
375.211090
 30
0.0
 10
457.319120
 20
376.819090
 30
0.0
 10
455.711103
 20
378.292090
 30
0.0
 10
453.980121
 20
379.620089
 30
0.0
 10
452.141104
 20
380.792090
 30
0.0
 10
450.206104
 20
381.799090
 30
0.0
 10
448.191122
 20
382.633091
 30
0.0
 10
446.111116
 20
383.289091
 30
0.0
 10
443.982116
 20
383.761091
 30
0.0
 10
441.820125
 20
384.046090
 30
0.0
 10
439.641115
 20
384.141089
 30
0.0
 10
25.141111
 20
384.141089
 30
0.0
 10
22.962111
 20
384.046090
 30
0.0
 10
20.800111
 20
383.761091
 30
0.0
 10
18.671111
 20
383.289091
 30
0.0
 10
16.591111
 20
382.633091
 30
0.0
 10
14.576111
 20
381.799090
 30
0.0
 10
12.641111
 20
380.792090
 30
0.0
 10
10.802111
 20
379.620089
 30
0.0
 10
9.071111
 20
378.292090
 30
0.0
 10
7.463111
 20
376.819090
 30
0.0
 10
5.990111
 20
375.211090
 30
0.0
 10
4.662111
 20
373.480091
 30
0.0
 10
3.490111
 20
371.641091
 30
0.0
 10
2.483111
 20
369.706091
 30
0.0
 10
1.649111
 20
367.691089
 30
0.0
 10
0.993111
 20
365.611089
 30
0.0
 10
0.521111
 20
363.482089
 30
0.0
 10
0.236111
 20
361.320089
 30
0.0
 10
0.141111
 20
359.141094
 30
0.0
 10
0.141111
 20
0.141101
 30
0.0
 10
36.761222
 20
0.141185
 30
0.0
  0
LWPOLYLINE
  5
102
100
AcDbEntity
  8
0
 62
7
100
AcDbPolyline
 90
7
 70
1
 10
41.761221
 20
0.141185
 30
0.0
 10
100.641220
 20
0.141185
 30
0.0
 10
100.641220
 20
278.241189
 30
0.0
 10
100.647232
 20
278.490189
 30
0.0
 10
100.697219
 20
278.986188
 30
0.0
 10
100.697219
 20
278.986188
 30
0.0
 10
100.697106
 20
278.986189
 30
0.0
  0
LWPOLYLINE
  5
103
100
AcDbEntity
  8
0
 62
7
100
AcDbPolyline
 90
33
 70
1
 10
69.681104
 20
378.786193
 30
0.0
 10
70.146105
 20
378.623187
 30
0.0
 10
70.563105
 20
378.361186
 30
0.0
 10
70.911105
 20
378.013186
 30
0.0
 10
71.173106
 20
377.596186
 30
0.0
 10
71.336106
 20
377.131186
 30
0.0
 10
71.391105
 20
376.641186
 30
0.0
 10
71.336106
 20
376.151186
 30
0.0
 10
71.173106
 20
375.686185
 30
0.0
 10
70.911105
 20
375.269188
 30
0.0
 10
70.563105
 20
374.921188
 30
0.0
 10
70.146105
 20
374.659187
 30
0.0
 10
69.681104
 20
374.496187
 30
0.0
 10
69.191104
 20
374.441193
 30
0.0
 10
68.701104
 20
374.496187
 30
0.0
 10
68.236106
 20
374.659187
 30
0.0
 10
67.819106
 20
374.921188
 30
0.0
 10
67.471104
 20
375.269188
 30
0.0
 10
67.209105
 20
375.686185
 30
0.0
 10
67.046105
 20
376.151186
 30
0.0
 10
66.991106
 20
376.641186
 30
0.0
 10
67.046105
 20
377.131186
 30
0.0
 10
67.209105
 20
377.596186
 30
0.0
 10
67.471104
 20
378.013186
 30
0.0
 10
67.819106
 20
378.361186
 30
0.0
 10
68.236106
 20
378.623187
 30
0.0
 10
68.701104
 20
378.786193
 30
0.0
 10
69.191104
 20
378.841187
 30
0.0
 10
69.681104
 20
378.786193
 30
0.0
 10
69.681104
 20
378.786193
 30
0.0
 10
69.681104
 20
378.786193
 30
0.0
 10
69.681104
 20
378.786193
 30
0.0
 10
69.681104
 20
378.786193
 30
0.0
  0
LWPOLYLINE
  5
104
100
AcDbEntity
  8
0
 62
7
100
AcDbPolyline
 90
33
 70
1
 10
360.236115
 20
377.131186
 30
0.0
 10
360.291120
 20
376.641186
 30
0.0
 10
360.236115
 20
376.151186
 30
0.0
 10
360.073104
 20
375.686185
 30
0.0
 10
359.811117
 20
375.269188
 30
0.0
 10
359.463108
 20
374.921188
 30
0.0
 10
359.046097
 20
374.659187
 30
0.0
 10
358.581108
 20
374.496187
 30
0.0
 10
358.091113
 20
374.441193
 30
0.0
 10
357.601119
 20
374.496187
 30
0.0
 10
357.136102
 20
374.659187
 30
0.0
 10
356.719118
 20
374.921188
 30
0.0
 10
356.371110
 20
375.269188
 30
0.0
 10
356.109123
 20
375.686185
 30
0.0
 10
355.946112
 20
376.151186
 30
0.0
 10
355.891106
 20
376.641186
 30
0.0
 10
355.946112
 20
377.131186
 30
0.0
 10
356.109123
 20
377.596186
 30
0.0
 10
356.371110
 20
378.013186
 30
0.0
 10
356.719118
 20
378.361186
 30
0.0
 10
357.136102
 20
378.623187
 30
0.0
 10
357.601119
 20
378.786193
 30
0.0
 10
358.091113
 20
378.841187
 30
0.0
 10
358.581108
 20
378.786193
 30
0.0
 10
359.046097
 20
378.623187
 30
0.0
 10
359.463108
 20
378.361186
 30
0.0
 10
359.811117
 20
378.013186
 30
0.0
 10
360.073104
 20
377.596186
 30
0.0
 10
360.236115
 20
377.131186
 30
0.0
 10
360.236115
 20
377.131186
 30
0.0
 10
360.236115
 20
377.131186
 30
0.0
 10
360.236115
 20
377.131186
 30
0.0
 10
360.236115
 20
377.131186
 30
0.0
  0
LWPOLYLINE
  5
105
100
AcDbEntity
  8
0
 62
7
100
AcDbPolyline
 90
33
 70
1
 10
36.891104
 20
376.641186
 30
0.0
 10
36.946106
 20
377.131186
 30
0.0
 10
37.109106
 20
377.596186
 30
0.0
 10
37.371105
 20
378.013186
 30
0.0
 10
37.719104
 20
378.361186
 30
0.0
 10
38.136105
 20
378.623187
 30
0.0
 10
38.601105
 20
378.786193
 30
0.0
 10
39.091105
 20
378.841187
 30
0.0
 10
39.581105
 20
378.786193
 30
0.0
 10
40.046106
 20
378.623187
 30
0.0
 10
40.463106
 20
378.361186
 30
0.0
 10
40.811106
 20
378.013186
 30
0.0
 10
41.073107
 20
377.596186
 30
0.0
 10
41.236104
 20
377.131186
 30
0.0
 10
41.291106
 20
376.641186
 30
0.0
 10
41.236104
 20
376.151186
 30
0.0
 10
41.073107
 20
375.686185
 30
0.0
 10
40.811106
 20
375.269188
 30
0.0
 10
40.463106
 20
374.921188
 30
0.0
 10
40.046106
 20
374.659187
 30
0.0
 10
39.581105
 20
374.496187
 30
0.0
 10
39.091105
 20
374.441193
 30
0.0
 10
38.601105
 20
374.496187
 30
0.0
 10
38.136105
 20
374.659187
 30
0.0
 10
37.719104
 20
374.921188
 30
0.0
 10
37.371105
 20
375.269188
 30
0.0
 10
37.109106
 20
375.686185
 30
0.0
 10
36.946106
 20
376.151186
 30
0.0
 10
36.891104
 20
376.641186
 30
0.0
 10
36.891104
 20
376.641186
 30
0.0
 10
36.891104
 20
376.641186
 30
0.0
 10
36.891104
 20
376.641186
 30
0.0
 10
36.891104
 20
376.641186
 30
0.0
  0
LWPOLYLINE
  5
106
100
AcDbEntity
  8
0
 62
7
100
AcDbPolyline
 90
33
 70
1
 10
390.336103
 20
377.131186
 30
0.0
 10
390.391108
 20
376.641186
 30
0.0
 10
390.336103
 20
376.151186
 30
0.0
 10
390.173120
 20
375.686185
 30
0.0
 10
389.911104
 20
375.269188
 30
0.0
 10
389.563096
 20
374.921188
 30
0.0
 10
389.146113
 20
374.659187
 30
0.0
 10
388.681095
 20
374.496187
 30
0.0
 10
388.191101
 20
374.441193
 30
0.0
 10
387.701107
 20
374.496187
 30
0.0
 10
387.236118
 20
374.659187
 30
0.0
 10
386.819106
 20
374.921188
 30
0.0
 10
386.471098
 20
375.269188
 30
0.0
 10
386.209111
 20
375.686185
 30
0.0
 10
386.046099
 20
376.151186
 30
0.0
 10
385.991122
 20
376.641186
 30
0.0
 10
386.046099
 20
377.131186
 30
0.0
 10
386.209111
 20
377.596186
 30
0.0
 10
386.471098
 20
378.013186
 30
0.0
 10
386.819106
 20
378.361186
 30
0.0
 10
387.236118
 20
378.623187
 30
0.0
 10
387.701107
 20
378.786193
 30
0.0
 10
388.191101
 20
378.841187
 30
0.0
 10
388.681095
 20
378.786193
 30
0.0
 10
389.146113
 20
378.623187
 30
0.0
 10
389.563096
 20
378.361186
 30
0.0
 10
389.911104
 20
378.013186
 30
0.0
 10
390.173120
 20
377.596186
 30
0.0
 10
390.336103
 20
377.131186
 30
0.0
 10
390.336103
 20
377.131186
 30
0.0
 10
390.336103
 20
377.131186
 30
0.0
 10
390.336103
 20
377.131186
 30
0.0
 10
390.336103
 20
377.131186
 30
0.0
  0
LWPOLYLINE
  5
107
100
AcDbEntity
  8
0
 62
7
100
AcDbPolyline
 90
23
 70
1
 10
448.725115
 20
365.025190
 30
0.0
 10
448.996105
 20
364.619188
 30
0.0
 10
449.091101
 20
364.141191
 30
0.0
 10
448.996105
 20
363.663186
 30
0.0
 10
448.725115
 20
363.257192
 30
0.0
 10
448.319110
 20
362.986185
 30
0.0
 10
447.841110
 20
362.891186
 30
0.0
 10
420.441114
 20
362.891186
 30
0.0
 10
419.963114
 20
362.986185
 30
0.0
 10
419.557110
 20
363.257192
 30
0.0
 10
419.286120
 20
363.663186
 30
0.0
 10
419.191096
 20
364.141191
 30
0.0
 10
419.286120
 20
364.619188
 30
0.0
 10
419.557110
 20
365.025190
 30
0.0
 10
419.963114
 20
365.296185
 30
0.0
 10
420.441114
 20
365.391187
 30
0.0
 10
447.841110
 20
365.391187
 30
0.0
 10
448.319110
 20
365.296185
 30
0.0
 10
448.725115
 20
365.025190
 30
0.0
 10
448.725115
 20
365.025190
 30
0.0
 10
448.725115
 20
365.025190
 30
0.0
 10
448.725115
 20
365.025190
 30
0.0
 10
448.725115
 20
365.025190
 30
0.0
  0
LWPOLYLINE
  5
108
100
AcDbEntity
  8
0
 62
7
100
AcDbPolyline
 90
33
 70
1
 10
453.686102
 20
353.781186
 30
0.0
 10
453.741107
 20
353.291186
 30
0.0
 10
453.686102
 20
352.801186
 30
0.0
 10
453.523118
 20
352.336191
 30
0.0
 10
453.261103
 20
351.919188
 30
0.0
 10
452.913095
 20
351.571191
 30
0.0
 10
452.496112
 20
351.309190
 30
0.0
 10
452.031122
 20
351.146187
 30
0.0
 10
451.541100
 20
351.091187
 30
0.0
 10
451.051106
 20
351.146187
 30
0.0
 10
450.586116
 20
351.309190
 30
0.0
 10
450.169105
 20
351.571191
 30
0.0
 10
449.821097
 20
351.919188
 30
0.0
 10
449.559110
 20
352.336191
 30
0.0
 10
449.396098
 20
352.801186
 30
0.0
 10
449.341121
 20
353.291186
 30
0.0
 10
449.396098
 20
353.781186
 30
0.0
 10
449.559110
 20
354.246192
 30
0.0
 10
449.821097
 20
354.663187
 30
0.0
 10
450.169105
 20
355.011192
 30
0.0
 10
450.586116
 20
355.273193
 30
0.0
 10
451.051106
 20
355.436188
 30
0.0
 10
451.541100
 20
355.491190
 30
0.0
 10
452.031122
 20
355.436188
 30
0.0
 10
452.496112
 20
355.273193
 30
0.0
 10
452.913095
 20
355.011192
 30
0.0
 10
453.261103
 20
354.663187
 30
0.0
 10
453.523118
 20
354.246192
 30
0.0
 10
453.686102
 20
353.781186
 30
0.0
 10
453.686102
 20
353.781186
 30
0.0
 10
453.686102
 20
353.781186
 30
0.0
 10
453.686102
 20
353.781186
 30
0.0
 10
453.686102
 20
353.781186
 30
0.0
  0
LWPOLYLINE
  5
109
100
AcDbEntity
  8
0
 62
7
100
AcDbPolyline
 90
33
 70
1
 10
414.759106
 20
352.336191
 30
0.0
 10
414.596094
 20
352.801186
 30
0.0
 10
414.541118
 20
353.291186
 30
0.0
 10
414.596094
 20
353.781186
 30
0.0
 10
414.759106
 20
354.246192
 30
0.0
 10
415.021121
 20
354.663187
 30
0.0
 10
415.369101
 20
355.011192
 30
0.0
 10
415.786113
 20
355.273193
 30
0.0
 10
416.251102
 20
355.436188
 30
0.0
 10
416.741096
 20
355.491190
 30
0.0
 10
417.231119
 20
355.436188
 30
0.0
 10
417.696108
 20
355.273193
 30
0.0
 10
418.113120
 20
355.011192
 30
0.0
 10
418.461100
 20
354.663187
 30
0.0
 10
418.723115
 20
354.246192
 30
0.0
 10
418.886098
 20
353.781186
 30
0.0
 10
418.941103
 20
353.291186
 30
0.0
 10
418.886098
 20
352.801186
 30
0.0
 10
418.723115
 20
352.336191
 30
0.0
 10
418.461100
 20
351.919188
 30
0.0
 10
418.113120
 20
351.571191
 30
0.0
 10
417.696108
 20
351.309190
 30
0.0
 10
417.231119
 20
351.146187
 30
0.0
 10
416.741096
 20
351.091187
 30
0.0
 10
416.251102
 20
351.146187
 30
0.0
 10
415.786113
 20
351.309190
 30
0.0
 10
415.369101
 20
351.571191
 30
0.0
 10
415.021121
 20
351.919188
 30
0.0
 10
414.759106
 20
352.336191
 30
0.0
 10
414.759106
 20
352.336191
 30
0.0
 10
414.759106
 20
352.336191
 30
0.0
 10
414.759106
 20
352.336191
 30
0.0
 10
414.759106
 20
352.336191
 30
0.0
  0
LWPOLYLINE
  5
10a
100
AcDbEntity
  8
0
 62
7
100
AcDbPolyline
 90
33
 70
1
 10
58.246106
 20
349.941186
 30
0.0
 10
58.191106
 20
350.431191
 30
0.0
 10
58.246106
 20
350.921185
 30
0.0
 10
58.409106
 20
351.386186
 30
0.0
 10
58.671104
 20
351.803189
 30
0.0
 10
59.019104
 20
352.151186
 30
0.0
 10
59.436104
 20
352.413187
 30
0.0
 10
59.901105
 20
352.576190
 30
0.0
 10
60.391105
 20
352.631187
 30
0.0
 10
60.881105
 20
352.576190
 30
0.0
 10
61.346105
 20
352.413187
 30
0.0
 10
61.763106
 20
352.151186
 30
0.0
 10
62.111105
 20
351.803189
 30
0.0
 10
62.373106
 20
351.386186
 30
0.0
 10
62.536104
 20
350.921185
 30
0.0
 10
62.591106
 20
350.431191
 30
0.0
 10
62.536104
 20
349.941186
 30
0.0
 10
62.373106
 20
349.476188
 30
0.0
 10
62.111105
 20
349.059187
 30
0.0
 10
61.763106
 20
348.711188
 30
0.0
 10
61.346105
 20
348.449187
 30
0.0
 10
60.881105
 20
348.286186
 30
0.0
 10
60.391105
 20
348.231187
 30
0.0
 10
59.901105
 20
348.286186
 30
0.0
 10
59.436104
 20
348.449187
 30
0.0
 10
59.019104
 20
348.711188
 30
0.0
 10
58.671104
 20
349.059187
 30
0.0
 10
58.409106
 20
349.476188
 30
0.0
 10
58.246106
 20
349.941186
 30
0.0
 10
58.246106
 20
349.941186
 30
0.0
 10
58.246106
 20
349.941186
 30
0.0
 10
58.246106
 20
349.941186
 30
0.0
 10
58.246106
 20
349.941186
 30
0.0
  0
LWPOLYLINE
  5
10b
100
AcDbEntity
  8
0
 62
7
100
AcDbPolyline
 90
33
 70
1
 10
361.611102
 20
349.059187
 30
0.0
 10
361.263094
 20
348.711188
 30
0.0
 10
360.846110
 20
348.449187
 30
0.0
 10
360.381121
 20
348.286186
 30
0.0
 10
359.891098
 20
348.231187
 30
0.0
 10
359.401104
 20
348.286186
 30
0.0
 10
358.936115
 20
348.449187
 30
0.0
 10
358.519103
 20
348.711188
 30
0.0
 10
358.171095
 20
349.059187
 30
0.0
 10
357.909108
 20
349.476188
 30
0.0
 10
357.746097
 20
349.941186
 30
0.0
 10
357.691120
 20
350.431191
 30
0.0
 10
357.746097
 20
350.921185
 30
0.0
 10
357.909108
 20
351.386186
 30
0.0
 10
358.171095
 20
351.803189
 30
0.0
 10
358.519103
 20
352.151186
 30
0.0
 10
358.936115
 20
352.413187
 30
0.0
 10
359.401104
 20
352.576190
 30
0.0
 10
359.891098
 20
352.631187
 30
0.0
 10
360.381121
 20
352.576190
 30
0.0
 10
360.846110
 20
352.413187
 30
0.0
 10
361.263094
 20
352.151186
 30
0.0
 10
361.611102
 20
351.803189
 30
0.0
 10
361.873117
 20
351.386186
 30
0.0
 10
362.036100
 20
350.921185
 30
0.0
 10
362.091105
 20
350.431191
 30
0.0
 10
362.036100
 20
349.941186
 30
0.0
 10
361.873117
 20
349.476188
 30
0.0
 10
361.611102
 20
349.059187
 30
0.0
 10
361.611102
 20
349.059187
 30
0.0
 10
361.611102
 20
349.059187
 30
0.0
 10
361.611102
 20
349.059187
 30
0.0
 10
361.611102
 20
349.059187
 30
0.0
  0
LWPOLYLINE
  5
10c
100
AcDbEntity
  8
0
 62
7
100
AcDbPolyline
 90
35
 70
1
 10
377.573111
 20
66.595688
 30
0.0
 10
377.736122
 20
66.130690
 30
0.0
 10
377.791099
 20
65.641187
 30
0.0
 10
377.791099
 20
56.641188
 30
0.0
 10
377.736122
 20
56.151693
 30
0.0
 10
377.573111
 20
55.686591
 30
0.0
 10
377.311096
 20
55.269492
 30
0.0
 10
376.963116
 20
54.921193
 30
0.0
 10
376.546104
 20
54.659088
 30
0.0
 10
376.081115
 20
54.496288
 30
0.0
 10
375.591092
 20
54.441187
 30
0.0
 10
375.101098
 20
54.496288
 30
0.0
 10
374.636109
 20
54.659088
 30
0.0
 10
374.219097
 20
54.921193
 30
0.0
 10
373.871117
 20
55.269492
 30
0.0
 10
373.609102
 20
55.686591
 30
0.0
 10
373.446119
 20
56.151693
 30
0.0
 10
373.391114
 20
56.641188
 30
0.0
 10
373.391114
 20
65.641187
 30
0.0
 10
373.446119
 20
66.130690
 30
0.0
 10
373.609102
 20
66.595688
 30
0.0
 10
373.871117
 20
67.012891
 30
0.0
 10
374.219097
 20
67.361193
 30
0.0
 10
374.636109
 20
67.623290
 30
0.0
 10
375.101098
 20
67.785991
 30
0.0
 10
375.591092
 20
67.841185
 30
0.0
 10
376.081115
 20
67.785991
 30
0.0
 10
376.546104
 20
67.623290
 30
0.0
 10
376.963116
 20
67.361193
 30
0.0
 10
377.311096
 20
67.012891
 30
0.0
 10
377.573111
 20
66.595688
 30
0.0
 10
377.573111
 20
66.595688
 30
0.0
 10
377.573111
 20
66.595688
 30
0.0
 10
377.573111
 20
66.595688
 30
0.0
 10
377.573111
 20
66.595688
 30
0.0
  0
LWPOLYLINE
  5
10d
100
AcDbEntity
  8
0
 62
7
100
AcDbPolyline
 90
35
 70
1
 10
14.101106
 20
54.496288
 30
0.0
 10
13.636105
 20
54.659088
 30
0.0
 10
13.219105
 20
54.921193
 30
0.0
 10
12.871105
 20
55.269492
 30
0.0
 10
12.609104
 20
55.686591
 30
0.0
 10
12.446104
 20
56.151693
 30
0.0
 10
12.391104
 20
56.641188
 30
0.0
 10
12.391104
 20
65.641187
 30
0.0
 10
12.446104
 20
66.130690
 30
0.0
 10
12.609104
 20
66.595688
 30
0.0
 10
12.871105
 20
67.012891
 30
0.0
 10
13.219105
 20
67.361193
 30
0.0
 10
13.636105
 20
67.623290
 30
0.0
 10
14.101106
 20
67.785991
 30
0.0
 10
14.591106
 20
67.841185
 30
0.0
 10
15.081106
 20
67.785991
 30
0.0
 10
15.546103
 20
67.623290
 30
0.0
 10
15.963104
 20
67.361193
 30
0.0
 10
16.311106
 20
67.012891
 30
0.0
 10
16.573104
 20
66.595688
 30
0.0
 10
16.736105
 20
66.130690
 30
0.0
 10
16.791104
 20
65.641187
 30
0.0
 10
16.791104
 20
56.641188
 30
0.0
 10
16.736105
 20
56.151693
 30
0.0
 10
16.573104
 20
55.686591
 30
0.0
 10
16.311106
 20
55.269492
 30
0.0
 10
15.963104
 20
54.921193
 30
0.0
 10
15.546103
 20
54.659088
 30
0.0
 10
15.081106
 20
54.496288
 30
0.0
 10
14.591106
 20
54.441187
 30
0.0
 10
14.101106
 20
54.496288
 30
0.0
 10
14.101106
 20
54.496288
 30
0.0
 10
14.101106
 20
54.496288
 30
0.0
 10
14.101106
 20
54.496288
 30
0.0
 10
14.101106
 20
54.496288
 30
0.0
  0
LWPOLYLINE
  5
10e
100
AcDbEntity
  8
0
 62
7
100
AcDbPolyline
 90
35
 70
1
 10
407.411112
 20
55.269492
 30
0.0
 10
407.063104
 20
54.921193
 30
0.0
 10
406.646120
 20
54.659088
 30
0.0
 10
406.181103
 20
54.496288
 30
0.0
 10
405.691108
 20
54.441187
 30
0.0
 10
405.201114
 20
54.496288
 30
0.0
 10
404.736097
 20
54.659088
 30
0.0
 10
404.319113
 20
54.921193
 30
0.0
 10
403.971105
 20
55.269492
 30
0.0
 10
403.709118
 20
55.686591
 30
0.0
 10
403.546107
 20
56.151693
 30
0.0
 10
403.491102
 20
56.641188
 30
0.0
 10
403.491102
 20
65.641187
 30
0.0
 10
403.546107
 20
66.130690
 30
0.0
 10
403.709118
 20
66.595688
 30
0.0
 10
403.971105
 20
67.012891
 30
0.0
 10
404.319113
 20
67.361193
 30
0.0
 10
404.736097
 20
67.623290
 30
0.0
 10
405.201114
 20
67.785991
 30
0.0
 10
405.691108
 20
67.841185
 30
0.0
 10
406.181103
 20
67.785991
 30
0.0
 10
406.646120
 20
67.623290
 30
0.0
 10
407.063104
 20
67.361193
 30
0.0
 10
407.411112
 20
67.012891
 30
0.0
 10
407.673099
 20
66.595688
 30
0.0
 10
407.836110
 20
66.130690
 30
0.0
 10
407.891115
 20
65.641187
 30
0.0
 10
407.891115
 20
56.641188
 30
0.0
 10
407.836110
 20
56.151693
 30
0.0
 10
407.673099
 20
55.686591
 30
0.0
 10
407.411112
 20
55.269492
 30
0.0
 10
407.411112
 20
55.269492
 30
0.0
 10
407.411112
 20
55.269492
 30
0.0
 10
407.411112
 20
55.269492
 30
0.0
 10
407.411112
 20
55.269492
 30
0.0
  0
LWPOLYLINE
  5
10f
100
AcDbEntity
  8
0
 62
7
100
AcDbPolyline
 90
35
 70
1
 10
44.691105
 20
67.841185
 30
0.0
 10
45.181105
 20
67.785991
 30
0.0
 10
45.646106
 20
67.623290
 30
0.0
 10
46.063106
 20
67.361193
 30
0.0
 10
46.411106
 20
67.012891
 30
0.0
 10
46.673104
 20
66.595688
 30
0.0
 10
46.836104
 20
66.130690
 30
0.0
 10
46.891106
 20
65.641187
 30
0.0
 10
46.891106
 20
56.641188
 30
0.0
 10
46.836104
 20
56.151693
 30
0.0
 10
46.673104
 20
55.686591
 30
0.0
 10
46.411106
 20
55.269492
 30
0.0
 10
46.063106
 20
54.921193
 30
0.0
 10
45.646106
 20
54.659088
 30
0.0
 10
45.181105
 20
54.496288
 30
0.0
 10
44.691105
 20
54.441187
 30
0.0
 10
44.201105
 20
54.496288
 30
0.0
 10
43.736105
 20
54.659088
 30
0.0
 10
43.319104
 20
54.921193
 30
0.0
 10
42.971105
 20
55.269492
 30
0.0
 10
42.709104
 20
55.686591
 30
0.0
 10
42.546106
 20
56.151693
 30
0.0
 10
42.491104
 20
56.641188
 30
0.0
 10
42.491104
 20
65.641187
 30
0.0
 10
42.546106
 20
66.130690
 30
0.0
 10
42.709104
 20
66.595688
 30
0.0
 10
42.971105
 20
67.012891
 30
0.0
 10
43.319104
 20
67.361193
 30
0.0
 10
43.736105
 20
67.623290
 30
0.0
 10
44.201105
 20
67.785991
 30
0.0
 10
44.691105
 20
67.841185
 30
0.0
 10
44.691105
 20
67.841185
 30
0.0
 10
44.691105
 20
67.841185
 30
0.0
 10
44.691105
 20
67.841185
 30
0.0
 10
44.691105
 20
67.841185
 30
0.0
  0
LWPOLYLINE
  5
110
100
AcDbEntity
  8
0
 62
7
100
AcDbPolyline
 90
33
 70
1
 10
361.611102
 20
32.479486
 30
0.0
 10
361.263094
 20
32.131187
 30
0.0
 10
360.846110
 20
31.869090
 30
0.0
 10
360.381121
 20
31.706386
 30
0.0
 10
359.891098
 20
31.651189
 30
0.0
 10
359.401104
 20
31.706386
 30
0.0
 10
358.936115
 20
31.869090
 30
0.0
 10
358.519103
 20
32.131187
 30
0.0
 10
358.171095
 20
32.479486
 30
0.0
 10
357.909108
 20
32.896588
 30
0.0
 10
357.746097
 20
33.361591
 30
0.0
 10
357.691120
 20
33.851193
 30
0.0
 10
357.746097
 20
34.340688
 30
0.0
 10
357.909108
 20
34.805691
 30
0.0
 10
358.171095
 20
35.222886
 30
0.0
 10
358.519103
 20
35.571188
 30
0.0
 10
358.936115
 20
35.833288
 30
0.0
 10
359.401104
 20
35.995986
 30
0.0
 10
359.891098
 20
36.051186
 30
0.0
 10
360.381121
 20
35.995986
 30
0.0
 10
360.846110
 20
35.833288
 30
0.0
 10
361.263094
 20
35.571188
 30
0.0
 10
361.611102
 20
35.222886
 30
0.0
 10
361.873117
 20
34.805691
 30
0.0
 10
362.036100
 20
34.340688
 30
0.0
 10
362.091105
 20
33.851193
 30
0.0
 10
362.036100
 20
33.361591
 30
0.0
 10
361.873117
 20
32.896588
 30
0.0
 10
361.611102
 20
32.479486
 30
0.0
 10
361.611102
 20
32.479486
 30
0.0
 10
361.611102
 20
32.479486
 30
0.0
 10
361.611102
 20
32.479486
 30
0.0
 10
361.611102
 20
32.479486
 30
0.0
  0
LWPOLYLINE
  5
111
100
AcDbEntity
  8
0
 62
7
100
AcDbPolyline
 90
33
 70
1
 10
59.019104
 20
35.571188
 30
0.0
 10
59.436104
 20
35.833288
 30
0.0
 10
59.901105
 20
35.995986
 30
0.0
 10
60.391105
 20
36.051186
 30
0.0
 10
60.881105
 20
35.995986
 30
0.0
 10
61.346105
 20
35.833288
 30
0.0
 10
61.763106
 20
35.571188
 30
0.0
 10
62.111105
 20
35.222886
 30
0.0
 10
62.373106
 20
34.805691
 30
0.0
 10
62.536104
 20
34.340688
 30
0.0
 10
62.591106
 20
33.851193
 30
0.0
 10
62.536104
 20
33.361591
 30
0.0
 10
62.373106
 20
32.896588
 30
0.0
 10
62.111105
 20
32.479486
 30
0.0
 10
61.763106
 20
32.131187
 30
0.0
 10
61.346105
 20
31.869090
 30
0.0
 10
60.881105
 20
31.706386
 30
0.0
 10
60.391105
 20
31.651189
 30
0.0
 10
59.901105
 20
31.706386
 30
0.0
 10
59.436104
 20
31.869090
 30
0.0
 10
59.019104
 20
32.131187
 30
0.0
 10
58.671104
 20
32.479486
 30
0.0
 10
58.409106
 20
32.896588
 30
0.0
 10
58.246106
 20
33.361591
 30
0.0
 10
58.191106
 20
33.851193
 30
0.0
 10
58.246106
 20
34.340688
 30
0.0
 10
58.409106
 20
34.805691
 30
0.0
 10
58.671104
 20
35.222886
 30
0.0
 10
59.019104
 20
35.571188
 30
0.0
 10
59.019104
 20
35.571188
 30
0.0
 10
59.019104
 20
35.571188
 30
0.0
 10
59.019104
 20
35.571188
 30
0.0
 10
59.019104
 20
35.571188
 30
0.0
  0
LWPOLYLINE
  5
112
100
AcDbEntity
  8
0
 62
7
100
AcDbPolyline
 90
37
 70
1
 10
389.309096
 20
17.553492
 30
0.0
 10
389.261118
 20
18.041186
 30
0.0
 10
389.309096
 20
18.528886
 30
0.0
 10
389.451110
 20
18.997891
 30
0.0
 10
389.682109
 20
19.430092
 30
0.0
 10
389.993118
 20
19.808987
 30
0.0
 10
390.372114
 20
20.119891
 30
0.0
 10
390.804112
 20
20.350890
 30
0.0
 10
391.273109
 20
20.493192
 30
0.0
 10
391.761099
 20
20.541187
 30
0.0
 10
392.249118
 20
20.493192
 30
0.0
 10
392.718115
 20
20.350890
 30
0.0
 10
393.150112
 20
20.119891
 30
0.0
 10
393.529109
 20
19.808987
 30
0.0
 10
393.840118
 20
19.430092
 30
0.0
 10
394.071116
 20
18.997891
 30
0.0
 10
394.213102
 20
18.528886
 30
0.0
 10
394.261108
 20
18.041186
 30
0.0
 10
394.213102
 20
17.553492
 30
0.0
 10
394.071116
 20
17.084492
 30
0.0
 10
393.840118
 20
16.652286
 30
0.0
 10
393.529109
 20
16.273391
 30
0.0
 10
393.150112
 20
15.962487
 30
0.0
 10
392.718115
 20
15.731488
 30
0.0
 10
392.249118
 20
15.589186
 30
0.0
 10
391.761099
 20
15.541191
 30
0.0
 10
391.273109
 20
15.589186
 30
0.0
 10
390.804112
 20
15.731488
 30
0.0
 10
390.372114
 20
15.962487
 30
0.0
 10
389.993118
 20
16.273391
 30
0.0
 10
389.682109
 20
16.652286
 30
0.0
 10
389.451110
 20
17.084492
 30
0.0
 10
389.309096
 20
17.553492
 30
0.0
 10
389.309096
 20
17.553492
 30
0.0
 10
389.309096
 20
17.553492
 30
0.0
 10
389.309096
 20
17.553492
 30
0.0
 10
389.309096
 20
17.553492
 30
0.0
  0
LWPOLYLINE
  5
113
100
AcDbEntity
  8
0
 62
7
100
AcDbPolyline
 90
33
 70
1
 10
71.221106
 20
5.141175
 30
0.0
 10
70.731106
 20
5.196321
 30
0.0
 10
70.266105
 20
5.359051
 30
0.0
 10
69.849105
 20
5.621151
 30
0.0
 10
69.501105
 20
5.969497
 30
0.0
 10
69.239104
 20
6.386622
 30
0.0
 10
69.076104
 20
6.851639
 30
0.0
 10
69.021105
 20
7.341182
 30
0.0
 10
69.076104
 20
7.830725
 30
0.0
 10
69.239104
 20
8.295714
 30
0.0
 10
69.501105
 20
8.712867
 30
0.0
 10
69.849105
 20
9.061214
 30
0.0
 10
70.266105
 20
9.323313
 30
0.0
 10
70.731106
 20
9.486015
 30
0.0
 10
71.221106
 20
9.541161
 30
0.0
 10
71.711106
 20
9.486015
 30
0.0
 10
72.176104
 20
9.323313
 30
0.0
 10
72.593104
 20
9.061214
 30
0.0
 10
72.941104
 20
8.712867
 30
0.0
 10
73.203105
 20
8.295714
 30
0.0
 10
73.366105
 20
7.830725
 30
0.0
 10
73.421104
 20
7.341182
 30
0.0
 10
73.366105
 20
6.851639
 30
0.0
 10
73.203105
 20
6.386622
 30
0.0
 10
72.941104
 20
5.969497
 30
0.0
 10
72.593104
 20
5.621151
 30
0.0
 10
72.176104
 20
5.359051
 30
0.0
 10
71.711106
 20
5.196321
 30
0.0
 10
71.221106
 20
5.141175
 30
0.0
 10
71.221106
 20
5.141175
 30
0.0
 10
71.221106
 20
5.141175
 30
0.0
 10
71.221106
 20
5.141175
 30
0.0
 10
71.221106
 20
5.141175
 30
0.0
  0
LWPOLYLINE
  5
114
100
AcDbEntity
  8
0
 62
7
100
AcDbPolyline
 90
33
 70
1
 10
7.331106
 20
5.196321
 30
0.0
 10
6.841106
 20
5.141175
 30
0.0
 10
6.351106
 20
5.196321
 30
0.0
 10
5.886105
 20
5.359051
 30
0.0
 10
5.469105
 20
5.621151
 30
0.0
 10
5.121105
 20
5.969497
 30
0.0
 10
4.859104
 20
6.386622
 30
0.0
 10
4.696104
 20
6.851639
 30
0.0
 10
4.641104
 20
7.341182
 30
0.0
 10
4.696104
 20
7.830725
 30
0.0
 10
4.859104
 20
8.295714
 30
0.0
 10
5.121105
 20
8.712867
 30
0.0
 10
5.469105
 20
9.061214
 30
0.0
 10
5.886105
 20
9.323313
 30
0.0
 10
6.351106
 20
9.486015
 30
0.0
 10
6.841106
 20
9.541161
 30
0.0
 10
7.331106
 20
9.486015
 30
0.0
 10
7.796106
 20
9.323313
 30
0.0
 10
8.213104
 20
9.061214
 30
0.0
 10
8.561103
 20
8.712867
 30
0.0
 10
8.823104
 20
8.295714
 30
0.0
 10
8.986105
 20
7.830725
 30
0.0
 10
9.041104
 20
7.341182
 30
0.0
 10
8.986105
 20
6.851639
 30
0.0
 10
8.823104
 20
6.386622
 30
0.0
 10
8.561103
 20
5.969497
 30
0.0
 10
8.213104
 20
5.621151
 30
0.0
 10
7.796106
 20
5.359051
 30
0.0
 10
7.331106
 20
5.196321
 30
0.0
 10
7.331106
 20
5.196321
 30
0.0
 10
7.331106
 20
5.196321
 30
0.0
 10
7.331106
 20
5.196321
 30
0.0
 10
7.331106
 20
5.196321
 30
0.0
  0
LWPOLYLINE
  5
115
100
AcDbEntity
  8
0
 62
7
100
AcDbPolyline
 90
33
 70
1
 10
459.661113
 20
5.969497
 30
0.0
 10
459.313105
 20
5.621151
 30
0.0
 10
458.896093
 20
5.359051
 30
0.0
 10
458.431104
 20
5.196321
 30
0.0
 10
457.941110
 20
5.141175
 30
0.0
 10
457.451116
 20
5.196321
 30
0.0
 10
456.986098
 20
5.359051
 30
0.0
 10
456.569115
 20
5.621151
 30
0.0
 10
456.221106
 20
5.969497
 30
0.0
 10
455.959120
 20
6.386622
 30
0.0
 10
455.796108
 20
6.851639
 30
0.0
 10
455.741103
 20
7.341182
 30
0.0
 10
455.796108
 20
7.830725
 30
0.0
 10
455.959120
 20
8.295714
 30
0.0
 10
456.221106
 20
8.712867
 30
0.0
 10
456.569115
 20
9.061214
 30
0.0
 10
456.986098
 20
9.323313
 30
0.0
 10
457.451116
 20
9.486015
 30
0.0
 10
457.941110
 20
9.541161
 30
0.0
 10
458.431104
 20
9.486015
 30
0.0
 10
458.896093
 20
9.323313
 30
0.0
 10
459.313105
 20
9.061214
 30
0.0
 10
459.661113
 20
8.712867
 30
0.0
 10
459.923100
 20
8.295714
 30
0.0
 10
460.086112
 20
7.830725
 30
0.0
 10
460.141117
 20
7.341182
 30
0.0
 10
460.086112
 20
6.851639
 30
0.0
 10
459.923100
 20
6.386622
 30
0.0
 10
459.661113
 20
5.969497
 30
0.0
 10
459.661113
 20
5.969497
 30
0.0
 10
459.661113
 20
5.969497
 30
0.0
 10
459.661113
 20
5.969497
 30
0.0
 10
459.661113
 20
5.969497
 30
0.0
  0
LWPOLYLINE
  5
116
100
AcDbEntity
  8
0
 62
7
100
AcDbPolyline
 90
33
 70
1
 10
435.349108
 20
5.621151
 30
0.0
 10
435.001100
 20
5.969497
 30
0.0
 10
434.739113
 20
6.386622
 30
0.0
 10
434.576101
 20
6.851639
 30
0.0
 10
434.521096
 20
7.341182
 30
0.0
 10
434.576101
 20
7.830725
 30
0.0
 10
434.739113
 20
8.295714
 30
0.0
 10
435.001100
 20
8.712867
 30
0.0
 10
435.349108
 20
9.061214
 30
0.0
 10
435.766120
 20
9.323313
 30
0.0
 10
436.231109
 20
9.486015
 30
0.0
 10
436.721103
 20
9.541161
 30
0.0
 10
437.211097
 20
9.486015
 30
0.0
 10
437.676115
 20
9.323313
 30
0.0
 10
438.093098
 20
9.061214
 30
0.0
 10
438.441106
 20
8.712867
 30
0.0
 10
438.703093
 20
8.295714
 30
0.0
 10
438.866105
 20
7.830725
 30
0.0
 10
438.921110
 20
7.341182
 30
0.0
 10
438.866105
 20
6.851639
 30
0.0
 10
438.703093
 20
6.386622
 30
0.0
 10
438.441106
 20
5.969497
 30
0.0
 10
438.093098
 20
5.621151
 30
0.0
 10
437.676115
 20
5.359051
 30
0.0
 10
437.211097
 20
5.196321
 30
0.0
 10
436.721103
 20
5.141175
 30
0.0
 10
436.231109
 20
5.196321
 30
0.0
 10
435.766120
 20
5.359051
 30
0.0
 10
435.349108
 20
5.621151
 30
0.0
 10
435.349108
 20
5.621151
 30
0.0
 10
435.349108
 20
5.621151
 30
0.0
 10
435.349108
 20
5.621151
 30
0.0
 10
435.349108
 20
5.621151
 30
0.0
  0
LWPOLYLINE
  5
117
100
AcDbEntity
  8
0
 62
7
100
AcDbPolyline
 90
33
 70
1
 10
28.061104
 20
5.141175
 30
0.0
 10
27.571104
 20
5.196321
 30
0.0
 10
27.106107
 20
5.359051
 30
0.0
 10
26.689106
 20
5.621151
 30
0.0
 10
26.341104
 20
5.969497
 30
0.0
 10
26.079105
 20
6.386622
 30
0.0
 10
25.916105
 20
6.851639
 30
0.0
 10
25.861105
 20
7.341182
 30
0.0
 10
25.916105
 20
7.830725
 30
0.0
 10
26.079105
 20
8.295714
 30
0.0
 10
26.341104
 20
8.712867
 30
0.0
 10
26.689106
 20
9.061214
 30
0.0
 10
27.106107
 20
9.323313
 30
0.0
 10
27.571104
 20
9.486015
 30
0.0
 10
28.061104
 20
9.541161
 30
0.0
 10
28.551104
 20
9.486015
 30
0.0
 10
29.016105
 20
9.323313
 30
0.0
 10
29.433105
 20
9.061214
 30
0.0
 10
29.781105
 20
8.712867
 30
0.0
 10
30.043106
 20
8.295714
 30
0.0
 10
30.206106
 20
7.830725
 30
0.0
 10
30.261105
 20
7.341182
 30
0.0
 10
30.206106
 20
6.851639
 30
0.0
 10
30.043106
 20
6.386622
 30
0.0
 10
29.781105
 20
5.969497
 30
0.0
 10
29.433105
 20
5.621151
 30
0.0
 10
29.016105
 20
5.359051
 30
0.0
 10
28.551104
 20
5.196321
 30
0.0
 10
28.061104
 20
5.141175
 30
0.0
 10
28.061104
 20
5.141175
 30
0.0
 10
28.061104
 20
5.141175
 30
0.0
 10
28.061104
 20
5.141175
 30
0.0
 10
28.061104
 20
5.141175
 30
0.0
  0
LWPOLYLINE
  5
118
100
AcDbEntity
  8
0
 62
7
100
AcDbPolyline
 90
33
 70
1
 10
398.639109
 20
5.621151
 30
0.0
 10
398.291101
 20
5.969497
 30
0.0
 10
398.029114
 20
6.386622
 30
0.0
 10
397.866102
 20
6.851639
 30
0.0
 10
397.811097
 20
7.341182
 30
0.0
 10
397.866102
 20
7.830725
 30
0.0
 10
398.029114
 20
8.295714
 30
0.0
 10
398.291101
 20
8.712867
 30
0.0
 10
398.639109
 20
9.061214
 30
0.0
 10
399.056120
 20
9.323313
 30
0.0
 10
399.521110
 20
9.486015
 30
0.0
 10
400.011104
 20
9.541161
 30
0.0
 10
400.501098
 20
9.486015
 30
0.0
 10
400.966116
 20
9.323313
 30
0.0
 10
401.383099
 20
9.061214
 30
0.0
 10
401.731107
 20
8.712867
 30
0.0
 10
401.993122
 20
8.295714
 30
0.0
 10
402.156106
 20
7.830725
 30
0.0
 10
402.211111
 20
7.341182
 30
0.0
 10
402.156106
 20
6.851639
 30
0.0
 10
401.993122
 20
6.386622
 30
0.0
 10
401.731107
 20
5.969497
 30
0.0
 10
401.383099
 20
5.621151
 30
0.0
 10
400.966116
 20
5.359051
 30
0.0
 10
400.501098
 20
5.196321
 30
0.0
 10
400.011104
 20
5.141175
 30
0.0
 10
399.521110
 20
5.196321
 30
0.0
 10
399.056120
 20
5.359051
 30
0.0
 10
398.639109
 20
5.621151
 30
0.0
 10
398.639109
 20
5.621151
 30
0.0
 10
398.639109
 20
5.621151
 30
0.0
 10
398.639109
 20
5.621151
 30
0.0
 10
398.639109
 20
5.621151
 30
0.0
  0
LWPOLYLINE
  5
119
100
AcDbEntity
  8
0
 62
7
100
AcDbPolyline
 90
33
 70
1
 10
377.419102
 20
5.621151
 30
0.0
 10
377.071122
 20
5.969497
 30
0.0
 10
376.809107
 20
6.386622
 30
0.0
 10
376.646096
 20
6.851639
 30
0.0
 10
376.591119
 20
7.341182
 30
0.0
 10
376.646096
 20
7.830725
 30
0.0
 10
376.809107
 20
8.295714
 30
0.0
 10
377.071122
 20
8.712867
 30
0.0
 10
377.419102
 20
9.061214
 30
0.0
 10
377.836114
 20
9.323313
 30
0.0
 10
378.301103
 20
9.486015
 30
0.0
 10
378.791097
 20
9.541161
 30
0.0
 10
379.281120
 20
9.486015
 30
0.0
 10
379.746109
 20
9.323313
 30
0.0
 10
380.163121
 20
9.061214
 30
0.0
 10
380.511101
 20
8.712867
 30
0.0
 10
380.773116
 20
8.295714
 30
0.0
 10
380.936099
 20
7.830725
 30
0.0
 10
380.991104
 20
7.341182
 30
0.0
 10
380.936099
 20
6.851639
 30
0.0
 10
380.773116
 20
6.386622
 30
0.0
 10
380.511101
 20
5.969497
 30
0.0
 10
380.163121
 20
5.621151
 30
0.0
 10
379.746109
 20
5.359051
 30
0.0
 10
379.281120
 20
5.196321
 30
0.0
 10
378.791097
 20
5.141175
 30
0.0
 10
378.301103
 20
5.196321
 30
0.0
 10
377.836114
 20
5.359051
 30
0.0
 10
377.419102
 20
5.621151
 30
0.0
 10
377.419102
 20
5.621151
 30
0.0
 10
377.419102
 20
5.621151
 30
0.0
 10
377.419102
 20
5.621151
 30
0.0
 10
377.419102
 20
5.621151
 30
0.0
  0
LWPOLYLINE
  5
11a
100
AcDbEntity
  8
0
 62
7
100
AcDbPolyline
 90
33
 70
1
 10
90.459105
 20
6.386622
 30
0.0
 10
90.296105
 20
6.851639
 30
0.0
 10
90.241106
 20
7.341182
 30
0.0
 10
90.296105
 20
7.830725
 30
0.0
 10
90.459105
 20
8.295714
 30
0.0
 10
90.721104
 20
8.712867
 30
0.0
 10
91.069106
 20
9.061214
 30
0.0
 10
91.486107
 20
9.323313
 30
0.0
 10
91.951104
 20
9.486015
 30
0.0
 10
92.441104
 20
9.541161
 30
0.0
 10
92.931104
 20
9.486015
 30
0.0
 10
93.396105
 20
9.323313
 30
0.0
 10
93.813105
 20
9.061214
 30
0.0
 10
94.161105
 20
8.712867
 30
0.0
 10
94.423106
 20
8.295714
 30
0.0
 10
94.586106
 20
7.830725
 30
0.0
 10
94.641105
 20
7.341182
 30
0.0
 10
94.586106
 20
6.851639
 30
0.0
 10
94.423106
 20
6.386622
 30
0.0
 10
94.161105
 20
5.969497
 30
0.0
 10
93.813105
 20
5.621151
 30
0.0
 10
93.396105
 20
5.359051
 30
0.0
 10
92.931104
 20
5.196321
 30
0.0
 10
92.441104
 20
5.141175
 30
0.0
 10
91.951104
 20
5.196321
 30
0.0
 10
91.486107
 20
5.359051
 30
0.0
 10
91.069106
 20
5.621151
 30
0.0
 10
90.721104
 20
5.969497
 30
0.0
 10
90.459105
 20
6.386622
 30
0.0
 10
90.459105
 20
6.386622
 30
0.0
 10
90.459105
 20
6.386622
 30
0.0
 10
90.459105
 20
6.386622
 30
0.0
 10
90.459105
 20
6.386622
 30
0.0
  0
LWPOLYLINE
  5
11b
100
AcDbEntity
  8
0
 62
7
100
AcDbPolyline
 90
49
 70
1
 10
331.377623
 20
0.232992
 30
0.0
 10
331.846196
 20
0.393859
 30
0.0
 10
332.281919
 20
0.629684
 30
0.0
 10
332.673108
 20
0.934004
 30
0.0
 10
333.008105
 20
1.298522
 30
0.0
 10
333.279123
 20
1.713332
 30
0.0
 10
333.478118
 20
2.167061
 30
0.0
 10
333.600123
 20
2.647403
 30
0.0
 10
333.641102
 20
3.141179
 30
0.0
 10
333.631224
 20
213.389191
 30
0.0
 10
333.549238
 20
213.877187
 30
0.0
 10
333.388230
 20
214.346187
 30
0.0
 10
333.152236
 20
214.782189
 30
0.0
 10
332.848226
 20
215.173191
 30
0.0
 10
332.484216
 20
215.508186
 30
0.0
 10
332.069039
 20
215.779187
 30
0.0
 10
331.615339
 20
215.978193
 30
0.0
 10
331.135025
 20
216.100192
 30
0.0
 10
330.641220
 20
216.141188
 30
0.0
 10
244.151223
 20
216.137180
 30
0.0
 10
244.151223
 20
211.141184
 30
0.0
 10
207.131223
 20
211.141184
 30
0.0
 10
207.131223
 20
216.135185
 30
0.0
 10
120.393223
 20
216.131177
 30
0.0
 10
119.905224
 20
216.049175
 30
0.0
 10
119.436224
 20
215.888178
 30
0.0
 10
119.000225
 20
215.652181
 30
0.0
 10
118.609223
 20
215.348174
 30
0.0
 10
118.274222
 20
214.984178
 30
0.0
 10
118.003224
 20
214.569176
 30
0.0
 10
117.804223
 20
214.115179
 30
0.0
 10
117.682224
 20
213.635176
 30
0.0
 10
117.641223
 20
213.141180
 30
0.0
 10
117.651214
 20
2.893445
 30
0.0
 10
117.733219
 20
2.404720
 30
0.0
 10
117.894218
 20
1.936090
 30
0.0
 10
118.130218
 20
1.500339
 30
0.0
 10
118.434217
 20
1.109349
 30
0.0
 10
118.798219
 20
0.773758
 30
0.0
 10
119.213218
 20
0.502768
 30
0.0
 10
119.667217
 20
0.303717
 30
0.0
 10
120.147218
 20
0.182079
 30
0.0
 10
120.641217
 20
0.141185
 30
0.0
 10
330.888927
 20
0.151345
 30
0.0
 10
331.377736
 20
0.232992
 30
0.0
 10
331.377736
 20
0.232992
 30
0.0
 10
331.377623
 20
0.232992
 30
0.0
 10
331.377623
 20
0.232992
 30
0.0
 10
331.377623
 20
0.232992
 30
0.0
  0
LWPOLYLINE
  5
11c
100
AcDbEntity
  8
0
 62
7
100
AcDbPolyline
 90
21
 70
1
 10
119.986106
 20
213.119189
 30
0.0
 10
120.257104
 20
213.525191
 30
0.0
 10
120.663106
 20
213.796189
 30
0.0
 10
121.141106
 20
213.891188
 30
0.0
 10
121.619106
 20
213.796189
 30
0.0
 10
122.025105
 20
213.525191
 30
0.0
 10
122.296106
 20
213.119189
 30
0.0
 10
122.391105
 20
212.641192
 30
0.0
 10
122.296106
 20
212.163192
 30
0.0
 10
122.025105
 20
211.757193
 30
0.0
 10
121.619106
 20
211.486189
 30
0.0
 10
121.141106
 20
211.391193
 30
0.0
 10
120.663106
 20
211.486189
 30
0.0
 10
120.257104
 20
211.757193
 30
0.0
 10
119.986106
 20
212.163192
 30
0.0
 10
119.891104
 20
212.641192
 30
0.0
 10
119.986106
 20
213.119189
 30
0.0
 10
119.986106
 20
213.119189
 30
0.0
 10
119.986106
 20
213.119189
 30
0.0
 10
119.986106
 20
213.119189
 30
0.0
 10
119.986106
 20
213.119189
 30
0.0
  0
LWPOLYLINE
  5
11d
100
AcDbEntity
  8
0
 62
7
100
AcDbPolyline
 90
21
 70
1
 10
331.025014
 20
211.757193
 30
0.0
 10
330.619405
 20
211.486189
 30
0.0
 10
330.141094
 20
211.391193
 30
0.0
 10
329.662700
 20
211.486189
 30
0.0
 10
329.257203
 20
211.757193
 30
0.0
 10
328.986213
 20
212.163192
 30
0.0
 10
328.891104
 20
212.641192
 30
0.0
 10
328.986213
 20
213.119189
 30
0.0
 10
329.257203
 20
213.525191
 30
0.0
 10
329.662700
 20
213.796189
 30
0.0
 10
330.141094
 20
213.891188
 30
0.0
 10
330.619405
 20
213.796189
 30
0.0
 10
331.025014
 20
213.525191
 30
0.0
 10
331.295920
 20
213.119189
 30
0.0
 10
331.391113
 20
212.641192
 30
0.0
 10
331.295920
 20
212.163192
 30
0.0
 10
331.025014
 20
211.757193
 30
0.0
 10
331.025014
 20
211.757193
 30
0.0
 10
331.025014
 20
211.757193
 30
0.0
 10
331.025014
 20
211.757193
 30
0.0
 10
331.025014
 20
211.757193
 30
0.0
  0
LWPOLYLINE
  5
11e
100
AcDbEntity
  8
0
 62
7
100
AcDbPolyline
 90
26
 70
1
 10
203.771604
 20
207.263188
 30
0.0
 10
204.156104
 20
207.570189
 30
0.0
 10
204.614007
 20
207.750188
 30
0.0
 10
205.104404
 20
207.786188
 30
0.0
 10
205.583906
 20
207.677191
 30
0.0
 10
206.009906
 20
207.431192
 30
0.0
 10
206.344404
 20
207.070193
 30
0.0
 10
206.557806
 20
206.627186
 30
0.0
 10
206.631105
 20
206.141188
 30
0.0
 10
206.557806
 20
205.655193
 30
0.0
 10
206.344404
 20
205.212186
 30
0.0
 10
206.009906
 20
204.851187
 30
0.0
 10
205.583906
 20
204.605188
 30
0.0
 10
205.104404
 20
204.496191
 30
0.0
 10
204.614007
 20
204.532186
 30
0.0
 10
204.156104
 20
204.712187
 30
0.0
 10
203.771604
 20
205.019191
 30
0.0
 10
203.494504
 20
205.425190
 30
0.0
 10
203.349504
 20
205.895186
 30
0.0
 10
203.349504
 20
206.387187
 30
0.0
 10
203.494504
 20
206.857186
 30
0.0
 10
203.771604
 20
207.263188
 30
0.0
 10
203.771604
 20
207.263188
 30
0.0
 10
203.771604
 20
207.263188
 30
0.0
 10
203.771604
 20
207.263188
 30
0.0
 10
203.771604
 20
207.263188
 30
0.0
  0
LWPOLYLINE
  5
11f
100
AcDbEntity
  8
0
 62
7
100
AcDbPolyline
 90
26
 70
1
 10
247.951106
 20
206.141188
 30
0.0
 10
247.877807
 20
205.655193
 30
0.0
 10
247.664404
 20
205.212186
 30
0.0
 10
247.329906
 20
204.851187
 30
0.0
 10
246.903906
 20
204.605188
 30
0.0
 10
246.424405
 20
204.496191
 30
0.0
 10
245.933905
 20
204.532186
 30
0.0
 10
245.476104
 20
204.712187
 30
0.0
 10
245.091605
 20
205.019191
 30
0.0
 10
244.814505
 20
205.425190
 30
0.0
 10
244.669505
 20
205.895186
 30
0.0
 10
244.669505
 20
206.387187
 30
0.0
 10
244.814505
 20
206.857186
 30
0.0
 10
245.091605
 20
207.263188
 30
0.0
 10
245.476104
 20
207.570189
 30
0.0
 10
245.933905
 20
207.750188
 30
0.0
 10
246.424405
 20
207.786188
 30
0.0
 10
246.903906
 20
207.677191
 30
0.0
 10
247.329906
 20
207.431192
 30
0.0
 10
247.664404
 20
207.070193
 30
0.0
 10
247.877807
 20
206.627186
 30
0.0
 10
247.951106
 20
206.141188
 30
0.0
 10
247.951106
 20
206.141188
 30
0.0
 10
247.951106
 20
206.141188
 30
0.0
 10
247.951106
 20
206.141188
 30
0.0
 10
247.951106
 20
206.141188
 30
0.0
  0
LWPOLYLINE
  5
120
100
AcDbEntity
  8
0
 62
7
100
AcDbPolyline
 90
26
 70
1
 10
152.827705
 20
197.857187
 30
0.0
 10
152.972705
 20
197.387191
 30
0.0
 10
152.972705
 20
196.895193
 30
0.0
 10
152.827705
 20
196.425186
 30
0.0
 10
152.550605
 20
196.019189
 30
0.0
 10
152.166105
 20
195.712188
 30
0.0
 10
151.708304
 20
195.532192
 30
0.0
 10
151.217805
 20
195.496192
 30
0.0
 10
150.738306
 20
195.605189
 30
0.0
 10
150.312306
 20
195.851188
 30
0.0
 10
149.977805
 20
196.212187
 30
0.0
 10
149.764406
 20
196.655191
 30
0.0
 10
149.691104
 20
197.141192
 30
0.0
 10
149.764406
 20
197.627187
 30
0.0
 10
149.977805
 20
198.070186
 30
0.0
 10
150.312306
 20
198.431193
 30
0.0
 10
150.738306
 20
198.677189
 30
0.0
 10
151.217805
 20
198.786189
 30
0.0
 10
151.708304
 20
198.750186
 30
0.0
 10
152.166105
 20
198.570193
 30
0.0
 10
152.550605
 20
198.263189
 30
0.0
 10
152.827705
 20
197.857187
 30
0.0
 10
152.827705
 20
197.857187
 30
0.0
 10
152.827705
 20
197.857187
 30
0.0
 10
152.827705
 20
197.857187
 30
0.0
 10
152.827705
 20
197.857187
 30
0.0
  0
LWPOLYLINE
  5
121
100
AcDbEntity
  8
0
 62
7
100
AcDbPolyline
 90
26
 70
1
 10
122.912104
 20
175.851186
 30
0.0
 10
122.578105
 20
176.212190
 30
0.0
 10
122.364105
 20
176.655186
 30
0.0
 10
122.291105
 20
177.141187
 30
0.0
 10
122.364105
 20
177.627188
 30
0.0
 10
122.578105
 20
178.070189
 30
0.0
 10
122.912104
 20
178.431188
 30
0.0
 10
123.338104
 20
178.677187
 30
0.0
 10
123.818105
 20
178.786187
 30
0.0
 10
124.308105
 20
178.750186
 30
0.0
 10
124.766104
 20
178.570188
 30
0.0
 10
125.151106
 20
178.263192
 30
0.0
 10
125.428104
 20
177.857193
 30
0.0
 10
125.573104
 20
177.387186
 30
0.0
 10
125.573104
 20
176.895188
 30
0.0
 10
125.428104
 20
176.425189
 30
0.0
 10
125.151106
 20
176.019187
 30
0.0
 10
124.766104
 20
175.712186
 30
0.0
 10
124.308105
 20
175.532190
 30
0.0
 10
123.818105
 20
175.496187
 30
0.0
 10
123.338104
 20
175.605187
 30
0.0
 10
122.912104
 20
175.851186
 30
0.0
 10
122.912104
 20
175.851186
 30
0.0
 10
122.912104
 20
175.851186
 30
0.0
 10
122.912104
 20
175.851186
 30
0.0
 10
122.912104
 20
175.851186
 30
0.0
  0
LWPOLYLINE
  5
122
100
AcDbEntity
  8
0
 62
7
100
AcDbPolyline
 90
26
 70
1
 10
193.306104
 20
169.895188
 30
0.0
 10
193.763906
 20
170.074190
 30
0.0
 10
194.254405
 20
170.111192
 30
0.0
 10
194.733906
 20
170.002187
 30
0.0
 10
195.159906
 20
169.756193
 30
0.0
 10
195.494405
 20
169.395186
 30
0.0
 10
195.707804
 20
168.952193
 30
0.0
 10
195.781106
 20
168.466187
 30
0.0
 10
195.707804
 20
167.979187
 30
0.0
 10
195.494405
 20
167.536188
 30
0.0
 10
195.159906
 20
167.176191
 30
0.0
 10
194.733906
 20
166.930189
 30
0.0
 10
194.254405
 20
166.820193
 30
0.0
 10
193.763906
 20
166.857187
 30
0.0
 10
193.306104
 20
167.037191
 30
0.0
 10
192.921605
 20
167.343188
 30
0.0
 10
192.644505
 20
167.750186
 30
0.0
 10
192.499505
 20
168.220193
 30
0.0
 10
192.499505
 20
168.711189
 30
0.0
 10
192.644505
 20
169.181188
 30
0.0
 10
192.921605
 20
169.588192
 30
0.0
 10
193.306104
 20
169.895188
 30
0.0
 10
193.306104
 20
169.895188
 30
0.0
 10
193.306104
 20
169.895188
 30
0.0
 10
193.306104
 20
169.895188
 30
0.0
 10
193.306104
 20
169.895188
 30
0.0
  0
LWPOLYLINE
  5
123
100
AcDbEntity
  8
0
 62
7
100
AcDbPolyline
 90
26
 70
1
 10
195.781106
 20
153.816189
 30
0.0
 10
195.707804
 20
153.330191
 30
0.0
 10
195.494405
 20
152.887187
 30
0.0
 10
195.159906
 20
152.526188
 30
0.0
 10
194.733906
 20
152.280186
 30
0.0
 10
194.254405
 20
152.171186
 30
0.0
 10
193.763906
 20
152.208191
 30
0.0
 10
193.306104
 20
152.387188
 30
0.0
 10
192.921605
 20
152.694192
 30
0.0
 10
192.644505
 20
153.101193
 30
0.0
 10
192.499505
 20
153.570190
 30
0.0
 10
192.499505
 20
154.062188
 30
0.0
 10
192.644505
 20
154.532187
 30
0.0
 10
192.921605
 20
154.939188
 30
0.0
 10
193.306104
 20
155.245193
 30
0.0
 10
193.763906
 20
155.425186
 30
0.0
 10
194.254405
 20
155.462188
 30
0.0
 10
194.733906
 20
155.352189
 30
0.0
 10
195.159906
 20
155.106190
 30
0.0
 10
195.494405
 20
154.746190
 30
0.0
 10
195.707804
 20
154.303186
 30
0.0
 10
195.781106
 20
153.816189
 30
0.0
 10
195.781106
 20
153.816189
 30
0.0
 10
195.781106
 20
153.816189
 30
0.0
 10
195.781106
 20
153.816189
 30
0.0
 10
195.781106
 20
153.816189
 30
0.0
  0
LWPOLYLINE
  5
124
100
AcDbEntity
  8
0
 62
7
100
AcDbPolyline
 90
26
 70
1
 10
327.217808
 20
116.496192
 30
0.0
 10
326.738313
 20
116.605189
 30
0.0
 10
326.312298
 20
116.851188
 30
0.0
 10
325.977809
 20
117.212187
 30
0.0
 10
325.764420
 20
117.655191
 30
0.0
 10
325.691099
 20
118.141189
 30
0.0
 10
325.764420
 20
118.627187
 30
0.0
 10
325.977809
 20
119.070191
 30
0.0
 10
326.312298
 20
119.431193
 30
0.0
 10
326.738313
 20
119.677192
 30
0.0
 10
327.217808
 20
119.786186
 30
0.0
 10
327.708311
 20
119.750186
 30
0.0
 10
328.166103
 20
119.570193
 30
0.0
 10
328.550603
 20
119.263189
 30
0.0
 10
328.827717
 20
118.857187
 30
0.0
 10
328.972694
 20
118.387188
 30
0.0
 10
328.972694
 20
117.895190
 30
0.0
 10
328.827717
 20
117.425186
 30
0.0
 10
328.550603
 20
117.019192
 30
0.0
 10
328.166103
 20
116.712188
 30
0.0
 10
327.708311
 20
116.532192
 30
0.0
 10
327.217808
 20
116.496192
 30
0.0
 10
327.217808
 20
116.496192
 30
0.0
 10
327.217808
 20
116.496192
 30
0.0
 10
327.217808
 20
116.496192
 30
0.0
 10
327.217808
 20
116.496192
 30
0.0
  0
LWPOLYLINE
  5
125
100
AcDbEntity
  8
0
 62
7
100
AcDbPolyline
 90
26
 70
1
 10
301.427721
 20
98.857086
 30
0.0
 10
301.572698
 20
98.387087
 30
0.0
 10
301.572698
 20
97.895292
 30
0.0
 10
301.427721
 20
97.425288
 30
0.0
 10
301.150607
 20
97.018888
 30
0.0
 10
300.766107
 20
96.712191
 30
0.0
 10
300.308315
 20
96.532588
 30
0.0
 10
299.817812
 20
96.495786
 30
0.0
 10
299.338317
 20
96.605291
 30
0.0
 10
298.912302
 20
96.851186
 30
0.0
 10
298.577813
 20
97.211688
 30
0.0
 10
298.364396
 20
97.654788
 30
0.0
 10
298.291103
 20
98.141187
 30
0.0
 10
298.364396
 20
98.627487
 30
0.0
 10
298.577813
 20
99.070691
 30
0.0
 10
298.912302
 20
99.431188
 30
0.0
 10
299.338317
 20
99.677088
 30
0.0
 10
299.817812
 20
99.786593
 30
0.0
 10
300.308315
 20
99.749786
 30
0.0
 10
300.766107
 20
99.570092
 30
0.0
 10
301.150607
 20
99.263486
 30
0.0
 10
301.427721
 20
98.857086
 30
0.0
 10
301.427721
 20
98.857086
 30
0.0
 10
301.427721
 20
98.857086
 30
0.0
 10
301.427721
 20
98.857086
 30
0.0
 10
301.427721
 20
98.857086
 30
0.0
  0
LWPOLYLINE
  5
126
100
AcDbEntity
  8
0
 62
7
100
AcDbPolyline
 90
26
 70
1
 10
192.481104
 20
69.615793
 30
0.0
 10
192.554405
 20
70.102087
 30
0.0
 10
192.767805
 20
70.545289
 30
0.0
 10
193.102306
 20
70.905786
 30
0.0
 10
193.528306
 20
71.151686
 30
0.0
 10
194.007805
 20
71.261188
 30
0.0
 10
194.498304
 20
71.224389
 30
0.0
 10
194.956105
 20
71.044687
 30
0.0
 10
195.340605
 20
70.738092
 30
0.0
 10
195.617705
 20
70.331692
 30
0.0
 10
195.762705
 20
69.861688
 30
0.0
 10
195.762705
 20
69.369887
 30
0.0
 10
195.617705
 20
68.899885
 30
0.0
 10
195.340605
 20
68.493491
 30
0.0
 10
194.956105
 20
68.186789
 30
0.0
 10
194.498304
 20
68.007087
 30
0.0
 10
194.007805
 20
67.970387
 30
0.0
 10
193.528306
 20
68.079790
 30
0.0
 10
193.102306
 20
68.325789
 30
0.0
 10
192.767805
 20
68.686286
 30
0.0
 10
192.554405
 20
69.129386
 30
0.0
 10
192.481104
 20
69.615793
 30
0.0
 10
192.481104
 20
69.615793
 30
0.0
 10
192.481104
 20
69.615793
 30
0.0
 10
192.481104
 20
69.615793
 30
0.0
 10
192.481104
 20
69.615793
 30
0.0
  0
LWPOLYLINE
  5
127
100
AcDbEntity
  8
0
 62
7
100
AcDbPolyline
 90
26
 70
1
 10
194.007805
 20
56.611992
 30
0.0
 10
194.498304
 20
56.575193
 30
0.0
 10
194.956105
 20
56.395488
 30
0.0
 10
195.340605
 20
56.088893
 30
0.0
 10
195.617705
 20
55.682493
 30
0.0
 10
195.762705
 20
55.212486
 30
0.0
 10
195.762705
 20
54.720691
 30
0.0
 10
195.617705
 20
54.250687
 30
0.0
 10
195.340605
 20
53.844287
 30
0.0
 10
194.956105
 20
53.537686
 30
0.0
 10
194.498304
 20
53.357987
 30
0.0
 10
194.007805
 20
53.321188
 30
0.0
 10
193.528306
 20
53.430690
 30
0.0
 10
193.102306
 20
53.676593
 30
0.0
 10
192.767805
 20
54.037087
 30
0.0
 10
192.554405
 20
54.480286
 30
0.0
 10
192.481104
 20
54.966586
 30
0.0
 10
192.554405
 20
55.452990
 30
0.0
 10
192.767805
 20
55.896093
 30
0.0
 10
193.102306
 20
56.256587
 30
0.0
 10
193.528306
 20
56.502586
 30
0.0
 10
194.007805
 20
56.611992
 30
0.0
 10
194.007805
 20
56.611992
 30
0.0
 10
194.007805
 20
56.611992
 30
0.0
 10
194.007805
 20
56.611992
 30
0.0
 10
194.007805
 20
56.611992
 30
0.0
  0
LWPOLYLINE
  5
128
100
AcDbEntity
  8
0
 62
7
100
AcDbPolyline
 90
26
 70
1
 10
152.827705
 20
39.857088
 30
0.0
 10
152.972705
 20
39.387089
 30
0.0
 10
152.972705
 20
38.895286
 30
0.0
 10
152.827705
 20
38.425287
 30
0.0
 10
152.550605
 20
38.018890
 30
0.0
 10
152.166105
 20
37.712188
 30
0.0
 10
151.708304
 20
37.532593
 30
0.0
 10
151.217805
 20
37.495786
 30
0.0
 10
150.738306
 20
37.605288
 30
0.0
 10
150.312306
 20
37.851188
 30
0.0
 10
149.977805
 20
38.211693
 30
0.0
 10
149.764406
 20
38.654793
 30
0.0
 10
149.691104
 20
39.141186
 30
0.0
 10
149.764406
 20
39.627489
 30
0.0
 10
149.977805
 20
40.070688
 30
0.0
 10
150.312306
 20
40.431193
 30
0.0
 10
150.738306
 20
40.677088
 30
0.0
 10
151.217805
 20
40.786587
 30
0.0
 10
151.708304
 20
40.749788
 30
0.0
 10
152.166105
 20
40.570086
 30
0.0
 10
152.550605
 20
40.263488
 30
0.0
 10
152.827705
 20
39.857088
 30
0.0
 10
152.827705
 20
39.857088
 30
0.0
 10
152.827705
 20
39.857088
 30
0.0
 10
152.827705
 20
39.857088
 30
0.0
 10
152.827705
 20
39.857088
 30
0.0
  0
LWPOLYLINE
  5
129
100
AcDbEntity
  8
0
 62
7
100
AcDbPolyline
 90
26
 70
1
 10
125.573104
 20
19.387087
 30
0.0
 10
125.573104
 20
18.895286
 30
0.0
 10
125.428104
 20
18.425288
 30
0.0
 10
125.151106
 20
18.018888
 30
0.0
 10
124.766104
 20
17.712186
 30
0.0
 10
124.308105
 20
17.532588
 30
0.0
 10
123.818105
 20
17.495786
 30
0.0
 10
123.338104
 20
17.605291
 30
0.0
 10
122.912104
 20
17.851186
 30
0.0
 10
122.578105
 20
18.211688
 30
0.0
 10
122.364105
 20
18.654788
 30
0.0
 10
122.291105
 20
19.141187
 30
0.0
 10
122.364105
 20
19.627492
 30
0.0
 10
122.578105
 20
20.070686
 30
0.0
 10
122.912104
 20
20.431188
 30
0.0
 10
123.338104
 20
20.677088
 30
0.0
 10
123.818105
 20
20.786587
 30
0.0
 10
124.308105
 20
20.749786
 30
0.0
 10
124.766104
 20
20.570092
 30
0.0
 10
125.151106
 20
20.263486
 30
0.0
 10
125.428104
 20
19.857086
 30
0.0
 10
125.573104
 20
19.387087
 30
0.0
 10
125.573104
 20
19.387087
 30
0.0
 10
125.573104
 20
19.387087
 30
0.0
 10
125.573104
 20
19.387087
 30
0.0
 10
125.573104
 20
19.387087
 30
0.0
  0
LWPOLYLINE
  5
12a
100
AcDbEntity
  8
0
 62
7
100
AcDbPolyline
 90
21
 70
1
 10
122.296106
 20
3.162826
 30
0.0
 10
122.025105
 20
2.757272
 30
0.0
 10
121.619106
 20
2.486311
 30
0.0
 10
121.141106
 20
2.391174
 30
0.0
 10
120.663106
 20
2.486311
 30
0.0
 10
120.257104
 20
2.757272
 30
0.0
 10
119.986106
 20
3.162826
 30
0.0
 10
119.891104
 20
3.641192
 30
0.0
 10
119.986106
 20
4.119531
 30
0.0
 10
120.257104
 20
4.525056
 30
0.0
 10
120.663106
 20
4.796046
 30
0.0
 10
121.141106
 20
4.891183
 30
0.0
 10
121.619106
 20
4.796046
 30
0.0
 10
122.025105
 20
4.525056
 30
0.0
 10
122.296106
 20
4.119531
 30
0.0
 10
122.391105
 20
3.641192
 30
0.0
 10
122.296106
 20
3.162826
 30
0.0
 10
122.296106
 20
3.162826
 30
0.0
 10
122.296106
 20
3.162826
 30
0.0
 10
122.296106
 20
3.162826
 30
0.0
 10
122.296106
 20
3.162826
 30
0.0
  0
LWPOLYLINE
  5
12b
100
AcDbEntity
  8
0
 62
7
100
AcDbPolyline
 90
21
 70
1
 10
331.295920
 20
3.162826
 30
0.0
 10
331.025014
 20
2.757272
 30
0.0
 10
330.619405
 20
2.486311
 30
0.0
 10
330.141094
 20
2.391174
 30
0.0
 10
329.662700
 20
2.486311
 30
0.0
 10
329.257203
 20
2.757272
 30
0.0
 10
328.986213
 20
3.162826
 30
0.0
 10
328.891104
 20
3.641192
 30
0.0
 10
328.986213
 20
4.119531
 30
0.0
 10
329.257203
 20
4.525056
 30
0.0
 10
329.662700
 20
4.796046
 30
0.0
 10
330.141094
 20
4.891183
 30
0.0
 10
330.619405
 20
4.796046
 30
0.0
 10
331.025014
 20
4.525056
 30
0.0
 10
331.295920
 20
4.119531
 30
0.0
 10
331.391113
 20
3.641192
 30
0.0
 10
331.295920
 20
3.162826
 30
0.0
 10
331.295920
 20
3.162826
 30
0.0
 10
331.295920
 20
3.162826
 30
0.0
 10
331.295920
 20
3.162826
 30
0.0
 10
331.295920
 20
3.162826
 30
0.0
  0
LWPOLYLINE
  5
12c
100
AcDbEntity
  8
0
 62
7
100
AcDbPolyline
 90
29
 70
0
 10
356.257346
 20
62.391308
 30
0.0
 10
356.312323
 20
62.881308
 30
0.0
 10
356.475335
 20
63.346305
 30
0.0
 10
356.737322
 20
63.763306
 30
0.0
 10
357.085330
 20
64.111308
 30
0.0
 10
357.502341
 20
64.373309
 30
0.0
 10
357.967331
 20
64.536307
 30
0.0
 10
358.457325
 20
64.591306
 30
0.0
 10
358.947319
 20
64.536307
 30
0.0
 10
359.412337
 20
64.373309
 30
0.0
 10
359.829320
 20
64.111308
 30
0.0
 10
360.177328
 20
63.763306
 30
0.0
 10
360.439343
 20
63.346305
 30
0.0
 10
360.602327
 20
62.881308
 30
0.0
 10
360.657332
 20
62.391308
 30
0.0
 10
360.602327
 20
61.901305
 30
0.0
 10
360.439343
 20
61.436310
 30
0.0
 10
360.177328
 20
61.019307
 30
0.0
 10
359.829320
 20
60.671310
 30
0.0
 10
359.412337
 20
60.409309
 30
0.0
 10
358.947319
 20
60.246306
 30
0.0
 10
358.457325
 20
60.191306
 30
0.0
 10
357.967331
 20
60.246306
 30
0.0
 10
357.502341
 20
60.409309
 30
0.0
 10
357.085330
 20
60.671310
 30
0.0
 10
356.737322
 20
61.019307
 30
0.0
 10
356.475335
 20
61.436310
 30
0.0
 10
356.312323
 20
61.901305
 30
0.0
 10
356.257346
 20
62.391308
 30
0.0
  0
LWPOLYLINE
  5
12d
100
AcDbEntity
  8
0
 62
7
100
AcDbPolyline
 90
29
 70
0
 10
356.257346
 20
103.791307
 30
0.0
 10
356.312323
 20
104.281307
 30
0.0
 10
356.475335
 20
104.746310
 30
0.0
 10
356.737322
 20
105.163307
 30
0.0
 10
357.085330
 20
105.511310
 30
0.0
 10
357.502341
 20
105.773308
 30
0.0
 10
357.967331
 20
105.936306
 30
0.0
 10
358.457325
 20
105.991308
 30
0.0
 10
358.947319
 20
105.936306
 30
0.0
 10
359.412337
 20
105.773308
 30
0.0
 10
359.829320
 20
105.511310
 30
0.0
 10
360.177328
 20
105.163307
 30
0.0
 10
360.439343
 20
104.746310
 30
0.0
 10
360.602327
 20
104.281307
 30
0.0
 10
360.657332
 20
103.791307
 30
0.0
 10
360.602327
 20
103.301307
 30
0.0
 10
360.439343
 20
102.836309
 30
0.0
 10
360.177328
 20
102.419306
 30
0.0
 10
359.829320
 20
102.071309
 30
0.0
 10
359.412337
 20
101.809308
 30
0.0
 10
358.947319
 20
101.646308
 30
0.0
 10
358.457325
 20
101.591305
 30
0.0
 10
357.967331
 20
101.646308
 30
0.0
 10
357.502341
 20
101.809308
 30
0.0
 10
357.085330
 20
102.071309
 30
0.0
 10
356.737322
 20
102.419306
 30
0.0
 10
356.475335
 20
102.836309
 30
0.0
 10
356.312323
 20
103.301307
 30
0.0
 10
356.257346
 20
103.791307
 30
0.0
  0
ENDSEC
  0
SECTION
  2
OBJECTS
  0
DICTIONARY
  5
C
330
0
100
AcDbDictionary
  3
ACAD_GROUP
350
D
  3
ACAD_MLINESTYLE
350
17
  0
DICTIONARY
  5
D
330
C
100
AcDbDictionary
  0
DICTIONARY
  5
1A
330
C
100
AcDbDictionary
  0
DICTIONARY
  5
17
330
C
100
AcDbDictionary
  3
STANDARD
350
18
  0
DICTIONARY
  5
19
330
C
100
AcDbDictionary
  0
ENDSEC
  0
EOF
