  0
SECTION
  2
HEADER
  9
$ACADVER
  1
AC1014
  9
$HANDSEED
  5
FFFF
  9
$MEASUREMENT
 70
     1
  0
ENDSEC
  0
SECTION
  2
TABLES
  0
TABLE
  2
VPORT
  5
8
330
0
100
AcDbSymbolTable
 70
     4
  0
VPORT
  5
2E
330
8
100
AcDbSymbolTableRecord
100
AcDbViewportTableRecord
  2
*ACTIVE
 70
     0
 10
0.0
 20
0.0
 11
1.0
 21
1.0
 12
210.0
 22
148.5
 13
0.0
 23
0.0
 14
10.0
 24
10.0
 15
10.0
 25
10.0
 16
0.0
 26
0.0
 36
1.0
 17
0.0
 27
0.0
 37
0.0
 40
341.0
 41
1.24
 42
50.0
 43
0.0
 44
0.0
 50
0.0
 51
0.0
 71
     0
 72
   100
 73
     1
 74
     3
 75
     0
 76
     0
 77
     0
 78
     0
  0
ENDTAB
  0
TABLE
  2
LTYPE
  5
5
330
0
100
AcDbSymbolTable
 70
     1
  0
LTYPE
  5
14
330
5
100
AcDbSymbolTableRecord
100
AcDbLinetypeTableRecord
  2
BYBLOCK
 70
     0
  3

 72
    65
 73
     0
 40
0.0
  0
LTYPE
  5
15
330
5
100
AcDbSymbolTableRecord
100
AcDbLinetypeTableRecord
  2
BYLAYER
 70
     0
  3

 72
    65
 73
     0
 40
0.0
  0
LTYPE
  5
16
330
5
100
AcDbSymbolTableRecord
100
AcDbLinetypeTableRecord
  2
CONTINUOUS
 70
     0
  3
Solid line
 72
    65
 73
     0
 40
0.0
  0
ENDTAB
  0
TABLE
  2
LAYER
  5
2
100
AcDbSymbolTable
 70
1
  0
LAYER
  5
50
100
AcDbSymbolTableRecord
100
AcDbLayerTableRecord
  2
0
 70
0
  6
CONTINUOUS
  0
ENDTAB
  0
TABLE
  2
STYLE
  5
3
330
0
100
AcDbSymbolTable
 70
     1
  0
STYLE
  5
11
330
3
100
AcDbSymbolTableRecord
100
AcDbTextStyleTableRecord
  2
STANDARD
 70
     0
 40
0.0
 41
1.0
 50
0.0
 71
     0
 42
2.5
  3
txt
  4

  0
ENDTAB
  0
TABLE
  2
VIEW
  5
6
330
0
100
AcDbSymbolTable
 70
     0
  0
ENDTAB
  0
TABLE
  2
UCS
  5
7
330
0
100
AcDbSymbolTable
 70
     0
  0
ENDTAB
  0
TABLE
  2
APPID
  5
9
330
0
100
AcDbSymbolTable
 70
     2
  0
APPID
  5
12
330
9
100
AcDbSymbolTableRecord
100
AcDbRegAppTableRecord
  2
ACAD
 70
     0
  0
ENDTAB
  0
TABLE
  2
DIMSTYLE
  5
A
330
0
100
AcDbSymbolTable
 70
     1
  0
DIMSTYLE
105
27
330
A
100
AcDbSymbolTableRecord
100
AcDbDimStyleTableRecord
  2
ISO-25
 70
     0
  3

  4

  5

  6

  7

 40
1.0
 41
2.5
 42
0.625
 43
3.75
 44
1.25
 45
0.0
 46
0.0
 47
0.0
 48
0.0
140
2.5
141
2.5
142
0.0
143
0.03937007874016
144
1.0
145
0.0
146
1.0
147
0.625
 71
     0
 72
     0
 73
     0
 74
     0
 75
     0
 76
     0
 77
     1
 78
     8
170
     0
171
     3
172
     1
173
     0
174
     0
175
     0
176
     0
177
     0
178
     0
270
     2
271
     2
272
     2
273
     2
274
     3
340
11
275
     0
280
     0
281
     0
282
     0
283
     0
284
     8
285
     0
286
     0
287
     3
288
     0
  0
ENDTAB
  0
TABLE
  2
BLOCK_RECORD
  5
1
330
0
100
AcDbSymbolTable
 70
     1
  0
BLOCK_RECORD
  5
1F
330
1
100
AcDbSymbolTableRecord
100
AcDbBlockTableRecord
  2
*MODEL_SPACE
  0
BLOCK_RECORD
  5
1B
330
1
100
AcDbSymbolTableRecord
100
AcDbBlockTableRecord
  2
*PAPER_SPACE
  0
ENDTAB
  0
ENDSEC
  0
SECTION
  2
BLOCKS
  0
BLOCK
  5
20
330
1F
100
AcDbEntity
  8
0
100
AcDbBlockBegin
  2
*MODEL_SPACE
 70
     0
 10
0.0
 20
0.0
 30
0.0
  3
*MODEL_SPACE
  1

  0
ENDBLK
  5
21
330
1F
100
AcDbEntity
  8
0
100
AcDbBlockEnd
  0
BLOCK
  5
1C
330
1B
100
AcDbEntity
 67
     1
  8
0
100
AcDbBlockBegin
  2
*PAPER_SPACE
  1

  0
ENDBLK
  5
1D
330
1B
100
AcDbEntity
 67
     1
  8
0
100
AcDbBlockEnd
  0
ENDSEC
  0
SECTION
  2
ENTITIES
  0
LWPOLYLINE
  5
100
100
AcDbEntity
  8
0
 62
7
100
AcDbPolyline
 90
25
 70
1
 10
166.141106
 20
384.140707
 30
0.0
 10
25.141111
 20
384.140707
 30
0.0
 10
22.962110
 20
384.046360
 30
0.0
 10
20.800110
 20
383.761372
 30
0.0
 10
18.671110
 20
383.289355
 30
0.0
 10
16.591110
 20
382.633358
 30
0.0
 10
14.576111
 20
381.799363
 30
0.0
 10
12.641111
 20
380.792366
 30
0.0
 10
10.802106
 20
379.620353
 30
0.0
 10
9.071108
 20
378.292357
 30
0.0
 10
7.463110
 20
376.819354
 30
0.0
 10
5.990107
 20
375.211365
 30
0.0
 10
4.662111
 20
373.480355
 30
0.0
 10
3.490110
 20
371.641367
 30
0.0
 10
2.483110
 20
369.706366
 30
0.0
 10
1.649109
 20
367.691356
 30
0.0
 10
0.993112
 20
365.611350
 30
0.0
 10
0.521109
 20
363.482350
 30
0.0
 10
0.236110
 20
361.320359
 30
0.0
 10
0.141111
 20
359.141349
 30
0.0
 10
0.141111
 20
0.141362
 30
0.0
 10
166.141106
 20
0.141362
 30
0.0
 10
166.141106
 20
329.954068
 30
0.0
 10
166.141106
 20
384.141356
 30
0.0
 10
166.141106
 20
384.140707
 30
0.0
  0
LWPOLYLINE
  5
101
100
AcDbEntity
  8
0
 62
7
100
AcDbPolyline
 90
31
 70
1
 10
6.696112
 20
6.851812
 30
0.0
 10
6.641107
 20
7.341362
 30
0.0
 10
6.696112
 20
7.830902
 30
0.0
 10
6.859112
 20
8.295902
 30
0.0
 10
7.121110
 20
8.713032
 30
0.0
 10
7.469110
 20
9.061392
 30
0.0
 10
7.886110
 20
9.323492
 30
0.0
 10
8.351111
 20
9.486192
 30
0.0
 10
8.841111
 20
9.541352
 30
0.0
 10
9.331111
 20
9.486192
 30
0.0
 10
9.796111
 20
9.323492
 30
0.0
 10
10.213109
 20
9.061392
 30
0.0
 10
10.561111
 20
8.713032
 30
0.0
 10
10.823107
 20
8.295902
 30
0.0
 10
10.986110
 20
7.830902
 30
0.0
 10
11.041112
 20
7.341362
 30
0.0
 10
10.986110
 20
6.851812
 30
0.0
 10
10.823107
 20
6.386812
 30
0.0
 10
10.561111
 20
5.969672
 30
0.0
 10
10.213109
 20
5.621332
 30
0.0
 10
9.796111
 20
5.359222
 30
0.0
 10
9.331111
 20
5.196512
 30
0.0
 10
8.841111
 20
5.141342
 30
0.0
 10
8.351111
 20
5.196512
 30
0.0
 10
7.886110
 20
5.359222
 30
0.0
 10
7.469110
 20
5.621332
 30
0.0
 10
7.121110
 20
5.969672
 30
0.0
 10
6.859112
 20
6.386812
 30
0.0
 10
6.696112
 20
6.851812
 30
0.0
 10
6.696112
 20
6.851812
 30
0.0
 10
6.696112
 20
6.851812
 30
0.0
  0
LWPOLYLINE
  5
102
100
AcDbEntity
  8
0
 62
7
100
AcDbPolyline
 90
31
 70
1
 10
27.916109
 20
6.851812
 30
0.0
 10
27.861109
 20
7.341362
 30
0.0
 10
27.916109
 20
7.830902
 30
0.0
 10
28.079109
 20
8.295902
 30
0.0
 10
28.341110
 20
8.713032
 30
0.0
 10
28.689110
 20
9.061392
 30
0.0
 10
29.106110
 20
9.323492
 30
0.0
 10
29.571111
 20
9.486192
 30
0.0
 10
30.061111
 20
9.541352
 30
0.0
 10
30.551111
 20
9.486192
 30
0.0
 10
31.016111
 20
9.323492
 30
0.0
 10
31.433109
 20
9.061392
 30
0.0
 10
31.781108
 20
8.713032
 30
0.0
 10
32.043109
 20
8.295902
 30
0.0
 10
32.206110
 20
7.830902
 30
0.0
 10
32.261109
 20
7.341362
 30
0.0
 10
32.206110
 20
6.851812
 30
0.0
 10
32.043109
 20
6.386812
 30
0.0
 10
31.781108
 20
5.969672
 30
0.0
 10
31.433109
 20
5.621332
 30
0.0
 10
31.016111
 20
5.359222
 30
0.0
 10
30.551111
 20
5.196512
 30
0.0
 10
30.061111
 20
5.141342
 30
0.0
 10
29.571111
 20
5.196512
 30
0.0
 10
29.106110
 20
5.359222
 30
0.0
 10
28.689110
 20
5.621332
 30
0.0
 10
28.341110
 20
5.969672
 30
0.0
 10
28.079109
 20
6.386812
 30
0.0
 10
27.916109
 20
6.851812
 30
0.0
 10
27.916109
 20
6.851812
 30
0.0
 10
27.916109
 20
6.851812
 30
0.0
  0
LWPOLYLINE
  5
103
100
AcDbEntity
  8
0
 62
7
100
AcDbPolyline
 90
31
 70
1
 10
74.501609
 20
49.746461
 30
0.0
 10
74.036609
 20
49.909261
 30
0.0
 10
73.619411
 20
50.171361
 30
0.0
 10
73.271112
 20
50.519663
 30
0.0
 10
73.009006
 20
50.936860
 30
0.0
 10
72.846311
 20
51.401861
 30
0.0
 10
72.791111
 20
51.891361
 30
0.0
 10
72.846311
 20
52.380862
 30
0.0
 10
73.009006
 20
52.845862
 30
0.0
 10
73.271112
 20
53.263063
 30
0.0
 10
73.619411
 20
53.611362
 30
0.0
 10
74.036609
 20
53.873462
 30
0.0
 10
74.501609
 20
54.036163
 30
0.0
 10
74.991110
 20
54.091363
 30
0.0
 10
75.480712
 20
54.036163
 30
0.0
 10
75.945706
 20
53.873462
 30
0.0
 10
76.362808
 20
53.611362
 30
0.0
 10
76.711110
 20
53.263063
 30
0.0
 10
76.973210
 20
52.845862
 30
0.0
 10
77.135911
 20
52.380862
 30
0.0
 10
77.191111
 20
51.891361
 30
0.0
 10
77.135911
 20
51.401861
 30
0.0
 10
76.973210
 20
50.936860
 30
0.0
 10
76.711110
 20
50.519663
 30
0.0
 10
76.362808
 20
50.171361
 30
0.0
 10
75.945706
 20
49.909261
 30
0.0
 10
75.480712
 20
49.746461
 30
0.0
 10
74.991110
 20
49.691363
 30
0.0
 10
74.501609
 20
49.746461
 30
0.0
 10
74.501609
 20
49.746461
 30
0.0
 10
74.501609
 20
49.746461
 30
0.0
  0
LWPOLYLINE
  5
104
100
AcDbEntity
  8
0
 62
7
100
AcDbPolyline
 90
31
 70
1
 10
74.501609
 20
121.246363
 30
0.0
 10
74.036609
 20
121.409361
 30
0.0
 10
73.619411
 20
121.671362
 30
0.0
 10
73.271112
 20
122.019361
 30
0.0
 10
73.009006
 20
122.436362
 30
0.0
 10
72.846311
 20
122.901362
 30
0.0
 10
72.791111
 20
123.391362
 30
0.0
 10
72.846311
 20
123.881362
 30
0.0
 10
73.009006
 20
124.346363
 30
0.0
 10
73.271112
 20
124.763363
 30
0.0
 10
73.619411
 20
125.111363
 30
0.0
 10
74.036609
 20
125.373361
 30
0.0
 10
74.501609
 20
125.536361
 30
0.0
 10
74.991110
 20
125.591361
 30
0.0
 10
75.480712
 20
125.536361
 30
0.0
 10
75.945706
 20
125.373361
 30
0.0
 10
76.362808
 20
125.111363
 30
0.0
 10
76.711110
 20
124.763363
 30
0.0
 10
76.973210
 20
124.346363
 30
0.0
 10
77.135911
 20
123.881362
 30
0.0
 10
77.191111
 20
123.391362
 30
0.0
 10
77.135911
 20
122.901362
 30
0.0
 10
76.973210
 20
122.436362
 30
0.0
 10
76.711110
 20
122.019361
 30
0.0
 10
76.362808
 20
121.671362
 30
0.0
 10
75.945706
 20
121.409361
 30
0.0
 10
75.480712
 20
121.246363
 30
0.0
 10
74.991110
 20
121.191361
 30
0.0
 10
74.501609
 20
121.246363
 30
0.0
 10
74.501609
 20
121.246363
 30
0.0
 10
74.501609
 20
121.246363
 30
0.0
  0
LWPOLYLINE
  5
105
100
AcDbEntity
  8
0
 62
7
100
AcDbPolyline
 90
75
 70
1
 10
146.963311
 20
97.347063
 30
0.0
 10
147.671412
 20
94.153163
 30
0.0
 10
148.098408
 20
90.909662
 30
0.0
 10
148.241108
 20
87.641362
 30
0.0
 10
148.098408
 20
84.373062
 30
0.0
 10
147.671412
 20
81.129561
 30
0.0
 10
146.963311
 20
77.935661
 30
0.0
 10
145.979611
 20
74.815561
 30
0.0
 10
144.727611
 20
71.793162
 30
0.0
 10
143.217110
 20
68.891361
 30
0.0
 10
141.459311
 20
66.132261
 30
0.0
 10
139.467810
 20
63.536861
 30
0.0
 10
137.257607
 20
61.124862
 30
0.0
 10
134.845611
 20
58.914662
 30
0.0
 10
132.250211
 20
56.923161
 30
0.0
 10
129.491111
 20
55.165362
 30
0.0
 10
126.589307
 20
53.654861
 30
0.0
 10
123.566911
 20
52.402861
 30
0.0
 10
120.446808
 20
51.419161
 30
0.0
 10
117.252911
 20
50.711063
 30
0.0
 10
114.009410
 20
50.284061
 30
0.0
 10
110.741110
 20
50.141361
 30
0.0
 10
107.472807
 20
50.284061
 30
0.0
 10
104.229306
 20
50.711063
 30
0.0
 10
101.035412
 20
51.419161
 30
0.0
 10
97.915307
 20
52.402861
 30
0.0
 10
94.892910
 20
53.654861
 30
0.0
 10
91.991107
 20
55.165362
 30
0.0
 10
89.232012
 20
56.923161
 30
0.0
 10
86.636612
 20
58.914662
 30
0.0
 10
84.224611
 20
61.124862
 30
0.0
 10
82.014410
 20
63.536861
 30
0.0
 10
80.022912
 20
66.132261
 30
0.0
 10
78.265212
 20
68.891361
 30
0.0
 10
76.754612
 20
71.793162
 30
0.0
 10
75.502612
 20
74.815561
 30
0.0
 10
74.518907
 20
77.935661
 30
0.0
 10
73.810811
 20
81.129561
 30
0.0
 10
73.383812
 20
84.373062
 30
0.0
 10
73.241112
 20
87.641362
 30
0.0
 10
73.383812
 20
90.909662
 30
0.0
 10
73.810811
 20
94.153163
 30
0.0
 10
74.518907
 20
97.347063
 30
0.0
 10
75.502612
 20
100.467363
 30
0.0
 10
76.754612
 20
103.489362
 30
0.0
 10
78.265212
 20
106.391362
 30
0.0
 10
80.022912
 20
109.150361
 30
0.0
 10
82.014410
 20
111.746363
 30
0.0
 10
84.224611
 20
114.157362
 30
0.0
 10
86.636612
 20
116.368361
 30
0.0
 10
89.232012
 20
118.359363
 30
0.0
 10
91.991107
 20
120.117361
 30
0.0
 10
94.892910
 20
121.628362
 30
0.0
 10
97.915307
 20
122.879360
 30
0.0
 10
101.035412
 20
123.863362
 30
0.0
 10
104.229306
 20
124.571362
 30
0.0
 10
107.472807
 20
124.998361
 30
0.0
 10
110.741110
 20
125.141363
 30
0.0
 10
114.009410
 20
124.998361
 30
0.0
 10
117.252911
 20
124.571362
 30
0.0
 10
120.446808
 20
123.863362
 30
0.0
 10
123.566911
 20
122.879360
 30
0.0
 10
126.589307
 20
121.628362
 30
0.0
 10
129.491111
 20
120.117361
 30
0.0
 10
132.250211
 20
118.359363
 30
0.0
 10
134.845611
 20
116.368361
 30
0.0
 10
137.257607
 20
114.157362
 30
0.0
 10
139.467810
 20
111.746363
 30
0.0
 10
141.459311
 20
109.150361
 30
0.0
 10
143.217110
 20
106.391362
 30
0.0
 10
144.727611
 20
103.489362
 30
0.0
 10
145.979611
 20
100.467363
 30
0.0
 10
146.963311
 20
97.347063
 30
0.0
 10
146.963311
 20
97.347063
 30
0.0
 10
146.963311
 20
97.347063
 30
0.0
  0
LWPOLYLINE
  5
106
100
AcDbEntity
  8
0
 62
7
100
AcDbPolyline
 90
31
 70
1
 10
148.473211
 20
52.845862
 30
0.0
 10
148.635912
 20
52.380862
 30
0.0
 10
148.691112
 20
51.891361
 30
0.0
 10
148.635912
 20
51.401861
 30
0.0
 10
148.473211
 20
50.936860
 30
0.0
 10
148.211111
 20
50.519663
 30
0.0
 10
147.862812
 20
50.171361
 30
0.0
 10
147.445707
 20
49.909261
 30
0.0
 10
146.980710
 20
49.746461
 30
0.0
 10
146.491111
 20
49.691363
 30
0.0
 10
146.001610
 20
49.746461
 30
0.0
 10
145.536610
 20
49.909261
 30
0.0
 10
145.119412
 20
50.171361
 30
0.0
 10
144.771110
 20
50.519663
 30
0.0
 10
144.509007
 20
50.936860
 30
0.0
 10
144.346309
 20
51.401861
 30
0.0
 10
144.291112
 20
51.891361
 30
0.0
 10
144.346309
 20
52.380862
 30
0.0
 10
144.509007
 20
52.845862
 30
0.0
 10
144.771110
 20
53.263063
 30
0.0
 10
145.119412
 20
53.611362
 30
0.0
 10
145.536610
 20
53.873462
 30
0.0
 10
146.001610
 20
54.036163
 30
0.0
 10
146.491111
 20
54.091363
 30
0.0
 10
146.980710
 20
54.036163
 30
0.0
 10
147.445707
 20
53.873462
 30
0.0
 10
147.862812
 20
53.611362
 30
0.0
 10
148.211111
 20
53.263063
 30
0.0
 10
148.473211
 20
52.845862
 30
0.0
 10
148.473211
 20
52.845862
 30
0.0
 10
148.473211
 20
52.845862
 30
0.0
  0
LWPOLYLINE
  5
107
100
AcDbEntity
  8
0
 62
7
100
AcDbPolyline
 90
31
 70
1
 10
147.445707
 20
121.409361
 30
0.0
 10
146.980710
 20
121.246363
 30
0.0
 10
146.491111
 20
121.191361
 30
0.0
 10
146.001610
 20
121.246363
 30
0.0
 10
145.536610
 20
121.409361
 30
0.0
 10
145.119412
 20
121.671362
 30
0.0
 10
144.771110
 20
122.019361
 30
0.0
 10
144.509007
 20
122.436362
 30
0.0
 10
144.346309
 20
122.901362
 30
0.0
 10
144.291112
 20
123.391362
 30
0.0
 10
144.346309
 20
123.881362
 30
0.0
 10
144.509007
 20
124.346363
 30
0.0
 10
144.771110
 20
124.763363
 30
0.0
 10
145.119412
 20
125.111363
 30
0.0
 10
145.536610
 20
125.373361
 30
0.0
 10
146.001610
 20
125.536361
 30
0.0
 10
146.491111
 20
125.591361
 30
0.0
 10
146.980710
 20
125.536361
 30
0.0
 10
147.445707
 20
125.373361
 30
0.0
 10
147.862812
 20
125.111363
 30
0.0
 10
148.211111
 20
124.763363
 30
0.0
 10
148.473211
 20
124.346363
 30
0.0
 10
148.635912
 20
123.881362
 30
0.0
 10
148.691112
 20
123.391362
 30
0.0
 10
148.635912
 20
122.901362
 30
0.0
 10
148.473211
 20
122.436362
 30
0.0
 10
148.211111
 20
122.019361
 30
0.0
 10
147.862812
 20
121.671362
 30
0.0
 10
147.445707
 20
121.409361
 30
0.0
 10
147.445707
 20
121.409361
 30
0.0
 10
147.445707
 20
121.409361
 30
0.0
  0
LWPOLYLINE
  5
108
100
AcDbEntity
  8
0
 62
7
100
AcDbPolyline
 90
31
 70
1
 10
160.923244
 20
24.195862
 30
0.0
 10
161.085973
 20
23.730862
 30
0.0
 10
161.141116
 20
23.241362
 30
0.0
 10
161.085973
 20
22.751762
 30
0.0
 10
160.923244
 20
22.286762
 30
0.0
 10
160.661144
 20
21.869662
 30
0.0
 10
160.312797
 20
21.521362
 30
0.0
 10
159.895673
 20
21.259262
 30
0.0
 10
159.430655
 20
21.096562
 30
0.0
 10
158.941110
 20
21.041362
 30
0.0
 10
158.451570
 20
21.096562
 30
0.0
 10
157.986580
 20
21.259262
 30
0.0
 10
157.569428
 20
21.521362
 30
0.0
 10
157.221081
 20
21.869662
 30
0.0
 10
156.958981
 20
22.286762
 30
0.0
 10
156.796280
 20
22.751762
 30
0.0
 10
156.741134
 20
23.241362
 30
0.0
 10
156.796280
 20
23.730862
 30
0.0
 10
156.958981
 20
24.195862
 30
0.0
 10
157.221081
 20
24.613062
 30
0.0
 10
157.569428
 20
24.961362
 30
0.0
 10
157.986580
 20
25.223462
 30
0.0
 10
158.451570
 20
25.386162
 30
0.0
 10
158.941110
 20
25.441362
 30
0.0
 10
159.430655
 20
25.386162
 30
0.0
 10
159.895673
 20
25.223462
 30
0.0
 10
160.312797
 20
24.961362
 30
0.0
 10
160.661144
 20
24.613062
 30
0.0
 10
160.923244
 20
24.195862
 30
0.0
 10
160.923244
 20
24.195862
 30
0.0
 10
160.923244
 20
24.195862
 30
0.0
  0
LWPOLYLINE
  5
109
100
AcDbEntity
  8
0
 62
7
100
AcDbPolyline
 90
31
 70
1
 10
160.312797
 20
42.741361
 30
0.0
 10
159.895673
 20
42.479261
 30
0.0
 10
159.430655
 20
42.316560
 30
0.0
 10
158.941110
 20
42.261361
 30
0.0
 10
158.451570
 20
42.316560
 30
0.0
 10
157.986580
 20
42.479261
 30
0.0
 10
157.569428
 20
42.741361
 30
0.0
 10
157.221081
 20
43.089663
 30
0.0
 10
156.958981
 20
43.506762
 30
0.0
 10
156.796280
 20
43.971763
 30
0.0
 10
156.741134
 20
44.461362
 30
0.0
 10
156.796280
 20
44.950862
 30
0.0
 10
156.958981
 20
45.415863
 30
0.0
 10
157.221081
 20
45.833061
 30
0.0
 10
157.569428
 20
46.181362
 30
0.0
 10
157.986580
 20
46.443462
 30
0.0
 10
158.451570
 20
46.606163
 30
0.0
 10
158.941110
 20
46.661363
 30
0.0
 10
159.430655
 20
46.606163
 30
0.0
 10
159.895673
 20
46.443462
 30
0.0
 10
160.312797
 20
46.181362
 30
0.0
 10
160.661144
 20
45.833061
 30
0.0
 10
160.923244
 20
45.415863
 30
0.0
 10
161.085973
 20
44.950862
 30
0.0
 10
161.141116
 20
44.461362
 30
0.0
 10
161.085973
 20
43.971763
 30
0.0
 10
160.923244
 20
43.506762
 30
0.0
 10
160.661144
 20
43.089663
 30
0.0
 10
160.312797
 20
42.741361
 30
0.0
 10
160.312797
 20
42.741361
 30
0.0
 10
160.312797
 20
42.741361
 30
0.0
  0
LWPOLYLINE
  5
10a
100
AcDbEntity
  8
0
 62
7
100
AcDbPolyline
 90
31
 70
1
 10
161.141116
 20
339.821376
 30
0.0
 10
161.085973
 20
339.331353
 30
0.0
 10
160.923244
 20
338.866364
 30
0.0
 10
160.661144
 20
338.449352
 30
0.0
 10
160.312797
 20
338.101372
 30
0.0
 10
159.895673
 20
337.839357
 30
0.0
 10
159.430655
 20
337.676374
 30
0.0
 10
158.941110
 20
337.621369
 30
0.0
 10
158.451570
 20
337.676374
 30
0.0
 10
157.986580
 20
337.839357
 30
0.0
 10
157.569428
 20
338.101372
 30
0.0
 10
157.221081
 20
338.449352
 30
0.0
 10
156.958981
 20
338.866364
 30
0.0
 10
156.796280
 20
339.331353
 30
0.0
 10
156.741134
 20
339.821376
 30
0.0
 10
156.796280
 20
340.311370
 30
0.0
 10
156.958981
 20
340.776359
 30
0.0
 10
157.221081
 20
341.193371
 30
0.0
 10
157.569428
 20
341.541351
 30
0.0
 10
157.986580
 20
341.803366
 30
0.0
 10
158.451570
 20
341.966349
 30
0.0
 10
158.941110
 20
342.021354
 30
0.0
 10
159.430655
 20
341.966349
 30
0.0
 10
159.895673
 20
341.803366
 30
0.0
 10
160.312797
 20
341.541351
 30
0.0
 10
160.661144
 20
341.193371
 30
0.0
 10
160.923244
 20
340.776359
 30
0.0
 10
161.085973
 20
340.311370
 30
0.0
 10
161.141116
 20
339.821376
 30
0.0
 10
161.141116
 20
339.821376
 30
0.0
 10
161.141116
 20
339.821376
 30
0.0
  0
LWPOLYLINE
  5
10b
100
AcDbEntity
  8
0
 62
7
100
AcDbPolyline
 90
31
 70
1
 10
159.895673
 20
359.059364
 30
0.0
 10
159.430655
 20
358.896352
 30
0.0
 10
158.941110
 20
358.841375
 30
0.0
 10
158.451570
 20
358.896352
 30
0.0
 10
157.986580
 20
359.059364
 30
0.0
 10
157.569428
 20
359.321351
 30
0.0
 10
157.221081
 20
359.669359
 30
0.0
 10
156.958981
 20
360.086370
 30
0.0
 10
156.796280
 20
360.551360
 30
0.0
 10
156.741134
 20
361.041354
 30
0.0
 10
156.796280
 20
361.531348
 30
0.0
 10
156.958981
 20
361.996366
 30
0.0
 10
157.221081
 20
362.413349
 30
0.0
 10
157.569428
 20
362.761357
 30
0.0
 10
157.986580
 20
363.023372
 30
0.0
 10
158.451570
 20
363.186356
 30
0.0
 10
158.941110
 20
363.241361
 30
0.0
 10
159.430655
 20
363.186356
 30
0.0
 10
159.895673
 20
363.023372
 30
0.0
 10
160.312797
 20
362.761357
 30
0.0
 10
160.661144
 20
362.413349
 30
0.0
 10
160.923244
 20
361.996366
 30
0.0
 10
161.085973
 20
361.531348
 30
0.0
 10
161.141116
 20
361.041354
 30
0.0
 10
161.085973
 20
360.551360
 30
0.0
 10
160.923244
 20
360.086370
 30
0.0
 10
160.661144
 20
359.669359
 30
0.0
 10
160.312797
 20
359.321351
 30
0.0
 10
159.895673
 20
359.059364
 30
0.0
 10
159.895673
 20
359.059364
 30
0.0
 10
159.895673
 20
359.059364
 30
0.0
  0
LWPOLYLINE
  5
10c
100
AcDbEntity
  8
0
 62
7
100
AcDbPolyline
 90
35
 70
1
 10
336.141116
 20
0.141362
 30
0.0
 10
336.141116
 20
359.141349
 30
0.0
 10
336.046120
 20
361.320359
 30
0.0
 10
335.761132
 20
363.482350
 30
0.0
 10
335.289116
 20
365.611350
 30
0.0
 10
334.633118
 20
367.691356
 30
0.0
 10
333.799124
 20
369.706366
 30
0.0
 10
332.792126
 20
371.641367
 30
0.0
 10
331.620114
 20
373.480355
 30
0.0
 10
330.292117
 20
375.211365
 30
0.0
 10
328.819115
 20
376.819354
 30
0.0
 10
327.211126
 20
378.292357
 30
0.0
 10
325.480116
 20
379.620353
 30
0.0
 10
323.641127
 20
380.792366
 30
0.0
 10
321.706127
 20
381.799363
 30
0.0
 10
319.691106
 20
382.633358
 30
0.0
 10
317.611100
 20
383.289355
 30
0.0
 10
315.482103
 20
383.761372
 30
0.0
 10
313.320111
 20
384.046360
 30
0.0
 10
311.141102
 20
384.140989
 30
0.0
 10
170.141098
 20
384.140989
 30
0.0
 10
170.141098
 20
329.729814
 30
0.0
 10
170.141098
 20
0.141362
 30
0.0
 10
184.507426
 20
0.166130
 30
0.0
 10
184.473698
 20
8.174984
 30
0.0
 10
198.600842
 20
8.174984
 30
0.0
 10
198.600842
 20
0.190898
 30
0.0
 10
198.535959
 20
0.166130
 30
0.0
 10
258.010708
 20
0.145569
 30
0.0
 10
257.965694
 20
9.037756
 30
0.0
 10
276.213590
 20
9.037756
 30
0.0
 10
276.213590
 20
0.149776
 30
0.0
 10
276.256008
 20
0.145569
 30
0.0
 10
336.141116
 20
0.141362
 30
0.0
 10
336.141116
 20
0.141362
 30
0.0
  0
LWPOLYLINE
  5
10d
100
AcDbEntity
  8
0
 62
7
100
AcDbPolyline
 90
31
 70
1
 10
176.386623
 20
25.223462
 30
0.0
 10
176.851499
 20
25.386162
 30
0.0
 10
177.341095
 20
25.441362
 30
0.0
 10
177.830613
 20
25.386162
 30
0.0
 10
178.295602
 20
25.223462
 30
0.0
 10
178.712811
 20
24.961362
 30
0.0
 10
179.061102
 20
24.613062
 30
0.0
 10
179.323198
 20
24.195862
 30
0.0
 10
179.485902
 20
23.730862
 30
0.0
 10
179.541105
 20
23.241362
 30
0.0
 10
179.485902
 20
22.751762
 30
0.0
 10
179.323198
 20
22.286762
 30
0.0
 10
179.061102
 20
21.869662
 30
0.0
 10
178.712811
 20
21.521362
 30
0.0
 10
178.295602
 20
21.259262
 30
0.0
 10
177.830613
 20
21.096562
 30
0.0
 10
177.341095
 20
21.041362
 30
0.0
 10
176.851499
 20
21.096562
 30
0.0
 10
176.386623
 20
21.259262
 30
0.0
 10
175.969414
 20
21.521362
 30
0.0
 10
175.621095
 20
21.869662
 30
0.0
 10
175.358967
 20
22.286762
 30
0.0
 10
175.196266
 20
22.751762
 30
0.0
 10
175.141088
 20
23.241362
 30
0.0
 10
175.196266
 20
23.730862
 30
0.0
 10
175.358967
 20
24.195862
 30
0.0
 10
175.621095
 20
24.613062
 30
0.0
 10
175.969414
 20
24.961362
 30
0.0
 10
176.386623
 20
25.223462
 30
0.0
 10
176.386623
 20
25.223462
 30
0.0
 10
176.386623
 20
25.223462
 30
0.0
  0
LWPOLYLINE
  5
10e
100
AcDbEntity
  8
0
 62
7
100
AcDbPolyline
 90
31
 70
1
 10
178.712811
 20
42.741361
 30
0.0
 10
178.295602
 20
42.479261
 30
0.0
 10
177.830613
 20
42.316560
 30
0.0
 10
177.341095
 20
42.261361
 30
0.0
 10
176.851499
 20
42.316560
 30
0.0
 10
176.386623
 20
42.479261
 30
0.0
 10
175.969414
 20
42.741361
 30
0.0
 10
175.621095
 20
43.089663
 30
0.0
 10
175.358967
 20
43.506762
 30
0.0
 10
175.196266
 20
43.971763
 30
0.0
 10
175.141088
 20
44.461362
 30
0.0
 10
175.196266
 20
44.950862
 30
0.0
 10
175.358967
 20
45.415863
 30
0.0
 10
175.621095
 20
45.833061
 30
0.0
 10
175.969414
 20
46.181362
 30
0.0
 10
176.386623
 20
46.443462
 30
0.0
 10
176.851499
 20
46.606163
 30
0.0
 10
177.341095
 20
46.661363
 30
0.0
 10
177.830613
 20
46.606163
 30
0.0
 10
178.295602
 20
46.443462
 30
0.0
 10
178.712811
 20
46.181362
 30
0.0
 10
179.061102
 20
45.833061
 30
0.0
 10
179.323198
 20
45.415863
 30
0.0
 10
179.485902
 20
44.950862
 30
0.0
 10
179.541105
 20
44.461362
 30
0.0
 10
179.485902
 20
43.971763
 30
0.0
 10
179.323198
 20
43.506762
 30
0.0
 10
179.061102
 20
43.089663
 30
0.0
 10
178.712811
 20
42.741361
 30
0.0
 10
178.712811
 20
42.741361
 30
0.0
 10
178.712811
 20
42.741361
 30
0.0
  0
LWPOLYLINE
  5
10f
100
AcDbEntity
  8
0
 62
7
100
AcDbPolyline
 90
31
 70
1
 10
179.485902
 20
340.311370
 30
0.0
 10
179.541105
 20
339.821376
 30
0.0
 10
179.485902
 20
339.331353
 30
0.0
 10
179.323198
 20
338.866364
 30
0.0
 10
179.061102
 20
338.449352
 30
0.0
 10
178.712811
 20
338.101372
 30
0.0
 10
178.295602
 20
337.839357
 30
0.0
 10
177.830613
 20
337.676374
 30
0.0
 10
177.341095
 20
337.621369
 30
0.0
 10
176.851499
 20
337.676374
 30
0.0
 10
176.386623
 20
337.839357
 30
0.0
 10
175.969414
 20
338.101372
 30
0.0
 10
175.621095
 20
338.449352
 30
0.0
 10
175.358967
 20
338.866364
 30
0.0
 10
175.196266
 20
339.331353
 30
0.0
 10
175.141088
 20
339.821376
 30
0.0
 10
175.196266
 20
340.311370
 30
0.0
 10
175.358967
 20
340.776359
 30
0.0
 10
175.621095
 20
341.193371
 30
0.0
 10
175.969414
 20
341.541351
 30
0.0
 10
176.386623
 20
341.803366
 30
0.0
 10
176.851499
 20
341.966349
 30
0.0
 10
177.341095
 20
342.021354
 30
0.0
 10
177.830613
 20
341.966349
 30
0.0
 10
178.295602
 20
341.803366
 30
0.0
 10
178.712811
 20
341.541351
 30
0.0
 10
179.061102
 20
341.193371
 30
0.0
 10
179.323198
 20
340.776359
 30
0.0
 10
179.485902
 20
340.311370
 30
0.0
 10
179.485902
 20
340.311370
 30
0.0
 10
179.485902
 20
340.311370
 30
0.0
  0
LWPOLYLINE
  5
110
100
AcDbEntity
  8
0
 62
7
100
AcDbPolyline
 90
31
 70
1
 10
175.358967
 20
360.086370
 30
0.0
 10
175.196266
 20
360.551360
 30
0.0
 10
175.141088
 20
361.041354
 30
0.0
 10
175.196266
 20
361.531348
 30
0.0
 10
175.358967
 20
361.996366
 30
0.0
 10
175.621095
 20
362.413349
 30
0.0
 10
175.969414
 20
362.761357
 30
0.0
 10
176.386623
 20
363.023372
 30
0.0
 10
176.851499
 20
363.186356
 30
0.0
 10
177.341095
 20
363.241361
 30
0.0
 10
177.830613
 20
363.186356
 30
0.0
 10
178.295602
 20
363.023372
 30
0.0
 10
178.712811
 20
362.761357
 30
0.0
 10
179.061102
 20
362.413349
 30
0.0
 10
179.323198
 20
361.996366
 30
0.0
 10
179.485902
 20
361.531348
 30
0.0
 10
179.541105
 20
361.041354
 30
0.0
 10
179.485902
 20
360.551360
 30
0.0
 10
179.323198
 20
360.086370
 30
0.0
 10
179.061102
 20
359.669359
 30
0.0
 10
178.712811
 20
359.321351
 30
0.0
 10
178.295602
 20
359.059364
 30
0.0
 10
177.830613
 20
358.896352
 30
0.0
 10
177.341095
 20
358.841375
 30
0.0
 10
176.851499
 20
358.896352
 30
0.0
 10
176.386623
 20
359.059364
 30
0.0
 10
175.969414
 20
359.321351
 30
0.0
 10
175.621095
 20
359.669359
 30
0.0
 10
175.358967
 20
360.086370
 30
0.0
 10
175.358967
 20
360.086370
 30
0.0
 10
175.358967
 20
360.086370
 30
0.0
  0
LWPOLYLINE
  5
111
100
AcDbEntity
  8
0
 62
7
100
AcDbPolyline
 90
31
 70
1
 10
238.130608
 20
49.186163
 30
0.0
 10
238.595597
 20
49.023461
 30
0.0
 10
239.012806
 20
48.761362
 30
0.0
 10
239.361125
 20
48.413063
 30
0.0
 10
239.623194
 20
47.995862
 30
0.0
 10
239.785898
 20
47.530861
 30
0.0
 10
239.841097
 20
47.041361
 30
0.0
 10
239.785898
 20
46.551762
 30
0.0
 10
239.623194
 20
46.086761
 30
0.0
 10
239.361125
 20
45.669662
 30
0.0
 10
239.012806
 20
45.321361
 30
0.0
 10
238.595597
 20
45.059261
 30
0.0
 10
238.130608
 20
44.896563
 30
0.0
 10
237.641122
 20
44.841363
 30
0.0
 10
237.151607
 20
44.896563
 30
0.0
 10
236.686618
 20
45.059261
 30
0.0
 10
236.269409
 20
45.321361
 30
0.0
 10
235.921118
 20
45.669662
 30
0.0
 10
235.659016
 20
46.086761
 30
0.0
 10
235.496202
 20
46.551762
 30
0.0
 10
235.441115
 20
47.041361
 30
0.0
 10
235.496202
 20
47.530861
 30
0.0
 10
235.659016
 20
47.995862
 30
0.0
 10
235.921118
 20
48.413063
 30
0.0
 10
236.269409
 20
48.761362
 30
0.0
 10
236.686618
 20
49.023461
 30
0.0
 10
237.151607
 20
49.186163
 30
0.0
 10
237.641122
 20
49.241362
 30
0.0
 10
238.130608
 20
49.186163
 30
0.0
 10
238.130608
 20
49.186163
 30
0.0
 10
238.130608
 20
49.186163
 30
0.0
  0
LWPOLYLINE
  5
112
100
AcDbEntity
  8
0
 62
7
100
AcDbPolyline
 90
31
 70
1
 10
235.659016
 20
196.086363
 30
0.0
 10
235.496202
 20
196.551363
 30
0.0
 10
235.441115
 20
197.041360
 30
0.0
 10
235.496202
 20
197.531363
 30
0.0
 10
235.659016
 20
197.996361
 30
0.0
 10
235.921118
 20
198.413361
 30
0.0
 10
236.269409
 20
198.761361
 30
0.0
 10
236.686618
 20
199.023362
 30
0.0
 10
237.151607
 20
199.186362
 30
0.0
 10
237.641122
 20
199.241362
 30
0.0
 10
238.130608
 20
199.186362
 30
0.0
 10
238.595597
 20
199.023362
 30
0.0
 10
239.012806
 20
198.761361
 30
0.0
 10
239.361125
 20
198.413361
 30
0.0
 10
239.623194
 20
197.996361
 30
0.0
 10
239.785898
 20
197.531363
 30
0.0
 10
239.841097
 20
197.041360
 30
0.0
 10
239.785898
 20
196.551363
 30
0.0
 10
239.623194
 20
196.086363
 30
0.0
 10
239.361125
 20
195.669362
 30
0.0
 10
239.012806
 20
195.321363
 30
0.0
 10
238.595597
 20
195.059362
 30
0.0
 10
238.130608
 20
194.896361
 30
0.0
 10
237.641122
 20
194.841362
 30
0.0
 10
237.151607
 20
194.896361
 30
0.0
 10
236.686618
 20
195.059362
 30
0.0
 10
236.269409
 20
195.321363
 30
0.0
 10
235.921118
 20
195.669362
 30
0.0
 10
235.659016
 20
196.086363
 30
0.0
 10
235.659016
 20
196.086363
 30
0.0
 10
235.659016
 20
196.086363
 30
0.0
  0
LWPOLYLINE
  5
113
100
AcDbEntity
  8
0
 62
7
100
AcDbPolyline
 90
31
 70
1
 10
285.921103
 20
45.669662
 30
0.0
 10
285.659116
 20
46.086761
 30
0.0
 10
285.496104
 20
46.551762
 30
0.0
 10
285.441096
 20
47.041361
 30
0.0
 10
285.496104
 20
47.530861
 30
0.0
 10
285.659116
 20
47.995862
 30
0.0
 10
285.921103
 20
48.413063
 30
0.0
 10
286.269111
 20
48.761362
 30
0.0
 10
286.686123
 20
49.023461
 30
0.0
 10
287.151112
 20
49.186163
 30
0.0
 10
287.641103
 20
49.241362
 30
0.0
 10
288.131100
 20
49.186163
 30
0.0
 10
288.596118
 20
49.023461
 30
0.0
 10
289.013098
 20
48.761362
 30
0.0
 10
289.361110
 20
48.413063
 30
0.0
 10
289.623125
 20
47.995862
 30
0.0
 10
289.786108
 20
47.530861
 30
0.0
 10
289.841113
 20
47.041361
 30
0.0
 10
289.786108
 20
46.551762
 30
0.0
 10
289.623125
 20
46.086761
 30
0.0
 10
289.361110
 20
45.669662
 30
0.0
 10
289.013098
 20
45.321361
 30
0.0
 10
288.596118
 20
45.059261
 30
0.0
 10
288.131100
 20
44.896563
 30
0.0
 10
287.641103
 20
44.841363
 30
0.0
 10
287.151112
 20
44.896563
 30
0.0
 10
286.686123
 20
45.059261
 30
0.0
 10
286.269111
 20
45.321361
 30
0.0
 10
285.921103
 20
45.669662
 30
0.0
 10
285.921103
 20
45.669662
 30
0.0
 10
285.921103
 20
45.669662
 30
0.0
  0
LWPOLYLINE
  5
114
100
AcDbEntity
  8
0
 62
7
100
AcDbPolyline
 90
31
 70
1
 10
289.623125
 20
196.086363
 30
0.0
 10
289.361110
 20
195.669362
 30
0.0
 10
289.013098
 20
195.321363
 30
0.0
 10
288.596118
 20
195.059362
 30
0.0
 10
288.131100
 20
194.896361
 30
0.0
 10
287.641103
 20
194.841362
 30
0.0
 10
287.151112
 20
194.896361
 30
0.0
 10
286.686123
 20
195.059362
 30
0.0
 10
286.269111
 20
195.321363
 30
0.0
 10
285.921103
 20
195.669362
 30
0.0
 10
285.659116
 20
196.086363
 30
0.0
 10
285.496104
 20
196.551363
 30
0.0
 10
285.441096
 20
197.041360
 30
0.0
 10
285.496104
 20
197.531363
 30
0.0
 10
285.659116
 20
197.996361
 30
0.0
 10
285.921103
 20
198.413361
 30
0.0
 10
286.269111
 20
198.761361
 30
0.0
 10
286.686123
 20
199.023362
 30
0.0
 10
287.151112
 20
199.186362
 30
0.0
 10
287.641103
 20
199.241362
 30
0.0
 10
288.131100
 20
199.186362
 30
0.0
 10
288.596118
 20
199.023362
 30
0.0
 10
289.013098
 20
198.761361
 30
0.0
 10
289.361110
 20
198.413361
 30
0.0
 10
289.623125
 20
197.996361
 30
0.0
 10
289.786108
 20
197.531363
 30
0.0
 10
289.841113
 20
197.041360
 30
0.0
 10
289.786108
 20
196.551363
 30
0.0
 10
289.623125
 20
196.086363
 30
0.0
 10
289.623125
 20
196.086363
 30
0.0
 10
289.623125
 20
196.086363
 30
0.0
  0
LWPOLYLINE
  5
115
100
AcDbEntity
  8
0
 62
7
100
AcDbPolyline
 90
31
 70
1
 10
304.239103
 20
8.295902
 30
0.0
 10
304.501118
 20
8.713032
 30
0.0
 10
304.849095
 20
9.061392
 30
0.0
 10
305.266110
 20
9.323492
 30
0.0
 10
305.731099
 20
9.486192
 30
0.0
 10
306.221122
 20
9.541352
 30
0.0
 10
306.711116
 20
9.486192
 30
0.0
 10
307.176105
 20
9.323492
 30
0.0
 10
307.593117
 20
9.061392
 30
0.0
 10
307.941125
 20
8.713032
 30
0.0
 10
308.203112
 20
8.295902
 30
0.0
 10
308.366120
 20
7.830902
 30
0.0
 10
308.421097
 20
7.341362
 30
0.0
 10
308.366120
 20
6.851812
 30
0.0
 10
308.203112
 20
6.386812
 30
0.0
 10
307.941125
 20
5.969672
 30
0.0
 10
307.593117
 20
5.621332
 30
0.0
 10
307.176105
 20
5.359222
 30
0.0
 10
306.711116
 20
5.196512
 30
0.0
 10
306.221122
 20
5.141342
 30
0.0
 10
305.731099
 20
5.196512
 30
0.0
 10
305.266110
 20
5.359222
 30
0.0
 10
304.849095
 20
5.621332
 30
0.0
 10
304.501118
 20
5.969672
 30
0.0
 10
304.239103
 20
6.386812
 30
0.0
 10
304.076120
 20
6.851812
 30
0.0
 10
304.021115
 20
7.341362
 30
0.0
 10
304.076120
 20
7.830902
 30
0.0
 10
304.239103
 20
8.295902
 30
0.0
 10
304.239103
 20
8.295902
 30
0.0
 10
304.239103
 20
8.295902
 30
0.0
  0
LWPOLYLINE
  5
116
100
AcDbEntity
  8
0
 62
7
100
AcDbPolyline
 90
31
 70
1
 10
325.459118
 20
8.295902
 30
0.0
 10
325.721133
 20
8.713032
 30
0.0
 10
326.069113
 20
9.061392
 30
0.0
 10
326.486125
 20
9.323492
 30
0.0
 10
326.951114
 20
9.486192
 30
0.0
 10
327.441108
 20
9.541352
 30
0.0
 10
327.931131
 20
9.486192
 30
0.0
 10
328.396120
 20
9.323492
 30
0.0
 10
328.813132
 20
9.061392
 30
0.0
 10
329.161112
 20
8.713032
 30
0.0
 10
329.423127
 20
8.295902
 30
0.0
 10
329.586110
 20
7.830902
 30
0.0
 10
329.641115
 20
7.341362
 30
0.0
 10
329.586110
 20
6.851812
 30
0.0
 10
329.423127
 20
6.386812
 30
0.0
 10
329.161112
 20
5.969672
 30
0.0
 10
328.813132
 20
5.621332
 30
0.0
 10
328.396120
 20
5.359222
 30
0.0
 10
327.931131
 20
5.196512
 30
0.0
 10
327.441108
 20
5.141342
 30
0.0
 10
326.951114
 20
5.196512
 30
0.0
 10
326.486125
 20
5.359222
 30
0.0
 10
326.069113
 20
5.621332
 30
0.0
 10
325.721133
 20
5.969672
 30
0.0
 10
325.459118
 20
6.386812
 30
0.0
 10
325.296107
 20
6.851812
 30
0.0
 10
325.241130
 20
7.341362
 30
0.0
 10
325.296107
 20
7.830902
 30
0.0
 10
325.459118
 20
8.295902
 30
0.0
 10
325.459118
 20
8.295902
 30
0.0
 10
325.459118
 20
8.295902
 30
0.0
  0
LWPOLYLINE
  5
117
100
AcDbEntity
  8
0
 62
7
100
AcDbPolyline
 90
20
 70
0
 10
201.089779
 20
43.542951
 30
0.0
 10
200.597767
 20
43.583891
 30
0.0
 10
200.145757
 20
43.781610
 30
0.0
 10
199.781747
 20
44.116133
 30
0.0
 10
199.546743
 20
44.549514
 30
0.0
 10
199.465743
 20
45.035819
 30
0.0
 10
199.546743
 20
45.522128
 30
0.0
 10
199.781747
 20
45.955508
 30
0.0
 10
200.145757
 20
46.290032
 30
0.0
 10
200.597767
 20
46.487751
 30
0.0
 10
201.089779
 20
46.528690
 30
0.0
 10
201.568787
 20
46.407865
 30
0.0
 10
201.981799
 20
46.138247
 30
0.0
 10
202.284804
 20
45.748803
 30
0.0
 10
202.445806
 20
45.282470
 30
0.0
 10
202.445806
 20
44.789171
 30
0.0
 10
202.284804
 20
44.322839
 30
0.0
 10
201.981799
 20
43.933395
 30
0.0
 10
201.568787
 20
43.663779
 30
0.0
 10
201.089779
 20
43.542951
 30
0.0
  0
LWPOLYLINE
  5
118
100
AcDbEntity
  8
0
 62
7
100
AcDbPolyline
 90
20
 70
0
 10
195.289650
 20
43.542951
 30
0.0
 10
194.797638
 20
43.583891
 30
0.0
 10
194.345631
 20
43.781610
 30
0.0
 10
193.981620
 20
44.116133
 30
0.0
 10
193.746617
 20
44.549514
 30
0.0
 10
193.665613
 20
45.035819
 30
0.0
 10
193.746617
 20
45.522128
 30
0.0
 10
193.981620
 20
45.955508
 30
0.0
 10
194.345631
 20
46.290032
 30
0.0
 10
194.797638
 20
46.487751
 30
0.0
 10
195.289650
 20
46.528690
 30
0.0
 10
195.768660
 20
46.407865
 30
0.0
 10
196.181670
 20
46.138247
 30
0.0
 10
196.484675
 20
45.748803
 30
0.0
 10
196.645680
 20
45.282470
 30
0.0
 10
196.645680
 20
44.789171
 30
0.0
 10
196.484675
 20
44.322839
 30
0.0
 10
196.181670
 20
43.933395
 30
0.0
 10
195.768660
 20
43.663779
 30
0.0
 10
195.289650
 20
43.542951
 30
0.0
  0
LWPOLYLINE
  5
119
100
AcDbEntity
  8
0
 62
7
100
AcDbPolyline
 90
20
 70
0
 10
201.089774
 20
193.341540
 30
0.0
 10
200.597762
 20
193.382482
 30
0.0
 10
200.145752
 20
193.580201
 30
0.0
 10
199.781744
 20
193.914725
 30
0.0
 10
199.546738
 20
194.348105
 30
0.0
 10
199.465737
 20
194.834411
 30
0.0
 10
199.546738
 20
195.320719
 30
0.0
 10
199.781744
 20
195.754100
 30
0.0
 10
200.145752
 20
196.088623
 30
0.0
 10
200.597762
 20
196.286340
 30
0.0
 10
201.089774
 20
196.327282
 30
0.0
 10
201.568781
 20
196.206454
 30
0.0
 10
201.981793
 20
195.936838
 30
0.0
 10
202.284798
 20
195.547394
 30
0.0
 10
202.445801
 20
195.081059
 30
0.0
 10
202.445801
 20
194.587763
 30
0.0
 10
202.284798
 20
194.121430
 30
0.0
 10
201.981793
 20
193.731983
 30
0.0
 10
201.568781
 20
193.462368
 30
0.0
 10
201.089774
 20
193.341540
 30
0.0
  0
LWPOLYLINE
  5
11a
100
AcDbEntity
  8
0
 62
7
100
AcDbPolyline
 90
20
 70
0
 10
195.289644
 20
193.341540
 30
0.0
 10
194.797632
 20
193.382482
 30
0.0
 10
194.345625
 20
193.580201
 30
0.0
 10
193.981615
 20
193.914725
 30
0.0
 10
193.746611
 20
194.348105
 30
0.0
 10
193.665608
 20
194.834411
 30
0.0
 10
193.746611
 20
195.320719
 30
0.0
 10
193.981615
 20
195.754100
 30
0.0
 10
194.345625
 20
196.088623
 30
0.0
 10
194.797632
 20
196.286340
 30
0.0
 10
195.289644
 20
196.327282
 30
0.0
 10
195.768654
 20
196.206454
 30
0.0
 10
196.181664
 20
195.936838
 30
0.0
 10
196.484669
 20
195.547394
 30
0.0
 10
196.645674
 20
195.081059
 30
0.0
 10
196.645674
 20
194.587763
 30
0.0
 10
196.484669
 20
194.121430
 30
0.0
 10
196.181664
 20
193.731983
 30
0.0
 10
195.768654
 20
193.462368
 30
0.0
 10
195.289644
 20
193.341540
 30
0.0
  0
LWPOLYLINE
  5
11b
100
AcDbEntity
  8
0
 62
7
100
AcDbPolyline
 90
20
 70
0
 10
201.089774
 20
263.247361
 30
0.0
 10
200.597762
 20
263.288303
 30
0.0
 10
200.145752
 20
263.486022
 30
0.0
 10
199.781744
 20
263.820543
 30
0.0
 10
199.546738
 20
264.253926
 30
0.0
 10
199.465737
 20
264.740231
 30
0.0
 10
199.546738
 20
265.226540
 30
0.0
 10
199.781744
 20
265.659920
 30
0.0
 10
200.145752
 20
265.994444
 30
0.0
 10
200.597762
 20
266.192163
 30
0.0
 10
201.089774
 20
266.233102
 30
0.0
 10
201.568781
 20
266.112275
 30
0.0
 10
201.981793
 20
265.842659
 30
0.0
 10
202.284798
 20
265.453215
 30
0.0
 10
202.445801
 20
264.986880
 30
0.0
 10
202.445801
 20
264.493583
 30
0.0
 10
202.284798
 20
264.027251
 30
0.0
 10
201.981793
 20
263.637804
 30
0.0
 10
201.568781
 20
263.368188
 30
0.0
 10
201.089774
 20
263.247361
 30
0.0
  0
LWPOLYLINE
  5
11c
100
AcDbEntity
  8
0
 62
7
100
AcDbPolyline
 90
20
 70
0
 10
195.289644
 20
263.247361
 30
0.0
 10
194.797632
 20
263.288303
 30
0.0
 10
194.345625
 20
263.486022
 30
0.0
 10
193.981615
 20
263.820543
 30
0.0
 10
193.746611
 20
264.253926
 30
0.0
 10
193.665608
 20
264.740231
 30
0.0
 10
193.746611
 20
265.226540
 30
0.0
 10
193.981615
 20
265.659920
 30
0.0
 10
194.345625
 20
265.994444
 30
0.0
 10
194.797632
 20
266.192163
 30
0.0
 10
195.289644
 20
266.233102
 30
0.0
 10
195.768654
 20
266.112275
 30
0.0
 10
196.181664
 20
265.842659
 30
0.0
 10
196.484669
 20
265.453215
 30
0.0
 10
196.645674
 20
264.986880
 30
0.0
 10
196.645674
 20
264.493583
 30
0.0
 10
196.484669
 20
264.027251
 30
0.0
 10
196.181664
 20
263.637804
 30
0.0
 10
195.768654
 20
263.368188
 30
0.0
 10
195.289644
 20
263.247361
 30
0.0
  0
LWPOLYLINE
  5
11d
100
AcDbEntity
  8
0
 62
7
100
AcDbPolyline
 90
20
 70
0
 10
325.279766
 20
43.566048
 30
0.0
 10
324.787740
 20
43.606990
 30
0.0
 10
324.335733
 20
43.804707
 30
0.0
 10
323.971722
 20
44.139230
 30
0.0
 10
323.736744
 20
44.572614
 30
0.0
 10
323.655718
 20
45.058919
 30
0.0
 10
323.736744
 20
45.545225
 30
0.0
 10
323.971722
 20
45.978608
 30
0.0
 10
324.335733
 20
46.313132
 30
0.0
 10
324.787740
 20
46.510848
 30
0.0
 10
325.279766
 20
46.551790
 30
0.0
 10
325.758782
 20
46.430962
 30
0.0
 10
326.171786
 20
46.161347
 30
0.0
 10
326.474780
 20
45.771900
 30
0.0
 10
326.635787
 20
45.305567
 30
0.0
 10
326.635787
 20
44.812271
 30
0.0
 10
326.474780
 20
44.345936
 30
0.0
 10
326.171786
 20
43.956492
 30
0.0
 10
325.758782
 20
43.686876
 30
0.0
 10
325.279766
 20
43.566048
 30
0.0
  0
LWPOLYLINE
  5
11e
100
AcDbEntity
  8
0
 62
7
100
AcDbPolyline
 90
20
 70
0
 10
319.479636
 20
43.566048
 30
0.0
 10
318.987624
 20
43.606990
 30
0.0
 10
318.535614
 20
43.804707
 30
0.0
 10
318.171604
 20
44.139230
 30
0.0
 10
317.936603
 20
44.572614
 30
0.0
 10
317.855600
 20
45.058919
 30
0.0
 10
317.936603
 20
45.545225
 30
0.0
 10
318.171604
 20
45.978608
 30
0.0
 10
318.535614
 20
46.313132
 30
0.0
 10
318.987624
 20
46.510848
 30
0.0
 10
319.479636
 20
46.551790
 30
0.0
 10
319.958644
 20
46.430962
 30
0.0
 10
320.371656
 20
46.161347
 30
0.0
 10
320.674661
 20
45.771900
 30
0.0
 10
320.835663
 20
45.305567
 30
0.0
 10
320.835663
 20
44.812271
 30
0.0
 10
320.674661
 20
44.345936
 30
0.0
 10
320.371656
 20
43.956492
 30
0.0
 10
319.958644
 20
43.686876
 30
0.0
 10
319.479636
 20
43.566048
 30
0.0
  0
LWPOLYLINE
  5
11f
100
AcDbEntity
  8
0
 62
7
100
AcDbPolyline
 90
20
 70
0
 10
325.279766
 20
193.364640
 30
0.0
 10
324.787740
 20
193.405582
 30
0.0
 10
324.335733
 20
193.603298
 30
0.0
 10
323.971722
 20
193.937822
 30
0.0
 10
323.736716
 20
194.371202
 30
0.0
 10
323.655718
 20
194.857511
 30
0.0
 10
323.736716
 20
195.343816
 30
0.0
 10
323.971722
 20
195.777197
 30
0.0
 10
324.335733
 20
196.111720
 30
0.0
 10
324.787740
 20
196.309440
 30
0.0
 10
325.279766
 20
196.350381
 30
0.0
 10
325.758782
 20
196.229554
 30
0.0
 10
326.171786
 20
195.959938
 30
0.0
 10
326.474780
 20
195.570491
 30
0.0
 10
326.635787
 20
195.104159
 30
0.0
 10
326.635787
 20
194.610862
 30
0.0
 10
326.474780
 20
194.144527
 30
0.0
 10
326.171786
 20
193.755083
 30
0.0
 10
325.758782
 20
193.485468
 30
0.0
 10
325.279766
 20
193.364640
 30
0.0
  0
LWPOLYLINE
  5
120
100
AcDbEntity
  8
0
 62
7
100
AcDbPolyline
 90
20
 70
0
 10
319.479631
 20
193.364640
 30
0.0
 10
318.987619
 20
193.405582
 30
0.0
 10
318.535609
 20
193.603298
 30
0.0
 10
318.171601
 20
193.937822
 30
0.0
 10
317.936598
 20
194.371202
 30
0.0
 10
317.855594
 20
194.857511
 30
0.0
 10
317.936598
 20
195.343816
 30
0.0
 10
318.171601
 20
195.777197
 30
0.0
 10
318.535609
 20
196.111720
 30
0.0
 10
318.987619
 20
196.309440
 30
0.0
 10
319.479631
 20
196.350381
 30
0.0
 10
319.958641
 20
196.229554
 30
0.0
 10
320.371651
 20
195.959938
 30
0.0
 10
320.674656
 20
195.570491
 30
0.0
 10
320.835658
 20
195.104159
 30
0.0
 10
320.835658
 20
194.610862
 30
0.0
 10
320.674656
 20
194.144527
 30
0.0
 10
320.371651
 20
193.755083
 30
0.0
 10
319.958641
 20
193.485468
 30
0.0
 10
319.479631
 20
193.364640
 30
0.0
  0
LWPOLYLINE
  5
121
100
AcDbEntity
  8
0
 62
7
100
AcDbPolyline
 90
20
 70
0
 10
325.279766
 20
263.270460
 30
0.0
 10
324.787740
 20
263.311402
 30
0.0
 10
324.335733
 20
263.509119
 30
0.0
 10
323.971722
 20
263.843642
 30
0.0
 10
323.736716
 20
264.277023
 30
0.0
 10
323.655718
 20
264.763331
 30
0.0
 10
323.736716
 20
265.249637
 30
0.0
 10
323.971722
 20
265.683017
 30
0.0
 10
324.335733
 20
266.017541
 30
0.0
 10
324.787740
 20
266.215260
 30
0.0
 10
325.279766
 20
266.256202
 30
0.0
 10
325.758782
 20
266.135374
 30
0.0
 10
326.171786
 20
265.865759
 30
0.0
 10
326.474780
 20
265.476315
 30
0.0
 10
326.635787
 20
265.009979
 30
0.0
 10
326.635787
 20
264.516683
 30
0.0
 10
326.474780
 20
264.050348
 30
0.0
 10
326.171786
 20
263.660904
 30
0.0
 10
325.758782
 20
263.391288
 30
0.0
 10
325.279766
 20
263.270460
 30
0.0
  0
LWPOLYLINE
  5
122
100
AcDbEntity
  8
0
 62
7
100
AcDbPolyline
 90
20
 70
0
 10
319.479631
 20
263.270460
 30
0.0
 10
318.987619
 20
263.311402
 30
0.0
 10
318.535609
 20
263.509119
 30
0.0
 10
318.171601
 20
263.843642
 30
0.0
 10
317.936598
 20
264.277023
 30
0.0
 10
317.855594
 20
264.763331
 30
0.0
 10
317.936598
 20
265.249637
 30
0.0
 10
318.171601
 20
265.683017
 30
0.0
 10
318.535609
 20
266.017541
 30
0.0
 10
318.987619
 20
266.215260
 30
0.0
 10
319.479631
 20
266.256202
 30
0.0
 10
319.958641
 20
266.135374
 30
0.0
 10
320.371651
 20
265.865759
 30
0.0
 10
320.674656
 20
265.476315
 30
0.0
 10
320.835658
 20
265.009979
 30
0.0
 10
320.835658
 20
264.516683
 30
0.0
 10
320.674656
 20
264.050348
 30
0.0
 10
320.371651
 20
263.660904
 30
0.0
 10
319.958641
 20
263.391288
 30
0.0
 10
319.479631
 20
263.270460
 30
0.0
  0
ENDSEC
  0
SECTION
  2
OBJECTS
  0
DICTIONARY
  5
C
330
0
100
AcDbDictionary
  3
ACAD_GROUP
350
D
  3
ACAD_MLINESTYLE
350
17
  0
DICTIONARY
  5
D
330
C
100
AcDbDictionary
  0
DICTIONARY
  5
1A
330
C
100
AcDbDictionary
  0
DICTIONARY
  5
17
330
C
100
AcDbDictionary
  3
STANDARD
350
18
  0
DICTIONARY
  5
19
330
C
100
AcDbDictionary
  0
ENDSEC
  0
EOF
