  0
SECTION
  2
HEADER
  9
$ACADVER
  1
AC1014
  9
$HANDSEED
  5
FFFF
  9
$MEASUREMENT
 70
     1
  0
ENDSEC
  0
SECTION
  2
TABLES
  0
TABLE
  2
VPORT
  5
8
330
0
100
AcDbSymbolTable
 70
     4
  0
VPORT
  5
2E
330
8
100
AcDbSymbolTableRecord
100
AcDbViewportTableRecord
  2
*ACTIVE
 70
     0
 10
0.0
 20
0.0
 11
1.0
 21
1.0
 12
210.0
 22
148.5
 13
0.0
 23
0.0
 14
10.0
 24
10.0
 15
10.0
 25
10.0
 16
0.0
 26
0.0
 36
1.0
 17
0.0
 27
0.0
 37
0.0
 40
341.0
 41
1.24
 42
50.0
 43
0.0
 44
0.0
 50
0.0
 51
0.0
 71
     0
 72
   100
 73
     1
 74
     3
 75
     0
 76
     0
 77
     0
 78
     0
  0
ENDTAB
  0
TABLE
  2
LTYPE
  5
5
330
0
100
AcDbSymbolTable
 70
     1
  0
LTYPE
  5
14
330
5
100
AcDbSymbolTableRecord
100
AcDbLinetypeTableRecord
  2
BYBLOCK
 70
     0
  3

 72
    65
 73
     0
 40
0.0
  0
LTYPE
  5
15
330
5
100
AcDbSymbolTableRecord
100
AcDbLinetypeTableRecord
  2
BYLAYER
 70
     0
  3

 72
    65
 73
     0
 40
0.0
  0
LTYPE
  5
16
330
5
100
AcDbSymbolTableRecord
100
AcDbLinetypeTableRecord
  2
CONTINUOUS
 70
     0
  3
Solid line
 72
    65
 73
     0
 40
0.0
  0
ENDTAB
  0
TABLE
  2
LAYER
  5
2
100
AcDbSymbolTable
 70
1
  0
LAYER
  5
50
100
AcDbSymbolTableRecord
100
AcDbLayerTableRecord
  2
0
 70
0
  6
CONTINUOUS
  0
ENDTAB
  0
TABLE
  2
STYLE
  5
3
330
0
100
AcDbSymbolTable
 70
     1
  0
STYLE
  5
11
330
3
100
AcDbSymbolTableRecord
100
AcDbTextStyleTableRecord
  2
STANDARD
 70
     0
 40
0.0
 41
1.0
 50
0.0
 71
     0
 42
2.5
  3
txt
  4

  0
ENDTAB
  0
TABLE
  2
VIEW
  5
6
330
0
100
AcDbSymbolTable
 70
     0
  0
ENDTAB
  0
TABLE
  2
UCS
  5
7
330
0
100
AcDbSymbolTable
 70
     0
  0
ENDTAB
  0
TABLE
  2
APPID
  5
9
330
0
100
AcDbSymbolTable
 70
     2
  0
APPID
  5
12
330
9
100
AcDbSymbolTableRecord
100
AcDbRegAppTableRecord
  2
ACAD
 70
     0
  0
ENDTAB
  0
TABLE
  2
DIMSTYLE
  5
A
330
0
100
AcDbSymbolTable
 70
     1
  0
DIMSTYLE
105
27
330
A
100
AcDbSymbolTableRecord
100
AcDbDimStyleTableRecord
  2
ISO-25
 70
     0
  3

  4

  5

  6

  7

 40
1.0
 41
2.5
 42
0.625
 43
3.75
 44
1.25
 45
0.0
 46
0.0
 47
0.0
 48
0.0
140
2.5
141
2.5
142
0.0
143
0.03937007874016
144
1.0
145
0.0
146
1.0
147
0.625
 71
     0
 72
     0
 73
     0
 74
     0
 75
     0
 76
     0
 77
     1
 78
     8
170
     0
171
     3
172
     1
173
     0
174
     0
175
     0
176
     0
177
     0
178
     0
270
     2
271
     2
272
     2
273
     2
274
     3
340
11
275
     0
280
     0
281
     0
282
     0
283
     0
284
     8
285
     0
286
     0
287
     3
288
     0
  0
ENDTAB
  0
TABLE
  2
BLOCK_RECORD
  5
1
330
0
100
AcDbSymbolTable
 70
     1
  0
BLOCK_RECORD
  5
1F
330
1
100
AcDbSymbolTableRecord
100
AcDbBlockTableRecord
  2
*MODEL_SPACE
  0
BLOCK_RECORD
  5
1B
330
1
100
AcDbSymbolTableRecord
100
AcDbBlockTableRecord
  2
*PAPER_SPACE
  0
ENDTAB
  0
ENDSEC
  0
SECTION
  2
BLOCKS
  0
BLOCK
  5
20
330
1F
100
AcDbEntity
  8
0
100
AcDbBlockBegin
  2
*MODEL_SPACE
 70
     0
 10
0.0
 20
0.0
 30
0.0
  3
*MODEL_SPACE
  1

  0
ENDBLK
  5
21
330
1F
100
AcDbEntity
  8
0
100
AcDbBlockEnd
  0
BLOCK
  5
1C
330
1B
100
AcDbEntity
 67
     1
  8
0
100
AcDbBlockBegin
  2
*PAPER_SPACE
  1

  0
ENDBLK
  5
1D
330
1B
100
AcDbEntity
 67
     1
  8
0
100
AcDbBlockEnd
  0
ENDSEC
  0
SECTION
  2
ENTITIES
  0
LWPOLYLINE
  5
100
100
AcDbEntity
  8
0
 62
7
100
AcDbPolyline
 90
24
 70
1
 10
384.141105
 20
170.141121
 30
0.0
 10
384.141105
 20
311.141118
 30
0.0
 10
384.046109
 20
313.320119
 30
0.0
 10
383.761121
 20
315.482119
 30
0.0
 10
383.289104
 20
317.611119
 30
0.0
 10
382.633107
 20
319.691119
 30
0.0
 10
381.799112
 20
321.706118
 30
0.0
 10
380.792115
 20
323.641118
 30
0.0
 10
379.620103
 20
325.480121
 30
0.0
 10
378.292106
 20
327.211120
 30
0.0
 10
376.819104
 20
328.819120
 30
0.0
 10
375.211114
 20
330.292120
 30
0.0
 10
373.480104
 20
331.620119
 30
0.0
 10
371.641116
 20
332.792120
 30
0.0
 10
369.706116
 20
333.799120
 30
0.0
 10
367.691106
 20
334.633121
 30
0.0
 10
365.611100
 20
335.289118
 30
0.0
 10
363.482100
 20
335.761121
 30
0.0
 10
361.320108
 20
336.046120
 30
0.0
 10
359.141099
 20
336.141119
 30
0.0
 10
0.141111
 20
336.141119
 30
0.0
 10
0.141111
 20
170.141121
 30
0.0
 10
329.953818
 20
170.141121
 30
0.0
 10
384.141105
 20
170.141121
 30
0.0
  0
LWPOLYLINE
  5
101
100
AcDbEntity
  8
0
 62
7
100
AcDbPolyline
 90
29
 70
1
 10
6.851561
 20
329.586118
 30
0.0
 10
7.341111
 20
329.641121
 30
0.0
 10
7.830651
 20
329.586118
 30
0.0
 10
8.295651
 20
329.423118
 30
0.0
 10
8.712781
 20
329.161120
 30
0.0
 10
9.061141
 20
328.813120
 30
0.0
 10
9.323241
 20
328.396120
 30
0.0
 10
9.485941
 20
327.931119
 30
0.0
 10
9.541101
 20
327.441119
 30
0.0
 10
9.485941
 20
326.951119
 30
0.0
 10
9.323241
 20
326.486119
 30
0.0
 10
9.061141
 20
326.069119
 30
0.0
 10
8.712781
 20
325.721119
 30
0.0
 10
8.295651
 20
325.459121
 30
0.0
 10
7.830651
 20
325.296120
 30
0.0
 10
7.341111
 20
325.241118
 30
0.0
 10
6.851561
 20
325.296120
 30
0.0
 10
6.386561
 20
325.459121
 30
0.0
 10
5.969421
 20
325.721119
 30
0.0
 10
5.621081
 20
326.069119
 30
0.0
 10
5.358971
 20
326.486119
 30
0.0
 10
5.196261
 20
326.951119
 30
0.0
 10
5.141091
 20
327.441119
 30
0.0
 10
5.196261
 20
327.931119
 30
0.0
 10
5.358971
 20
328.396120
 30
0.0
 10
5.621081
 20
328.813120
 30
0.0
 10
5.969421
 20
329.161120
 30
0.0
 10
6.386561
 20
329.423118
 30
0.0
 10
6.851561
 20
329.586118
 30
0.0
  0
LWPOLYLINE
  5
102
100
AcDbEntity
  8
0
 62
7
100
AcDbPolyline
 90
29
 70
1
 10
6.851561
 20
308.366120
 30
0.0
 10
7.341111
 20
308.421120
 30
0.0
 10
7.830651
 20
308.366120
 30
0.0
 10
8.295651
 20
308.203120
 30
0.0
 10
8.712781
 20
307.941119
 30
0.0
 10
9.061141
 20
307.593119
 30
0.0
 10
9.323241
 20
307.176119
 30
0.0
 10
9.485941
 20
306.711118
 30
0.0
 10
9.541101
 20
306.221118
 30
0.0
 10
9.485941
 20
305.731118
 30
0.0
 10
9.323241
 20
305.266118
 30
0.0
 10
9.061141
 20
304.849120
 30
0.0
 10
8.712781
 20
304.501121
 30
0.0
 10
8.295651
 20
304.239120
 30
0.0
 10
7.830651
 20
304.076119
 30
0.0
 10
7.341111
 20
304.021120
 30
0.0
 10
6.851561
 20
304.076119
 30
0.0
 10
6.386561
 20
304.239120
 30
0.0
 10
5.969421
 20
304.501121
 30
0.0
 10
5.621081
 20
304.849120
 30
0.0
 10
5.358971
 20
305.266118
 30
0.0
 10
5.196261
 20
305.731118
 30
0.0
 10
5.141091
 20
306.221118
 30
0.0
 10
5.196261
 20
306.711118
 30
0.0
 10
5.358971
 20
307.176119
 30
0.0
 10
5.621081
 20
307.593119
 30
0.0
 10
5.969421
 20
307.941119
 30
0.0
 10
6.386561
 20
308.203120
 30
0.0
 10
6.851561
 20
308.366120
 30
0.0
  0
LWPOLYLINE
  5
103
100
AcDbEntity
  8
0
 62
7
100
AcDbPolyline
 90
29
 70
1
 10
49.746210
 20
261.780621
 30
0.0
 10
49.909010
 20
262.245619
 30
0.0
 10
50.171110
 20
262.662819
 30
0.0
 10
50.519412
 20
263.011118
 30
0.0
 10
50.936610
 20
263.273221
 30
0.0
 10
51.401610
 20
263.435919
 30
0.0
 10
51.891111
 20
263.491119
 30
0.0
 10
52.380611
 20
263.435919
 30
0.0
 10
52.845612
 20
263.273221
 30
0.0
 10
53.262812
 20
263.011118
 30
0.0
 10
53.611111
 20
262.662819
 30
0.0
 10
53.873211
 20
262.245619
 30
0.0
 10
54.035912
 20
261.780621
 30
0.0
 10
54.091112
 20
261.291120
 30
0.0
 10
54.035912
 20
260.801518
 30
0.0
 10
53.873211
 20
260.336521
 30
0.0
 10
53.611111
 20
259.919419
 30
0.0
 10
53.262812
 20
259.571120
 30
0.0
 10
52.845612
 20
259.309020
 30
0.0
 10
52.380611
 20
259.146319
 30
0.0
 10
51.891111
 20
259.091119
 30
0.0
 10
51.401610
 20
259.146319
 30
0.0
 10
50.936610
 20
259.309020
 30
0.0
 10
50.519412
 20
259.571120
 30
0.0
 10
50.171110
 20
259.919419
 30
0.0
 10
49.909010
 20
260.336521
 30
0.0
 10
49.746210
 20
260.801518
 30
0.0
 10
49.691112
 20
261.291120
 30
0.0
 10
49.746210
 20
261.780621
 30
0.0
  0
LWPOLYLINE
  5
104
100
AcDbEntity
  8
0
 62
7
100
AcDbPolyline
 90
29
 70
1
 10
121.246113
 20
261.780621
 30
0.0
 10
121.409110
 20
262.245619
 30
0.0
 10
121.671111
 20
262.662819
 30
0.0
 10
122.019111
 20
263.011118
 30
0.0
 10
122.436111
 20
263.273221
 30
0.0
 10
122.901112
 20
263.435919
 30
0.0
 10
123.391112
 20
263.491119
 30
0.0
 10
123.881111
 20
263.435919
 30
0.0
 10
124.346112
 20
263.273221
 30
0.0
 10
124.763112
 20
263.011118
 30
0.0
 10
125.111112
 20
262.662819
 30
0.0
 10
125.373110
 20
262.245619
 30
0.0
 10
125.536111
 20
261.780621
 30
0.0
 10
125.591110
 20
261.291120
 30
0.0
 10
125.536111
 20
260.801518
 30
0.0
 10
125.373110
 20
260.336521
 30
0.0
 10
125.111112
 20
259.919419
 30
0.0
 10
124.763112
 20
259.571120
 30
0.0
 10
124.346112
 20
259.309020
 30
0.0
 10
123.881111
 20
259.146319
 30
0.0
 10
123.391112
 20
259.091119
 30
0.0
 10
122.901112
 20
259.146319
 30
0.0
 10
122.436111
 20
259.309020
 30
0.0
 10
122.019111
 20
259.571120
 30
0.0
 10
121.671111
 20
259.919419
 30
0.0
 10
121.409110
 20
260.336521
 30
0.0
 10
121.246113
 20
260.801518
 30
0.0
 10
121.191110
 20
261.291120
 30
0.0
 10
121.246113
 20
261.780621
 30
0.0
  0
LWPOLYLINE
  5
105
100
AcDbEntity
  8
0
 62
7
100
AcDbPolyline
 90
73
 70
1
 10
97.346812
 20
189.318919
 30
0.0
 10
94.152912
 20
188.610818
 30
0.0
 10
90.909411
 20
188.183819
 30
0.0
 10
87.641111
 20
188.041119
 30
0.0
 10
84.372811
 20
188.183819
 30
0.0
 10
81.129310
 20
188.610818
 30
0.0
 10
77.935410
 20
189.318919
 30
0.0
 10
74.815311
 20
190.302619
 30
0.0
 10
71.792911
 20
191.554619
 30
0.0
 10
68.891110
 20
193.065120
 30
0.0
 10
66.132010
 20
194.822919
 30
0.0
 10
63.536610
 20
196.814420
 30
0.0
 10
61.124612
 20
199.024621
 30
0.0
 10
58.914411
 20
201.436619
 30
0.0
 10
56.922910
 20
204.032019
 30
0.0
 10
55.165111
 20
206.791119
 30
0.0
 10
53.654610
 20
209.692920
 30
0.0
 10
52.402610
 20
212.715319
 30
0.0
 10
51.418911
 20
215.835419
 30
0.0
 10
50.710812
 20
219.029319
 30
0.0
 10
50.283810
 20
222.272820
 30
0.0
 10
50.141110
 20
225.541120
 30
0.0
 10
50.283810
 20
228.809420
 30
0.0
 10
50.710812
 20
232.052921
 30
0.0
 10
51.418911
 20
235.246818
 30
0.0
 10
52.402610
 20
238.366921
 30
0.0
 10
53.654610
 20
241.389320
 30
0.0
 10
55.165111
 20
244.291121
 30
0.0
 10
56.922910
 20
247.050218
 30
0.0
 10
58.914411
 20
249.645618
 30
0.0
 10
61.124612
 20
252.057619
 30
0.0
 10
63.536610
 20
254.267820
 30
0.0
 10
66.132010
 20
256.259318
 30
0.0
 10
68.891110
 20
258.017018
 30
0.0
 10
71.792911
 20
259.527618
 30
0.0
 10
74.815311
 20
260.779618
 30
0.0
 10
77.935410
 20
261.763321
 30
0.0
 10
81.129310
 20
262.471419
 30
0.0
 10
84.372811
 20
262.898418
 30
0.0
 10
87.641111
 20
263.041118
 30
0.0
 10
90.909411
 20
262.898418
 30
0.0
 10
94.152912
 20
262.471419
 30
0.0
 10
97.346812
 20
261.763321
 30
0.0
 10
100.467112
 20
260.779618
 30
0.0
 10
103.489111
 20
259.527618
 30
0.0
 10
106.391112
 20
258.017018
 30
0.0
 10
109.150110
 20
256.259318
 30
0.0
 10
111.746112
 20
254.267820
 30
0.0
 10
114.157111
 20
252.057619
 30
0.0
 10
116.368110
 20
249.645618
 30
0.0
 10
118.359112
 20
247.050218
 30
0.0
 10
120.117111
 20
244.291121
 30
0.0
 10
121.628112
 20
241.389320
 30
0.0
 10
122.879110
 20
238.366921
 30
0.0
 10
123.863111
 20
235.246818
 30
0.0
 10
124.571111
 20
232.052921
 30
0.0
 10
124.998110
 20
228.809420
 30
0.0
 10
125.141112
 20
225.541120
 30
0.0
 10
124.998110
 20
222.272820
 30
0.0
 10
124.571111
 20
219.029319
 30
0.0
 10
123.863111
 20
215.835419
 30
0.0
 10
122.879110
 20
212.715319
 30
0.0
 10
121.628112
 20
209.692920
 30
0.0
 10
120.117111
 20
206.791119
 30
0.0
 10
118.359112
 20
204.032019
 30
0.0
 10
116.368110
 20
201.436619
 30
0.0
 10
114.157111
 20
199.024621
 30
0.0
 10
111.746112
 20
196.814420
 30
0.0
 10
109.150110
 20
194.822919
 30
0.0
 10
106.391112
 20
193.065120
 30
0.0
 10
103.489111
 20
191.554619
 30
0.0
 10
100.467112
 20
190.302619
 30
0.0
 10
97.346812
 20
189.318919
 30
0.0
  0
LWPOLYLINE
  5
106
100
AcDbEntity
  8
0
 62
7
100
AcDbPolyline
 90
29
 70
1
 10
52.845612
 20
187.809019
 30
0.0
 10
52.380611
 20
187.646318
 30
0.0
 10
51.891111
 20
187.591118
 30
0.0
 10
51.401610
 20
187.646318
 30
0.0
 10
50.936610
 20
187.809019
 30
0.0
 10
50.519412
 20
188.071119
 30
0.0
 10
50.171110
 20
188.419418
 30
0.0
 10
49.909010
 20
188.836520
 30
0.0
 10
49.746210
 20
189.301520
 30
0.0
 10
49.691112
 20
189.791119
 30
0.0
 10
49.746210
 20
190.280620
 30
0.0
 10
49.909010
 20
190.745620
 30
0.0
 10
50.171110
 20
191.162818
 30
0.0
 10
50.519412
 20
191.511120
 30
0.0
 10
50.936610
 20
191.773220
 30
0.0
 10
51.401610
 20
191.935921
 30
0.0
 10
51.891111
 20
191.991118
 30
0.0
 10
52.380611
 20
191.935921
 30
0.0
 10
52.845612
 20
191.773220
 30
0.0
 10
53.262812
 20
191.511120
 30
0.0
 10
53.611111
 20
191.162818
 30
0.0
 10
53.873211
 20
190.745620
 30
0.0
 10
54.035912
 20
190.280620
 30
0.0
 10
54.091112
 20
189.791119
 30
0.0
 10
54.035912
 20
189.301520
 30
0.0
 10
53.873211
 20
188.836520
 30
0.0
 10
53.611111
 20
188.419418
 30
0.0
 10
53.262812
 20
188.071119
 30
0.0
 10
52.845612
 20
187.809019
 30
0.0
  0
LWPOLYLINE
  5
107
100
AcDbEntity
  8
0
 62
7
100
AcDbPolyline
 90
29
 70
1
 10
121.409110
 20
188.836520
 30
0.0
 10
121.246113
 20
189.301520
 30
0.0
 10
121.191110
 20
189.791119
 30
0.0
 10
121.246113
 20
190.280620
 30
0.0
 10
121.409110
 20
190.745620
 30
0.0
 10
121.671111
 20
191.162818
 30
0.0
 10
122.019111
 20
191.511120
 30
0.0
 10
122.436111
 20
191.773220
 30
0.0
 10
122.901112
 20
191.935921
 30
0.0
 10
123.391112
 20
191.991118
 30
0.0
 10
123.881111
 20
191.935921
 30
0.0
 10
124.346112
 20
191.773220
 30
0.0
 10
124.763112
 20
191.511120
 30
0.0
 10
125.111112
 20
191.162818
 30
0.0
 10
125.373110
 20
190.745620
 30
0.0
 10
125.536111
 20
190.280620
 30
0.0
 10
125.591110
 20
189.791119
 30
0.0
 10
125.536111
 20
189.301520
 30
0.0
 10
125.373110
 20
188.836520
 30
0.0
 10
125.111112
 20
188.419418
 30
0.0
 10
124.763112
 20
188.071119
 30
0.0
 10
124.346112
 20
187.809019
 30
0.0
 10
123.881111
 20
187.646318
 30
0.0
 10
123.391112
 20
187.591118
 30
0.0
 10
122.901112
 20
187.646318
 30
0.0
 10
122.436111
 20
187.809019
 30
0.0
 10
122.019111
 20
188.071119
 30
0.0
 10
121.671111
 20
188.419418
 30
0.0
 10
121.409110
 20
188.836520
 30
0.0
  0
LWPOLYLINE
  5
108
100
AcDbEntity
  8
0
 62
7
100
AcDbPolyline
 90
29
 70
1
 10
24.195611
 20
175.358986
 30
0.0
 10
23.730611
 20
175.196257
 30
0.0
 10
23.241111
 20
175.141111
 30
0.0
 10
22.751511
 20
175.196257
 30
0.0
 10
22.286511
 20
175.358986
 30
0.0
 10
21.869411
 20
175.621086
 30
0.0
 10
21.521111
 20
175.969433
 30
0.0
 10
21.259011
 20
176.386557
 30
0.0
 10
21.096311
 20
176.851575
 30
0.0
 10
21.041111
 20
177.341118
 30
0.0
 10
21.096311
 20
177.830660
 30
0.0
 10
21.259011
 20
178.295650
 30
0.0
 10
21.521111
 20
178.712802
 30
0.0
 10
21.869411
 20
179.061149
 30
0.0
 10
22.286511
 20
179.323249
 30
0.0
 10
22.751511
 20
179.485950
 30
0.0
 10
23.241111
 20
179.541096
 30
0.0
 10
23.730611
 20
179.485950
 30
0.0
 10
24.195611
 20
179.323249
 30
0.0
 10
24.612811
 20
179.061149
 30
0.0
 10
24.961111
 20
178.712802
 30
0.0
 10
25.223211
 20
178.295650
 30
0.0
 10
25.385911
 20
177.830660
 30
0.0
 10
25.441111
 20
177.341118
 30
0.0
 10
25.385911
 20
176.851575
 30
0.0
 10
25.223211
 20
176.386557
 30
0.0
 10
24.961111
 20
175.969433
 30
0.0
 10
24.612811
 20
175.621086
 30
0.0
 10
24.195611
 20
175.358986
 30
0.0
  0
LWPOLYLINE
  5
109
100
AcDbEntity
  8
0
 62
7
100
AcDbPolyline
 90
29
 70
1
 10
42.741111
 20
175.969433
 30
0.0
 10
42.479011
 20
176.386557
 30
0.0
 10
42.316310
 20
176.851575
 30
0.0
 10
42.261110
 20
177.341118
 30
0.0
 10
42.316310
 20
177.830660
 30
0.0
 10
42.479011
 20
178.295650
 30
0.0
 10
42.741111
 20
178.712802
 30
0.0
 10
43.089412
 20
179.061149
 30
0.0
 10
43.506511
 20
179.323249
 30
0.0
 10
43.971512
 20
179.485950
 30
0.0
 10
44.461111
 20
179.541096
 30
0.0
 10
44.950611
 20
179.485950
 30
0.0
 10
45.415612
 20
179.323249
 30
0.0
 10
45.832810
 20
179.061149
 30
0.0
 10
46.181112
 20
178.712802
 30
0.0
 10
46.443211
 20
178.295650
 30
0.0
 10
46.605912
 20
177.830660
 30
0.0
 10
46.661112
 20
177.341118
 30
0.0
 10
46.605912
 20
176.851575
 30
0.0
 10
46.443211
 20
176.386557
 30
0.0
 10
46.181112
 20
175.969433
 30
0.0
 10
45.832810
 20
175.621086
 30
0.0
 10
45.415612
 20
175.358986
 30
0.0
 10
44.950611
 20
175.196257
 30
0.0
 10
44.461111
 20
175.141111
 30
0.0
 10
43.971512
 20
175.196257
 30
0.0
 10
43.506511
 20
175.358986
 30
0.0
 10
43.089412
 20
175.621086
 30
0.0
 10
42.741111
 20
175.969433
 30
0.0
  0
LWPOLYLINE
  5
10a
100
AcDbEntity
  8
0
 62
7
100
AcDbPolyline
 90
29
 70
1
 10
339.821125
 20
175.141111
 30
0.0
 10
339.331102
 20
175.196257
 30
0.0
 10
338.866113
 20
175.358986
 30
0.0
 10
338.449102
 20
175.621086
 30
0.0
 10
338.101122
 20
175.969433
 30
0.0
 10
337.839106
 20
176.386557
 30
0.0
 10
337.676123
 20
176.851575
 30
0.0
 10
337.621118
 20
177.341118
 30
0.0
 10
337.676123
 20
177.830660
 30
0.0
 10
337.839106
 20
178.295650
 30
0.0
 10
338.101122
 20
178.712802
 30
0.0
 10
338.449102
 20
179.061149
 30
0.0
 10
338.866113
 20
179.323249
 30
0.0
 10
339.331102
 20
179.485950
 30
0.0
 10
339.821125
 20
179.541096
 30
0.0
 10
340.311119
 20
179.485950
 30
0.0
 10
340.776108
 20
179.323249
 30
0.0
 10
341.193120
 20
179.061149
 30
0.0
 10
341.541100
 20
178.712802
 30
0.0
 10
341.803115
 20
178.295650
 30
0.0
 10
341.966098
 20
177.830660
 30
0.0
 10
342.021104
 20
177.341118
 30
0.0
 10
341.966098
 20
176.851575
 30
0.0
 10
341.803115
 20
176.386557
 30
0.0
 10
341.541100
 20
175.969433
 30
0.0
 10
341.193120
 20
175.621086
 30
0.0
 10
340.776108
 20
175.358986
 30
0.0
 10
340.311119
 20
175.196257
 30
0.0
 10
339.821125
 20
175.141111
 30
0.0
  0
LWPOLYLINE
  5
10b
100
AcDbEntity
  8
0
 62
7
100
AcDbPolyline
 90
29
 70
1
 10
359.059113
 20
176.386557
 30
0.0
 10
358.896102
 20
176.851575
 30
0.0
 10
358.841125
 20
177.341118
 30
0.0
 10
358.896102
 20
177.830660
 30
0.0
 10
359.059113
 20
178.295650
 30
0.0
 10
359.321100
 20
178.712802
 30
0.0
 10
359.669108
 20
179.061149
 30
0.0
 10
360.086120
 20
179.323249
 30
0.0
 10
360.551109
 20
179.485950
 30
0.0
 10
361.041103
 20
179.541096
 30
0.0
 10
361.531098
 20
179.485950
 30
0.0
 10
361.996115
 20
179.323249
 30
0.0
 10
362.413098
 20
179.061149
 30
0.0
 10
362.761107
 20
178.712802
 30
0.0
 10
363.023122
 20
178.295650
 30
0.0
 10
363.186105
 20
177.830660
 30
0.0
 10
363.241110
 20
177.341118
 30
0.0
 10
363.186105
 20
176.851575
 30
0.0
 10
363.023122
 20
176.386557
 30
0.0
 10
362.761107
 20
175.969433
 30
0.0
 10
362.413098
 20
175.621086
 30
0.0
 10
361.996115
 20
175.358986
 30
0.0
 10
361.531098
 20
175.196257
 30
0.0
 10
361.041103
 20
175.141111
 30
0.0
 10
360.551109
 20
175.196257
 30
0.0
 10
360.086120
 20
175.358986
 30
0.0
 10
359.669108
 20
175.621086
 30
0.0
 10
359.321100
 20
175.969433
 30
0.0
 10
359.059113
 20
176.386557
 30
0.0
  0
LWPOLYLINE
  5
10c
100
AcDbEntity
  8
0
 62
7
100
AcDbPolyline
 90
34
 70
1
 10
0.141111
 20
0.141122
 30
0.0
 10
359.141099
 20
0.141122
 30
0.0
 10
361.320108
 20
0.236118
 30
0.0
 10
363.482100
 20
0.521106
 30
0.0
 10
365.611100
 20
0.993123
 30
0.0
 10
367.691106
 20
1.649120
 30
0.0
 10
369.706116
 20
2.483115
 30
0.0
 10
371.641116
 20
3.490112
 30
0.0
 10
373.480104
 20
4.662124
 30
0.0
 10
375.211114
 20
5.990121
 30
0.0
 10
376.819104
 20
7.463124
 30
0.0
 10
378.292106
 20
9.071113
 30
0.0
 10
379.620103
 20
10.802123
 30
0.0
 10
380.792115
 20
12.641111
 30
0.0
 10
381.799112
 20
14.576111
 30
0.0
 10
382.633107
 20
16.591122
 30
0.0
 10
383.289104
 20
18.671128
 30
0.0
 10
383.761121
 20
20.800127
 30
0.0
 10
384.046109
 20
22.962119
 30
0.0
 10
384.141105
 20
25.141128
 30
0.0
 10
384.141105
 20
166.141129
 30
0.0
 10
329.729564
 20
166.141129
 30
0.0
 10
0.141111
 20
166.141129
 30
0.0
 10
0.165879
 20
151.774804
 30
0.0
 10
8.174733
 20
151.808530
 30
0.0
 10
8.174733
 20
137.681388
 30
0.0
 10
0.190647
 20
137.681388
 30
0.0
 10
0.165879
 20
137.746271
 30
0.0
 10
0.145318
 20
78.271522
 30
0.0
 10
9.037505
 20
78.316536
 30
0.0
 10
9.037505
 20
60.068640
 30
0.0
 10
0.149525
 20
60.068640
 30
0.0
 10
0.145318
 20
60.026222
 30
0.0
 10
0.141111
 20
0.141122
 30
0.0
  0
LWPOLYLINE
  5
10d
100
AcDbEntity
  8
0
 62
7
100
AcDbPolyline
 90
29
 70
1
 10
25.223211
 20
159.895607
 30
0.0
 10
25.385911
 20
159.430731
 30
0.0
 10
25.441111
 20
158.941132
 30
0.0
 10
25.385911
 20
158.451617
 30
0.0
 10
25.223211
 20
157.986628
 30
0.0
 10
24.961111
 20
157.569419
 30
0.0
 10
24.612811
 20
157.221128
 30
0.0
 10
24.195611
 20
156.959029
 30
0.0
 10
23.730611
 20
156.796328
 30
0.0
 10
23.241111
 20
156.741125
 30
0.0
 10
22.751511
 20
156.796328
 30
0.0
 10
22.286511
 20
156.959029
 30
0.0
 10
21.869411
 20
157.221128
 30
0.0
 10
21.521111
 20
157.569419
 30
0.0
 10
21.259011
 20
157.986628
 30
0.0
 10
21.096311
 20
158.451617
 30
0.0
 10
21.041111
 20
158.941132
 30
0.0
 10
21.096311
 20
159.430731
 30
0.0
 10
21.259011
 20
159.895607
 30
0.0
 10
21.521111
 20
160.312816
 30
0.0
 10
21.869411
 20
160.661135
 30
0.0
 10
22.286511
 20
160.923263
 30
0.0
 10
22.751511
 20
161.085964
 30
0.0
 10
23.241111
 20
161.141139
 30
0.0
 10
23.730611
 20
161.085964
 30
0.0
 10
24.195611
 20
160.923263
 30
0.0
 10
24.612811
 20
160.661135
 30
0.0
 10
24.961111
 20
160.312816
 30
0.0
 10
25.223211
 20
159.895607
 30
0.0
  0
LWPOLYLINE
  5
10e
100
AcDbEntity
  8
0
 62
7
100
AcDbPolyline
 90
29
 70
1
 10
42.741111
 20
157.569419
 30
0.0
 10
42.479011
 20
157.986628
 30
0.0
 10
42.316310
 20
158.451617
 30
0.0
 10
42.261110
 20
158.941132
 30
0.0
 10
42.316310
 20
159.430731
 30
0.0
 10
42.479011
 20
159.895607
 30
0.0
 10
42.741111
 20
160.312816
 30
0.0
 10
43.089412
 20
160.661135
 30
0.0
 10
43.506511
 20
160.923263
 30
0.0
 10
43.971512
 20
161.085964
 30
0.0
 10
44.461111
 20
161.141139
 30
0.0
 10
44.950611
 20
161.085964
 30
0.0
 10
45.415612
 20
160.923263
 30
0.0
 10
45.832810
 20
160.661135
 30
0.0
 10
46.181112
 20
160.312816
 30
0.0
 10
46.443211
 20
159.895607
 30
0.0
 10
46.605912
 20
159.430731
 30
0.0
 10
46.661112
 20
158.941132
 30
0.0
 10
46.605912
 20
158.451617
 30
0.0
 10
46.443211
 20
157.986628
 30
0.0
 10
46.181112
 20
157.569419
 30
0.0
 10
45.832810
 20
157.221128
 30
0.0
 10
45.415612
 20
156.959029
 30
0.0
 10
44.950611
 20
156.796328
 30
0.0
 10
44.461111
 20
156.741125
 30
0.0
 10
43.971512
 20
156.796328
 30
0.0
 10
43.506511
 20
156.959029
 30
0.0
 10
43.089412
 20
157.221128
 30
0.0
 10
42.741111
 20
157.569419
 30
0.0
  0
LWPOLYLINE
  5
10f
100
AcDbEntity
  8
0
 62
7
100
AcDbPolyline
 90
29
 70
1
 10
340.311119
 20
156.796328
 30
0.0
 10
339.821125
 20
156.741125
 30
0.0
 10
339.331102
 20
156.796328
 30
0.0
 10
338.866113
 20
156.959029
 30
0.0
 10
338.449102
 20
157.221128
 30
0.0
 10
338.101122
 20
157.569419
 30
0.0
 10
337.839106
 20
157.986628
 30
0.0
 10
337.676123
 20
158.451617
 30
0.0
 10
337.621118
 20
158.941132
 30
0.0
 10
337.676123
 20
159.430731
 30
0.0
 10
337.839106
 20
159.895607
 30
0.0
 10
338.101122
 20
160.312816
 30
0.0
 10
338.449102
 20
160.661135
 30
0.0
 10
338.866113
 20
160.923263
 30
0.0
 10
339.331102
 20
161.085964
 30
0.0
 10
339.821125
 20
161.141139
 30
0.0
 10
340.311119
 20
161.085964
 30
0.0
 10
340.776108
 20
160.923263
 30
0.0
 10
341.193120
 20
160.661135
 30
0.0
 10
341.541100
 20
160.312816
 30
0.0
 10
341.803115
 20
159.895607
 30
0.0
 10
341.966098
 20
159.430731
 30
0.0
 10
342.021104
 20
158.941132
 30
0.0
 10
341.966098
 20
158.451617
 30
0.0
 10
341.803115
 20
157.986628
 30
0.0
 10
341.541100
 20
157.569419
 30
0.0
 10
341.193120
 20
157.221128
 30
0.0
 10
340.776108
 20
156.959029
 30
0.0
 10
340.311119
 20
156.796328
 30
0.0
  0
LWPOLYLINE
  5
110
100
AcDbEntity
  8
0
 62
7
100
AcDbPolyline
 90
29
 70
1
 10
360.086120
 20
160.923263
 30
0.0
 10
360.551109
 20
161.085964
 30
0.0
 10
361.041103
 20
161.141139
 30
0.0
 10
361.531098
 20
161.085964
 30
0.0
 10
361.996115
 20
160.923263
 30
0.0
 10
362.413098
 20
160.661135
 30
0.0
 10
362.761107
 20
160.312816
 30
0.0
 10
363.023122
 20
159.895607
 30
0.0
 10
363.186105
 20
159.430731
 30
0.0
 10
363.241110
 20
158.941132
 30
0.0
 10
363.186105
 20
158.451617
 30
0.0
 10
363.023122
 20
157.986628
 30
0.0
 10
362.761107
 20
157.569419
 30
0.0
 10
362.413098
 20
157.221128
 30
0.0
 10
361.996115
 20
156.959029
 30
0.0
 10
361.531098
 20
156.796328
 30
0.0
 10
361.041103
 20
156.741125
 30
0.0
 10
360.551109
 20
156.796328
 30
0.0
 10
360.086120
 20
156.959029
 30
0.0
 10
359.669108
 20
157.221128
 30
0.0
 10
359.321100
 20
157.569419
 30
0.0
 10
359.059113
 20
157.986628
 30
0.0
 10
358.896102
 20
158.451617
 30
0.0
 10
358.841125
 20
158.941132
 30
0.0
 10
358.896102
 20
159.430731
 30
0.0
 10
359.059113
 20
159.895607
 30
0.0
 10
359.321100
 20
160.312816
 30
0.0
 10
359.669108
 20
160.661135
 30
0.0
 10
360.086120
 20
160.923263
 30
0.0
  0
LWPOLYLINE
  5
111
100
AcDbEntity
  8
0
 62
7
100
AcDbPolyline
 90
29
 70
1
 10
49.185912
 20
98.151622
 30
0.0
 10
49.023211
 20
97.686633
 30
0.0
 10
48.761111
 20
97.269424
 30
0.0
 10
48.412812
 20
96.921105
 30
0.0
 10
47.995611
 20
96.659034
 30
0.0
 10
47.530611
 20
96.496332
 30
0.0
 10
47.041110
 20
96.441130
 30
0.0
 10
46.551511
 20
96.496332
 30
0.0
 10
46.086511
 20
96.659034
 30
0.0
 10
45.669412
 20
96.921105
 30
0.0
 10
45.321110
 20
97.269424
 30
0.0
 10
45.059010
 20
97.686633
 30
0.0
 10
44.896312
 20
98.151622
 30
0.0
 10
44.841112
 20
98.641108
 30
0.0
 10
44.896312
 20
99.130623
 30
0.0
 10
45.059010
 20
99.595612
 30
0.0
 10
45.321110
 20
100.012821
 30
0.0
 10
45.669412
 20
100.361112
 30
0.0
 10
46.086511
 20
100.623212
 30
0.0
 10
46.551511
 20
100.786026
 30
0.0
 10
47.041110
 20
100.841115
 30
0.0
 10
47.530611
 20
100.786026
 30
0.0
 10
47.995611
 20
100.623212
 30
0.0
 10
48.412812
 20
100.361112
 30
0.0
 10
48.761111
 20
100.012821
 30
0.0
 10
49.023211
 20
99.595612
 30
0.0
 10
49.185912
 20
99.130623
 30
0.0
 10
49.241112
 20
98.641108
 30
0.0
 10
49.185912
 20
98.151622
 30
0.0
  0
LWPOLYLINE
  5
112
100
AcDbEntity
  8
0
 62
7
100
AcDbPolyline
 90
29
 70
1
 10
196.086112
 20
100.623212
 30
0.0
 10
196.551113
 20
100.786026
 30
0.0
 10
197.041110
 20
100.841115
 30
0.0
 10
197.531112
 20
100.786026
 30
0.0
 10
197.996110
 20
100.623212
 30
0.0
 10
198.413110
 20
100.361112
 30
0.0
 10
198.761110
 20
100.012821
 30
0.0
 10
199.023111
 20
99.595612
 30
0.0
 10
199.186111
 20
99.130623
 30
0.0
 10
199.241111
 20
98.641108
 30
0.0
 10
199.186111
 20
98.151622
 30
0.0
 10
199.023111
 20
97.686633
 30
0.0
 10
198.761110
 20
97.269424
 30
0.0
 10
198.413110
 20
96.921105
 30
0.0
 10
197.996110
 20
96.659034
 30
0.0
 10
197.531112
 20
96.496332
 30
0.0
 10
197.041110
 20
96.441130
 30
0.0
 10
196.551113
 20
96.496332
 30
0.0
 10
196.086112
 20
96.659034
 30
0.0
 10
195.669112
 20
96.921105
 30
0.0
 10
195.321112
 20
97.269424
 30
0.0
 10
195.059111
 20
97.686633
 30
0.0
 10
194.896111
 20
98.151622
 30
0.0
 10
194.841111
 20
98.641108
 30
0.0
 10
194.896111
 20
99.130623
 30
0.0
 10
195.059111
 20
99.595612
 30
0.0
 10
195.321112
 20
100.012821
 30
0.0
 10
195.669112
 20
100.361112
 30
0.0
 10
196.086112
 20
100.623212
 30
0.0
  0
LWPOLYLINE
  5
113
100
AcDbEntity
  8
0
 62
7
100
AcDbPolyline
 90
29
 70
1
 10
45.669412
 20
50.361127
 30
0.0
 10
46.086511
 20
50.623114
 30
0.0
 10
46.551511
 20
50.786126
 30
0.0
 10
47.041110
 20
50.841131
 30
0.0
 10
47.530611
 20
50.786126
 30
0.0
 10
47.995611
 20
50.623114
 30
0.0
 10
48.412812
 20
50.361127
 30
0.0
 10
48.761111
 20
50.013119
 30
0.0
 10
49.023211
 20
49.596107
 30
0.0
 10
49.185912
 20
49.131118
 30
0.0
 10
49.241112
 20
48.641124
 30
0.0
 10
49.185912
 20
48.151130
 30
0.0
 10
49.023211
 20
47.686112
 30
0.0
 10
48.761111
 20
47.269129
 30
0.0
 10
48.412812
 20
46.921120
 30
0.0
 10
47.995611
 20
46.659105
 30
0.0
 10
47.530611
 20
46.496122
 30
0.0
 10
47.041110
 20
46.441117
 30
0.0
 10
46.551511
 20
46.496122
 30
0.0
 10
46.086511
 20
46.659105
 30
0.0
 10
45.669412
 20
46.921120
 30
0.0
 10
45.321110
 20
47.269129
 30
0.0
 10
45.059010
 20
47.686112
 30
0.0
 10
44.896312
 20
48.151130
 30
0.0
 10
44.841112
 20
48.641124
 30
0.0
 10
44.896312
 20
49.131118
 30
0.0
 10
45.059010
 20
49.596107
 30
0.0
 10
45.321110
 20
50.013119
 30
0.0
 10
45.669412
 20
50.361127
 30
0.0
  0
LWPOLYLINE
  5
114
100
AcDbEntity
  8
0
 62
7
100
AcDbPolyline
 90
29
 70
1
 10
196.086112
 20
46.659105
 30
0.0
 10
195.669112
 20
46.921120
 30
0.0
 10
195.321112
 20
47.269129
 30
0.0
 10
195.059111
 20
47.686112
 30
0.0
 10
194.896111
 20
48.151130
 30
0.0
 10
194.841111
 20
48.641124
 30
0.0
 10
194.896111
 20
49.131118
 30
0.0
 10
195.059111
 20
49.596107
 30
0.0
 10
195.321112
 20
50.013119
 30
0.0
 10
195.669112
 20
50.361127
 30
0.0
 10
196.086112
 20
50.623114
 30
0.0
 10
196.551113
 20
50.786126
 30
0.0
 10
197.041110
 20
50.841131
 30
0.0
 10
197.531112
 20
50.786126
 30
0.0
 10
197.996110
 20
50.623114
 30
0.0
 10
198.413110
 20
50.361127
 30
0.0
 10
198.761110
 20
50.013119
 30
0.0
 10
199.023111
 20
49.596107
 30
0.0
 10
199.186111
 20
49.131118
 30
0.0
 10
199.241111
 20
48.641124
 30
0.0
 10
199.186111
 20
48.151130
 30
0.0
 10
199.023111
 20
47.686112
 30
0.0
 10
198.761110
 20
47.269129
 30
0.0
 10
198.413110
 20
46.921120
 30
0.0
 10
197.996110
 20
46.659105
 30
0.0
 10
197.531112
 20
46.496122
 30
0.0
 10
197.041110
 20
46.441117
 30
0.0
 10
196.551113
 20
46.496122
 30
0.0
 10
196.086112
 20
46.659105
 30
0.0
  0
LWPOLYLINE
  5
115
100
AcDbEntity
  8
0
 62
7
100
AcDbPolyline
 90
29
 70
1
 10
8.295651
 20
32.043127
 30
0.0
 10
8.712781
 20
31.781112
 30
0.0
 10
9.061141
 20
31.433132
 30
0.0
 10
9.323241
 20
31.016120
 30
0.0
 10
9.485941
 20
30.551131
 30
0.0
 10
9.541101
 20
30.061108
 30
0.0
 10
9.485941
 20
29.571114
 30
0.0
 10
9.323241
 20
29.106125
 30
0.0
 10
9.061141
 20
28.689113
 30
0.0
 10
8.712781
 20
28.341105
 30
0.0
 10
8.295651
 20
28.079118
 30
0.0
 10
7.830651
 20
27.916107
 30
0.0
 10
7.341111
 20
27.861130
 30
0.0
 10
6.851561
 20
27.916107
 30
0.0
 10
6.386561
 20
28.079118
 30
0.0
 10
5.969421
 20
28.341105
 30
0.0
 10
5.621081
 20
28.689113
 30
0.0
 10
5.358971
 20
29.106125
 30
0.0
 10
5.196261
 20
29.571114
 30
0.0
 10
5.141091
 20
30.061108
 30
0.0
 10
5.196261
 20
30.551131
 30
0.0
 10
5.358971
 20
31.016120
 30
0.0
 10
5.621081
 20
31.433132
 30
0.0
 10
5.969421
 20
31.781112
 30
0.0
 10
6.386561
 20
32.043127
 30
0.0
 10
6.851561
 20
32.206110
 30
0.0
 10
7.341111
 20
32.261115
 30
0.0
 10
7.830651
 20
32.206110
 30
0.0
 10
8.295651
 20
32.043127
 30
0.0
  0
LWPOLYLINE
  5
116
100
AcDbEntity
  8
0
 62
7
100
AcDbPolyline
 90
29
 70
1
 10
8.295651
 20
10.823120
 30
0.0
 10
8.712781
 20
10.561105
 30
0.0
 10
9.061141
 20
10.213125
 30
0.0
 10
9.323241
 20
9.796114
 30
0.0
 10
9.485941
 20
9.331124
 30
0.0
 10
9.541101
 20
8.841130
 30
0.0
 10
9.485941
 20
8.351108
 30
0.0
 10
9.323241
 20
7.886118
 30
0.0
 10
9.061141
 20
7.469107
 30
0.0
 10
8.712781
 20
7.121127
 30
0.0
 10
8.295651
 20
6.859112
 30
0.0
 10
7.830651
 20
6.696128
 30
0.0
 10
7.341111
 20
6.641123
 30
0.0
 10
6.851561
 20
6.696128
 30
0.0
 10
6.386561
 20
6.859112
 30
0.0
 10
5.969421
 20
7.121127
 30
0.0
 10
5.621081
 20
7.469107
 30
0.0
 10
5.358971
 20
7.886118
 30
0.0
 10
5.196261
 20
8.351108
 30
0.0
 10
5.141091
 20
8.841130
 30
0.0
 10
5.196261
 20
9.331124
 30
0.0
 10
5.358971
 20
9.796114
 30
0.0
 10
5.621081
 20
10.213125
 30
0.0
 10
5.969421
 20
10.561105
 30
0.0
 10
6.386561
 20
10.823120
 30
0.0
 10
6.851561
 20
10.986132
 30
0.0
 10
7.341111
 20
11.041109
 30
0.0
 10
7.830651
 20
10.986132
 30
0.0
 10
8.295651
 20
10.823120
 30
0.0
  0
LWPOLYLINE
  5
117
100
AcDbEntity
  8
0
 62
7
100
AcDbPolyline
 90
20
 70
0
 10
43.542700
 20
135.192450
 30
0.0
 10
43.583641
 20
135.684462
 30
0.0
 10
43.781359
 20
136.136471
 30
0.0
 10
44.115882
 20
136.500481
 30
0.0
 10
44.549264
 20
136.735484
 30
0.0
 10
45.035570
 20
136.816486
 30
0.0
 10
45.521877
 20
136.735484
 30
0.0
 10
45.955259
 20
136.500481
 30
0.0
 10
46.289782
 20
136.136471
 30
0.0
 10
46.487500
 20
135.684462
 30
0.0
 10
46.528441
 20
135.192450
 30
0.0
 10
46.407614
 20
134.713441
 30
0.0
 10
46.137998
 20
134.300431
 30
0.0
 10
45.748553
 20
133.997424
 30
0.0
 10
45.282219
 20
133.836422
 30
0.0
 10
44.788922
 20
133.836422
 30
0.0
 10
44.322587
 20
133.997424
 30
0.0
 10
43.933143
 20
134.300431
 30
0.0
 10
43.663527
 20
134.713441
 30
0.0
 10
43.542700
 20
135.192450
 30
0.0
  0
LWPOLYLINE
  5
118
100
AcDbEntity
  8
0
 62
7
100
AcDbPolyline
 90
20
 70
0
 10
43.542700
 20
140.992579
 30
0.0
 10
43.583641
 20
141.484591
 30
0.0
 10
43.781359
 20
141.936599
 30
0.0
 10
44.115882
 20
142.300609
 30
0.0
 10
44.549264
 20
142.535612
 30
0.0
 10
45.035570
 20
142.616615
 30
0.0
 10
45.521877
 20
142.535612
 30
0.0
 10
45.955259
 20
142.300609
 30
0.0
 10
46.289782
 20
141.936599
 30
0.0
 10
46.487500
 20
141.484591
 30
0.0
 10
46.528441
 20
140.992579
 30
0.0
 10
46.407614
 20
140.513569
 30
0.0
 10
46.137998
 20
140.100559
 30
0.0
 10
45.748553
 20
139.797553
 30
0.0
 10
45.282219
 20
139.636550
 30
0.0
 10
44.788922
 20
139.636550
 30
0.0
 10
44.322587
 20
139.797553
 30
0.0
 10
43.933143
 20
140.100559
 30
0.0
 10
43.663527
 20
140.513569
 30
0.0
 10
43.542700
 20
140.992579
 30
0.0
  0
LWPOLYLINE
  5
119
100
AcDbEntity
  8
0
 62
7
100
AcDbPolyline
 90
20
 70
0
 10
193.341290
 20
135.192456
 30
0.0
 10
193.382232
 20
135.684468
 30
0.0
 10
193.579950
 20
136.136477
 30
0.0
 10
193.914473
 20
136.500486
 30
0.0
 10
194.347855
 20
136.735490
 30
0.0
 10
194.834161
 20
136.816492
 30
0.0
 10
195.320468
 20
136.735490
 30
0.0
 10
195.753849
 20
136.500486
 30
0.0
 10
196.088372
 20
136.136477
 30
0.0
 10
196.286090
 20
135.684468
 30
0.0
 10
196.327032
 20
135.192456
 30
0.0
 10
196.206204
 20
134.713447
 30
0.0
 10
195.936589
 20
134.300436
 30
0.0
 10
195.547144
 20
133.997430
 30
0.0
 10
195.080809
 20
133.836427
 30
0.0
 10
194.587513
 20
133.836427
 30
0.0
 10
194.121178
 20
133.997430
 30
0.0
 10
193.731733
 20
134.300436
 30
0.0
 10
193.462118
 20
134.713447
 30
0.0
 10
193.341290
 20
135.192456
 30
0.0
  0
LWPOLYLINE
  5
11a
100
AcDbEntity
  8
0
 62
7
100
AcDbPolyline
 90
20
 70
0
 10
193.341290
 20
140.992585
 30
0.0
 10
193.382232
 20
141.484596
 30
0.0
 10
193.579950
 20
141.936605
 30
0.0
 10
193.914473
 20
142.300615
 30
0.0
 10
194.347855
 20
142.535618
 30
0.0
 10
194.834161
 20
142.616620
 30
0.0
 10
195.320468
 20
142.535618
 30
0.0
 10
195.753849
 20
142.300615
 30
0.0
 10
196.088372
 20
141.936605
 30
0.0
 10
196.286090
 20
141.484596
 30
0.0
 10
196.327032
 20
140.992585
 30
0.0
 10
196.206204
 20
140.513575
 30
0.0
 10
195.936589
 20
140.100565
 30
0.0
 10
195.547144
 20
139.797559
 30
0.0
 10
195.080809
 20
139.636556
 30
0.0
 10
194.587513
 20
139.636556
 30
0.0
 10
194.121178
 20
139.797559
 30
0.0
 10
193.731733
 20
140.100565
 30
0.0
 10
193.462118
 20
140.513575
 30
0.0
 10
193.341290
 20
140.992585
 30
0.0
  0
LWPOLYLINE
  5
11b
100
AcDbEntity
  8
0
 62
7
100
AcDbPolyline
 90
20
 70
0
 10
263.247111
 20
135.192456
 30
0.0
 10
263.288053
 20
135.684468
 30
0.0
 10
263.485770
 20
136.136477
 30
0.0
 10
263.820293
 20
136.500486
 30
0.0
 10
264.253675
 20
136.735490
 30
0.0
 10
264.739982
 20
136.816492
 30
0.0
 10
265.226288
 20
136.735490
 30
0.0
 10
265.659670
 20
136.500486
 30
0.0
 10
265.994193
 20
136.136477
 30
0.0
 10
266.191911
 20
135.684468
 30
0.0
 10
266.232853
 20
135.192456
 30
0.0
 10
266.112025
 20
134.713447
 30
0.0
 10
265.842409
 20
134.300436
 30
0.0
 10
265.452965
 20
133.997430
 30
0.0
 10
264.986630
 20
133.836427
 30
0.0
 10
264.493334
 20
133.836427
 30
0.0
 10
264.026999
 20
133.997430
 30
0.0
 10
263.637554
 20
134.300436
 30
0.0
 10
263.367939
 20
134.713447
 30
0.0
 10
263.247111
 20
135.192456
 30
0.0
  0
LWPOLYLINE
  5
11c
100
AcDbEntity
  8
0
 62
7
100
AcDbPolyline
 90
20
 70
0
 10
263.247111
 20
140.992585
 30
0.0
 10
263.288053
 20
141.484596
 30
0.0
 10
263.485770
 20
141.936605
 30
0.0
 10
263.820293
 20
142.300615
 30
0.0
 10
264.253675
 20
142.535618
 30
0.0
 10
264.739982
 20
142.616620
 30
0.0
 10
265.226288
 20
142.535618
 30
0.0
 10
265.659670
 20
142.300615
 30
0.0
 10
265.994193
 20
141.936605
 30
0.0
 10
266.191911
 20
141.484596
 30
0.0
 10
266.232853
 20
140.992585
 30
0.0
 10
266.112025
 20
140.513575
 30
0.0
 10
265.842409
 20
140.100565
 30
0.0
 10
265.452965
 20
139.797559
 30
0.0
 10
264.986630
 20
139.636556
 30
0.0
 10
264.493334
 20
139.636556
 30
0.0
 10
264.026999
 20
139.797559
 30
0.0
 10
263.637554
 20
140.100565
 30
0.0
 10
263.367939
 20
140.513575
 30
0.0
 10
263.247111
 20
140.992585
 30
0.0
  0
LWPOLYLINE
  5
11d
100
AcDbEntity
  8
0
 62
7
100
AcDbPolyline
 90
20
 70
0
 10
43.565798
 20
11.002465
 30
0.0
 10
43.606739
 20
11.494477
 30
0.0
 10
43.804457
 20
11.946485
 30
0.0
 10
44.138980
 20
12.310495
 30
0.0
 10
44.572362
 20
12.545498
 30
0.0
 10
45.058668
 20
12.626501
 30
0.0
 10
45.544975
 20
12.545498
 30
0.0
 10
45.978357
 20
12.310495
 30
0.0
 10
46.312880
 20
11.946485
 30
0.0
 10
46.510598
 20
11.494477
 30
0.0
 10
46.551539
 20
11.002465
 30
0.0
 10
46.430712
 20
10.523455
 30
0.0
 10
46.161096
 20
10.110445
 30
0.0
 10
45.771651
 20
9.807439
 30
0.0
 10
45.305317
 20
9.646436
 30
0.0
 10
44.812020
 20
9.646436
 30
0.0
 10
44.345685
 20
9.807439
 30
0.0
 10
43.956241
 20
10.110445
 30
0.0
 10
43.686625
 20
10.523455
 30
0.0
 10
43.565798
 20
11.002465
 30
0.0
  0
LWPOLYLINE
  5
11e
100
AcDbEntity
  8
0
 62
7
100
AcDbPolyline
 90
20
 70
0
 10
43.565798
 20
16.802593
 30
0.0
 10
43.606739
 20
17.294605
 30
0.0
 10
43.804457
 20
17.746614
 30
0.0
 10
44.138980
 20
18.110624
 30
0.0
 10
44.572362
 20
18.345627
 30
0.0
 10
45.058668
 20
18.426629
 30
0.0
 10
45.544975
 20
18.345627
 30
0.0
 10
45.978357
 20
18.110624
 30
0.0
 10
46.312880
 20
17.746614
 30
0.0
 10
46.510598
 20
17.294605
 30
0.0
 10
46.551539
 20
16.802593
 30
0.0
 10
46.430712
 20
16.323584
 30
0.0
 10
46.161096
 20
15.910574
 30
0.0
 10
45.771651
 20
15.607567
 30
0.0
 10
45.305317
 20
15.446564
 30
0.0
 10
44.812020
 20
15.446564
 30
0.0
 10
44.345685
 20
15.607567
 30
0.0
 10
43.956241
 20
15.910574
 30
0.0
 10
43.686625
 20
16.323584
 30
0.0
 10
43.565798
 20
16.802593
 30
0.0
  0
LWPOLYLINE
  5
11f
100
AcDbEntity
  8
0
 62
7
100
AcDbPolyline
 90
20
 70
0
 10
193.364388
 20
11.002471
 30
0.0
 10
193.405330
 20
11.494482
 30
0.0
 10
193.603048
 20
11.946491
 30
0.0
 10
193.937571
 20
12.310501
 30
0.0
 10
194.370953
 20
12.545504
 30
0.0
 10
194.857259
 20
12.626506
 30
0.0
 10
195.343566
 20
12.545504
 30
0.0
 10
195.776947
 20
12.310501
 30
0.0
 10
196.111470
 20
11.946491
 30
0.0
 10
196.309188
 20
11.494482
 30
0.0
 10
196.350130
 20
11.002471
 30
0.0
 10
196.229302
 20
10.523461
 30
0.0
 10
195.959687
 20
10.110451
 30
0.0
 10
195.570242
 20
9.807445
 30
0.0
 10
195.103907
 20
9.646442
 30
0.0
 10
194.610611
 20
9.646442
 30
0.0
 10
194.144276
 20
9.807445
 30
0.0
 10
193.754831
 20
10.110451
 30
0.0
 10
193.485216
 20
10.523461
 30
0.0
 10
193.364388
 20
11.002471
 30
0.0
  0
LWPOLYLINE
  5
120
100
AcDbEntity
  8
0
 62
7
100
AcDbPolyline
 90
20
 70
0
 10
193.364388
 20
16.802599
 30
0.0
 10
193.405330
 20
17.294611
 30
0.0
 10
193.603048
 20
17.746619
 30
0.0
 10
193.937571
 20
18.110629
 30
0.0
 10
194.370953
 20
18.345632
 30
0.0
 10
194.857259
 20
18.426635
 30
0.0
 10
195.343566
 20
18.345632
 30
0.0
 10
195.776947
 20
18.110629
 30
0.0
 10
196.111470
 20
17.746619
 30
0.0
 10
196.309188
 20
17.294611
 30
0.0
 10
196.350130
 20
16.802599
 30
0.0
 10
196.229302
 20
16.323589
 30
0.0
 10
195.959687
 20
15.910579
 30
0.0
 10
195.570242
 20
15.607573
 30
0.0
 10
195.103907
 20
15.446570
 30
0.0
 10
194.610611
 20
15.446570
 30
0.0
 10
194.144276
 20
15.607573
 30
0.0
 10
193.754831
 20
15.910579
 30
0.0
 10
193.485216
 20
16.323589
 30
0.0
 10
193.364388
 20
16.802599
 30
0.0
  0
LWPOLYLINE
  5
121
100
AcDbEntity
  8
0
 62
7
100
AcDbPolyline
 90
20
 70
0
 10
263.270209
 20
11.002471
 30
0.0
 10
263.311151
 20
11.494482
 30
0.0
 10
263.508869
 20
11.946491
 30
0.0
 10
263.843391
 20
12.310501
 30
0.0
 10
264.276773
 20
12.545504
 30
0.0
 10
264.763080
 20
12.626506
 30
0.0
 10
265.249386
 20
12.545504
 30
0.0
 10
265.682768
 20
12.310501
 30
0.0
 10
266.017291
 20
11.946491
 30
0.0
 10
266.215009
 20
11.494482
 30
0.0
 10
266.255951
 20
11.002471
 30
0.0
 10
266.135123
 20
10.523461
 30
0.0
 10
265.865508
 20
10.110451
 30
0.0
 10
265.476063
 20
9.807445
 30
0.0
 10
265.009728
 20
9.646442
 30
0.0
 10
264.516432
 20
9.646442
 30
0.0
 10
264.050097
 20
9.807445
 30
0.0
 10
263.660652
 20
10.110451
 30
0.0
 10
263.391037
 20
10.523461
 30
0.0
 10
263.270209
 20
11.002471
 30
0.0
  0
LWPOLYLINE
  5
122
100
AcDbEntity
  8
0
 62
7
100
AcDbPolyline
 90
20
 70
0
 10
263.270209
 20
16.802599
 30
0.0
 10
263.311151
 20
17.294611
 30
0.0
 10
263.508869
 20
17.746619
 30
0.0
 10
263.843391
 20
18.110629
 30
0.0
 10
264.276773
 20
18.345632
 30
0.0
 10
264.763080
 20
18.426635
 30
0.0
 10
265.249386
 20
18.345632
 30
0.0
 10
265.682768
 20
18.110629
 30
0.0
 10
266.017291
 20
17.746619
 30
0.0
 10
266.215009
 20
17.294611
 30
0.0
 10
266.255951
 20
16.802599
 30
0.0
 10
266.135123
 20
16.323589
 30
0.0
 10
265.865508
 20
15.910579
 30
0.0
 10
265.476063
 20
15.607573
 30
0.0
 10
265.009728
 20
15.446570
 30
0.0
 10
264.516432
 20
15.446570
 30
0.0
 10
264.050097
 20
15.607573
 30
0.0
 10
263.660652
 20
15.910579
 30
0.0
 10
263.391037
 20
16.323589
 30
0.0
 10
263.270209
 20
16.802599
 30
0.0
  0
ENDSEC
  0
SECTION
  2
OBJECTS
  0
DICTIONARY
  5
C
330
0
100
AcDbDictionary
  3
ACAD_GROUP
350
D
  3
ACAD_MLINESTYLE
350
17
  0
DICTIONARY
  5
D
330
C
100
AcDbDictionary
  0
DICTIONARY
  5
1A
330
C
100
AcDbDictionary
  0
DICTIONARY
  5
17
330
C
100
AcDbDictionary
  3
STANDARD
350
18
  0
DICTIONARY
  5
19
330
C
100
AcDbDictionary
  0
ENDSEC
  0
EOF
