  0
SECTION
  2
HEADER
  9
$ACADVER
  1
AC1014
  9
$HANDSEED
  5
FFFF
  9
$MEASUREMENT
 70
     1
  0
ENDSEC
  0
SECTION
  2
TABLES
  0
TABLE
  2
VPORT
  5
8
330
0
100
AcDbSymbolTable
 70
     4
  0
VPORT
  5
2E
330
8
100
AcDbSymbolTableRecord
100
AcDbViewportTableRecord
  2
*ACTIVE
 70
     0
 10
0.0
 20
0.0
 11
1.0
 21
1.0
 12
210.0
 22
148.5
 13
0.0
 23
0.0
 14
10.0
 24
10.0
 15
10.0
 25
10.0
 16
0.0
 26
0.0
 36
1.0
 17
0.0
 27
0.0
 37
0.0
 40
341.0
 41
1.24
 42
50.0
 43
0.0
 44
0.0
 50
0.0
 51
0.0
 71
     0
 72
   100
 73
     1
 74
     3
 75
     0
 76
     0
 77
     0
 78
     0
  0
ENDTAB
  0
TABLE
  2
LTYPE
  5
5
330
0
100
AcDbSymbolTable
 70
     1
  0
LTYPE
  5
14
330
5
100
AcDbSymbolTableRecord
100
AcDbLinetypeTableRecord
  2
BYBLOCK
 70
     0
  3

 72
    65
 73
     0
 40
0.0
  0
LTYPE
  5
15
330
5
100
AcDbSymbolTableRecord
100
AcDbLinetypeTableRecord
  2
BYLAYER
 70
     0
  3

 72
    65
 73
     0
 40
0.0
  0
LTYPE
  5
16
330
5
100
AcDbSymbolTableRecord
100
AcDbLinetypeTableRecord
  2
CONTINUOUS
 70
     0
  3
Solid line
 72
    65
 73
     0
 40
0.0
  0
ENDTAB
  0
TABLE
  2
LAYER
  5
2
100
AcDbSymbolTable
 70
1
  0
LAYER
  5
50
100
AcDbSymbolTableRecord
100
AcDbLayerTableRecord
  2
0
 70
0
  6
CONTINUOUS
  0
ENDTAB
  0
TABLE
  2
STYLE
  5
3
330
0
100
AcDbSymbolTable
 70
     1
  0
STYLE
  5
11
330
3
100
AcDbSymbolTableRecord
100
AcDbTextStyleTableRecord
  2
STANDARD
 70
     0
 40
0.0
 41
1.0
 50
0.0
 71
     0
 42
2.5
  3
txt
  4

  0
ENDTAB
  0
TABLE
  2
VIEW
  5
6
330
0
100
AcDbSymbolTable
 70
     0
  0
ENDTAB
  0
TABLE
  2
UCS
  5
7
330
0
100
AcDbSymbolTable
 70
     0
  0
ENDTAB
  0
TABLE
  2
APPID
  5
9
330
0
100
AcDbSymbolTable
 70
     2
  0
APPID
  5
12
330
9
100
AcDbSymbolTableRecord
100
AcDbRegAppTableRecord
  2
ACAD
 70
     0
  0
ENDTAB
  0
TABLE
  2
DIMSTYLE
  5
A
330
0
100
AcDbSymbolTable
 70
     1
  0
DIMSTYLE
105
27
330
A
100
AcDbSymbolTableRecord
100
AcDbDimStyleTableRecord
  2
ISO-25
 70
     0
  3

  4

  5

  6

  7

 40
1.0
 41
2.5
 42
0.625
 43
3.75
 44
1.25
 45
0.0
 46
0.0
 47
0.0
 48
0.0
140
2.5
141
2.5
142
0.0
143
0.03937007874016
144
1.0
145
0.0
146
1.0
147
0.625
 71
     0
 72
     0
 73
     0
 74
     0
 75
     0
 76
     0
 77
     1
 78
     8
170
     0
171
     3
172
     1
173
     0
174
     0
175
     0
176
     0
177
     0
178
     0
270
     2
271
     2
272
     2
273
     2
274
     3
340
11
275
     0
280
     0
281
     0
282
     0
283
     0
284
     8
285
     0
286
     0
287
     3
288
     0
  0
ENDTAB
  0
TABLE
  2
BLOCK_RECORD
  5
1
330
0
100
AcDbSymbolTable
 70
     1
  0
BLOCK_RECORD
  5
1F
330
1
100
AcDbSymbolTableRecord
100
AcDbBlockTableRecord
  2
*MODEL_SPACE
  0
BLOCK_RECORD
  5
1B
330
1
100
AcDbSymbolTableRecord
100
AcDbBlockTableRecord
  2
*PAPER_SPACE
  0
ENDTAB
  0
ENDSEC
  0
SECTION
  2
BLOCKS
  0
BLOCK
  5
20
330
1F
100
AcDbEntity
  8
0
100
AcDbBlockBegin
  2
*MODEL_SPACE
 70
     0
 10
0.0
 20
0.0
 30
0.0
  3
*MODEL_SPACE
  1

  0
ENDBLK
  5
21
330
1F
100
AcDbEntity
  8
0
100
AcDbBlockEnd
  0
BLOCK
  5
1C
330
1B
100
AcDbEntity
 67
     1
  8
0
100
AcDbBlockBegin
  2
*PAPER_SPACE
  1

  0
ENDBLK
  5
1D
330
1B
100
AcDbEntity
 67
     1
  8
0
100
AcDbBlockEnd
  0
ENDSEC
  0
SECTION
  2
ENTITIES
  0
LWPOLYLINE
  5
100
100
AcDbEntity
  8
0
 62
7
100
AcDbPolyline
 90
26
 70
1
 10
166.141106
 20
384.141359
 30
0.0
 10
25.141112
 20
384.141359
 30
0.0
 10
22.962111
 20
384.046363
 30
0.0
 10
20.800111
 20
383.761375
 30
0.0
 10
18.671111
 20
383.289358
 30
0.0
 10
16.591111
 20
382.633361
 30
0.0
 10
14.576112
 20
381.799366
 30
0.0
 10
12.641112
 20
380.792369
 30
0.0
 10
10.802106
 20
379.620356
 30
0.0
 10
9.071108
 20
378.292360
 30
0.0
 10
7.463110
 20
376.819357
 30
0.0
 10
5.990107
 20
375.211368
 30
0.0
 10
4.662111
 20
373.480358
 30
0.0
 10
3.490110
 20
371.641370
 30
0.0
 10
2.483110
 20
369.706370
 30
0.0
 10
1.649109
 20
367.691359
 30
0.0
 10
0.993112
 20
365.611353
 30
0.0
 10
0.521109
 20
363.482354
 30
0.0
 10
0.236110
 20
361.320362
 30
0.0
 10
0.141111
 20
359.141352
 30
0.0
 10
0.141111
 20
0.141365
 30
0.0
 10
166.141106
 20
0.141365
 30
0.0
 10
166.141106
 20
329.954071
 30
0.0
 10
166.141106
 20
384.141359
 30
0.0
 10
166.141106
 20
384.141359
 30
0.0
 10
166.141106
 20
384.141359
 30
0.0
  0
LWPOLYLINE
  5
101
100
AcDbEntity
  8
0
 62
7
100
AcDbPolyline
 90
31
 70
1
 10
6.696112
 20
6.851819
 30
0.0
 10
6.641107
 20
7.341362
 30
0.0
 10
6.696112
 20
7.830904
 30
0.0
 10
6.859112
 20
8.295894
 30
0.0
 10
7.121110
 20
8.713046
 30
0.0
 10
7.469110
 20
9.061393
 30
0.0
 10
7.886110
 20
9.323493
 30
0.0
 10
8.351111
 20
9.486194
 30
0.0
 10
8.841111
 20
9.541369
 30
0.0
 10
9.331111
 20
9.486194
 30
0.0
 10
9.796111
 20
9.323493
 30
0.0
 10
10.213109
 20
9.061393
 30
0.0
 10
10.561111
 20
8.713046
 30
0.0
 10
10.823107
 20
8.295894
 30
0.0
 10
10.986110
 20
7.830904
 30
0.0
 10
11.041112
 20
7.341362
 30
0.0
 10
10.986110
 20
6.851819
 30
0.0
 10
10.823107
 20
6.386802
 30
0.0
 10
10.561111
 20
5.969677
 30
0.0
 10
10.213109
 20
5.621330
 30
0.0
 10
9.796111
 20
5.359230
 30
0.0
 10
9.331111
 20
5.196501
 30
0.0
 10
8.841111
 20
5.141355
 30
0.0
 10
8.351111
 20
5.196501
 30
0.0
 10
7.886110
 20
5.359230
 30
0.0
 10
7.469110
 20
5.621330
 30
0.0
 10
7.121110
 20
5.969677
 30
0.0
 10
6.859112
 20
6.386802
 30
0.0
 10
6.696112
 20
6.851819
 30
0.0
 10
6.696112
 20
6.851819
 30
0.0
 10
6.696112
 20
6.851819
 30
0.0
  0
LWPOLYLINE
  5
102
100
AcDbEntity
  8
0
 62
7
100
AcDbPolyline
 90
31
 70
1
 10
27.916110
 20
6.851819
 30
0.0
 10
27.861108
 20
7.341362
 30
0.0
 10
27.916110
 20
7.830904
 30
0.0
 10
28.079110
 20
8.295894
 30
0.0
 10
28.341111
 20
8.713046
 30
0.0
 10
28.689111
 20
9.061393
 30
0.0
 10
29.106108
 20
9.323493
 30
0.0
 10
29.571112
 20
9.486194
 30
0.0
 10
30.061112
 20
9.541369
 30
0.0
 10
30.551112
 20
9.486194
 30
0.0
 10
31.016112
 20
9.323493
 30
0.0
 10
31.433110
 20
9.061393
 30
0.0
 10
31.781107
 20
8.713046
 30
0.0
 10
32.043108
 20
8.295894
 30
0.0
 10
32.206111
 20
7.830904
 30
0.0
 10
32.261110
 20
7.341362
 30
0.0
 10
32.206111
 20
6.851819
 30
0.0
 10
32.043108
 20
6.386802
 30
0.0
 10
31.781107
 20
5.969677
 30
0.0
 10
31.433110
 20
5.621330
 30
0.0
 10
31.016112
 20
5.359230
 30
0.0
 10
30.551112
 20
5.196501
 30
0.0
 10
30.061112
 20
5.141355
 30
0.0
 10
29.571112
 20
5.196501
 30
0.0
 10
29.106108
 20
5.359230
 30
0.0
 10
28.689111
 20
5.621330
 30
0.0
 10
28.341111
 20
5.969677
 30
0.0
 10
28.079110
 20
6.386802
 30
0.0
 10
27.916110
 20
6.851819
 30
0.0
 10
27.916110
 20
6.851819
 30
0.0
 10
27.916110
 20
6.851819
 30
0.0
  0
LWPOLYLINE
  5
103
100
AcDbEntity
  8
0
 62
7
100
AcDbPolyline
 90
31
 70
1
 10
74.501609
 20
49.746464
 30
0.0
 10
74.036609
 20
49.909264
 30
0.0
 10
73.619411
 20
50.171364
 30
0.0
 10
73.271112
 20
50.519666
 30
0.0
 10
73.009006
 20
50.936863
 30
0.0
 10
72.846311
 20
51.401864
 30
0.0
 10
72.791111
 20
51.891364
 30
0.0
 10
72.846311
 20
52.380865
 30
0.0
 10
73.009006
 20
52.845865
 30
0.0
 10
73.271112
 20
53.263066
 30
0.0
 10
73.619411
 20
53.611365
 30
0.0
 10
74.036609
 20
53.873465
 30
0.0
 10
74.501609
 20
54.036166
 30
0.0
 10
74.991110
 20
54.091366
 30
0.0
 10
75.480712
 20
54.036166
 30
0.0
 10
75.945706
 20
53.873465
 30
0.0
 10
76.362808
 20
53.611365
 30
0.0
 10
76.711110
 20
53.263066
 30
0.0
 10
76.973210
 20
52.845865
 30
0.0
 10
77.135911
 20
52.380865
 30
0.0
 10
77.191111
 20
51.891364
 30
0.0
 10
77.135911
 20
51.401864
 30
0.0
 10
76.973210
 20
50.936863
 30
0.0
 10
76.711110
 20
50.519666
 30
0.0
 10
76.362808
 20
50.171364
 30
0.0
 10
75.945706
 20
49.909264
 30
0.0
 10
75.480712
 20
49.746464
 30
0.0
 10
74.991110
 20
49.691366
 30
0.0
 10
74.501609
 20
49.746464
 30
0.0
 10
74.501609
 20
49.746464
 30
0.0
 10
74.501609
 20
49.746464
 30
0.0
  0
LWPOLYLINE
  5
104
100
AcDbEntity
  8
0
 62
7
100
AcDbPolyline
 90
31
 70
1
 10
74.501609
 20
121.246366
 30
0.0
 10
74.036609
 20
121.409364
 30
0.0
 10
73.619411
 20
121.671365
 30
0.0
 10
73.271112
 20
122.019365
 30
0.0
 10
73.009006
 20
122.436365
 30
0.0
 10
72.846311
 20
122.901365
 30
0.0
 10
72.791111
 20
123.391365
 30
0.0
 10
72.846311
 20
123.881365
 30
0.0
 10
73.009006
 20
124.346366
 30
0.0
 10
73.271112
 20
124.763366
 30
0.0
 10
73.619411
 20
125.111366
 30
0.0
 10
74.036609
 20
125.373364
 30
0.0
 10
74.501609
 20
125.536364
 30
0.0
 10
74.991110
 20
125.591364
 30
0.0
 10
75.480712
 20
125.536364
 30
0.0
 10
75.945706
 20
125.373364
 30
0.0
 10
76.362808
 20
125.111366
 30
0.0
 10
76.711110
 20
124.763366
 30
0.0
 10
76.973210
 20
124.346366
 30
0.0
 10
77.135911
 20
123.881365
 30
0.0
 10
77.191111
 20
123.391365
 30
0.0
 10
77.135911
 20
122.901365
 30
0.0
 10
76.973210
 20
122.436365
 30
0.0
 10
76.711110
 20
122.019365
 30
0.0
 10
76.362808
 20
121.671365
 30
0.0
 10
75.945706
 20
121.409364
 30
0.0
 10
75.480712
 20
121.246366
 30
0.0
 10
74.991110
 20
121.191364
 30
0.0
 10
74.501609
 20
121.246366
 30
0.0
 10
74.501609
 20
121.246366
 30
0.0
 10
74.501609
 20
121.246366
 30
0.0
  0
LWPOLYLINE
  5
105
100
AcDbEntity
  8
0
 62
7
100
AcDbPolyline
 90
75
 70
1
 10
146.963311
 20
97.347066
 30
0.0
 10
147.671412
 20
94.153166
 30
0.0
 10
148.098408
 20
90.909665
 30
0.0
 10
148.241108
 20
87.641365
 30
0.0
 10
148.098408
 20
84.373065
 30
0.0
 10
147.671412
 20
81.129564
 30
0.0
 10
146.963311
 20
77.935664
 30
0.0
 10
145.979611
 20
74.815564
 30
0.0
 10
144.727611
 20
71.793165
 30
0.0
 10
143.217110
 20
68.891364
 30
0.0
 10
141.459311
 20
66.132264
 30
0.0
 10
139.467810
 20
63.536864
 30
0.0
 10
137.257607
 20
61.124866
 30
0.0
 10
134.845611
 20
58.914665
 30
0.0
 10
132.250211
 20
56.923164
 30
0.0
 10
129.491111
 20
55.165365
 30
0.0
 10
126.589307
 20
53.654864
 30
0.0
 10
123.566911
 20
52.402864
 30
0.0
 10
120.446808
 20
51.419164
 30
0.0
 10
117.252911
 20
50.711066
 30
0.0
 10
114.009410
 20
50.284064
 30
0.0
 10
110.741110
 20
50.141364
 30
0.0
 10
107.472807
 20
50.284064
 30
0.0
 10
104.229306
 20
50.711066
 30
0.0
 10
101.035412
 20
51.419164
 30
0.0
 10
97.915307
 20
52.402864
 30
0.0
 10
94.892910
 20
53.654864
 30
0.0
 10
91.991107
 20
55.165365
 30
0.0
 10
89.232012
 20
56.923164
 30
0.0
 10
86.636612
 20
58.914665
 30
0.0
 10
84.224611
 20
61.124866
 30
0.0
 10
82.014410
 20
63.536864
 30
0.0
 10
80.022912
 20
66.132264
 30
0.0
 10
78.265212
 20
68.891364
 30
0.0
 10
76.754612
 20
71.793165
 30
0.0
 10
75.502612
 20
74.815564
 30
0.0
 10
74.518907
 20
77.935664
 30
0.0
 10
73.810811
 20
81.129564
 30
0.0
 10
73.383812
 20
84.373065
 30
0.0
 10
73.241112
 20
87.641365
 30
0.0
 10
73.383812
 20
90.909665
 30
0.0
 10
73.810811
 20
94.153166
 30
0.0
 10
74.518907
 20
97.347066
 30
0.0
 10
75.502612
 20
100.467366
 30
0.0
 10
76.754612
 20
103.489365
 30
0.0
 10
78.265212
 20
106.391365
 30
0.0
 10
80.022912
 20
109.150364
 30
0.0
 10
82.014410
 20
111.746366
 30
0.0
 10
84.224611
 20
114.157365
 30
0.0
 10
86.636612
 20
116.368364
 30
0.0
 10
89.232012
 20
118.359366
 30
0.0
 10
91.991107
 20
120.117365
 30
0.0
 10
94.892910
 20
121.628365
 30
0.0
 10
97.915307
 20
122.879363
 30
0.0
 10
101.035412
 20
123.863365
 30
0.0
 10
104.229306
 20
124.571365
 30
0.0
 10
107.472807
 20
124.998364
 30
0.0
 10
110.741110
 20
125.141366
 30
0.0
 10
114.009410
 20
124.998364
 30
0.0
 10
117.252911
 20
124.571365
 30
0.0
 10
120.446808
 20
123.863365
 30
0.0
 10
123.566911
 20
122.879363
 30
0.0
 10
126.589307
 20
121.628365
 30
0.0
 10
129.491111
 20
120.117365
 30
0.0
 10
132.250211
 20
118.359366
 30
0.0
 10
134.845611
 20
116.368364
 30
0.0
 10
137.257607
 20
114.157365
 30
0.0
 10
139.467810
 20
111.746366
 30
0.0
 10
141.459311
 20
109.150364
 30
0.0
 10
143.217110
 20
106.391365
 30
0.0
 10
144.727611
 20
103.489365
 30
0.0
 10
145.979611
 20
100.467366
 30
0.0
 10
146.963311
 20
97.347066
 30
0.0
 10
146.963311
 20
97.347066
 30
0.0
 10
146.963311
 20
97.347066
 30
0.0
  0
LWPOLYLINE
  5
106
100
AcDbEntity
  8
0
 62
7
100
AcDbPolyline
 90
31
 70
1
 10
148.473211
 20
52.845865
 30
0.0
 10
148.635912
 20
52.380865
 30
0.0
 10
148.691112
 20
51.891364
 30
0.0
 10
148.635912
 20
51.401864
 30
0.0
 10
148.473211
 20
50.936863
 30
0.0
 10
148.211111
 20
50.519666
 30
0.0
 10
147.862812
 20
50.171364
 30
0.0
 10
147.445707
 20
49.909264
 30
0.0
 10
146.980710
 20
49.746464
 30
0.0
 10
146.491111
 20
49.691366
 30
0.0
 10
146.001610
 20
49.746464
 30
0.0
 10
145.536610
 20
49.909264
 30
0.0
 10
145.119412
 20
50.171364
 30
0.0
 10
144.771110
 20
50.519666
 30
0.0
 10
144.509007
 20
50.936863
 30
0.0
 10
144.346309
 20
51.401864
 30
0.0
 10
144.291112
 20
51.891364
 30
0.0
 10
144.346309
 20
52.380865
 30
0.0
 10
144.509007
 20
52.845865
 30
0.0
 10
144.771110
 20
53.263066
 30
0.0
 10
145.119412
 20
53.611365
 30
0.0
 10
145.536610
 20
53.873465
 30
0.0
 10
146.001610
 20
54.036166
 30
0.0
 10
146.491111
 20
54.091366
 30
0.0
 10
146.980710
 20
54.036166
 30
0.0
 10
147.445707
 20
53.873465
 30
0.0
 10
147.862812
 20
53.611365
 30
0.0
 10
148.211111
 20
53.263066
 30
0.0
 10
148.473211
 20
52.845865
 30
0.0
 10
148.473211
 20
52.845865
 30
0.0
 10
148.473211
 20
52.845865
 30
0.0
  0
LWPOLYLINE
  5
107
100
AcDbEntity
  8
0
 62
7
100
AcDbPolyline
 90
31
 70
1
 10
147.445707
 20
121.409364
 30
0.0
 10
146.980710
 20
121.246366
 30
0.0
 10
146.491111
 20
121.191364
 30
0.0
 10
146.001610
 20
121.246366
 30
0.0
 10
145.536610
 20
121.409364
 30
0.0
 10
145.119412
 20
121.671365
 30
0.0
 10
144.771110
 20
122.019365
 30
0.0
 10
144.509007
 20
122.436365
 30
0.0
 10
144.346309
 20
122.901365
 30
0.0
 10
144.291112
 20
123.391365
 30
0.0
 10
144.346309
 20
123.881365
 30
0.0
 10
144.509007
 20
124.346366
 30
0.0
 10
144.771110
 20
124.763366
 30
0.0
 10
145.119412
 20
125.111366
 30
0.0
 10
145.536610
 20
125.373364
 30
0.0
 10
146.001610
 20
125.536364
 30
0.0
 10
146.491111
 20
125.591364
 30
0.0
 10
146.980710
 20
125.536364
 30
0.0
 10
147.445707
 20
125.373364
 30
0.0
 10
147.862812
 20
125.111366
 30
0.0
 10
148.211111
 20
124.763366
 30
0.0
 10
148.473211
 20
124.346366
 30
0.0
 10
148.635912
 20
123.881365
 30
0.0
 10
148.691112
 20
123.391365
 30
0.0
 10
148.635912
 20
122.901365
 30
0.0
 10
148.473211
 20
122.436365
 30
0.0
 10
148.211111
 20
122.019365
 30
0.0
 10
147.862812
 20
121.671365
 30
0.0
 10
147.445707
 20
121.409364
 30
0.0
 10
147.445707
 20
121.409364
 30
0.0
 10
147.445707
 20
121.409364
 30
0.0
  0
LWPOLYLINE
  5
108
100
AcDbEntity
  8
0
 62
7
100
AcDbPolyline
 90
31
 70
1
 10
160.923244
 20
24.195870
 30
0.0
 10
161.085973
 20
23.730853
 30
0.0
 10
161.141116
 20
23.241367
 30
0.0
 10
161.085973
 20
22.751768
 30
0.0
 10
160.923244
 20
22.286778
 30
0.0
 10
160.661144
 20
21.869654
 30
0.0
 10
160.312797
 20
21.521363
 30
0.0
 10
159.895673
 20
21.259264
 30
0.0
 10
159.430655
 20
21.096562
 30
0.0
 10
158.941110
 20
21.041360
 30
0.0
 10
158.451570
 20
21.096562
 30
0.0
 10
157.986580
 20
21.259264
 30
0.0
 10
157.569428
 20
21.521363
 30
0.0
 10
157.221081
 20
21.869654
 30
0.0
 10
156.958981
 20
22.286778
 30
0.0
 10
156.796280
 20
22.751768
 30
0.0
 10
156.741134
 20
23.241367
 30
0.0
 10
156.796280
 20
23.730853
 30
0.0
 10
156.958981
 20
24.195870
 30
0.0
 10
157.221081
 20
24.613051
 30
0.0
 10
157.569428
 20
24.961370
 30
0.0
 10
157.986580
 20
25.223470
 30
0.0
 10
158.451570
 20
25.386171
 30
0.0
 10
158.941110
 20
25.441374
 30
0.0
 10
159.430655
 20
25.386171
 30
0.0
 10
159.895673
 20
25.223470
 30
0.0
 10
160.312797
 20
24.961370
 30
0.0
 10
160.661144
 20
24.613051
 30
0.0
 10
160.923244
 20
24.195870
 30
0.0
 10
160.923244
 20
24.195870
 30
0.0
 10
160.923244
 20
24.195870
 30
0.0
  0
LWPOLYLINE
  5
109
100
AcDbEntity
  8
0
 62
7
100
AcDbPolyline
 90
31
 70
1
 10
160.312797
 20
42.741364
 30
0.0
 10
159.895673
 20
42.479265
 30
0.0
 10
159.430655
 20
42.316563
 30
0.0
 10
158.941110
 20
42.261364
 30
0.0
 10
158.451570
 20
42.316563
 30
0.0
 10
157.986580
 20
42.479265
 30
0.0
 10
157.569428
 20
42.741364
 30
0.0
 10
157.221081
 20
43.089666
 30
0.0
 10
156.958981
 20
43.506765
 30
0.0
 10
156.796280
 20
43.971766
 30
0.0
 10
156.741134
 20
44.461365
 30
0.0
 10
156.796280
 20
44.950865
 30
0.0
 10
156.958981
 20
45.415866
 30
0.0
 10
157.221081
 20
45.833064
 30
0.0
 10
157.569428
 20
46.181365
 30
0.0
 10
157.986580
 20
46.443465
 30
0.0
 10
158.451570
 20
46.606166
 30
0.0
 10
158.941110
 20
46.661366
 30
0.0
 10
159.430655
 20
46.606166
 30
0.0
 10
159.895673
 20
46.443465
 30
0.0
 10
160.312797
 20
46.181365
 30
0.0
 10
160.661144
 20
45.833064
 30
0.0
 10
160.923244
 20
45.415866
 30
0.0
 10
161.085973
 20
44.950865
 30
0.0
 10
161.141116
 20
44.461365
 30
0.0
 10
161.085973
 20
43.971766
 30
0.0
 10
160.923244
 20
43.506765
 30
0.0
 10
160.661144
 20
43.089666
 30
0.0
 10
160.312797
 20
42.741364
 30
0.0
 10
160.312797
 20
42.741364
 30
0.0
 10
160.312797
 20
42.741364
 30
0.0
  0
LWPOLYLINE
  5
10a
100
AcDbEntity
  8
0
 62
7
100
AcDbPolyline
 90
31
 70
1
 10
161.141116
 20
339.821379
 30
0.0
 10
161.085973
 20
339.331356
 30
0.0
 10
160.923244
 20
338.866367
 30
0.0
 10
160.661144
 20
338.449355
 30
0.0
 10
160.312797
 20
338.101375
 30
0.0
 10
159.895673
 20
337.839360
 30
0.0
 10
159.430655
 20
337.676377
 30
0.0
 10
158.941110
 20
337.621372
 30
0.0
 10
158.451570
 20
337.676377
 30
0.0
 10
157.986580
 20
337.839360
 30
0.0
 10
157.569428
 20
338.101375
 30
0.0
 10
157.221081
 20
338.449355
 30
0.0
 10
156.958981
 20
338.866367
 30
0.0
 10
156.796280
 20
339.331356
 30
0.0
 10
156.741134
 20
339.821379
 30
0.0
 10
156.796280
 20
340.311373
 30
0.0
 10
156.958981
 20
340.776362
 30
0.0
 10
157.221081
 20
341.193374
 30
0.0
 10
157.569428
 20
341.541354
 30
0.0
 10
157.986580
 20
341.803369
 30
0.0
 10
158.451570
 20
341.966352
 30
0.0
 10
158.941110
 20
342.021357
 30
0.0
 10
159.430655
 20
341.966352
 30
0.0
 10
159.895673
 20
341.803369
 30
0.0
 10
160.312797
 20
341.541354
 30
0.0
 10
160.661144
 20
341.193374
 30
0.0
 10
160.923244
 20
340.776362
 30
0.0
 10
161.085973
 20
340.311373
 30
0.0
 10
161.141116
 20
339.821379
 30
0.0
 10
161.141116
 20
339.821379
 30
0.0
 10
161.141116
 20
339.821379
 30
0.0
  0
LWPOLYLINE
  5
10b
100
AcDbEntity
  8
0
 62
7
100
AcDbPolyline
 90
31
 70
1
 10
159.895673
 20
359.059367
 30
0.0
 10
159.430655
 20
358.896355
 30
0.0
 10
158.941110
 20
358.841378
 30
0.0
 10
158.451570
 20
358.896355
 30
0.0
 10
157.986580
 20
359.059367
 30
0.0
 10
157.569428
 20
359.321354
 30
0.0
 10
157.221081
 20
359.669362
 30
0.0
 10
156.958981
 20
360.086374
 30
0.0
 10
156.796280
 20
360.551363
 30
0.0
 10
156.741134
 20
361.041357
 30
0.0
 10
156.796280
 20
361.531351
 30
0.0
 10
156.958981
 20
361.996369
 30
0.0
 10
157.221081
 20
362.413352
 30
0.0
 10
157.569428
 20
362.761360
 30
0.0
 10
157.986580
 20
363.023376
 30
0.0
 10
158.451570
 20
363.186359
 30
0.0
 10
158.941110
 20
363.241364
 30
0.0
 10
159.430655
 20
363.186359
 30
0.0
 10
159.895673
 20
363.023376
 30
0.0
 10
160.312797
 20
362.761360
 30
0.0
 10
160.661144
 20
362.413352
 30
0.0
 10
160.923244
 20
361.996369
 30
0.0
 10
161.085973
 20
361.531351
 30
0.0
 10
161.141116
 20
361.041357
 30
0.0
 10
161.085973
 20
360.551363
 30
0.0
 10
160.923244
 20
360.086374
 30
0.0
 10
160.661144
 20
359.669362
 30
0.0
 10
160.312797
 20
359.321354
 30
0.0
 10
159.895673
 20
359.059367
 30
0.0
 10
159.895673
 20
359.059367
 30
0.0
 10
159.895673
 20
359.059367
 30
0.0
  0
LWPOLYLINE
  5
10c
100
AcDbEntity
  8
0
 62
7
100
AcDbPolyline
 90
36
 70
1
 10
336.141131
 20
0.141365
 30
0.0
 10
336.141131
 20
359.141352
 30
0.0
 10
336.046135
 20
361.320362
 30
0.0
 10
335.761147
 20
363.482354
 30
0.0
 10
335.289130
 20
365.611353
 30
0.0
 10
334.633133
 20
367.691359
 30
0.0
 10
333.799138
 20
369.706370
 30
0.0
 10
332.792141
 20
371.641370
 30
0.0
 10
331.620128
 20
373.480358
 30
0.0
 10
330.292131
 20
375.211368
 30
0.0
 10
328.819129
 20
376.819357
 30
0.0
 10
327.211140
 20
378.292360
 30
0.0
 10
325.480130
 20
379.620356
 30
0.0
 10
323.641141
 20
380.792369
 30
0.0
 10
321.706141
 20
381.799366
 30
0.0
 10
319.691103
 20
382.633361
 30
0.0
 10
317.611097
 20
383.289358
 30
0.0
 10
315.482097
 20
383.761375
 30
0.0
 10
313.320105
 20
384.046363
 30
0.0
 10
311.141096
 20
384.141359
 30
0.0
 10
170.141098
 20
384.141359
 30
0.0
 10
170.141098
 20
329.729818
 30
0.0
 10
170.141098
 20
0.141365
 30
0.0
 10
184.507426
 20
0.166200
 30
0.0
 10
184.473698
 20
8.175046
 30
0.0
 10
198.600842
 20
8.175046
 30
0.0
 10
198.600842
 20
0.190951
 30
0.0
 10
198.535959
 20
0.166116
 30
0.0
 10
258.010708
 20
0.145514
 30
0.0
 10
257.965694
 20
9.037715
 30
0.0
 10
276.213584
 20
9.037715
 30
0.0
 10
276.213584
 20
0.149719
 30
0.0
 10
276.256002
 20
0.145485
 30
0.0
 10
336.141131
 20
0.141252
 30
0.0
 10
336.141131
 20
0.141252
 30
0.0
 10
336.141131
 20
0.141365
 30
0.0
  0
LWPOLYLINE
  5
10d
100
AcDbEntity
  8
0
 62
7
100
AcDbPolyline
 90
31
 70
1
 10
176.386623
 20
25.223470
 30
0.0
 10
176.851499
 20
25.386171
 30
0.0
 10
177.341095
 20
25.441374
 30
0.0
 10
177.830613
 20
25.386171
 30
0.0
 10
178.295602
 20
25.223470
 30
0.0
 10
178.712811
 20
24.961370
 30
0.0
 10
179.061102
 20
24.613051
 30
0.0
 10
179.323198
 20
24.195870
 30
0.0
 10
179.485902
 20
23.730853
 30
0.0
 10
179.541105
 20
23.241367
 30
0.0
 10
179.485902
 20
22.751768
 30
0.0
 10
179.323198
 20
22.286778
 30
0.0
 10
179.061102
 20
21.869654
 30
0.0
 10
178.712811
 20
21.521363
 30
0.0
 10
178.295602
 20
21.259264
 30
0.0
 10
177.830613
 20
21.096562
 30
0.0
 10
177.341095
 20
21.041360
 30
0.0
 10
176.851499
 20
21.096562
 30
0.0
 10
176.386623
 20
21.259264
 30
0.0
 10
175.969414
 20
21.521363
 30
0.0
 10
175.621095
 20
21.869654
 30
0.0
 10
175.358967
 20
22.286778
 30
0.0
 10
175.196266
 20
22.751768
 30
0.0
 10
175.141088
 20
23.241367
 30
0.0
 10
175.196266
 20
23.730853
 30
0.0
 10
175.358967
 20
24.195870
 30
0.0
 10
175.621095
 20
24.613051
 30
0.0
 10
175.969414
 20
24.961370
 30
0.0
 10
176.386623
 20
25.223470
 30
0.0
 10
176.386623
 20
25.223470
 30
0.0
 10
176.386623
 20
25.223470
 30
0.0
  0
LWPOLYLINE
  5
10e
100
AcDbEntity
  8
0
 62
7
100
AcDbPolyline
 90
31
 70
1
 10
178.712811
 20
42.741364
 30
0.0
 10
178.295602
 20
42.479265
 30
0.0
 10
177.830613
 20
42.316563
 30
0.0
 10
177.341095
 20
42.261364
 30
0.0
 10
176.851499
 20
42.316563
 30
0.0
 10
176.386623
 20
42.479265
 30
0.0
 10
175.969414
 20
42.741364
 30
0.0
 10
175.621095
 20
43.089666
 30
0.0
 10
175.358967
 20
43.506765
 30
0.0
 10
175.196266
 20
43.971766
 30
0.0
 10
175.141088
 20
44.461365
 30
0.0
 10
175.196266
 20
44.950865
 30
0.0
 10
175.358967
 20
45.415866
 30
0.0
 10
175.621095
 20
45.833064
 30
0.0
 10
175.969414
 20
46.181365
 30
0.0
 10
176.386623
 20
46.443465
 30
0.0
 10
176.851499
 20
46.606166
 30
0.0
 10
177.341095
 20
46.661366
 30
0.0
 10
177.830613
 20
46.606166
 30
0.0
 10
178.295602
 20
46.443465
 30
0.0
 10
178.712811
 20
46.181365
 30
0.0
 10
179.061102
 20
45.833064
 30
0.0
 10
179.323198
 20
45.415866
 30
0.0
 10
179.485902
 20
44.950865
 30
0.0
 10
179.541105
 20
44.461365
 30
0.0
 10
179.485902
 20
43.971766
 30
0.0
 10
179.323198
 20
43.506765
 30
0.0
 10
179.061102
 20
43.089666
 30
0.0
 10
178.712811
 20
42.741364
 30
0.0
 10
178.712811
 20
42.741364
 30
0.0
 10
178.712811
 20
42.741364
 30
0.0
  0
LWPOLYLINE
  5
10f
100
AcDbEntity
  8
0
 62
7
100
AcDbPolyline
 90
31
 70
1
 10
179.485902
 20
340.311373
 30
0.0
 10
179.541105
 20
339.821379
 30
0.0
 10
179.485902
 20
339.331356
 30
0.0
 10
179.323198
 20
338.866367
 30
0.0
 10
179.061102
 20
338.449355
 30
0.0
 10
178.712811
 20
338.101375
 30
0.0
 10
178.295602
 20
337.839360
 30
0.0
 10
177.830613
 20
337.676377
 30
0.0
 10
177.341095
 20
337.621372
 30
0.0
 10
176.851499
 20
337.676377
 30
0.0
 10
176.386623
 20
337.839360
 30
0.0
 10
175.969414
 20
338.101375
 30
0.0
 10
175.621095
 20
338.449355
 30
0.0
 10
175.358967
 20
338.866367
 30
0.0
 10
175.196266
 20
339.331356
 30
0.0
 10
175.141088
 20
339.821379
 30
0.0
 10
175.196266
 20
340.311373
 30
0.0
 10
175.358967
 20
340.776362
 30
0.0
 10
175.621095
 20
341.193374
 30
0.0
 10
175.969414
 20
341.541354
 30
0.0
 10
176.386623
 20
341.803369
 30
0.0
 10
176.851499
 20
341.966352
 30
0.0
 10
177.341095
 20
342.021357
 30
0.0
 10
177.830613
 20
341.966352
 30
0.0
 10
178.295602
 20
341.803369
 30
0.0
 10
178.712811
 20
341.541354
 30
0.0
 10
179.061102
 20
341.193374
 30
0.0
 10
179.323198
 20
340.776362
 30
0.0
 10
179.485902
 20
340.311373
 30
0.0
 10
179.485902
 20
340.311373
 30
0.0
 10
179.485902
 20
340.311373
 30
0.0
  0
LWPOLYLINE
  5
110
100
AcDbEntity
  8
0
 62
7
100
AcDbPolyline
 90
31
 70
1
 10
175.358967
 20
360.086374
 30
0.0
 10
175.196266
 20
360.551363
 30
0.0
 10
175.141088
 20
361.041357
 30
0.0
 10
175.196266
 20
361.531351
 30
0.0
 10
175.358967
 20
361.996369
 30
0.0
 10
175.621095
 20
362.413352
 30
0.0
 10
175.969414
 20
362.761360
 30
0.0
 10
176.386623
 20
363.023376
 30
0.0
 10
176.851499
 20
363.186359
 30
0.0
 10
177.341095
 20
363.241364
 30
0.0
 10
177.830613
 20
363.186359
 30
0.0
 10
178.295602
 20
363.023376
 30
0.0
 10
178.712811
 20
362.761360
 30
0.0
 10
179.061102
 20
362.413352
 30
0.0
 10
179.323198
 20
361.996369
 30
0.0
 10
179.485902
 20
361.531351
 30
0.0
 10
179.541105
 20
361.041357
 30
0.0
 10
179.485902
 20
360.551363
 30
0.0
 10
179.323198
 20
360.086374
 30
0.0
 10
179.061102
 20
359.669362
 30
0.0
 10
178.712811
 20
359.321354
 30
0.0
 10
178.295602
 20
359.059367
 30
0.0
 10
177.830613
 20
358.896355
 30
0.0
 10
177.341095
 20
358.841378
 30
0.0
 10
176.851499
 20
358.896355
 30
0.0
 10
176.386623
 20
359.059367
 30
0.0
 10
175.969414
 20
359.321354
 30
0.0
 10
175.621095
 20
359.669362
 30
0.0
 10
175.358967
 20
360.086374
 30
0.0
 10
175.358967
 20
360.086374
 30
0.0
 10
175.358967
 20
360.086374
 30
0.0
  0
LWPOLYLINE
  5
111
100
AcDbEntity
  8
0
 62
7
100
AcDbPolyline
 90
31
 70
1
 10
238.130608
 20
49.186166
 30
0.0
 10
238.595597
 20
49.023465
 30
0.0
 10
239.012806
 20
48.761365
 30
0.0
 10
239.361125
 20
48.413066
 30
0.0
 10
239.623194
 20
47.995865
 30
0.0
 10
239.785898
 20
47.530865
 30
0.0
 10
239.841097
 20
47.041364
 30
0.0
 10
239.785898
 20
46.551765
 30
0.0
 10
239.623194
 20
46.086764
 30
0.0
 10
239.361125
 20
45.669665
 30
0.0
 10
239.012806
 20
45.321364
 30
0.0
 10
238.595597
 20
45.059264
 30
0.0
 10
238.130608
 20
44.896566
 30
0.0
 10
237.641122
 20
44.841366
 30
0.0
 10
237.151607
 20
44.896566
 30
0.0
 10
236.686618
 20
45.059264
 30
0.0
 10
236.269409
 20
45.321364
 30
0.0
 10
235.921118
 20
45.669665
 30
0.0
 10
235.659016
 20
46.086764
 30
0.0
 10
235.496202
 20
46.551765
 30
0.0
 10
235.441115
 20
47.041364
 30
0.0
 10
235.496202
 20
47.530865
 30
0.0
 10
235.659016
 20
47.995865
 30
0.0
 10
235.921118
 20
48.413066
 30
0.0
 10
236.269409
 20
48.761365
 30
0.0
 10
236.686618
 20
49.023465
 30
0.0
 10
237.151607
 20
49.186166
 30
0.0
 10
237.641122
 20
49.241365
 30
0.0
 10
238.130608
 20
49.186166
 30
0.0
 10
238.130608
 20
49.186166
 30
0.0
 10
238.130608
 20
49.186166
 30
0.0
  0
LWPOLYLINE
  5
112
100
AcDbEntity
  8
0
 62
7
100
AcDbPolyline
 90
31
 70
1
 10
235.659016
 20
196.086366
 30
0.0
 10
235.496202
 20
196.551366
 30
0.0
 10
235.441115
 20
197.041363
 30
0.0
 10
235.496202
 20
197.531366
 30
0.0
 10
235.659016
 20
197.996364
 30
0.0
 10
235.921118
 20
198.413364
 30
0.0
 10
236.269409
 20
198.761364
 30
0.0
 10
236.686618
 20
199.023365
 30
0.0
 10
237.151607
 20
199.186365
 30
0.0
 10
237.641122
 20
199.241365
 30
0.0
 10
238.130608
 20
199.186365
 30
0.0
 10
238.595597
 20
199.023365
 30
0.0
 10
239.012806
 20
198.761364
 30
0.0
 10
239.361125
 20
198.413364
 30
0.0
 10
239.623194
 20
197.996364
 30
0.0
 10
239.785898
 20
197.531366
 30
0.0
 10
239.841097
 20
197.041363
 30
0.0
 10
239.785898
 20
196.551366
 30
0.0
 10
239.623194
 20
196.086366
 30
0.0
 10
239.361125
 20
195.669365
 30
0.0
 10
239.012806
 20
195.321366
 30
0.0
 10
238.595597
 20
195.059365
 30
0.0
 10
238.130608
 20
194.896364
 30
0.0
 10
237.641122
 20
194.841365
 30
0.0
 10
237.151607
 20
194.896364
 30
0.0
 10
236.686618
 20
195.059365
 30
0.0
 10
236.269409
 20
195.321366
 30
0.0
 10
235.921118
 20
195.669365
 30
0.0
 10
235.659016
 20
196.086366
 30
0.0
 10
235.659016
 20
196.086366
 30
0.0
 10
235.659016
 20
196.086366
 30
0.0
  0
LWPOLYLINE
  5
113
100
AcDbEntity
  8
0
 62
7
100
AcDbPolyline
 90
31
 70
1
 10
285.921097
 20
45.669665
 30
0.0
 10
285.659110
 20
46.086764
 30
0.0
 10
285.496099
 20
46.551765
 30
0.0
 10
285.441094
 20
47.041364
 30
0.0
 10
285.496099
 20
47.530865
 30
0.0
 10
285.659110
 20
47.995865
 30
0.0
 10
285.921097
 20
48.413066
 30
0.0
 10
286.269105
 20
48.761365
 30
0.0
 10
286.686117
 20
49.023465
 30
0.0
 10
287.151106
 20
49.186166
 30
0.0
 10
287.641101
 20
49.241365
 30
0.0
 10
288.131095
 20
49.186166
 30
0.0
 10
288.596112
 20
49.023465
 30
0.0
 10
289.013096
 20
48.761365
 30
0.0
 10
289.361104
 20
48.413066
 30
0.0
 10
289.623119
 20
47.995865
 30
0.0
 10
289.786102
 20
47.530865
 30
0.0
 10
289.841107
 20
47.041364
 30
0.0
 10
289.786102
 20
46.551765
 30
0.0
 10
289.623119
 20
46.086764
 30
0.0
 10
289.361104
 20
45.669665
 30
0.0
 10
289.013096
 20
45.321364
 30
0.0
 10
288.596112
 20
45.059264
 30
0.0
 10
288.131095
 20
44.896566
 30
0.0
 10
287.641101
 20
44.841366
 30
0.0
 10
287.151106
 20
44.896566
 30
0.0
 10
286.686117
 20
45.059264
 30
0.0
 10
286.269105
 20
45.321364
 30
0.0
 10
285.921097
 20
45.669665
 30
0.0
 10
285.921097
 20
45.669665
 30
0.0
 10
285.921097
 20
45.669665
 30
0.0
  0
LWPOLYLINE
  5
114
100
AcDbEntity
  8
0
 62
7
100
AcDbPolyline
 90
31
 70
1
 10
289.623119
 20
196.086366
 30
0.0
 10
289.361104
 20
195.669365
 30
0.0
 10
289.013096
 20
195.321366
 30
0.0
 10
288.596112
 20
195.059365
 30
0.0
 10
288.131095
 20
194.896364
 30
0.0
 10
287.641101
 20
194.841365
 30
0.0
 10
287.151106
 20
194.896364
 30
0.0
 10
286.686117
 20
195.059365
 30
0.0
 10
286.269105
 20
195.321366
 30
0.0
 10
285.921097
 20
195.669365
 30
0.0
 10
285.659110
 20
196.086366
 30
0.0
 10
285.496099
 20
196.551366
 30
0.0
 10
285.441094
 20
197.041363
 30
0.0
 10
285.496099
 20
197.531366
 30
0.0
 10
285.659110
 20
197.996364
 30
0.0
 10
285.921097
 20
198.413364
 30
0.0
 10
286.269105
 20
198.761364
 30
0.0
 10
286.686117
 20
199.023365
 30
0.0
 10
287.151106
 20
199.186365
 30
0.0
 10
287.641101
 20
199.241365
 30
0.0
 10
288.131095
 20
199.186365
 30
0.0
 10
288.596112
 20
199.023365
 30
0.0
 10
289.013096
 20
198.761364
 30
0.0
 10
289.361104
 20
198.413364
 30
0.0
 10
289.623119
 20
197.996364
 30
0.0
 10
289.786102
 20
197.531366
 30
0.0
 10
289.841107
 20
197.041363
 30
0.0
 10
289.786102
 20
196.551366
 30
0.0
 10
289.623119
 20
196.086366
 30
0.0
 10
289.623119
 20
196.086366
 30
0.0
 10
289.623119
 20
196.086366
 30
0.0
  0
LWPOLYLINE
  5
115
100
AcDbEntity
  8
0
 62
7
100
AcDbPolyline
 90
31
 70
1
 10
304.239097
 20
8.295894
 30
0.0
 10
304.501113
 20
8.713046
 30
0.0
 10
304.849093
 20
9.061393
 30
0.0
 10
305.266104
 20
9.323493
 30
0.0
 10
305.731093
 20
9.486194
 30
0.0
 10
306.221116
 20
9.541369
 30
0.0
 10
306.711110
 20
9.486194
 30
0.0
 10
307.176099
 20
9.323493
 30
0.0
 10
307.593111
 20
9.061393
 30
0.0
 10
307.941119
 20
8.713046
 30
0.0
 10
308.203106
 20
8.295894
 30
0.0
 10
308.366118
 20
7.830904
 30
0.0
 10
308.421095
 20
7.341362
 30
0.0
 10
308.366118
 20
6.851819
 30
0.0
 10
308.203106
 20
6.386802
 30
0.0
 10
307.941119
 20
5.969677
 30
0.0
 10
307.593111
 20
5.621330
 30
0.0
 10
307.176099
 20
5.359230
 30
0.0
 10
306.711110
 20
5.196501
 30
0.0
 10
306.221116
 20
5.141355
 30
0.0
 10
305.731093
 20
5.196501
 30
0.0
 10
305.266104
 20
5.359230
 30
0.0
 10
304.849093
 20
5.621330
 30
0.0
 10
304.501113
 20
5.969677
 30
0.0
 10
304.239097
 20
6.386802
 30
0.0
 10
304.076114
 20
6.851819
 30
0.0
 10
304.021109
 20
7.341362
 30
0.0
 10
304.076114
 20
7.830904
 30
0.0
 10
304.239097
 20
8.295894
 30
0.0
 10
304.239097
 20
8.295894
 30
0.0
 10
304.239097
 20
8.295894
 30
0.0
  0
LWPOLYLINE
  5
116
100
AcDbEntity
  8
0
 62
7
100
AcDbPolyline
 90
31
 70
1
 10
325.459132
 20
8.295894
 30
0.0
 10
325.721147
 20
8.713046
 30
0.0
 10
326.069127
 20
9.061393
 30
0.0
 10
326.486139
 20
9.323493
 30
0.0
 10
326.951128
 20
9.486194
 30
0.0
 10
327.441123
 20
9.541369
 30
0.0
 10
327.931145
 20
9.486194
 30
0.0
 10
328.396134
 20
9.323493
 30
0.0
 10
328.813146
 20
9.061393
 30
0.0
 10
329.161126
 20
8.713046
 30
0.0
 10
329.423141
 20
8.295894
 30
0.0
 10
329.586124
 20
7.830904
 30
0.0
 10
329.641129
 20
7.341362
 30
0.0
 10
329.586124
 20
6.851819
 30
0.0
 10
329.423141
 20
6.386802
 30
0.0
 10
329.161126
 20
5.969677
 30
0.0
 10
328.813146
 20
5.621330
 30
0.0
 10
328.396134
 20
5.359230
 30
0.0
 10
327.931145
 20
5.196501
 30
0.0
 10
327.441123
 20
5.141355
 30
0.0
 10
326.951128
 20
5.196501
 30
0.0
 10
326.486139
 20
5.359230
 30
0.0
 10
326.069099
 20
5.621330
 30
0.0
 10
325.721119
 20
5.969677
 30
0.0
 10
325.459104
 20
6.386802
 30
0.0
 10
325.296121
 20
6.851819
 30
0.0
 10
325.241144
 20
7.341362
 30
0.0
 10
325.296121
 20
7.830904
 30
0.0
 10
325.459104
 20
8.295894
 30
0.0
 10
325.459104
 20
8.295894
 30
0.0
 10
325.459132
 20
8.295894
 30
0.0
  0
LWPOLYLINE
  5
117
100
AcDbEntity
  8
0
 62
7
100
AcDbPolyline
 90
20
 70
0
 10
194.880890
 20
43.542954
 30
0.0
 10
194.388878
 20
43.583894
 30
0.0
 10
193.936868
 20
43.781613
 30
0.0
 10
193.572858
 20
44.116137
 30
0.0
 10
193.337855
 20
44.549517
 30
0.0
 10
193.256854
 20
45.035823
 30
0.0
 10
193.337855
 20
45.522131
 30
0.0
 10
193.572858
 20
45.955511
 30
0.0
 10
193.936868
 20
46.290035
 30
0.0
 10
194.388878
 20
46.487754
 30
0.0
 10
194.880890
 20
46.528693
 30
0.0
 10
195.359898
 20
46.407868
 30
0.0
 10
195.772910
 20
46.138250
 30
0.0
 10
196.075915
 20
45.748806
 30
0.0
 10
196.236917
 20
45.282473
 30
0.0
 10
196.236917
 20
44.789174
 30
0.0
 10
196.075915
 20
44.322842
 30
0.0
 10
195.772910
 20
43.933398
 30
0.0
 10
195.359898
 20
43.663782
 30
0.0
 10
194.880890
 20
43.542954
 30
0.0
  0
LWPOLYLINE
  5
118
100
AcDbEntity
  8
0
 62
7
100
AcDbPolyline
 90
20
 70
0
 10
189.080761
 20
43.542954
 30
0.0
 10
188.588749
 20
43.583894
 30
0.0
 10
188.136742
 20
43.781613
 30
0.0
 10
187.772731
 20
44.116137
 30
0.0
 10
187.537728
 20
44.549517
 30
0.0
 10
187.456724
 20
45.035823
 30
0.0
 10
187.537728
 20
45.522131
 30
0.0
 10
187.772731
 20
45.955511
 30
0.0
 10
188.136742
 20
46.290035
 30
0.0
 10
188.588749
 20
46.487754
 30
0.0
 10
189.080761
 20
46.528693
 30
0.0
 10
189.559771
 20
46.407868
 30
0.0
 10
189.972781
 20
46.138250
 30
0.0
 10
190.275786
 20
45.748806
 30
0.0
 10
190.436791
 20
45.282473
 30
0.0
 10
190.436791
 20
44.789174
 30
0.0
 10
190.275786
 20
44.322842
 30
0.0
 10
189.972781
 20
43.933398
 30
0.0
 10
189.559771
 20
43.663782
 30
0.0
 10
189.080761
 20
43.542954
 30
0.0
  0
LWPOLYLINE
  5
119
100
AcDbEntity
  8
0
 62
7
100
AcDbPolyline
 90
20
 70
0
 10
194.880885
 20
193.341543
 30
0.0
 10
194.388873
 20
193.382485
 30
0.0
 10
193.936863
 20
193.580204
 30
0.0
 10
193.572855
 20
193.914728
 30
0.0
 10
193.337849
 20
194.348108
 30
0.0
 10
193.256848
 20
194.834414
 30
0.0
 10
193.337849
 20
195.320722
 30
0.0
 10
193.572855
 20
195.754103
 30
0.0
 10
193.936863
 20
196.088626
 30
0.0
 10
194.388873
 20
196.286343
 30
0.0
 10
194.880885
 20
196.327285
 30
0.0
 10
195.359892
 20
196.206457
 30
0.0
 10
195.772905
 20
195.936842
 30
0.0
 10
196.075910
 20
195.547397
 30
0.0
 10
196.236912
 20
195.081062
 30
0.0
 10
196.236912
 20
194.587766
 30
0.0
 10
196.075910
 20
194.121433
 30
0.0
 10
195.772905
 20
193.731986
 30
0.0
 10
195.359892
 20
193.462371
 30
0.0
 10
194.880885
 20
193.341543
 30
0.0
  0
LWPOLYLINE
  5
11a
100
AcDbEntity
  8
0
 62
7
100
AcDbPolyline
 90
20
 70
0
 10
189.080755
 20
193.341543
 30
0.0
 10
188.588743
 20
193.382485
 30
0.0
 10
188.136736
 20
193.580204
 30
0.0
 10
187.772726
 20
193.914728
 30
0.0
 10
187.537722
 20
194.348108
 30
0.0
 10
187.456719
 20
194.834414
 30
0.0
 10
187.537722
 20
195.320722
 30
0.0
 10
187.772726
 20
195.754103
 30
0.0
 10
188.136736
 20
196.088626
 30
0.0
 10
188.588743
 20
196.286343
 30
0.0
 10
189.080755
 20
196.327285
 30
0.0
 10
189.559765
 20
196.206457
 30
0.0
 10
189.972775
 20
195.936842
 30
0.0
 10
190.275780
 20
195.547397
 30
0.0
 10
190.436785
 20
195.081062
 30
0.0
 10
190.436785
 20
194.587766
 30
0.0
 10
190.275780
 20
194.121433
 30
0.0
 10
189.972775
 20
193.731986
 30
0.0
 10
189.559765
 20
193.462371
 30
0.0
 10
189.080755
 20
193.341543
 30
0.0
  0
LWPOLYLINE
  5
11b
100
AcDbEntity
  8
0
 62
7
100
AcDbPolyline
 90
20
 70
0
 10
194.880885
 20
263.247364
 30
0.0
 10
194.388873
 20
263.288306
 30
0.0
 10
193.936863
 20
263.486025
 30
0.0
 10
193.572855
 20
263.820546
 30
0.0
 10
193.337849
 20
264.253929
 30
0.0
 10
193.256848
 20
264.740235
 30
0.0
 10
193.337849
 20
265.226543
 30
0.0
 10
193.572855
 20
265.659923
 30
0.0
 10
193.936863
 20
265.994447
 30
0.0
 10
194.388873
 20
266.192166
 30
0.0
 10
194.880885
 20
266.233105
 30
0.0
 10
195.359892
 20
266.112278
 30
0.0
 10
195.772905
 20
265.842662
 30
0.0
 10
196.075910
 20
265.453218
 30
0.0
 10
196.236912
 20
264.986883
 30
0.0
 10
196.236912
 20
264.493586
 30
0.0
 10
196.075910
 20
264.027254
 30
0.0
 10
195.772905
 20
263.637807
 30
0.0
 10
195.359892
 20
263.368191
 30
0.0
 10
194.880885
 20
263.247364
 30
0.0
  0
LWPOLYLINE
  5
11c
100
AcDbEntity
  8
0
 62
7
100
AcDbPolyline
 90
20
 70
0
 10
189.080755
 20
263.247364
 30
0.0
 10
188.588743
 20
263.288306
 30
0.0
 10
188.136736
 20
263.486025
 30
0.0
 10
187.772726
 20
263.820546
 30
0.0
 10
187.537722
 20
264.253929
 30
0.0
 10
187.456719
 20
264.740235
 30
0.0
 10
187.537722
 20
265.226543
 30
0.0
 10
187.772726
 20
265.659923
 30
0.0
 10
188.136736
 20
265.994447
 30
0.0
 10
188.588743
 20
266.192166
 30
0.0
 10
189.080755
 20
266.233105
 30
0.0
 10
189.559765
 20
266.112278
 30
0.0
 10
189.972775
 20
265.842662
 30
0.0
 10
190.275780
 20
265.453218
 30
0.0
 10
190.436785
 20
264.986883
 30
0.0
 10
190.436785
 20
264.493586
 30
0.0
 10
190.275780
 20
264.027254
 30
0.0
 10
189.972775
 20
263.637807
 30
0.0
 10
189.559765
 20
263.368191
 30
0.0
 10
189.080755
 20
263.247364
 30
0.0
  0
LWPOLYLINE
  5
11d
100
AcDbEntity
  8
0
 62
7
100
AcDbPolyline
 90
20
 70
0
 10
329.795336
 20
43.566052
 30
0.0
 10
329.303309
 20
43.606994
 30
0.0
 10
328.851302
 20
43.804710
 30
0.0
 10
328.487292
 20
44.139234
 30
0.0
 10
328.252314
 20
44.572617
 30
0.0
 10
328.171288
 20
45.058922
 30
0.0
 10
328.252314
 20
45.545228
 30
0.0
 10
328.487292
 20
45.978611
 30
0.0
 10
328.851302
 20
46.313135
 30
0.0
 10
329.303309
 20
46.510851
 30
0.0
 10
329.795336
 20
46.551793
 30
0.0
 10
330.274351
 20
46.430966
 30
0.0
 10
330.687355
 20
46.161350
 30
0.0
 10
330.990349
 20
45.771903
 30
0.0
 10
331.151357
 20
45.305571
 30
0.0
 10
331.151357
 20
44.812274
 30
0.0
 10
330.990349
 20
44.345939
 30
0.0
 10
330.687355
 20
43.956495
 30
0.0
 10
330.274351
 20
43.686879
 30
0.0
 10
329.795336
 20
43.566052
 30
0.0
  0
LWPOLYLINE
  5
11e
100
AcDbEntity
  8
0
 62
7
100
AcDbPolyline
 90
20
 70
0
 10
323.995189
 20
43.566052
 30
0.0
 10
323.503191
 20
43.606994
 30
0.0
 10
323.051184
 20
43.804710
 30
0.0
 10
322.687174
 20
44.139234
 30
0.0
 10
322.452167
 20
44.572617
 30
0.0
 10
322.371170
 20
45.058922
 30
0.0
 10
322.452167
 20
45.545228
 30
0.0
 10
322.687174
 20
45.978611
 30
0.0
 10
323.051184
 20
46.313135
 30
0.0
 10
323.503191
 20
46.510851
 30
0.0
 10
323.995189
 20
46.551793
 30
0.0
 10
324.474205
 20
46.430966
 30
0.0
 10
324.887209
 20
46.161350
 30
0.0
 10
325.190231
 20
45.771903
 30
0.0
 10
325.351211
 20
45.305571
 30
0.0
 10
325.351211
 20
44.812274
 30
0.0
 10
325.190231
 20
44.345939
 30
0.0
 10
324.887209
 20
43.956495
 30
0.0
 10
324.474205
 20
43.686879
 30
0.0
 10
323.995189
 20
43.566052
 30
0.0
  0
LWPOLYLINE
  5
11f
100
AcDbEntity
  8
0
 62
7
100
AcDbPolyline
 90
20
 70
0
 10
329.795336
 20
193.364643
 30
0.0
 10
329.303309
 20
193.405585
 30
0.0
 10
328.851302
 20
193.603301
 30
0.0
 10
328.487292
 20
193.937825
 30
0.0
 10
328.252286
 20
194.371205
 30
0.0
 10
328.171288
 20
194.857514
 30
0.0
 10
328.252286
 20
195.343819
 30
0.0
 10
328.487292
 20
195.777200
 30
0.0
 10
328.851302
 20
196.111723
 30
0.0
 10
329.303309
 20
196.309443
 30
0.0
 10
329.795336
 20
196.350385
 30
0.0
 10
330.274351
 20
196.229557
 30
0.0
 10
330.687355
 20
195.959941
 30
0.0
 10
330.990349
 20
195.570495
 30
0.0
 10
331.151357
 20
195.104162
 30
0.0
 10
331.151357
 20
194.610866
 30
0.0
 10
330.990349
 20
194.144530
 30
0.0
 10
330.687355
 20
193.755086
 30
0.0
 10
330.274351
 20
193.485471
 30
0.0
 10
329.795336
 20
193.364643
 30
0.0
  0
LWPOLYLINE
  5
120
100
AcDbEntity
  8
0
 62
7
100
AcDbPolyline
 90
20
 70
0
 10
323.995189
 20
193.364643
 30
0.0
 10
323.503163
 20
193.405585
 30
0.0
 10
323.051156
 20
193.603301
 30
0.0
 10
322.687146
 20
193.937825
 30
0.0
 10
322.452167
 20
194.371205
 30
0.0
 10
322.371141
 20
194.857514
 30
0.0
 10
322.452167
 20
195.343819
 30
0.0
 10
322.687146
 20
195.777200
 30
0.0
 10
323.051156
 20
196.111723
 30
0.0
 10
323.503163
 20
196.309443
 30
0.0
 10
323.995189
 20
196.350385
 30
0.0
 10
324.474205
 20
196.229557
 30
0.0
 10
324.887209
 20
195.959941
 30
0.0
 10
325.190203
 20
195.570495
 30
0.0
 10
325.351211
 20
195.104162
 30
0.0
 10
325.351211
 20
194.610866
 30
0.0
 10
325.190203
 20
194.144530
 30
0.0
 10
324.887209
 20
193.755086
 30
0.0
 10
324.474205
 20
193.485471
 30
0.0
 10
323.995189
 20
193.364643
 30
0.0
  0
LWPOLYLINE
  5
121
100
AcDbEntity
  8
0
 62
7
100
AcDbPolyline
 90
20
 70
0
 10
329.795336
 20
263.270464
 30
0.0
 10
329.303309
 20
263.311406
 30
0.0
 10
328.851302
 20
263.509122
 30
0.0
 10
328.487292
 20
263.843646
 30
0.0
 10
328.252286
 20
264.277026
 30
0.0
 10
328.171288
 20
264.763334
 30
0.0
 10
328.252286
 20
265.249640
 30
0.0
 10
328.487292
 20
265.683020
 30
0.0
 10
328.851302
 20
266.017544
 30
0.0
 10
329.303309
 20
266.215263
 30
0.0
 10
329.795336
 20
266.256205
 30
0.0
 10
330.274351
 20
266.135378
 30
0.0
 10
330.687355
 20
265.865762
 30
0.0
 10
330.990349
 20
265.476318
 30
0.0
 10
331.151357
 20
265.009983
 30
0.0
 10
331.151357
 20
264.516686
 30
0.0
 10
330.990349
 20
264.050351
 30
0.0
 10
330.687355
 20
263.660907
 30
0.0
 10
330.274351
 20
263.391291
 30
0.0
 10
329.795336
 20
263.270464
 30
0.0
  0
LWPOLYLINE
  5
122
100
AcDbEntity
  8
0
 62
7
100
AcDbPolyline
 90
20
 70
0
 10
323.995189
 20
263.270464
 30
0.0
 10
323.503163
 20
263.311406
 30
0.0
 10
323.051156
 20
263.509122
 30
0.0
 10
322.687146
 20
263.843646
 30
0.0
 10
322.452167
 20
264.277026
 30
0.0
 10
322.371141
 20
264.763334
 30
0.0
 10
322.452167
 20
265.249640
 30
0.0
 10
322.687146
 20
265.683020
 30
0.0
 10
323.051156
 20
266.017544
 30
0.0
 10
323.503163
 20
266.215263
 30
0.0
 10
323.995189
 20
266.256205
 30
0.0
 10
324.474205
 20
266.135378
 30
0.0
 10
324.887209
 20
265.865762
 30
0.0
 10
325.190203
 20
265.476318
 30
0.0
 10
325.351211
 20
265.009983
 30
0.0
 10
325.351211
 20
264.516686
 30
0.0
 10
325.190203
 20
264.050351
 30
0.0
 10
324.887209
 20
263.660907
 30
0.0
 10
324.474205
 20
263.391291
 30
0.0
 10
323.995189
 20
263.270464
 30
0.0
  0
LWPOLYLINE
  5
123
100
AcDbEntity
  8
0
 62
7
100
AcDbPolyline
 90
5
 70
1
 10
220.334482
 20
381.968251
 30
0.0
 10
300.334482
 20
381.968251
 30
0.0
 10
300.334482
 20
301.968250
 30
0.0
 10
220.334482
 20
301.968250
 30
0.0
 10
220.334482
 20
381.968251
 30
0.0
  0
LWPOLYLINE
  5
124
100
AcDbEntity
  8
0
 62
7
100
AcDbPolyline
 90
5
 70
1
 10
204.978675
 20
229.826264
 30
0.0
 10
317.311645
 20
229.826264
 30
0.0
 10
317.311645
 20
14.493293
 30
0.0
 10
204.978675
 20
14.493293
 30
0.0
 10
204.978675
 20
229.826264
 30
0.0
  0
LWPOLYLINE
  5
125
100
AcDbEntity
  8
0
 62
7
100
AcDbPolyline
 90
5
 70
1
 10
266.953196
 20
292.535779
 30
0.0
 10
316.953197
 20
292.535779
 30
0.0
 10
316.953197
 20
242.535778
 30
0.0
 10
266.953196
 20
242.535778
 30
0.0
 10
266.953196
 20
292.535779
 30
0.0
  0
LWPOLYLINE
  5
126
100
AcDbEntity
  8
0
 62
7
100
AcDbPolyline
 90
5
 70
1
 10
204.665549
 20
292.776788
 30
0.0
 10
254.665551
 20
292.776788
 30
0.0
 10
254.665551
 20
242.776787
 30
0.0
 10
204.665549
 20
242.776787
 30
0.0
 10
204.665549
 20
292.776788
 30
0.0
  0
LWPOLYLINE
  5
127
100
AcDbEntity
  8
0
 62
7
100
AcDbPolyline
 90
20
 70
0
 10
194.876433
 20
119.973493
 30
0.0
 10
194.384421
 20
120.014435
 30
0.0
 10
193.932411
 20
120.212155
 30
0.0
 10
193.568403
 20
120.546678
 30
0.0
 10
193.333397
 20
120.980059
 30
0.0
 10
193.252396
 20
121.466364
 30
0.0
 10
193.333397
 20
121.952673
 30
0.0
 10
193.568403
 20
122.386053
 30
0.0
 10
193.932411
 20
122.720577
 30
0.0
 10
194.384421
 20
122.918293
 30
0.0
 10
194.876433
 20
122.959235
 30
0.0
 10
195.355440
 20
122.838407
 30
0.0
 10
195.768453
 20
122.568792
 30
0.0
 10
196.071458
 20
122.179348
 30
0.0
 10
196.232460
 20
121.713012
 30
0.0
 10
196.232460
 20
121.219716
 30
0.0
 10
196.071458
 20
120.753383
 30
0.0
 10
195.768453
 20
120.363937
 30
0.0
 10
195.355440
 20
120.094321
 30
0.0
 10
194.876433
 20
119.973493
 30
0.0
  0
LWPOLYLINE
  5
128
100
AcDbEntity
  8
0
 62
7
100
AcDbPolyline
 90
20
 70
0
 10
189.076303
 20
119.973493
 30
0.0
 10
188.584291
 20
120.014435
 30
0.0
 10
188.132284
 20
120.212155
 30
0.0
 10
187.768274
 20
120.546678
 30
0.0
 10
187.533270
 20
120.980059
 30
0.0
 10
187.452267
 20
121.466364
 30
0.0
 10
187.533270
 20
121.952673
 30
0.0
 10
187.768274
 20
122.386053
 30
0.0
 10
188.132284
 20
122.720577
 30
0.0
 10
188.584291
 20
122.918293
 30
0.0
 10
189.076303
 20
122.959235
 30
0.0
 10
189.555313
 20
122.838407
 30
0.0
 10
189.968323
 20
122.568792
 30
0.0
 10
190.271328
 20
122.179348
 30
0.0
 10
190.432333
 20
121.713012
 30
0.0
 10
190.432333
 20
121.219716
 30
0.0
 10
190.271328
 20
120.753383
 30
0.0
 10
189.968323
 20
120.363937
 30
0.0
 10
189.555313
 20
120.094321
 30
0.0
 10
189.076303
 20
119.973493
 30
0.0
  0
LWPOLYLINE
  5
129
100
AcDbEntity
  8
0
 62
7
100
AcDbPolyline
 90
20
 70
0
 10
329.769439
 20
119.980625
 30
0.0
 10
329.277427
 20
120.021567
 30
0.0
 10
328.825417
 20
120.219286
 30
0.0
 10
328.461410
 20
120.553810
 30
0.0
 10
328.226403
 20
120.987190
 30
0.0
 10
328.145402
 20
121.473496
 30
0.0
 10
328.226403
 20
121.959804
 30
0.0
 10
328.461410
 20
122.393185
 30
0.0
 10
328.825417
 20
122.727708
 30
0.0
 10
329.277427
 20
122.925425
 30
0.0
 10
329.769439
 20
122.966367
 30
0.0
 10
330.248446
 20
122.845539
 30
0.0
 10
330.661459
 20
122.575924
 30
0.0
 10
330.964464
 20
122.186480
 30
0.0
 10
331.125466
 20
121.720144
 30
0.0
 10
331.125466
 20
121.226848
 30
0.0
 10
330.964464
 20
120.760515
 30
0.0
 10
330.661459
 20
120.371068
 30
0.0
 10
330.248446
 20
120.101453
 30
0.0
 10
329.769439
 20
119.980625
 30
0.0
  0
LWPOLYLINE
  5
12a
100
AcDbEntity
  8
0
 62
7
100
AcDbPolyline
 90
20
 70
0
 10
323.969309
 20
119.980625
 30
0.0
 10
323.477297
 20
120.021567
 30
0.0
 10
323.025290
 20
120.219286
 30
0.0
 10
322.661280
 20
120.553810
 30
0.0
 10
322.426276
 20
120.987190
 30
0.0
 10
322.345273
 20
121.473496
 30
0.0
 10
322.426276
 20
121.959804
 30
0.0
 10
322.661280
 20
122.393185
 30
0.0
 10
323.025290
 20
122.727708
 30
0.0
 10
323.477297
 20
122.925425
 30
0.0
 10
323.969309
 20
122.966367
 30
0.0
 10
324.448320
 20
122.845539
 30
0.0
 10
324.861329
 20
122.575924
 30
0.0
 10
325.164334
 20
122.186480
 30
0.0
 10
325.325339
 20
121.720144
 30
0.0
 10
325.325339
 20
121.226848
 30
0.0
 10
325.164334
 20
120.760515
 30
0.0
 10
324.861329
 20
120.371068
 30
0.0
 10
324.448320
 20
120.101453
 30
0.0
 10
323.969309
 20
119.980625
 30
0.0
  0
LWPOLYLINE
  5
12b
100
AcDbEntity
  8
0
 62
7
100
AcDbPolyline
 90
20
 70
0
 10
194.888448
 20
319.685757
 30
0.0
 10
194.396436
 20
319.726699
 30
0.0
 10
193.944426
 20
319.924418
 30
0.0
 10
193.580419
 20
320.258942
 30
0.0
 10
193.345412
 20
320.692323
 30
0.0
 10
193.264411
 20
321.178628
 30
0.0
 10
193.345412
 20
321.664937
 30
0.0
 10
193.580419
 20
322.098317
 30
0.0
 10
193.944426
 20
322.432841
 30
0.0
 10
194.396436
 20
322.630557
 30
0.0
 10
194.888448
 20
322.671499
 30
0.0
 10
195.367455
 20
322.550671
 30
0.0
 10
195.780468
 20
322.281056
 30
0.0
 10
196.083473
 20
321.891612
 30
0.0
 10
196.244475
 20
321.425276
 30
0.0
 10
196.244475
 20
320.931980
 30
0.0
 10
196.083473
 20
320.465647
 30
0.0
 10
195.780468
 20
320.076200
 30
0.0
 10
195.367455
 20
319.806585
 30
0.0
 10
194.888448
 20
319.685757
 30
0.0
  0
LWPOLYLINE
  5
12c
100
AcDbEntity
  8
0
 62
7
100
AcDbPolyline
 90
20
 70
0
 10
189.088318
 20
319.685757
 30
0.0
 10
188.596306
 20
319.726699
 30
0.0
 10
188.144299
 20
319.924418
 30
0.0
 10
187.780289
 20
320.258942
 30
0.0
 10
187.545285
 20
320.692323
 30
0.0
 10
187.464282
 20
321.178628
 30
0.0
 10
187.545285
 20
321.664937
 30
0.0
 10
187.780289
 20
322.098317
 30
0.0
 10
188.144299
 20
322.432841
 30
0.0
 10
188.596306
 20
322.630557
 30
0.0
 10
189.088318
 20
322.671499
 30
0.0
 10
189.567329
 20
322.550671
 30
0.0
 10
189.980338
 20
322.281056
 30
0.0
 10
190.283343
 20
321.891612
 30
0.0
 10
190.444348
 20
321.425276
 30
0.0
 10
190.444348
 20
320.931980
 30
0.0
 10
190.283343
 20
320.465647
 30
0.0
 10
189.980338
 20
320.076200
 30
0.0
 10
189.567329
 20
319.806585
 30
0.0
 10
189.088318
 20
319.685757
 30
0.0
  0
LWPOLYLINE
  5
12d
100
AcDbEntity
  8
0
 62
7
100
AcDbPolyline
 90
20
 70
0
 10
329.799696
 20
319.685625
 30
0.0
 10
329.307684
 20
319.726567
 30
0.0
 10
328.855674
 20
319.924286
 30
0.0
 10
328.491667
 20
320.258809
 30
0.0
 10
328.256660
 20
320.692190
 30
0.0
 10
328.175660
 20
321.178496
 30
0.0
 10
328.256660
 20
321.664804
 30
0.0
 10
328.491667
 20
322.098184
 30
0.0
 10
328.855674
 20
322.432708
 30
0.0
 10
329.307684
 20
322.630424
 30
0.0
 10
329.799696
 20
322.671366
 30
0.0
 10
330.278703
 20
322.550539
 30
0.0
 10
330.691716
 20
322.280923
 30
0.0
 10
330.994721
 20
321.891479
 30
0.0
 10
331.155723
 20
321.425144
 30
0.0
 10
331.155723
 20
320.931847
 30
0.0
 10
330.994721
 20
320.465515
 30
0.0
 10
330.691716
 20
320.076068
 30
0.0
 10
330.278703
 20
319.806452
 30
0.0
 10
329.799696
 20
319.685625
 30
0.0
  0
LWPOLYLINE
  5
12e
100
AcDbEntity
  8
0
 62
7
100
AcDbPolyline
 90
20
 70
0
 10
323.999566
 20
319.685625
 30
0.0
 10
323.507554
 20
319.726567
 30
0.0
 10
323.055547
 20
319.924286
 30
0.0
 10
322.691537
 20
320.258809
 30
0.0
 10
322.456533
 20
320.692190
 30
0.0
 10
322.375530
 20
321.178496
 30
0.0
 10
322.456533
 20
321.664804
 30
0.0
 10
322.691537
 20
322.098184
 30
0.0
 10
323.055547
 20
322.432708
 30
0.0
 10
323.507554
 20
322.630424
 30
0.0
 10
323.999566
 20
322.671366
 30
0.0
 10
324.478577
 20
322.550539
 30
0.0
 10
324.891586
 20
322.280923
 30
0.0
 10
325.194591
 20
321.891479
 30
0.0
 10
325.355596
 20
321.425144
 30
0.0
 10
325.355596
 20
320.931847
 30
0.0
 10
325.194591
 20
320.465515
 30
0.0
 10
324.891586
 20
320.076068
 30
0.0
 10
324.478577
 20
319.806452
 30
0.0
 10
323.999566
 20
319.685625
 30
0.0
  0
LWPOLYLINE
  5
12f
100
AcDbEntity
  8
0
 62
7
100
AcDbPolyline
 90
20
 70
0
 10
194.888516
 20
370.494269
 30
0.0
 10
194.396504
 20
370.535211
 30
0.0
 10
193.944494
 20
370.732930
 30
0.0
 10
193.580487
 20
371.067454
 30
0.0
 10
193.345480
 20
371.500834
 30
0.0
 10
193.264480
 20
371.987140
 30
0.0
 10
193.345480
 20
372.473448
 30
0.0
 10
193.580487
 20
372.906829
 30
0.0
 10
193.944494
 20
373.241352
 30
0.0
 10
194.396504
 20
373.439069
 30
0.0
 10
194.888516
 20
373.480011
 30
0.0
 10
195.367524
 20
373.359183
 30
0.0
 10
195.780536
 20
373.089568
 30
0.0
 10
196.083541
 20
372.700124
 30
0.0
 10
196.244543
 20
372.233788
 30
0.0
 10
196.244543
 20
371.740492
 30
0.0
 10
196.083541
 20
371.274159
 30
0.0
 10
195.780536
 20
370.884712
 30
0.0
 10
195.367524
 20
370.615097
 30
0.0
 10
194.888516
 20
370.494269
 30
0.0
  0
LWPOLYLINE
  5
130
100
AcDbEntity
  8
0
 62
7
100
AcDbPolyline
 90
20
 70
0
 10
189.088387
 20
370.494269
 30
0.0
 10
188.596375
 20
370.535211
 30
0.0
 10
188.144368
 20
370.732930
 30
0.0
 10
187.780357
 20
371.067454
 30
0.0
 10
187.545354
 20
371.500834
 30
0.0
 10
187.464350
 20
371.987140
 30
0.0
 10
187.545354
 20
372.473448
 30
0.0
 10
187.780357
 20
372.906829
 30
0.0
 10
188.144368
 20
373.241352
 30
0.0
 10
188.596375
 20
373.439069
 30
0.0
 10
189.088387
 20
373.480011
 30
0.0
 10
189.567397
 20
373.359183
 30
0.0
 10
189.980407
 20
373.089568
 30
0.0
 10
190.283412
 20
372.700124
 30
0.0
 10
190.444417
 20
372.233788
 30
0.0
 10
190.444417
 20
371.740492
 30
0.0
 10
190.283412
 20
371.274159
 30
0.0
 10
189.980407
 20
370.884712
 30
0.0
 10
189.567397
 20
370.615097
 30
0.0
 10
189.088387
 20
370.494269
 30
0.0
  0
LWPOLYLINE
  5
131
100
AcDbEntity
  8
0
 62
7
100
AcDbPolyline
 90
20
 70
0
 10
318.510883
 20
370.494136
 30
0.0
 10
318.018871
 20
370.535078
 30
0.0
 10
317.566861
 20
370.732798
 30
0.0
 10
317.202854
 20
371.067321
 30
0.0
 10
316.967847
 20
371.500702
 30
0.0
 10
316.886847
 20
371.987007
 30
0.0
 10
316.967847
 20
372.473316
 30
0.0
 10
317.202854
 20
372.906696
 30
0.0
 10
317.566861
 20
373.241220
 30
0.0
 10
318.018871
 20
373.438936
 30
0.0
 10
318.510883
 20
373.479878
 30
0.0
 10
318.989891
 20
373.359050
 30
0.0
 10
319.402903
 20
373.089435
 30
0.0
 10
319.705908
 20
372.699991
 30
0.0
 10
319.866910
 20
372.233655
 30
0.0
 10
319.866910
 20
371.740359
 30
0.0
 10
319.705908
 20
371.274027
 30
0.0
 10
319.402903
 20
370.884580
 30
0.0
 10
318.989891
 20
370.614964
 30
0.0
 10
318.510883
 20
370.494136
 30
0.0
  0
LWPOLYLINE
  5
132
100
AcDbEntity
  8
0
 62
7
100
AcDbPolyline
 90
20
 70
0
 10
312.710754
 20
370.494136
 30
0.0
 10
312.218742
 20
370.535078
 30
0.0
 10
311.766735
 20
370.732798
 30
0.0
 10
311.402724
 20
371.067321
 30
0.0
 10
311.167721
 20
371.500702
 30
0.0
 10
311.086717
 20
371.987007
 30
0.0
 10
311.167721
 20
372.473316
 30
0.0
 10
311.402724
 20
372.906696
 30
0.0
 10
311.766735
 20
373.241220
 30
0.0
 10
312.218742
 20
373.438936
 30
0.0
 10
312.710754
 20
373.479878
 30
0.0
 10
313.189764
 20
373.359050
 30
0.0
 10
313.602774
 20
373.089435
 30
0.0
 10
313.905779
 20
372.699991
 30
0.0
 10
314.066784
 20
372.233655
 30
0.0
 10
314.066784
 20
371.740359
 30
0.0
 10
313.905779
 20
371.274027
 30
0.0
 10
313.602774
 20
370.884580
 30
0.0
 10
313.189764
 20
370.614964
 30
0.0
 10
312.710754
 20
370.494136
 30
0.0
  0
ENDSEC
  0
SECTION
  2
OBJECTS
  0
DICTIONARY
  5
C
330
0
100
AcDbDictionary
  3
ACAD_GROUP
350
D
  3
ACAD_MLINESTYLE
350
17
  0
DICTIONARY
  5
D
330
C
100
AcDbDictionary
  0
DICTIONARY
  5
1A
330
C
100
AcDbDictionary
  0
DICTIONARY
  5
17
330
C
100
AcDbDictionary
  3
STANDARD
350
18
  0
DICTIONARY
  5
19
330
C
100
AcDbDictionary
  0
ENDSEC
  0
EOF
