  0
SECTION
  2
HEADER
  9
$ACADVER
  1
AC1014
  9
$HANDSEED
  5
FFFF
  9
$MEASUREMENT
 70
     1
  0
ENDSEC
  0
SECTION
  2
TABLES
  0
TABLE
  2
VPORT
  5
8
330
0
100
AcDbSymbolTable
 70
     4
  0
VPORT
  5
2E
330
8
100
AcDbSymbolTableRecord
100
AcDbViewportTableRecord
  2
*ACTIVE
 70
     0
 10
0.0
 20
0.0
 11
1.0
 21
1.0
 12
210.0
 22
148.5
 13
0.0
 23
0.0
 14
10.0
 24
10.0
 15
10.0
 25
10.0
 16
0.0
 26
0.0
 36
1.0
 17
0.0
 27
0.0
 37
0.0
 40
341.0
 41
1.24
 42
50.0
 43
0.0
 44
0.0
 50
0.0
 51
0.0
 71
     0
 72
   100
 73
     1
 74
     3
 75
     0
 76
     0
 77
     0
 78
     0
  0
ENDTAB
  0
TABLE
  2
LTYPE
  5
5
330
0
100
AcDbSymbolTable
 70
     1
  0
LTYPE
  5
14
330
5
100
AcDbSymbolTableRecord
100
AcDbLinetypeTableRecord
  2
BYBLOCK
 70
     0
  3

 72
    65
 73
     0
 40
0.0
  0
LTYPE
  5
15
330
5
100
AcDbSymbolTableRecord
100
AcDbLinetypeTableRecord
  2
BYLAYER
 70
     0
  3

 72
    65
 73
     0
 40
0.0
  0
LTYPE
  5
16
330
5
100
AcDbSymbolTableRecord
100
AcDbLinetypeTableRecord
  2
CONTINUOUS
 70
     0
  3
Solid line
 72
    65
 73
     0
 40
0.0
  0
ENDTAB
  0
TABLE
  2
LAYER
  5
2
100
AcDbSymbolTable
 70
1
  0
LAYER
  5
50
100
AcDbSymbolTableRecord
100
AcDbLayerTableRecord
  2
0
 70
0
  6
CONTINUOUS
  0
ENDTAB
  0
TABLE
  2
STYLE
  5
3
330
0
100
AcDbSymbolTable
 70
     1
  0
STYLE
  5
11
330
3
100
AcDbSymbolTableRecord
100
AcDbTextStyleTableRecord
  2
STANDARD
 70
     0
 40
0.0
 41
1.0
 50
0.0
 71
     0
 42
2.5
  3
txt
  4

  0
ENDTAB
  0
TABLE
  2
VIEW
  5
6
330
0
100
AcDbSymbolTable
 70
     0
  0
ENDTAB
  0
TABLE
  2
UCS
  5
7
330
0
100
AcDbSymbolTable
 70
     0
  0
ENDTAB
  0
TABLE
  2
APPID
  5
9
330
0
100
AcDbSymbolTable
 70
     2
  0
APPID
  5
12
330
9
100
AcDbSymbolTableRecord
100
AcDbRegAppTableRecord
  2
ACAD
 70
     0
  0
ENDTAB
  0
TABLE
  2
DIMSTYLE
  5
A
330
0
100
AcDbSymbolTable
 70
     1
  0
DIMSTYLE
105
27
330
A
100
AcDbSymbolTableRecord
100
AcDbDimStyleTableRecord
  2
ISO-25
 70
     0
  3

  4

  5

  6

  7

 40
1.0
 41
2.5
 42
0.625
 43
3.75
 44
1.25
 45
0.0
 46
0.0
 47
0.0
 48
0.0
140
2.5
141
2.5
142
0.0
143
0.03937007874016
144
1.0
145
0.0
146
1.0
147
0.625
 71
     0
 72
     0
 73
     0
 74
     0
 75
     0
 76
     0
 77
     1
 78
     8
170
     0
171
     3
172
     1
173
     0
174
     0
175
     0
176
     0
177
     0
178
     0
270
     2
271
     2
272
     2
273
     2
274
     3
340
11
275
     0
280
     0
281
     0
282
     0
283
     0
284
     8
285
     0
286
     0
287
     3
288
     0
  0
ENDTAB
  0
TABLE
  2
BLOCK_RECORD
  5
1
330
0
100
AcDbSymbolTable
 70
     1
  0
BLOCK_RECORD
  5
1F
330
1
100
AcDbSymbolTableRecord
100
AcDbBlockTableRecord
  2
*MODEL_SPACE
  0
BLOCK_RECORD
  5
1B
330
1
100
AcDbSymbolTableRecord
100
AcDbBlockTableRecord
  2
*PAPER_SPACE
  0
ENDTAB
  0
ENDSEC
  0
SECTION
  2
BLOCKS
  0
BLOCK
  5
20
330
1F
100
AcDbEntity
  8
0
100
AcDbBlockBegin
  2
*MODEL_SPACE
 70
     0
 10
0.0
 20
0.0
 30
0.0
  3
*MODEL_SPACE
  1

  0
ENDBLK
  5
21
330
1F
100
AcDbEntity
  8
0
100
AcDbBlockEnd
  0
BLOCK
  5
1C
330
1B
100
AcDbEntity
 67
     1
  8
0
100
AcDbBlockBegin
  2
*PAPER_SPACE
  1

  0
ENDBLK
  5
1D
330
1B
100
AcDbEntity
 67
     1
  8
0
100
AcDbBlockEnd
  0
ENDSEC
  0
SECTION
  2
ENTITIES
  0
LWPOLYLINE
  5
100
100
AcDbEntity
  8
0
 62
7
100
AcDbPolyline
 90
26
 70
1
 10
166.141106
 20
384.141359
 30
0.0
 10
25.141111
 20
384.141359
 30
0.0
 10
22.962110
 20
384.046363
 30
0.0
 10
20.800110
 20
383.761375
 30
0.0
 10
18.671110
 20
383.289358
 30
0.0
 10
16.591110
 20
382.633361
 30
0.0
 10
14.576111
 20
381.799366
 30
0.0
 10
12.641111
 20
380.792369
 30
0.0
 10
10.802106
 20
379.620356
 30
0.0
 10
9.071108
 20
378.292360
 30
0.0
 10
7.463110
 20
376.819357
 30
0.0
 10
5.990107
 20
375.211368
 30
0.0
 10
4.662111
 20
373.480358
 30
0.0
 10
3.490110
 20
371.641370
 30
0.0
 10
2.483110
 20
369.706370
 30
0.0
 10
1.649109
 20
367.691359
 30
0.0
 10
0.993112
 20
365.611353
 30
0.0
 10
0.521109
 20
363.482354
 30
0.0
 10
0.236110
 20
361.320362
 30
0.0
 10
0.141111
 20
359.141352
 30
0.0
 10
0.141111
 20
0.141365
 30
0.0
 10
166.141106
 20
0.141365
 30
0.0
 10
166.141106
 20
329.954071
 30
0.0
 10
166.141106
 20
384.141359
 30
0.0
 10
166.141106
 20
384.141359
 30
0.0
 10
166.141106
 20
384.141359
 30
0.0
  0
LWPOLYLINE
  5
101
100
AcDbEntity
  8
0
 62
7
100
AcDbPolyline
 90
31
 70
1
 10
6.696112
 20
6.851815
 30
0.0
 10
6.641107
 20
7.341365
 30
0.0
 10
6.696112
 20
7.830905
 30
0.0
 10
6.859112
 20
8.295905
 30
0.0
 10
7.121110
 20
8.713035
 30
0.0
 10
7.469110
 20
9.061395
 30
0.0
 10
7.886110
 20
9.323495
 30
0.0
 10
8.351111
 20
9.486195
 30
0.0
 10
8.841111
 20
9.541355
 30
0.0
 10
9.331111
 20
9.486195
 30
0.0
 10
9.796111
 20
9.323495
 30
0.0
 10
10.213109
 20
9.061395
 30
0.0
 10
10.561111
 20
8.713035
 30
0.0
 10
10.823107
 20
8.295905
 30
0.0
 10
10.986110
 20
7.830905
 30
0.0
 10
11.041112
 20
7.341365
 30
0.0
 10
10.986110
 20
6.851815
 30
0.0
 10
10.823107
 20
6.386815
 30
0.0
 10
10.561111
 20
5.969675
 30
0.0
 10
10.213109
 20
5.621335
 30
0.0
 10
9.796111
 20
5.359225
 30
0.0
 10
9.331111
 20
5.196515
 30
0.0
 10
8.841111
 20
5.141345
 30
0.0
 10
8.351111
 20
5.196515
 30
0.0
 10
7.886110
 20
5.359225
 30
0.0
 10
7.469110
 20
5.621335
 30
0.0
 10
7.121110
 20
5.969675
 30
0.0
 10
6.859112
 20
6.386815
 30
0.0
 10
6.696112
 20
6.851815
 30
0.0
 10
6.696112
 20
6.851815
 30
0.0
 10
6.696112
 20
6.851815
 30
0.0
  0
LWPOLYLINE
  5
102
100
AcDbEntity
  8
0
 62
7
100
AcDbPolyline
 90
31
 70
1
 10
27.916109
 20
6.851815
 30
0.0
 10
27.861109
 20
7.341365
 30
0.0
 10
27.916109
 20
7.830905
 30
0.0
 10
28.079109
 20
8.295905
 30
0.0
 10
28.341110
 20
8.713035
 30
0.0
 10
28.689110
 20
9.061395
 30
0.0
 10
29.106110
 20
9.323495
 30
0.0
 10
29.571111
 20
9.486195
 30
0.0
 10
30.061111
 20
9.541355
 30
0.0
 10
30.551111
 20
9.486195
 30
0.0
 10
31.016111
 20
9.323495
 30
0.0
 10
31.433109
 20
9.061395
 30
0.0
 10
31.781108
 20
8.713035
 30
0.0
 10
32.043109
 20
8.295905
 30
0.0
 10
32.206110
 20
7.830905
 30
0.0
 10
32.261109
 20
7.341365
 30
0.0
 10
32.206110
 20
6.851815
 30
0.0
 10
32.043109
 20
6.386815
 30
0.0
 10
31.781108
 20
5.969675
 30
0.0
 10
31.433109
 20
5.621335
 30
0.0
 10
31.016111
 20
5.359225
 30
0.0
 10
30.551111
 20
5.196515
 30
0.0
 10
30.061111
 20
5.141345
 30
0.0
 10
29.571111
 20
5.196515
 30
0.0
 10
29.106110
 20
5.359225
 30
0.0
 10
28.689110
 20
5.621335
 30
0.0
 10
28.341110
 20
5.969675
 30
0.0
 10
28.079109
 20
6.386815
 30
0.0
 10
27.916109
 20
6.851815
 30
0.0
 10
27.916109
 20
6.851815
 30
0.0
 10
27.916109
 20
6.851815
 30
0.0
  0
LWPOLYLINE
  5
103
100
AcDbEntity
  8
0
 62
7
100
AcDbPolyline
 90
31
 70
1
 10
74.501609
 20
49.746464
 30
0.0
 10
74.036609
 20
49.909264
 30
0.0
 10
73.619411
 20
50.171364
 30
0.0
 10
73.271112
 20
50.519666
 30
0.0
 10
73.009006
 20
50.936863
 30
0.0
 10
72.846311
 20
51.401864
 30
0.0
 10
72.791111
 20
51.891364
 30
0.0
 10
72.846311
 20
52.380865
 30
0.0
 10
73.009006
 20
52.845865
 30
0.0
 10
73.271112
 20
53.263066
 30
0.0
 10
73.619411
 20
53.611365
 30
0.0
 10
74.036609
 20
53.873465
 30
0.0
 10
74.501609
 20
54.036166
 30
0.0
 10
74.991110
 20
54.091366
 30
0.0
 10
75.480712
 20
54.036166
 30
0.0
 10
75.945706
 20
53.873465
 30
0.0
 10
76.362808
 20
53.611365
 30
0.0
 10
76.711110
 20
53.263066
 30
0.0
 10
76.973210
 20
52.845865
 30
0.0
 10
77.135911
 20
52.380865
 30
0.0
 10
77.191111
 20
51.891364
 30
0.0
 10
77.135911
 20
51.401864
 30
0.0
 10
76.973210
 20
50.936863
 30
0.0
 10
76.711110
 20
50.519666
 30
0.0
 10
76.362808
 20
50.171364
 30
0.0
 10
75.945706
 20
49.909264
 30
0.0
 10
75.480712
 20
49.746464
 30
0.0
 10
74.991110
 20
49.691366
 30
0.0
 10
74.501609
 20
49.746464
 30
0.0
 10
74.501609
 20
49.746464
 30
0.0
 10
74.501609
 20
49.746464
 30
0.0
  0
LWPOLYLINE
  5
104
100
AcDbEntity
  8
0
 62
7
100
AcDbPolyline
 90
31
 70
1
 10
74.501609
 20
121.246366
 30
0.0
 10
74.036609
 20
121.409364
 30
0.0
 10
73.619411
 20
121.671365
 30
0.0
 10
73.271112
 20
122.019365
 30
0.0
 10
73.009006
 20
122.436365
 30
0.0
 10
72.846311
 20
122.901365
 30
0.0
 10
72.791111
 20
123.391365
 30
0.0
 10
72.846311
 20
123.881365
 30
0.0
 10
73.009006
 20
124.346366
 30
0.0
 10
73.271112
 20
124.763366
 30
0.0
 10
73.619411
 20
125.111366
 30
0.0
 10
74.036609
 20
125.373364
 30
0.0
 10
74.501609
 20
125.536364
 30
0.0
 10
74.991110
 20
125.591364
 30
0.0
 10
75.480712
 20
125.536364
 30
0.0
 10
75.945706
 20
125.373364
 30
0.0
 10
76.362808
 20
125.111366
 30
0.0
 10
76.711110
 20
124.763366
 30
0.0
 10
76.973210
 20
124.346366
 30
0.0
 10
77.135911
 20
123.881365
 30
0.0
 10
77.191111
 20
123.391365
 30
0.0
 10
77.135911
 20
122.901365
 30
0.0
 10
76.973210
 20
122.436365
 30
0.0
 10
76.711110
 20
122.019365
 30
0.0
 10
76.362808
 20
121.671365
 30
0.0
 10
75.945706
 20
121.409364
 30
0.0
 10
75.480712
 20
121.246366
 30
0.0
 10
74.991110
 20
121.191364
 30
0.0
 10
74.501609
 20
121.246366
 30
0.0
 10
74.501609
 20
121.246366
 30
0.0
 10
74.501609
 20
121.246366
 30
0.0
  0
LWPOLYLINE
  5
105
100
AcDbEntity
  8
0
 62
7
100
AcDbPolyline
 90
75
 70
1
 10
146.963311
 20
97.347066
 30
0.0
 10
147.671412
 20
94.153166
 30
0.0
 10
148.098408
 20
90.909665
 30
0.0
 10
148.241108
 20
87.641365
 30
0.0
 10
148.098408
 20
84.373065
 30
0.0
 10
147.671412
 20
81.129564
 30
0.0
 10
146.963311
 20
77.935664
 30
0.0
 10
145.979611
 20
74.815564
 30
0.0
 10
144.727611
 20
71.793165
 30
0.0
 10
143.217110
 20
68.891364
 30
0.0
 10
141.459311
 20
66.132264
 30
0.0
 10
139.467810
 20
63.536864
 30
0.0
 10
137.257607
 20
61.124866
 30
0.0
 10
134.845611
 20
58.914665
 30
0.0
 10
132.250211
 20
56.923164
 30
0.0
 10
129.491111
 20
55.165365
 30
0.0
 10
126.589307
 20
53.654864
 30
0.0
 10
123.566911
 20
52.402864
 30
0.0
 10
120.446808
 20
51.419164
 30
0.0
 10
117.252911
 20
50.711066
 30
0.0
 10
114.009410
 20
50.284064
 30
0.0
 10
110.741110
 20
50.141364
 30
0.0
 10
107.472807
 20
50.284064
 30
0.0
 10
104.229306
 20
50.711066
 30
0.0
 10
101.035412
 20
51.419164
 30
0.0
 10
97.915307
 20
52.402864
 30
0.0
 10
94.892910
 20
53.654864
 30
0.0
 10
91.991107
 20
55.165365
 30
0.0
 10
89.232012
 20
56.923164
 30
0.0
 10
86.636612
 20
58.914665
 30
0.0
 10
84.224611
 20
61.124866
 30
0.0
 10
82.014410
 20
63.536864
 30
0.0
 10
80.022912
 20
66.132264
 30
0.0
 10
78.265212
 20
68.891364
 30
0.0
 10
76.754612
 20
71.793165
 30
0.0
 10
75.502612
 20
74.815564
 30
0.0
 10
74.518907
 20
77.935664
 30
0.0
 10
73.810811
 20
81.129564
 30
0.0
 10
73.383812
 20
84.373065
 30
0.0
 10
73.241112
 20
87.641365
 30
0.0
 10
73.383812
 20
90.909665
 30
0.0
 10
73.810811
 20
94.153166
 30
0.0
 10
74.518907
 20
97.347066
 30
0.0
 10
75.502612
 20
100.467366
 30
0.0
 10
76.754612
 20
103.489365
 30
0.0
 10
78.265212
 20
106.391365
 30
0.0
 10
80.022912
 20
109.150364
 30
0.0
 10
82.014410
 20
111.746366
 30
0.0
 10
84.224611
 20
114.157365
 30
0.0
 10
86.636612
 20
116.368364
 30
0.0
 10
89.232012
 20
118.359366
 30
0.0
 10
91.991107
 20
120.117365
 30
0.0
 10
94.892910
 20
121.628365
 30
0.0
 10
97.915307
 20
122.879363
 30
0.0
 10
101.035412
 20
123.863365
 30
0.0
 10
104.229306
 20
124.571365
 30
0.0
 10
107.472807
 20
124.998364
 30
0.0
 10
110.741110
 20
125.141366
 30
0.0
 10
114.009410
 20
124.998364
 30
0.0
 10
117.252911
 20
124.571365
 30
0.0
 10
120.446808
 20
123.863365
 30
0.0
 10
123.566911
 20
122.879363
 30
0.0
 10
126.589307
 20
121.628365
 30
0.0
 10
129.491111
 20
120.117365
 30
0.0
 10
132.250211
 20
118.359366
 30
0.0
 10
134.845611
 20
116.368364
 30
0.0
 10
137.257607
 20
114.157365
 30
0.0
 10
139.467810
 20
111.746366
 30
0.0
 10
141.459311
 20
109.150364
 30
0.0
 10
143.217110
 20
106.391365
 30
0.0
 10
144.727611
 20
103.489365
 30
0.0
 10
145.979611
 20
100.467366
 30
0.0
 10
146.963311
 20
97.347066
 30
0.0
 10
146.963311
 20
97.347066
 30
0.0
 10
146.963311
 20
97.347066
 30
0.0
  0
LWPOLYLINE
  5
106
100
AcDbEntity
  8
0
 62
7
100
AcDbPolyline
 90
31
 70
1
 10
148.473211
 20
52.845865
 30
0.0
 10
148.635912
 20
52.380865
 30
0.0
 10
148.691112
 20
51.891364
 30
0.0
 10
148.635912
 20
51.401864
 30
0.0
 10
148.473211
 20
50.936863
 30
0.0
 10
148.211111
 20
50.519666
 30
0.0
 10
147.862812
 20
50.171364
 30
0.0
 10
147.445707
 20
49.909264
 30
0.0
 10
146.980710
 20
49.746464
 30
0.0
 10
146.491111
 20
49.691366
 30
0.0
 10
146.001610
 20
49.746464
 30
0.0
 10
145.536610
 20
49.909264
 30
0.0
 10
145.119412
 20
50.171364
 30
0.0
 10
144.771110
 20
50.519666
 30
0.0
 10
144.509007
 20
50.936863
 30
0.0
 10
144.346309
 20
51.401864
 30
0.0
 10
144.291112
 20
51.891364
 30
0.0
 10
144.346309
 20
52.380865
 30
0.0
 10
144.509007
 20
52.845865
 30
0.0
 10
144.771110
 20
53.263066
 30
0.0
 10
145.119412
 20
53.611365
 30
0.0
 10
145.536610
 20
53.873465
 30
0.0
 10
146.001610
 20
54.036166
 30
0.0
 10
146.491111
 20
54.091366
 30
0.0
 10
146.980710
 20
54.036166
 30
0.0
 10
147.445707
 20
53.873465
 30
0.0
 10
147.862812
 20
53.611365
 30
0.0
 10
148.211111
 20
53.263066
 30
0.0
 10
148.473211
 20
52.845865
 30
0.0
 10
148.473211
 20
52.845865
 30
0.0
 10
148.473211
 20
52.845865
 30
0.0
  0
LWPOLYLINE
  5
107
100
AcDbEntity
  8
0
 62
7
100
AcDbPolyline
 90
31
 70
1
 10
147.445707
 20
121.409364
 30
0.0
 10
146.980710
 20
121.246366
 30
0.0
 10
146.491111
 20
121.191364
 30
0.0
 10
146.001610
 20
121.246366
 30
0.0
 10
145.536610
 20
121.409364
 30
0.0
 10
145.119412
 20
121.671365
 30
0.0
 10
144.771110
 20
122.019365
 30
0.0
 10
144.509007
 20
122.436365
 30
0.0
 10
144.346309
 20
122.901365
 30
0.0
 10
144.291112
 20
123.391365
 30
0.0
 10
144.346309
 20
123.881365
 30
0.0
 10
144.509007
 20
124.346366
 30
0.0
 10
144.771110
 20
124.763366
 30
0.0
 10
145.119412
 20
125.111366
 30
0.0
 10
145.536610
 20
125.373364
 30
0.0
 10
146.001610
 20
125.536364
 30
0.0
 10
146.491111
 20
125.591364
 30
0.0
 10
146.980710
 20
125.536364
 30
0.0
 10
147.445707
 20
125.373364
 30
0.0
 10
147.862812
 20
125.111366
 30
0.0
 10
148.211111
 20
124.763366
 30
0.0
 10
148.473211
 20
124.346366
 30
0.0
 10
148.635912
 20
123.881365
 30
0.0
 10
148.691112
 20
123.391365
 30
0.0
 10
148.635912
 20
122.901365
 30
0.0
 10
148.473211
 20
122.436365
 30
0.0
 10
148.211111
 20
122.019365
 30
0.0
 10
147.862812
 20
121.671365
 30
0.0
 10
147.445707
 20
121.409364
 30
0.0
 10
147.445707
 20
121.409364
 30
0.0
 10
147.445707
 20
121.409364
 30
0.0
  0
LWPOLYLINE
  5
108
100
AcDbEntity
  8
0
 62
7
100
AcDbPolyline
 90
31
 70
1
 10
160.923244
 20
24.195865
 30
0.0
 10
161.085973
 20
23.730865
 30
0.0
 10
161.141116
 20
23.241365
 30
0.0
 10
161.085973
 20
22.751765
 30
0.0
 10
160.923244
 20
22.286765
 30
0.0
 10
160.661144
 20
21.869665
 30
0.0
 10
160.312797
 20
21.521365
 30
0.0
 10
159.895673
 20
21.259265
 30
0.0
 10
159.430655
 20
21.096565
 30
0.0
 10
158.941110
 20
21.041365
 30
0.0
 10
158.451570
 20
21.096565
 30
0.0
 10
157.986580
 20
21.259265
 30
0.0
 10
157.569428
 20
21.521365
 30
0.0
 10
157.221081
 20
21.869665
 30
0.0
 10
156.958981
 20
22.286765
 30
0.0
 10
156.796280
 20
22.751765
 30
0.0
 10
156.741134
 20
23.241365
 30
0.0
 10
156.796280
 20
23.730865
 30
0.0
 10
156.958981
 20
24.195865
 30
0.0
 10
157.221081
 20
24.613065
 30
0.0
 10
157.569428
 20
24.961365
 30
0.0
 10
157.986580
 20
25.223465
 30
0.0
 10
158.451570
 20
25.386165
 30
0.0
 10
158.941110
 20
25.441365
 30
0.0
 10
159.430655
 20
25.386165
 30
0.0
 10
159.895673
 20
25.223465
 30
0.0
 10
160.312797
 20
24.961365
 30
0.0
 10
160.661144
 20
24.613065
 30
0.0
 10
160.923244
 20
24.195865
 30
0.0
 10
160.923244
 20
24.195865
 30
0.0
 10
160.923244
 20
24.195865
 30
0.0
  0
LWPOLYLINE
  5
109
100
AcDbEntity
  8
0
 62
7
100
AcDbPolyline
 90
31
 70
1
 10
160.312797
 20
42.741364
 30
0.0
 10
159.895673
 20
42.479265
 30
0.0
 10
159.430655
 20
42.316563
 30
0.0
 10
158.941110
 20
42.261364
 30
0.0
 10
158.451570
 20
42.316563
 30
0.0
 10
157.986580
 20
42.479265
 30
0.0
 10
157.569428
 20
42.741364
 30
0.0
 10
157.221081
 20
43.089666
 30
0.0
 10
156.958981
 20
43.506765
 30
0.0
 10
156.796280
 20
43.971766
 30
0.0
 10
156.741134
 20
44.461365
 30
0.0
 10
156.796280
 20
44.950865
 30
0.0
 10
156.958981
 20
45.415866
 30
0.0
 10
157.221081
 20
45.833064
 30
0.0
 10
157.569428
 20
46.181365
 30
0.0
 10
157.986580
 20
46.443465
 30
0.0
 10
158.451570
 20
46.606166
 30
0.0
 10
158.941110
 20
46.661366
 30
0.0
 10
159.430655
 20
46.606166
 30
0.0
 10
159.895673
 20
46.443465
 30
0.0
 10
160.312797
 20
46.181365
 30
0.0
 10
160.661144
 20
45.833064
 30
0.0
 10
160.923244
 20
45.415866
 30
0.0
 10
161.085973
 20
44.950865
 30
0.0
 10
161.141116
 20
44.461365
 30
0.0
 10
161.085973
 20
43.971766
 30
0.0
 10
160.923244
 20
43.506765
 30
0.0
 10
160.661144
 20
43.089666
 30
0.0
 10
160.312797
 20
42.741364
 30
0.0
 10
160.312797
 20
42.741364
 30
0.0
 10
160.312797
 20
42.741364
 30
0.0
  0
LWPOLYLINE
  5
10a
100
AcDbEntity
  8
0
 62
7
100
AcDbPolyline
 90
31
 70
1
 10
161.141116
 20
339.821379
 30
0.0
 10
161.085973
 20
339.331356
 30
0.0
 10
160.923244
 20
338.866367
 30
0.0
 10
160.661144
 20
338.449355
 30
0.0
 10
160.312797
 20
338.101375
 30
0.0
 10
159.895673
 20
337.839360
 30
0.0
 10
159.430655
 20
337.676377
 30
0.0
 10
158.941110
 20
337.621372
 30
0.0
 10
158.451570
 20
337.676377
 30
0.0
 10
157.986580
 20
337.839360
 30
0.0
 10
157.569428
 20
338.101375
 30
0.0
 10
157.221081
 20
338.449355
 30
0.0
 10
156.958981
 20
338.866367
 30
0.0
 10
156.796280
 20
339.331356
 30
0.0
 10
156.741134
 20
339.821379
 30
0.0
 10
156.796280
 20
340.311373
 30
0.0
 10
156.958981
 20
340.776362
 30
0.0
 10
157.221081
 20
341.193374
 30
0.0
 10
157.569428
 20
341.541354
 30
0.0
 10
157.986580
 20
341.803369
 30
0.0
 10
158.451570
 20
341.966352
 30
0.0
 10
158.941110
 20
342.021357
 30
0.0
 10
159.430655
 20
341.966352
 30
0.0
 10
159.895673
 20
341.803369
 30
0.0
 10
160.312797
 20
341.541354
 30
0.0
 10
160.661144
 20
341.193374
 30
0.0
 10
160.923244
 20
340.776362
 30
0.0
 10
161.085973
 20
340.311373
 30
0.0
 10
161.141116
 20
339.821379
 30
0.0
 10
161.141116
 20
339.821379
 30
0.0
 10
161.141116
 20
339.821379
 30
0.0
  0
LWPOLYLINE
  5
10b
100
AcDbEntity
  8
0
 62
7
100
AcDbPolyline
 90
31
 70
1
 10
159.895673
 20
359.059367
 30
0.0
 10
159.430655
 20
358.896355
 30
0.0
 10
158.941110
 20
358.841378
 30
0.0
 10
158.451570
 20
358.896355
 30
0.0
 10
157.986580
 20
359.059367
 30
0.0
 10
157.569428
 20
359.321354
 30
0.0
 10
157.221081
 20
359.669362
 30
0.0
 10
156.958981
 20
360.086374
 30
0.0
 10
156.796280
 20
360.551363
 30
0.0
 10
156.741134
 20
361.041357
 30
0.0
 10
156.796280
 20
361.531351
 30
0.0
 10
156.958981
 20
361.996369
 30
0.0
 10
157.221081
 20
362.413352
 30
0.0
 10
157.569428
 20
362.761360
 30
0.0
 10
157.986580
 20
363.023376
 30
0.0
 10
158.451570
 20
363.186359
 30
0.0
 10
158.941110
 20
363.241364
 30
0.0
 10
159.430655
 20
363.186359
 30
0.0
 10
159.895673
 20
363.023376
 30
0.0
 10
160.312797
 20
362.761360
 30
0.0
 10
160.661144
 20
362.413352
 30
0.0
 10
160.923244
 20
361.996369
 30
0.0
 10
161.085973
 20
361.531351
 30
0.0
 10
161.141116
 20
361.041357
 30
0.0
 10
161.085973
 20
360.551363
 30
0.0
 10
160.923244
 20
360.086374
 30
0.0
 10
160.661144
 20
359.669362
 30
0.0
 10
160.312797
 20
359.321354
 30
0.0
 10
159.895673
 20
359.059367
 30
0.0
 10
159.895673
 20
359.059367
 30
0.0
 10
159.895673
 20
359.059367
 30
0.0
  0
LWPOLYLINE
  5
10c
100
AcDbEntity
  8
0
 62
7
100
AcDbPolyline
 90
36
 70
1
 10
336.141116
 20
0.141365
 30
0.0
 10
336.141116
 20
359.141352
 30
0.0
 10
336.046120
 20
361.320362
 30
0.0
 10
335.761132
 20
363.482354
 30
0.0
 10
335.289116
 20
365.611353
 30
0.0
 10
334.633118
 20
367.691359
 30
0.0
 10
333.799124
 20
369.706370
 30
0.0
 10
332.792126
 20
371.641370
 30
0.0
 10
331.620114
 20
373.480358
 30
0.0
 10
330.292117
 20
375.211368
 30
0.0
 10
328.819115
 20
376.819357
 30
0.0
 10
327.211126
 20
378.292360
 30
0.0
 10
325.480116
 20
379.620356
 30
0.0
 10
323.641127
 20
380.792369
 30
0.0
 10
321.706127
 20
381.799366
 30
0.0
 10
319.691106
 20
382.633361
 30
0.0
 10
317.611100
 20
383.289358
 30
0.0
 10
315.482103
 20
383.761375
 30
0.0
 10
313.320111
 20
384.046363
 30
0.0
 10
311.141102
 20
384.141359
 30
0.0
 10
170.141098
 20
384.141359
 30
0.0
 10
170.141098
 20
329.729818
 30
0.0
 10
170.141098
 20
0.141365
 30
0.0
 10
184.507426
 20
0.166133
 30
0.0
 10
184.473698
 20
8.174987
 30
0.0
 10
198.600842
 20
8.174987
 30
0.0
 10
198.600842
 20
0.190901
 30
0.0
 10
198.535959
 20
0.166133
 30
0.0
 10
258.010708
 20
0.145572
 30
0.0
 10
257.965694
 20
9.037759
 30
0.0
 10
276.213590
 20
9.037759
 30
0.0
 10
276.213590
 20
0.149779
 30
0.0
 10
276.256008
 20
0.145572
 30
0.0
 10
336.141116
 20
0.141365
 30
0.0
 10
336.141116
 20
0.141365
 30
0.0
 10
336.141116
 20
0.141365
 30
0.0
  0
LWPOLYLINE
  5
10d
100
AcDbEntity
  8
0
 62
7
100
AcDbPolyline
 90
31
 70
1
 10
176.386623
 20
25.223465
 30
0.0
 10
176.851499
 20
25.386165
 30
0.0
 10
177.341095
 20
25.441365
 30
0.0
 10
177.830613
 20
25.386165
 30
0.0
 10
178.295602
 20
25.223465
 30
0.0
 10
178.712811
 20
24.961365
 30
0.0
 10
179.061102
 20
24.613065
 30
0.0
 10
179.323198
 20
24.195865
 30
0.0
 10
179.485902
 20
23.730865
 30
0.0
 10
179.541105
 20
23.241365
 30
0.0
 10
179.485902
 20
22.751765
 30
0.0
 10
179.323198
 20
22.286765
 30
0.0
 10
179.061102
 20
21.869665
 30
0.0
 10
178.712811
 20
21.521365
 30
0.0
 10
178.295602
 20
21.259265
 30
0.0
 10
177.830613
 20
21.096565
 30
0.0
 10
177.341095
 20
21.041365
 30
0.0
 10
176.851499
 20
21.096565
 30
0.0
 10
176.386623
 20
21.259265
 30
0.0
 10
175.969414
 20
21.521365
 30
0.0
 10
175.621095
 20
21.869665
 30
0.0
 10
175.358967
 20
22.286765
 30
0.0
 10
175.196266
 20
22.751765
 30
0.0
 10
175.141088
 20
23.241365
 30
0.0
 10
175.196266
 20
23.730865
 30
0.0
 10
175.358967
 20
24.195865
 30
0.0
 10
175.621095
 20
24.613065
 30
0.0
 10
175.969414
 20
24.961365
 30
0.0
 10
176.386623
 20
25.223465
 30
0.0
 10
176.386623
 20
25.223465
 30
0.0
 10
176.386623
 20
25.223465
 30
0.0
  0
LWPOLYLINE
  5
10e
100
AcDbEntity
  8
0
 62
7
100
AcDbPolyline
 90
31
 70
1
 10
178.712811
 20
42.741364
 30
0.0
 10
178.295602
 20
42.479265
 30
0.0
 10
177.830613
 20
42.316563
 30
0.0
 10
177.341095
 20
42.261364
 30
0.0
 10
176.851499
 20
42.316563
 30
0.0
 10
176.386623
 20
42.479265
 30
0.0
 10
175.969414
 20
42.741364
 30
0.0
 10
175.621095
 20
43.089666
 30
0.0
 10
175.358967
 20
43.506765
 30
0.0
 10
175.196266
 20
43.971766
 30
0.0
 10
175.141088
 20
44.461365
 30
0.0
 10
175.196266
 20
44.950865
 30
0.0
 10
175.358967
 20
45.415866
 30
0.0
 10
175.621095
 20
45.833064
 30
0.0
 10
175.969414
 20
46.181365
 30
0.0
 10
176.386623
 20
46.443465
 30
0.0
 10
176.851499
 20
46.606166
 30
0.0
 10
177.341095
 20
46.661366
 30
0.0
 10
177.830613
 20
46.606166
 30
0.0
 10
178.295602
 20
46.443465
 30
0.0
 10
178.712811
 20
46.181365
 30
0.0
 10
179.061102
 20
45.833064
 30
0.0
 10
179.323198
 20
45.415866
 30
0.0
 10
179.485902
 20
44.950865
 30
0.0
 10
179.541105
 20
44.461365
 30
0.0
 10
179.485902
 20
43.971766
 30
0.0
 10
179.323198
 20
43.506765
 30
0.0
 10
179.061102
 20
43.089666
 30
0.0
 10
178.712811
 20
42.741364
 30
0.0
 10
178.712811
 20
42.741364
 30
0.0
 10
178.712811
 20
42.741364
 30
0.0
  0
LWPOLYLINE
  5
10f
100
AcDbEntity
  8
0
 62
7
100
AcDbPolyline
 90
31
 70
1
 10
179.485902
 20
340.311373
 30
0.0
 10
179.541105
 20
339.821379
 30
0.0
 10
179.485902
 20
339.331356
 30
0.0
 10
179.323198
 20
338.866367
 30
0.0
 10
179.061102
 20
338.449355
 30
0.0
 10
178.712811
 20
338.101375
 30
0.0
 10
178.295602
 20
337.839360
 30
0.0
 10
177.830613
 20
337.676377
 30
0.0
 10
177.341095
 20
337.621372
 30
0.0
 10
176.851499
 20
337.676377
 30
0.0
 10
176.386623
 20
337.839360
 30
0.0
 10
175.969414
 20
338.101375
 30
0.0
 10
175.621095
 20
338.449355
 30
0.0
 10
175.358967
 20
338.866367
 30
0.0
 10
175.196266
 20
339.331356
 30
0.0
 10
175.141088
 20
339.821379
 30
0.0
 10
175.196266
 20
340.311373
 30
0.0
 10
175.358967
 20
340.776362
 30
0.0
 10
175.621095
 20
341.193374
 30
0.0
 10
175.969414
 20
341.541354
 30
0.0
 10
176.386623
 20
341.803369
 30
0.0
 10
176.851499
 20
341.966352
 30
0.0
 10
177.341095
 20
342.021357
 30
0.0
 10
177.830613
 20
341.966352
 30
0.0
 10
178.295602
 20
341.803369
 30
0.0
 10
178.712811
 20
341.541354
 30
0.0
 10
179.061102
 20
341.193374
 30
0.0
 10
179.323198
 20
340.776362
 30
0.0
 10
179.485902
 20
340.311373
 30
0.0
 10
179.485902
 20
340.311373
 30
0.0
 10
179.485902
 20
340.311373
 30
0.0
  0
LWPOLYLINE
  5
110
100
AcDbEntity
  8
0
 62
7
100
AcDbPolyline
 90
31
 70
1
 10
175.358967
 20
360.086374
 30
0.0
 10
175.196266
 20
360.551363
 30
0.0
 10
175.141088
 20
361.041357
 30
0.0
 10
175.196266
 20
361.531351
 30
0.0
 10
175.358967
 20
361.996369
 30
0.0
 10
175.621095
 20
362.413352
 30
0.0
 10
175.969414
 20
362.761360
 30
0.0
 10
176.386623
 20
363.023376
 30
0.0
 10
176.851499
 20
363.186359
 30
0.0
 10
177.341095
 20
363.241364
 30
0.0
 10
177.830613
 20
363.186359
 30
0.0
 10
178.295602
 20
363.023376
 30
0.0
 10
178.712811
 20
362.761360
 30
0.0
 10
179.061102
 20
362.413352
 30
0.0
 10
179.323198
 20
361.996369
 30
0.0
 10
179.485902
 20
361.531351
 30
0.0
 10
179.541105
 20
361.041357
 30
0.0
 10
179.485902
 20
360.551363
 30
0.0
 10
179.323198
 20
360.086374
 30
0.0
 10
179.061102
 20
359.669362
 30
0.0
 10
178.712811
 20
359.321354
 30
0.0
 10
178.295602
 20
359.059367
 30
0.0
 10
177.830613
 20
358.896355
 30
0.0
 10
177.341095
 20
358.841378
 30
0.0
 10
176.851499
 20
358.896355
 30
0.0
 10
176.386623
 20
359.059367
 30
0.0
 10
175.969414
 20
359.321354
 30
0.0
 10
175.621095
 20
359.669362
 30
0.0
 10
175.358967
 20
360.086374
 30
0.0
 10
175.358967
 20
360.086374
 30
0.0
 10
175.358967
 20
360.086374
 30
0.0
  0
LWPOLYLINE
  5
111
100
AcDbEntity
  8
0
 62
7
100
AcDbPolyline
 90
31
 70
1
 10
238.130608
 20
49.186166
 30
0.0
 10
238.595597
 20
49.023465
 30
0.0
 10
239.012806
 20
48.761365
 30
0.0
 10
239.361125
 20
48.413066
 30
0.0
 10
239.623194
 20
47.995865
 30
0.0
 10
239.785898
 20
47.530865
 30
0.0
 10
239.841097
 20
47.041364
 30
0.0
 10
239.785898
 20
46.551765
 30
0.0
 10
239.623194
 20
46.086764
 30
0.0
 10
239.361125
 20
45.669665
 30
0.0
 10
239.012806
 20
45.321364
 30
0.0
 10
238.595597
 20
45.059264
 30
0.0
 10
238.130608
 20
44.896566
 30
0.0
 10
237.641122
 20
44.841366
 30
0.0
 10
237.151607
 20
44.896566
 30
0.0
 10
236.686618
 20
45.059264
 30
0.0
 10
236.269409
 20
45.321364
 30
0.0
 10
235.921118
 20
45.669665
 30
0.0
 10
235.659016
 20
46.086764
 30
0.0
 10
235.496202
 20
46.551765
 30
0.0
 10
235.441115
 20
47.041364
 30
0.0
 10
235.496202
 20
47.530865
 30
0.0
 10
235.659016
 20
47.995865
 30
0.0
 10
235.921118
 20
48.413066
 30
0.0
 10
236.269409
 20
48.761365
 30
0.0
 10
236.686618
 20
49.023465
 30
0.0
 10
237.151607
 20
49.186166
 30
0.0
 10
237.641122
 20
49.241365
 30
0.0
 10
238.130608
 20
49.186166
 30
0.0
 10
238.130608
 20
49.186166
 30
0.0
 10
238.130608
 20
49.186166
 30
0.0
  0
LWPOLYLINE
  5
112
100
AcDbEntity
  8
0
 62
7
100
AcDbPolyline
 90
31
 70
1
 10
235.659016
 20
196.086366
 30
0.0
 10
235.496202
 20
196.551366
 30
0.0
 10
235.441115
 20
197.041363
 30
0.0
 10
235.496202
 20
197.531366
 30
0.0
 10
235.659016
 20
197.996364
 30
0.0
 10
235.921118
 20
198.413364
 30
0.0
 10
236.269409
 20
198.761364
 30
0.0
 10
236.686618
 20
199.023365
 30
0.0
 10
237.151607
 20
199.186365
 30
0.0
 10
237.641122
 20
199.241365
 30
0.0
 10
238.130608
 20
199.186365
 30
0.0
 10
238.595597
 20
199.023365
 30
0.0
 10
239.012806
 20
198.761364
 30
0.0
 10
239.361125
 20
198.413364
 30
0.0
 10
239.623194
 20
197.996364
 30
0.0
 10
239.785898
 20
197.531366
 30
0.0
 10
239.841097
 20
197.041363
 30
0.0
 10
239.785898
 20
196.551366
 30
0.0
 10
239.623194
 20
196.086366
 30
0.0
 10
239.361125
 20
195.669365
 30
0.0
 10
239.012806
 20
195.321366
 30
0.0
 10
238.595597
 20
195.059365
 30
0.0
 10
238.130608
 20
194.896364
 30
0.0
 10
237.641122
 20
194.841365
 30
0.0
 10
237.151607
 20
194.896364
 30
0.0
 10
236.686618
 20
195.059365
 30
0.0
 10
236.269409
 20
195.321366
 30
0.0
 10
235.921118
 20
195.669365
 30
0.0
 10
235.659016
 20
196.086366
 30
0.0
 10
235.659016
 20
196.086366
 30
0.0
 10
235.659016
 20
196.086366
 30
0.0
  0
LWPOLYLINE
  5
113
100
AcDbEntity
  8
0
 62
7
100
AcDbPolyline
 90
31
 70
1
 10
285.921103
 20
45.669665
 30
0.0
 10
285.659116
 20
46.086764
 30
0.0
 10
285.496104
 20
46.551765
 30
0.0
 10
285.441096
 20
47.041364
 30
0.0
 10
285.496104
 20
47.530865
 30
0.0
 10
285.659116
 20
47.995865
 30
0.0
 10
285.921103
 20
48.413066
 30
0.0
 10
286.269111
 20
48.761365
 30
0.0
 10
286.686123
 20
49.023465
 30
0.0
 10
287.151112
 20
49.186166
 30
0.0
 10
287.641103
 20
49.241365
 30
0.0
 10
288.131100
 20
49.186166
 30
0.0
 10
288.596118
 20
49.023465
 30
0.0
 10
289.013098
 20
48.761365
 30
0.0
 10
289.361110
 20
48.413066
 30
0.0
 10
289.623125
 20
47.995865
 30
0.0
 10
289.786108
 20
47.530865
 30
0.0
 10
289.841113
 20
47.041364
 30
0.0
 10
289.786108
 20
46.551765
 30
0.0
 10
289.623125
 20
46.086764
 30
0.0
 10
289.361110
 20
45.669665
 30
0.0
 10
289.013098
 20
45.321364
 30
0.0
 10
288.596118
 20
45.059264
 30
0.0
 10
288.131100
 20
44.896566
 30
0.0
 10
287.641103
 20
44.841366
 30
0.0
 10
287.151112
 20
44.896566
 30
0.0
 10
286.686123
 20
45.059264
 30
0.0
 10
286.269111
 20
45.321364
 30
0.0
 10
285.921103
 20
45.669665
 30
0.0
 10
285.921103
 20
45.669665
 30
0.0
 10
285.921103
 20
45.669665
 30
0.0
  0
LWPOLYLINE
  5
114
100
AcDbEntity
  8
0
 62
7
100
AcDbPolyline
 90
31
 70
1
 10
289.623125
 20
196.086366
 30
0.0
 10
289.361110
 20
195.669365
 30
0.0
 10
289.013098
 20
195.321366
 30
0.0
 10
288.596118
 20
195.059365
 30
0.0
 10
288.131100
 20
194.896364
 30
0.0
 10
287.641103
 20
194.841365
 30
0.0
 10
287.151112
 20
194.896364
 30
0.0
 10
286.686123
 20
195.059365
 30
0.0
 10
286.269111
 20
195.321366
 30
0.0
 10
285.921103
 20
195.669365
 30
0.0
 10
285.659116
 20
196.086366
 30
0.0
 10
285.496104
 20
196.551366
 30
0.0
 10
285.441096
 20
197.041363
 30
0.0
 10
285.496104
 20
197.531366
 30
0.0
 10
285.659116
 20
197.996364
 30
0.0
 10
285.921103
 20
198.413364
 30
0.0
 10
286.269111
 20
198.761364
 30
0.0
 10
286.686123
 20
199.023365
 30
0.0
 10
287.151112
 20
199.186365
 30
0.0
 10
287.641103
 20
199.241365
 30
0.0
 10
288.131100
 20
199.186365
 30
0.0
 10
288.596118
 20
199.023365
 30
0.0
 10
289.013098
 20
198.761364
 30
0.0
 10
289.361110
 20
198.413364
 30
0.0
 10
289.623125
 20
197.996364
 30
0.0
 10
289.786108
 20
197.531366
 30
0.0
 10
289.841113
 20
197.041363
 30
0.0
 10
289.786108
 20
196.551366
 30
0.0
 10
289.623125
 20
196.086366
 30
0.0
 10
289.623125
 20
196.086366
 30
0.0
 10
289.623125
 20
196.086366
 30
0.0
  0
LWPOLYLINE
  5
115
100
AcDbEntity
  8
0
 62
7
100
AcDbPolyline
 90
31
 70
1
 10
304.239103
 20
8.295905
 30
0.0
 10
304.501118
 20
8.713035
 30
0.0
 10
304.849095
 20
9.061395
 30
0.0
 10
305.266110
 20
9.323495
 30
0.0
 10
305.731099
 20
9.486195
 30
0.0
 10
306.221122
 20
9.541355
 30
0.0
 10
306.711116
 20
9.486195
 30
0.0
 10
307.176105
 20
9.323495
 30
0.0
 10
307.593117
 20
9.061395
 30
0.0
 10
307.941125
 20
8.713035
 30
0.0
 10
308.203112
 20
8.295905
 30
0.0
 10
308.366120
 20
7.830905
 30
0.0
 10
308.421097
 20
7.341365
 30
0.0
 10
308.366120
 20
6.851815
 30
0.0
 10
308.203112
 20
6.386815
 30
0.0
 10
307.941125
 20
5.969675
 30
0.0
 10
307.593117
 20
5.621335
 30
0.0
 10
307.176105
 20
5.359225
 30
0.0
 10
306.711116
 20
5.196515
 30
0.0
 10
306.221122
 20
5.141345
 30
0.0
 10
305.731099
 20
5.196515
 30
0.0
 10
305.266110
 20
5.359225
 30
0.0
 10
304.849095
 20
5.621335
 30
0.0
 10
304.501118
 20
5.969675
 30
0.0
 10
304.239103
 20
6.386815
 30
0.0
 10
304.076120
 20
6.851815
 30
0.0
 10
304.021115
 20
7.341365
 30
0.0
 10
304.076120
 20
7.830905
 30
0.0
 10
304.239103
 20
8.295905
 30
0.0
 10
304.239103
 20
8.295905
 30
0.0
 10
304.239103
 20
8.295905
 30
0.0
  0
LWPOLYLINE
  5
116
100
AcDbEntity
  8
0
 62
7
100
AcDbPolyline
 90
31
 70
1
 10
325.459118
 20
8.295905
 30
0.0
 10
325.721133
 20
8.713035
 30
0.0
 10
326.069113
 20
9.061395
 30
0.0
 10
326.486125
 20
9.323495
 30
0.0
 10
326.951114
 20
9.486195
 30
0.0
 10
327.441108
 20
9.541355
 30
0.0
 10
327.931131
 20
9.486195
 30
0.0
 10
328.396120
 20
9.323495
 30
0.0
 10
328.813132
 20
9.061395
 30
0.0
 10
329.161112
 20
8.713035
 30
0.0
 10
329.423127
 20
8.295905
 30
0.0
 10
329.586110
 20
7.830905
 30
0.0
 10
329.641115
 20
7.341365
 30
0.0
 10
329.586110
 20
6.851815
 30
0.0
 10
329.423127
 20
6.386815
 30
0.0
 10
329.161112
 20
5.969675
 30
0.0
 10
328.813132
 20
5.621335
 30
0.0
 10
328.396120
 20
5.359225
 30
0.0
 10
327.931131
 20
5.196515
 30
0.0
 10
327.441108
 20
5.141345
 30
0.0
 10
326.951114
 20
5.196515
 30
0.0
 10
326.486125
 20
5.359225
 30
0.0
 10
326.069113
 20
5.621335
 30
0.0
 10
325.721133
 20
5.969675
 30
0.0
 10
325.459118
 20
6.386815
 30
0.0
 10
325.296107
 20
6.851815
 30
0.0
 10
325.241130
 20
7.341365
 30
0.0
 10
325.296107
 20
7.830905
 30
0.0
 10
325.459118
 20
8.295905
 30
0.0
 10
325.459118
 20
8.295905
 30
0.0
 10
325.459118
 20
8.295905
 30
0.0
  0
LWPOLYLINE
  5
117
100
AcDbEntity
  8
0
 62
7
100
AcDbPolyline
 90
20
 70
0
 10
201.089779
 20
43.542954
 30
0.0
 10
200.597767
 20
43.583894
 30
0.0
 10
200.145757
 20
43.781613
 30
0.0
 10
199.781747
 20
44.116137
 30
0.0
 10
199.546743
 20
44.549517
 30
0.0
 10
199.465743
 20
45.035823
 30
0.0
 10
199.546743
 20
45.522131
 30
0.0
 10
199.781747
 20
45.955511
 30
0.0
 10
200.145757
 20
46.290035
 30
0.0
 10
200.597767
 20
46.487754
 30
0.0
 10
201.089779
 20
46.528693
 30
0.0
 10
201.568787
 20
46.407868
 30
0.0
 10
201.981799
 20
46.138250
 30
0.0
 10
202.284804
 20
45.748806
 30
0.0
 10
202.445806
 20
45.282473
 30
0.0
 10
202.445806
 20
44.789174
 30
0.0
 10
202.284804
 20
44.322842
 30
0.0
 10
201.981799
 20
43.933398
 30
0.0
 10
201.568787
 20
43.663782
 30
0.0
 10
201.089779
 20
43.542954
 30
0.0
  0
LWPOLYLINE
  5
118
100
AcDbEntity
  8
0
 62
7
100
AcDbPolyline
 90
20
 70
0
 10
195.289650
 20
43.542954
 30
0.0
 10
194.797638
 20
43.583894
 30
0.0
 10
194.345631
 20
43.781613
 30
0.0
 10
193.981620
 20
44.116137
 30
0.0
 10
193.746617
 20
44.549517
 30
0.0
 10
193.665613
 20
45.035823
 30
0.0
 10
193.746617
 20
45.522131
 30
0.0
 10
193.981620
 20
45.955511
 30
0.0
 10
194.345631
 20
46.290035
 30
0.0
 10
194.797638
 20
46.487754
 30
0.0
 10
195.289650
 20
46.528693
 30
0.0
 10
195.768660
 20
46.407868
 30
0.0
 10
196.181670
 20
46.138250
 30
0.0
 10
196.484675
 20
45.748806
 30
0.0
 10
196.645680
 20
45.282473
 30
0.0
 10
196.645680
 20
44.789174
 30
0.0
 10
196.484675
 20
44.322842
 30
0.0
 10
196.181670
 20
43.933398
 30
0.0
 10
195.768660
 20
43.663782
 30
0.0
 10
195.289650
 20
43.542954
 30
0.0
  0
LWPOLYLINE
  5
119
100
AcDbEntity
  8
0
 62
7
100
AcDbPolyline
 90
20
 70
0
 10
201.089774
 20
193.341543
 30
0.0
 10
200.597762
 20
193.382485
 30
0.0
 10
200.145752
 20
193.580204
 30
0.0
 10
199.781744
 20
193.914728
 30
0.0
 10
199.546738
 20
194.348108
 30
0.0
 10
199.465737
 20
194.834414
 30
0.0
 10
199.546738
 20
195.320722
 30
0.0
 10
199.781744
 20
195.754103
 30
0.0
 10
200.145752
 20
196.088626
 30
0.0
 10
200.597762
 20
196.286343
 30
0.0
 10
201.089774
 20
196.327285
 30
0.0
 10
201.568781
 20
196.206457
 30
0.0
 10
201.981793
 20
195.936842
 30
0.0
 10
202.284798
 20
195.547397
 30
0.0
 10
202.445801
 20
195.081062
 30
0.0
 10
202.445801
 20
194.587766
 30
0.0
 10
202.284798
 20
194.121433
 30
0.0
 10
201.981793
 20
193.731986
 30
0.0
 10
201.568781
 20
193.462371
 30
0.0
 10
201.089774
 20
193.341543
 30
0.0
  0
LWPOLYLINE
  5
11a
100
AcDbEntity
  8
0
 62
7
100
AcDbPolyline
 90
20
 70
0
 10
195.289644
 20
193.341543
 30
0.0
 10
194.797632
 20
193.382485
 30
0.0
 10
194.345625
 20
193.580204
 30
0.0
 10
193.981615
 20
193.914728
 30
0.0
 10
193.746611
 20
194.348108
 30
0.0
 10
193.665608
 20
194.834414
 30
0.0
 10
193.746611
 20
195.320722
 30
0.0
 10
193.981615
 20
195.754103
 30
0.0
 10
194.345625
 20
196.088626
 30
0.0
 10
194.797632
 20
196.286343
 30
0.0
 10
195.289644
 20
196.327285
 30
0.0
 10
195.768654
 20
196.206457
 30
0.0
 10
196.181664
 20
195.936842
 30
0.0
 10
196.484669
 20
195.547397
 30
0.0
 10
196.645674
 20
195.081062
 30
0.0
 10
196.645674
 20
194.587766
 30
0.0
 10
196.484669
 20
194.121433
 30
0.0
 10
196.181664
 20
193.731986
 30
0.0
 10
195.768654
 20
193.462371
 30
0.0
 10
195.289644
 20
193.341543
 30
0.0
  0
LWPOLYLINE
  5
11b
100
AcDbEntity
  8
0
 62
7
100
AcDbPolyline
 90
20
 70
0
 10
201.089774
 20
263.247364
 30
0.0
 10
200.597762
 20
263.288306
 30
0.0
 10
200.145752
 20
263.486025
 30
0.0
 10
199.781744
 20
263.820546
 30
0.0
 10
199.546738
 20
264.253929
 30
0.0
 10
199.465737
 20
264.740235
 30
0.0
 10
199.546738
 20
265.226543
 30
0.0
 10
199.781744
 20
265.659923
 30
0.0
 10
200.145752
 20
265.994447
 30
0.0
 10
200.597762
 20
266.192166
 30
0.0
 10
201.089774
 20
266.233105
 30
0.0
 10
201.568781
 20
266.112278
 30
0.0
 10
201.981793
 20
265.842662
 30
0.0
 10
202.284798
 20
265.453218
 30
0.0
 10
202.445801
 20
264.986883
 30
0.0
 10
202.445801
 20
264.493586
 30
0.0
 10
202.284798
 20
264.027254
 30
0.0
 10
201.981793
 20
263.637807
 30
0.0
 10
201.568781
 20
263.368191
 30
0.0
 10
201.089774
 20
263.247364
 30
0.0
  0
LWPOLYLINE
  5
11c
100
AcDbEntity
  8
0
 62
7
100
AcDbPolyline
 90
20
 70
0
 10
195.289644
 20
263.247364
 30
0.0
 10
194.797632
 20
263.288306
 30
0.0
 10
194.345625
 20
263.486025
 30
0.0
 10
193.981615
 20
263.820546
 30
0.0
 10
193.746611
 20
264.253929
 30
0.0
 10
193.665608
 20
264.740235
 30
0.0
 10
193.746611
 20
265.226543
 30
0.0
 10
193.981615
 20
265.659923
 30
0.0
 10
194.345625
 20
265.994447
 30
0.0
 10
194.797632
 20
266.192166
 30
0.0
 10
195.289644
 20
266.233105
 30
0.0
 10
195.768654
 20
266.112278
 30
0.0
 10
196.181664
 20
265.842662
 30
0.0
 10
196.484669
 20
265.453218
 30
0.0
 10
196.645674
 20
264.986883
 30
0.0
 10
196.645674
 20
264.493586
 30
0.0
 10
196.484669
 20
264.027254
 30
0.0
 10
196.181664
 20
263.637807
 30
0.0
 10
195.768654
 20
263.368191
 30
0.0
 10
195.289644
 20
263.247364
 30
0.0
  0
LWPOLYLINE
  5
11d
100
AcDbEntity
  8
0
 62
7
100
AcDbPolyline
 90
20
 70
0
 10
325.279766
 20
43.566052
 30
0.0
 10
324.787740
 20
43.606994
 30
0.0
 10
324.335733
 20
43.804710
 30
0.0
 10
323.971722
 20
44.139234
 30
0.0
 10
323.736744
 20
44.572617
 30
0.0
 10
323.655718
 20
45.058922
 30
0.0
 10
323.736744
 20
45.545228
 30
0.0
 10
323.971722
 20
45.978611
 30
0.0
 10
324.335733
 20
46.313135
 30
0.0
 10
324.787740
 20
46.510851
 30
0.0
 10
325.279766
 20
46.551793
 30
0.0
 10
325.758782
 20
46.430966
 30
0.0
 10
326.171786
 20
46.161350
 30
0.0
 10
326.474780
 20
45.771903
 30
0.0
 10
326.635787
 20
45.305571
 30
0.0
 10
326.635787
 20
44.812274
 30
0.0
 10
326.474780
 20
44.345939
 30
0.0
 10
326.171786
 20
43.956495
 30
0.0
 10
325.758782
 20
43.686879
 30
0.0
 10
325.279766
 20
43.566052
 30
0.0
  0
LWPOLYLINE
  5
11e
100
AcDbEntity
  8
0
 62
7
100
AcDbPolyline
 90
20
 70
0
 10
319.479636
 20
43.566052
 30
0.0
 10
318.987624
 20
43.606994
 30
0.0
 10
318.535614
 20
43.804710
 30
0.0
 10
318.171604
 20
44.139234
 30
0.0
 10
317.936603
 20
44.572617
 30
0.0
 10
317.855600
 20
45.058922
 30
0.0
 10
317.936603
 20
45.545228
 30
0.0
 10
318.171604
 20
45.978611
 30
0.0
 10
318.535614
 20
46.313135
 30
0.0
 10
318.987624
 20
46.510851
 30
0.0
 10
319.479636
 20
46.551793
 30
0.0
 10
319.958644
 20
46.430966
 30
0.0
 10
320.371656
 20
46.161350
 30
0.0
 10
320.674661
 20
45.771903
 30
0.0
 10
320.835663
 20
45.305571
 30
0.0
 10
320.835663
 20
44.812274
 30
0.0
 10
320.674661
 20
44.345939
 30
0.0
 10
320.371656
 20
43.956495
 30
0.0
 10
319.958644
 20
43.686879
 30
0.0
 10
319.479636
 20
43.566052
 30
0.0
  0
LWPOLYLINE
  5
11f
100
AcDbEntity
  8
0
 62
7
100
AcDbPolyline
 90
20
 70
0
 10
325.279766
 20
193.364643
 30
0.0
 10
324.787740
 20
193.405585
 30
0.0
 10
324.335733
 20
193.603301
 30
0.0
 10
323.971722
 20
193.937825
 30
0.0
 10
323.736716
 20
194.371205
 30
0.0
 10
323.655718
 20
194.857514
 30
0.0
 10
323.736716
 20
195.343819
 30
0.0
 10
323.971722
 20
195.777200
 30
0.0
 10
324.335733
 20
196.111723
 30
0.0
 10
324.787740
 20
196.309443
 30
0.0
 10
325.279766
 20
196.350385
 30
0.0
 10
325.758782
 20
196.229557
 30
0.0
 10
326.171786
 20
195.959941
 30
0.0
 10
326.474780
 20
195.570495
 30
0.0
 10
326.635787
 20
195.104162
 30
0.0
 10
326.635787
 20
194.610866
 30
0.0
 10
326.474780
 20
194.144530
 30
0.0
 10
326.171786
 20
193.755086
 30
0.0
 10
325.758782
 20
193.485471
 30
0.0
 10
325.279766
 20
193.364643
 30
0.0
  0
LWPOLYLINE
  5
120
100
AcDbEntity
  8
0
 62
7
100
AcDbPolyline
 90
20
 70
0
 10
319.479631
 20
193.364643
 30
0.0
 10
318.987619
 20
193.405585
 30
0.0
 10
318.535609
 20
193.603301
 30
0.0
 10
318.171601
 20
193.937825
 30
0.0
 10
317.936598
 20
194.371205
 30
0.0
 10
317.855594
 20
194.857514
 30
0.0
 10
317.936598
 20
195.343819
 30
0.0
 10
318.171601
 20
195.777200
 30
0.0
 10
318.535609
 20
196.111723
 30
0.0
 10
318.987619
 20
196.309443
 30
0.0
 10
319.479631
 20
196.350385
 30
0.0
 10
319.958641
 20
196.229557
 30
0.0
 10
320.371651
 20
195.959941
 30
0.0
 10
320.674656
 20
195.570495
 30
0.0
 10
320.835658
 20
195.104162
 30
0.0
 10
320.835658
 20
194.610866
 30
0.0
 10
320.674656
 20
194.144530
 30
0.0
 10
320.371651
 20
193.755086
 30
0.0
 10
319.958641
 20
193.485471
 30
0.0
 10
319.479631
 20
193.364643
 30
0.0
  0
LWPOLYLINE
  5
121
100
AcDbEntity
  8
0
 62
7
100
AcDbPolyline
 90
20
 70
0
 10
325.279766
 20
263.270464
 30
0.0
 10
324.787740
 20
263.311406
 30
0.0
 10
324.335733
 20
263.509122
 30
0.0
 10
323.971722
 20
263.843646
 30
0.0
 10
323.736716
 20
264.277026
 30
0.0
 10
323.655718
 20
264.763334
 30
0.0
 10
323.736716
 20
265.249640
 30
0.0
 10
323.971722
 20
265.683020
 30
0.0
 10
324.335733
 20
266.017544
 30
0.0
 10
324.787740
 20
266.215263
 30
0.0
 10
325.279766
 20
266.256205
 30
0.0
 10
325.758782
 20
266.135378
 30
0.0
 10
326.171786
 20
265.865762
 30
0.0
 10
326.474780
 20
265.476318
 30
0.0
 10
326.635787
 20
265.009983
 30
0.0
 10
326.635787
 20
264.516686
 30
0.0
 10
326.474780
 20
264.050351
 30
0.0
 10
326.171786
 20
263.660907
 30
0.0
 10
325.758782
 20
263.391291
 30
0.0
 10
325.279766
 20
263.270464
 30
0.0
  0
LWPOLYLINE
  5
122
100
AcDbEntity
  8
0
 62
7
100
AcDbPolyline
 90
20
 70
0
 10
319.479631
 20
263.270464
 30
0.0
 10
318.987619
 20
263.311406
 30
0.0
 10
318.535609
 20
263.509122
 30
0.0
 10
318.171601
 20
263.843646
 30
0.0
 10
317.936598
 20
264.277026
 30
0.0
 10
317.855594
 20
264.763334
 30
0.0
 10
317.936598
 20
265.249640
 30
0.0
 10
318.171601
 20
265.683020
 30
0.0
 10
318.535609
 20
266.017544
 30
0.0
 10
318.987619
 20
266.215263
 30
0.0
 10
319.479631
 20
266.256205
 30
0.0
 10
319.958641
 20
266.135378
 30
0.0
 10
320.371651
 20
265.865762
 30
0.0
 10
320.674656
 20
265.476318
 30
0.0
 10
320.835658
 20
265.009983
 30
0.0
 10
320.835658
 20
264.516686
 30
0.0
 10
320.674656
 20
264.050351
 30
0.0
 10
320.371651
 20
263.660907
 30
0.0
 10
319.958641
 20
263.391291
 30
0.0
 10
319.479631
 20
263.270464
 30
0.0
  0
ENDSEC
  0
SECTION
  2
OBJECTS
  0
DICTIONARY
  5
C
330
0
100
AcDbDictionary
  3
ACAD_GROUP
350
D
  3
ACAD_MLINESTYLE
350
17
  0
DICTIONARY
  5
D
330
C
100
AcDbDictionary
  0
DICTIONARY
  5
1A
330
C
100
AcDbDictionary
  0
DICTIONARY
  5
17
330
C
100
AcDbDictionary
  3
STANDARD
350
18
  0
DICTIONARY
  5
19
330
C
100
AcDbDictionary
  0
ENDSEC
  0
EOF
