  0
SECTION
  2
HEADER
  9
$ACADVER
  1
AC1014
  9
$HANDSEED
  5
FFFF
  9
$MEASUREMENT
 70
     1
  0
ENDSEC
  0
SECTION
  2
TABLES
  0
TABLE
  2
VPORT
  5
8
330
0
100
AcDbSymbolTable
 70
     4
  0
VPORT
  5
2E
330
8
100
AcDbSymbolTableRecord
100
AcDbViewportTableRecord
  2
*ACTIVE
 70
     0
 10
0.0
 20
0.0
 11
1.0
 21
1.0
 12
210.0
 22
148.5
 13
0.0
 23
0.0
 14
10.0
 24
10.0
 15
10.0
 25
10.0
 16
0.0
 26
0.0
 36
1.0
 17
0.0
 27
0.0
 37
0.0
 40
341.0
 41
1.24
 42
50.0
 43
0.0
 44
0.0
 50
0.0
 51
0.0
 71
     0
 72
   100
 73
     1
 74
     3
 75
     0
 76
     0
 77
     0
 78
     0
  0
ENDTAB
  0
TABLE
  2
LTYPE
  5
5
330
0
100
AcDbSymbolTable
 70
     1
  0
LTYPE
  5
14
330
5
100
AcDbSymbolTableRecord
100
AcDbLinetypeTableRecord
  2
BYBLOCK
 70
     0
  3

 72
    65
 73
     0
 40
0.0
  0
LTYPE
  5
15
330
5
100
AcDbSymbolTableRecord
100
AcDbLinetypeTableRecord
  2
BYLAYER
 70
     0
  3

 72
    65
 73
     0
 40
0.0
  0
LTYPE
  5
16
330
5
100
AcDbSymbolTableRecord
100
AcDbLinetypeTableRecord
  2
CONTINUOUS
 70
     0
  3
Solid line
 72
    65
 73
     0
 40
0.0
  0
ENDTAB
  0
TABLE
  2
LAYER
  5
2
100
AcDbSymbolTable
 70
1
  0
LAYER
  5
50
100
AcDbSymbolTableRecord
100
AcDbLayerTableRecord
  2
0
 70
0
  6
CONTINUOUS
  0
ENDTAB
  0
TABLE
  2
STYLE
  5
3
330
0
100
AcDbSymbolTable
 70
     1
  0
STYLE
  5
11
330
3
100
AcDbSymbolTableRecord
100
AcDbTextStyleTableRecord
  2
STANDARD
 70
     0
 40
0.0
 41
1.0
 50
0.0
 71
     0
 42
2.5
  3
txt
  4

  0
ENDTAB
  0
TABLE
  2
VIEW
  5
6
330
0
100
AcDbSymbolTable
 70
     0
  0
ENDTAB
  0
TABLE
  2
UCS
  5
7
330
0
100
AcDbSymbolTable
 70
     0
  0
ENDTAB
  0
TABLE
  2
APPID
  5
9
330
0
100
AcDbSymbolTable
 70
     2
  0
APPID
  5
12
330
9
100
AcDbSymbolTableRecord
100
AcDbRegAppTableRecord
  2
ACAD
 70
     0
  0
ENDTAB
  0
TABLE
  2
DIMSTYLE
  5
A
330
0
100
AcDbSymbolTable
 70
     1
  0
DIMSTYLE
105
27
330
A
100
AcDbSymbolTableRecord
100
AcDbDimStyleTableRecord
  2
ISO-25
 70
     0
  3

  4

  5

  6

  7

 40
1.0
 41
2.5
 42
0.625
 43
3.75
 44
1.25
 45
0.0
 46
0.0
 47
0.0
 48
0.0
140
2.5
141
2.5
142
0.0
143
0.03937007874016
144
1.0
145
0.0
146
1.0
147
0.625
 71
     0
 72
     0
 73
     0
 74
     0
 75
     0
 76
     0
 77
     1
 78
     8
170
     0
171
     3
172
     1
173
     0
174
     0
175
     0
176
     0
177
     0
178
     0
270
     2
271
     2
272
     2
273
     2
274
     3
340
11
275
     0
280
     0
281
     0
282
     0
283
     0
284
     8
285
     0
286
     0
287
     3
288
     0
  0
ENDTAB
  0
TABLE
  2
BLOCK_RECORD
  5
1
330
0
100
AcDbSymbolTable
 70
     1
  0
BLOCK_RECORD
  5
1F
330
1
100
AcDbSymbolTableRecord
100
AcDbBlockTableRecord
  2
*MODEL_SPACE
  0
BLOCK_RECORD
  5
1B
330
1
100
AcDbSymbolTableRecord
100
AcDbBlockTableRecord
  2
*PAPER_SPACE
  0
ENDTAB
  0
ENDSEC
  0
SECTION
  2
BLOCKS
  0
BLOCK
  5
20
330
1F
100
AcDbEntity
  8
0
100
AcDbBlockBegin
  2
*MODEL_SPACE
 70
     0
 10
0.0
 20
0.0
 30
0.0
  3
*MODEL_SPACE
  1

  0
ENDBLK
  5
21
330
1F
100
AcDbEntity
  8
0
100
AcDbBlockEnd
  0
BLOCK
  5
1C
330
1B
100
AcDbEntity
 67
     1
  8
0
100
AcDbBlockBegin
  2
*PAPER_SPACE
  1

  0
ENDBLK
  5
1D
330
1B
100
AcDbEntity
 67
     1
  8
0
100
AcDbBlockEnd
  0
ENDSEC
  0
SECTION
  2
ENTITIES
  0
LWPOLYLINE
  5
100
100
AcDbEntity
  8
0
 62
7
100
AcDbPolyline
 90
27
 70
1
 10
166.141106
 20
384.140713
 30
0.0
 10
25.141112
 20
384.140713
 30
0.0
 10
22.962111
 20
384.046363
 30
0.0
 10
20.800111
 20
383.761375
 30
0.0
 10
18.671111
 20
383.289358
 30
0.0
 10
16.591111
 20
382.633361
 30
0.0
 10
14.576112
 20
381.799366
 30
0.0
 10
12.641112
 20
380.792369
 30
0.0
 10
10.802106
 20
379.620356
 30
0.0
 10
9.071108
 20
378.292360
 30
0.0
 10
7.463110
 20
376.819357
 30
0.0
 10
5.990107
 20
375.211368
 30
0.0
 10
4.662111
 20
373.480358
 30
0.0
 10
3.490110
 20
371.641373
 30
0.0
 10
2.483110
 20
369.706372
 30
0.0
 10
1.649109
 20
367.691359
 30
0.0
 10
0.993112
 20
365.611353
 30
0.0
 10
0.521109
 20
363.482356
 30
0.0
 10
0.236110
 20
361.320362
 30
0.0
 10
0.141111
 20
359.141352
 30
0.0
 10
0.141111
 20
0.141368
 30
0.0
 10
166.141106
 20
0.141368
 30
0.0
 10
166.141106
 20
329.954071
 30
0.0
 10
166.141106
 20
384.141359
 30
0.0
 10
166.141106
 20
384.141359
 30
0.0
 10
166.141106
 20
384.141359
 30
0.0
 10
166.141106
 20
384.140713
 30
0.0
  0
LWPOLYLINE
  5
101
100
AcDbEntity
  8
0
 62
7
100
AcDbPolyline
 90
33
 70
1
 10
6.696112
 20
6.851822
 30
0.0
 10
6.641107
 20
7.341365
 30
0.0
 10
6.696112
 20
7.830907
 30
0.0
 10
6.859112
 20
8.295897
 30
0.0
 10
7.121110
 20
8.713049
 30
0.0
 10
7.469110
 20
9.061396
 30
0.0
 10
7.886110
 20
9.323496
 30
0.0
 10
8.351111
 20
9.486197
 30
0.0
 10
8.841111
 20
9.541371
 30
0.0
 10
9.331111
 20
9.486197
 30
0.0
 10
9.796111
 20
9.323496
 30
0.0
 10
10.213109
 20
9.061396
 30
0.0
 10
10.561111
 20
8.713049
 30
0.0
 10
10.823107
 20
8.295897
 30
0.0
 10
10.986110
 20
7.830907
 30
0.0
 10
11.041112
 20
7.341365
 30
0.0
 10
10.986110
 20
6.851822
 30
0.0
 10
10.823107
 20
6.386804
 30
0.0
 10
10.561111
 20
5.969680
 30
0.0
 10
10.213109
 20
5.621333
 30
0.0
 10
9.796111
 20
5.359233
 30
0.0
 10
9.331111
 20
5.196504
 30
0.0
 10
8.841111
 20
5.141358
 30
0.0
 10
8.351111
 20
5.196504
 30
0.0
 10
7.886110
 20
5.359233
 30
0.0
 10
7.469110
 20
5.621333
 30
0.0
 10
7.121110
 20
5.969680
 30
0.0
 10
6.859112
 20
6.386804
 30
0.0
 10
6.696112
 20
6.851822
 30
0.0
 10
6.696112
 20
6.851822
 30
0.0
 10
6.696112
 20
6.851822
 30
0.0
 10
6.696112
 20
6.851822
 30
0.0
 10
6.696112
 20
6.851822
 30
0.0
  0
LWPOLYLINE
  5
102
100
AcDbEntity
  8
0
 62
7
100
AcDbPolyline
 90
33
 70
1
 10
27.916110
 20
6.851822
 30
0.0
 10
27.861108
 20
7.341365
 30
0.0
 10
27.916110
 20
7.830907
 30
0.0
 10
28.079110
 20
8.295897
 30
0.0
 10
28.341111
 20
8.713049
 30
0.0
 10
28.689111
 20
9.061396
 30
0.0
 10
29.106108
 20
9.323496
 30
0.0
 10
29.571112
 20
9.486197
 30
0.0
 10
30.061112
 20
9.541371
 30
0.0
 10
30.551112
 20
9.486197
 30
0.0
 10
31.016112
 20
9.323496
 30
0.0
 10
31.433110
 20
9.061396
 30
0.0
 10
31.781107
 20
8.713049
 30
0.0
 10
32.043108
 20
8.295897
 30
0.0
 10
32.206111
 20
7.830907
 30
0.0
 10
32.261110
 20
7.341365
 30
0.0
 10
32.206111
 20
6.851822
 30
0.0
 10
32.043108
 20
6.386804
 30
0.0
 10
31.781107
 20
5.969680
 30
0.0
 10
31.433110
 20
5.621333
 30
0.0
 10
31.016112
 20
5.359233
 30
0.0
 10
30.551112
 20
5.196504
 30
0.0
 10
30.061112
 20
5.141358
 30
0.0
 10
29.571112
 20
5.196504
 30
0.0
 10
29.106108
 20
5.359233
 30
0.0
 10
28.689111
 20
5.621333
 30
0.0
 10
28.341111
 20
5.969680
 30
0.0
 10
28.079110
 20
6.386804
 30
0.0
 10
27.916110
 20
6.851822
 30
0.0
 10
27.916110
 20
6.851822
 30
0.0
 10
27.916110
 20
6.851822
 30
0.0
 10
27.916110
 20
6.851822
 30
0.0
 10
27.916110
 20
6.851822
 30
0.0
  0
LWPOLYLINE
  5
103
100
AcDbEntity
  8
0
 62
7
100
AcDbPolyline
 90
33
 70
1
 10
74.501609
 20
49.746464
 30
0.0
 10
74.036609
 20
49.909264
 30
0.0
 10
73.619411
 20
50.171367
 30
0.0
 10
73.271112
 20
50.519668
 30
0.0
 10
73.009006
 20
50.936863
 30
0.0
 10
72.846311
 20
51.401864
 30
0.0
 10
72.791111
 20
51.891364
 30
0.0
 10
72.846311
 20
52.380868
 30
0.0
 10
73.009006
 20
52.845865
 30
0.0
 10
73.271112
 20
53.263066
 30
0.0
 10
73.619411
 20
53.611368
 30
0.0
 10
74.036609
 20
53.873468
 30
0.0
 10
74.501609
 20
54.036166
 30
0.0
 10
74.991110
 20
54.091368
 30
0.0
 10
75.480712
 20
54.036166
 30
0.0
 10
75.945706
 20
53.873468
 30
0.0
 10
76.362808
 20
53.611368
 30
0.0
 10
76.711110
 20
53.263066
 30
0.0
 10
76.973210
 20
52.845865
 30
0.0
 10
77.135911
 20
52.380868
 30
0.0
 10
77.191111
 20
51.891364
 30
0.0
 10
77.135911
 20
51.401864
 30
0.0
 10
76.973210
 20
50.936863
 30
0.0
 10
76.711110
 20
50.519668
 30
0.0
 10
76.362808
 20
50.171367
 30
0.0
 10
75.945706
 20
49.909264
 30
0.0
 10
75.480712
 20
49.746464
 30
0.0
 10
74.991110
 20
49.691369
 30
0.0
 10
74.501609
 20
49.746464
 30
0.0
 10
74.501609
 20
49.746464
 30
0.0
 10
74.501609
 20
49.746464
 30
0.0
 10
74.501609
 20
49.746464
 30
0.0
 10
74.501609
 20
49.746464
 30
0.0
  0
LWPOLYLINE
  5
104
100
AcDbEntity
  8
0
 62
7
100
AcDbPolyline
 90
33
 70
1
 10
74.501609
 20
121.246366
 30
0.0
 10
74.036609
 20
121.409364
 30
0.0
 10
73.619411
 20
121.671365
 30
0.0
 10
73.271112
 20
122.019367
 30
0.0
 10
73.009006
 20
122.436368
 30
0.0
 10
72.846311
 20
122.901365
 30
0.0
 10
72.791111
 20
123.391365
 30
0.0
 10
72.846311
 20
123.881365
 30
0.0
 10
73.009006
 20
124.346366
 30
0.0
 10
73.271112
 20
124.763366
 30
0.0
 10
73.619411
 20
125.111369
 30
0.0
 10
74.036609
 20
125.373364
 30
0.0
 10
74.501609
 20
125.536364
 30
0.0
 10
74.991110
 20
125.591367
 30
0.0
 10
75.480712
 20
125.536364
 30
0.0
 10
75.945706
 20
125.373364
 30
0.0
 10
76.362808
 20
125.111369
 30
0.0
 10
76.711110
 20
124.763366
 30
0.0
 10
76.973210
 20
124.346366
 30
0.0
 10
77.135911
 20
123.881365
 30
0.0
 10
77.191111
 20
123.391365
 30
0.0
 10
77.135911
 20
122.901365
 30
0.0
 10
76.973210
 20
122.436368
 30
0.0
 10
76.711110
 20
122.019367
 30
0.0
 10
76.362808
 20
121.671365
 30
0.0
 10
75.945706
 20
121.409364
 30
0.0
 10
75.480712
 20
121.246366
 30
0.0
 10
74.991110
 20
121.191364
 30
0.0
 10
74.501609
 20
121.246366
 30
0.0
 10
74.501609
 20
121.246366
 30
0.0
 10
74.501609
 20
121.246366
 30
0.0
 10
74.501609
 20
121.246366
 30
0.0
 10
74.501609
 20
121.246366
 30
0.0
  0
LWPOLYLINE
  5
105
100
AcDbEntity
  8
0
 62
7
100
AcDbPolyline
 90
77
 70
1
 10
146.963311
 20
97.347066
 30
0.0
 10
147.671412
 20
94.153169
 30
0.0
 10
148.098408
 20
90.909668
 30
0.0
 10
148.241108
 20
87.641365
 30
0.0
 10
148.098408
 20
84.373065
 30
0.0
 10
147.671412
 20
81.129564
 30
0.0
 10
146.963311
 20
77.935666
 30
0.0
 10
145.979611
 20
74.815564
 30
0.0
 10
144.727611
 20
71.793168
 30
0.0
 10
143.217110
 20
68.891364
 30
0.0
 10
141.459311
 20
66.132264
 30
0.0
 10
139.467810
 20
63.536866
 30
0.0
 10
137.257607
 20
61.124868
 30
0.0
 10
134.845611
 20
58.914665
 30
0.0
 10
132.250211
 20
56.923166
 30
0.0
 10
129.491111
 20
55.165365
 30
0.0
 10
126.589307
 20
53.654867
 30
0.0
 10
123.566911
 20
52.402864
 30
0.0
 10
120.446808
 20
51.419164
 30
0.0
 10
117.252911
 20
50.711069
 30
0.0
 10
114.009410
 20
50.284067
 30
0.0
 10
110.741110
 20
50.141366
 30
0.0
 10
107.472807
 20
50.284067
 30
0.0
 10
104.229306
 20
50.711069
 30
0.0
 10
101.035412
 20
51.419164
 30
0.0
 10
97.915307
 20
52.402864
 30
0.0
 10
94.892910
 20
53.654867
 30
0.0
 10
91.991107
 20
55.165365
 30
0.0
 10
89.232012
 20
56.923166
 30
0.0
 10
86.636612
 20
58.914665
 30
0.0
 10
84.224611
 20
61.124868
 30
0.0
 10
82.014410
 20
63.536866
 30
0.0
 10
80.022912
 20
66.132264
 30
0.0
 10
78.265212
 20
68.891364
 30
0.0
 10
76.754612
 20
71.793168
 30
0.0
 10
75.502612
 20
74.815564
 30
0.0
 10
74.518907
 20
77.935666
 30
0.0
 10
73.810811
 20
81.129564
 30
0.0
 10
73.383812
 20
84.373065
 30
0.0
 10
73.241112
 20
87.641365
 30
0.0
 10
73.383812
 20
90.909668
 30
0.0
 10
73.810811
 20
94.153169
 30
0.0
 10
74.518907
 20
97.347066
 30
0.0
 10
75.502612
 20
100.467366
 30
0.0
 10
76.754612
 20
103.489367
 30
0.0
 10
78.265212
 20
106.391365
 30
0.0
 10
80.022912
 20
109.150364
 30
0.0
 10
82.014410
 20
111.746368
 30
0.0
 10
84.224611
 20
114.157367
 30
0.0
 10
86.636612
 20
116.368364
 30
0.0
 10
89.232012
 20
118.359369
 30
0.0
 10
91.991107
 20
120.117367
 30
0.0
 10
94.892910
 20
121.628365
 30
0.0
 10
97.915307
 20
122.879363
 30
0.0
 10
101.035412
 20
123.863365
 30
0.0
 10
104.229306
 20
124.571367
 30
0.0
 10
107.472807
 20
124.998364
 30
0.0
 10
110.741110
 20
125.141366
 30
0.0
 10
114.009410
 20
124.998364
 30
0.0
 10
117.252911
 20
124.571367
 30
0.0
 10
120.446808
 20
123.863365
 30
0.0
 10
123.566911
 20
122.879363
 30
0.0
 10
126.589307
 20
121.628365
 30
0.0
 10
129.491111
 20
120.117367
 30
0.0
 10
132.250211
 20
118.359369
 30
0.0
 10
134.845611
 20
116.368364
 30
0.0
 10
137.257607
 20
114.157367
 30
0.0
 10
139.467810
 20
111.746368
 30
0.0
 10
141.459311
 20
109.150364
 30
0.0
 10
143.217110
 20
106.391365
 30
0.0
 10
144.727611
 20
103.489367
 30
0.0
 10
145.979611
 20
100.467366
 30
0.0
 10
146.963311
 20
97.347066
 30
0.0
 10
146.963311
 20
97.347066
 30
0.0
 10
146.963311
 20
97.347066
 30
0.0
 10
146.963311
 20
97.347066
 30
0.0
 10
146.963311
 20
97.347066
 30
0.0
  0
LWPOLYLINE
  5
106
100
AcDbEntity
  8
0
 62
7
100
AcDbPolyline
 90
33
 70
1
 10
148.473211
 20
52.845865
 30
0.0
 10
148.635912
 20
52.380868
 30
0.0
 10
148.691112
 20
51.891364
 30
0.0
 10
148.635912
 20
51.401864
 30
0.0
 10
148.473211
 20
50.936863
 30
0.0
 10
148.211111
 20
50.519668
 30
0.0
 10
147.862812
 20
50.171367
 30
0.0
 10
147.445707
 20
49.909264
 30
0.0
 10
146.980710
 20
49.746464
 30
0.0
 10
146.491111
 20
49.691369
 30
0.0
 10
146.001610
 20
49.746464
 30
0.0
 10
145.536610
 20
49.909264
 30
0.0
 10
145.119412
 20
50.171367
 30
0.0
 10
144.771110
 20
50.519668
 30
0.0
 10
144.509007
 20
50.936863
 30
0.0
 10
144.346309
 20
51.401864
 30
0.0
 10
144.291112
 20
51.891364
 30
0.0
 10
144.346309
 20
52.380868
 30
0.0
 10
144.509007
 20
52.845865
 30
0.0
 10
144.771110
 20
53.263066
 30
0.0
 10
145.119412
 20
53.611368
 30
0.0
 10
145.536610
 20
53.873468
 30
0.0
 10
146.001610
 20
54.036166
 30
0.0
 10
146.491111
 20
54.091368
 30
0.0
 10
146.980710
 20
54.036166
 30
0.0
 10
147.445707
 20
53.873468
 30
0.0
 10
147.862812
 20
53.611368
 30
0.0
 10
148.211111
 20
53.263066
 30
0.0
 10
148.473211
 20
52.845865
 30
0.0
 10
148.473211
 20
52.845865
 30
0.0
 10
148.473211
 20
52.845865
 30
0.0
 10
148.473211
 20
52.845865
 30
0.0
 10
148.473211
 20
52.845865
 30
0.0
  0
LWPOLYLINE
  5
107
100
AcDbEntity
  8
0
 62
7
100
AcDbPolyline
 90
33
 70
1
 10
147.445707
 20
121.409364
 30
0.0
 10
146.980710
 20
121.246366
 30
0.0
 10
146.491111
 20
121.191364
 30
0.0
 10
146.001610
 20
121.246366
 30
0.0
 10
145.536610
 20
121.409364
 30
0.0
 10
145.119412
 20
121.671365
 30
0.0
 10
144.771110
 20
122.019367
 30
0.0
 10
144.509007
 20
122.436368
 30
0.0
 10
144.346309
 20
122.901365
 30
0.0
 10
144.291112
 20
123.391365
 30
0.0
 10
144.346309
 20
123.881365
 30
0.0
 10
144.509007
 20
124.346366
 30
0.0
 10
144.771110
 20
124.763366
 30
0.0
 10
145.119412
 20
125.111369
 30
0.0
 10
145.536610
 20
125.373364
 30
0.0
 10
146.001610
 20
125.536364
 30
0.0
 10
146.491111
 20
125.591367
 30
0.0
 10
146.980710
 20
125.536364
 30
0.0
 10
147.445707
 20
125.373364
 30
0.0
 10
147.862812
 20
125.111369
 30
0.0
 10
148.211111
 20
124.763366
 30
0.0
 10
148.473211
 20
124.346366
 30
0.0
 10
148.635912
 20
123.881365
 30
0.0
 10
148.691112
 20
123.391365
 30
0.0
 10
148.635912
 20
122.901365
 30
0.0
 10
148.473211
 20
122.436368
 30
0.0
 10
148.211111
 20
122.019367
 30
0.0
 10
147.862812
 20
121.671365
 30
0.0
 10
147.445707
 20
121.409364
 30
0.0
 10
147.445707
 20
121.409364
 30
0.0
 10
147.445707
 20
121.409364
 30
0.0
 10
147.445707
 20
121.409364
 30
0.0
 10
147.445707
 20
121.409364
 30
0.0
  0
LWPOLYLINE
  5
108
100
AcDbEntity
  8
0
 62
7
100
AcDbPolyline
 90
33
 70
1
 10
160.923244
 20
24.195870
 30
0.0
 10
161.085973
 20
23.730853
 30
0.0
 10
161.141116
 20
23.241369
 30
0.0
 10
161.085973
 20
22.751770
 30
0.0
 10
160.923244
 20
22.286778
 30
0.0
 10
160.661144
 20
21.869657
 30
0.0
 10
160.312797
 20
21.521363
 30
0.0
 10
159.895673
 20
21.259266
 30
0.0
 10
159.430655
 20
21.096562
 30
0.0
 10
158.941110
 20
21.041363
 30
0.0
 10
158.451570
 20
21.096562
 30
0.0
 10
157.986580
 20
21.259266
 30
0.0
 10
157.569428
 20
21.521363
 30
0.0
 10
157.221081
 20
21.869657
 30
0.0
 10
156.958981
 20
22.286778
 30
0.0
 10
156.796280
 20
22.751770
 30
0.0
 10
156.741134
 20
23.241369
 30
0.0
 10
156.796280
 20
23.730853
 30
0.0
 10
156.958981
 20
24.195870
 30
0.0
 10
157.221081
 20
24.613051
 30
0.0
 10
157.569428
 20
24.961370
 30
0.0
 10
157.986580
 20
25.223473
 30
0.0
 10
158.451570
 20
25.386174
 30
0.0
 10
158.941110
 20
25.441376
 30
0.0
 10
159.430655
 20
25.386174
 30
0.0
 10
159.895673
 20
25.223473
 30
0.0
 10
160.312797
 20
24.961370
 30
0.0
 10
160.661144
 20
24.613051
 30
0.0
 10
160.923244
 20
24.195870
 30
0.0
 10
160.923244
 20
24.195870
 30
0.0
 10
160.923244
 20
24.195870
 30
0.0
 10
160.923244
 20
24.195870
 30
0.0
 10
160.923244
 20
24.195870
 30
0.0
  0
LWPOLYLINE
  5
109
100
AcDbEntity
  8
0
 62
7
100
AcDbPolyline
 90
33
 70
1
 10
160.312797
 20
42.741364
 30
0.0
 10
159.895673
 20
42.479267
 30
0.0
 10
159.430655
 20
42.316563
 30
0.0
 10
158.941110
 20
42.261366
 30
0.0
 10
158.451570
 20
42.316563
 30
0.0
 10
157.986580
 20
42.479267
 30
0.0
 10
157.569428
 20
42.741364
 30
0.0
 10
157.221081
 20
43.089666
 30
0.0
 10
156.958981
 20
43.506765
 30
0.0
 10
156.796280
 20
43.971769
 30
0.0
 10
156.741134
 20
44.461365
 30
0.0
 10
156.796280
 20
44.950865
 30
0.0
 10
156.958981
 20
45.415869
 30
0.0
 10
157.221081
 20
45.833066
 30
0.0
 10
157.569428
 20
46.181365
 30
0.0
 10
157.986580
 20
46.443465
 30
0.0
 10
158.451570
 20
46.606166
 30
0.0
 10
158.941110
 20
46.661366
 30
0.0
 10
159.430655
 20
46.606166
 30
0.0
 10
159.895673
 20
46.443465
 30
0.0
 10
160.312797
 20
46.181365
 30
0.0
 10
160.661144
 20
45.833066
 30
0.0
 10
160.923244
 20
45.415869
 30
0.0
 10
161.085973
 20
44.950865
 30
0.0
 10
161.141116
 20
44.461365
 30
0.0
 10
161.085973
 20
43.971769
 30
0.0
 10
160.923244
 20
43.506765
 30
0.0
 10
160.661144
 20
43.089666
 30
0.0
 10
160.312797
 20
42.741364
 30
0.0
 10
160.312797
 20
42.741364
 30
0.0
 10
160.312797
 20
42.741364
 30
0.0
 10
160.312797
 20
42.741364
 30
0.0
 10
160.312797
 20
42.741364
 30
0.0
  0
LWPOLYLINE
  5
10a
100
AcDbEntity
  8
0
 62
7
100
AcDbPolyline
 90
33
 70
1
 10
161.141116
 20
339.821381
 30
0.0
 10
161.085973
 20
339.331356
 30
0.0
 10
160.923244
 20
338.866367
 30
0.0
 10
160.661144
 20
338.449355
 30
0.0
 10
160.312797
 20
338.101375
 30
0.0
 10
159.895673
 20
337.839360
 30
0.0
 10
159.430655
 20
337.676377
 30
0.0
 10
158.941110
 20
337.621372
 30
0.0
 10
158.451570
 20
337.676377
 30
0.0
 10
157.986580
 20
337.839360
 30
0.0
 10
157.569428
 20
338.101375
 30
0.0
 10
157.221081
 20
338.449355
 30
0.0
 10
156.958981
 20
338.866367
 30
0.0
 10
156.796280
 20
339.331356
 30
0.0
 10
156.741134
 20
339.821381
 30
0.0
 10
156.796280
 20
340.311373
 30
0.0
 10
156.958981
 20
340.776362
 30
0.0
 10
157.221081
 20
341.193374
 30
0.0
 10
157.569428
 20
341.541354
 30
0.0
 10
157.986580
 20
341.803369
 30
0.0
 10
158.451570
 20
341.966352
 30
0.0
 10
158.941110
 20
342.021357
 30
0.0
 10
159.430655
 20
341.966352
 30
0.0
 10
159.895673
 20
341.803369
 30
0.0
 10
160.312797
 20
341.541354
 30
0.0
 10
160.661144
 20
341.193374
 30
0.0
 10
160.923244
 20
340.776362
 30
0.0
 10
161.085973
 20
340.311373
 30
0.0
 10
161.141116
 20
339.821381
 30
0.0
 10
161.141116
 20
339.821381
 30
0.0
 10
161.141116
 20
339.821381
 30
0.0
 10
161.141116
 20
339.821381
 30
0.0
 10
161.141116
 20
339.821381
 30
0.0
  0
LWPOLYLINE
  5
10b
100
AcDbEntity
  8
0
 62
7
100
AcDbPolyline
 90
33
 70
1
 10
159.895673
 20
359.059367
 30
0.0
 10
159.430655
 20
358.896355
 30
0.0
 10
158.941110
 20
358.841378
 30
0.0
 10
158.451570
 20
358.896355
 30
0.0
 10
157.986580
 20
359.059367
 30
0.0
 10
157.569428
 20
359.321354
 30
0.0
 10
157.221081
 20
359.669362
 30
0.0
 10
156.958981
 20
360.086376
 30
0.0
 10
156.796280
 20
360.551363
 30
0.0
 10
156.741134
 20
361.041357
 30
0.0
 10
156.796280
 20
361.531351
 30
0.0
 10
156.958981
 20
361.996369
 30
0.0
 10
157.221081
 20
362.413352
 30
0.0
 10
157.569428
 20
362.761360
 30
0.0
 10
157.986580
 20
363.023378
 30
0.0
 10
158.451570
 20
363.186359
 30
0.0
 10
158.941110
 20
363.241364
 30
0.0
 10
159.430655
 20
363.186359
 30
0.0
 10
159.895673
 20
363.023378
 30
0.0
 10
160.312797
 20
362.761360
 30
0.0
 10
160.661144
 20
362.413352
 30
0.0
 10
160.923244
 20
361.996369
 30
0.0
 10
161.085973
 20
361.531351
 30
0.0
 10
161.141116
 20
361.041357
 30
0.0
 10
161.085973
 20
360.551363
 30
0.0
 10
160.923244
 20
360.086376
 30
0.0
 10
160.661144
 20
359.669362
 30
0.0
 10
160.312797
 20
359.321354
 30
0.0
 10
159.895673
 20
359.059367
 30
0.0
 10
159.895673
 20
359.059367
 30
0.0
 10
159.895673
 20
359.059367
 30
0.0
 10
159.895673
 20
359.059367
 30
0.0
 10
159.895673
 20
359.059367
 30
0.0
  0
LWPOLYLINE
  5
10c
100
AcDbEntity
  8
0
 62
7
100
AcDbPolyline
 90
37
 70
1
 10
336.141145
 20
0.141368
 30
0.0
 10
336.141145
 20
359.141352
 30
0.0
 10
336.046149
 20
361.320362
 30
0.0
 10
335.761161
 20
363.482356
 30
0.0
 10
335.289144
 20
365.611353
 30
0.0
 10
334.633147
 20
367.691359
 30
0.0
 10
333.799152
 20
369.706372
 30
0.0
 10
332.792155
 20
371.641373
 30
0.0
 10
331.620142
 20
373.480358
 30
0.0
 10
330.292117
 20
375.211368
 30
0.0
 10
328.819143
 20
376.819357
 30
0.0
 10
327.211154
 20
378.292360
 30
0.0
 10
325.480144
 20
379.620356
 30
0.0
 10
323.641127
 20
380.792369
 30
0.0
 10
321.706127
 20
381.799366
 30
0.0
 10
319.691117
 20
382.633361
 30
0.0
 10
317.611111
 20
383.289358
 30
0.0
 10
315.482111
 20
383.761375
 30
0.0
 10
313.320091
 20
384.046363
 30
0.0
 10
311.141110
 20
384.140713
 30
0.0
 10
170.141098
 20
384.140713
 30
0.0
 10
170.141098
 20
329.729820
 30
0.0
 10
170.141098
 20
0.141368
 30
0.0
 10
184.507426
 20
0.166203
 30
0.0
 10
184.473698
 20
8.175049
 30
0.0
 10
198.600842
 20
8.175049
 30
0.0
 10
198.600842
 20
0.190954
 30
0.0
 10
198.535959
 20
0.166119
 30
0.0
 10
258.010708
 20
0.145516
 30
0.0
 10
257.965694
 20
9.037718
 30
0.0
 10
276.213584
 20
9.037718
 30
0.0
 10
276.213584
 20
0.149721
 30
0.0
 10
276.256002
 20
0.145488
 30
0.0
 10
336.141145
 20
0.141255
 30
0.0
 10
336.141145
 20
0.141255
 30
0.0
 10
336.141145
 20
0.141368
 30
0.0
 10
336.141145
 20
0.141368
 30
0.0
  0
LWPOLYLINE
  5
10d
100
AcDbEntity
  8
0
 62
7
100
AcDbPolyline
 90
33
 70
1
 10
176.386623
 20
25.223473
 30
0.0
 10
176.851499
 20
25.386174
 30
0.0
 10
177.341095
 20
25.441376
 30
0.0
 10
177.830613
 20
25.386174
 30
0.0
 10
178.295602
 20
25.223473
 30
0.0
 10
178.712811
 20
24.961370
 30
0.0
 10
179.061102
 20
24.613051
 30
0.0
 10
179.323198
 20
24.195870
 30
0.0
 10
179.485902
 20
23.730853
 30
0.0
 10
179.541105
 20
23.241369
 30
0.0
 10
179.485902
 20
22.751770
 30
0.0
 10
179.323198
 20
22.286778
 30
0.0
 10
179.061102
 20
21.869657
 30
0.0
 10
178.712811
 20
21.521363
 30
0.0
 10
178.295602
 20
21.259266
 30
0.0
 10
177.830613
 20
21.096562
 30
0.0
 10
177.341095
 20
21.041363
 30
0.0
 10
176.851499
 20
21.096562
 30
0.0
 10
176.386623
 20
21.259266
 30
0.0
 10
175.969414
 20
21.521363
 30
0.0
 10
175.621095
 20
21.869657
 30
0.0
 10
175.358967
 20
22.286778
 30
0.0
 10
175.196266
 20
22.751770
 30
0.0
 10
175.141088
 20
23.241369
 30
0.0
 10
175.196266
 20
23.730853
 30
0.0
 10
175.358967
 20
24.195870
 30
0.0
 10
175.621095
 20
24.613051
 30
0.0
 10
175.969414
 20
24.961370
 30
0.0
 10
176.386623
 20
25.223473
 30
0.0
 10
176.386623
 20
25.223473
 30
0.0
 10
176.386623
 20
25.223473
 30
0.0
 10
176.386623
 20
25.223473
 30
0.0
 10
176.386623
 20
25.223473
 30
0.0
  0
LWPOLYLINE
  5
10e
100
AcDbEntity
  8
0
 62
7
100
AcDbPolyline
 90
33
 70
1
 10
178.712811
 20
42.741364
 30
0.0
 10
178.295602
 20
42.479267
 30
0.0
 10
177.830613
 20
42.316563
 30
0.0
 10
177.341095
 20
42.261366
 30
0.0
 10
176.851499
 20
42.316563
 30
0.0
 10
176.386623
 20
42.479267
 30
0.0
 10
175.969414
 20
42.741364
 30
0.0
 10
175.621095
 20
43.089666
 30
0.0
 10
175.358967
 20
43.506765
 30
0.0
 10
175.196266
 20
43.971769
 30
0.0
 10
175.141088
 20
44.461365
 30
0.0
 10
175.196266
 20
44.950865
 30
0.0
 10
175.358967
 20
45.415869
 30
0.0
 10
175.621095
 20
45.833066
 30
0.0
 10
175.969414
 20
46.181365
 30
0.0
 10
176.386623
 20
46.443465
 30
0.0
 10
176.851499
 20
46.606166
 30
0.0
 10
177.341095
 20
46.661366
 30
0.0
 10
177.830613
 20
46.606166
 30
0.0
 10
178.295602
 20
46.443465
 30
0.0
 10
178.712811
 20
46.181365
 30
0.0
 10
179.061102
 20
45.833066
 30
0.0
 10
179.323198
 20
45.415869
 30
0.0
 10
179.485902
 20
44.950865
 30
0.0
 10
179.541105
 20
44.461365
 30
0.0
 10
179.485902
 20
43.971769
 30
0.0
 10
179.323198
 20
43.506765
 30
0.0
 10
179.061102
 20
43.089666
 30
0.0
 10
178.712811
 20
42.741364
 30
0.0
 10
178.712811
 20
42.741364
 30
0.0
 10
178.712811
 20
42.741364
 30
0.0
 10
178.712811
 20
42.741364
 30
0.0
 10
178.712811
 20
42.741364
 30
0.0
  0
LWPOLYLINE
  5
10f
100
AcDbEntity
  8
0
 62
7
100
AcDbPolyline
 90
33
 70
1
 10
179.485902
 20
340.311373
 30
0.0
 10
179.541105
 20
339.821381
 30
0.0
 10
179.485902
 20
339.331356
 30
0.0
 10
179.323198
 20
338.866367
 30
0.0
 10
179.061102
 20
338.449355
 30
0.0
 10
178.712811
 20
338.101375
 30
0.0
 10
178.295602
 20
337.839360
 30
0.0
 10
177.830613
 20
337.676377
 30
0.0
 10
177.341095
 20
337.621372
 30
0.0
 10
176.851499
 20
337.676377
 30
0.0
 10
176.386623
 20
337.839360
 30
0.0
 10
175.969414
 20
338.101375
 30
0.0
 10
175.621095
 20
338.449355
 30
0.0
 10
175.358967
 20
338.866367
 30
0.0
 10
175.196266
 20
339.331356
 30
0.0
 10
175.141088
 20
339.821381
 30
0.0
 10
175.196266
 20
340.311373
 30
0.0
 10
175.358967
 20
340.776362
 30
0.0
 10
175.621095
 20
341.193374
 30
0.0
 10
175.969414
 20
341.541354
 30
0.0
 10
176.386623
 20
341.803369
 30
0.0
 10
176.851499
 20
341.966352
 30
0.0
 10
177.341095
 20
342.021357
 30
0.0
 10
177.830613
 20
341.966352
 30
0.0
 10
178.295602
 20
341.803369
 30
0.0
 10
178.712811
 20
341.541354
 30
0.0
 10
179.061102
 20
341.193374
 30
0.0
 10
179.323198
 20
340.776362
 30
0.0
 10
179.485902
 20
340.311373
 30
0.0
 10
179.485902
 20
340.311373
 30
0.0
 10
179.485902
 20
340.311373
 30
0.0
 10
179.485902
 20
340.311373
 30
0.0
 10
179.485902
 20
340.311373
 30
0.0
  0
LWPOLYLINE
  5
110
100
AcDbEntity
  8
0
 62
7
100
AcDbPolyline
 90
33
 70
1
 10
175.358967
 20
360.086376
 30
0.0
 10
175.196266
 20
360.551363
 30
0.0
 10
175.141088
 20
361.041357
 30
0.0
 10
175.196266
 20
361.531351
 30
0.0
 10
175.358967
 20
361.996369
 30
0.0
 10
175.621095
 20
362.413352
 30
0.0
 10
175.969414
 20
362.761360
 30
0.0
 10
176.386623
 20
363.023378
 30
0.0
 10
176.851499
 20
363.186359
 30
0.0
 10
177.341095
 20
363.241364
 30
0.0
 10
177.830613
 20
363.186359
 30
0.0
 10
178.295602
 20
363.023378
 30
0.0
 10
178.712811
 20
362.761360
 30
0.0
 10
179.061102
 20
362.413352
 30
0.0
 10
179.323198
 20
361.996369
 30
0.0
 10
179.485902
 20
361.531351
 30
0.0
 10
179.541105
 20
361.041357
 30
0.0
 10
179.485902
 20
360.551363
 30
0.0
 10
179.323198
 20
360.086376
 30
0.0
 10
179.061102
 20
359.669362
 30
0.0
 10
178.712811
 20
359.321354
 30
0.0
 10
178.295602
 20
359.059367
 30
0.0
 10
177.830613
 20
358.896355
 30
0.0
 10
177.341095
 20
358.841378
 30
0.0
 10
176.851499
 20
358.896355
 30
0.0
 10
176.386623
 20
359.059367
 30
0.0
 10
175.969414
 20
359.321354
 30
0.0
 10
175.621095
 20
359.669362
 30
0.0
 10
175.358967
 20
360.086376
 30
0.0
 10
175.358967
 20
360.086376
 30
0.0
 10
175.358967
 20
360.086376
 30
0.0
 10
175.358967
 20
360.086376
 30
0.0
 10
175.358967
 20
360.086376
 30
0.0
  0
LWPOLYLINE
  5
111
100
AcDbEntity
  8
0
 62
7
100
AcDbPolyline
 90
33
 70
1
 10
238.130608
 20
49.186168
 30
0.0
 10
238.595597
 20
49.023467
 30
0.0
 10
239.012806
 20
48.761365
 30
0.0
 10
239.361125
 20
48.413069
 30
0.0
 10
239.623194
 20
47.995865
 30
0.0
 10
239.785898
 20
47.530867
 30
0.0
 10
239.841097
 20
47.041364
 30
0.0
 10
239.785898
 20
46.551765
 30
0.0
 10
239.623194
 20
46.086764
 30
0.0
 10
239.361125
 20
45.669665
 30
0.0
 10
239.012806
 20
45.321367
 30
0.0
 10
238.595597
 20
45.059267
 30
0.0
 10
238.130608
 20
44.896568
 30
0.0
 10
237.641122
 20
44.841369
 30
0.0
 10
237.151607
 20
44.896568
 30
0.0
 10
236.686618
 20
45.059267
 30
0.0
 10
236.269409
 20
45.321367
 30
0.0
 10
235.921118
 20
45.669665
 30
0.0
 10
235.659016
 20
46.086764
 30
0.0
 10
235.496202
 20
46.551765
 30
0.0
 10
235.441115
 20
47.041364
 30
0.0
 10
235.496202
 20
47.530867
 30
0.0
 10
235.659016
 20
47.995865
 30
0.0
 10
235.921118
 20
48.413069
 30
0.0
 10
236.269409
 20
48.761365
 30
0.0
 10
236.686618
 20
49.023467
 30
0.0
 10
237.151607
 20
49.186168
 30
0.0
 10
237.641122
 20
49.241365
 30
0.0
 10
238.130608
 20
49.186168
 30
0.0
 10
238.130608
 20
49.186168
 30
0.0
 10
238.130608
 20
49.186168
 30
0.0
 10
238.130608
 20
49.186168
 30
0.0
 10
238.130608
 20
49.186168
 30
0.0
  0
LWPOLYLINE
  5
112
100
AcDbEntity
  8
0
 62
7
100
AcDbPolyline
 90
33
 70
1
 10
235.659016
 20
196.086369
 30
0.0
 10
235.496202
 20
196.551366
 30
0.0
 10
235.441115
 20
197.041363
 30
0.0
 10
235.496202
 20
197.531366
 30
0.0
 10
235.659016
 20
197.996367
 30
0.0
 10
235.921118
 20
198.413364
 30
0.0
 10
236.269409
 20
198.761367
 30
0.0
 10
236.686618
 20
199.023365
 30
0.0
 10
237.151607
 20
199.186365
 30
0.0
 10
237.641122
 20
199.241367
 30
0.0
 10
238.130608
 20
199.186365
 30
0.0
 10
238.595597
 20
199.023365
 30
0.0
 10
239.012806
 20
198.761367
 30
0.0
 10
239.361125
 20
198.413364
 30
0.0
 10
239.623194
 20
197.996367
 30
0.0
 10
239.785898
 20
197.531366
 30
0.0
 10
239.841097
 20
197.041363
 30
0.0
 10
239.785898
 20
196.551366
 30
0.0
 10
239.623194
 20
196.086369
 30
0.0
 10
239.361125
 20
195.669365
 30
0.0
 10
239.012806
 20
195.321369
 30
0.0
 10
238.595597
 20
195.059368
 30
0.0
 10
238.130608
 20
194.896364
 30
0.0
 10
237.641122
 20
194.841365
 30
0.0
 10
237.151607
 20
194.896364
 30
0.0
 10
236.686618
 20
195.059368
 30
0.0
 10
236.269409
 20
195.321369
 30
0.0
 10
235.921118
 20
195.669365
 30
0.0
 10
235.659016
 20
196.086369
 30
0.0
 10
235.659016
 20
196.086369
 30
0.0
 10
235.659016
 20
196.086369
 30
0.0
 10
235.659016
 20
196.086369
 30
0.0
 10
235.659016
 20
196.086369
 30
0.0
  0
LWPOLYLINE
  5
113
100
AcDbEntity
  8
0
 62
7
100
AcDbPolyline
 90
33
 70
1
 10
285.921083
 20
45.669665
 30
0.0
 10
285.659096
 20
46.086764
 30
0.0
 10
285.496113
 20
46.551765
 30
0.0
 10
285.441108
 20
47.041364
 30
0.0
 10
285.496113
 20
47.530867
 30
0.0
 10
285.659096
 20
47.995865
 30
0.0
 10
285.921083
 20
48.413069
 30
0.0
 10
286.269091
 20
48.761365
 30
0.0
 10
286.686131
 20
49.023467
 30
0.0
 10
287.151092
 20
49.186168
 30
0.0
 10
287.641115
 20
49.241365
 30
0.0
 10
288.131109
 20
49.186168
 30
0.0
 10
288.596098
 20
49.023467
 30
0.0
 10
289.013110
 20
48.761365
 30
0.0
 10
289.361090
 20
48.413069
 30
0.0
 10
289.623133
 20
47.995865
 30
0.0
 10
289.786088
 20
47.530867
 30
0.0
 10
289.841093
 20
47.041364
 30
0.0
 10
289.786088
 20
46.551765
 30
0.0
 10
289.623133
 20
46.086764
 30
0.0
 10
289.361090
 20
45.669665
 30
0.0
 10
289.013110
 20
45.321367
 30
0.0
 10
288.596098
 20
45.059267
 30
0.0
 10
288.131109
 20
44.896568
 30
0.0
 10
287.641115
 20
44.841369
 30
0.0
 10
287.151092
 20
44.896568
 30
0.0
 10
286.686131
 20
45.059267
 30
0.0
 10
286.269091
 20
45.321367
 30
0.0
 10
285.921083
 20
45.669665
 30
0.0
 10
285.921083
 20
45.669665
 30
0.0
 10
285.921083
 20
45.669665
 30
0.0
 10
285.921083
 20
45.669665
 30
0.0
 10
285.921083
 20
45.669665
 30
0.0
  0
LWPOLYLINE
  5
114
100
AcDbEntity
  8
0
 62
7
100
AcDbPolyline
 90
33
 70
1
 10
289.623133
 20
196.086369
 30
0.0
 10
289.361090
 20
195.669365
 30
0.0
 10
289.013110
 20
195.321369
 30
0.0
 10
288.596098
 20
195.059368
 30
0.0
 10
288.131109
 20
194.896364
 30
0.0
 10
287.641115
 20
194.841365
 30
0.0
 10
287.151092
 20
194.896364
 30
0.0
 10
286.686131
 20
195.059368
 30
0.0
 10
286.269091
 20
195.321369
 30
0.0
 10
285.921083
 20
195.669365
 30
0.0
 10
285.659096
 20
196.086369
 30
0.0
 10
285.496113
 20
196.551366
 30
0.0
 10
285.441108
 20
197.041363
 30
0.0
 10
285.496113
 20
197.531366
 30
0.0
 10
285.659096
 20
197.996367
 30
0.0
 10
285.921083
 20
198.413364
 30
0.0
 10
286.269091
 20
198.761367
 30
0.0
 10
286.686131
 20
199.023365
 30
0.0
 10
287.151092
 20
199.186365
 30
0.0
 10
287.641115
 20
199.241367
 30
0.0
 10
288.131109
 20
199.186365
 30
0.0
 10
288.596098
 20
199.023365
 30
0.0
 10
289.013110
 20
198.761367
 30
0.0
 10
289.361090
 20
198.413364
 30
0.0
 10
289.623133
 20
197.996367
 30
0.0
 10
289.786088
 20
197.531366
 30
0.0
 10
289.841093
 20
197.041363
 30
0.0
 10
289.786088
 20
196.551366
 30
0.0
 10
289.623133
 20
196.086369
 30
0.0
 10
289.623133
 20
196.086369
 30
0.0
 10
289.623133
 20
196.086369
 30
0.0
 10
289.623133
 20
196.086369
 30
0.0
 10
289.623133
 20
196.086369
 30
0.0
  0
LWPOLYLINE
  5
115
100
AcDbEntity
  8
0
 62
7
100
AcDbPolyline
 90
33
 70
1
 10
304.239083
 20
8.295897
 30
0.0
 10
304.501127
 20
8.713049
 30
0.0
 10
304.849107
 20
9.061396
 30
0.0
 10
305.266118
 20
9.323496
 30
0.0
 10
305.731079
 20
9.486197
 30
0.0
 10
306.221130
 20
9.541371
 30
0.0
 10
306.711124
 20
9.486197
 30
0.0
 10
307.176085
 20
9.323496
 30
0.0
 10
307.593125
 20
9.061396
 30
0.0
 10
307.941105
 20
8.713049
 30
0.0
 10
308.203120
 20
8.295897
 30
0.0
 10
308.366132
 20
7.830907
 30
0.0
 10
308.421109
 20
7.341365
 30
0.0
 10
308.366132
 20
6.851822
 30
0.0
 10
308.203120
 20
6.386804
 30
0.0
 10
307.941105
 20
5.969680
 30
0.0
 10
307.593125
 20
5.621333
 30
0.0
 10
307.176085
 20
5.359233
 30
0.0
 10
306.711124
 20
5.196504
 30
0.0
 10
306.221130
 20
5.141358
 30
0.0
 10
305.731079
 20
5.196504
 30
0.0
 10
305.266118
 20
5.359233
 30
0.0
 10
304.849107
 20
5.621333
 30
0.0
 10
304.501127
 20
5.969680
 30
0.0
 10
304.239083
 20
6.386804
 30
0.0
 10
304.076128
 20
6.851822
 30
0.0
 10
304.021123
 20
7.341365
 30
0.0
 10
304.076128
 20
7.830907
 30
0.0
 10
304.239083
 20
8.295897
 30
0.0
 10
304.239083
 20
8.295897
 30
0.0
 10
304.239083
 20
8.295897
 30
0.0
 10
304.239083
 20
8.295897
 30
0.0
 10
304.239083
 20
8.295897
 30
0.0
  0
LWPOLYLINE
  5
116
100
AcDbEntity
  8
0
 62
7
100
AcDbPolyline
 90
33
 70
1
 10
325.459118
 20
8.295897
 30
0.0
 10
325.721133
 20
8.713049
 30
0.0
 10
326.069113
 20
9.061396
 30
0.0
 10
326.486153
 20
9.323496
 30
0.0
 10
326.951114
 20
9.486197
 30
0.0
 10
327.441137
 20
9.541371
 30
0.0
 10
327.931159
 20
9.486197
 30
0.0
 10
328.396120
 20
9.323496
 30
0.0
 10
328.813160
 20
9.061396
 30
0.0
 10
329.161140
 20
8.713049
 30
0.0
 10
329.423155
 20
8.295897
 30
0.0
 10
329.586110
 20
7.830907
 30
0.0
 10
329.641115
 20
7.341365
 30
0.0
 10
329.586110
 20
6.851822
 30
0.0
 10
329.423155
 20
6.386804
 30
0.0
 10
329.161140
 20
5.969680
 30
0.0
 10
328.813160
 20
5.621333
 30
0.0
 10
328.396120
 20
5.359233
 30
0.0
 10
327.931159
 20
5.196504
 30
0.0
 10
327.441137
 20
5.141358
 30
0.0
 10
326.951114
 20
5.196504
 30
0.0
 10
326.486153
 20
5.359233
 30
0.0
 10
326.069085
 20
5.621333
 30
0.0
 10
325.721105
 20
5.969680
 30
0.0
 10
325.459118
 20
6.386804
 30
0.0
 10
325.296135
 20
6.851822
 30
0.0
 10
325.241158
 20
7.341365
 30
0.0
 10
325.296135
 20
7.830907
 30
0.0
 10
325.459118
 20
8.295897
 30
0.0
 10
325.459118
 20
8.295897
 30
0.0
 10
325.459118
 20
8.295897
 30
0.0
 10
325.459118
 20
8.295897
 30
0.0
 10
325.459118
 20
8.295897
 30
0.0
  0
LWPOLYLINE
  5
117
100
AcDbEntity
  8
0
 62
7
100
AcDbPolyline
 90
20
 70
0
 10
194.880890
 20
43.542954
 30
0.0
 10
194.388878
 20
43.583896
 30
0.0
 10
193.936868
 20
43.781616
 30
0.0
 10
193.572858
 20
44.116139
 30
0.0
 10
193.337855
 20
44.549517
 30
0.0
 10
193.256854
 20
45.035825
 30
0.0
 10
193.337855
 20
45.522134
 30
0.0
 10
193.572858
 20
45.955511
 30
0.0
 10
193.936868
 20
46.290035
 30
0.0
 10
194.388878
 20
46.487754
 30
0.0
 10
194.880890
 20
46.528693
 30
0.0
 10
195.359898
 20
46.407868
 30
0.0
 10
195.772910
 20
46.138250
 30
0.0
 10
196.075915
 20
45.748806
 30
0.0
 10
196.236917
 20
45.282473
 30
0.0
 10
196.236917
 20
44.789174
 30
0.0
 10
196.075915
 20
44.322842
 30
0.0
 10
195.772910
 20
43.933400
 30
0.0
 10
195.359898
 20
43.663782
 30
0.0
 10
194.880890
 20
43.542954
 30
0.0
  0
LWPOLYLINE
  5
118
100
AcDbEntity
  8
0
 62
7
100
AcDbPolyline
 90
20
 70
0
 10
189.080761
 20
43.542954
 30
0.0
 10
188.588749
 20
43.583896
 30
0.0
 10
188.136742
 20
43.781616
 30
0.0
 10
187.772731
 20
44.116139
 30
0.0
 10
187.537728
 20
44.549517
 30
0.0
 10
187.456724
 20
45.035825
 30
0.0
 10
187.537728
 20
45.522134
 30
0.0
 10
187.772731
 20
45.955511
 30
0.0
 10
188.136742
 20
46.290035
 30
0.0
 10
188.588749
 20
46.487754
 30
0.0
 10
189.080761
 20
46.528693
 30
0.0
 10
189.559771
 20
46.407868
 30
0.0
 10
189.972781
 20
46.138250
 30
0.0
 10
190.275786
 20
45.748806
 30
0.0
 10
190.436791
 20
45.282473
 30
0.0
 10
190.436791
 20
44.789174
 30
0.0
 10
190.275786
 20
44.322842
 30
0.0
 10
189.972781
 20
43.933400
 30
0.0
 10
189.559771
 20
43.663782
 30
0.0
 10
189.080761
 20
43.542954
 30
0.0
  0
LWPOLYLINE
  5
119
100
AcDbEntity
  8
0
 62
7
100
AcDbPolyline
 90
20
 70
0
 10
194.880885
 20
193.341546
 30
0.0
 10
194.388873
 20
193.382485
 30
0.0
 10
193.936863
 20
193.580204
 30
0.0
 10
193.572855
 20
193.914731
 30
0.0
 10
193.337849
 20
194.348108
 30
0.0
 10
193.256848
 20
194.834414
 30
0.0
 10
193.337849
 20
195.320722
 30
0.0
 10
193.572855
 20
195.754105
 30
0.0
 10
193.936863
 20
196.088626
 30
0.0
 10
194.388873
 20
196.286343
 30
0.0
 10
194.880885
 20
196.327288
 30
0.0
 10
195.359892
 20
196.206460
 30
0.0
 10
195.772905
 20
195.936844
 30
0.0
 10
196.075910
 20
195.547397
 30
0.0
 10
196.236912
 20
195.081065
 30
0.0
 10
196.236912
 20
194.587769
 30
0.0
 10
196.075910
 20
194.121433
 30
0.0
 10
195.772905
 20
193.731986
 30
0.0
 10
195.359892
 20
193.462374
 30
0.0
 10
194.880885
 20
193.341546
 30
0.0
  0
LWPOLYLINE
  5
11a
100
AcDbEntity
  8
0
 62
7
100
AcDbPolyline
 90
20
 70
0
 10
189.080755
 20
193.341546
 30
0.0
 10
188.588743
 20
193.382485
 30
0.0
 10
188.136736
 20
193.580204
 30
0.0
 10
187.772726
 20
193.914731
 30
0.0
 10
187.537722
 20
194.348108
 30
0.0
 10
187.456719
 20
194.834414
 30
0.0
 10
187.537722
 20
195.320722
 30
0.0
 10
187.772726
 20
195.754105
 30
0.0
 10
188.136736
 20
196.088626
 30
0.0
 10
188.588743
 20
196.286343
 30
0.0
 10
189.080755
 20
196.327288
 30
0.0
 10
189.559765
 20
196.206460
 30
0.0
 10
189.972775
 20
195.936844
 30
0.0
 10
190.275780
 20
195.547397
 30
0.0
 10
190.436785
 20
195.081065
 30
0.0
 10
190.436785
 20
194.587769
 30
0.0
 10
190.275780
 20
194.121433
 30
0.0
 10
189.972775
 20
193.731986
 30
0.0
 10
189.559765
 20
193.462374
 30
0.0
 10
189.080755
 20
193.341546
 30
0.0
  0
LWPOLYLINE
  5
11b
100
AcDbEntity
  8
0
 62
7
100
AcDbPolyline
 90
20
 70
0
 10
194.880885
 20
263.247366
 30
0.0
 10
194.388873
 20
263.288308
 30
0.0
 10
193.936863
 20
263.486028
 30
0.0
 10
193.572855
 20
263.820549
 30
0.0
 10
193.337849
 20
264.253929
 30
0.0
 10
193.256848
 20
264.740237
 30
0.0
 10
193.337849
 20
265.226543
 30
0.0
 10
193.572855
 20
265.659923
 30
0.0
 10
193.936863
 20
265.994447
 30
0.0
 10
194.388873
 20
266.192166
 30
0.0
 10
194.880885
 20
266.233105
 30
0.0
 10
195.359892
 20
266.112280
 30
0.0
 10
195.772905
 20
265.842662
 30
0.0
 10
196.075910
 20
265.453218
 30
0.0
 10
196.236912
 20
264.986885
 30
0.0
 10
196.236912
 20
264.493586
 30
0.0
 10
196.075910
 20
264.027254
 30
0.0
 10
195.772905
 20
263.637807
 30
0.0
 10
195.359892
 20
263.368191
 30
0.0
 10
194.880885
 20
263.247366
 30
0.0
  0
LWPOLYLINE
  5
11c
100
AcDbEntity
  8
0
 62
7
100
AcDbPolyline
 90
20
 70
0
 10
189.080755
 20
263.247366
 30
0.0
 10
188.588743
 20
263.288308
 30
0.0
 10
188.136736
 20
263.486028
 30
0.0
 10
187.772726
 20
263.820549
 30
0.0
 10
187.537722
 20
264.253929
 30
0.0
 10
187.456719
 20
264.740237
 30
0.0
 10
187.537722
 20
265.226543
 30
0.0
 10
187.772726
 20
265.659923
 30
0.0
 10
188.136736
 20
265.994447
 30
0.0
 10
188.588743
 20
266.192166
 30
0.0
 10
189.080755
 20
266.233105
 30
0.0
 10
189.559765
 20
266.112280
 30
0.0
 10
189.972775
 20
265.842662
 30
0.0
 10
190.275780
 20
265.453218
 30
0.0
 10
190.436785
 20
264.986885
 30
0.0
 10
190.436785
 20
264.493586
 30
0.0
 10
190.275780
 20
264.027254
 30
0.0
 10
189.972775
 20
263.637807
 30
0.0
 10
189.559765
 20
263.368191
 30
0.0
 10
189.080755
 20
263.247366
 30
0.0
  0
LWPOLYLINE
  5
11d
100
AcDbEntity
  8
0
 62
7
100
AcDbPolyline
 90
20
 70
0
 10
329.795350
 20
43.566054
 30
0.0
 10
329.303295
 20
43.606996
 30
0.0
 10
328.851288
 20
43.804710
 30
0.0
 10
328.487306
 20
44.139236
 30
0.0
 10
328.252328
 20
44.572620
 30
0.0
 10
328.171302
 20
45.058922
 30
0.0
 10
328.252328
 20
45.545228
 30
0.0
 10
328.487306
 20
45.978611
 30
0.0
 10
328.851288
 20
46.313138
 30
0.0
 10
329.303295
 20
46.510851
 30
0.0
 10
329.795350
 20
46.551793
 30
0.0
 10
330.274337
 20
46.430968
 30
0.0
 10
330.687341
 20
46.161350
 30
0.0
 10
330.990335
 20
45.771903
 30
0.0
 10
331.151371
 20
45.305573
 30
0.0
 10
331.151371
 20
44.812274
 30
0.0
 10
330.990335
 20
44.345942
 30
0.0
 10
330.687341
 20
43.956498
 30
0.0
 10
330.274337
 20
43.686879
 30
0.0
 10
329.795350
 20
43.566054
 30
0.0
  0
LWPOLYLINE
  5
11e
100
AcDbEntity
  8
0
 62
7
100
AcDbPolyline
 90
20
 70
0
 10
323.995175
 20
43.566054
 30
0.0
 10
323.503177
 20
43.606996
 30
0.0
 10
323.051198
 20
43.804710
 30
0.0
 10
322.687188
 20
44.139236
 30
0.0
 10
322.452153
 20
44.572620
 30
0.0
 10
322.371184
 20
45.058922
 30
0.0
 10
322.452153
 20
45.545228
 30
0.0
 10
322.687188
 20
45.978611
 30
0.0
 10
323.051198
 20
46.313138
 30
0.0
 10
323.503177
 20
46.510851
 30
0.0
 10
323.995175
 20
46.551793
 30
0.0
 10
324.474219
 20
46.430968
 30
0.0
 10
324.887223
 20
46.161350
 30
0.0
 10
325.190245
 20
45.771903
 30
0.0
 10
325.351225
 20
45.305573
 30
0.0
 10
325.351225
 20
44.812274
 30
0.0
 10
325.190245
 20
44.345942
 30
0.0
 10
324.887223
 20
43.956498
 30
0.0
 10
324.474219
 20
43.686879
 30
0.0
 10
323.995175
 20
43.566054
 30
0.0
  0
LWPOLYLINE
  5
11f
100
AcDbEntity
  8
0
 62
7
100
AcDbPolyline
 90
20
 70
0
 10
329.795350
 20
193.364643
 30
0.0
 10
329.303295
 20
193.405588
 30
0.0
 10
328.851288
 20
193.603301
 30
0.0
 10
328.487306
 20
193.937828
 30
0.0
 10
328.252300
 20
194.371205
 30
0.0
 10
328.171302
 20
194.857517
 30
0.0
 10
328.252300
 20
195.343819
 30
0.0
 10
328.487306
 20
195.777203
 30
0.0
 10
328.851288
 20
196.111723
 30
0.0
 10
329.303295
 20
196.309445
 30
0.0
 10
329.795350
 20
196.350387
 30
0.0
 10
330.274337
 20
196.229557
 30
0.0
 10
330.687341
 20
195.959941
 30
0.0
 10
330.990335
 20
195.570497
 30
0.0
 10
331.151371
 20
195.104165
 30
0.0
 10
331.151371
 20
194.610868
 30
0.0
 10
330.990335
 20
194.144530
 30
0.0
 10
330.687341
 20
193.755086
 30
0.0
 10
330.274337
 20
193.485473
 30
0.0
 10
329.795350
 20
193.364643
 30
0.0
  0
LWPOLYLINE
  5
120
100
AcDbEntity
  8
0
 62
7
100
AcDbPolyline
 90
20
 70
0
 10
323.995175
 20
193.364643
 30
0.0
 10
323.503177
 20
193.405588
 30
0.0
 10
323.051170
 20
193.603301
 30
0.0
 10
322.687160
 20
193.937828
 30
0.0
 10
322.452153
 20
194.371205
 30
0.0
 10
322.371127
 20
194.857517
 30
0.0
 10
322.452153
 20
195.343819
 30
0.0
 10
322.687160
 20
195.777203
 30
0.0
 10
323.051170
 20
196.111723
 30
0.0
 10
323.503177
 20
196.309445
 30
0.0
 10
323.995175
 20
196.350387
 30
0.0
 10
324.474219
 20
196.229557
 30
0.0
 10
324.887223
 20
195.959941
 30
0.0
 10
325.190217
 20
195.570497
 30
0.0
 10
325.351225
 20
195.104165
 30
0.0
 10
325.351225
 20
194.610868
 30
0.0
 10
325.190217
 20
194.144530
 30
0.0
 10
324.887223
 20
193.755086
 30
0.0
 10
324.474219
 20
193.485473
 30
0.0
 10
323.995175
 20
193.364643
 30
0.0
  0
LWPOLYLINE
  5
121
100
AcDbEntity
  8
0
 62
7
100
AcDbPolyline
 90
20
 70
0
 10
329.795350
 20
263.270466
 30
0.0
 10
329.303295
 20
263.311408
 30
0.0
 10
328.851288
 20
263.509125
 30
0.0
 10
328.487306
 20
263.843648
 30
0.0
 10
328.252300
 20
264.277026
 30
0.0
 10
328.171302
 20
264.763334
 30
0.0
 10
328.252300
 20
265.249640
 30
0.0
 10
328.487306
 20
265.683020
 30
0.0
 10
328.851288
 20
266.017544
 30
0.0
 10
329.303295
 20
266.215263
 30
0.0
 10
329.795350
 20
266.256205
 30
0.0
 10
330.274337
 20
266.135380
 30
0.0
 10
330.687341
 20
265.865762
 30
0.0
 10
330.990335
 20
265.476318
 30
0.0
 10
331.151371
 20
265.009985
 30
0.0
 10
331.151371
 20
264.516686
 30
0.0
 10
330.990335
 20
264.050351
 30
0.0
 10
330.687341
 20
263.660910
 30
0.0
 10
330.274337
 20
263.391291
 30
0.0
 10
329.795350
 20
263.270466
 30
0.0
  0
LWPOLYLINE
  5
122
100
AcDbEntity
  8
0
 62
7
100
AcDbPolyline
 90
20
 70
0
 10
323.995175
 20
263.270466
 30
0.0
 10
323.503177
 20
263.311408
 30
0.0
 10
323.051170
 20
263.509125
 30
0.0
 10
322.687160
 20
263.843648
 30
0.0
 10
322.452153
 20
264.277026
 30
0.0
 10
322.371127
 20
264.763334
 30
0.0
 10
322.452153
 20
265.249640
 30
0.0
 10
322.687160
 20
265.683020
 30
0.0
 10
323.051170
 20
266.017544
 30
0.0
 10
323.503177
 20
266.215263
 30
0.0
 10
323.995175
 20
266.256205
 30
0.0
 10
324.474219
 20
266.135380
 30
0.0
 10
324.887223
 20
265.865762
 30
0.0
 10
325.190217
 20
265.476318
 30
0.0
 10
325.351225
 20
265.009985
 30
0.0
 10
325.351225
 20
264.516686
 30
0.0
 10
325.190217
 20
264.050351
 30
0.0
 10
324.887223
 20
263.660910
 30
0.0
 10
324.474219
 20
263.391291
 30
0.0
 10
323.995175
 20
263.270466
 30
0.0
  0
LWPOLYLINE
  5
123
100
AcDbEntity
  8
0
 62
7
100
AcDbPolyline
 90
7
 70
1
 10
220.334482
 20
381.968253
 30
0.0
 10
300.334482
 20
381.968253
 30
0.0
 10
300.334482
 20
301.968251
 30
0.0
 10
220.334482
 20
301.968251
 30
0.0
 10
220.334482
 20
381.968253
 30
0.0
 10
220.334482
 20
381.968253
 30
0.0
 10
220.334482
 20
381.968253
 30
0.0
  0
LWPOLYLINE
  5
124
100
AcDbEntity
  8
0
 62
7
100
AcDbPolyline
 90
6
 70
1
 10
204.978675
 20
271.825983
 30
0.0
 10
317.311645
 20
271.825983
 30
0.0
 10
317.311645
 20
14.493299
 30
0.0
 10
204.978675
 20
14.493299
 30
0.0
 10
204.978675
 20
229.826267
 30
0.0
 10
204.978675
 20
271.825983
 30
0.0
  0
LWPOLYLINE
  5
125
100
AcDbEntity
  8
0
 62
7
100
AcDbPolyline
 90
7
 70
1
 10
266.953196
 20
334.304668
 30
0.0
 10
316.953194
 20
334.304668
 30
0.0
 10
316.953194
 20
284.304669
 30
0.0
 10
266.953196
 20
284.304669
 30
0.0
 10
266.953196
 20
334.304668
 30
0.0
 10
266.953196
 20
334.304668
 30
0.0
 10
266.953196
 20
334.304668
 30
0.0
  0
LWPOLYLINE
  5
126
100
AcDbEntity
  8
0
 62
7
100
AcDbPolyline
 90
7
 70
1
 10
204.665549
 20
334.305111
 30
0.0
 10
254.665551
 20
334.305111
 30
0.0
 10
254.665551
 20
284.305110
 30
0.0
 10
204.665549
 20
284.305110
 30
0.0
 10
204.665549
 20
334.305111
 30
0.0
 10
204.665549
 20
334.305111
 30
0.0
 10
204.665549
 20
334.305111
 30
0.0
  0
LWPOLYLINE
  5
127
100
AcDbEntity
  8
0
 62
7
100
AcDbPolyline
 90
20
 70
0
 10
194.876434
 20
119.973493
 30
0.0
 10
194.384422
 20
120.014435
 30
0.0
 10
193.932412
 20
120.212157
 30
0.0
 10
193.568402
 20
120.546678
 30
0.0
 10
193.333398
 20
120.980061
 30
0.0
 10
193.252395
 20
121.466364
 30
0.0
 10
193.333398
 20
121.952675
 30
0.0
 10
193.568402
 20
122.386053
 30
0.0
 10
193.932412
 20
122.720577
 30
0.0
 10
194.384422
 20
122.918293
 30
0.0
 10
194.876434
 20
122.959235
 30
0.0
 10
195.355439
 20
122.838407
 30
0.0
 10
195.768454
 20
122.568792
 30
0.0
 10
196.071459
 20
122.179348
 30
0.0
 10
196.232461
 20
121.713012
 30
0.0
 10
196.232461
 20
121.219716
 30
0.0
 10
196.071459
 20
120.753383
 30
0.0
 10
195.768454
 20
120.363939
 30
0.0
 10
195.355439
 20
120.094321
 30
0.0
 10
194.876434
 20
119.973493
 30
0.0
  0
LWPOLYLINE
  5
128
100
AcDbEntity
  8
0
 62
7
100
AcDbPolyline
 90
20
 70
0
 10
189.076302
 20
119.973493
 30
0.0
 10
188.584290
 20
120.014435
 30
0.0
 10
188.132283
 20
120.212157
 30
0.0
 10
187.768275
 20
120.546678
 30
0.0
 10
187.533272
 20
120.980061
 30
0.0
 10
187.452268
 20
121.466364
 30
0.0
 10
187.533272
 20
121.952675
 30
0.0
 10
187.768275
 20
122.386053
 30
0.0
 10
188.132283
 20
122.720577
 30
0.0
 10
188.584290
 20
122.918293
 30
0.0
 10
189.076302
 20
122.959235
 30
0.0
 10
189.555312
 20
122.838407
 30
0.0
 10
189.968322
 20
122.568792
 30
0.0
 10
190.271329
 20
122.179348
 30
0.0
 10
190.432332
 20
121.713012
 30
0.0
 10
190.432332
 20
121.219716
 30
0.0
 10
190.271329
 20
120.753383
 30
0.0
 10
189.968322
 20
120.363939
 30
0.0
 10
189.555312
 20
120.094321
 30
0.0
 10
189.076302
 20
119.973493
 30
0.0
  0
LWPOLYLINE
  5
129
100
AcDbEntity
  8
0
 62
7
100
AcDbPolyline
 90
20
 70
0
 10
329.769442
 20
119.980625
 30
0.0
 10
329.277416
 20
120.021567
 30
0.0
 10
328.825408
 20
120.219286
 30
0.0
 10
328.461398
 20
120.553813
 30
0.0
 10
328.226392
 20
120.987190
 30
0.0
 10
328.145394
 20
121.473496
 30
0.0
 10
328.226392
 20
121.959804
 30
0.0
 10
328.461398
 20
122.393188
 30
0.0
 10
328.825408
 20
122.727708
 30
0.0
 10
329.277416
 20
122.925428
 30
0.0
 10
329.769442
 20
122.966370
 30
0.0
 10
330.248458
 20
122.845539
 30
0.0
 10
330.661462
 20
122.575927
 30
0.0
 10
330.964455
 20
122.186482
 30
0.0
 10
331.125463
 20
121.720144
 30
0.0
 10
331.125463
 20
121.226848
 30
0.0
 10
330.964455
 20
120.760515
 30
0.0
 10
330.661462
 20
120.371068
 30
0.0
 10
330.248458
 20
120.101453
 30
0.0
 10
329.769442
 20
119.980625
 30
0.0
  0
LWPOLYLINE
  5
12a
100
AcDbEntity
  8
0
 62
7
100
AcDbPolyline
 90
20
 70
0
 10
323.969295
 20
119.980625
 30
0.0
 10
323.477297
 20
120.021567
 30
0.0
 10
323.025290
 20
120.219286
 30
0.0
 10
322.661280
 20
120.553813
 30
0.0
 10
322.426274
 20
120.987190
 30
0.0
 10
322.345276
 20
121.473496
 30
0.0
 10
322.426274
 20
121.959804
 30
0.0
 10
322.661280
 20
122.393188
 30
0.0
 10
323.025290
 20
122.727708
 30
0.0
 10
323.477297
 20
122.925428
 30
0.0
 10
323.969295
 20
122.966370
 30
0.0
 10
324.448311
 20
122.845539
 30
0.0
 10
324.861315
 20
122.575927
 30
0.0
 10
325.164337
 20
122.186482
 30
0.0
 10
325.325345
 20
121.720144
 30
0.0
 10
325.325345
 20
121.226848
 30
0.0
 10
325.164337
 20
120.760515
 30
0.0
 10
324.861315
 20
120.371068
 30
0.0
 10
324.448311
 20
120.101453
 30
0.0
 10
323.969295
 20
119.980625
 30
0.0
  0
LWPOLYLINE
  5
12b
100
AcDbEntity
  8
0
 62
7
100
AcDbPolyline
 90
20
 70
0
 10
194.888448
 20
319.685758
 30
0.0
 10
194.396436
 20
319.726700
 30
0.0
 10
193.944426
 20
319.924419
 30
0.0
 10
193.580419
 20
320.258943
 30
0.0
 10
193.345412
 20
320.692324
 30
0.0
 10
193.264412
 20
321.178629
 30
0.0
 10
193.345412
 20
321.664938
 30
0.0
 10
193.580419
 20
322.098318
 30
0.0
 10
193.944426
 20
322.432842
 30
0.0
 10
194.396436
 20
322.630558
 30
0.0
 10
194.888448
 20
322.671500
 30
0.0
 10
195.367456
 20
322.550672
 30
0.0
 10
195.780468
 20
322.281057
 30
0.0
 10
196.083473
 20
321.891613
 30
0.0
 10
196.244475
 20
321.425277
 30
0.0
 10
196.244475
 20
320.931981
 30
0.0
 10
196.083473
 20
320.465648
 30
0.0
 10
195.780468
 20
320.076201
 30
0.0
 10
195.367456
 20
319.806586
 30
0.0
 10
194.888448
 20
319.685758
 30
0.0
  0
LWPOLYLINE
  5
12c
100
AcDbEntity
  8
0
 62
7
100
AcDbPolyline
 90
20
 70
0
 10
189.088319
 20
319.685758
 30
0.0
 10
188.596307
 20
319.726700
 30
0.0
 10
188.144300
 20
319.924419
 30
0.0
 10
187.780289
 20
320.258943
 30
0.0
 10
187.545286
 20
320.692324
 30
0.0
 10
187.464282
 20
321.178629
 30
0.0
 10
187.545286
 20
321.664938
 30
0.0
 10
187.780289
 20
322.098318
 30
0.0
 10
188.144300
 20
322.432842
 30
0.0
 10
188.596307
 20
322.630558
 30
0.0
 10
189.088319
 20
322.671500
 30
0.0
 10
189.567329
 20
322.550672
 30
0.0
 10
189.980339
 20
322.281057
 30
0.0
 10
190.283344
 20
321.891613
 30
0.0
 10
190.444349
 20
321.425277
 30
0.0
 10
190.444349
 20
320.931981
 30
0.0
 10
190.283344
 20
320.465648
 30
0.0
 10
189.980339
 20
320.076201
 30
0.0
 10
189.567329
 20
319.806586
 30
0.0
 10
189.088319
 20
319.685758
 30
0.0
  0
LWPOLYLINE
  5
12d
100
AcDbEntity
  8
0
 62
7
100
AcDbPolyline
 90
20
 70
0
 10
329.799696
 20
319.685626
 30
0.0
 10
329.307698
 20
319.726568
 30
0.0
 10
328.855663
 20
319.924287
 30
0.0
 10
328.491681
 20
320.258810
 30
0.0
 10
328.256674
 20
320.692191
 30
0.0
 10
328.175648
 20
321.178497
 30
0.0
 10
328.256674
 20
321.664805
 30
0.0
 10
328.491681
 20
322.098185
 30
0.0
 10
328.855663
 20
322.432709
 30
0.0
 10
329.307698
 20
322.630425
 30
0.0
 10
329.799696
 20
322.671367
 30
0.0
 10
330.278712
 20
322.550540
 30
0.0
 10
330.691716
 20
322.280924
 30
0.0
 10
330.994710
 20
321.891480
 30
0.0
 10
331.155717
 20
321.425145
 30
0.0
 10
331.155717
 20
320.931848
 30
0.0
 10
330.994710
 20
320.465516
 30
0.0
 10
330.691716
 20
320.076069
 30
0.0
 10
330.278712
 20
319.806453
 30
0.0
 10
329.799696
 20
319.685626
 30
0.0
  0
LWPOLYLINE
  5
12e
100
AcDbEntity
  8
0
 62
7
100
AcDbPolyline
 90
20
 70
0
 10
323.999578
 20
319.685626
 30
0.0
 10
323.507552
 20
319.726568
 30
0.0
 10
323.055544
 20
319.924287
 30
0.0
 10
322.691534
 20
320.258810
 30
0.0
 10
322.456528
 20
320.692191
 30
0.0
 10
322.375530
 20
321.178497
 30
0.0
 10
322.456528
 20
321.664805
 30
0.0
 10
322.691534
 20
322.098185
 30
0.0
 10
323.055544
 20
322.432709
 30
0.0
 10
323.507552
 20
322.630425
 30
0.0
 10
323.999578
 20
322.671367
 30
0.0
 10
324.478565
 20
322.550540
 30
0.0
 10
324.891598
 20
322.280924
 30
0.0
 10
325.194591
 20
321.891480
 30
0.0
 10
325.355599
 20
321.425145
 30
0.0
 10
325.355599
 20
320.931848
 30
0.0
 10
325.194591
 20
320.465516
 30
0.0
 10
324.891598
 20
320.076069
 30
0.0
 10
324.478565
 20
319.806453
 30
0.0
 10
323.999578
 20
319.685626
 30
0.0
  0
LWPOLYLINE
  5
12f
100
AcDbEntity
  8
0
 62
7
100
AcDbPolyline
 90
20
 70
0
 10
194.888516
 20
370.494269
 30
0.0
 10
194.396504
 20
370.535211
 30
0.0
 10
193.944494
 20
370.732930
 30
0.0
 10
193.580487
 20
371.067454
 30
0.0
 10
193.345480
 20
371.500834
 30
0.0
 10
193.264480
 20
371.987143
 30
0.0
 10
193.345480
 20
372.473448
 30
0.0
 10
193.580487
 20
372.906829
 30
0.0
 10
193.944494
 20
373.241352
 30
0.0
 10
194.396504
 20
373.439072
 30
0.0
 10
194.888516
 20
373.480011
 30
0.0
 10
195.367523
 20
373.359183
 30
0.0
 10
195.780536
 20
373.089571
 30
0.0
 10
196.083541
 20
372.700126
 30
0.0
 10
196.244543
 20
372.233788
 30
0.0
 10
196.244543
 20
371.740492
 30
0.0
 10
196.083541
 20
371.274159
 30
0.0
 10
195.780536
 20
370.884712
 30
0.0
 10
195.367523
 20
370.615097
 30
0.0
 10
194.888516
 20
370.494269
 30
0.0
  0
LWPOLYLINE
  5
130
100
AcDbEntity
  8
0
 62
7
100
AcDbPolyline
 90
20
 70
0
 10
189.088387
 20
370.494269
 30
0.0
 10
188.596374
 20
370.535211
 30
0.0
 10
188.144367
 20
370.732930
 30
0.0
 10
187.780357
 20
371.067454
 30
0.0
 10
187.545353
 20
371.500834
 30
0.0
 10
187.464350
 20
371.987143
 30
0.0
 10
187.545353
 20
372.473448
 30
0.0
 10
187.780357
 20
372.906829
 30
0.0
 10
188.144367
 20
373.241352
 30
0.0
 10
188.596374
 20
373.439072
 30
0.0
 10
189.088387
 20
373.480011
 30
0.0
 10
189.567397
 20
373.359183
 30
0.0
 10
189.980406
 20
373.089571
 30
0.0
 10
190.283411
 20
372.700126
 30
0.0
 10
190.444416
 20
372.233788
 30
0.0
 10
190.444416
 20
371.740492
 30
0.0
 10
190.283411
 20
371.274159
 30
0.0
 10
189.980406
 20
370.884712
 30
0.0
 10
189.567397
 20
370.615097
 30
0.0
 10
189.088387
 20
370.494269
 30
0.0
  0
LWPOLYLINE
  5
131
100
AcDbEntity
  8
0
 62
7
100
AcDbPolyline
 90
20
 70
0
 10
318.510892
 20
370.494136
 30
0.0
 10
318.018866
 20
370.535078
 30
0.0
 10
317.566858
 20
370.732800
 30
0.0
 10
317.202848
 20
371.067321
 30
0.0
 10
316.967842
 20
371.500702
 30
0.0
 10
316.886844
 20
371.987007
 30
0.0
 10
316.967842
 20
372.473316
 30
0.0
 10
317.202848
 20
372.906696
 30
0.0
 10
317.566858
 20
373.241220
 30
0.0
 10
318.018866
 20
373.438936
 30
0.0
 10
318.510892
 20
373.479878
 30
0.0
 10
318.989879
 20
373.359050
 30
0.0
 10
319.402912
 20
373.089435
 30
0.0
 10
319.705905
 20
372.699991
 30
0.0
 10
319.866913
 20
372.233655
 30
0.0
 10
319.866913
 20
371.740359
 30
0.0
 10
319.705905
 20
371.274029
 30
0.0
 10
319.402912
 20
370.884582
 30
0.0
 10
318.989879
 20
370.614964
 30
0.0
 10
318.510892
 20
370.494136
 30
0.0
  0
LWPOLYLINE
  5
132
100
AcDbEntity
  8
0
 62
7
100
AcDbPolyline
 90
20
 70
0
 10
312.710745
 20
370.494136
 30
0.0
 10
312.218747
 20
370.535078
 30
0.0
 10
311.766740
 20
370.732800
 30
0.0
 10
311.402730
 20
371.067321
 30
0.0
 10
311.167724
 20
371.500702
 30
0.0
 10
311.086726
 20
371.987007
 30
0.0
 10
311.167724
 20
372.473316
 30
0.0
 10
311.402730
 20
372.906696
 30
0.0
 10
311.766740
 20
373.241220
 30
0.0
 10
312.218747
 20
373.438936
 30
0.0
 10
312.710745
 20
373.479878
 30
0.0
 10
313.189761
 20
373.359050
 30
0.0
 10
313.602765
 20
373.089435
 30
0.0
 10
313.905787
 20
372.699991
 30
0.0
 10
314.066795
 20
372.233655
 30
0.0
 10
314.066795
 20
371.740359
 30
0.0
 10
313.905787
 20
371.274029
 30
0.0
 10
313.602765
 20
370.884582
 30
0.0
 10
313.189761
 20
370.614964
 30
0.0
 10
312.710745
 20
370.494136
 30
0.0
  0
ENDSEC
  0
SECTION
  2
OBJECTS
  0
DICTIONARY
  5
C
330
0
100
AcDbDictionary
  3
ACAD_GROUP
350
D
  3
ACAD_MLINESTYLE
350
17
  0
DICTIONARY
  5
D
330
C
100
AcDbDictionary
  0
DICTIONARY
  5
1A
330
C
100
AcDbDictionary
  0
DICTIONARY
  5
17
330
C
100
AcDbDictionary
  3
STANDARD
350
18
  0
DICTIONARY
  5
19
330
C
100
AcDbDictionary
  0
ENDSEC
  0
EOF
