  0
SECTION
  2
HEADER
  9
$ACADVER
  1
AC1014
  9
$HANDSEED
  5
FFFF
  9
$MEASUREMENT
 70
     1
  0
ENDSEC
  0
SECTION
  2
TABLES
  0
TABLE
  2
VPORT
  5
8
330
0
100
AcDbSymbolTable
 70
     4
  0
VPORT
  5
2E
330
8
100
AcDbSymbolTableRecord
100
AcDbViewportTableRecord
  2
*ACTIVE
 70
     0
 10
0.0
 20
0.0
 11
1.0
 21
1.0
 12
210.0
 22
148.5
 13
0.0
 23
0.0
 14
10.0
 24
10.0
 15
10.0
 25
10.0
 16
0.0
 26
0.0
 36
1.0
 17
0.0
 27
0.0
 37
0.0
 40
341.0
 41
1.24
 42
50.0
 43
0.0
 44
0.0
 50
0.0
 51
0.0
 71
     0
 72
   100
 73
     1
 74
     3
 75
     0
 76
     0
 77
     0
 78
     0
  0
ENDTAB
  0
TABLE
  2
LTYPE
  5
5
330
0
100
AcDbSymbolTable
 70
     1
  0
LTYPE
  5
14
330
5
100
AcDbSymbolTableRecord
100
AcDbLinetypeTableRecord
  2
BYBLOCK
 70
     0
  3

 72
    65
 73
     0
 40
0.0
  0
LTYPE
  5
15
330
5
100
AcDbSymbolTableRecord
100
AcDbLinetypeTableRecord
  2
BYLAYER
 70
     0
  3

 72
    65
 73
     0
 40
0.0
  0
LTYPE
  5
16
330
5
100
AcDbSymbolTableRecord
100
AcDbLinetypeTableRecord
  2
CONTINUOUS
 70
     0
  3
Solid line
 72
    65
 73
     0
 40
0.0
  0
ENDTAB
  0
TABLE
  2
LAYER
  5
2
100
AcDbSymbolTable
 70
1
  0
LAYER
  5
50
100
AcDbSymbolTableRecord
100
AcDbLayerTableRecord
  2
0
 70
0
  6
CONTINUOUS
  0
ENDTAB
  0
TABLE
  2
STYLE
  5
3
330
0
100
AcDbSymbolTable
 70
     1
  0
STYLE
  5
11
330
3
100
AcDbSymbolTableRecord
100
AcDbTextStyleTableRecord
  2
STANDARD
 70
     0
 40
0.0
 41
1.0
 50
0.0
 71
     0
 42
2.5
  3
txt
  4

  0
ENDTAB
  0
TABLE
  2
VIEW
  5
6
330
0
100
AcDbSymbolTable
 70
     0
  0
ENDTAB
  0
TABLE
  2
UCS
  5
7
330
0
100
AcDbSymbolTable
 70
     0
  0
ENDTAB
  0
TABLE
  2
APPID
  5
9
330
0
100
AcDbSymbolTable
 70
     2
  0
APPID
  5
12
330
9
100
AcDbSymbolTableRecord
100
AcDbRegAppTableRecord
  2
ACAD
 70
     0
  0
ENDTAB
  0
TABLE
  2
DIMSTYLE
  5
A
330
0
100
AcDbSymbolTable
 70
     1
  0
DIMSTYLE
105
27
330
A
100
AcDbSymbolTableRecord
100
AcDbDimStyleTableRecord
  2
ISO-25
 70
     0
  3

  4

  5

  6

  7

 40
1.0
 41
2.5
 42
0.625
 43
3.75
 44
1.25
 45
0.0
 46
0.0
 47
0.0
 48
0.0
140
2.5
141
2.5
142
0.0
143
0.03937007874016
144
1.0
145
0.0
146
1.0
147
0.625
 71
     0
 72
     0
 73
     0
 74
     0
 75
     0
 76
     0
 77
     1
 78
     8
170
     0
171
     3
172
     1
173
     0
174
     0
175
     0
176
     0
177
     0
178
     0
270
     2
271
     2
272
     2
273
     2
274
     3
340
11
275
     0
280
     0
281
     0
282
     0
283
     0
284
     8
285
     0
286
     0
287
     3
288
     0
  0
ENDTAB
  0
TABLE
  2
BLOCK_RECORD
  5
1
330
0
100
AcDbSymbolTable
 70
     1
  0
BLOCK_RECORD
  5
1F
330
1
100
AcDbSymbolTableRecord
100
AcDbBlockTableRecord
  2
*MODEL_SPACE
  0
BLOCK_RECORD
  5
1B
330
1
100
AcDbSymbolTableRecord
100
AcDbBlockTableRecord
  2
*PAPER_SPACE
  0
ENDTAB
  0
ENDSEC
  0
SECTION
  2
BLOCKS
  0
BLOCK
  5
20
330
1F
100
AcDbEntity
  8
0
100
AcDbBlockBegin
  2
*MODEL_SPACE
 70
     0
 10
0.0
 20
0.0
 30
0.0
  3
*MODEL_SPACE
  1

  0
ENDBLK
  5
21
330
1F
100
AcDbEntity
  8
0
100
AcDbBlockEnd
  0
BLOCK
  5
1C
330
1B
100
AcDbEntity
 67
     1
  8
0
100
AcDbBlockBegin
  2
*PAPER_SPACE
  1

  0
ENDBLK
  5
1D
330
1B
100
AcDbEntity
 67
     1
  8
0
100
AcDbBlockEnd
  0
ENDSEC
  0
SECTION
  2
ENTITIES
  0
SPLINE
  5
100
100
AcDbEntity
  8
0
 62
7
100
AcDbSpline
 70
8
 71
3
 72
8
 73
4
 74
0
 40
0
 40
0
 40
0
 40
0
 40
1
 40
1
 40
1
 40
1
 10
38.761111
 20
0.141114
 30
0.0
 10
61.299779
 20
0.143936
 30
0.0
 10
37.273419
 20
0.141114
 30
0.0
 10
43.761110
 20
0.141114
 30
0.0
  0
LWPOLYLINE
  5
101
100
AcDbEntity
  8
0
 62
7
100
AcDbPolyline
 90
75
 70
1
 10
102.696995
 20
278.986117
 30
0.0
 10
102.795993
 20
279.475117
 30
0.0
 10
102.942994
 20
279.951117
 30
0.0
 10
103.135994
 20
280.410117
 30
0.0
 10
103.374994
 20
280.848117
 30
0.0
 10
103.654995
 20
281.260117
 30
0.0
 10
103.975995
 20
281.642117
 30
0.0
 10
104.332995
 20
281.990117
 30
0.0
 10
104.721993
 20
282.301117
 30
0.0
 10
105.140994
 20
282.571117
 30
0.0
 10
105.584995
 20
282.799117
 30
0.0
 10
106.048993
 20
282.981117
 30
0.0
 10
106.527995
 20
283.116117
 30
0.0
 10
107.018994
 20
283.202117
 30
0.0
 10
107.515993
 20
283.239117
 30
0.0
 10
107.640995
 20
283.241121
 30
0.0
 10
347.640995
 20
283.241119
 30
0.0
 10
348.014996
 20
283.227118
 30
0.0
 10
348.508997
 20
283.165118
 30
0.0
 10
348.994984
 20
283.054118
 30
0.0
 10
349.467988
 20
282.895118
 30
0.0
 10
349.921999
 20
282.690118
 30
0.0
 10
350.353997
 20
282.441118
 30
0.0
 10
350.757998
 20
282.150118
 30
0.0
 10
351.131999
 20
281.820118
 30
0.0
 10
351.471004
 20
281.455118
 30
0.0
 10
351.771994
 20
281.058118
 30
0.0
 10
352.032006
 20
280.632118
 30
0.0
 10
352.247990
 20
280.183118
 30
0.0
 10
352.418989
 20
279.715118
 30
0.0
 10
352.542009
 20
279.232118
 30
0.0
 10
352.616008
 20
278.739118
 30
0.0
 10
352.641126
 20
278.241118
 30
0.0
 10
352.641126
 20
0.141114
 30
0.0
 10
468.641120
 20
0.141114
 30
0.0
 10
468.641120
 20
359.141118
 30
0.0
 10
468.546124
 20
361.320119
 30
0.0
 10
468.261107
 20
363.482116
 30
0.0
 10
467.789119
 20
365.611119
 30
0.0
 10
467.133122
 20
367.691119
 30
0.0
 10
466.299127
 20
369.706118
 30
0.0
 10
465.292101
 20
371.641118
 30
0.0
 10
464.120117
 20
373.480118
 30
0.0
 10
462.792120
 20
375.211120
 30
0.0
 10
461.319118
 20
376.819117
 30
0.0
 10
459.711100
 20
378.292117
 30
0.0
 10
457.980119
 20
379.620116
 30
0.0
 10
456.141102
 20
380.792120
 30
0.0
 10
454.206102
 20
381.799120
 30
0.0
 10
452.191120
 20
382.633118
 30
0.0
 10
450.111114
 20
383.289118
 30
0.0
 10
447.982114
 20
383.761118
 30
0.0
 10
445.820123
 20
384.046117
 30
0.0
 10
443.641113
 20
384.141119
 30
0.0
 10
25.141109
 20
384.141119
 30
0.0
 10
22.962111
 20
384.046117
 30
0.0
 10
20.800111
 20
383.761118
 30
0.0
 10
18.671108
 20
383.289118
 30
0.0
 10
16.591110
 20
382.633118
 30
0.0
 10
14.576109
 20
381.799120
 30
0.0
 10
12.641109
 20
380.792120
 30
0.0
 10
10.802109
 20
379.620116
 30
0.0
 10
9.071110
 20
378.292117
 30
0.0
 10
7.463110
 20
376.819117
 30
0.0
 10
5.990110
 20
375.211120
 30
0.0
 10
4.662111
 20
373.480118
 30
0.0
 10
3.490109
 20
371.641118
 30
0.0
 10
2.483109
 20
369.706118
 30
0.0
 10
1.649109
 20
367.691119
 30
0.0
 10
0.993109
 20
365.611119
 30
0.0
 10
0.521109
 20
363.482116
 30
0.0
 10
0.236110
 20
361.320119
 30
0.0
 10
0.141111
 20
359.141118
 30
0.0
 10
0.141111
 20
0.141114
 30
0.0
 10
38.761111
 20
0.141114
 30
0.0
  0
LWPOLYLINE
  5
102
100
AcDbEntity
  8
0
 62
7
100
AcDbPolyline
 90
7
 70
1
 10
43.761110
 20
0.141114
 30
0.0
 10
102.641109
 20
0.141114
 30
0.0
 10
102.641109
 20
278.241118
 30
0.0
 10
102.647121
 20
278.490118
 30
0.0
 10
102.697108
 20
278.986117
 30
0.0
 10
102.697108
 20
278.986117
 30
0.0
 10
102.696995
 20
278.986117
 30
0.0
  0
LWPOLYLINE
  5
103
100
AcDbEntity
  8
0
 62
7
100
AcDbPolyline
 90
33
 70
1
 10
71.680993
 20
378.786122
 30
0.0
 10
72.145993
 20
378.623116
 30
0.0
 10
72.562994
 20
378.361115
 30
0.0
 10
72.910994
 20
378.013115
 30
0.0
 10
73.172995
 20
377.596115
 30
0.0
 10
73.335995
 20
377.131114
 30
0.0
 10
73.390994
 20
376.641114
 30
0.0
 10
73.335995
 20
376.151114
 30
0.0
 10
73.172995
 20
375.686114
 30
0.0
 10
72.910994
 20
375.269116
 30
0.0
 10
72.562994
 20
374.921116
 30
0.0
 10
72.145993
 20
374.659115
 30
0.0
 10
71.680993
 20
374.496115
 30
0.0
 10
71.190993
 20
374.441121
 30
0.0
 10
70.700993
 20
374.496115
 30
0.0
 10
70.235995
 20
374.659115
 30
0.0
 10
69.818995
 20
374.921116
 30
0.0
 10
69.470992
 20
375.269116
 30
0.0
 10
69.208994
 20
375.686114
 30
0.0
 10
69.045994
 20
376.151114
 30
0.0
 10
68.990995
 20
376.641114
 30
0.0
 10
69.045994
 20
377.131114
 30
0.0
 10
69.208994
 20
377.596115
 30
0.0
 10
69.470992
 20
378.013115
 30
0.0
 10
69.818995
 20
378.361115
 30
0.0
 10
70.235995
 20
378.623116
 30
0.0
 10
70.700993
 20
378.786122
 30
0.0
 10
71.190993
 20
378.841115
 30
0.0
 10
71.680993
 20
378.786122
 30
0.0
 10
71.680993
 20
378.786122
 30
0.0
 10
71.680993
 20
378.786122
 30
0.0
 10
71.680993
 20
378.786122
 30
0.0
 10
71.680993
 20
378.786122
 30
0.0
  0
LWPOLYLINE
  5
104
100
AcDbEntity
  8
0
 62
7
100
AcDbPolyline
 90
33
 70
1
 10
362.236004
 20
377.131114
 30
0.0
 10
362.291009
 20
376.641114
 30
0.0
 10
362.236004
 20
376.151114
 30
0.0
 10
362.072992
 20
375.686114
 30
0.0
 10
361.811006
 20
375.269116
 30
0.0
 10
361.462997
 20
374.921116
 30
0.0
 10
361.045986
 20
374.659115
 30
0.0
 10
360.580996
 20
374.496115
 30
0.0
 10
360.091002
 20
374.441121
 30
0.0
 10
359.601008
 20
374.496115
 30
0.0
 10
359.135990
 20
374.659115
 30
0.0
 10
358.719007
 20
374.921116
 30
0.0
 10
358.370999
 20
375.269116
 30
0.0
 10
358.109012
 20
375.686114
 30
0.0
 10
357.946000
 20
376.151114
 30
0.0
 10
357.890995
 20
376.641114
 30
0.0
 10
357.946000
 20
377.131114
 30
0.0
 10
358.109012
 20
377.596115
 30
0.0
 10
358.370999
 20
378.013115
 30
0.0
 10
358.719007
 20
378.361115
 30
0.0
 10
359.135990
 20
378.623116
 30
0.0
 10
359.601008
 20
378.786122
 30
0.0
 10
360.091002
 20
378.841115
 30
0.0
 10
360.580996
 20
378.786122
 30
0.0
 10
361.045986
 20
378.623116
 30
0.0
 10
361.462997
 20
378.361115
 30
0.0
 10
361.811006
 20
378.013115
 30
0.0
 10
362.072992
 20
377.596115
 30
0.0
 10
362.236004
 20
377.131114
 30
0.0
 10
362.236004
 20
377.131114
 30
0.0
 10
362.236004
 20
377.131114
 30
0.0
 10
362.236004
 20
377.131114
 30
0.0
 10
362.236004
 20
377.131114
 30
0.0
  0
LWPOLYLINE
  5
105
100
AcDbEntity
  8
0
 62
7
100
AcDbPolyline
 90
33
 70
1
 10
38.890993
 20
376.641114
 30
0.0
 10
38.945995
 20
377.131114
 30
0.0
 10
39.108995
 20
377.596115
 30
0.0
 10
39.370993
 20
378.013115
 30
0.0
 10
39.718993
 20
378.361115
 30
0.0
 10
40.135993
 20
378.623116
 30
0.0
 10
40.600994
 20
378.786122
 30
0.0
 10
41.090994
 20
378.841115
 30
0.0
 10
41.580994
 20
378.786122
 30
0.0
 10
42.045994
 20
378.623116
 30
0.0
 10
42.462995
 20
378.361115
 30
0.0
 10
42.810994
 20
378.013115
 30
0.0
 10
43.072995
 20
377.596115
 30
0.0
 10
43.235993
 20
377.131114
 30
0.0
 10
43.290995
 20
376.641114
 30
0.0
 10
43.235993
 20
376.151114
 30
0.0
 10
43.072995
 20
375.686114
 30
0.0
 10
42.810994
 20
375.269116
 30
0.0
 10
42.462995
 20
374.921116
 30
0.0
 10
42.045994
 20
374.659115
 30
0.0
 10
41.580994
 20
374.496115
 30
0.0
 10
41.090994
 20
374.441121
 30
0.0
 10
40.600994
 20
374.496115
 30
0.0
 10
40.135993
 20
374.659115
 30
0.0
 10
39.718993
 20
374.921116
 30
0.0
 10
39.370993
 20
375.269116
 30
0.0
 10
39.108995
 20
375.686114
 30
0.0
 10
38.945995
 20
376.151114
 30
0.0
 10
38.890993
 20
376.641114
 30
0.0
 10
38.890993
 20
376.641114
 30
0.0
 10
38.890993
 20
376.641114
 30
0.0
 10
38.890993
 20
376.641114
 30
0.0
 10
38.890993
 20
376.641114
 30
0.0
  0
LWPOLYLINE
  5
106
100
AcDbEntity
  8
0
 62
7
100
AcDbPolyline
 90
33
 70
1
 10
392.335992
 20
377.131114
 30
0.0
 10
392.390997
 20
376.641114
 30
0.0
 10
392.335992
 20
376.151114
 30
0.0
 10
392.173008
 20
375.686114
 30
0.0
 10
391.910993
 20
375.269116
 30
0.0
 10
391.562985
 20
374.921116
 30
0.0
 10
391.146002
 20
374.659115
 30
0.0
 10
390.680984
 20
374.496115
 30
0.0
 10
390.190990
 20
374.441121
 30
0.0
 10
389.700996
 20
374.496115
 30
0.0
 10
389.236006
 20
374.659115
 30
0.0
 10
388.818995
 20
374.921116
 30
0.0
 10
388.470987
 20
375.269116
 30
0.0
 10
388.209000
 20
375.686114
 30
0.0
 10
388.045988
 20
376.151114
 30
0.0
 10
387.991011
 20
376.641114
 30
0.0
 10
388.045988
 20
377.131114
 30
0.0
 10
388.209000
 20
377.596115
 30
0.0
 10
388.470987
 20
378.013115
 30
0.0
 10
388.818995
 20
378.361115
 30
0.0
 10
389.236006
 20
378.623116
 30
0.0
 10
389.700996
 20
378.786122
 30
0.0
 10
390.190990
 20
378.841115
 30
0.0
 10
390.680984
 20
378.786122
 30
0.0
 10
391.146002
 20
378.623116
 30
0.0
 10
391.562985
 20
378.361115
 30
0.0
 10
391.910993
 20
378.013115
 30
0.0
 10
392.173008
 20
377.596115
 30
0.0
 10
392.335992
 20
377.131114
 30
0.0
 10
392.335992
 20
377.131114
 30
0.0
 10
392.335992
 20
377.131114
 30
0.0
 10
392.335992
 20
377.131114
 30
0.0
 10
392.335992
 20
377.131114
 30
0.0
  0
LWPOLYLINE
  5
107
100
AcDbEntity
  8
0
 62
7
100
AcDbPolyline
 90
23
 70
1
 10
450.725004
 20
365.025118
 30
0.0
 10
450.995994
 20
364.619116
 30
0.0
 10
451.090990
 20
364.141119
 30
0.0
 10
450.995994
 20
363.663114
 30
0.0
 10
450.725004
 20
363.257120
 30
0.0
 10
450.318999
 20
362.986114
 30
0.0
 10
449.840999
 20
362.891115
 30
0.0
 10
422.441003
 20
362.891115
 30
0.0
 10
421.963003
 20
362.986114
 30
0.0
 10
421.556998
 20
363.257120
 30
0.0
 10
421.286009
 20
363.663114
 30
0.0
 10
421.190984
 20
364.141119
 30
0.0
 10
421.286009
 20
364.619116
 30
0.0
 10
421.556998
 20
365.025118
 30
0.0
 10
421.963003
 20
365.296114
 30
0.0
 10
422.441003
 20
365.391115
 30
0.0
 10
449.840999
 20
365.391115
 30
0.0
 10
450.318999
 20
365.296114
 30
0.0
 10
450.725004
 20
365.025118
 30
0.0
 10
450.725004
 20
365.025118
 30
0.0
 10
450.725004
 20
365.025118
 30
0.0
 10
450.725004
 20
365.025118
 30
0.0
 10
450.725004
 20
365.025118
 30
0.0
  0
LWPOLYLINE
  5
108
100
AcDbEntity
  8
0
 62
7
100
AcDbPolyline
 90
33
 70
1
 10
455.685991
 20
353.781114
 30
0.0
 10
455.740996
 20
353.291114
 30
0.0
 10
455.685991
 20
352.801114
 30
0.0
 10
455.523007
 20
352.336119
 30
0.0
 10
455.260992
 20
351.919116
 30
0.0
 10
454.912984
 20
351.571119
 30
0.0
 10
454.496001
 20
351.309118
 30
0.0
 10
454.031011
 20
351.146115
 30
0.0
 10
453.540989
 20
351.091116
 30
0.0
 10
453.050995
 20
351.146115
 30
0.0
 10
452.586005
 20
351.309118
 30
0.0
 10
452.168994
 20
351.571119
 30
0.0
 10
451.820986
 20
351.919116
 30
0.0
 10
451.558999
 20
352.336119
 30
0.0
 10
451.395987
 20
352.801114
 30
0.0
 10
451.341010
 20
353.291114
 30
0.0
 10
451.395987
 20
353.781114
 30
0.0
 10
451.558999
 20
354.246120
 30
0.0
 10
451.820986
 20
354.663115
 30
0.0
 10
452.168994
 20
355.011120
 30
0.0
 10
452.586005
 20
355.273121
 30
0.0
 10
453.050995
 20
355.436116
 30
0.0
 10
453.540989
 20
355.491118
 30
0.0
 10
454.031011
 20
355.436116
 30
0.0
 10
454.496001
 20
355.273121
 30
0.0
 10
454.912984
 20
355.011120
 30
0.0
 10
455.260992
 20
354.663115
 30
0.0
 10
455.523007
 20
354.246120
 30
0.0
 10
455.685991
 20
353.781114
 30
0.0
 10
455.685991
 20
353.781114
 30
0.0
 10
455.685991
 20
353.781114
 30
0.0
 10
455.685991
 20
353.781114
 30
0.0
 10
455.685991
 20
353.781114
 30
0.0
  0
LWPOLYLINE
  5
109
100
AcDbEntity
  8
0
 62
7
100
AcDbPolyline
 90
33
 70
1
 10
416.758995
 20
352.336119
 30
0.0
 10
416.595983
 20
352.801114
 30
0.0
 10
416.541006
 20
353.291114
 30
0.0
 10
416.595983
 20
353.781114
 30
0.0
 10
416.758995
 20
354.246120
 30
0.0
 10
417.021010
 20
354.663115
 30
0.0
 10
417.368990
 20
355.011120
 30
0.0
 10
417.786002
 20
355.273121
 30
0.0
 10
418.250991
 20
355.436116
 30
0.0
 10
418.740985
 20
355.491118
 30
0.0
 10
419.231008
 20
355.436116
 30
0.0
 10
419.695997
 20
355.273121
 30
0.0
 10
420.113008
 20
355.011120
 30
0.0
 10
420.460988
 20
354.663115
 30
0.0
 10
420.723004
 20
354.246120
 30
0.0
 10
420.885987
 20
353.781114
 30
0.0
 10
420.940992
 20
353.291114
 30
0.0
 10
420.885987
 20
352.801114
 30
0.0
 10
420.723004
 20
352.336119
 30
0.0
 10
420.460988
 20
351.919116
 30
0.0
 10
420.113008
 20
351.571119
 30
0.0
 10
419.695997
 20
351.309118
 30
0.0
 10
419.231008
 20
351.146115
 30
0.0
 10
418.740985
 20
351.091116
 30
0.0
 10
418.250991
 20
351.146115
 30
0.0
 10
417.786002
 20
351.309118
 30
0.0
 10
417.368990
 20
351.571119
 30
0.0
 10
417.021010
 20
351.919116
 30
0.0
 10
416.758995
 20
352.336119
 30
0.0
 10
416.758995
 20
352.336119
 30
0.0
 10
416.758995
 20
352.336119
 30
0.0
 10
416.758995
 20
352.336119
 30
0.0
 10
416.758995
 20
352.336119
 30
0.0
  0
LWPOLYLINE
  5
10a
100
AcDbEntity
  8
0
 62
7
100
AcDbPolyline
 90
33
 70
1
 10
60.245995
 20
349.941114
 30
0.0
 10
60.190995
 20
350.431119
 30
0.0
 10
60.245995
 20
350.921114
 30
0.0
 10
60.408995
 20
351.386114
 30
0.0
 10
60.670993
 20
351.803117
 30
0.0
 10
61.018993
 20
352.151114
 30
0.0
 10
61.435993
 20
352.413115
 30
0.0
 10
61.900994
 20
352.576118
 30
0.0
 10
62.390994
 20
352.631115
 30
0.0
 10
62.880994
 20
352.576118
 30
0.0
 10
63.345994
 20
352.413115
 30
0.0
 10
63.762994
 20
352.151114
 30
0.0
 10
64.110994
 20
351.803117
 30
0.0
 10
64.372995
 20
351.386114
 30
0.0
 10
64.535993
 20
350.921114
 30
0.0
 10
64.590995
 20
350.431119
 30
0.0
 10
64.535993
 20
349.941114
 30
0.0
 10
64.372995
 20
349.476116
 30
0.0
 10
64.110994
 20
349.059116
 30
0.0
 10
63.762994
 20
348.711116
 30
0.0
 10
63.345994
 20
348.449115
 30
0.0
 10
62.880994
 20
348.286115
 30
0.0
 10
62.390994
 20
348.231115
 30
0.0
 10
61.900994
 20
348.286115
 30
0.0
 10
61.435993
 20
348.449115
 30
0.0
 10
61.018993
 20
348.711116
 30
0.0
 10
60.670993
 20
349.059116
 30
0.0
 10
60.408995
 20
349.476116
 30
0.0
 10
60.245995
 20
349.941114
 30
0.0
 10
60.245995
 20
349.941114
 30
0.0
 10
60.245995
 20
349.941114
 30
0.0
 10
60.245995
 20
349.941114
 30
0.0
 10
60.245995
 20
349.941114
 30
0.0
  0
LWPOLYLINE
  5
10b
100
AcDbEntity
  8
0
 62
7
100
AcDbPolyline
 90
33
 70
1
 10
363.610991
 20
349.059116
 30
0.0
 10
363.262982
 20
348.711116
 30
0.0
 10
362.845999
 20
348.449115
 30
0.0
 10
362.381010
 20
348.286115
 30
0.0
 10
361.890987
 20
348.231115
 30
0.0
 10
361.400993
 20
348.286115
 30
0.0
 10
360.936004
 20
348.449115
 30
0.0
 10
360.518992
 20
348.711116
 30
0.0
 10
360.170984
 20
349.059116
 30
0.0
 10
359.908997
 20
349.476116
 30
0.0
 10
359.745986
 20
349.941114
 30
0.0
 10
359.691009
 20
350.431119
 30
0.0
 10
359.745986
 20
350.921114
 30
0.0
 10
359.908997
 20
351.386114
 30
0.0
 10
360.170984
 20
351.803117
 30
0.0
 10
360.518992
 20
352.151114
 30
0.0
 10
360.936004
 20
352.413115
 30
0.0
 10
361.400993
 20
352.576118
 30
0.0
 10
361.890987
 20
352.631115
 30
0.0
 10
362.381010
 20
352.576118
 30
0.0
 10
362.845999
 20
352.413115
 30
0.0
 10
363.262982
 20
352.151114
 30
0.0
 10
363.610991
 20
351.803117
 30
0.0
 10
363.873006
 20
351.386114
 30
0.0
 10
364.035989
 20
350.921114
 30
0.0
 10
364.090994
 20
350.431119
 30
0.0
 10
364.035989
 20
349.941114
 30
0.0
 10
363.873006
 20
349.476116
 30
0.0
 10
363.610991
 20
349.059116
 30
0.0
 10
363.610991
 20
349.059116
 30
0.0
 10
363.610991
 20
349.059116
 30
0.0
 10
363.610991
 20
349.059116
 30
0.0
 10
363.610991
 20
349.059116
 30
0.0
  0
LWPOLYLINE
  5
10c
100
AcDbEntity
  8
0
 62
7
100
AcDbPolyline
 90
35
 70
1
 10
379.573000
 20
66.595616
 30
0.0
 10
379.736011
 20
66.130618
 30
0.0
 10
379.790988
 20
65.641115
 30
0.0
 10
379.790988
 20
56.641116
 30
0.0
 10
379.736011
 20
56.151622
 30
0.0
 10
379.573000
 20
55.686519
 30
0.0
 10
379.310985
 20
55.269420
 30
0.0
 10
378.963005
 20
54.921121
 30
0.0
 10
378.545993
 20
54.659016
 30
0.0
 10
378.081004
 20
54.496216
 30
0.0
 10
377.590981
 20
54.441115
 30
0.0
 10
377.100987
 20
54.496216
 30
0.0
 10
376.635998
 20
54.659016
 30
0.0
 10
376.218986
 20
54.921121
 30
0.0
 10
375.871006
 20
55.269420
 30
0.0
 10
375.608991
 20
55.686519
 30
0.0
 10
375.446008
 20
56.151622
 30
0.0
 10
375.391003
 20
56.641116
 30
0.0
 10
375.391003
 20
65.641115
 30
0.0
 10
375.446008
 20
66.130618
 30
0.0
 10
375.608991
 20
66.595616
 30
0.0
 10
375.871006
 20
67.012820
 30
0.0
 10
376.218986
 20
67.361121
 30
0.0
 10
376.635998
 20
67.623218
 30
0.0
 10
377.100987
 20
67.785919
 30
0.0
 10
377.590981
 20
67.841114
 30
0.0
 10
378.081004
 20
67.785919
 30
0.0
 10
378.545993
 20
67.623218
 30
0.0
 10
378.963005
 20
67.361121
 30
0.0
 10
379.310985
 20
67.012820
 30
0.0
 10
379.573000
 20
66.595616
 30
0.0
 10
379.573000
 20
66.595616
 30
0.0
 10
379.573000
 20
66.595616
 30
0.0
 10
379.573000
 20
66.595616
 30
0.0
 10
379.573000
 20
66.595616
 30
0.0
  0
LWPOLYLINE
  5
10d
100
AcDbEntity
  8
0
 62
7
100
AcDbPolyline
 90
35
 70
1
 10
16.100995
 20
54.496216
 30
0.0
 10
15.635994
 20
54.659016
 30
0.0
 10
15.218994
 20
54.921121
 30
0.0
 10
14.870994
 20
55.269420
 30
0.0
 10
14.608993
 20
55.686519
 30
0.0
 10
14.445993
 20
56.151622
 30
0.0
 10
14.390993
 20
56.641116
 30
0.0
 10
14.390993
 20
65.641115
 30
0.0
 10
14.445993
 20
66.130618
 30
0.0
 10
14.608993
 20
66.595616
 30
0.0
 10
14.870994
 20
67.012820
 30
0.0
 10
15.218994
 20
67.361121
 30
0.0
 10
15.635994
 20
67.623218
 30
0.0
 10
16.100995
 20
67.785919
 30
0.0
 10
16.590995
 20
67.841114
 30
0.0
 10
17.080995
 20
67.785919
 30
0.0
 10
17.545992
 20
67.623218
 30
0.0
 10
17.962993
 20
67.361121
 30
0.0
 10
18.310995
 20
67.012820
 30
0.0
 10
18.572993
 20
66.595616
 30
0.0
 10
18.735994
 20
66.130618
 30
0.0
 10
18.790993
 20
65.641115
 30
0.0
 10
18.790993
 20
56.641116
 30
0.0
 10
18.735994
 20
56.151622
 30
0.0
 10
18.572993
 20
55.686519
 30
0.0
 10
18.310995
 20
55.269420
 30
0.0
 10
17.962993
 20
54.921121
 30
0.0
 10
17.545992
 20
54.659016
 30
0.0
 10
17.080995
 20
54.496216
 30
0.0
 10
16.590995
 20
54.441115
 30
0.0
 10
16.100995
 20
54.496216
 30
0.0
 10
16.100995
 20
54.496216
 30
0.0
 10
16.100995
 20
54.496216
 30
0.0
 10
16.100995
 20
54.496216
 30
0.0
 10
16.100995
 20
54.496216
 30
0.0
  0
LWPOLYLINE
  5
10e
100
AcDbEntity
  8
0
 62
7
100
AcDbPolyline
 90
35
 70
1
 10
409.411001
 20
55.269420
 30
0.0
 10
409.062992
 20
54.921121
 30
0.0
 10
408.646009
 20
54.659016
 30
0.0
 10
408.180992
 20
54.496216
 30
0.0
 10
407.690997
 20
54.441115
 30
0.0
 10
407.201003
 20
54.496216
 30
0.0
 10
406.735986
 20
54.659016
 30
0.0
 10
406.319002
 20
54.921121
 30
0.0
 10
405.970994
 20
55.269420
 30
0.0
 10
405.709007
 20
55.686519
 30
0.0
 10
405.545996
 20
56.151622
 30
0.0
 10
405.490990
 20
56.641116
 30
0.0
 10
405.490990
 20
65.641115
 30
0.0
 10
405.545996
 20
66.130618
 30
0.0
 10
405.709007
 20
66.595616
 30
0.0
 10
405.970994
 20
67.012820
 30
0.0
 10
406.319002
 20
67.361121
 30
0.0
 10
406.735986
 20
67.623218
 30
0.0
 10
407.201003
 20
67.785919
 30
0.0
 10
407.690997
 20
67.841114
 30
0.0
 10
408.180992
 20
67.785919
 30
0.0
 10
408.646009
 20
67.623218
 30
0.0
 10
409.062992
 20
67.361121
 30
0.0
 10
409.411001
 20
67.012820
 30
0.0
 10
409.672988
 20
66.595616
 30
0.0
 10
409.835999
 20
66.130618
 30
0.0
 10
409.891004
 20
65.641115
 30
0.0
 10
409.891004
 20
56.641116
 30
0.0
 10
409.835999
 20
56.151622
 30
0.0
 10
409.672988
 20
55.686519
 30
0.0
 10
409.411001
 20
55.269420
 30
0.0
 10
409.411001
 20
55.269420
 30
0.0
 10
409.411001
 20
55.269420
 30
0.0
 10
409.411001
 20
55.269420
 30
0.0
 10
409.411001
 20
55.269420
 30
0.0
  0
LWPOLYLINE
  5
10f
100
AcDbEntity
  8
0
 62
7
100
AcDbPolyline
 90
35
 70
1
 10
46.690994
 20
67.841114
 30
0.0
 10
47.180994
 20
67.785919
 30
0.0
 10
47.645995
 20
67.623218
 30
0.0
 10
48.062995
 20
67.361121
 30
0.0
 10
48.410995
 20
67.012820
 30
0.0
 10
48.672993
 20
66.595616
 30
0.0
 10
48.835993
 20
66.130618
 30
0.0
 10
48.890995
 20
65.641115
 30
0.0
 10
48.890995
 20
56.641116
 30
0.0
 10
48.835993
 20
56.151622
 30
0.0
 10
48.672993
 20
55.686519
 30
0.0
 10
48.410995
 20
55.269420
 30
0.0
 10
48.062995
 20
54.921121
 30
0.0
 10
47.645995
 20
54.659016
 30
0.0
 10
47.180994
 20
54.496216
 30
0.0
 10
46.690994
 20
54.441115
 30
0.0
 10
46.200994
 20
54.496216
 30
0.0
 10
45.735994
 20
54.659016
 30
0.0
 10
45.318993
 20
54.921121
 30
0.0
 10
44.970994
 20
55.269420
 30
0.0
 10
44.708993
 20
55.686519
 30
0.0
 10
44.545995
 20
56.151622
 30
0.0
 10
44.490993
 20
56.641116
 30
0.0
 10
44.490993
 20
65.641115
 30
0.0
 10
44.545995
 20
66.130618
 30
0.0
 10
44.708993
 20
66.595616
 30
0.0
 10
44.970994
 20
67.012820
 30
0.0
 10
45.318993
 20
67.361121
 30
0.0
 10
45.735994
 20
67.623218
 30
0.0
 10
46.200994
 20
67.785919
 30
0.0
 10
46.690994
 20
67.841114
 30
0.0
 10
46.690994
 20
67.841114
 30
0.0
 10
46.690994
 20
67.841114
 30
0.0
 10
46.690994
 20
67.841114
 30
0.0
 10
46.690994
 20
67.841114
 30
0.0
  0
LWPOLYLINE
  5
110
100
AcDbEntity
  8
0
 62
7
100
AcDbPolyline
 90
33
 70
1
 10
363.610991
 20
32.479414
 30
0.0
 10
363.262982
 20
32.131115
 30
0.0
 10
362.845999
 20
31.869018
 30
0.0
 10
362.381010
 20
31.706314
 30
0.0
 10
361.890987
 20
31.651117
 30
0.0
 10
361.400993
 20
31.706314
 30
0.0
 10
360.936004
 20
31.869018
 30
0.0
 10
360.518992
 20
32.131115
 30
0.0
 10
360.170984
 20
32.479414
 30
0.0
 10
359.908997
 20
32.896516
 30
0.0
 10
359.745986
 20
33.361520
 30
0.0
 10
359.691009
 20
33.851122
 30
0.0
 10
359.745986
 20
34.340616
 30
0.0
 10
359.908997
 20
34.805620
 30
0.0
 10
360.170984
 20
35.222815
 30
0.0
 10
360.518992
 20
35.571116
 30
0.0
 10
360.936004
 20
35.833216
 30
0.0
 10
361.400993
 20
35.995914
 30
0.0
 10
361.890987
 20
36.051114
 30
0.0
 10
362.381010
 20
35.995914
 30
0.0
 10
362.845999
 20
35.833216
 30
0.0
 10
363.262982
 20
35.571116
 30
0.0
 10
363.610991
 20
35.222815
 30
0.0
 10
363.873006
 20
34.805620
 30
0.0
 10
364.035989
 20
34.340616
 30
0.0
 10
364.090994
 20
33.851122
 30
0.0
 10
364.035989
 20
33.361520
 30
0.0
 10
363.873006
 20
32.896516
 30
0.0
 10
363.610991
 20
32.479414
 30
0.0
 10
363.610991
 20
32.479414
 30
0.0
 10
363.610991
 20
32.479414
 30
0.0
 10
363.610991
 20
32.479414
 30
0.0
 10
363.610991
 20
32.479414
 30
0.0
  0
LWPOLYLINE
  5
111
100
AcDbEntity
  8
0
 62
7
100
AcDbPolyline
 90
33
 70
1
 10
61.018993
 20
35.571116
 30
0.0
 10
61.435993
 20
35.833216
 30
0.0
 10
61.900994
 20
35.995914
 30
0.0
 10
62.390994
 20
36.051114
 30
0.0
 10
62.880994
 20
35.995914
 30
0.0
 10
63.345994
 20
35.833216
 30
0.0
 10
63.762994
 20
35.571116
 30
0.0
 10
64.110994
 20
35.222815
 30
0.0
 10
64.372995
 20
34.805620
 30
0.0
 10
64.535993
 20
34.340616
 30
0.0
 10
64.590995
 20
33.851122
 30
0.0
 10
64.535993
 20
33.361520
 30
0.0
 10
64.372995
 20
32.896516
 30
0.0
 10
64.110994
 20
32.479414
 30
0.0
 10
63.762994
 20
32.131115
 30
0.0
 10
63.345994
 20
31.869018
 30
0.0
 10
62.880994
 20
31.706314
 30
0.0
 10
62.390994
 20
31.651117
 30
0.0
 10
61.900994
 20
31.706314
 30
0.0
 10
61.435993
 20
31.869018
 30
0.0
 10
61.018993
 20
32.131115
 30
0.0
 10
60.670993
 20
32.479414
 30
0.0
 10
60.408995
 20
32.896516
 30
0.0
 10
60.245995
 20
33.361520
 30
0.0
 10
60.190995
 20
33.851122
 30
0.0
 10
60.245995
 20
34.340616
 30
0.0
 10
60.408995
 20
34.805620
 30
0.0
 10
60.670993
 20
35.222815
 30
0.0
 10
61.018993
 20
35.571116
 30
0.0
 10
61.018993
 20
35.571116
 30
0.0
 10
61.018993
 20
35.571116
 30
0.0
 10
61.018993
 20
35.571116
 30
0.0
 10
61.018993
 20
35.571116
 30
0.0
  0
LWPOLYLINE
  5
112
100
AcDbEntity
  8
0
 62
7
100
AcDbPolyline
 90
37
 70
1
 10
391.308985
 20
17.553420
 30
0.0
 10
391.261007
 20
18.041114
 30
0.0
 10
391.308985
 20
18.528814
 30
0.0
 10
391.450999
 20
18.997820
 30
0.0
 10
391.681998
 20
19.430020
 30
0.0
 10
391.993007
 20
19.808915
 30
0.0
 10
392.372003
 20
20.119819
 30
0.0
 10
392.804001
 20
20.350818
 30
0.0
 10
393.272998
 20
20.493120
 30
0.0
 10
393.760988
 20
20.541115
 30
0.0
 10
394.249007
 20
20.493120
 30
0.0
 10
394.718004
 20
20.350818
 30
0.0
 10
395.150001
 20
20.119819
 30
0.0
 10
395.528998
 20
19.808915
 30
0.0
 10
395.840006
 20
19.430020
 30
0.0
 10
396.071005
 20
18.997820
 30
0.0
 10
396.212991
 20
18.528814
 30
0.0
 10
396.260997
 20
18.041114
 30
0.0
 10
396.212991
 20
17.553420
 30
0.0
 10
396.071005
 20
17.084421
 30
0.0
 10
395.840006
 20
16.652214
 30
0.0
 10
395.528998
 20
16.273320
 30
0.0
 10
395.150001
 20
15.962415
 30
0.0
 10
394.718004
 20
15.731416
 30
0.0
 10
394.249007
 20
15.589114
 30
0.0
 10
393.760988
 20
15.541119
 30
0.0
 10
393.272998
 20
15.589114
 30
0.0
 10
392.804001
 20
15.731416
 30
0.0
 10
392.372003
 20
15.962415
 30
0.0
 10
391.993007
 20
16.273320
 30
0.0
 10
391.681998
 20
16.652214
 30
0.0
 10
391.450999
 20
17.084421
 30
0.0
 10
391.308985
 20
17.553420
 30
0.0
 10
391.308985
 20
17.553420
 30
0.0
 10
391.308985
 20
17.553420
 30
0.0
 10
391.308985
 20
17.553420
 30
0.0
 10
391.308985
 20
17.553420
 30
0.0
  0
LWPOLYLINE
  5
113
100
AcDbEntity
  8
0
 62
7
100
AcDbPolyline
 90
33
 70
1
 10
73.220995
 20
5.141104
 30
0.0
 10
72.730995
 20
5.196250
 30
0.0
 10
72.265994
 20
5.358979
 30
0.0
 10
71.848994
 20
5.621079
 30
0.0
 10
71.500994
 20
5.969426
 30
0.0
 10
71.238993
 20
6.386550
 30
0.0
 10
71.075993
 20
6.851568
 30
0.0
 10
71.020994
 20
7.341110
 30
0.0
 10
71.075993
 20
7.830653
 30
0.0
 10
71.238993
 20
8.295642
 30
0.0
 10
71.500994
 20
8.712795
 30
0.0
 10
71.848994
 20
9.061142
 30
0.0
 10
72.265994
 20
9.323242
 30
0.0
 10
72.730995
 20
9.485943
 30
0.0
 10
73.220995
 20
9.541089
 30
0.0
 10
73.710995
 20
9.485943
 30
0.0
 10
74.175993
 20
9.323242
 30
0.0
 10
74.592993
 20
9.061142
 30
0.0
 10
74.940993
 20
8.712795
 30
0.0
 10
75.202994
 20
8.295642
 30
0.0
 10
75.365994
 20
7.830653
 30
0.0
 10
75.420993
 20
7.341110
 30
0.0
 10
75.365994
 20
6.851568
 30
0.0
 10
75.202994
 20
6.386550
 30
0.0
 10
74.940993
 20
5.969426
 30
0.0
 10
74.592993
 20
5.621079
 30
0.0
 10
74.175993
 20
5.358979
 30
0.0
 10
73.710995
 20
5.196250
 30
0.0
 10
73.220995
 20
5.141104
 30
0.0
 10
73.220995
 20
5.141104
 30
0.0
 10
73.220995
 20
5.141104
 30
0.0
 10
73.220995
 20
5.141104
 30
0.0
 10
73.220995
 20
5.141104
 30
0.0
  0
LWPOLYLINE
  5
114
100
AcDbEntity
  8
0
 62
7
100
AcDbPolyline
 90
33
 70
1
 10
9.330995
 20
5.196250
 30
0.0
 10
8.840995
 20
5.141104
 30
0.0
 10
8.350995
 20
5.196250
 30
0.0
 10
7.885994
 20
5.358979
 30
0.0
 10
7.468994
 20
5.621079
 30
0.0
 10
7.120994
 20
5.969426
 30
0.0
 10
6.858993
 20
6.386550
 30
0.0
 10
6.695993
 20
6.851568
 30
0.0
 10
6.640993
 20
7.341110
 30
0.0
 10
6.695993
 20
7.830653
 30
0.0
 10
6.858993
 20
8.295642
 30
0.0
 10
7.120994
 20
8.712795
 30
0.0
 10
7.468994
 20
9.061142
 30
0.0
 10
7.885994
 20
9.323242
 30
0.0
 10
8.350995
 20
9.485943
 30
0.0
 10
8.840995
 20
9.541089
 30
0.0
 10
9.330995
 20
9.485943
 30
0.0
 10
9.795995
 20
9.323242
 30
0.0
 10
10.212993
 20
9.061142
 30
0.0
 10
10.560992
 20
8.712795
 30
0.0
 10
10.822993
 20
8.295642
 30
0.0
 10
10.985994
 20
7.830653
 30
0.0
 10
11.040993
 20
7.341110
 30
0.0
 10
10.985994
 20
6.851568
 30
0.0
 10
10.822993
 20
6.386550
 30
0.0
 10
10.560992
 20
5.969426
 30
0.0
 10
10.212993
 20
5.621079
 30
0.0
 10
9.795995
 20
5.358979
 30
0.0
 10
9.330995
 20
5.196250
 30
0.0
 10
9.330995
 20
5.196250
 30
0.0
 10
9.330995
 20
5.196250
 30
0.0
 10
9.330995
 20
5.196250
 30
0.0
 10
9.330995
 20
5.196250
 30
0.0
  0
LWPOLYLINE
  5
115
100
AcDbEntity
  8
0
 62
7
100
AcDbPolyline
 90
33
 70
1
 10
461.661002
 20
5.969426
 30
0.0
 10
461.312994
 20
5.621079
 30
0.0
 10
460.895982
 20
5.358979
 30
0.0
 10
460.430993
 20
5.196250
 30
0.0
 10
459.940999
 20
5.141104
 30
0.0
 10
459.451004
 20
5.196250
 30
0.0
 10
458.985987
 20
5.358979
 30
0.0
 10
458.569004
 20
5.621079
 30
0.0
 10
458.220995
 20
5.969426
 30
0.0
 10
457.959008
 20
6.386550
 30
0.0
 10
457.795997
 20
6.851568
 30
0.0
 10
457.740992
 20
7.341110
 30
0.0
 10
457.795997
 20
7.830653
 30
0.0
 10
457.959008
 20
8.295642
 30
0.0
 10
458.220995
 20
8.712795
 30
0.0
 10
458.569004
 20
9.061142
 30
0.0
 10
458.985987
 20
9.323242
 30
0.0
 10
459.451004
 20
9.485943
 30
0.0
 10
459.940999
 20
9.541089
 30
0.0
 10
460.430993
 20
9.485943
 30
0.0
 10
460.895982
 20
9.323242
 30
0.0
 10
461.312994
 20
9.061142
 30
0.0
 10
461.661002
 20
8.712795
 30
0.0
 10
461.922989
 20
8.295642
 30
0.0
 10
462.086000
 20
7.830653
 30
0.0
 10
462.141006
 20
7.341110
 30
0.0
 10
462.086000
 20
6.851568
 30
0.0
 10
461.922989
 20
6.386550
 30
0.0
 10
461.661002
 20
5.969426
 30
0.0
 10
461.661002
 20
5.969426
 30
0.0
 10
461.661002
 20
5.969426
 30
0.0
 10
461.661002
 20
5.969426
 30
0.0
 10
461.661002
 20
5.969426
 30
0.0
  0
LWPOLYLINE
  5
116
100
AcDbEntity
  8
0
 62
7
100
AcDbPolyline
 90
33
 70
1
 10
437.348997
 20
5.621079
 30
0.0
 10
437.000989
 20
5.969426
 30
0.0
 10
436.739002
 20
6.386550
 30
0.0
 10
436.575990
 20
6.851568
 30
0.0
 10
436.520985
 20
7.341110
 30
0.0
 10
436.575990
 20
7.830653
 30
0.0
 10
436.739002
 20
8.295642
 30
0.0
 10
437.000989
 20
8.712795
 30
0.0
 10
437.348997
 20
9.061142
 30
0.0
 10
437.766008
 20
9.323242
 30
0.0
 10
438.230998
 20
9.485943
 30
0.0
 10
438.720992
 20
9.541089
 30
0.0
 10
439.210986
 20
9.485943
 30
0.0
 10
439.676004
 20
9.323242
 30
0.0
 10
440.092987
 20
9.061142
 30
0.0
 10
440.440995
 20
8.712795
 30
0.0
 10
440.702982
 20
8.295642
 30
0.0
 10
440.865994
 20
7.830653
 30
0.0
 10
440.920999
 20
7.341110
 30
0.0
 10
440.865994
 20
6.851568
 30
0.0
 10
440.702982
 20
6.386550
 30
0.0
 10
440.440995
 20
5.969426
 30
0.0
 10
440.092987
 20
5.621079
 30
0.0
 10
439.676004
 20
5.358979
 30
0.0
 10
439.210986
 20
5.196250
 30
0.0
 10
438.720992
 20
5.141104
 30
0.0
 10
438.230998
 20
5.196250
 30
0.0
 10
437.766008
 20
5.358979
 30
0.0
 10
437.348997
 20
5.621079
 30
0.0
 10
437.348997
 20
5.621079
 30
0.0
 10
437.348997
 20
5.621079
 30
0.0
 10
437.348997
 20
5.621079
 30
0.0
 10
437.348997
 20
5.621079
 30
0.0
  0
LWPOLYLINE
  5
117
100
AcDbEntity
  8
0
 62
7
100
AcDbPolyline
 90
33
 70
1
 10
30.060993
 20
5.141104
 30
0.0
 10
29.570993
 20
5.196250
 30
0.0
 10
29.105995
 20
5.358979
 30
0.0
 10
28.688995
 20
5.621079
 30
0.0
 10
28.340993
 20
5.969426
 30
0.0
 10
28.078994
 20
6.386550
 30
0.0
 10
27.915994
 20
6.851568
 30
0.0
 10
27.860994
 20
7.341110
 30
0.0
 10
27.915994
 20
7.830653
 30
0.0
 10
28.078994
 20
8.295642
 30
0.0
 10
28.340993
 20
8.712795
 30
0.0
 10
28.688995
 20
9.061142
 30
0.0
 10
29.105995
 20
9.323242
 30
0.0
 10
29.570993
 20
9.485943
 30
0.0
 10
30.060993
 20
9.541089
 30
0.0
 10
30.550993
 20
9.485943
 30
0.0
 10
31.015994
 20
9.323242
 30
0.0
 10
31.432994
 20
9.061142
 30
0.0
 10
31.780994
 20
8.712795
 30
0.0
 10
32.042995
 20
8.295642
 30
0.0
 10
32.205995
 20
7.830653
 30
0.0
 10
32.260994
 20
7.341110
 30
0.0
 10
32.205995
 20
6.851568
 30
0.0
 10
32.042995
 20
6.386550
 30
0.0
 10
31.780994
 20
5.969426
 30
0.0
 10
31.432994
 20
5.621079
 30
0.0
 10
31.015994
 20
5.358979
 30
0.0
 10
30.550993
 20
5.196250
 30
0.0
 10
30.060993
 20
5.141104
 30
0.0
 10
30.060993
 20
5.141104
 30
0.0
 10
30.060993
 20
5.141104
 30
0.0
 10
30.060993
 20
5.141104
 30
0.0
 10
30.060993
 20
5.141104
 30
0.0
  0
LWPOLYLINE
  5
118
100
AcDbEntity
  8
0
 62
7
100
AcDbPolyline
 90
33
 70
1
 10
400.638998
 20
5.621079
 30
0.0
 10
400.290990
 20
5.969426
 30
0.0
 10
400.029003
 20
6.386550
 30
0.0
 10
399.865991
 20
6.851568
 30
0.0
 10
399.810986
 20
7.341110
 30
0.0
 10
399.865991
 20
7.830653
 30
0.0
 10
400.029003
 20
8.295642
 30
0.0
 10
400.290990
 20
8.712795
 30
0.0
 10
400.638998
 20
9.061142
 30
0.0
 10
401.056009
 20
9.323242
 30
0.0
 10
401.520999
 20
9.485943
 30
0.0
 10
402.010993
 20
9.541089
 30
0.0
 10
402.500987
 20
9.485943
 30
0.0
 10
402.966005
 20
9.323242
 30
0.0
 10
403.382988
 20
9.061142
 30
0.0
 10
403.730996
 20
8.712795
 30
0.0
 10
403.993011
 20
8.295642
 30
0.0
 10
404.155995
 20
7.830653
 30
0.0
 10
404.211000
 20
7.341110
 30
0.0
 10
404.155995
 20
6.851568
 30
0.0
 10
403.993011
 20
6.386550
 30
0.0
 10
403.730996
 20
5.969426
 30
0.0
 10
403.382988
 20
5.621079
 30
0.0
 10
402.966005
 20
5.358979
 30
0.0
 10
402.500987
 20
5.196250
 30
0.0
 10
402.010993
 20
5.141104
 30
0.0
 10
401.520999
 20
5.196250
 30
0.0
 10
401.056009
 20
5.358979
 30
0.0
 10
400.638998
 20
5.621079
 30
0.0
 10
400.638998
 20
5.621079
 30
0.0
 10
400.638998
 20
5.621079
 30
0.0
 10
400.638998
 20
5.621079
 30
0.0
 10
400.638998
 20
5.621079
 30
0.0
  0
LWPOLYLINE
  5
119
100
AcDbEntity
  8
0
 62
7
100
AcDbPolyline
 90
33
 70
1
 10
379.418991
 20
5.621079
 30
0.0
 10
379.071011
 20
5.969426
 30
0.0
 10
378.808996
 20
6.386550
 30
0.0
 10
378.645984
 20
6.851568
 30
0.0
 10
378.591008
 20
7.341110
 30
0.0
 10
378.645984
 20
7.830653
 30
0.0
 10
378.808996
 20
8.295642
 30
0.0
 10
379.071011
 20
8.712795
 30
0.0
 10
379.418991
 20
9.061142
 30
0.0
 10
379.836003
 20
9.323242
 30
0.0
 10
380.300992
 20
9.485943
 30
0.0
 10
380.790986
 20
9.541089
 30
0.0
 10
381.281009
 20
9.485943
 30
0.0
 10
381.745998
 20
9.323242
 30
0.0
 10
382.163010
 20
9.061142
 30
0.0
 10
382.510990
 20
8.712795
 30
0.0
 10
382.773005
 20
8.295642
 30
0.0
 10
382.935988
 20
7.830653
 30
0.0
 10
382.990993
 20
7.341110
 30
0.0
 10
382.935988
 20
6.851568
 30
0.0
 10
382.773005
 20
6.386550
 30
0.0
 10
382.510990
 20
5.969426
 30
0.0
 10
382.163010
 20
5.621079
 30
0.0
 10
381.745998
 20
5.358979
 30
0.0
 10
381.281009
 20
5.196250
 30
0.0
 10
380.790986
 20
5.141104
 30
0.0
 10
380.300992
 20
5.196250
 30
0.0
 10
379.836003
 20
5.358979
 30
0.0
 10
379.418991
 20
5.621079
 30
0.0
 10
379.418991
 20
5.621079
 30
0.0
 10
379.418991
 20
5.621079
 30
0.0
 10
379.418991
 20
5.621079
 30
0.0
 10
379.418991
 20
5.621079
 30
0.0
  0
LWPOLYLINE
  5
11a
100
AcDbEntity
  8
0
 62
7
100
AcDbPolyline
 90
33
 70
1
 10
92.458994
 20
6.386550
 30
0.0
 10
92.295994
 20
6.851568
 30
0.0
 10
92.240995
 20
7.341110
 30
0.0
 10
92.295994
 20
7.830653
 30
0.0
 10
92.458994
 20
8.295642
 30
0.0
 10
92.720993
 20
8.712795
 30
0.0
 10
93.068995
 20
9.061142
 30
0.0
 10
93.485995
 20
9.323242
 30
0.0
 10
93.950993
 20
9.485943
 30
0.0
 10
94.440993
 20
9.541089
 30
0.0
 10
94.930993
 20
9.485943
 30
0.0
 10
95.395994
 20
9.323242
 30
0.0
 10
95.812994
 20
9.061142
 30
0.0
 10
96.160994
 20
8.712795
 30
0.0
 10
96.422995
 20
8.295642
 30
0.0
 10
96.585995
 20
7.830653
 30
0.0
 10
96.640994
 20
7.341110
 30
0.0
 10
96.585995
 20
6.851568
 30
0.0
 10
96.422995
 20
6.386550
 30
0.0
 10
96.160994
 20
5.969426
 30
0.0
 10
95.812994
 20
5.621079
 30
0.0
 10
95.395994
 20
5.358979
 30
0.0
 10
94.930993
 20
5.196250
 30
0.0
 10
94.440993
 20
5.141104
 30
0.0
 10
93.950993
 20
5.196250
 30
0.0
 10
93.485995
 20
5.358979
 30
0.0
 10
93.068995
 20
5.621079
 30
0.0
 10
92.720993
 20
5.969426
 30
0.0
 10
92.458994
 20
6.386550
 30
0.0
 10
92.458994
 20
6.386550
 30
0.0
 10
92.458994
 20
6.386550
 30
0.0
 10
92.458994
 20
6.386550
 30
0.0
 10
92.458994
 20
6.386550
 30
0.0
  0
LWPOLYLINE
  5
11b
100
AcDbEntity
  8
0
 62
7
100
AcDbPolyline
 90
49
 70
1
 10
333.377512
 20
0.232920
 30
0.0
 10
333.846085
 20
0.393787
 30
0.0
 10
334.281808
 20
0.629612
 30
0.0
 10
334.672996
 20
0.933932
 30
0.0
 10
335.007994
 20
1.298450
 30
0.0
 10
335.279012
 20
1.713261
 30
0.0
 10
335.478007
 20
2.166989
 30
0.0
 10
335.600012
 20
2.647332
 30
0.0
 10
335.640990
 20
3.141108
 30
0.0
 10
335.631113
 20
213.389119
 30
0.0
 10
335.549127
 20
213.877115
 30
0.0
 10
335.388119
 20
214.346115
 30
0.0
 10
335.152125
 20
214.782117
 30
0.0
 10
334.848115
 20
215.173119
 30
0.0
 10
334.484105
 20
215.508114
 30
0.0
 10
334.068928
 20
215.779115
 30
0.0
 10
333.615228
 20
215.978122
 30
0.0
 10
333.134914
 20
216.100121
 30
0.0
 10
332.641109
 20
216.141116
 30
0.0
 10
246.151112
 20
216.137109
 30
0.0
 10
246.151112
 20
211.141112
 30
0.0
 10
209.131112
 20
211.141112
 30
0.0
 10
209.131112
 20
216.135113
 30
0.0
 10
122.393112
 20
216.131106
 30
0.0
 10
121.905113
 20
216.049103
 30
0.0
 10
121.436113
 20
215.888107
 30
0.0
 10
121.000114
 20
215.652110
 30
0.0
 10
120.609112
 20
215.348103
 30
0.0
 10
120.274111
 20
214.984107
 30
0.0
 10
120.003113
 20
214.569105
 30
0.0
 10
119.804112
 20
214.115108
 30
0.0
 10
119.682113
 20
213.635104
 30
0.0
 10
119.641112
 20
213.141108
 30
0.0
 10
119.651103
 20
2.893373
 30
0.0
 10
119.733108
 20
2.404649
 30
0.0
 10
119.894107
 20
1.936019
 30
0.0
 10
120.130107
 20
1.500268
 30
0.0
 10
120.434106
 20
1.109277
 30
0.0
 10
120.798107
 20
0.773686
 30
0.0
 10
121.213107
 20
0.502697
 30
0.0
 10
121.667106
 20
0.303645
 30
0.0
 10
122.147107
 20
0.182008
 30
0.0
 10
122.641106
 20
0.141114
 30
0.0
 10
332.888816
 20
0.151274
 30
0.0
 10
333.377625
 20
0.232920
 30
0.0
 10
333.377625
 20
0.232920
 30
0.0
 10
333.377512
 20
0.232920
 30
0.0
 10
333.377512
 20
0.232920
 30
0.0
 10
333.377512
 20
0.232920
 30
0.0
  0
LWPOLYLINE
  5
11c
100
AcDbEntity
  8
0
 62
7
100
AcDbPolyline
 90
21
 70
1
 10
121.985995
 20
213.119117
 30
0.0
 10
122.256993
 20
213.525119
 30
0.0
 10
122.662995
 20
213.796118
 30
0.0
 10
123.140995
 20
213.891116
 30
0.0
 10
123.618995
 20
213.796118
 30
0.0
 10
124.024994
 20
213.525119
 30
0.0
 10
124.295995
 20
213.119117
 30
0.0
 10
124.390994
 20
212.641120
 30
0.0
 10
124.295995
 20
212.163121
 30
0.0
 10
124.024994
 20
211.757121
 30
0.0
 10
123.618995
 20
211.486117
 30
0.0
 10
123.140995
 20
211.391121
 30
0.0
 10
122.662995
 20
211.486117
 30
0.0
 10
122.256993
 20
211.757121
 30
0.0
 10
121.985995
 20
212.163121
 30
0.0
 10
121.890993
 20
212.641120
 30
0.0
 10
121.985995
 20
213.119117
 30
0.0
 10
121.985995
 20
213.119117
 30
0.0
 10
121.985995
 20
213.119117
 30
0.0
 10
121.985995
 20
213.119117
 30
0.0
 10
121.985995
 20
213.119117
 30
0.0
  0
LWPOLYLINE
  5
11d
100
AcDbEntity
  8
0
 62
7
100
AcDbPolyline
 90
21
 70
1
 10
333.024903
 20
211.757121
 30
0.0
 10
332.619294
 20
211.486117
 30
0.0
 10
332.140983
 20
211.391121
 30
0.0
 10
331.662588
 20
211.486117
 30
0.0
 10
331.257092
 20
211.757121
 30
0.0
 10
330.986102
 20
212.163121
 30
0.0
 10
330.890993
 20
212.641120
 30
0.0
 10
330.986102
 20
213.119117
 30
0.0
 10
331.257092
 20
213.525119
 30
0.0
 10
331.662588
 20
213.796118
 30
0.0
 10
332.140983
 20
213.891116
 30
0.0
 10
332.619294
 20
213.796118
 30
0.0
 10
333.024903
 20
213.525119
 30
0.0
 10
333.295808
 20
213.119117
 30
0.0
 10
333.391002
 20
212.641120
 30
0.0
 10
333.295808
 20
212.163121
 30
0.0
 10
333.024903
 20
211.757121
 30
0.0
 10
333.024903
 20
211.757121
 30
0.0
 10
333.024903
 20
211.757121
 30
0.0
 10
333.024903
 20
211.757121
 30
0.0
 10
333.024903
 20
211.757121
 30
0.0
  0
LWPOLYLINE
  5
11e
100
AcDbEntity
  8
0
 62
7
100
AcDbPolyline
 90
26
 70
1
 10
205.771493
 20
207.263116
 30
0.0
 10
206.155993
 20
207.570118
 30
0.0
 10
206.613895
 20
207.750116
 30
0.0
 10
207.104293
 20
207.786116
 30
0.0
 10
207.583794
 20
207.677119
 30
0.0
 10
208.009795
 20
207.431120
 30
0.0
 10
208.344293
 20
207.070121
 30
0.0
 10
208.557695
 20
206.627114
 30
0.0
 10
208.630994
 20
206.141116
 30
0.0
 10
208.557695
 20
205.655121
 30
0.0
 10
208.344293
 20
205.212114
 30
0.0
 10
208.009795
 20
204.851115
 30
0.0
 10
207.583794
 20
204.605116
 30
0.0
 10
207.104293
 20
204.496119
 30
0.0
 10
206.613895
 20
204.532114
 30
0.0
 10
206.155993
 20
204.712115
 30
0.0
 10
205.771493
 20
205.019119
 30
0.0
 10
205.494393
 20
205.425119
 30
0.0
 10
205.349393
 20
205.895115
 30
0.0
 10
205.349393
 20
206.387115
 30
0.0
 10
205.494393
 20
206.857114
 30
0.0
 10
205.771493
 20
207.263116
 30
0.0
 10
205.771493
 20
207.263116
 30
0.0
 10
205.771493
 20
207.263116
 30
0.0
 10
205.771493
 20
207.263116
 30
0.0
 10
205.771493
 20
207.263116
 30
0.0
  0
LWPOLYLINE
  5
11f
100
AcDbEntity
  8
0
 62
7
100
AcDbPolyline
 90
26
 70
1
 10
249.950994
 20
206.141116
 30
0.0
 10
249.877696
 20
205.655121
 30
0.0
 10
249.664293
 20
205.212114
 30
0.0
 10
249.329795
 20
204.851115
 30
0.0
 10
248.903795
 20
204.605116
 30
0.0
 10
248.424294
 20
204.496119
 30
0.0
 10
247.933794
 20
204.532114
 30
0.0
 10
247.475993
 20
204.712115
 30
0.0
 10
247.091494
 20
205.019119
 30
0.0
 10
246.814394
 20
205.425119
 30
0.0
 10
246.669393
 20
205.895115
 30
0.0
 10
246.669393
 20
206.387115
 30
0.0
 10
246.814394
 20
206.857114
 30
0.0
 10
247.091494
 20
207.263116
 30
0.0
 10
247.475993
 20
207.570118
 30
0.0
 10
247.933794
 20
207.750116
 30
0.0
 10
248.424294
 20
207.786116
 30
0.0
 10
248.903795
 20
207.677119
 30
0.0
 10
249.329795
 20
207.431120
 30
0.0
 10
249.664293
 20
207.070121
 30
0.0
 10
249.877696
 20
206.627114
 30
0.0
 10
249.950994
 20
206.141116
 30
0.0
 10
249.950994
 20
206.141116
 30
0.0
 10
249.950994
 20
206.141116
 30
0.0
 10
249.950994
 20
206.141116
 30
0.0
 10
249.950994
 20
206.141116
 30
0.0
  0
LWPOLYLINE
  5
120
100
AcDbEntity
  8
0
 62
7
100
AcDbPolyline
 90
26
 70
1
 10
154.827594
 20
197.857115
 30
0.0
 10
154.972594
 20
197.387119
 30
0.0
 10
154.972594
 20
196.895121
 30
0.0
 10
154.827594
 20
196.425114
 30
0.0
 10
154.550494
 20
196.019118
 30
0.0
 10
154.165994
 20
195.712116
 30
0.0
 10
153.708193
 20
195.532121
 30
0.0
 10
153.217694
 20
195.496120
 30
0.0
 10
152.738195
 20
195.605117
 30
0.0
 10
152.312195
 20
195.851116
 30
0.0
 10
151.977694
 20
196.212115
 30
0.0
 10
151.764294
 20
196.655120
 30
0.0
 10
151.690993
 20
197.141120
 30
0.0
 10
151.764294
 20
197.627115
 30
0.0
 10
151.977694
 20
198.070114
 30
0.0
 10
152.312195
 20
198.431121
 30
0.0
 10
152.738195
 20
198.677118
 30
0.0
 10
153.217694
 20
198.786117
 30
0.0
 10
153.708193
 20
198.750114
 30
0.0
 10
154.165994
 20
198.570122
 30
0.0
 10
154.550494
 20
198.263117
 30
0.0
 10
154.827594
 20
197.857115
 30
0.0
 10
154.827594
 20
197.857115
 30
0.0
 10
154.827594
 20
197.857115
 30
0.0
 10
154.827594
 20
197.857115
 30
0.0
 10
154.827594
 20
197.857115
 30
0.0
  0
LWPOLYLINE
  5
121
100
AcDbEntity
  8
0
 62
7
100
AcDbPolyline
 90
26
 70
1
 10
124.911993
 20
175.851114
 30
0.0
 10
124.577994
 20
176.212119
 30
0.0
 10
124.363994
 20
176.655114
 30
0.0
 10
124.290994
 20
177.141115
 30
0.0
 10
124.363994
 20
177.627116
 30
0.0
 10
124.577994
 20
178.070117
 30
0.0
 10
124.911993
 20
178.431116
 30
0.0
 10
125.337993
 20
178.677115
 30
0.0
 10
125.817994
 20
178.786115
 30
0.0
 10
126.307994
 20
178.750115
 30
0.0
 10
126.765993
 20
178.570116
 30
0.0
 10
127.150995
 20
178.263121
 30
0.0
 10
127.427993
 20
177.857121
 30
0.0
 10
127.572993
 20
177.387114
 30
0.0
 10
127.572993
 20
176.895116
 30
0.0
 10
127.427993
 20
176.425117
 30
0.0
 10
127.150995
 20
176.019115
 30
0.0
 10
126.765993
 20
175.712114
 30
0.0
 10
126.307994
 20
175.532118
 30
0.0
 10
125.817994
 20
175.496115
 30
0.0
 10
125.337993
 20
175.605115
 30
0.0
 10
124.911993
 20
175.851114
 30
0.0
 10
124.911993
 20
175.851114
 30
0.0
 10
124.911993
 20
175.851114
 30
0.0
 10
124.911993
 20
175.851114
 30
0.0
 10
124.911993
 20
175.851114
 30
0.0
  0
LWPOLYLINE
  5
122
100
AcDbEntity
  8
0
 62
7
100
AcDbPolyline
 90
26
 70
1
 10
195.305993
 20
169.895116
 30
0.0
 10
195.763794
 20
170.074118
 30
0.0
 10
196.254294
 20
170.111121
 30
0.0
 10
196.733795
 20
170.002115
 30
0.0
 10
197.159795
 20
169.756122
 30
0.0
 10
197.494294
 20
169.395114
 30
0.0
 10
197.707693
 20
168.952121
 30
0.0
 10
197.780995
 20
168.466115
 30
0.0
 10
197.707693
 20
167.979115
 30
0.0
 10
197.494294
 20
167.536116
 30
0.0
 10
197.159795
 20
167.176119
 30
0.0
 10
196.733795
 20
166.930118
 30
0.0
 10
196.254294
 20
166.820122
 30
0.0
 10
195.763794
 20
166.857115
 30
0.0
 10
195.305993
 20
167.037119
 30
0.0
 10
194.921494
 20
167.343116
 30
0.0
 10
194.644394
 20
167.750114
 30
0.0
 10
194.499394
 20
168.220122
 30
0.0
 10
194.499394
 20
168.711118
 30
0.0
 10
194.644394
 20
169.181116
 30
0.0
 10
194.921494
 20
169.588120
 30
0.0
 10
195.305993
 20
169.895116
 30
0.0
 10
195.305993
 20
169.895116
 30
0.0
 10
195.305993
 20
169.895116
 30
0.0
 10
195.305993
 20
169.895116
 30
0.0
 10
195.305993
 20
169.895116
 30
0.0
  0
LWPOLYLINE
  5
123
100
AcDbEntity
  8
0
 62
7
100
AcDbPolyline
 90
26
 70
1
 10
197.780995
 20
153.816117
 30
0.0
 10
197.707693
 20
153.330119
 30
0.0
 10
197.494294
 20
152.887115
 30
0.0
 10
197.159795
 20
152.526116
 30
0.0
 10
196.733795
 20
152.280114
 30
0.0
 10
196.254294
 20
152.171115
 30
0.0
 10
195.763794
 20
152.208120
 30
0.0
 10
195.305993
 20
152.387116
 30
0.0
 10
194.921494
 20
152.694120
 30
0.0
 10
194.644394
 20
153.101122
 30
0.0
 10
194.499394
 20
153.570118
 30
0.0
 10
194.499394
 20
154.062116
 30
0.0
 10
194.644394
 20
154.532115
 30
0.0
 10
194.921494
 20
154.939116
 30
0.0
 10
195.305993
 20
155.245121
 30
0.0
 10
195.763794
 20
155.425114
 30
0.0
 10
196.254294
 20
155.462116
 30
0.0
 10
196.733795
 20
155.352117
 30
0.0
 10
197.159795
 20
155.106118
 30
0.0
 10
197.494294
 20
154.746119
 30
0.0
 10
197.707693
 20
154.303114
 30
0.0
 10
197.780995
 20
153.816117
 30
0.0
 10
197.780995
 20
153.816117
 30
0.0
 10
197.780995
 20
153.816117
 30
0.0
 10
197.780995
 20
153.816117
 30
0.0
 10
197.780995
 20
153.816117
 30
0.0
  0
LWPOLYLINE
  5
124
100
AcDbEntity
  8
0
 62
7
100
AcDbPolyline
 90
26
 70
1
 10
329.217697
 20
116.496120
 30
0.0
 10
328.738202
 20
116.605117
 30
0.0
 10
328.312187
 20
116.851116
 30
0.0
 10
327.977698
 20
117.212115
 30
0.0
 10
327.764309
 20
117.655120
 30
0.0
 10
327.690988
 20
118.141117
 30
0.0
 10
327.764309
 20
118.627115
 30
0.0
 10
327.977698
 20
119.070120
 30
0.0
 10
328.312187
 20
119.431121
 30
0.0
 10
328.738202
 20
119.677120
 30
0.0
 10
329.217697
 20
119.786115
 30
0.0
 10
329.708200
 20
119.750114
 30
0.0
 10
330.165992
 20
119.570121
 30
0.0
 10
330.550492
 20
119.263117
 30
0.0
 10
330.827606
 20
118.857115
 30
0.0
 10
330.972583
 20
118.387116
 30
0.0
 10
330.972583
 20
117.895118
 30
0.0
 10
330.827606
 20
117.425114
 30
0.0
 10
330.550492
 20
117.019120
 30
0.0
 10
330.165992
 20
116.712116
 30
0.0
 10
329.708200
 20
116.532121
 30
0.0
 10
329.217697
 20
116.496120
 30
0.0
 10
329.217697
 20
116.496120
 30
0.0
 10
329.217697
 20
116.496120
 30
0.0
 10
329.217697
 20
116.496120
 30
0.0
 10
329.217697
 20
116.496120
 30
0.0
  0
LWPOLYLINE
  5
125
100
AcDbEntity
  8
0
 62
7
100
AcDbPolyline
 90
26
 70
1
 10
303.427610
 20
98.857014
 30
0.0
 10
303.572587
 20
98.387015
 30
0.0
 10
303.572587
 20
97.895221
 30
0.0
 10
303.427610
 20
97.425216
 30
0.0
 10
303.150496
 20
97.018816
 30
0.0
 10
302.765996
 20
96.712120
 30
0.0
 10
302.308204
 20
96.532516
 30
0.0
 10
301.817701
 20
96.495714
 30
0.0
 10
301.338206
 20
96.605219
 30
0.0
 10
300.912191
 20
96.851114
 30
0.0
 10
300.577702
 20
97.211616
 30
0.0
 10
300.364285
 20
97.654716
 30
0.0
 10
300.290992
 20
98.141115
 30
0.0
 10
300.364285
 20
98.627415
 30
0.0
 10
300.577702
 20
99.070620
 30
0.0
 10
300.912191
 20
99.431116
 30
0.0
 10
301.338206
 20
99.677016
 30
0.0
 10
301.817701
 20
99.786522
 30
0.0
 10
302.308204
 20
99.749714
 30
0.0
 10
302.765996
 20
99.570020
 30
0.0
 10
303.150496
 20
99.263414
 30
0.0
 10
303.427610
 20
98.857014
 30
0.0
 10
303.427610
 20
98.857014
 30
0.0
 10
303.427610
 20
98.857014
 30
0.0
 10
303.427610
 20
98.857014
 30
0.0
 10
303.427610
 20
98.857014
 30
0.0
  0
LWPOLYLINE
  5
126
100
AcDbEntity
  8
0
 62
7
100
AcDbPolyline
 90
26
 70
1
 10
194.480993
 20
69.615721
 30
0.0
 10
194.554294
 20
70.102016
 30
0.0
 10
194.767694
 20
70.545217
 30
0.0
 10
195.102195
 20
70.905714
 30
0.0
 10
195.528195
 20
71.151614
 30
0.0
 10
196.007694
 20
71.261116
 30
0.0
 10
196.498193
 20
71.224317
 30
0.0
 10
196.955994
 20
71.044615
 30
0.0
 10
197.340494
 20
70.738020
 30
0.0
 10
197.617594
 20
70.331620
 30
0.0
 10
197.762594
 20
69.861616
 30
0.0
 10
197.762594
 20
69.369815
 30
0.0
 10
197.617594
 20
68.899814
 30
0.0
 10
197.340494
 20
68.493420
 30
0.0
 10
196.955994
 20
68.186717
 30
0.0
 10
196.498193
 20
68.007015
 30
0.0
 10
196.007694
 20
67.970315
 30
0.0
 10
195.528195
 20
68.079718
 30
0.0
 10
195.102195
 20
68.325717
 30
0.0
 10
194.767694
 20
68.686214
 30
0.0
 10
194.554294
 20
69.129314
 30
0.0
 10
194.480993
 20
69.615721
 30
0.0
 10
194.480993
 20
69.615721
 30
0.0
 10
194.480993
 20
69.615721
 30
0.0
 10
194.480993
 20
69.615721
 30
0.0
 10
194.480993
 20
69.615721
 30
0.0
  0
LWPOLYLINE
  5
127
100
AcDbEntity
  8
0
 62
7
100
AcDbPolyline
 90
26
 70
1
 10
196.007694
 20
56.611920
 30
0.0
 10
196.498193
 20
56.575121
 30
0.0
 10
196.955994
 20
56.395416
 30
0.0
 10
197.340494
 20
56.088822
 30
0.0
 10
197.617594
 20
55.682422
 30
0.0
 10
197.762594
 20
55.212414
 30
0.0
 10
197.762594
 20
54.720619
 30
0.0
 10
197.617594
 20
54.250615
 30
0.0
 10
197.340494
 20
53.844215
 30
0.0
 10
196.955994
 20
53.537614
 30
0.0
 10
196.498193
 20
53.357915
 30
0.0
 10
196.007694
 20
53.321116
 30
0.0
 10
195.528195
 20
53.430618
 30
0.0
 10
195.102195
 20
53.676521
 30
0.0
 10
194.767694
 20
54.037015
 30
0.0
 10
194.554294
 20
54.480214
 30
0.0
 10
194.480993
 20
54.966514
 30
0.0
 10
194.554294
 20
55.452918
 30
0.0
 10
194.767694
 20
55.896021
 30
0.0
 10
195.102195
 20
56.256515
 30
0.0
 10
195.528195
 20
56.502514
 30
0.0
 10
196.007694
 20
56.611920
 30
0.0
 10
196.007694
 20
56.611920
 30
0.0
 10
196.007694
 20
56.611920
 30
0.0
 10
196.007694
 20
56.611920
 30
0.0
 10
196.007694
 20
56.611920
 30
0.0
  0
LWPOLYLINE
  5
128
100
AcDbEntity
  8
0
 62
7
100
AcDbPolyline
 90
26
 70
1
 10
154.827594
 20
39.857016
 30
0.0
 10
154.972594
 20
39.387018
 30
0.0
 10
154.972594
 20
38.895214
 30
0.0
 10
154.827594
 20
38.425216
 30
0.0
 10
154.550494
 20
38.018818
 30
0.0
 10
154.165994
 20
37.712116
 30
0.0
 10
153.708193
 20
37.532521
 30
0.0
 10
153.217694
 20
37.495714
 30
0.0
 10
152.738195
 20
37.605216
 30
0.0
 10
152.312195
 20
37.851116
 30
0.0
 10
151.977694
 20
38.211621
 30
0.0
 10
151.764294
 20
38.654722
 30
0.0
 10
151.690993
 20
39.141115
 30
0.0
 10
151.764294
 20
39.627417
 30
0.0
 10
151.977694
 20
40.070616
 30
0.0
 10
152.312195
 20
40.431121
 30
0.0
 10
152.738195
 20
40.677016
 30
0.0
 10
153.217694
 20
40.786515
 30
0.0
 10
153.708193
 20
40.749716
 30
0.0
 10
154.165994
 20
40.570014
 30
0.0
 10
154.550494
 20
40.263416
 30
0.0
 10
154.827594
 20
39.857016
 30
0.0
 10
154.827594
 20
39.857016
 30
0.0
 10
154.827594
 20
39.857016
 30
0.0
 10
154.827594
 20
39.857016
 30
0.0
 10
154.827594
 20
39.857016
 30
0.0
  0
LWPOLYLINE
  5
129
100
AcDbEntity
  8
0
 62
7
100
AcDbPolyline
 90
26
 70
1
 10
127.572993
 20
19.387015
 30
0.0
 10
127.572993
 20
18.895215
 30
0.0
 10
127.427993
 20
18.425216
 30
0.0
 10
127.150995
 20
18.018816
 30
0.0
 10
126.765993
 20
17.712114
 30
0.0
 10
126.307994
 20
17.532516
 30
0.0
 10
125.817994
 20
17.495714
 30
0.0
 10
125.337993
 20
17.605219
 30
0.0
 10
124.911993
 20
17.851114
 30
0.0
 10
124.577994
 20
18.211616
 30
0.0
 10
124.363994
 20
18.654716
 30
0.0
 10
124.290994
 20
19.141115
 30
0.0
 10
124.363994
 20
19.627421
 30
0.0
 10
124.577994
 20
20.070614
 30
0.0
 10
124.911993
 20
20.431116
 30
0.0
 10
125.337993
 20
20.677016
 30
0.0
 10
125.817994
 20
20.786516
 30
0.0
 10
126.307994
 20
20.749714
 30
0.0
 10
126.765993
 20
20.570020
 30
0.0
 10
127.150995
 20
20.263414
 30
0.0
 10
127.427993
 20
19.857014
 30
0.0
 10
127.572993
 20
19.387015
 30
0.0
 10
127.572993
 20
19.387015
 30
0.0
 10
127.572993
 20
19.387015
 30
0.0
 10
127.572993
 20
19.387015
 30
0.0
 10
127.572993
 20
19.387015
 30
0.0
  0
LWPOLYLINE
  5
12a
100
AcDbEntity
  8
0
 62
7
100
AcDbPolyline
 90
21
 70
1
 10
124.295995
 20
3.162754
 30
0.0
 10
124.024994
 20
2.757201
 30
0.0
 10
123.618995
 20
2.486239
 30
0.0
 10
123.140995
 20
2.391102
 30
0.0
 10
122.662995
 20
2.486239
 30
0.0
 10
122.256993
 20
2.757201
 30
0.0
 10
121.985995
 20
3.162754
 30
0.0
 10
121.890993
 20
3.641121
 30
0.0
 10
121.985995
 20
4.119459
 30
0.0
 10
122.256993
 20
4.524984
 30
0.0
 10
122.662995
 20
4.795974
 30
0.0
 10
123.140995
 20
4.891111
 30
0.0
 10
123.618995
 20
4.795974
 30
0.0
 10
124.024994
 20
4.524984
 30
0.0
 10
124.295995
 20
4.119459
 30
0.0
 10
124.390994
 20
3.641121
 30
0.0
 10
124.295995
 20
3.162754
 30
0.0
 10
124.295995
 20
3.162754
 30
0.0
 10
124.295995
 20
3.162754
 30
0.0
 10
124.295995
 20
3.162754
 30
0.0
 10
124.295995
 20
3.162754
 30
0.0
  0
LWPOLYLINE
  5
12b
100
AcDbEntity
  8
0
 62
7
100
AcDbPolyline
 90
21
 70
1
 10
333.295808
 20
3.162754
 30
0.0
 10
333.024903
 20
2.757201
 30
0.0
 10
332.619294
 20
2.486239
 30
0.0
 10
332.140983
 20
2.391102
 30
0.0
 10
331.662588
 20
2.486239
 30
0.0
 10
331.257092
 20
2.757201
 30
0.0
 10
330.986102
 20
3.162754
 30
0.0
 10
330.890993
 20
3.641121
 30
0.0
 10
330.986102
 20
4.119459
 30
0.0
 10
331.257092
 20
4.524984
 30
0.0
 10
331.662588
 20
4.795974
 30
0.0
 10
332.140983
 20
4.891111
 30
0.0
 10
332.619294
 20
4.795974
 30
0.0
 10
333.024903
 20
4.524984
 30
0.0
 10
333.295808
 20
4.119459
 30
0.0
 10
333.391002
 20
3.641121
 30
0.0
 10
333.295808
 20
3.162754
 30
0.0
 10
333.295808
 20
3.162754
 30
0.0
 10
333.295808
 20
3.162754
 30
0.0
 10
333.295808
 20
3.162754
 30
0.0
 10
333.295808
 20
3.162754
 30
0.0
  0
LWPOLYLINE
  5
12c
100
AcDbEntity
  8
0
 62
7
100
AcDbPolyline
 90
29
 70
0
 10
358.257235
 20
62.391236
 30
0.0
 10
358.312212
 20
62.881236
 30
0.0
 10
358.475224
 20
63.346234
 30
0.0
 10
358.737210
 20
63.763234
 30
0.0
 10
359.085219
 20
64.111237
 30
0.0
 10
359.502230
 20
64.373238
 30
0.0
 10
359.967220
 20
64.536235
 30
0.0
 10
360.457214
 20
64.591234
 30
0.0
 10
360.947208
 20
64.536235
 30
0.0
 10
361.412226
 20
64.373238
 30
0.0
 10
361.829209
 20
64.111237
 30
0.0
 10
362.177217
 20
63.763234
 30
0.0
 10
362.439232
 20
63.346234
 30
0.0
 10
362.602216
 20
62.881236
 30
0.0
 10
362.657221
 20
62.391236
 30
0.0
 10
362.602216
 20
61.901233
 30
0.0
 10
362.439232
 20
61.436238
 30
0.0
 10
362.177217
 20
61.019235
 30
0.0
 10
361.829209
 20
60.671238
 30
0.0
 10
361.412226
 20
60.409237
 30
0.0
 10
360.947208
 20
60.246234
 30
0.0
 10
360.457214
 20
60.191235
 30
0.0
 10
359.967220
 20
60.246234
 30
0.0
 10
359.502230
 20
60.409237
 30
0.0
 10
359.085219
 20
60.671238
 30
0.0
 10
358.737210
 20
61.019235
 30
0.0
 10
358.475224
 20
61.436238
 30
0.0
 10
358.312212
 20
61.901233
 30
0.0
 10
358.257235
 20
62.391236
 30
0.0
  0
LWPOLYLINE
  5
12d
100
AcDbEntity
  8
0
 62
7
100
AcDbPolyline
 90
29
 70
0
 10
358.257235
 20
103.791235
 30
0.0
 10
358.312212
 20
104.281235
 30
0.0
 10
358.475224
 20
104.746238
 30
0.0
 10
358.737210
 20
105.163236
 30
0.0
 10
359.085219
 20
105.511238
 30
0.0
 10
359.502230
 20
105.773237
 30
0.0
 10
359.967220
 20
105.936234
 30
0.0
 10
360.457214
 20
105.991236
 30
0.0
 10
360.947208
 20
105.936234
 30
0.0
 10
361.412226
 20
105.773237
 30
0.0
 10
361.829209
 20
105.511238
 30
0.0
 10
362.177217
 20
105.163236
 30
0.0
 10
362.439232
 20
104.746238
 30
0.0
 10
362.602216
 20
104.281235
 30
0.0
 10
362.657221
 20
103.791235
 30
0.0
 10
362.602216
 20
103.301235
 30
0.0
 10
362.439232
 20
102.836237
 30
0.0
 10
362.177217
 20
102.419234
 30
0.0
 10
361.829209
 20
102.071237
 30
0.0
 10
361.412226
 20
101.809236
 30
0.0
 10
360.947208
 20
101.646236
 30
0.0
 10
360.457214
 20
101.591234
 30
0.0
 10
359.967220
 20
101.646236
 30
0.0
 10
359.502230
 20
101.809236
 30
0.0
 10
359.085219
 20
102.071237
 30
0.0
 10
358.737210
 20
102.419234
 30
0.0
 10
358.475224
 20
102.836237
 30
0.0
 10
358.312212
 20
103.301235
 30
0.0
 10
358.257235
 20
103.791235
 30
0.0
  0
ENDSEC
  0
SECTION
  2
OBJECTS
  0
DICTIONARY
  5
C
330
0
100
AcDbDictionary
  3
ACAD_GROUP
350
D
  3
ACAD_MLINESTYLE
350
17
  0
DICTIONARY
  5
D
330
C
100
AcDbDictionary
  0
DICTIONARY
  5
1A
330
C
100
AcDbDictionary
  0
DICTIONARY
  5
17
330
C
100
AcDbDictionary
  3
STANDARD
350
18
  0
DICTIONARY
  5
19
330
C
100
AcDbDictionary
  0
ENDSEC
  0
EOF
