  0
SECTION
  2
HEADER
  9
$ACADVER
  1
AC1014
  9
$HANDSEED
  5
FFFF
  9
$MEASUREMENT
 70
     1
  0
ENDSEC
  0
SECTION
  2
TABLES
  0
TABLE
  2
VPORT
  5
8
330
0
100
AcDbSymbolTable
 70
     4
  0
VPORT
  5
2E
330
8
100
AcDbSymbolTableRecord
100
AcDbViewportTableRecord
  2
*ACTIVE
 70
     0
 10
0.0
 20
0.0
 11
1.0
 21
1.0
 12
210.0
 22
148.5
 13
0.0
 23
0.0
 14
10.0
 24
10.0
 15
10.0
 25
10.0
 16
0.0
 26
0.0
 36
1.0
 17
0.0
 27
0.0
 37
0.0
 40
341.0
 41
1.24
 42
50.0
 43
0.0
 44
0.0
 50
0.0
 51
0.0
 71
     0
 72
   100
 73
     1
 74
     3
 75
     0
 76
     0
 77
     0
 78
     0
  0
ENDTAB
  0
TABLE
  2
LTYPE
  5
5
330
0
100
AcDbSymbolTable
 70
     1
  0
LTYPE
  5
14
330
5
100
AcDbSymbolTableRecord
100
AcDbLinetypeTableRecord
  2
BYBLOCK
 70
     0
  3

 72
    65
 73
     0
 40
0.0
  0
LTYPE
  5
15
330
5
100
AcDbSymbolTableRecord
100
AcDbLinetypeTableRecord
  2
BYLAYER
 70
     0
  3

 72
    65
 73
     0
 40
0.0
  0
LTYPE
  5
16
330
5
100
AcDbSymbolTableRecord
100
AcDbLinetypeTableRecord
  2
CONTINUOUS
 70
     0
  3
Solid line
 72
    65
 73
     0
 40
0.0
  0
ENDTAB
  0
TABLE
  2
LAYER
  5
2
100
AcDbSymbolTable
 70
1
  0
LAYER
  5
50
100
AcDbSymbolTableRecord
100
AcDbLayerTableRecord
  2
0
 70
0
  6
CONTINUOUS
  0
ENDTAB
  0
TABLE
  2
STYLE
  5
3
330
0
100
AcDbSymbolTable
 70
     1
  0
STYLE
  5
11
330
3
100
AcDbSymbolTableRecord
100
AcDbTextStyleTableRecord
  2
STANDARD
 70
     0
 40
0.0
 41
1.0
 50
0.0
 71
     0
 42
2.5
  3
txt
  4

  0
ENDTAB
  0
TABLE
  2
VIEW
  5
6
330
0
100
AcDbSymbolTable
 70
     0
  0
ENDTAB
  0
TABLE
  2
UCS
  5
7
330
0
100
AcDbSymbolTable
 70
     0
  0
ENDTAB
  0
TABLE
  2
APPID
  5
9
330
0
100
AcDbSymbolTable
 70
     2
  0
APPID
  5
12
330
9
100
AcDbSymbolTableRecord
100
AcDbRegAppTableRecord
  2
ACAD
 70
     0
  0
ENDTAB
  0
TABLE
  2
DIMSTYLE
  5
A
330
0
100
AcDbSymbolTable
 70
     1
  0
DIMSTYLE
105
27
330
A
100
AcDbSymbolTableRecord
100
AcDbDimStyleTableRecord
  2
ISO-25
 70
     0
  3

  4

  5

  6

  7

 40
1.0
 41
2.5
 42
0.625
 43
3.75
 44
1.25
 45
0.0
 46
0.0
 47
0.0
 48
0.0
140
2.5
141
2.5
142
0.0
143
0.03937007874016
144
1.0
145
0.0
146
1.0
147
0.625
 71
     0
 72
     0
 73
     0
 74
     0
 75
     0
 76
     0
 77
     1
 78
     8
170
     0
171
     3
172
     1
173
     0
174
     0
175
     0
176
     0
177
     0
178
     0
270
     2
271
     2
272
     2
273
     2
274
     3
340
11
275
     0
280
     0
281
     0
282
     0
283
     0
284
     8
285
     0
286
     0
287
     3
288
     0
  0
ENDTAB
  0
TABLE
  2
BLOCK_RECORD
  5
1
330
0
100
AcDbSymbolTable
 70
     1
  0
BLOCK_RECORD
  5
1F
330
1
100
AcDbSymbolTableRecord
100
AcDbBlockTableRecord
  2
*MODEL_SPACE
  0
BLOCK_RECORD
  5
1B
330
1
100
AcDbSymbolTableRecord
100
AcDbBlockTableRecord
  2
*PAPER_SPACE
  0
ENDTAB
  0
ENDSEC
  0
SECTION
  2
BLOCKS
  0
BLOCK
  5
20
330
1F
100
AcDbEntity
  8
0
100
AcDbBlockBegin
  2
*MODEL_SPACE
 70
     0
 10
0.0
 20
0.0
 30
0.0
  3
*MODEL_SPACE
  1

  0
ENDBLK
  5
21
330
1F
100
AcDbEntity
  8
0
100
AcDbBlockEnd
  0
BLOCK
  5
1C
330
1B
100
AcDbEntity
 67
     1
  8
0
100
AcDbBlockBegin
  2
*PAPER_SPACE
  1

  0
ENDBLK
  5
1D
330
1B
100
AcDbEntity
 67
     1
  8
0
100
AcDbBlockEnd
  0
ENDSEC
  0
SECTION
  2
ENTITIES
  0
LWPOLYLINE
  5
100
100
AcDbEntity
  8
0
 62
7
100
AcDbPolyline
 90
77
 70
0
 10
0.141111
 20
25.141078
 30
0.0
 10
0.236110
 20
22.962097
 30
0.0
 10
0.521109
 20
20.800077
 30
0.0
 10
0.993109
 20
18.671077
 30
0.0
 10
1.649109
 20
16.590084
 30
0.0
 10
2.483110
 20
14.576101
 30
0.0
 10
3.490110
 20
12.641100
 30
0.0
 10
4.662111
 20
10.802112
 30
0.0
 10
5.990110
 20
9.071102
 30
0.0
 10
7.463110
 20
7.463113
 30
0.0
 10
9.071110
 20
5.990110
 30
0.0
 10
10.802109
 20
4.662114
 30
0.0
 10
12.641109
 20
3.490101
 30
0.0
 10
14.576109
 20
2.483104
 30
0.0
 10
16.590109
 20
1.649109
 30
0.0
 10
18.671108
 20
0.993112
 30
0.0
 10
20.800111
 20
0.521095
 30
0.0
 10
22.962111
 20
0.236107
 30
0.0
 10
25.141109
 20
0.141111
 30
0.0
 10
443.641113
 20
0.141111
 30
0.0
 10
445.820123
 20
0.236107
 30
0.0
 10
447.982114
 20
0.521095
 30
0.0
 10
450.111114
 20
0.993112
 30
0.0
 10
452.192108
 20
1.649109
 30
0.0
 10
454.206102
 20
2.483104
 30
0.0
 10
456.141102
 20
3.490101
 30
0.0
 10
457.980119
 20
4.662114
 30
0.0
 10
459.711100
 20
5.990110
 30
0.0
 10
461.319118
 20
7.463113
 30
0.0
 10
462.792120
 20
9.071102
 30
0.0
 10
464.120117
 20
10.802112
 30
0.0
 10
465.292101
 20
12.641100
 30
0.0
 10
466.299098
 20
14.576101
 30
0.0
 10
467.133122
 20
16.590084
 30
0.0
 10
467.789119
 20
18.671077
 30
0.0
 10
468.261107
 20
20.800077
 30
0.0
 10
468.546095
 20
22.962097
 30
0.0
 10
468.641120
 20
25.141078
 30
0.0
 10
468.641120
 20
394.141088
 30
0.0
 10
468.546095
 20
396.320089
 30
0.0
 10
468.261107
 20
398.482086
 30
0.0
 10
467.789119
 20
400.611089
 30
0.0
 10
467.133122
 20
402.692086
 30
0.0
 10
466.299098
 20
404.706085
 30
0.0
 10
465.292101
 20
406.641086
 30
0.0
 10
464.120117
 20
408.480088
 30
0.0
 10
462.792120
 20
410.211090
 30
0.0
 10
461.319118
 20
411.819087
 30
0.0
 10
459.711100
 20
413.292090
 30
0.0
 10
457.980119
 20
414.620086
 30
0.0
 10
456.141102
 20
415.792088
 30
0.0
 10
454.206102
 20
416.799088
 30
0.0
 10
452.192108
 20
417.633088
 30
0.0
 10
450.111114
 20
418.289085
 30
0.0
 10
447.982114
 20
418.761088
 30
0.0
 10
445.820123
 20
419.046090
 30
0.0
 10
443.641113
 20
419.141089
 30
0.0
 10
25.141109
 20
419.141089
 30
0.0
 10
22.962111
 20
419.046090
 30
0.0
 10
20.800111
 20
418.761088
 30
0.0
 10
18.671108
 20
418.289085
 30
0.0
 10
16.590109
 20
417.633088
 30
0.0
 10
14.576109
 20
416.799088
 30
0.0
 10
12.641109
 20
415.792088
 30
0.0
 10
10.802109
 20
414.620086
 30
0.0
 10
9.071110
 20
413.292090
 30
0.0
 10
7.463110
 20
411.819087
 30
0.0
 10
5.990110
 20
410.211090
 30
0.0
 10
4.662111
 20
408.480088
 30
0.0
 10
3.490110
 20
406.641086
 30
0.0
 10
2.483110
 20
404.706085
 30
0.0
 10
1.649109
 20
402.692086
 30
0.0
 10
0.993109
 20
400.611089
 30
0.0
 10
0.521109
 20
398.482086
 30
0.0
 10
0.236110
 20
396.320089
 30
0.0
 10
0.141111
 20
394.141088
 30
0.0
 10
0.141111
 20
25.141078
 30
0.0
  0
LWPOLYLINE
  5
101
100
AcDbEntity
  8
0
 62
7
100
AcDbPolyline
 90
29
 70
0
 10
17.251110
 20
260.341088
 30
0.0
 10
17.306109
 20
260.830588
 30
0.0
 10
17.469110
 20
261.295589
 30
0.0
 10
17.731111
 20
261.712789
 30
0.0
 10
18.079110
 20
262.061088
 30
0.0
 10
18.496111
 20
262.323188
 30
0.0
 10
18.961108
 20
262.485889
 30
0.0
 10
19.451108
 20
262.541089
 30
0.0
 10
19.941108
 20
262.485889
 30
0.0
 10
20.406109
 20
262.323188
 30
0.0
 10
20.823109
 20
262.061088
 30
0.0
 10
21.171109
 20
261.712789
 30
0.0
 10
21.433110
 20
261.295589
 30
0.0
 10
21.596110
 20
260.830588
 30
0.0
 10
21.651110
 20
260.341088
 30
0.0
 10
21.596110
 20
259.851590
 30
0.0
 10
21.433110
 20
259.386587
 30
0.0
 10
21.171109
 20
258.969389
 30
0.0
 10
20.823109
 20
258.621090
 30
0.0
 10
20.406109
 20
258.358990
 30
0.0
 10
19.941108
 20
258.196289
 30
0.0
 10
19.451108
 20
258.141089
 30
0.0
 10
18.961108
 20
258.196289
 30
0.0
 10
18.496111
 20
258.358990
 30
0.0
 10
18.079110
 20
258.621090
 30
0.0
 10
17.731111
 20
258.969389
 30
0.0
 10
17.469110
 20
259.386587
 30
0.0
 10
17.306109
 20
259.851590
 30
0.0
 10
17.251110
 20
260.341088
 30
0.0
  0
LWPOLYLINE
  5
102
100
AcDbEntity
  8
0
 62
7
100
AcDbPolyline
 90
52
 70
0
 10
27.649111
 20
209.394851
 30
0.0
 10
27.649111
 20
209.887329
 30
0.0
 10
27.709108
 20
210.376082
 30
0.0
 10
27.829109
 20
210.853686
 30
0.0
 10
28.007110
 20
211.312918
 30
0.0
 10
28.240109
 20
211.746807
 30
0.0
 10
28.525109
 20
212.148776
 30
0.0
 10
28.856110
 20
212.512730
 30
0.0
 10
29.230108
 20
212.833165
 30
0.0
 10
29.641109
 20
213.105199
 30
0.0
 10
30.082109
 20
213.324711
 30
0.0
 10
30.546111
 20
213.488400
 30
0.0
 10
31.027110
 20
213.593754
 30
0.0
 10
31.518109
 20
213.639188
 30
0.0
 10
32.010110
 20
213.623948
 30
0.0
 10
32.497110
 20
213.548482
 30
0.0
 10
32.970109
 20
213.413693
 30
0.0
 10
33.424108
 20
213.221725
 30
0.0
 10
33.850109
 20
212.975486
 30
0.0
 10
34.243109
 20
212.678699
 30
0.0
 10
34.597109
 20
212.335858
 30
0.0
 10
34.906111
 20
211.952177
 30
0.0
 10
35.165109
 20
211.533444
 30
0.0
 10
35.371109
 20
211.086065
 30
0.0
 10
35.520111
 20
210.616727
 30
0.0
 10
35.611110
 20
210.132634
 30
0.0
 10
35.641111
 20
209.641087
 30
0.0
 10
35.611110
 20
209.149541
 30
0.0
 10
35.520111
 20
208.665417
 30
0.0
 10
35.371109
 20
208.196107
 30
0.0
 10
35.165109
 20
207.748703
 30
0.0
 10
34.906111
 20
207.329998
 30
0.0
 10
34.597109
 20
206.946317
 30
0.0
 10
34.243109
 20
206.603473
 30
0.0
 10
33.850109
 20
206.306688
 30
0.0
 10
33.424108
 20
206.060449
 30
0.0
 10
32.970109
 20
205.868451
 30
0.0
 10
32.497110
 20
205.733692
 30
0.0
 10
32.010110
 20
205.658139
 30
0.0
 10
31.518109
 20
205.642899
 30
0.0
 10
31.027110
 20
205.688424
 30
0.0
 10
30.546111
 20
205.793775
 30
0.0
 10
30.082109
 20
205.957464
 30
0.0
 10
29.641109
 20
206.176979
 30
0.0
 10
29.230108
 20
206.449013
 30
0.0
 10
28.856110
 20
206.769448
 30
0.0
 10
28.525109
 20
207.133371
 30
0.0
 10
28.240109
 20
207.535343
 30
0.0
 10
28.007110
 20
207.969259
 30
0.0
 10
27.829109
 20
208.428463
 30
0.0
 10
27.709108
 20
208.906096
 30
0.0
 10
27.649111
 20
209.394848
 30
0.0
  0
LWPOLYLINE
  5
103
100
AcDbEntity
  8
0
 62
7
100
AcDbPolyline
 90
29
 70
0
 10
60.191111
 20
19.451083
 30
0.0
 10
60.246110
 20
19.941077
 30
0.0
 10
60.409111
 20
20.406095
 30
0.0
 10
60.671109
 20
20.823075
 30
0.0
 10
61.019109
 20
21.171084
 30
0.0
 10
61.436109
 20
21.433102
 30
0.0
 10
61.901110
 20
21.596085
 30
0.0
 10
62.391109
 20
21.651090
 30
0.0
 10
62.881109
 20
21.596085
 30
0.0
 10
63.346110
 20
21.433102
 30
0.0
 10
63.763110
 20
21.171084
 30
0.0
 10
64.111110
 20
20.823075
 30
0.0
 10
64.373111
 20
20.406095
 30
0.0
 10
64.536108
 20
19.941077
 30
0.0
 10
64.591111
 20
19.451083
 30
0.0
 10
64.536108
 20
18.961089
 30
0.0
 10
64.373111
 20
18.496100
 30
0.0
 10
64.111110
 20
18.079088
 30
0.0
 10
63.763110
 20
17.731080
 30
0.0
 10
63.346110
 20
17.469093
 30
0.0
 10
62.881109
 20
17.306081
 30
0.0
 10
62.391109
 20
17.251073
 30
0.0
 10
61.901110
 20
17.306081
 30
0.0
 10
61.436109
 20
17.469093
 30
0.0
 10
61.019109
 20
17.731080
 30
0.0
 10
60.671109
 20
18.079088
 30
0.0
 10
60.409111
 20
18.496100
 30
0.0
 10
60.246110
 20
18.961089
 30
0.0
 10
60.191111
 20
19.451083
 30
0.0
  0
LWPOLYLINE
  5
104
100
AcDbEntity
  8
0
 62
7
100
AcDbPolyline
 90
29
 70
0
 10
60.191111
 20
399.831089
 30
0.0
 10
60.246110
 20
400.321089
 30
0.0
 10
60.409111
 20
400.786089
 30
0.0
 10
60.671109
 20
401.203090
 30
0.0
 10
61.019109
 20
401.551087
 30
0.0
 10
61.436109
 20
401.813090
 30
0.0
 10
61.901110
 20
401.976088
 30
0.0
 10
62.391109
 20
402.031090
 30
0.0
 10
62.881109
 20
401.976088
 30
0.0
 10
63.346110
 20
401.813090
 30
0.0
 10
63.763110
 20
401.551087
 30
0.0
 10
64.111110
 20
401.203090
 30
0.0
 10
64.373111
 20
400.786089
 30
0.0
 10
64.536108
 20
400.321089
 30
0.0
 10
64.591111
 20
399.831089
 30
0.0
 10
64.536108
 20
399.341089
 30
0.0
 10
64.373111
 20
398.876088
 30
0.0
 10
64.111110
 20
398.459088
 30
0.0
 10
63.763110
 20
398.111086
 30
0.0
 10
63.346110
 20
397.849087
 30
0.0
 10
62.881109
 20
397.686090
 30
0.0
 10
62.391109
 20
397.631088
 30
0.0
 10
61.901110
 20
397.686090
 30
0.0
 10
61.436109
 20
397.849087
 30
0.0
 10
61.019109
 20
398.111086
 30
0.0
 10
60.671109
 20
398.459088
 30
0.0
 10
60.409111
 20
398.876088
 30
0.0
 10
60.246110
 20
399.341089
 30
0.0
 10
60.191111
 20
399.831089
 30
0.0
  0
LWPOLYLINE
  5
105
100
AcDbEntity
  8
0
 62
7
100
AcDbPolyline
 90
29
 70
0
 10
81.631110
 20
260.341088
 30
0.0
 10
81.686109
 20
260.830588
 30
0.0
 10
81.849110
 20
261.295589
 30
0.0
 10
82.111111
 20
261.712789
 30
0.0
 10
82.459110
 20
262.061088
 30
0.0
 10
82.876111
 20
262.323188
 30
0.0
 10
83.341108
 20
262.485889
 30
0.0
 10
83.831108
 20
262.541089
 30
0.0
 10
84.321111
 20
262.485889
 30
0.0
 10
84.786109
 20
262.323188
 30
0.0
 10
85.203109
 20
262.061088
 30
0.0
 10
85.551109
 20
261.712789
 30
0.0
 10
85.813110
 20
261.295589
 30
0.0
 10
85.976110
 20
260.830588
 30
0.0
 10
86.031110
 20
260.341088
 30
0.0
 10
85.976110
 20
259.851590
 30
0.0
 10
85.813110
 20
259.386587
 30
0.0
 10
85.551109
 20
258.969389
 30
0.0
 10
85.203109
 20
258.621090
 30
0.0
 10
84.786109
 20
258.358990
 30
0.0
 10
84.321111
 20
258.196289
 30
0.0
 10
83.831108
 20
258.141089
 30
0.0
 10
83.341108
 20
258.196289
 30
0.0
 10
82.876111
 20
258.358990
 30
0.0
 10
82.459110
 20
258.621090
 30
0.0
 10
82.111111
 20
258.969389
 30
0.0
 10
81.849110
 20
259.386587
 30
0.0
 10
81.686109
 20
259.851590
 30
0.0
 10
81.631110
 20
260.341088
 30
0.0
  0
LWPOLYLINE
  5
106
100
AcDbEntity
  8
0
 62
7
100
AcDbPolyline
 90
29
 70
0
 10
125.891109
 20
7.641110
 30
0.0
 10
125.946109
 20
8.131105
 30
0.0
 10
126.109109
 20
8.596094
 30
0.0
 10
126.371110
 20
9.013105
 30
0.0
 10
126.719110
 20
9.361114
 30
0.0
 10
127.136110
 20
9.623101
 30
0.0
 10
127.601111
 20
9.786112
 30
0.0
 10
128.091111
 20
9.841089
 30
0.0
 10
128.581110
 20
9.786112
 30
0.0
 10
129.046111
 20
9.623101
 30
0.0
 10
129.463109
 20
9.361114
 30
0.0
 10
129.811111
 20
9.013105
 30
0.0
 10
130.073109
 20
8.596094
 30
0.0
 10
130.236110
 20
8.131105
 30
0.0
 10
130.291109
 20
7.641110
 30
0.0
 10
130.236110
 20
7.151088
 30
0.0
 10
130.073109
 20
6.686099
 30
0.0
 10
129.811111
 20
6.269087
 30
0.0
 10
129.463109
 20
5.921107
 30
0.0
 10
129.046111
 20
5.659092
 30
0.0
 10
128.581110
 20
5.496109
 30
0.0
 10
128.091111
 20
5.441103
 30
0.0
 10
127.601111
 20
5.496109
 30
0.0
 10
127.136110
 20
5.659092
 30
0.0
 10
126.719110
 20
5.921107
 30
0.0
 10
126.371110
 20
6.269087
 30
0.0
 10
126.109109
 20
6.686099
 30
0.0
 10
125.946109
 20
7.151088
 30
0.0
 10
125.891109
 20
7.641110
 30
0.0
  0
LWPOLYLINE
  5
107
100
AcDbEntity
  8
0
 62
7
100
AcDbPolyline
 90
29
 70
0
 10
125.891109
 20
411.641090
 30
0.0
 10
125.946109
 20
412.131090
 30
0.0
 10
126.109109
 20
412.596085
 30
0.0
 10
126.371110
 20
413.013088
 30
0.0
 10
126.719110
 20
413.361087
 30
0.0
 10
127.136110
 20
413.623086
 30
0.0
 10
127.601111
 20
413.786089
 30
0.0
 10
128.091111
 20
413.841085
 30
0.0
 10
128.581110
 20
413.786089
 30
0.0
 10
129.046111
 20
413.623086
 30
0.0
 10
129.463109
 20
413.361087
 30
0.0
 10
129.811111
 20
413.013088
 30
0.0
 10
130.073109
 20
412.596085
 30
0.0
 10
130.236110
 20
412.131090
 30
0.0
 10
130.291109
 20
411.641090
 30
0.0
 10
130.236110
 20
411.151090
 30
0.0
 10
130.073109
 20
410.686086
 30
0.0
 10
129.811111
 20
410.269089
 30
0.0
 10
129.463109
 20
409.921089
 30
0.0
 10
129.046111
 20
409.659085
 30
0.0
 10
128.581110
 20
409.496088
 30
0.0
 10
128.091111
 20
409.441089
 30
0.0
 10
127.601111
 20
409.496088
 30
0.0
 10
127.136110
 20
409.659085
 30
0.0
 10
126.719110
 20
409.921089
 30
0.0
 10
126.371110
 20
410.269089
 30
0.0
 10
126.109109
 20
410.686086
 30
0.0
 10
125.946109
 20
411.151090
 30
0.0
 10
125.891109
 20
411.641090
 30
0.0
  0
LWPOLYLINE
  5
108
100
AcDbEntity
  8
0
 62
7
100
AcDbPolyline
 90
29
 70
0
 10
155.991108
 20
7.641110
 30
0.0
 10
156.046308
 20
8.131105
 30
0.0
 10
156.209009
 20
8.596094
 30
0.0
 10
156.471109
 20
9.013105
 30
0.0
 10
156.819411
 20
9.361114
 30
0.0
 10
157.236609
 20
9.623101
 30
0.0
 10
157.701609
 20
9.786112
 30
0.0
 10
158.191110
 20
9.841089
 30
0.0
 10
158.680610
 20
9.786112
 30
0.0
 10
159.145611
 20
9.623101
 30
0.0
 10
159.562808
 20
9.361114
 30
0.0
 10
159.911110
 20
9.013105
 30
0.0
 10
160.173210
 20
8.596094
 30
0.0
 10
160.335911
 20
8.131105
 30
0.0
 10
160.391111
 20
7.641110
 30
0.0
 10
160.335911
 20
7.151088
 30
0.0
 10
160.173210
 20
6.686099
 30
0.0
 10
159.911110
 20
6.269087
 30
0.0
 10
159.562808
 20
5.921107
 30
0.0
 10
159.145611
 20
5.659092
 30
0.0
 10
158.680610
 20
5.496109
 30
0.0
 10
158.191110
 20
5.441103
 30
0.0
 10
157.701609
 20
5.496109
 30
0.0
 10
157.236609
 20
5.659092
 30
0.0
 10
156.819411
 20
5.921107
 30
0.0
 10
156.471109
 20
6.269087
 30
0.0
 10
156.209009
 20
6.686099
 30
0.0
 10
156.046308
 20
7.151088
 30
0.0
 10
155.991108
 20
7.641110
 30
0.0
  0
LWPOLYLINE
  5
109
100
AcDbEntity
  8
0
 62
7
100
AcDbPolyline
 90
29
 70
0
 10
155.991108
 20
411.641090
 30
0.0
 10
156.046308
 20
412.131090
 30
0.0
 10
156.209009
 20
412.596085
 30
0.0
 10
156.471109
 20
413.013088
 30
0.0
 10
156.819411
 20
413.361087
 30
0.0
 10
157.236609
 20
413.623086
 30
0.0
 10
157.701609
 20
413.786089
 30
0.0
 10
158.191110
 20
413.841085
 30
0.0
 10
158.680610
 20
413.786089
 30
0.0
 10
159.145611
 20
413.623086
 30
0.0
 10
159.562808
 20
413.361087
 30
0.0
 10
159.911110
 20
413.013088
 30
0.0
 10
160.173210
 20
412.596085
 30
0.0
 10
160.335911
 20
412.131090
 30
0.0
 10
160.391111
 20
411.641090
 30
0.0
 10
160.335911
 20
411.151090
 30
0.0
 10
160.173210
 20
410.686086
 30
0.0
 10
159.911110
 20
410.269089
 30
0.0
 10
159.562808
 20
409.921089
 30
0.0
 10
159.145611
 20
409.659085
 30
0.0
 10
158.680610
 20
409.496088
 30
0.0
 10
158.191110
 20
409.441089
 30
0.0
 10
157.701609
 20
409.496088
 30
0.0
 10
157.236609
 20
409.659085
 30
0.0
 10
156.819411
 20
409.921089
 30
0.0
 10
156.471109
 20
410.269089
 30
0.0
 10
156.209009
 20
410.686086
 30
0.0
 10
156.046308
 20
411.151090
 30
0.0
 10
155.991108
 20
411.641090
 30
0.0
  0
LWPOLYLINE
  5
10a
100
AcDbEntity
  8
0
 62
7
100
AcDbPolyline
 90
31
 70
0
 10
193.931111
 20
396.691090
 30
0.0
 10
193.931111
 20
406.691090
 30
0.0
 10
193.986311
 20
407.181090
 30
0.0
 10
194.149009
 20
407.646087
 30
0.0
 10
194.411109
 20
408.063088
 30
0.0
 10
194.759411
 20
408.411090
 30
0.0
 10
195.176608
 20
408.673086
 30
0.0
 10
195.641609
 20
408.836089
 30
0.0
 10
196.131109
 20
408.891088
 30
0.0
 10
196.620610
 20
408.836089
 30
0.0
 10
197.085610
 20
408.673086
 30
0.0
 10
197.502811
 20
408.411090
 30
0.0
 10
197.851110
 20
408.063088
 30
0.0
 10
198.113210
 20
407.646087
 30
0.0
 10
198.275911
 20
407.181090
 30
0.0
 10
198.331111
 20
406.691090
 30
0.0
 10
198.331111
 20
396.691090
 30
0.0
 10
198.275911
 20
396.201090
 30
0.0
 10
198.113210
 20
395.736090
 30
0.0
 10
197.851110
 20
395.319086
 30
0.0
 10
197.502811
 20
394.971090
 30
0.0
 10
197.085610
 20
394.709089
 30
0.0
 10
196.620610
 20
394.546085
 30
0.0
 10
196.131109
 20
394.491089
 30
0.0
 10
195.641609
 20
394.546085
 30
0.0
 10
195.176608
 20
394.709089
 30
0.0
 10
194.759411
 20
394.971090
 30
0.0
 10
194.411109
 20
395.319086
 30
0.0
 10
194.149009
 20
395.736090
 30
0.0
 10
193.986311
 20
396.201090
 30
0.0
 10
193.931111
 20
396.691090
 30
0.0
  0
LWPOLYLINE
  5
10b
100
AcDbEntity
  8
0
 62
7
100
AcDbPolyline
 90
29
 70
0
 10
204.231110
 20
307.641088
 30
0.0
 10
204.286310
 20
308.130588
 30
0.0
 10
204.449011
 20
308.595589
 30
0.0
 10
204.711111
 20
309.012787
 30
0.0
 10
205.059410
 20
309.361088
 30
0.0
 10
205.476610
 20
309.623188
 30
0.0
 10
205.941611
 20
309.786087
 30
0.0
 10
206.431109
 20
309.841086
 30
0.0
 10
206.920609
 20
309.786087
 30
0.0
 10
207.385610
 20
309.623188
 30
0.0
 10
207.802810
 20
309.361088
 30
0.0
 10
208.151109
 20
309.012787
 30
0.0
 10
208.413209
 20
308.595589
 30
0.0
 10
208.575910
 20
308.130588
 30
0.0
 10
208.631110
 20
307.641088
 30
0.0
 10
208.575910
 20
307.151588
 30
0.0
 10
208.413209
 20
306.686587
 30
0.0
 10
208.151109
 20
306.269386
 30
0.0
 10
207.802810
 20
305.921087
 30
0.0
 10
207.385610
 20
305.658988
 30
0.0
 10
206.920609
 20
305.496287
 30
0.0
 10
206.431109
 20
305.441087
 30
0.0
 10
205.941611
 20
305.496287
 30
0.0
 10
205.476610
 20
305.658988
 30
0.0
 10
205.059410
 20
305.921087
 30
0.0
 10
204.711111
 20
306.269386
 30
0.0
 10
204.449011
 20
306.686587
 30
0.0
 10
204.286310
 20
307.151588
 30
0.0
 10
204.231110
 20
307.641088
 30
0.0
  0
LWPOLYLINE
  5
10c
100
AcDbEntity
  8
0
 62
7
100
AcDbPolyline
 90
29
 70
0
 10
212.431111
 20
7.591101
 30
0.0
 10
212.486311
 20
8.081095
 30
0.0
 10
212.649009
 20
8.546112
 30
0.0
 10
212.911109
 20
8.963096
 30
0.0
 10
213.259410
 20
9.311104
 30
0.0
 10
213.676611
 20
9.573091
 30
0.0
 10
214.141609
 20
9.736102
 30
0.0
 10
214.631109
 20
9.791107
 30
0.0
 10
215.120609
 20
9.736102
 30
0.0
 10
215.585610
 20
9.573091
 30
0.0
 10
216.002811
 20
9.311104
 30
0.0
 10
216.351110
 20
8.963096
 30
0.0
 10
216.613209
 20
8.546112
 30
0.0
 10
216.775911
 20
8.081095
 30
0.0
 10
216.831110
 20
7.591101
 30
0.0
 10
216.775911
 20
7.101106
 30
0.0
 10
216.613209
 20
6.636089
 30
0.0
 10
216.351110
 20
6.219105
 30
0.0
 10
216.002811
 20
5.871097
 30
0.0
 10
215.585610
 20
5.609110
 30
0.0
 10
215.120609
 20
5.446099
 30
0.0
 10
214.631109
 20
5.391094
 30
0.0
 10
214.141609
 20
5.446099
 30
0.0
 10
213.676611
 20
5.609110
 30
0.0
 10
213.259410
 20
5.871097
 30
0.0
 10
212.911109
 20
6.219105
 30
0.0
 10
212.649009
 20
6.636089
 30
0.0
 10
212.486311
 20
7.101106
 30
0.0
 10
212.431111
 20
7.591101
 30
0.0
  0
LWPOLYLINE
  5
10d
100
AcDbEntity
  8
0
 62
7
100
AcDbPolyline
 90
29
 70
0
 10
212.431111
 20
68.691100
 30
0.0
 10
212.486311
 20
69.181094
 30
0.0
 10
212.649009
 20
69.646083
 30
0.0
 10
212.911109
 20
70.063095
 30
0.0
 10
213.259410
 20
70.411075
 30
0.0
 10
213.676611
 20
70.673090
 30
0.0
 10
214.141609
 20
70.836102
 30
0.0
 10
214.631109
 20
70.891076
 30
0.0
 10
215.120609
 20
70.836102
 30
0.0
 10
215.585610
 20
70.673090
 30
0.0
 10
216.002811
 20
70.411075
 30
0.0
 10
216.351110
 20
70.063095
 30
0.0
 10
216.613209
 20
69.646083
 30
0.0
 10
216.775911
 20
69.181094
 30
0.0
 10
216.831110
 20
68.691100
 30
0.0
 10
216.775911
 20
68.201077
 30
0.0
 10
216.613209
 20
67.736088
 30
0.0
 10
216.351110
 20
67.319074
 30
0.0
 10
216.002811
 20
66.971094
 30
0.0
 10
215.585610
 20
66.709081
 30
0.0
 10
215.120609
 20
66.546098
 30
0.0
 10
214.631109
 20
66.491093
 30
0.0
 10
214.141609
 20
66.546098
 30
0.0
 10
213.676611
 20
66.709081
 30
0.0
 10
213.259410
 20
66.971094
 30
0.0
 10
212.911109
 20
67.319074
 30
0.0
 10
212.649009
 20
67.736088
 30
0.0
 10
212.486311
 20
68.201077
 30
0.0
 10
212.431111
 20
68.691100
 30
0.0
  0
LWPOLYLINE
  5
10e
100
AcDbEntity
  8
0
 62
7
100
AcDbPolyline
 90
29
 70
0
 10
242.431110
 20
7.591101
 30
0.0
 10
242.486270
 20
8.081095
 30
0.0
 10
242.648980
 20
8.546112
 30
0.0
 10
242.911080
 20
8.963096
 30
0.0
 10
243.259429
 20
9.311104
 30
0.0
 10
243.676559
 20
9.573091
 30
0.0
 10
244.141560
 20
9.736102
 30
0.0
 10
244.631111
 20
9.791107
 30
0.0
 10
245.120609
 20
9.736102
 30
0.0
 10
245.585609
 20
9.573091
 30
0.0
 10
246.002810
 20
9.311104
 30
0.0
 10
246.351109
 20
8.963096
 30
0.0
 10
246.613209
 20
8.546112
 30
0.0
 10
246.775910
 20
8.081095
 30
0.0
 10
246.831110
 20
7.591101
 30
0.0
 10
246.775910
 20
7.101106
 30
0.0
 10
246.613209
 20
6.636089
 30
0.0
 10
246.351109
 20
6.219105
 30
0.0
 10
246.002810
 20
5.871097
 30
0.0
 10
245.585609
 20
5.609110
 30
0.0
 10
245.120609
 20
5.446099
 30
0.0
 10
244.631111
 20
5.391094
 30
0.0
 10
244.141560
 20
5.446099
 30
0.0
 10
243.676559
 20
5.609110
 30
0.0
 10
243.259429
 20
5.871097
 30
0.0
 10
242.911080
 20
6.219105
 30
0.0
 10
242.648980
 20
6.636089
 30
0.0
 10
242.486270
 20
7.101106
 30
0.0
 10
242.431110
 20
7.591101
 30
0.0
  0
LWPOLYLINE
  5
10f
100
AcDbEntity
  8
0
 62
7
100
AcDbPolyline
 90
29
 70
0
 10
242.431110
 20
68.691100
 30
0.0
 10
242.486270
 20
69.181094
 30
0.0
 10
242.648980
 20
69.646083
 30
0.0
 10
242.911080
 20
70.063095
 30
0.0
 10
243.259429
 20
70.411075
 30
0.0
 10
243.676559
 20
70.673090
 30
0.0
 10
244.141560
 20
70.836102
 30
0.0
 10
244.631111
 20
70.891076
 30
0.0
 10
245.120609
 20
70.836102
 30
0.0
 10
245.585609
 20
70.673090
 30
0.0
 10
246.002810
 20
70.411075
 30
0.0
 10
246.351109
 20
70.063095
 30
0.0
 10
246.613209
 20
69.646083
 30
0.0
 10
246.775910
 20
69.181094
 30
0.0
 10
246.831110
 20
68.691100
 30
0.0
 10
246.775910
 20
68.201077
 30
0.0
 10
246.613209
 20
67.736088
 30
0.0
 10
246.351109
 20
67.319074
 30
0.0
 10
246.002810
 20
66.971094
 30
0.0
 10
245.585609
 20
66.709081
 30
0.0
 10
245.120609
 20
66.546098
 30
0.0
 10
244.631111
 20
66.491093
 30
0.0
 10
244.141560
 20
66.546098
 30
0.0
 10
243.676559
 20
66.709081
 30
0.0
 10
243.259429
 20
66.971094
 30
0.0
 10
242.911080
 20
67.319074
 30
0.0
 10
242.648980
 20
67.736088
 30
0.0
 10
242.486270
 20
68.201077
 30
0.0
 10
242.431110
 20
68.691100
 30
0.0
  0
LWPOLYLINE
  5
110
100
AcDbEntity
  8
0
 62
7
100
AcDbPolyline
 90
29
 70
0
 10
246.651111
 20
307.641088
 30
0.0
 10
246.706311
 20
308.130588
 30
0.0
 10
246.869009
 20
308.595589
 30
0.0
 10
247.131109
 20
309.012787
 30
0.0
 10
247.479411
 20
309.361088
 30
0.0
 10
247.896611
 20
309.623188
 30
0.0
 10
248.361609
 20
309.786087
 30
0.0
 10
248.851110
 20
309.841086
 30
0.0
 10
249.340610
 20
309.786087
 30
0.0
 10
249.805611
 20
309.623188
 30
0.0
 10
250.222811
 20
309.361088
 30
0.0
 10
250.571110
 20
309.012787
 30
0.0
 10
250.833210
 20
308.595589
 30
0.0
 10
250.995911
 20
308.130588
 30
0.0
 10
251.051111
 20
307.641088
 30
0.0
 10
250.995911
 20
307.151588
 30
0.0
 10
250.833210
 20
306.686587
 30
0.0
 10
250.571110
 20
306.269386
 30
0.0
 10
250.222811
 20
305.921087
 30
0.0
 10
249.805611
 20
305.658988
 30
0.0
 10
249.340610
 20
305.496287
 30
0.0
 10
248.851110
 20
305.441087
 30
0.0
 10
248.361609
 20
305.496287
 30
0.0
 10
247.896611
 20
305.658988
 30
0.0
 10
247.479411
 20
305.921087
 30
0.0
 10
247.131109
 20
306.269386
 30
0.0
 10
246.869009
 20
306.686587
 30
0.0
 10
246.706311
 20
307.151588
 30
0.0
 10
246.651111
 20
307.641088
 30
0.0
  0
LWPOLYLINE
  5
111
100
AcDbEntity
  8
0
 62
7
100
AcDbPolyline
 90
20
 70
0
 10
110.266353
 20
219.402117
 30
0.0
 10
110.307151
 20
219.894117
 30
0.0
 10
110.505550
 20
220.346116
 30
0.0
 10
110.839953
 20
220.710118
 30
0.0
 10
111.274250
 20
220.945116
 30
0.0
 10
111.761250
 20
221.026116
 30
0.0
 10
112.248352
 20
220.945116
 30
0.0
 10
112.682551
 20
220.710118
 30
0.0
 10
113.017052
 20
220.346116
 30
0.0
 10
113.215352
 20
219.894117
 30
0.0
 10
113.256150
 20
219.402117
 30
0.0
 10
113.134953
 20
218.923118
 30
0.0
 10
112.864852
 20
218.510117
 30
0.0
 10
112.475151
 20
218.207114
 30
0.0
 10
112.008152
 20
218.046115
 30
0.0
 10
111.514351
 20
218.046115
 30
0.0
 10
111.047352
 20
218.207114
 30
0.0
 10
110.657651
 20
218.510117
 30
0.0
 10
110.387551
 20
218.923118
 30
0.0
 10
110.266353
 20
219.402117
 30
0.0
  0
LWPOLYLINE
  5
112
100
AcDbEntity
  8
0
 62
7
100
AcDbPolyline
 90
20
 70
0
 10
110.097629
 20
225.202116
 30
0.0
 10
110.138427
 20
225.694114
 30
0.0
 10
110.336827
 20
226.146116
 30
0.0
 10
110.671229
 20
226.510118
 30
0.0
 10
111.105527
 20
226.745116
 30
0.0
 10
111.592527
 20
226.826113
 30
0.0
 10
112.079628
 20
226.745116
 30
0.0
 10
112.513827
 20
226.510118
 30
0.0
 10
112.848328
 20
226.146116
 30
0.0
 10
113.046629
 20
225.694114
 30
0.0
 10
113.087427
 20
225.202116
 30
0.0
 10
112.966229
 20
224.723117
 30
0.0
 10
112.696128
 20
224.310116
 30
0.0
 10
112.306427
 20
224.007114
 30
0.0
 10
111.839429
 20
223.846118
 30
0.0
 10
111.345627
 20
223.846118
 30
0.0
 10
110.878628
 20
224.007114
 30
0.0
 10
110.488928
 20
224.310116
 30
0.0
 10
110.218827
 20
224.723117
 30
0.0
 10
110.097629
 20
225.202116
 30
0.0
  0
LWPOLYLINE
  5
113
100
AcDbEntity
  8
0
 62
7
100
AcDbPolyline
 90
20
 70
0
 10
255.396210
 20
351.465089
 30
0.0
 10
255.517410
 20
351.944088
 30
0.0
 10
255.787511
 20
352.357089
 30
0.0
 10
256.177209
 20
352.660086
 30
0.0
 10
256.644211
 20
352.821088
 30
0.0
 10
257.138009
 20
352.821088
 30
0.0
 10
257.605011
 20
352.660086
 30
0.0
 10
257.994709
 20
352.357089
 30
0.0
 10
258.264810
 20
351.944088
 30
0.0
 10
258.386010
 20
351.465089
 30
0.0
 10
258.345209
 20
350.973085
 30
0.0
 10
258.146810
 20
350.521090
 30
0.0
 10
257.812410
 20
350.157088
 30
0.0
 10
257.378110
 20
349.922090
 30
0.0
 10
256.891110
 20
349.841086
 30
0.0
 10
256.404011
 20
349.922090
 30
0.0
 10
255.969810
 20
350.157088
 30
0.0
 10
255.635311
 20
350.521090
 30
0.0
 10
255.437011
 20
350.973085
 30
0.0
 10
255.396210
 20
351.465089
 30
0.0
  0
LWPOLYLINE
  5
114
100
AcDbEntity
  8
0
 62
7
100
AcDbPolyline
 90
20
 70
0
 10
255.396210
 20
360.065089
 30
0.0
 10
255.517410
 20
360.544088
 30
0.0
 10
255.787511
 20
360.957089
 30
0.0
 10
256.177209
 20
361.260085
 30
0.0
 10
256.644211
 20
361.421087
 30
0.0
 10
257.138009
 20
361.421087
 30
0.0
 10
257.605011
 20
361.260085
 30
0.0
 10
257.994709
 20
360.957089
 30
0.0
 10
258.264810
 20
360.544088
 30
0.0
 10
258.386010
 20
360.065089
 30
0.0
 10
258.345209
 20
359.573088
 30
0.0
 10
258.146810
 20
359.121086
 30
0.0
 10
257.812410
 20
358.757088
 30
0.0
 10
257.378110
 20
358.522090
 30
0.0
 10
256.891110
 20
358.441089
 30
0.0
 10
256.404011
 20
358.522090
 30
0.0
 10
255.969810
 20
358.757088
 30
0.0
 10
255.635311
 20
359.121086
 30
0.0
 10
255.437011
 20
359.573088
 30
0.0
 10
255.396210
 20
360.065089
 30
0.0
  0
LWPOLYLINE
  5
115
100
AcDbEntity
  8
0
 62
7
100
AcDbPolyline
 90
29
 70
0
 10
294.891121
 20
75.641076
 30
0.0
 10
294.946324
 20
76.131096
 30
0.0
 10
295.108997
 20
76.596088
 30
0.0
 10
295.371125
 20
77.013099
 30
0.0
 10
295.719415
 20
77.361076
 30
0.0
 10
296.136596
 20
77.623092
 30
0.0
 10
296.601614
 20
77.786078
 30
0.0
 10
297.091100
 20
77.841083
 30
0.0
 10
297.580614
 20
77.786078
 30
0.0
 10
298.045604
 20
77.623092
 30
0.0
 10
298.462813
 20
77.361076
 30
0.0
 10
298.811103
 20
77.013099
 30
0.0
 10
299.073203
 20
76.596088
 30
0.0
 10
299.235904
 20
76.131096
 30
0.0
 10
299.291107
 20
75.641076
 30
0.0
 10
299.235904
 20
75.151082
 30
0.0
 10
299.073203
 20
74.686090
 30
0.0
 10
298.811103
 20
74.269081
 30
0.0
 10
298.462813
 20
73.921101
 30
0.0
 10
298.045604
 20
73.659086
 30
0.0
 10
297.580614
 20
73.496100
 30
0.0
 10
297.091100
 20
73.441097
 30
0.0
 10
296.601614
 20
73.496100
 30
0.0
 10
296.136596
 20
73.659086
 30
0.0
 10
295.719415
 20
73.921101
 30
0.0
 10
295.371125
 20
74.269081
 30
0.0
 10
295.108997
 20
74.686090
 30
0.0
 10
294.946324
 20
75.151082
 30
0.0
 10
294.891121
 20
75.641076
 30
0.0
  0
LWPOLYLINE
  5
116
100
AcDbEntity
  8
0
 62
7
100
AcDbPolyline
 90
29
 70
0
 10
294.891121
 20
332.641090
 30
0.0
 10
294.946324
 20
333.131090
 30
0.0
 10
295.108997
 20
333.596087
 30
0.0
 10
295.371125
 20
334.013088
 30
0.0
 10
295.719415
 20
334.361085
 30
0.0
 10
296.136596
 20
334.623086
 30
0.0
 10
296.601614
 20
334.786089
 30
0.0
 10
297.091100
 20
334.841085
 30
0.0
 10
297.580614
 20
334.786089
 30
0.0
 10
298.045604
 20
334.623086
 30
0.0
 10
298.462813
 20
334.361085
 30
0.0
 10
298.811103
 20
334.013088
 30
0.0
 10
299.073203
 20
333.596087
 30
0.0
 10
299.235904
 20
333.131090
 30
0.0
 10
299.291107
 20
332.641090
 30
0.0
 10
299.235904
 20
332.151090
 30
0.0
 10
299.073203
 20
331.686086
 30
0.0
 10
298.811103
 20
331.269089
 30
0.0
 10
298.462813
 20
330.921089
 30
0.0
 10
298.045604
 20
330.659085
 30
0.0
 10
297.580614
 20
330.496088
 30
0.0
 10
297.091100
 20
330.441086
 30
0.0
 10
296.601614
 20
330.496088
 30
0.0
 10
296.136596
 20
330.659085
 30
0.0
 10
295.719415
 20
330.921089
 30
0.0
 10
295.371125
 20
331.269089
 30
0.0
 10
295.108997
 20
331.686086
 30
0.0
 10
294.946324
 20
332.151090
 30
0.0
 10
294.891121
 20
332.641090
 30
0.0
  0
LWPOLYLINE
  5
117
100
AcDbEntity
  8
0
 62
7
100
AcDbPolyline
 90
29
 70
0
 10
324.991109
 20
75.641076
 30
0.0
 10
325.046312
 20
76.131096
 30
0.0
 10
325.209013
 20
76.596088
 30
0.0
 10
325.471113
 20
77.013099
 30
0.0
 10
325.819403
 20
77.361076
 30
0.0
 10
326.236612
 20
77.623092
 30
0.0
 10
326.701602
 20
77.786078
 30
0.0
 10
327.191116
 20
77.841083
 30
0.0
 10
327.680602
 20
77.786078
 30
0.0
 10
328.145620
 20
77.623092
 30
0.0
 10
328.562801
 20
77.361076
 30
0.0
 10
328.911119
 20
77.013099
 30
0.0
 10
329.173219
 20
76.596088
 30
0.0
 10
329.335920
 20
76.131096
 30
0.0
 10
329.391123
 20
75.641076
 30
0.0
 10
329.335920
 20
75.151082
 30
0.0
 10
329.173219
 20
74.686090
 30
0.0
 10
328.911119
 20
74.269081
 30
0.0
 10
328.562801
 20
73.921101
 30
0.0
 10
328.145620
 20
73.659086
 30
0.0
 10
327.680602
 20
73.496100
 30
0.0
 10
327.191116
 20
73.441097
 30
0.0
 10
326.701602
 20
73.496100
 30
0.0
 10
326.236612
 20
73.659086
 30
0.0
 10
325.819403
 20
73.921101
 30
0.0
 10
325.471113
 20
74.269081
 30
0.0
 10
325.209013
 20
74.686090
 30
0.0
 10
325.046312
 20
75.151082
 30
0.0
 10
324.991109
 20
75.641076
 30
0.0
  0
LWPOLYLINE
  5
118
100
AcDbEntity
  8
0
 62
7
100
AcDbPolyline
 90
29
 70
0
 10
324.991109
 20
332.641090
 30
0.0
 10
325.046312
 20
333.131090
 30
0.0
 10
325.209013
 20
333.596087
 30
0.0
 10
325.471113
 20
334.013088
 30
0.0
 10
325.819403
 20
334.361085
 30
0.0
 10
326.236612
 20
334.623086
 30
0.0
 10
326.701602
 20
334.786089
 30
0.0
 10
327.191116
 20
334.841085
 30
0.0
 10
327.680602
 20
334.786089
 30
0.0
 10
328.145620
 20
334.623086
 30
0.0
 10
328.562801
 20
334.361085
 30
0.0
 10
328.911119
 20
334.013088
 30
0.0
 10
329.173219
 20
333.596087
 30
0.0
 10
329.335920
 20
333.131090
 30
0.0
 10
329.391123
 20
332.641090
 30
0.0
 10
329.335920
 20
332.151090
 30
0.0
 10
329.173219
 20
331.686086
 30
0.0
 10
328.911119
 20
331.269089
 30
0.0
 10
328.562801
 20
330.921089
 30
0.0
 10
328.145620
 20
330.659085
 30
0.0
 10
327.680602
 20
330.496088
 30
0.0
 10
327.191116
 20
330.441086
 30
0.0
 10
326.701602
 20
330.496088
 30
0.0
 10
326.236612
 20
330.659085
 30
0.0
 10
325.819403
 20
330.921089
 30
0.0
 10
325.471113
 20
331.269089
 30
0.0
 10
325.209013
 20
331.686086
 30
0.0
 10
325.046312
 20
332.151090
 30
0.0
 10
324.991109
 20
332.641090
 30
0.0
  0
LWPOLYLINE
  5
119
100
AcDbEntity
  8
0
 62
7
100
AcDbPolyline
 90
20
 70
0
 10
333.661625
 20
96.894103
 30
0.0
 10
333.661625
 20
97.388076
 30
0.0
 10
333.821899
 20
97.855098
 30
0.0
 10
334.125203
 20
98.245098
 30
0.0
 10
334.538122
 20
98.515100
 30
0.0
 10
335.017110
 20
98.636091
 30
0.0
 10
335.509108
 20
98.595084
 30
0.0
 10
335.961115
 20
98.397077
 30
0.0
 10
336.325097
 20
98.062079
 30
0.0
 10
336.560104
 20
97.628078
 30
0.0
 10
336.641101
 20
97.141072
 30
0.0
 10
336.560104
 20
96.654101
 30
0.0
 10
336.325097
 20
96.220100
 30
0.0
 10
335.961115
 20
95.885102
 30
0.0
 10
335.509108
 20
95.687095
 30
0.0
 10
335.017110
 20
95.646088
 30
0.0
 10
334.538122
 20
95.767074
 30
0.0
 10
334.125203
 20
96.037076
 30
0.0
 10
333.821899
 20
96.427078
 30
0.0
 10
333.661625
 20
96.894103
 30
0.0
  0
LWPOLYLINE
  5
11a
100
AcDbEntity
  8
0
 62
7
100
AcDbPolyline
 90
20
 70
0
 10
333.661625
 20
264.794187
 30
0.0
 10
333.661625
 20
265.287989
 30
0.0
 10
333.821899
 20
265.754988
 30
0.0
 10
334.125203
 20
266.144686
 30
0.0
 10
334.538122
 20
266.414789
 30
0.0
 10
335.017110
 20
266.535990
 30
0.0
 10
335.509108
 20
266.495189
 30
0.0
 10
335.961115
 20
266.296789
 30
0.0
 10
336.325097
 20
265.962390
 30
0.0
 10
336.560104
 20
265.528086
 30
0.0
 10
336.641101
 20
265.041087
 30
0.0
 10
336.560104
 20
264.553988
 30
0.0
 10
336.325097
 20
264.119789
 30
0.0
 10
335.961115
 20
263.785288
 30
0.0
 10
335.509108
 20
263.586985
 30
0.0
 10
335.017110
 20
263.546187
 30
0.0
 10
334.538122
 20
263.667390
 30
0.0
 10
334.125203
 20
263.937488
 30
0.0
 10
333.821899
 20
264.327189
 30
0.0
 10
333.661625
 20
264.794187
 30
0.0
  0
LWPOLYLINE
  5
11b
100
AcDbEntity
  8
0
 62
7
100
AcDbPolyline
 90
20
 70
0
 10
339.461122
 20
96.894103
 30
0.0
 10
339.461122
 20
97.388076
 30
0.0
 10
339.622102
 20
97.855098
 30
0.0
 10
339.925124
 20
98.245098
 30
0.0
 10
340.338100
 20
98.515100
 30
0.0
 10
340.817115
 20
98.636091
 30
0.0
 10
341.309113
 20
98.595084
 30
0.0
 10
341.761120
 20
98.397077
 30
0.0
 10
342.125102
 20
98.062079
 30
0.0
 10
342.360109
 20
97.628078
 30
0.0
 10
342.441107
 20
97.141072
 30
0.0
 10
342.360109
 20
96.654101
 30
0.0
 10
342.125102
 20
96.220100
 30
0.0
 10
341.761120
 20
95.885102
 30
0.0
 10
341.309113
 20
95.687095
 30
0.0
 10
340.817115
 20
95.646088
 30
0.0
 10
340.338100
 20
95.767074
 30
0.0
 10
339.925124
 20
96.037076
 30
0.0
 10
339.622102
 20
96.427078
 30
0.0
 10
339.461122
 20
96.894103
 30
0.0
  0
LWPOLYLINE
  5
11c
100
AcDbEntity
  8
0
 62
7
100
AcDbPolyline
 90
20
 70
0
 10
339.461122
 20
264.794187
 30
0.0
 10
339.461122
 20
265.287989
 30
0.0
 10
339.622102
 20
265.754988
 30
0.0
 10
339.925124
 20
266.144686
 30
0.0
 10
340.338100
 20
266.414789
 30
0.0
 10
340.817115
 20
266.535990
 30
0.0
 10
341.309113
 20
266.495189
 30
0.0
 10
341.761120
 20
266.296789
 30
0.0
 10
342.125102
 20
265.962390
 30
0.0
 10
342.360109
 20
265.528086
 30
0.0
 10
342.441107
 20
265.041087
 30
0.0
 10
342.360109
 20
264.553988
 30
0.0
 10
342.125102
 20
264.119789
 30
0.0
 10
341.761120
 20
263.785288
 30
0.0
 10
341.309113
 20
263.586985
 30
0.0
 10
340.817115
 20
263.546187
 30
0.0
 10
340.338100
 20
263.667390
 30
0.0
 10
339.925124
 20
263.937488
 30
0.0
 10
339.622102
 20
264.327189
 30
0.0
 10
339.461122
 20
264.794187
 30
0.0
  0
LWPOLYLINE
  5
11d
100
AcDbEntity
  8
0
 62
7
100
AcDbPolyline
 90
20
 70
0
 10
344.841096
 20
92.141082
 30
0.0
 10
344.922122
 20
92.628088
 30
0.0
 10
345.157100
 20
93.062089
 30
0.0
 10
345.521111
 20
93.397087
 30
0.0
 10
345.973118
 20
93.595094
 30
0.0
 10
346.465116
 20
93.636101
 30
0.0
 10
346.944103
 20
93.515084
 30
0.0
 10
347.357107
 20
93.245082
 30
0.0
 10
347.660101
 20
92.855076
 30
0.0
 10
347.821109
 20
92.388086
 30
0.0
 10
347.821109
 20
91.894082
 30
0.0
 10
347.660101
 20
91.427088
 30
0.0
 10
347.357107
 20
91.037086
 30
0.0
 10
346.944103
 20
90.767084
 30
0.0
 10
346.465116
 20
90.646098
 30
0.0
 10
345.973118
 20
90.687074
 30
0.0
 10
345.521111
 20
90.885084
 30
0.0
 10
345.157100
 20
91.220081
 30
0.0
 10
344.922122
 20
91.654083
 30
0.0
 10
344.841096
 20
92.141082
 30
0.0
  0
LWPOLYLINE
  5
11e
100
AcDbEntity
  8
0
 62
7
100
AcDbPolyline
 90
20
 70
0
 10
344.841096
 20
260.041088
 30
0.0
 10
344.922122
 20
260.528190
 30
0.0
 10
345.157100
 20
260.962389
 30
0.0
 10
345.521111
 20
261.296890
 30
0.0
 10
345.973118
 20
261.495187
 30
0.0
 10
346.465116
 20
261.535985
 30
0.0
 10
346.944103
 20
261.414788
 30
0.0
 10
347.357107
 20
261.144690
 30
0.0
 10
347.660101
 20
260.754989
 30
0.0
 10
347.821109
 20
260.287990
 30
0.0
 10
347.821109
 20
259.794189
 30
0.0
 10
347.660101
 20
259.327190
 30
0.0
 10
347.357107
 20
258.937489
 30
0.0
 10
346.944103
 20
258.667386
 30
0.0
 10
346.465116
 20
258.546188
 30
0.0
 10
345.973118
 20
258.586989
 30
0.0
 10
345.521111
 20
258.785386
 30
0.0
 10
345.157100
 20
259.119788
 30
0.0
 10
344.922122
 20
259.554088
 30
0.0
 10
344.841096
 20
260.041088
 30
0.0
  0
LWPOLYLINE
  5
11f
100
AcDbEntity
  8
0
 62
7
100
AcDbPolyline
 90
20
 70
0
 10
350.641102
 20
92.141082
 30
0.0
 10
350.722099
 20
92.628088
 30
0.0
 10
350.957106
 20
93.062089
 30
0.0
 10
351.321116
 20
93.397087
 30
0.0
 10
351.773123
 20
93.595094
 30
0.0
 10
352.265121
 20
93.636101
 30
0.0
 10
352.744109
 20
93.515084
 30
0.0
 10
353.157113
 20
93.245082
 30
0.0
 10
353.460106
 20
92.855076
 30
0.0
 10
353.621114
 20
92.388086
 30
0.0
 10
353.621114
 20
91.894082
 30
0.0
 10
353.460106
 20
91.427088
 30
0.0
 10
353.157113
 20
91.037086
 30
0.0
 10
352.744109
 20
90.767084
 30
0.0
 10
352.265121
 20
90.646098
 30
0.0
 10
351.773123
 20
90.687074
 30
0.0
 10
351.321116
 20
90.885084
 30
0.0
 10
350.957106
 20
91.220081
 30
0.0
 10
350.722099
 20
91.654083
 30
0.0
 10
350.641102
 20
92.141082
 30
0.0
  0
LWPOLYLINE
  5
120
100
AcDbEntity
  8
0
 62
7
100
AcDbPolyline
 90
20
 70
0
 10
350.641102
 20
260.041088
 30
0.0
 10
350.722099
 20
260.528190
 30
0.0
 10
350.957106
 20
260.962389
 30
0.0
 10
351.321116
 20
261.296890
 30
0.0
 10
351.773123
 20
261.495187
 30
0.0
 10
352.265121
 20
261.535985
 30
0.0
 10
352.744109
 20
261.414788
 30
0.0
 10
353.157113
 20
261.144690
 30
0.0
 10
353.460106
 20
260.754989
 30
0.0
 10
353.621114
 20
260.287990
 30
0.0
 10
353.621114
 20
259.794189
 30
0.0
 10
353.460106
 20
259.327190
 30
0.0
 10
353.157113
 20
258.937489
 30
0.0
 10
352.744109
 20
258.667386
 30
0.0
 10
352.265121
 20
258.546188
 30
0.0
 10
351.773123
 20
258.586989
 30
0.0
 10
351.321116
 20
258.785386
 30
0.0
 10
350.957106
 20
259.119788
 30
0.0
 10
350.722099
 20
259.554088
 30
0.0
 10
350.641102
 20
260.041088
 30
0.0
  0
LWPOLYLINE
  5
121
100
AcDbEntity
  8
0
 62
7
100
AcDbPolyline
 90
29
 70
0
 10
359.691122
 20
19.451083
 30
0.0
 10
359.746098
 20
19.941077
 30
0.0
 10
359.909110
 20
20.406095
 30
0.0
 10
360.171097
 20
20.823075
 30
0.0
 10
360.519105
 20
21.171084
 30
0.0
 10
360.936117
 20
21.433102
 30
0.0
 10
361.401106
 20
21.596085
 30
0.0
 10
361.891100
 20
21.651090
 30
0.0
 10
362.381123
 20
21.596085
 30
0.0
 10
362.846112
 20
21.433102
 30
0.0
 10
363.263095
 20
21.171084
 30
0.0
 10
363.611104
 20
20.823075
 30
0.0
 10
363.873119
 20
20.406095
 30
0.0
 10
364.036102
 20
19.941077
 30
0.0
 10
364.091107
 20
19.451083
 30
0.0
 10
364.036102
 20
18.961089
 30
0.0
 10
363.873119
 20
18.496100
 30
0.0
 10
363.611104
 20
18.079088
 30
0.0
 10
363.263095
 20
17.731080
 30
0.0
 10
362.846112
 20
17.469093
 30
0.0
 10
362.381123
 20
17.306081
 30
0.0
 10
361.891100
 20
17.251073
 30
0.0
 10
361.401106
 20
17.306081
 30
0.0
 10
360.936117
 20
17.469093
 30
0.0
 10
360.519105
 20
17.731080
 30
0.0
 10
360.171097
 20
18.079088
 30
0.0
 10
359.909110
 20
18.496100
 30
0.0
 10
359.746098
 20
18.961089
 30
0.0
 10
359.691122
 20
19.451083
 30
0.0
  0
LWPOLYLINE
  5
122
100
AcDbEntity
  8
0
 62
7
100
AcDbPolyline
 90
29
 70
0
 10
359.691122
 20
399.831089
 30
0.0
 10
359.746098
 20
400.321089
 30
0.0
 10
359.909110
 20
400.786089
 30
0.0
 10
360.171097
 20
401.203090
 30
0.0
 10
360.519105
 20
401.551087
 30
0.0
 10
360.936117
 20
401.813090
 30
0.0
 10
361.401106
 20
401.976088
 30
0.0
 10
361.891100
 20
402.031090
 30
0.0
 10
362.381123
 20
401.976088
 30
0.0
 10
362.846112
 20
401.813090
 30
0.0
 10
363.263095
 20
401.551087
 30
0.0
 10
363.611104
 20
401.203090
 30
0.0
 10
363.873119
 20
400.786089
 30
0.0
 10
364.036102
 20
400.321089
 30
0.0
 10
364.091107
 20
399.831089
 30
0.0
 10
364.036102
 20
399.341089
 30
0.0
 10
363.873119
 20
398.876088
 30
0.0
 10
363.611104
 20
398.459088
 30
0.0
 10
363.263095
 20
398.111086
 30
0.0
 10
362.846112
 20
397.849087
 30
0.0
 10
362.381123
 20
397.686090
 30
0.0
 10
361.891100
 20
397.631088
 30
0.0
 10
361.401106
 20
397.686090
 30
0.0
 10
360.936117
 20
397.849087
 30
0.0
 10
360.519105
 20
398.111086
 30
0.0
 10
360.171097
 20
398.459088
 30
0.0
 10
359.909110
 20
398.876088
 30
0.0
 10
359.746098
 20
399.341089
 30
0.0
 10
359.691122
 20
399.831089
 30
0.0
  0
LWPOLYLINE
  5
123
100
AcDbEntity
  8
0
 62
7
100
AcDbPolyline
 90
52
 70
0
 10
388.649097
 20
209.394851
 30
0.0
 10
388.649097
 20
209.887329
 30
0.0
 10
388.709098
 20
210.376082
 30
0.0
 10
388.829098
 20
210.853686
 30
0.0
 10
389.007124
 20
211.312918
 30
0.0
 10
389.240099
 20
211.746807
 30
0.0
 10
389.525115
 20
212.148776
 30
0.0
 10
389.856105
 20
212.512730
 30
0.0
 10
390.230106
 20
212.833165
 30
0.0
 10
390.641106
 20
213.105199
 30
0.0
 10
391.082107
 20
213.324711
 30
0.0
 10
391.546108
 20
213.488400
 30
0.0
 10
392.027100
 20
213.593754
 30
0.0
 10
392.518110
 20
213.639188
 30
0.0
 10
393.010108
 20
213.623948
 30
0.0
 10
393.497110
 20
213.548482
 30
0.0
 10
393.970115
 20
213.413693
 30
0.0
 10
394.424098
 20
213.221725
 30
0.0
 10
394.850112
 20
212.975486
 30
0.0
 10
395.243106
 20
212.678699
 30
0.0
 10
395.597098
 20
212.335858
 30
0.0
 10
395.906103
 20
211.952177
 30
0.0
 10
396.165098
 20
211.533444
 30
0.0
 10
396.371120
 20
211.086065
 30
0.0
 10
396.520106
 20
210.616727
 30
0.0
 10
396.611122
 20
210.132634
 30
0.0
 10
396.641094
 20
209.641087
 30
0.0
 10
396.611122
 20
209.149541
 30
0.0
 10
396.520106
 20
208.665417
 30
0.0
 10
396.371120
 20
208.196107
 30
0.0
 10
396.165098
 20
207.748703
 30
0.0
 10
395.906103
 20
207.329998
 30
0.0
 10
395.597098
 20
206.946317
 30
0.0
 10
395.243106
 20
206.603473
 30
0.0
 10
394.850112
 20
206.306688
 30
0.0
 10
394.424098
 20
206.060449
 30
0.0
 10
393.970115
 20
205.868451
 30
0.0
 10
393.497110
 20
205.733692
 30
0.0
 10
393.010108
 20
205.658139
 30
0.0
 10
392.518110
 20
205.642899
 30
0.0
 10
392.027100
 20
205.688424
 30
0.0
 10
391.546108
 20
205.793775
 30
0.0
 10
391.082107
 20
205.957464
 30
0.0
 10
390.641106
 20
206.176979
 30
0.0
 10
390.230106
 20
206.449013
 30
0.0
 10
389.856105
 20
206.769448
 30
0.0
 10
389.525115
 20
207.133371
 30
0.0
 10
389.240099
 20
207.535343
 30
0.0
 10
389.007124
 20
207.969259
 30
0.0
 10
388.829098
 20
208.428463
 30
0.0
 10
388.709098
 20
208.906096
 30
0.0
 10
388.649097
 20
209.394848
 30
0.0
  0
LWPOLYLINE
  5
124
100
AcDbEntity
  8
0
 62
7
100
AcDbPolyline
 90
29
 70
0
 10
389.201124
 20
260.341088
 30
0.0
 10
389.256101
 20
260.830588
 30
0.0
 10
389.419112
 20
261.295589
 30
0.0
 10
389.681099
 20
261.712789
 30
0.0
 10
390.029107
 20
262.061088
 30
0.0
 10
390.446119
 20
262.323188
 30
0.0
 10
390.911108
 20
262.485889
 30
0.0
 10
391.401102
 20
262.541089
 30
0.0
 10
391.891125
 20
262.485889
 30
0.0
 10
392.356114
 20
262.323188
 30
0.0
 10
392.773098
 20
262.061088
 30
0.0
 10
393.121106
 20
261.712789
 30
0.0
 10
393.383121
 20
261.295589
 30
0.0
 10
393.546104
 20
260.830588
 30
0.0
 10
393.601109
 20
260.341088
 30
0.0
 10
393.546104
 20
259.851590
 30
0.0
 10
393.383121
 20
259.386587
 30
0.0
 10
393.121106
 20
258.969389
 30
0.0
 10
392.773098
 20
258.621090
 30
0.0
 10
392.356114
 20
258.358990
 30
0.0
 10
391.891125
 20
258.196289
 30
0.0
 10
391.401102
 20
258.141089
 30
0.0
 10
390.911108
 20
258.196289
 30
0.0
 10
390.446119
 20
258.358990
 30
0.0
 10
390.029107
 20
258.621090
 30
0.0
 10
389.681099
 20
258.969389
 30
0.0
 10
389.419112
 20
259.386587
 30
0.0
 10
389.256101
 20
259.851590
 30
0.0
 10
389.201124
 20
260.341088
 30
0.0
  0
LWPOLYLINE
  5
125
100
AcDbEntity
  8
0
 62
7
100
AcDbPolyline
 90
29
 70
0
 10
447.131101
 20
260.341088
 30
0.0
 10
447.186106
 20
260.830588
 30
0.0
 10
447.349118
 20
261.295589
 30
0.0
 10
447.611105
 20
261.712789
 30
0.0
 10
447.959113
 20
262.061088
 30
0.0
 10
448.376125
 20
262.323188
 30
0.0
 10
448.841114
 20
262.485889
 30
0.0
 10
449.331108
 20
262.541089
 30
0.0
 10
449.821102
 20
262.485889
 30
0.0
 10
450.286120
 20
262.323188
 30
0.0
 10
450.703103
 20
262.061088
 30
0.0
 10
451.051112
 20
261.712789
 30
0.0
 10
451.313098
 20
261.295589
 30
0.0
 10
451.476110
 20
260.830588
 30
0.0
 10
451.531115
 20
260.341088
 30
0.0
 10
451.476110
 20
259.851590
 30
0.0
 10
451.313098
 20
259.386587
 30
0.0
 10
451.051112
 20
258.969389
 30
0.0
 10
450.703103
 20
258.621090
 30
0.0
 10
450.286120
 20
258.358990
 30
0.0
 10
449.821102
 20
258.196289
 30
0.0
 10
449.331108
 20
258.141089
 30
0.0
 10
448.841114
 20
258.196289
 30
0.0
 10
448.376125
 20
258.358990
 30
0.0
 10
447.959113
 20
258.621090
 30
0.0
 10
447.611105
 20
258.969389
 30
0.0
 10
447.349118
 20
259.386587
 30
0.0
 10
447.186106
 20
259.851590
 30
0.0
 10
447.131101
 20
260.341088
 30
0.0
  0
LWPOLYLINE
  5
126
100
AcDbEntity
  8
0
 62
7
100
AcDbPolyline
 90
29
 70
0
 10
294.891231
 20
7.641010
 30
0.0
 10
294.946231
 20
8.131004
 30
0.0
 10
295.109231
 20
8.595994
 30
0.0
 10
295.371232
 20
9.013005
 30
0.0
 10
295.719232
 20
9.361013
 30
0.0
 10
296.136232
 20
9.623000
 30
0.0
 10
296.601233
 20
9.786012
 30
0.0
 10
297.091233
 20
9.840989
 30
0.0
 10
297.581233
 20
9.786012
 30
0.0
 10
298.046233
 20
9.623000
 30
0.0
 10
298.463231
 20
9.361013
 30
0.0
 10
298.811233
 20
9.013005
 30
0.0
 10
299.073231
 20
8.595994
 30
0.0
 10
299.236232
 20
8.131004
 30
0.0
 10
299.291231
 20
7.641010
 30
0.0
 10
299.236232
 20
7.150988
 30
0.0
 10
299.073231
 20
6.685998
 30
0.0
 10
298.811233
 20
6.268987
 30
0.0
 10
298.463231
 20
5.921007
 30
0.0
 10
298.046233
 20
5.658992
 30
0.0
 10
297.581233
 20
5.496008
 30
0.0
 10
297.091233
 20
5.441003
 30
0.0
 10
296.601233
 20
5.496008
 30
0.0
 10
296.136232
 20
5.658992
 30
0.0
 10
295.719232
 20
5.921007
 30
0.0
 10
295.371232
 20
6.268987
 30
0.0
 10
295.109231
 20
6.685998
 30
0.0
 10
294.946231
 20
7.150988
 30
0.0
 10
294.891231
 20
7.641010
 30
0.0
  0
LWPOLYLINE
  5
127
100
AcDbEntity
  8
0
 62
7
100
AcDbPolyline
 90
29
 70
0
 10
294.891231
 20
411.640989
 30
0.0
 10
294.946231
 20
412.130989
 30
0.0
 10
295.109231
 20
412.595984
 30
0.0
 10
295.371232
 20
413.012987
 30
0.0
 10
295.719232
 20
413.360987
 30
0.0
 10
296.136232
 20
413.622985
 30
0.0
 10
296.601233
 20
413.785988
 30
0.0
 10
297.091233
 20
413.840985
 30
0.0
 10
297.581233
 20
413.785988
 30
0.0
 10
298.046233
 20
413.622985
 30
0.0
 10
298.463231
 20
413.360987
 30
0.0
 10
298.811233
 20
413.012987
 30
0.0
 10
299.073231
 20
412.595984
 30
0.0
 10
299.236232
 20
412.130989
 30
0.0
 10
299.291231
 20
411.640989
 30
0.0
 10
299.236232
 20
411.150990
 30
0.0
 10
299.073231
 20
410.685986
 30
0.0
 10
298.811233
 20
410.268989
 30
0.0
 10
298.463231
 20
409.920989
 30
0.0
 10
298.046233
 20
409.658985
 30
0.0
 10
297.581233
 20
409.495988
 30
0.0
 10
297.091233
 20
409.440988
 30
0.0
 10
296.601233
 20
409.495988
 30
0.0
 10
296.136232
 20
409.658985
 30
0.0
 10
295.719232
 20
409.920989
 30
0.0
 10
295.371232
 20
410.268989
 30
0.0
 10
295.109231
 20
410.685986
 30
0.0
 10
294.946231
 20
411.150990
 30
0.0
 10
294.891231
 20
411.640989
 30
0.0
  0
LWPOLYLINE
  5
128
100
AcDbEntity
  8
0
 62
7
100
AcDbPolyline
 90
29
 70
0
 10
324.991230
 20
7.641010
 30
0.0
 10
325.046430
 20
8.131004
 30
0.0
 10
325.209131
 20
8.595994
 30
0.0
 10
325.471231
 20
9.013005
 30
0.0
 10
325.819533
 20
9.361013
 30
0.0
 10
326.236731
 20
9.623000
 30
0.0
 10
326.701731
 20
9.786012
 30
0.0
 10
327.191232
 20
9.840989
 30
0.0
 10
327.680732
 20
9.786012
 30
0.0
 10
328.145733
 20
9.623000
 30
0.0
 10
328.562930
 20
9.361013
 30
0.0
 10
328.911232
 20
9.013005
 30
0.0
 10
329.173332
 20
8.595994
 30
0.0
 10
329.336033
 20
8.131004
 30
0.0
 10
329.391233
 20
7.641010
 30
0.0
 10
329.336033
 20
7.150988
 30
0.0
 10
329.173332
 20
6.685998
 30
0.0
 10
328.911232
 20
6.268987
 30
0.0
 10
328.562930
 20
5.921007
 30
0.0
 10
328.145733
 20
5.658992
 30
0.0
 10
327.680732
 20
5.496008
 30
0.0
 10
327.191232
 20
5.441003
 30
0.0
 10
326.701731
 20
5.496008
 30
0.0
 10
326.236731
 20
5.658992
 30
0.0
 10
325.819533
 20
5.921007
 30
0.0
 10
325.471231
 20
6.268987
 30
0.0
 10
325.209131
 20
6.685998
 30
0.0
 10
325.046430
 20
7.150988
 30
0.0
 10
324.991230
 20
7.641010
 30
0.0
  0
LWPOLYLINE
  5
129
100
AcDbEntity
  8
0
 62
7
100
AcDbPolyline
 90
29
 70
0
 10
324.991230
 20
411.640989
 30
0.0
 10
325.046430
 20
412.130989
 30
0.0
 10
325.209131
 20
412.595984
 30
0.0
 10
325.471231
 20
413.012987
 30
0.0
 10
325.819533
 20
413.360987
 30
0.0
 10
326.236731
 20
413.622985
 30
0.0
 10
326.701731
 20
413.785988
 30
0.0
 10
327.191232
 20
413.840985
 30
0.0
 10
327.680732
 20
413.785988
 30
0.0
 10
328.145733
 20
413.622985
 30
0.0
 10
328.562930
 20
413.360987
 30
0.0
 10
328.911232
 20
413.012987
 30
0.0
 10
329.173332
 20
412.595984
 30
0.0
 10
329.336033
 20
412.130989
 30
0.0
 10
329.391233
 20
411.640989
 30
0.0
 10
329.336033
 20
411.150990
 30
0.0
 10
329.173332
 20
410.685986
 30
0.0
 10
328.911232
 20
410.268989
 30
0.0
 10
328.562930
 20
409.920989
 30
0.0
 10
328.145733
 20
409.658985
 30
0.0
 10
327.680732
 20
409.495988
 30
0.0
 10
327.191232
 20
409.440988
 30
0.0
 10
326.701731
 20
409.495988
 30
0.0
 10
326.236731
 20
409.658985
 30
0.0
 10
325.819533
 20
409.920989
 30
0.0
 10
325.471231
 20
410.268989
 30
0.0
 10
325.209131
 20
410.685986
 30
0.0
 10
325.046430
 20
411.150990
 30
0.0
 10
324.991230
 20
411.640989
 30
0.0
  0
ENDSEC
  0
SECTION
  2
OBJECTS
  0
DICTIONARY
  5
C
330
0
100
AcDbDictionary
  3
ACAD_GROUP
350
D
  3
ACAD_MLINESTYLE
350
17
  0
DICTIONARY
  5
D
330
C
100
AcDbDictionary
  0
DICTIONARY
  5
1A
330
C
100
AcDbDictionary
  0
DICTIONARY
  5
17
330
C
100
AcDbDictionary
  3
STANDARD
350
18
  0
DICTIONARY
  5
19
330
C
100
AcDbDictionary
  0
ENDSEC
  0
EOF
