  0
SECTION
  2
HEADER
  9
$ACADVER
  1
AC1014
  9
$HANDSEED
  5
FFFF
  9
$MEASUREMENT
 70
     1
  0
ENDSEC
  0
SECTION
  2
TABLES
  0
TABLE
  2
VPORT
  5
8
330
0
100
AcDbSymbolTable
 70
     4
  0
VPORT
  5
2E
330
8
100
AcDbSymbolTableRecord
100
AcDbViewportTableRecord
  2
*ACTIVE
 70
     0
 10
0.0
 20
0.0
 11
1.0
 21
1.0
 12
210.0
 22
148.5
 13
0.0
 23
0.0
 14
10.0
 24
10.0
 15
10.0
 25
10.0
 16
0.0
 26
0.0
 36
1.0
 17
0.0
 27
0.0
 37
0.0
 40
341.0
 41
1.24
 42
50.0
 43
0.0
 44
0.0
 50
0.0
 51
0.0
 71
     0
 72
   100
 73
     1
 74
     3
 75
     0
 76
     0
 77
     0
 78
     0
  0
ENDTAB
  0
TABLE
  2
LTYPE
  5
5
330
0
100
AcDbSymbolTable
 70
     1
  0
LTYPE
  5
14
330
5
100
AcDbSymbolTableRecord
100
AcDbLinetypeTableRecord
  2
BYBLOCK
 70
     0
  3

 72
    65
 73
     0
 40
0.0
  0
LTYPE
  5
15
330
5
100
AcDbSymbolTableRecord
100
AcDbLinetypeTableRecord
  2
BYLAYER
 70
     0
  3

 72
    65
 73
     0
 40
0.0
  0
LTYPE
  5
16
330
5
100
AcDbSymbolTableRecord
100
AcDbLinetypeTableRecord
  2
CONTINUOUS
 70
     0
  3
Solid line
 72
    65
 73
     0
 40
0.0
  0
ENDTAB
  0
TABLE
  2
LAYER
  5
2
100
AcDbSymbolTable
 70
1
  0
LAYER
  5
50
100
AcDbSymbolTableRecord
100
AcDbLayerTableRecord
  2
0
 70
0
  6
CONTINUOUS
  0
ENDTAB
  0
TABLE
  2
STYLE
  5
3
330
0
100
AcDbSymbolTable
 70
     1
  0
STYLE
  5
11
330
3
100
AcDbSymbolTableRecord
100
AcDbTextStyleTableRecord
  2
STANDARD
 70
     0
 40
0.0
 41
1.0
 50
0.0
 71
     0
 42
2.5
  3
txt
  4

  0
ENDTAB
  0
TABLE
  2
VIEW
  5
6
330
0
100
AcDbSymbolTable
 70
     0
  0
ENDTAB
  0
TABLE
  2
UCS
  5
7
330
0
100
AcDbSymbolTable
 70
     0
  0
ENDTAB
  0
TABLE
  2
APPID
  5
9
330
0
100
AcDbSymbolTable
 70
     2
  0
APPID
  5
12
330
9
100
AcDbSymbolTableRecord
100
AcDbRegAppTableRecord
  2
ACAD
 70
     0
  0
ENDTAB
  0
TABLE
  2
DIMSTYLE
  5
A
330
0
100
AcDbSymbolTable
 70
     1
  0
DIMSTYLE
105
27
330
A
100
AcDbSymbolTableRecord
100
AcDbDimStyleTableRecord
  2
ISO-25
 70
     0
  3

  4

  5

  6

  7

 40
1.0
 41
2.5
 42
0.625
 43
3.75
 44
1.25
 45
0.0
 46
0.0
 47
0.0
 48
0.0
140
2.5
141
2.5
142
0.0
143
0.03937007874016
144
1.0
145
0.0
146
1.0
147
0.625
 71
     0
 72
     0
 73
     0
 74
     0
 75
     0
 76
     0
 77
     1
 78
     8
170
     0
171
     3
172
     1
173
     0
174
     0
175
     0
176
     0
177
     0
178
     0
270
     2
271
     2
272
     2
273
     2
274
     3
340
11
275
     0
280
     0
281
     0
282
     0
283
     0
284
     8
285
     0
286
     0
287
     3
288
     0
  0
ENDTAB
  0
TABLE
  2
BLOCK_RECORD
  5
1
330
0
100
AcDbSymbolTable
 70
     1
  0
BLOCK_RECORD
  5
1F
330
1
100
AcDbSymbolTableRecord
100
AcDbBlockTableRecord
  2
*MODEL_SPACE
  0
BLOCK_RECORD
  5
1B
330
1
100
AcDbSymbolTableRecord
100
AcDbBlockTableRecord
  2
*PAPER_SPACE
  0
ENDTAB
  0
ENDSEC
  0
SECTION
  2
BLOCKS
  0
BLOCK
  5
20
330
1F
100
AcDbEntity
  8
0
100
AcDbBlockBegin
  2
*MODEL_SPACE
 70
     0
 10
0.0
 20
0.0
 30
0.0
  3
*MODEL_SPACE
  1

  0
ENDBLK
  5
21
330
1F
100
AcDbEntity
  8
0
100
AcDbBlockEnd
  0
BLOCK
  5
1C
330
1B
100
AcDbEntity
 67
     1
  8
0
100
AcDbBlockBegin
  2
*PAPER_SPACE
  1

  0
ENDBLK
  5
1D
330
1B
100
AcDbEntity
 67
     1
  8
0
100
AcDbBlockEnd
  0
ENDSEC
  0
SECTION
  2
ENTITIES
  0
LWPOLYLINE
  5
100
100
AcDbEntity
  8
0
 62
7
100
AcDbPolyline
 90
99
 70
1
 10
102.696995
 20
278.986116
 30
0.0
 10
102.795993
 20
279.475116
 30
0.0
 10
102.942994
 20
279.951116
 30
0.0
 10
103.135994
 20
280.410116
 30
0.0
 10
103.374994
 20
280.848116
 30
0.0
 10
103.654995
 20
281.260116
 30
0.0
 10
103.975995
 20
281.642116
 30
0.0
 10
104.332995
 20
281.990116
 30
0.0
 10
104.721993
 20
282.301116
 30
0.0
 10
105.140994
 20
282.571116
 30
0.0
 10
105.584995
 20
282.799116
 30
0.0
 10
106.048993
 20
282.981116
 30
0.0
 10
106.527995
 20
283.116116
 30
0.0
 10
107.018994
 20
283.202116
 30
0.0
 10
107.515993
 20
283.239116
 30
0.0
 10
107.640995
 20
283.241120
 30
0.0
 10
347.640992
 20
283.241118
 30
0.0
 10
348.014993
 20
283.227117
 30
0.0
 10
348.508995
 20
283.165117
 30
0.0
 10
348.994981
 20
283.054117
 30
0.0
 10
349.467986
 20
282.895117
 30
0.0
 10
349.921997
 20
282.690117
 30
0.0
 10
350.353994
 20
282.441117
 30
0.0
 10
350.757995
 20
282.150117
 30
0.0
 10
351.131996
 20
281.820117
 30
0.0
 10
351.471001
 20
281.455117
 30
0.0
 10
351.771991
 20
281.058117
 30
0.0
 10
352.032003
 20
280.632117
 30
0.0
 10
352.247987
 20
280.183117
 30
0.0
 10
352.418986
 20
279.715117
 30
0.0
 10
352.542007
 20
279.232117
 30
0.0
 10
352.616005
 20
278.739117
 30
0.0
 10
352.641123
 20
278.241117
 30
0.0
 10
352.641123
 20
0.141111
 30
0.0
 10
468.641117
 20
0.141111
 30
0.0
 10
468.641117
 20
359.141118
 30
0.0
 10
468.546121
 20
361.320119
 30
0.0
 10
468.261105
 20
363.482116
 30
0.0
 10
467.789116
 20
365.611119
 30
0.0
 10
467.133119
 20
367.691117
 30
0.0
 10
466.299124
 20
369.706118
 30
0.0
 10
465.292099
 20
371.641118
 30
0.0
 10
464.120114
 20
373.480118
 30
0.0
 10
462.792118
 20
375.211117
 30
0.0
 10
461.319115
 20
376.819117
 30
0.0
 10
459.711098
 20
378.292117
 30
0.0
 10
457.980116
 20
379.620116
 30
0.0
 10
456.141099
 20
380.792118
 30
0.0
 10
454.206099
 20
381.799118
 30
0.0
 10
452.191117
 20
382.633118
 30
0.0
 10
450.111111
 20
383.289118
 30
0.0
 10
447.982111
 20
383.761118
 30
0.0
 10
445.820120
 20
384.046117
 30
0.0
 10
443.641110
 20
384.141119
 30
0.0
 10
25.141109
 20
384.141119
 30
0.0
 10
22.962111
 20
384.046117
 30
0.0
 10
20.800111
 20
383.761118
 30
0.0
 10
18.671108
 20
383.289118
 30
0.0
 10
16.591110
 20
382.633118
 30
0.0
 10
14.576109
 20
381.799118
 30
0.0
 10
12.641109
 20
380.792118
 30
0.0
 10
10.802109
 20
379.620116
 30
0.0
 10
9.071110
 20
378.292117
 30
0.0
 10
7.463110
 20
376.819117
 30
0.0
 10
5.990110
 20
375.211117
 30
0.0
 10
4.662111
 20
373.480118
 30
0.0
 10
3.490109
 20
371.641118
 30
0.0
 10
2.483109
 20
369.706118
 30
0.0
 10
1.649109
 20
367.691117
 30
0.0
 10
0.993109
 20
365.611119
 30
0.0
 10
0.521109
 20
363.482116
 30
0.0
 10
0.236110
 20
361.320119
 30
0.0
 10
0.141111
 20
359.141118
 30
0.0
 10
0.141111
 20
0.141111
 30
0.0
 10
38.761111
 20
0.141111
 30
0.0
 10
38.761111
 20
2.641120
 30
0.0
 10
38.809109
 20
3.128828
 30
0.0
 10
38.951109
 20
3.597797
 30
0.0
 10
39.182111
 20
4.030020
 30
0.0
 10
39.493108
 20
4.408875
 30
0.0
 10
39.872110
 20
4.719771
 30
0.0
 10
40.304110
 20
4.950798
 30
0.0
 10
40.773110
 20
5.093067
 30
0.0
 10
41.261109
 20
5.141101
 30
0.0
 10
41.749111
 20
5.093067
 30
0.0
 10
42.218110
 20
4.950798
 30
0.0
 10
42.650111
 20
4.719771
 30
0.0
 10
43.029110
 20
4.408875
 30
0.0
 10
43.340110
 20
4.030020
 30
0.0
 10
43.571109
 20
3.597797
 30
0.0
 10
43.713109
 20
3.128828
 30
0.0
 10
43.761110
 20
2.641092
 30
0.0
 10
43.761110
 20
0.141111
 30
0.0
 10
102.641109
 20
0.141111
 30
0.0
 10
102.641109
 20
278.241117
 30
0.0
 10
102.647121
 20
278.490117
 30
0.0
 10
102.697108
 20
278.986116
 30
0.0
 10
102.697108
 20
278.986116
 30
0.0
 10
102.696995
 20
278.986116
 30
0.0
  0
LWPOLYLINE
  5
101
100
AcDbEntity
  8
0
 62
7
100
AcDbPolyline
 90
31
 70
1
 10
71.680993
 20
378.786119
 30
0.0
 10
72.145993
 20
378.623116
 30
0.0
 10
72.562994
 20
378.361115
 30
0.0
 10
72.910994
 20
378.013115
 30
0.0
 10
73.172995
 20
377.596115
 30
0.0
 10
73.335995
 20
377.131114
 30
0.0
 10
73.390994
 20
376.641114
 30
0.0
 10
73.335995
 20
376.151114
 30
0.0
 10
73.172995
 20
375.686114
 30
0.0
 10
72.910994
 20
375.269116
 30
0.0
 10
72.562994
 20
374.921116
 30
0.0
 10
72.145993
 20
374.659115
 30
0.0
 10
71.680993
 20
374.496115
 30
0.0
 10
71.190993
 20
374.441119
 30
0.0
 10
70.700993
 20
374.496115
 30
0.0
 10
70.235995
 20
374.659115
 30
0.0
 10
69.818995
 20
374.921116
 30
0.0
 10
69.470992
 20
375.269116
 30
0.0
 10
69.208994
 20
375.686114
 30
0.0
 10
69.045994
 20
376.151114
 30
0.0
 10
68.990995
 20
376.641114
 30
0.0
 10
69.045994
 20
377.131114
 30
0.0
 10
69.208994
 20
377.596115
 30
0.0
 10
69.470992
 20
378.013115
 30
0.0
 10
69.818995
 20
378.361115
 30
0.0
 10
70.235995
 20
378.623116
 30
0.0
 10
70.700993
 20
378.786119
 30
0.0
 10
71.190993
 20
378.841115
 30
0.0
 10
71.680993
 20
378.786119
 30
0.0
 10
71.680993
 20
378.786119
 30
0.0
 10
71.680993
 20
378.786119
 30
0.0
  0
LWPOLYLINE
  5
102
100
AcDbEntity
  8
0
 62
7
100
AcDbPolyline
 90
31
 70
1
 10
362.236001
 20
377.131114
 30
0.0
 10
362.291006
 20
376.641114
 30
0.0
 10
362.236001
 20
376.151114
 30
0.0
 10
362.072990
 20
375.686114
 30
0.0
 10
361.811003
 20
375.269116
 30
0.0
 10
361.462995
 20
374.921116
 30
0.0
 10
361.045983
 20
374.659115
 30
0.0
 10
360.580994
 20
374.496115
 30
0.0
 10
360.090999
 20
374.441119
 30
0.0
 10
359.601005
 20
374.496115
 30
0.0
 10
359.135988
 20
374.659115
 30
0.0
 10
358.719004
 20
374.921116
 30
0.0
 10
358.370996
 20
375.269116
 30
0.0
 10
358.109009
 20
375.686114
 30
0.0
 10
357.945998
 20
376.151114
 30
0.0
 10
357.890993
 20
376.641114
 30
0.0
 10
357.945998
 20
377.131114
 30
0.0
 10
358.109009
 20
377.596115
 30
0.0
 10
358.370996
 20
378.013115
 30
0.0
 10
358.719004
 20
378.361115
 30
0.0
 10
359.135988
 20
378.623116
 30
0.0
 10
359.601005
 20
378.786119
 30
0.0
 10
360.090999
 20
378.841115
 30
0.0
 10
360.580994
 20
378.786119
 30
0.0
 10
361.045983
 20
378.623116
 30
0.0
 10
361.462995
 20
378.361115
 30
0.0
 10
361.811003
 20
378.013115
 30
0.0
 10
362.072990
 20
377.596115
 30
0.0
 10
362.236001
 20
377.131114
 30
0.0
 10
362.236001
 20
377.131114
 30
0.0
 10
362.236001
 20
377.131114
 30
0.0
  0
LWPOLYLINE
  5
103
100
AcDbEntity
  8
0
 62
7
100
AcDbPolyline
 90
31
 70
1
 10
38.890993
 20
376.641114
 30
0.0
 10
38.945995
 20
377.131114
 30
0.0
 10
39.108995
 20
377.596115
 30
0.0
 10
39.370993
 20
378.013115
 30
0.0
 10
39.718993
 20
378.361115
 30
0.0
 10
40.135993
 20
378.623116
 30
0.0
 10
40.600994
 20
378.786119
 30
0.0
 10
41.090994
 20
378.841115
 30
0.0
 10
41.580994
 20
378.786119
 30
0.0
 10
42.045994
 20
378.623116
 30
0.0
 10
42.462995
 20
378.361115
 30
0.0
 10
42.810994
 20
378.013115
 30
0.0
 10
43.072995
 20
377.596115
 30
0.0
 10
43.235993
 20
377.131114
 30
0.0
 10
43.290995
 20
376.641114
 30
0.0
 10
43.235993
 20
376.151114
 30
0.0
 10
43.072995
 20
375.686114
 30
0.0
 10
42.810994
 20
375.269116
 30
0.0
 10
42.462995
 20
374.921116
 30
0.0
 10
42.045994
 20
374.659115
 30
0.0
 10
41.580994
 20
374.496115
 30
0.0
 10
41.090994
 20
374.441119
 30
0.0
 10
40.600994
 20
374.496115
 30
0.0
 10
40.135993
 20
374.659115
 30
0.0
 10
39.718993
 20
374.921116
 30
0.0
 10
39.370993
 20
375.269116
 30
0.0
 10
39.108995
 20
375.686114
 30
0.0
 10
38.945995
 20
376.151114
 30
0.0
 10
38.890993
 20
376.641114
 30
0.0
 10
38.890993
 20
376.641114
 30
0.0
 10
38.890993
 20
376.641114
 30
0.0
  0
LWPOLYLINE
  5
104
100
AcDbEntity
  8
0
 62
7
100
AcDbPolyline
 90
31
 70
1
 10
392.335989
 20
377.131114
 30
0.0
 10
392.390994
 20
376.641114
 30
0.0
 10
392.335989
 20
376.151114
 30
0.0
 10
392.173006
 20
375.686114
 30
0.0
 10
391.910991
 20
375.269116
 30
0.0
 10
391.562982
 20
374.921116
 30
0.0
 10
391.145999
 20
374.659115
 30
0.0
 10
390.680981
 20
374.496115
 30
0.0
 10
390.190987
 20
374.441119
 30
0.0
 10
389.700993
 20
374.496115
 30
0.0
 10
389.236004
 20
374.659115
 30
0.0
 10
388.818992
 20
374.921116
 30
0.0
 10
388.470984
 20
375.269116
 30
0.0
 10
388.208997
 20
375.686114
 30
0.0
 10
388.045985
 20
376.151114
 30
0.0
 10
387.991009
 20
376.641114
 30
0.0
 10
388.045985
 20
377.131114
 30
0.0
 10
388.208997
 20
377.596115
 30
0.0
 10
388.470984
 20
378.013115
 30
0.0
 10
388.818992
 20
378.361115
 30
0.0
 10
389.236004
 20
378.623116
 30
0.0
 10
389.700993
 20
378.786119
 30
0.0
 10
390.190987
 20
378.841115
 30
0.0
 10
390.680981
 20
378.786119
 30
0.0
 10
391.145999
 20
378.623116
 30
0.0
 10
391.562982
 20
378.361115
 30
0.0
 10
391.910991
 20
378.013115
 30
0.0
 10
392.173006
 20
377.596115
 30
0.0
 10
392.335989
 20
377.131114
 30
0.0
 10
392.335989
 20
377.131114
 30
0.0
 10
392.335989
 20
377.131114
 30
0.0
  0
LWPOLYLINE
  5
105
100
AcDbEntity
  8
0
 62
7
100
AcDbPolyline
 90
21
 70
1
 10
450.725001
 20
365.025116
 30
0.0
 10
450.995991
 20
364.619116
 30
0.0
 10
451.090987
 20
364.141117
 30
0.0
 10
450.995991
 20
363.663114
 30
0.0
 10
450.725001
 20
363.257118
 30
0.0
 10
450.318996
 20
362.986114
 30
0.0
 10
449.840996
 20
362.891115
 30
0.0
 10
422.441000
 20
362.891115
 30
0.0
 10
421.963001
 20
362.986114
 30
0.0
 10
421.556996
 20
363.257118
 30
0.0
 10
421.286006
 20
363.663114
 30
0.0
 10
421.190982
 20
364.141117
 30
0.0
 10
421.286006
 20
364.619116
 30
0.0
 10
421.556996
 20
365.025116
 30
0.0
 10
421.963001
 20
365.296114
 30
0.0
 10
422.441000
 20
365.391115
 30
0.0
 10
449.840996
 20
365.391115
 30
0.0
 10
450.318996
 20
365.296114
 30
0.0
 10
450.725001
 20
365.025116
 30
0.0
 10
450.725001
 20
365.025116
 30
0.0
 10
450.725001
 20
365.025116
 30
0.0
  0
LWPOLYLINE
  5
106
100
AcDbEntity
  8
0
 62
7
100
AcDbPolyline
 90
31
 70
1
 10
455.685988
 20
353.781114
 30
0.0
 10
455.740993
 20
353.291114
 30
0.0
 10
455.685988
 20
352.801114
 30
0.0
 10
455.523005
 20
352.336117
 30
0.0
 10
455.260989
 20
351.919116
 30
0.0
 10
454.912981
 20
351.571117
 30
0.0
 10
454.495998
 20
351.309116
 30
0.0
 10
454.031009
 20
351.146115
 30
0.0
 10
453.540986
 20
351.091116
 30
0.0
 10
453.050992
 20
351.146115
 30
0.0
 10
452.586003
 20
351.309116
 30
0.0
 10
452.168991
 20
351.571117
 30
0.0
 10
451.820983
 20
351.919116
 30
0.0
 10
451.558996
 20
352.336117
 30
0.0
 10
451.395984
 20
352.801114
 30
0.0
 10
451.341007
 20
353.291114
 30
0.0
 10
451.395984
 20
353.781114
 30
0.0
 10
451.558996
 20
354.246118
 30
0.0
 10
451.820983
 20
354.663115
 30
0.0
 10
452.168991
 20
355.011118
 30
0.0
 10
452.586003
 20
355.273119
 30
0.0
 10
453.050992
 20
355.436116
 30
0.0
 10
453.540986
 20
355.491116
 30
0.0
 10
454.031009
 20
355.436116
 30
0.0
 10
454.495998
 20
355.273119
 30
0.0
 10
454.912981
 20
355.011118
 30
0.0
 10
455.260989
 20
354.663115
 30
0.0
 10
455.523005
 20
354.246118
 30
0.0
 10
455.685988
 20
353.781114
 30
0.0
 10
455.685988
 20
353.781114
 30
0.0
 10
455.685988
 20
353.781114
 30
0.0
  0
LWPOLYLINE
  5
107
100
AcDbEntity
  8
0
 62
7
100
AcDbPolyline
 90
31
 70
1
 10
416.758992
 20
352.336117
 30
0.0
 10
416.595981
 20
352.801114
 30
0.0
 10
416.541004
 20
353.291114
 30
0.0
 10
416.595981
 20
353.781114
 30
0.0
 10
416.758992
 20
354.246118
 30
0.0
 10
417.021007
 20
354.663115
 30
0.0
 10
417.368987
 20
355.011118
 30
0.0
 10
417.785999
 20
355.273119
 30
0.0
 10
418.250988
 20
355.436116
 30
0.0
 10
418.740982
 20
355.491116
 30
0.0
 10
419.231005
 20
355.436116
 30
0.0
 10
419.695994
 20
355.273119
 30
0.0
 10
420.113006
 20
355.011118
 30
0.0
 10
420.460986
 20
354.663115
 30
0.0
 10
420.723001
 20
354.246118
 30
0.0
 10
420.885984
 20
353.781114
 30
0.0
 10
420.940989
 20
353.291114
 30
0.0
 10
420.885984
 20
352.801114
 30
0.0
 10
420.723001
 20
352.336117
 30
0.0
 10
420.460986
 20
351.919116
 30
0.0
 10
420.113006
 20
351.571117
 30
0.0
 10
419.695994
 20
351.309116
 30
0.0
 10
419.231005
 20
351.146115
 30
0.0
 10
418.740982
 20
351.091116
 30
0.0
 10
418.250988
 20
351.146115
 30
0.0
 10
417.785999
 20
351.309116
 30
0.0
 10
417.368987
 20
351.571117
 30
0.0
 10
417.021007
 20
351.919116
 30
0.0
 10
416.758992
 20
352.336117
 30
0.0
 10
416.758992
 20
352.336117
 30
0.0
 10
416.758992
 20
352.336117
 30
0.0
  0
LWPOLYLINE
  5
108
100
AcDbEntity
  8
0
 62
7
100
AcDbPolyline
 90
31
 70
1
 10
60.245995
 20
349.941114
 30
0.0
 10
60.190995
 20
350.431117
 30
0.0
 10
60.245995
 20
350.921114
 30
0.0
 10
60.408995
 20
351.386114
 30
0.0
 10
60.670993
 20
351.803115
 30
0.0
 10
61.018993
 20
352.151114
 30
0.0
 10
61.435993
 20
352.413115
 30
0.0
 10
61.900994
 20
352.576116
 30
0.0
 10
62.390994
 20
352.631115
 30
0.0
 10
62.880994
 20
352.576116
 30
0.0
 10
63.345994
 20
352.413115
 30
0.0
 10
63.762994
 20
352.151114
 30
0.0
 10
64.110994
 20
351.803115
 30
0.0
 10
64.372995
 20
351.386114
 30
0.0
 10
64.535993
 20
350.921114
 30
0.0
 10
64.590995
 20
350.431117
 30
0.0
 10
64.535993
 20
349.941114
 30
0.0
 10
64.372995
 20
349.476116
 30
0.0
 10
64.110994
 20
349.059116
 30
0.0
 10
63.762994
 20
348.711116
 30
0.0
 10
63.345994
 20
348.449115
 30
0.0
 10
62.880994
 20
348.286115
 30
0.0
 10
62.390994
 20
348.231115
 30
0.0
 10
61.900994
 20
348.286115
 30
0.0
 10
61.435993
 20
348.449115
 30
0.0
 10
61.018993
 20
348.711116
 30
0.0
 10
60.670993
 20
349.059116
 30
0.0
 10
60.408995
 20
349.476116
 30
0.0
 10
60.245995
 20
349.941114
 30
0.0
 10
60.245995
 20
349.941114
 30
0.0
 10
60.245995
 20
349.941114
 30
0.0
  0
LWPOLYLINE
  5
109
100
AcDbEntity
  8
0
 62
7
100
AcDbPolyline
 90
31
 70
1
 10
363.610988
 20
349.059116
 30
0.0
 10
363.262980
 20
348.711116
 30
0.0
 10
362.845996
 20
348.449115
 30
0.0
 10
362.381007
 20
348.286115
 30
0.0
 10
361.890985
 20
348.231115
 30
0.0
 10
361.400990
 20
348.286115
 30
0.0
 10
360.936001
 20
348.449115
 30
0.0
 10
360.518989
 20
348.711116
 30
0.0
 10
360.170981
 20
349.059116
 30
0.0
 10
359.908994
 20
349.476116
 30
0.0
 10
359.745983
 20
349.941114
 30
0.0
 10
359.691006
 20
350.431117
 30
0.0
 10
359.745983
 20
350.921114
 30
0.0
 10
359.908994
 20
351.386114
 30
0.0
 10
360.170981
 20
351.803115
 30
0.0
 10
360.518989
 20
352.151114
 30
0.0
 10
360.936001
 20
352.413115
 30
0.0
 10
361.400990
 20
352.576116
 30
0.0
 10
361.890985
 20
352.631115
 30
0.0
 10
362.381007
 20
352.576116
 30
0.0
 10
362.845996
 20
352.413115
 30
0.0
 10
363.262980
 20
352.151114
 30
0.0
 10
363.610988
 20
351.803115
 30
0.0
 10
363.873003
 20
351.386114
 30
0.0
 10
364.035986
 20
350.921114
 30
0.0
 10
364.090991
 20
350.431117
 30
0.0
 10
364.035986
 20
349.941114
 30
0.0
 10
363.873003
 20
349.476116
 30
0.0
 10
363.610988
 20
349.059116
 30
0.0
 10
363.610988
 20
349.059116
 30
0.0
 10
363.610988
 20
349.059116
 30
0.0
  0
LWPOLYLINE
  5
10a
100
AcDbEntity
  8
0
 62
7
100
AcDbPolyline
 90
33
 70
1
 10
379.572997
 20
66.595616
 30
0.0
 10
379.736009
 20
66.130616
 30
0.0
 10
379.790985
 20
65.641115
 30
0.0
 10
379.790985
 20
56.641116
 30
0.0
 10
379.736009
 20
56.151619
 30
0.0
 10
379.572997
 20
55.686517
 30
0.0
 10
379.310982
 20
55.269418
 30
0.0
 10
378.963002
 20
54.921119
 30
0.0
 10
378.545990
 20
54.659016
 30
0.0
 10
378.081001
 20
54.496216
 30
0.0
 10
377.590979
 20
54.441115
 30
0.0
 10
377.100984
 20
54.496216
 30
0.0
 10
376.635995
 20
54.659016
 30
0.0
 10
376.218983
 20
54.921119
 30
0.0
 10
375.871003
 20
55.269418
 30
0.0
 10
375.608988
 20
55.686517
 30
0.0
 10
375.446005
 20
56.151619
 30
0.0
 10
375.391000
 20
56.641116
 30
0.0
 10
375.391000
 20
65.641115
 30
0.0
 10
375.446005
 20
66.130616
 30
0.0
 10
375.608988
 20
66.595616
 30
0.0
 10
375.871003
 20
67.012817
 30
0.0
 10
376.218983
 20
67.361119
 30
0.0
 10
376.635995
 20
67.623216
 30
0.0
 10
377.100984
 20
67.785917
 30
0.0
 10
377.590979
 20
67.841114
 30
0.0
 10
378.081001
 20
67.785917
 30
0.0
 10
378.545990
 20
67.623216
 30
0.0
 10
378.963002
 20
67.361119
 30
0.0
 10
379.310982
 20
67.012817
 30
0.0
 10
379.572997
 20
66.595616
 30
0.0
 10
379.572997
 20
66.595616
 30
0.0
 10
379.572997
 20
66.595616
 30
0.0
  0
LWPOLYLINE
  5
10b
100
AcDbEntity
  8
0
 62
7
100
AcDbPolyline
 90
33
 70
1
 10
16.100995
 20
54.496216
 30
0.0
 10
15.635994
 20
54.659016
 30
0.0
 10
15.218994
 20
54.921119
 30
0.0
 10
14.870994
 20
55.269418
 30
0.0
 10
14.608993
 20
55.686517
 30
0.0
 10
14.445993
 20
56.151619
 30
0.0
 10
14.390993
 20
56.641116
 30
0.0
 10
14.390993
 20
65.641115
 30
0.0
 10
14.445993
 20
66.130616
 30
0.0
 10
14.608993
 20
66.595616
 30
0.0
 10
14.870994
 20
67.012817
 30
0.0
 10
15.218994
 20
67.361119
 30
0.0
 10
15.635994
 20
67.623216
 30
0.0
 10
16.100995
 20
67.785917
 30
0.0
 10
16.590995
 20
67.841114
 30
0.0
 10
17.080995
 20
67.785917
 30
0.0
 10
17.545992
 20
67.623216
 30
0.0
 10
17.962993
 20
67.361119
 30
0.0
 10
18.310995
 20
67.012817
 30
0.0
 10
18.572993
 20
66.595616
 30
0.0
 10
18.735994
 20
66.130616
 30
0.0
 10
18.790993
 20
65.641115
 30
0.0
 10
18.790993
 20
56.641116
 30
0.0
 10
18.735994
 20
56.151619
 30
0.0
 10
18.572993
 20
55.686517
 30
0.0
 10
18.310995
 20
55.269418
 30
0.0
 10
17.962993
 20
54.921119
 30
0.0
 10
17.545992
 20
54.659016
 30
0.0
 10
17.080995
 20
54.496216
 30
0.0
 10
16.590995
 20
54.441115
 30
0.0
 10
16.100995
 20
54.496216
 30
0.0
 10
16.100995
 20
54.496216
 30
0.0
 10
16.100995
 20
54.496216
 30
0.0
  0
LWPOLYLINE
  5
10c
100
AcDbEntity
  8
0
 62
7
100
AcDbPolyline
 90
33
 70
1
 10
409.410998
 20
55.269418
 30
0.0
 10
409.062990
 20
54.921119
 30
0.0
 10
408.646006
 20
54.659016
 30
0.0
 10
408.180989
 20
54.496216
 30
0.0
 10
407.690995
 20
54.441115
 30
0.0
 10
407.201000
 20
54.496216
 30
0.0
 10
406.735983
 20
54.659016
 30
0.0
 10
406.318999
 20
54.921119
 30
0.0
 10
405.970991
 20
55.269418
 30
0.0
 10
405.709004
 20
55.686517
 30
0.0
 10
405.545993
 20
56.151619
 30
0.0
 10
405.490988
 20
56.641116
 30
0.0
 10
405.490988
 20
65.641115
 30
0.0
 10
405.545993
 20
66.130616
 30
0.0
 10
405.709004
 20
66.595616
 30
0.0
 10
405.970991
 20
67.012817
 30
0.0
 10
406.318999
 20
67.361119
 30
0.0
 10
406.735983
 20
67.623216
 30
0.0
 10
407.201000
 20
67.785917
 30
0.0
 10
407.690995
 20
67.841114
 30
0.0
 10
408.180989
 20
67.785917
 30
0.0
 10
408.646006
 20
67.623216
 30
0.0
 10
409.062990
 20
67.361119
 30
0.0
 10
409.410998
 20
67.012817
 30
0.0
 10
409.672985
 20
66.595616
 30
0.0
 10
409.835996
 20
66.130616
 30
0.0
 10
409.891001
 20
65.641115
 30
0.0
 10
409.891001
 20
56.641116
 30
0.0
 10
409.835996
 20
56.151619
 30
0.0
 10
409.672985
 20
55.686517
 30
0.0
 10
409.410998
 20
55.269418
 30
0.0
 10
409.410998
 20
55.269418
 30
0.0
 10
409.410998
 20
55.269418
 30
0.0
  0
LWPOLYLINE
  5
10d
100
AcDbEntity
  8
0
 62
7
100
AcDbPolyline
 90
33
 70
1
 10
46.690994
 20
67.841114
 30
0.0
 10
47.180994
 20
67.785917
 30
0.0
 10
47.645995
 20
67.623216
 30
0.0
 10
48.062995
 20
67.361119
 30
0.0
 10
48.410995
 20
67.012817
 30
0.0
 10
48.672993
 20
66.595616
 30
0.0
 10
48.835993
 20
66.130616
 30
0.0
 10
48.890995
 20
65.641115
 30
0.0
 10
48.890995
 20
56.641116
 30
0.0
 10
48.835993
 20
56.151619
 30
0.0
 10
48.672993
 20
55.686517
 30
0.0
 10
48.410995
 20
55.269418
 30
0.0
 10
48.062995
 20
54.921119
 30
0.0
 10
47.645995
 20
54.659016
 30
0.0
 10
47.180994
 20
54.496216
 30
0.0
 10
46.690994
 20
54.441115
 30
0.0
 10
46.200994
 20
54.496216
 30
0.0
 10
45.735994
 20
54.659016
 30
0.0
 10
45.318993
 20
54.921119
 30
0.0
 10
44.970994
 20
55.269418
 30
0.0
 10
44.708993
 20
55.686517
 30
0.0
 10
44.545995
 20
56.151619
 30
0.0
 10
44.490993
 20
56.641116
 30
0.0
 10
44.490993
 20
65.641115
 30
0.0
 10
44.545995
 20
66.130616
 30
0.0
 10
44.708993
 20
66.595616
 30
0.0
 10
44.970994
 20
67.012817
 30
0.0
 10
45.318993
 20
67.361119
 30
0.0
 10
45.735994
 20
67.623216
 30
0.0
 10
46.200994
 20
67.785917
 30
0.0
 10
46.690994
 20
67.841114
 30
0.0
 10
46.690994
 20
67.841114
 30
0.0
 10
46.690994
 20
67.841114
 30
0.0
  0
LWPOLYLINE
  5
10e
100
AcDbEntity
  8
0
 62
7
100
AcDbPolyline
 90
31
 70
1
 10
363.610988
 20
32.479414
 30
0.0
 10
363.262980
 20
32.131115
 30
0.0
 10
362.845996
 20
31.869016
 30
0.0
 10
362.381007
 20
31.706314
 30
0.0
 10
361.890985
 20
31.651115
 30
0.0
 10
361.400990
 20
31.706314
 30
0.0
 10
360.936001
 20
31.869016
 30
0.0
 10
360.518989
 20
32.131115
 30
0.0
 10
360.170981
 20
32.479414
 30
0.0
 10
359.908994
 20
32.896516
 30
0.0
 10
359.745983
 20
33.361517
 30
0.0
 10
359.691006
 20
33.851119
 30
0.0
 10
359.745983
 20
34.340616
 30
0.0
 10
359.908994
 20
34.805617
 30
0.0
 10
360.170981
 20
35.222815
 30
0.0
 10
360.518989
 20
35.571114
 30
0.0
 10
360.936001
 20
35.833216
 30
0.0
 10
361.400990
 20
35.995914
 30
0.0
 10
361.890985
 20
36.051114
 30
0.0
 10
362.381007
 20
35.995914
 30
0.0
 10
362.845996
 20
35.833216
 30
0.0
 10
363.262980
 20
35.571114
 30
0.0
 10
363.610988
 20
35.222815
 30
0.0
 10
363.873003
 20
34.805617
 30
0.0
 10
364.035986
 20
34.340616
 30
0.0
 10
364.090991
 20
33.851119
 30
0.0
 10
364.035986
 20
33.361517
 30
0.0
 10
363.873003
 20
32.896516
 30
0.0
 10
363.610988
 20
32.479414
 30
0.0
 10
363.610988
 20
32.479414
 30
0.0
 10
363.610988
 20
32.479414
 30
0.0
  0
LWPOLYLINE
  5
10f
100
AcDbEntity
  8
0
 62
7
100
AcDbPolyline
 90
31
 70
1
 10
61.018993
 20
35.571114
 30
0.0
 10
61.435993
 20
35.833216
 30
0.0
 10
61.900994
 20
35.995914
 30
0.0
 10
62.390994
 20
36.051114
 30
0.0
 10
62.880994
 20
35.995914
 30
0.0
 10
63.345994
 20
35.833216
 30
0.0
 10
63.762994
 20
35.571114
 30
0.0
 10
64.110994
 20
35.222815
 30
0.0
 10
64.372995
 20
34.805617
 30
0.0
 10
64.535993
 20
34.340616
 30
0.0
 10
64.590995
 20
33.851119
 30
0.0
 10
64.535993
 20
33.361517
 30
0.0
 10
64.372995
 20
32.896516
 30
0.0
 10
64.110994
 20
32.479414
 30
0.0
 10
63.762994
 20
32.131115
 30
0.0
 10
63.345994
 20
31.869016
 30
0.0
 10
62.880994
 20
31.706314
 30
0.0
 10
62.390994
 20
31.651115
 30
0.0
 10
61.900994
 20
31.706314
 30
0.0
 10
61.435993
 20
31.869016
 30
0.0
 10
61.018993
 20
32.131115
 30
0.0
 10
60.670993
 20
32.479414
 30
0.0
 10
60.408995
 20
32.896516
 30
0.0
 10
60.245995
 20
33.361517
 30
0.0
 10
60.190995
 20
33.851119
 30
0.0
 10
60.245995
 20
34.340616
 30
0.0
 10
60.408995
 20
34.805617
 30
0.0
 10
60.670993
 20
35.222815
 30
0.0
 10
61.018993
 20
35.571114
 30
0.0
 10
61.018993
 20
35.571114
 30
0.0
 10
61.018993
 20
35.571114
 30
0.0
  0
LWPOLYLINE
  5
110
100
AcDbEntity
  8
0
 62
7
100
AcDbPolyline
 90
35
 70
1
 10
391.308982
 20
17.553418
 30
0.0
 10
391.261005
 20
18.041114
 30
0.0
 10
391.308982
 20
18.528814
 30
0.0
 10
391.450997
 20
18.997817
 30
0.0
 10
391.681995
 20
19.430018
 30
0.0
 10
391.993004
 20
19.808915
 30
0.0
 10
392.372001
 20
20.119817
 30
0.0
 10
392.803998
 20
20.350816
 30
0.0
 10
393.272995
 20
20.493118
 30
0.0
 10
393.760985
 20
20.541115
 30
0.0
 10
394.249004
 20
20.493118
 30
0.0
 10
394.718001
 20
20.350816
 30
0.0
 10
395.149999
 20
20.119817
 30
0.0
 10
395.528995
 20
19.808915
 30
0.0
 10
395.840004
 20
19.430018
 30
0.0
 10
396.071003
 20
18.997817
 30
0.0
 10
396.212989
 20
18.528814
 30
0.0
 10
396.260995
 20
18.041114
 30
0.0
 10
396.212989
 20
17.553418
 30
0.0
 10
396.071003
 20
17.084418
 30
0.0
 10
395.840004
 20
16.652214
 30
0.0
 10
395.528995
 20
16.273317
 30
0.0
 10
395.149999
 20
15.962415
 30
0.0
 10
394.718001
 20
15.731416
 30
0.0
 10
394.249004
 20
15.589114
 30
0.0
 10
393.760985
 20
15.541117
 30
0.0
 10
393.272995
 20
15.589114
 30
0.0
 10
392.803998
 20
15.731416
 30
0.0
 10
392.372001
 20
15.962415
 30
0.0
 10
391.993004
 20
16.273317
 30
0.0
 10
391.681995
 20
16.652214
 30
0.0
 10
391.450997
 20
17.084418
 30
0.0
 10
391.308982
 20
17.553418
 30
0.0
 10
391.308982
 20
17.553418
 30
0.0
 10
391.308982
 20
17.553418
 30
0.0
  0
LWPOLYLINE
  5
111
100
AcDbEntity
  8
0
 62
7
100
AcDbPolyline
 90
31
 70
1
 10
73.220995
 20
5.141101
 30
0.0
 10
72.730995
 20
5.196247
 30
0.0
 10
72.265994
 20
5.358976
 30
0.0
 10
71.848994
 20
5.621076
 30
0.0
 10
71.500994
 20
5.969423
 30
0.0
 10
71.238993
 20
6.386547
 30
0.0
 10
71.075993
 20
6.851565
 30
0.0
 10
71.020994
 20
7.341108
 30
0.0
 10
71.075993
 20
7.830650
 30
0.0
 10
71.238993
 20
8.295640
 30
0.0
 10
71.500994
 20
8.712792
 30
0.0
 10
71.848994
 20
9.061139
 30
0.0
 10
72.265994
 20
9.323239
 30
0.0
 10
72.730995
 20
9.485940
 30
0.0
 10
73.220995
 20
9.541086
 30
0.0
 10
73.710995
 20
9.485940
 30
0.0
 10
74.175993
 20
9.323239
 30
0.0
 10
74.592993
 20
9.061139
 30
0.0
 10
74.940993
 20
8.712792
 30
0.0
 10
75.202994
 20
8.295640
 30
0.0
 10
75.365994
 20
7.830650
 30
0.0
 10
75.420993
 20
7.341108
 30
0.0
 10
75.365994
 20
6.851565
 30
0.0
 10
75.202994
 20
6.386547
 30
0.0
 10
74.940993
 20
5.969423
 30
0.0
 10
74.592993
 20
5.621076
 30
0.0
 10
74.175993
 20
5.358976
 30
0.0
 10
73.710995
 20
5.196247
 30
0.0
 10
73.220995
 20
5.141101
 30
0.0
 10
73.220995
 20
5.141101
 30
0.0
 10
73.220995
 20
5.141101
 30
0.0
  0
LWPOLYLINE
  5
112
100
AcDbEntity
  8
0
 62
7
100
AcDbPolyline
 90
31
 70
1
 10
9.330995
 20
5.196247
 30
0.0
 10
8.840995
 20
5.141101
 30
0.0
 10
8.350995
 20
5.196247
 30
0.0
 10
7.885994
 20
5.358976
 30
0.0
 10
7.468994
 20
5.621076
 30
0.0
 10
7.120994
 20
5.969423
 30
0.0
 10
6.858993
 20
6.386547
 30
0.0
 10
6.695993
 20
6.851565
 30
0.0
 10
6.640993
 20
7.341108
 30
0.0
 10
6.695993
 20
7.830650
 30
0.0
 10
6.858993
 20
8.295640
 30
0.0
 10
7.120994
 20
8.712792
 30
0.0
 10
7.468994
 20
9.061139
 30
0.0
 10
7.885994
 20
9.323239
 30
0.0
 10
8.350995
 20
9.485940
 30
0.0
 10
8.840995
 20
9.541086
 30
0.0
 10
9.330995
 20
9.485940
 30
0.0
 10
9.795995
 20
9.323239
 30
0.0
 10
10.212993
 20
9.061139
 30
0.0
 10
10.560992
 20
8.712792
 30
0.0
 10
10.822993
 20
8.295640
 30
0.0
 10
10.985994
 20
7.830650
 30
0.0
 10
11.040993
 20
7.341108
 30
0.0
 10
10.985994
 20
6.851565
 30
0.0
 10
10.822993
 20
6.386547
 30
0.0
 10
10.560992
 20
5.969423
 30
0.0
 10
10.212993
 20
5.621076
 30
0.0
 10
9.795995
 20
5.358976
 30
0.0
 10
9.330995
 20
5.196247
 30
0.0
 10
9.330995
 20
5.196247
 30
0.0
 10
9.330995
 20
5.196247
 30
0.0
  0
LWPOLYLINE
  5
113
100
AcDbEntity
  8
0
 62
7
100
AcDbPolyline
 90
31
 70
1
 10
461.660999
 20
5.969423
 30
0.0
 10
461.312991
 20
5.621076
 30
0.0
 10
460.895979
 20
5.358976
 30
0.0
 10
460.430990
 20
5.196247
 30
0.0
 10
459.940996
 20
5.141101
 30
0.0
 10
459.451002
 20
5.196247
 30
0.0
 10
458.985984
 20
5.358976
 30
0.0
 10
458.569001
 20
5.621076
 30
0.0
 10
458.220993
 20
5.969423
 30
0.0
 10
457.959006
 20
6.386547
 30
0.0
 10
457.795994
 20
6.851565
 30
0.0
 10
457.740989
 20
7.341108
 30
0.0
 10
457.795994
 20
7.830650
 30
0.0
 10
457.959006
 20
8.295640
 30
0.0
 10
458.220993
 20
8.712792
 30
0.0
 10
458.569001
 20
9.061139
 30
0.0
 10
458.985984
 20
9.323239
 30
0.0
 10
459.451002
 20
9.485940
 30
0.0
 10
459.940996
 20
9.541086
 30
0.0
 10
460.430990
 20
9.485940
 30
0.0
 10
460.895979
 20
9.323239
 30
0.0
 10
461.312991
 20
9.061139
 30
0.0
 10
461.660999
 20
8.712792
 30
0.0
 10
461.922986
 20
8.295640
 30
0.0
 10
462.085998
 20
7.830650
 30
0.0
 10
462.141003
 20
7.341108
 30
0.0
 10
462.085998
 20
6.851565
 30
0.0
 10
461.922986
 20
6.386547
 30
0.0
 10
461.660999
 20
5.969423
 30
0.0
 10
461.660999
 20
5.969423
 30
0.0
 10
461.660999
 20
5.969423
 30
0.0
  0
LWPOLYLINE
  5
114
100
AcDbEntity
  8
0
 62
7
100
AcDbPolyline
 90
31
 70
1
 10
437.348994
 20
5.621076
 30
0.0
 10
437.000986
 20
5.969423
 30
0.0
 10
436.738999
 20
6.386547
 30
0.0
 10
436.575987
 20
6.851565
 30
0.0
 10
436.520982
 20
7.341108
 30
0.0
 10
436.575987
 20
7.830650
 30
0.0
 10
436.738999
 20
8.295640
 30
0.0
 10
437.000986
 20
8.712792
 30
0.0
 10
437.348994
 20
9.061139
 30
0.0
 10
437.766006
 20
9.323239
 30
0.0
 10
438.230995
 20
9.485940
 30
0.0
 10
438.720989
 20
9.541086
 30
0.0
 10
439.210983
 20
9.485940
 30
0.0
 10
439.676001
 20
9.323239
 30
0.0
 10
440.092984
 20
9.061139
 30
0.0
 10
440.440993
 20
8.712792
 30
0.0
 10
440.702979
 20
8.295640
 30
0.0
 10
440.865991
 20
7.830650
 30
0.0
 10
440.920996
 20
7.341108
 30
0.0
 10
440.865991
 20
6.851565
 30
0.0
 10
440.702979
 20
6.386547
 30
0.0
 10
440.440993
 20
5.969423
 30
0.0
 10
440.092984
 20
5.621076
 30
0.0
 10
439.676001
 20
5.358976
 30
0.0
 10
439.210983
 20
5.196247
 30
0.0
 10
438.720989
 20
5.141101
 30
0.0
 10
438.230995
 20
5.196247
 30
0.0
 10
437.766006
 20
5.358976
 30
0.0
 10
437.348994
 20
5.621076
 30
0.0
 10
437.348994
 20
5.621076
 30
0.0
 10
437.348994
 20
5.621076
 30
0.0
  0
LWPOLYLINE
  5
115
100
AcDbEntity
  8
0
 62
7
100
AcDbPolyline
 90
31
 70
1
 10
30.060993
 20
5.141101
 30
0.0
 10
29.570993
 20
5.196247
 30
0.0
 10
29.105995
 20
5.358976
 30
0.0
 10
28.688995
 20
5.621076
 30
0.0
 10
28.340993
 20
5.969423
 30
0.0
 10
28.078994
 20
6.386547
 30
0.0
 10
27.915994
 20
6.851565
 30
0.0
 10
27.860994
 20
7.341108
 30
0.0
 10
27.915994
 20
7.830650
 30
0.0
 10
28.078994
 20
8.295640
 30
0.0
 10
28.340993
 20
8.712792
 30
0.0
 10
28.688995
 20
9.061139
 30
0.0
 10
29.105995
 20
9.323239
 30
0.0
 10
29.570993
 20
9.485940
 30
0.0
 10
30.060993
 20
9.541086
 30
0.0
 10
30.550993
 20
9.485940
 30
0.0
 10
31.015994
 20
9.323239
 30
0.0
 10
31.432994
 20
9.061139
 30
0.0
 10
31.780994
 20
8.712792
 30
0.0
 10
32.042995
 20
8.295640
 30
0.0
 10
32.205995
 20
7.830650
 30
0.0
 10
32.260994
 20
7.341108
 30
0.0
 10
32.205995
 20
6.851565
 30
0.0
 10
32.042995
 20
6.386547
 30
0.0
 10
31.780994
 20
5.969423
 30
0.0
 10
31.432994
 20
5.621076
 30
0.0
 10
31.015994
 20
5.358976
 30
0.0
 10
30.550993
 20
5.196247
 30
0.0
 10
30.060993
 20
5.141101
 30
0.0
 10
30.060993
 20
5.141101
 30
0.0
 10
30.060993
 20
5.141101
 30
0.0
  0
LWPOLYLINE
  5
116
100
AcDbEntity
  8
0
 62
7
100
AcDbPolyline
 90
31
 70
1
 10
400.638995
 20
5.621076
 30
0.0
 10
400.290987
 20
5.969423
 30
0.0
 10
400.029000
 20
6.386547
 30
0.0
 10
399.865988
 20
6.851565
 30
0.0
 10
399.810983
 20
7.341108
 30
0.0
 10
399.865988
 20
7.830650
 30
0.0
 10
400.029000
 20
8.295640
 30
0.0
 10
400.290987
 20
8.712792
 30
0.0
 10
400.638995
 20
9.061139
 30
0.0
 10
401.056007
 20
9.323239
 30
0.0
 10
401.520996
 20
9.485940
 30
0.0
 10
402.010990
 20
9.541086
 30
0.0
 10
402.500984
 20
9.485940
 30
0.0
 10
402.966002
 20
9.323239
 30
0.0
 10
403.382985
 20
9.061139
 30
0.0
 10
403.730993
 20
8.712792
 30
0.0
 10
403.993009
 20
8.295640
 30
0.0
 10
404.155992
 20
7.830650
 30
0.0
 10
404.210997
 20
7.341108
 30
0.0
 10
404.155992
 20
6.851565
 30
0.0
 10
403.993009
 20
6.386547
 30
0.0
 10
403.730993
 20
5.969423
 30
0.0
 10
403.382985
 20
5.621076
 30
0.0
 10
402.966002
 20
5.358976
 30
0.0
 10
402.500984
 20
5.196247
 30
0.0
 10
402.010990
 20
5.141101
 30
0.0
 10
401.520996
 20
5.196247
 30
0.0
 10
401.056007
 20
5.358976
 30
0.0
 10
400.638995
 20
5.621076
 30
0.0
 10
400.638995
 20
5.621076
 30
0.0
 10
400.638995
 20
5.621076
 30
0.0
  0
LWPOLYLINE
  5
117
100
AcDbEntity
  8
0
 62
7
100
AcDbPolyline
 90
31
 70
1
 10
379.418988
 20
5.621076
 30
0.0
 10
379.071008
 20
5.969423
 30
0.0
 10
378.808993
 20
6.386547
 30
0.0
 10
378.645982
 20
6.851565
 30
0.0
 10
378.591005
 20
7.341108
 30
0.0
 10
378.645982
 20
7.830650
 30
0.0
 10
378.808993
 20
8.295640
 30
0.0
 10
379.071008
 20
8.712792
 30
0.0
 10
379.418988
 20
9.061139
 30
0.0
 10
379.836000
 20
9.323239
 30
0.0
 10
380.300989
 20
9.485940
 30
0.0
 10
380.790983
 20
9.541086
 30
0.0
 10
381.281006
 20
9.485940
 30
0.0
 10
381.745995
 20
9.323239
 30
0.0
 10
382.163007
 20
9.061139
 30
0.0
 10
382.510987
 20
8.712792
 30
0.0
 10
382.773002
 20
8.295640
 30
0.0
 10
382.935985
 20
7.830650
 30
0.0
 10
382.990990
 20
7.341108
 30
0.0
 10
382.935985
 20
6.851565
 30
0.0
 10
382.773002
 20
6.386547
 30
0.0
 10
382.510987
 20
5.969423
 30
0.0
 10
382.163007
 20
5.621076
 30
0.0
 10
381.745995
 20
5.358976
 30
0.0
 10
381.281006
 20
5.196247
 30
0.0
 10
380.790983
 20
5.141101
 30
0.0
 10
380.300989
 20
5.196247
 30
0.0
 10
379.836000
 20
5.358976
 30
0.0
 10
379.418988
 20
5.621076
 30
0.0
 10
379.418988
 20
5.621076
 30
0.0
 10
379.418988
 20
5.621076
 30
0.0
  0
LWPOLYLINE
  5
118
100
AcDbEntity
  8
0
 62
7
100
AcDbPolyline
 90
31
 70
1
 10
92.458994
 20
6.386547
 30
0.0
 10
92.295994
 20
6.851565
 30
0.0
 10
92.240995
 20
7.341108
 30
0.0
 10
92.295994
 20
7.830650
 30
0.0
 10
92.458994
 20
8.295640
 30
0.0
 10
92.720993
 20
8.712792
 30
0.0
 10
93.068995
 20
9.061139
 30
0.0
 10
93.485995
 20
9.323239
 30
0.0
 10
93.950993
 20
9.485940
 30
0.0
 10
94.440993
 20
9.541086
 30
0.0
 10
94.930993
 20
9.485940
 30
0.0
 10
95.395994
 20
9.323239
 30
0.0
 10
95.812994
 20
9.061139
 30
0.0
 10
96.160994
 20
8.712792
 30
0.0
 10
96.422995
 20
8.295640
 30
0.0
 10
96.585995
 20
7.830650
 30
0.0
 10
96.640994
 20
7.341108
 30
0.0
 10
96.585995
 20
6.851565
 30
0.0
 10
96.422995
 20
6.386547
 30
0.0
 10
96.160994
 20
5.969423
 30
0.0
 10
95.812994
 20
5.621076
 30
0.0
 10
95.395994
 20
5.358976
 30
0.0
 10
94.930993
 20
5.196247
 30
0.0
 10
94.440993
 20
5.141101
 30
0.0
 10
93.950993
 20
5.196247
 30
0.0
 10
93.485995
 20
5.358976
 30
0.0
 10
93.068995
 20
5.621076
 30
0.0
 10
92.720993
 20
5.969423
 30
0.0
 10
92.458994
 20
6.386547
 30
0.0
 10
92.458994
 20
6.386547
 30
0.0
 10
92.458994
 20
6.386547
 30
0.0
  0
LWPOLYLINE
  5
119
100
AcDbEntity
  8
0
 62
7
100
AcDbPolyline
 90
47
 70
1
 10
333.377509
 20
0.232918
 30
0.0
 10
333.846083
 20
0.393784
 30
0.0
 10
334.281805
 20
0.629609
 30
0.0
 10
334.672994
 20
0.933929
 30
0.0
 10
335.007991
 20
1.298448
 30
0.0
 10
335.279009
 20
1.713258
 30
0.0
 10
335.478004
 20
2.166987
 30
0.0
 10
335.600009
 20
2.647329
 30
0.0
 10
335.640988
 20
3.141105
 30
0.0
 10
335.631110
 20
213.389117
 30
0.0
 10
335.549124
 20
213.877115
 30
0.0
 10
335.388117
 20
214.346115
 30
0.0
 10
335.152122
 20
214.782115
 30
0.0
 10
334.848113
 20
215.173117
 30
0.0
 10
334.484102
 20
215.508114
 30
0.0
 10
334.068925
 20
215.779115
 30
0.0
 10
333.615225
 20
215.978119
 30
0.0
 10
333.134911
 20
216.100118
 30
0.0
 10
332.641107
 20
216.141116
 30
0.0
 10
246.151112
 20
216.137109
 30
0.0
 10
246.151112
 20
211.141112
 30
0.0
 10
209.131112
 20
211.141112
 30
0.0
 10
209.131112
 20
216.135113
 30
0.0
 10
122.393112
 20
216.131106
 30
0.0
 10
121.905113
 20
216.049106
 30
0.0
 10
121.436113
 20
215.888107
 30
0.0
 10
121.000114
 20
215.652110
 30
0.0
 10
120.609112
 20
215.348106
 30
0.0
 10
120.274111
 20
214.984107
 30
0.0
 10
120.003113
 20
214.569107
 30
0.0
 10
119.804112
 20
214.115108
 30
0.0
 10
119.682113
 20
213.635107
 30
0.0
 10
119.641112
 20
213.141111
 30
0.0
 10
119.651103
 20
2.893370
 30
0.0
 10
119.733108
 20
2.404646
 30
0.0
 10
119.894107
 20
1.936016
 30
0.0
 10
120.130107
 20
1.500265
 30
0.0
 10
120.434106
 20
1.109274
 30
0.0
 10
120.798107
 20
0.773684
 30
0.0
 10
121.213107
 20
0.502694
 30
0.0
 10
121.667106
 20
0.303643
 30
0.0
 10
122.147107
 20
0.182005
 30
0.0
 10
122.641106
 20
0.141111
 30
0.0
 10
332.888813
 20
0.151271
 30
0.0
 10
333.377622
 20
0.232918
 30
0.0
 10
333.377622
 20
0.232918
 30
0.0
 10
333.377509
 20
0.232918
 30
0.0
  0
LWPOLYLINE
  5
11a
100
AcDbEntity
  8
0
 62
7
100
AcDbPolyline
 90
19
 70
1
 10
121.985995
 20
213.119115
 30
0.0
 10
122.256993
 20
213.525117
 30
0.0
 10
122.662995
 20
213.796115
 30
0.0
 10
123.140995
 20
213.891114
 30
0.0
 10
123.618995
 20
213.796115
 30
0.0
 10
124.024994
 20
213.525117
 30
0.0
 10
124.295995
 20
213.119115
 30
0.0
 10
124.390994
 20
212.641118
 30
0.0
 10
124.295995
 20
212.163118
 30
0.0
 10
124.024994
 20
211.757119
 30
0.0
 10
123.618995
 20
211.486115
 30
0.0
 10
123.140995
 20
211.391119
 30
0.0
 10
122.662995
 20
211.486115
 30
0.0
 10
122.256993
 20
211.757119
 30
0.0
 10
121.985995
 20
212.163118
 30
0.0
 10
121.890993
 20
212.641118
 30
0.0
 10
121.985995
 20
213.119115
 30
0.0
 10
121.985995
 20
213.119115
 30
0.0
 10
121.985995
 20
213.119115
 30
0.0
  0
LWPOLYLINE
  5
11b
100
AcDbEntity
  8
0
 62
7
100
AcDbPolyline
 90
19
 70
1
 10
333.024901
 20
211.757119
 30
0.0
 10
332.619291
 20
211.486115
 30
0.0
 10
332.140981
 20
211.391119
 30
0.0
 10
331.662586
 20
211.486115
 30
0.0
 10
331.257089
 20
211.757119
 30
0.0
 10
330.986099
 20
212.163118
 30
0.0
 10
330.890990
 20
212.641118
 30
0.0
 10
330.986099
 20
213.119115
 30
0.0
 10
331.257089
 20
213.525117
 30
0.0
 10
331.662586
 20
213.796115
 30
0.0
 10
332.140981
 20
213.891114
 30
0.0
 10
332.619291
 20
213.796115
 30
0.0
 10
333.024901
 20
213.525117
 30
0.0
 10
333.295806
 20
213.119115
 30
0.0
 10
333.390999
 20
212.641118
 30
0.0
 10
333.295806
 20
212.163118
 30
0.0
 10
333.024901
 20
211.757119
 30
0.0
 10
333.024901
 20
211.757119
 30
0.0
 10
333.024901
 20
211.757119
 30
0.0
  0
LWPOLYLINE
  5
11c
100
AcDbEntity
  8
0
 62
7
100
AcDbPolyline
 90
24
 70
1
 10
205.771493
 20
207.263116
 30
0.0
 10
206.155993
 20
207.570115
 30
0.0
 10
206.613895
 20
207.750116
 30
0.0
 10
207.104293
 20
207.786114
 30
0.0
 10
207.583794
 20
207.677117
 30
0.0
 10
208.009795
 20
207.431118
 30
0.0
 10
208.344293
 20
207.070119
 30
0.0
 10
208.557695
 20
206.627114
 30
0.0
 10
208.630994
 20
206.141116
 30
0.0
 10
208.557695
 20
205.655119
 30
0.0
 10
208.344293
 20
205.212114
 30
0.0
 10
208.009795
 20
204.851115
 30
0.0
 10
207.583794
 20
204.605116
 30
0.0
 10
207.104293
 20
204.496117
 30
0.0
 10
206.613895
 20
204.532114
 30
0.0
 10
206.155993
 20
204.712115
 30
0.0
 10
205.771493
 20
205.019117
 30
0.0
 10
205.494393
 20
205.425116
 30
0.0
 10
205.349393
 20
205.895115
 30
0.0
 10
205.349393
 20
206.387115
 30
0.0
 10
205.494393
 20
206.857114
 30
0.0
 10
205.771493
 20
207.263116
 30
0.0
 10
205.771493
 20
207.263116
 30
0.0
 10
205.771493
 20
207.263116
 30
0.0
  0
LWPOLYLINE
  5
11d
100
AcDbEntity
  8
0
 62
7
100
AcDbPolyline
 90
24
 70
1
 10
249.950994
 20
206.141116
 30
0.0
 10
249.877696
 20
205.655119
 30
0.0
 10
249.664293
 20
205.212114
 30
0.0
 10
249.329795
 20
204.851115
 30
0.0
 10
248.903795
 20
204.605116
 30
0.0
 10
248.424294
 20
204.496117
 30
0.0
 10
247.933794
 20
204.532114
 30
0.0
 10
247.475993
 20
204.712115
 30
0.0
 10
247.091494
 20
205.019117
 30
0.0
 10
246.814394
 20
205.425116
 30
0.0
 10
246.669393
 20
205.895115
 30
0.0
 10
246.669393
 20
206.387115
 30
0.0
 10
246.814394
 20
206.857114
 30
0.0
 10
247.091494
 20
207.263116
 30
0.0
 10
247.475993
 20
207.570115
 30
0.0
 10
247.933794
 20
207.750116
 30
0.0
 10
248.424294
 20
207.786114
 30
0.0
 10
248.903795
 20
207.677117
 30
0.0
 10
249.329795
 20
207.431118
 30
0.0
 10
249.664293
 20
207.070119
 30
0.0
 10
249.877696
 20
206.627114
 30
0.0
 10
249.950994
 20
206.141116
 30
0.0
 10
249.950994
 20
206.141116
 30
0.0
 10
249.950994
 20
206.141116
 30
0.0
  0
LWPOLYLINE
  5
11e
100
AcDbEntity
  8
0
 62
7
100
AcDbPolyline
 90
24
 70
1
 10
154.827594
 20
197.857115
 30
0.0
 10
154.972594
 20
197.387117
 30
0.0
 10
154.972594
 20
196.895119
 30
0.0
 10
154.827594
 20
196.425114
 30
0.0
 10
154.550494
 20
196.019115
 30
0.0
 10
154.165994
 20
195.712116
 30
0.0
 10
153.708193
 20
195.532118
 30
0.0
 10
153.217694
 20
195.496118
 30
0.0
 10
152.738195
 20
195.605115
 30
0.0
 10
152.312195
 20
195.851116
 30
0.0
 10
151.977694
 20
196.212115
 30
0.0
 10
151.764294
 20
196.655117
 30
0.0
 10
151.690993
 20
197.141118
 30
0.0
 10
151.764294
 20
197.627115
 30
0.0
 10
151.977694
 20
198.070114
 30
0.0
 10
152.312195
 20
198.431119
 30
0.0
 10
152.738195
 20
198.677115
 30
0.0
 10
153.217694
 20
198.786115
 30
0.0
 10
153.708193
 20
198.750114
 30
0.0
 10
154.165994
 20
198.570119
 30
0.0
 10
154.550494
 20
198.263115
 30
0.0
 10
154.827594
 20
197.857115
 30
0.0
 10
154.827594
 20
197.857115
 30
0.0
 10
154.827594
 20
197.857115
 30
0.0
  0
LWPOLYLINE
  5
11f
100
AcDbEntity
  8
0
 62
7
100
AcDbPolyline
 90
24
 70
1
 10
124.911993
 20
175.851114
 30
0.0
 10
124.577994
 20
176.212116
 30
0.0
 10
124.363994
 20
176.655114
 30
0.0
 10
124.290994
 20
177.141115
 30
0.0
 10
124.363994
 20
177.627116
 30
0.0
 10
124.577994
 20
178.070115
 30
0.0
 10
124.911993
 20
178.431116
 30
0.0
 10
125.337993
 20
178.677115
 30
0.0
 10
125.817994
 20
178.786115
 30
0.0
 10
126.307994
 20
178.750115
 30
0.0
 10
126.765993
 20
178.570116
 30
0.0
 10
127.150995
 20
178.263118
 30
0.0
 10
127.427993
 20
177.857119
 30
0.0
 10
127.572993
 20
177.387114
 30
0.0
 10
127.572993
 20
176.895116
 30
0.0
 10
127.427993
 20
176.425115
 30
0.0
 10
127.150995
 20
176.019115
 30
0.0
 10
126.765993
 20
175.712114
 30
0.0
 10
126.307994
 20
175.532116
 30
0.0
 10
125.817994
 20
175.496115
 30
0.0
 10
125.337993
 20
175.605115
 30
0.0
 10
124.911993
 20
175.851114
 30
0.0
 10
124.911993
 20
175.851114
 30
0.0
 10
124.911993
 20
175.851114
 30
0.0
  0
LWPOLYLINE
  5
120
100
AcDbEntity
  8
0
 62
7
100
AcDbPolyline
 90
24
 70
1
 10
195.305993
 20
169.895116
 30
0.0
 10
195.763794
 20
170.074116
 30
0.0
 10
196.254294
 20
170.111118
 30
0.0
 10
196.733795
 20
170.002115
 30
0.0
 10
197.159795
 20
169.756119
 30
0.0
 10
197.494294
 20
169.395114
 30
0.0
 10
197.707693
 20
168.952119
 30
0.0
 10
197.780995
 20
168.466115
 30
0.0
 10
197.707693
 20
167.979115
 30
0.0
 10
197.494294
 20
167.536114
 30
0.0
 10
197.159795
 20
167.176117
 30
0.0
 10
196.733795
 20
166.930115
 30
0.0
 10
196.254294
 20
166.820119
 30
0.0
 10
195.763794
 20
166.857115
 30
0.0
 10
195.305993
 20
167.037117
 30
0.0
 10
194.921494
 20
167.343116
 30
0.0
 10
194.644394
 20
167.750114
 30
0.0
 10
194.499394
 20
168.220119
 30
0.0
 10
194.499394
 20
168.711115
 30
0.0
 10
194.644394
 20
169.181116
 30
0.0
 10
194.921494
 20
169.588118
 30
0.0
 10
195.305993
 20
169.895116
 30
0.0
 10
195.305993
 20
169.895116
 30
0.0
 10
195.305993
 20
169.895116
 30
0.0
  0
LWPOLYLINE
  5
121
100
AcDbEntity
  8
0
 62
7
100
AcDbPolyline
 90
24
 70
1
 10
197.780995
 20
153.816115
 30
0.0
 10
197.707693
 20
153.330117
 30
0.0
 10
197.494294
 20
152.887115
 30
0.0
 10
197.159795
 20
152.526116
 30
0.0
 10
196.733795
 20
152.280114
 30
0.0
 10
196.254294
 20
152.171115
 30
0.0
 10
195.763794
 20
152.208117
 30
0.0
 10
195.305993
 20
152.387116
 30
0.0
 10
194.921494
 20
152.694118
 30
0.0
 10
194.644394
 20
153.101119
 30
0.0
 10
194.499394
 20
153.570116
 30
0.0
 10
194.499394
 20
154.062116
 30
0.0
 10
194.644394
 20
154.532115
 30
0.0
 10
194.921494
 20
154.939116
 30
0.0
 10
195.305993
 20
155.245119
 30
0.0
 10
195.763794
 20
155.425114
 30
0.0
 10
196.254294
 20
155.462116
 30
0.0
 10
196.733795
 20
155.352115
 30
0.0
 10
197.159795
 20
155.106116
 30
0.0
 10
197.494294
 20
154.746116
 30
0.0
 10
197.707693
 20
154.303114
 30
0.0
 10
197.780995
 20
153.816115
 30
0.0
 10
197.780995
 20
153.816115
 30
0.0
 10
197.780995
 20
153.816115
 30
0.0
  0
LWPOLYLINE
  5
122
100
AcDbEntity
  8
0
 62
7
100
AcDbPolyline
 90
24
 70
1
 10
329.217695
 20
116.496118
 30
0.0
 10
328.738199
 20
116.605115
 30
0.0
 10
328.312185
 20
116.851114
 30
0.0
 10
327.977695
 20
117.212115
 30
0.0
 10
327.764307
 20
117.655117
 30
0.0
 10
327.690985
 20
118.141115
 30
0.0
 10
327.764307
 20
118.627115
 30
0.0
 10
327.977695
 20
119.070117
 30
0.0
 10
328.312185
 20
119.431119
 30
0.0
 10
328.738199
 20
119.677118
 30
0.0
 10
329.217695
 20
119.786115
 30
0.0
 10
329.708197
 20
119.750114
 30
0.0
 10
330.165989
 20
119.570119
 30
0.0
 10
330.550489
 20
119.263115
 30
0.0
 10
330.827603
 20
118.857115
 30
0.0
 10
330.972581
 20
118.387116
 30
0.0
 10
330.972581
 20
117.895116
 30
0.0
 10
330.827603
 20
117.425114
 30
0.0
 10
330.550489
 20
117.019118
 30
0.0
 10
330.165989
 20
116.712116
 30
0.0
 10
329.708197
 20
116.532118
 30
0.0
 10
329.217695
 20
116.496118
 30
0.0
 10
329.217695
 20
116.496118
 30
0.0
 10
329.217695
 20
116.496118
 30
0.0
  0
LWPOLYLINE
  5
123
100
AcDbEntity
  8
0
 62
7
100
AcDbPolyline
 90
24
 70
1
 10
303.427607
 20
98.857014
 30
0.0
 10
303.572585
 20
98.387015
 30
0.0
 10
303.572585
 20
97.895218
 30
0.0
 10
303.427607
 20
97.425216
 30
0.0
 10
303.150493
 20
97.018816
 30
0.0
 10
302.765993
 20
96.712117
 30
0.0
 10
302.308201
 20
96.532516
 30
0.0
 10
301.817699
 20
96.495714
 30
0.0
 10
301.338203
 20
96.605217
 30
0.0
 10
300.912189
 20
96.851114
 30
0.0
 10
300.577699
 20
97.211616
 30
0.0
 10
300.364282
 20
97.654714
 30
0.0
 10
300.290989
 20
98.141115
 30
0.0
 10
300.364282
 20
98.627415
 30
0.0
 10
300.577699
 20
99.070617
 30
0.0
 10
300.912189
 20
99.431116
 30
0.0
 10
301.338203
 20
99.677016
 30
0.0
 10
301.817699
 20
99.786519
 30
0.0
 10
302.308201
 20
99.749714
 30
0.0
 10
302.765993
 20
99.570018
 30
0.0
 10
303.150493
 20
99.263414
 30
0.0
 10
303.427607
 20
98.857014
 30
0.0
 10
303.427607
 20
98.857014
 30
0.0
 10
303.427607
 20
98.857014
 30
0.0
  0
LWPOLYLINE
  5
124
100
AcDbEntity
  8
0
 62
7
100
AcDbPolyline
 90
24
 70
1
 10
194.480993
 20
69.615719
 30
0.0
 10
194.554294
 20
70.102016
 30
0.0
 10
194.767694
 20
70.545215
 30
0.0
 10
195.102195
 20
70.905714
 30
0.0
 10
195.528195
 20
71.151614
 30
0.0
 10
196.007694
 20
71.261114
 30
0.0
 10
196.498193
 20
71.224315
 30
0.0
 10
196.955994
 20
71.044615
 30
0.0
 10
197.340494
 20
70.738018
 30
0.0
 10
197.617594
 20
70.331618
 30
0.0
 10
197.762594
 20
69.861616
 30
0.0
 10
197.762594
 20
69.369815
 30
0.0
 10
197.617594
 20
68.899814
 30
0.0
 10
197.340494
 20
68.493417
 30
0.0
 10
196.955994
 20
68.186715
 30
0.0
 10
196.498193
 20
68.007015
 30
0.0
 10
196.007694
 20
67.970315
 30
0.0
 10
195.528195
 20
68.079716
 30
0.0
 10
195.102195
 20
68.325715
 30
0.0
 10
194.767694
 20
68.686214
 30
0.0
 10
194.554294
 20
69.129314
 30
0.0
 10
194.480993
 20
69.615719
 30
0.0
 10
194.480993
 20
69.615719
 30
0.0
 10
194.480993
 20
69.615719
 30
0.0
  0
LWPOLYLINE
  5
125
100
AcDbEntity
  8
0
 62
7
100
AcDbPolyline
 90
24
 70
1
 10
196.007694
 20
56.611918
 30
0.0
 10
196.498193
 20
56.575119
 30
0.0
 10
196.955994
 20
56.395416
 30
0.0
 10
197.340494
 20
56.088819
 30
0.0
 10
197.617594
 20
55.682419
 30
0.0
 10
197.762594
 20
55.212414
 30
0.0
 10
197.762594
 20
54.720617
 30
0.0
 10
197.617594
 20
54.250615
 30
0.0
 10
197.340494
 20
53.844215
 30
0.0
 10
196.955994
 20
53.537614
 30
0.0
 10
196.498193
 20
53.357915
 30
0.0
 10
196.007694
 20
53.321116
 30
0.0
 10
195.528195
 20
53.430616
 30
0.0
 10
195.102195
 20
53.676519
 30
0.0
 10
194.767694
 20
54.037015
 30
0.0
 10
194.554294
 20
54.480214
 30
0.0
 10
194.480993
 20
54.966514
 30
0.0
 10
194.554294
 20
55.452916
 30
0.0
 10
194.767694
 20
55.896019
 30
0.0
 10
195.102195
 20
56.256515
 30
0.0
 10
195.528195
 20
56.502514
 30
0.0
 10
196.007694
 20
56.611918
 30
0.0
 10
196.007694
 20
56.611918
 30
0.0
 10
196.007694
 20
56.611918
 30
0.0
  0
LWPOLYLINE
  5
126
100
AcDbEntity
  8
0
 62
7
100
AcDbPolyline
 90
24
 70
1
 10
154.827594
 20
39.857016
 30
0.0
 10
154.972594
 20
39.387015
 30
0.0
 10
154.972594
 20
38.895214
 30
0.0
 10
154.827594
 20
38.425216
 30
0.0
 10
154.550494
 20
38.018816
 30
0.0
 10
154.165994
 20
37.712116
 30
0.0
 10
153.708193
 20
37.532519
 30
0.0
 10
153.217694
 20
37.495714
 30
0.0
 10
152.738195
 20
37.605216
 30
0.0
 10
152.312195
 20
37.851116
 30
0.0
 10
151.977694
 20
38.211619
 30
0.0
 10
151.764294
 20
38.654719
 30
0.0
 10
151.690993
 20
39.141115
 30
0.0
 10
151.764294
 20
39.627415
 30
0.0
 10
151.977694
 20
40.070616
 30
0.0
 10
152.312195
 20
40.431119
 30
0.0
 10
152.738195
 20
40.677016
 30
0.0
 10
153.217694
 20
40.786515
 30
0.0
 10
153.708193
 20
40.749714
 30
0.0
 10
154.165994
 20
40.570014
 30
0.0
 10
154.550494
 20
40.263414
 30
0.0
 10
154.827594
 20
39.857016
 30
0.0
 10
154.827594
 20
39.857016
 30
0.0
 10
154.827594
 20
39.857016
 30
0.0
  0
LWPOLYLINE
  5
127
100
AcDbEntity
  8
0
 62
7
100
AcDbPolyline
 90
24
 70
1
 10
127.572993
 20
19.387015
 30
0.0
 10
127.572993
 20
18.895215
 30
0.0
 10
127.427993
 20
18.425216
 30
0.0
 10
127.150995
 20
18.018816
 30
0.0
 10
126.765993
 20
17.712114
 30
0.0
 10
126.307994
 20
17.532516
 30
0.0
 10
125.817994
 20
17.495714
 30
0.0
 10
125.337993
 20
17.605217
 30
0.0
 10
124.911993
 20
17.851114
 30
0.0
 10
124.577994
 20
18.211616
 30
0.0
 10
124.363994
 20
18.654716
 30
0.0
 10
124.290994
 20
19.141115
 30
0.0
 10
124.363994
 20
19.627418
 30
0.0
 10
124.577994
 20
20.070614
 30
0.0
 10
124.911993
 20
20.431116
 30
0.0
 10
125.337993
 20
20.677014
 30
0.0
 10
125.817994
 20
20.786516
 30
0.0
 10
126.307994
 20
20.749714
 30
0.0
 10
126.765993
 20
20.570018
 30
0.0
 10
127.150995
 20
20.263414
 30
0.0
 10
127.427993
 20
19.857014
 30
0.0
 10
127.572993
 20
19.387015
 30
0.0
 10
127.572993
 20
19.387015
 30
0.0
 10
127.572993
 20
19.387015
 30
0.0
  0
LWPOLYLINE
  5
128
100
AcDbEntity
  8
0
 62
7
100
AcDbPolyline
 90
19
 70
1
 10
124.295995
 20
3.162751
 30
0.0
 10
124.024994
 20
2.757198
 30
0.0
 10
123.618995
 20
2.486236
 30
0.0
 10
123.140995
 20
2.391099
 30
0.0
 10
122.662995
 20
2.486236
 30
0.0
 10
122.256993
 20
2.757198
 30
0.0
 10
121.985995
 20
3.162751
 30
0.0
 10
121.890993
 20
3.641118
 30
0.0
 10
121.985995
 20
4.119456
 30
0.0
 10
122.256993
 20
4.524981
 30
0.0
 10
122.662995
 20
4.795971
 30
0.0
 10
123.140995
 20
4.891108
 30
0.0
 10
123.618995
 20
4.795971
 30
0.0
 10
124.024994
 20
4.524981
 30
0.0
 10
124.295995
 20
4.119456
 30
0.0
 10
124.390994
 20
3.641118
 30
0.0
 10
124.295995
 20
3.162751
 30
0.0
 10
124.295995
 20
3.162751
 30
0.0
 10
124.295995
 20
3.162751
 30
0.0
  0
LWPOLYLINE
  5
129
100
AcDbEntity
  8
0
 62
7
100
AcDbPolyline
 90
19
 70
1
 10
333.295806
 20
3.162751
 30
0.0
 10
333.024901
 20
2.757198
 30
0.0
 10
332.619291
 20
2.486236
 30
0.0
 10
332.140981
 20
2.391099
 30
0.0
 10
331.662586
 20
2.486236
 30
0.0
 10
331.257089
 20
2.757198
 30
0.0
 10
330.986099
 20
3.162751
 30
0.0
 10
330.890990
 20
3.641118
 30
0.0
 10
330.986099
 20
4.119456
 30
0.0
 10
331.257089
 20
4.524981
 30
0.0
 10
331.662586
 20
4.795971
 30
0.0
 10
332.140981
 20
4.891108
 30
0.0
 10
332.619291
 20
4.795971
 30
0.0
 10
333.024901
 20
4.524981
 30
0.0
 10
333.295806
 20
4.119456
 30
0.0
 10
333.390999
 20
3.641118
 30
0.0
 10
333.295806
 20
3.162751
 30
0.0
 10
333.295806
 20
3.162751
 30
0.0
 10
333.295806
 20
3.162751
 30
0.0
  0
LWPOLYLINE
  5
12a
100
AcDbEntity
  8
0
 62
7
100
AcDbPolyline
 90
29
 70
0
 10
358.257221
 20
62.391236
 30
0.0
 10
358.312220
 20
62.881236
 30
0.0
 10
358.475221
 20
63.346234
 30
0.0
 10
358.737219
 20
63.763234
 30
0.0
 10
359.085219
 20
64.111234
 30
0.0
 10
359.502219
 20
64.373235
 30
0.0
 10
359.967220
 20
64.536235
 30
0.0
 10
360.457219
 20
64.591234
 30
0.0
 10
360.947219
 20
64.536235
 30
0.0
 10
361.412220
 20
64.373235
 30
0.0
 10
361.829220
 20
64.111234
 30
0.0
 10
362.177220
 20
63.763234
 30
0.0
 10
362.439221
 20
63.346234
 30
0.0
 10
362.602221
 20
62.881236
 30
0.0
 10
362.657221
 20
62.391236
 30
0.0
 10
362.602221
 20
61.901233
 30
0.0
 10
362.439221
 20
61.436236
 30
0.0
 10
362.177220
 20
61.019235
 30
0.0
 10
361.829220
 20
60.671236
 30
0.0
 10
361.412220
 20
60.409235
 30
0.0
 10
360.947219
 20
60.246234
 30
0.0
 10
360.457219
 20
60.191235
 30
0.0
 10
359.967220
 20
60.246234
 30
0.0
 10
359.502219
 20
60.409235
 30
0.0
 10
359.085219
 20
60.671236
 30
0.0
 10
358.737219
 20
61.019235
 30
0.0
 10
358.475221
 20
61.436236
 30
0.0
 10
358.312220
 20
61.901233
 30
0.0
 10
358.257221
 20
62.391236
 30
0.0
  0
LWPOLYLINE
  5
12b
100
AcDbEntity
  8
0
 62
7
100
AcDbPolyline
 90
29
 70
0
 10
358.257221
 20
103.791235
 30
0.0
 10
358.312220
 20
104.281235
 30
0.0
 10
358.475221
 20
104.746236
 30
0.0
 10
358.737219
 20
105.163236
 30
0.0
 10
359.085219
 20
105.511236
 30
0.0
 10
359.502219
 20
105.773234
 30
0.0
 10
359.967220
 20
105.936234
 30
0.0
 10
360.457219
 20
105.991234
 30
0.0
 10
360.947219
 20
105.936234
 30
0.0
 10
361.412220
 20
105.773234
 30
0.0
 10
361.829220
 20
105.511236
 30
0.0
 10
362.177220
 20
105.163236
 30
0.0
 10
362.439221
 20
104.746236
 30
0.0
 10
362.602221
 20
104.281235
 30
0.0
 10
362.657221
 20
103.791235
 30
0.0
 10
362.602221
 20
103.301235
 30
0.0
 10
362.439221
 20
102.836235
 30
0.0
 10
362.177220
 20
102.419234
 30
0.0
 10
361.829220
 20
102.071235
 30
0.0
 10
361.412220
 20
101.809234
 30
0.0
 10
360.947219
 20
101.646236
 30
0.0
 10
360.457219
 20
101.591234
 30
0.0
 10
359.967220
 20
101.646236
 30
0.0
 10
359.502219
 20
101.809234
 30
0.0
 10
359.085219
 20
102.071235
 30
0.0
 10
358.737219
 20
102.419234
 30
0.0
 10
358.475221
 20
102.836235
 30
0.0
 10
358.312220
 20
103.301235
 30
0.0
 10
358.257221
 20
103.791235
 30
0.0
  0
ENDSEC
  0
SECTION
  2
OBJECTS
  0
DICTIONARY
  5
C
330
0
100
AcDbDictionary
  3
ACAD_GROUP
350
D
  3
ACAD_MLINESTYLE
350
17
  0
DICTIONARY
  5
D
330
C
100
AcDbDictionary
  0
DICTIONARY
  5
1A
330
C
100
AcDbDictionary
  0
DICTIONARY
  5
17
330
C
100
AcDbDictionary
  3
STANDARD
350
18
  0
DICTIONARY
  5
19
330
C
100
AcDbDictionary
  0
ENDSEC
  0
EOF
