  0
SECTION
  2
HEADER
  9
$ACADVER
  1
AC1014
  9
$HANDSEED
  5
FFFF
  9
$MEASUREMENT
 70
     1
  0
ENDSEC
  0
SECTION
  2
TABLES
  0
TABLE
  2
VPORT
  5
8
330
0
100
AcDbSymbolTable
 70
     4
  0
VPORT
  5
2E
330
8
100
AcDbSymbolTableRecord
100
AcDbViewportTableRecord
  2
*ACTIVE
 70
     0
 10
0.0
 20
0.0
 11
1.0
 21
1.0
 12
210.0
 22
148.5
 13
0.0
 23
0.0
 14
10.0
 24
10.0
 15
10.0
 25
10.0
 16
0.0
 26
0.0
 36
1.0
 17
0.0
 27
0.0
 37
0.0
 40
341.0
 41
1.24
 42
50.0
 43
0.0
 44
0.0
 50
0.0
 51
0.0
 71
     0
 72
   100
 73
     1
 74
     3
 75
     0
 76
     0
 77
     0
 78
     0
  0
ENDTAB
  0
TABLE
  2
LTYPE
  5
5
330
0
100
AcDbSymbolTable
 70
     1
  0
LTYPE
  5
14
330
5
100
AcDbSymbolTableRecord
100
AcDbLinetypeTableRecord
  2
BYBLOCK
 70
     0
  3

 72
    65
 73
     0
 40
0.0
  0
LTYPE
  5
15
330
5
100
AcDbSymbolTableRecord
100
AcDbLinetypeTableRecord
  2
BYLAYER
 70
     0
  3

 72
    65
 73
     0
 40
0.0
  0
LTYPE
  5
16
330
5
100
AcDbSymbolTableRecord
100
AcDbLinetypeTableRecord
  2
CONTINUOUS
 70
     0
  3
Solid line
 72
    65
 73
     0
 40
0.0
  0
ENDTAB
  0
TABLE
  2
LAYER
  5
2
100
AcDbSymbolTable
 70
1
  0
LAYER
  5
50
100
AcDbSymbolTableRecord
100
AcDbLayerTableRecord
  2
0
 70
0
  6
CONTINUOUS
  0
ENDTAB
  0
TABLE
  2
STYLE
  5
3
330
0
100
AcDbSymbolTable
 70
     1
  0
STYLE
  5
11
330
3
100
AcDbSymbolTableRecord
100
AcDbTextStyleTableRecord
  2
STANDARD
 70
     0
 40
0.0
 41
1.0
 50
0.0
 71
     0
 42
2.5
  3
txt
  4

  0
ENDTAB
  0
TABLE
  2
VIEW
  5
6
330
0
100
AcDbSymbolTable
 70
     0
  0
ENDTAB
  0
TABLE
  2
UCS
  5
7
330
0
100
AcDbSymbolTable
 70
     0
  0
ENDTAB
  0
TABLE
  2
APPID
  5
9
330
0
100
AcDbSymbolTable
 70
     2
  0
APPID
  5
12
330
9
100
AcDbSymbolTableRecord
100
AcDbRegAppTableRecord
  2
ACAD
 70
     0
  0
ENDTAB
  0
TABLE
  2
DIMSTYLE
  5
A
330
0
100
AcDbSymbolTable
 70
     1
  0
DIMSTYLE
105
27
330
A
100
AcDbSymbolTableRecord
100
AcDbDimStyleTableRecord
  2
ISO-25
 70
     0
  3

  4

  5

  6

  7

 40
1.0
 41
2.5
 42
0.625
 43
3.75
 44
1.25
 45
0.0
 46
0.0
 47
0.0
 48
0.0
140
2.5
141
2.5
142
0.0
143
0.03937007874016
144
1.0
145
0.0
146
1.0
147
0.625
 71
     0
 72
     0
 73
     0
 74
     0
 75
     0
 76
     0
 77
     1
 78
     8
170
     0
171
     3
172
     1
173
     0
174
     0
175
     0
176
     0
177
     0
178
     0
270
     2
271
     2
272
     2
273
     2
274
     3
340
11
275
     0
280
     0
281
     0
282
     0
283
     0
284
     8
285
     0
286
     0
287
     3
288
     0
  0
ENDTAB
  0
TABLE
  2
BLOCK_RECORD
  5
1
330
0
100
AcDbSymbolTable
 70
     1
  0
BLOCK_RECORD
  5
1F
330
1
100
AcDbSymbolTableRecord
100
AcDbBlockTableRecord
  2
*MODEL_SPACE
  0
BLOCK_RECORD
  5
1B
330
1
100
AcDbSymbolTableRecord
100
AcDbBlockTableRecord
  2
*PAPER_SPACE
  0
ENDTAB
  0
ENDSEC
  0
SECTION
  2
BLOCKS
  0
BLOCK
  5
20
330
1F
100
AcDbEntity
  8
0
100
AcDbBlockBegin
  2
*MODEL_SPACE
 70
     0
 10
0.0
 20
0.0
 30
0.0
  3
*MODEL_SPACE
  1

  0
ENDBLK
  5
21
330
1F
100
AcDbEntity
  8
0
100
AcDbBlockEnd
  0
BLOCK
  5
1C
330
1B
100
AcDbEntity
 67
     1
  8
0
100
AcDbBlockBegin
  2
*PAPER_SPACE
  1

  0
ENDBLK
  5
1D
330
1B
100
AcDbEntity
 67
     1
  8
0
100
AcDbBlockEnd
  0
ENDSEC
  0
SECTION
  2
ENTITIES
  0
LWPOLYLINE
  5
100
100
AcDbEntity
  8
0
 62
7
100
AcDbPolyline
 90
77
 70
1
 10
0.236112
 20
22.962110
 30
0.0
 10
0.521112
 20
20.800110
 30
0.0
 10
0.993112
 20
18.671110
 30
0.0
 10
1.649112
 20
16.590108
 30
0.0
 10
2.483112
 20
14.576111
 30
0.0
 10
3.490112
 20
12.641110
 30
0.0
 10
4.662112
 20
10.802122
 30
0.0
 10
5.990112
 20
9.071112
 30
0.0
 10
7.463112
 20
7.463123
 30
0.0
 10
9.071112
 20
5.990120
 30
0.0
 10
10.802112
 20
4.662095
 30
0.0
 10
12.641112
 20
3.490111
 30
0.0
 10
14.576112
 20
2.483114
 30
0.0
 10
16.590112
 20
1.649119
 30
0.0
 10
18.671112
 20
0.993122
 30
0.0
 10
20.800112
 20
0.521105
 30
0.0
 10
22.962112
 20
0.236117
 30
0.0
 10
25.141112
 20
0.141234
 30
0.0
 10
439.641116
 20
0.141121
 30
0.0
 10
441.820126
 20
0.236117
 30
0.0
 10
443.982117
 20
0.521105
 30
0.0
 10
446.111117
 20
0.993122
 30
0.0
 10
448.192111
 20
1.649119
 30
0.0
 10
450.206105
 20
2.483114
 30
0.0
 10
452.141105
 20
3.490111
 30
0.0
 10
453.980122
 20
4.662095
 30
0.0
 10
455.711104
 20
5.990120
 30
0.0
 10
457.319121
 20
7.463123
 30
0.0
 10
458.792124
 20
9.071112
 30
0.0
 10
460.120120
 20
10.802122
 30
0.0
 10
461.292104
 20
12.641110
 30
0.0
 10
462.299102
 20
14.576111
 30
0.0
 10
463.133125
 20
16.590108
 30
0.0
 10
463.789122
 20
18.671110
 30
0.0
 10
464.261110
 20
20.800110
 30
0.0
 10
464.546098
 20
22.962110
 30
0.0
 10
464.641123
 20
25.141105
 30
0.0
 10
464.641123
 20
394.141115
 30
0.0
 10
464.546098
 20
396.320108
 30
0.0
 10
464.261110
 20
398.482108
 30
0.0
 10
463.789122
 20
400.611110
 30
0.0
 10
463.133125
 20
402.692110
 30
0.0
 10
462.299102
 20
404.706109
 30
0.0
 10
461.292104
 20
406.641110
 30
0.0
 10
460.120120
 20
408.480109
 30
0.0
 10
458.792124
 20
410.211108
 30
0.0
 10
457.319121
 20
411.819109
 30
0.0
 10
455.711104
 20
413.292108
 30
0.0
 10
453.980122
 20
414.620108
 30
0.0
 10
452.141105
 20
415.792109
 30
0.0
 10
450.206105
 20
416.799109
 30
0.0
 10
448.192111
 20
417.633109
 30
0.0
 10
446.111117
 20
418.289109
 30
0.0
 10
443.982117
 20
418.761109
 30
0.0
 10
441.820126
 20
419.046210
 30
0.0
 10
439.641116
 20
419.141110
 30
0.0
 10
25.141111
 20
419.141209
 30
0.0
 10
22.962111
 20
419.046108
 30
0.0
 10
20.800111
 20
418.761109
 30
0.0
 10
18.671111
 20
418.289109
 30
0.0
 10
16.590111
 20
417.633109
 30
0.0
 10
14.576111
 20
416.799109
 30
0.0
 10
12.641111
 20
415.792109
 30
0.0
 10
10.802111
 20
414.620108
 30
0.0
 10
9.071111
 20
413.292108
 30
0.0
 10
7.463111
 20
411.819109
 30
0.0
 10
5.990111
 20
410.211108
 30
0.0
 10
4.662111
 20
408.480109
 30
0.0
 10
3.490111
 20
406.641110
 30
0.0
 10
2.483111
 20
404.706109
 30
0.0
 10
1.649111
 20
402.692110
 30
0.0
 10
0.993111
 20
400.611110
 30
0.0
 10
0.521111
 20
398.482108
 30
0.0
 10
0.236111
 20
396.320108
 30
0.0
 10
0.141111
 20
394.141115
 30
0.0
 10
0.141111
 20
25.141105
 30
0.0
 10
0.236112
 20
22.962110
 30
0.0
  0
LWPOLYLINE
  5
101
100
AcDbEntity
  8
0
 62
7
100
AcDbPolyline
 90
31
 70
1
 10
15.306221
 20
260.830708
 30
0.0
 10
15.469222
 20
261.295709
 30
0.0
 10
15.731223
 20
261.712909
 30
0.0
 10
16.079222
 20
262.061205
 30
0.0
 10
16.496223
 20
262.323308
 30
0.0
 10
16.961220
 20
262.486006
 30
0.0
 10
17.451220
 20
262.541209
 30
0.0
 10
17.941220
 20
262.486006
 30
0.0
 10
18.406221
 20
262.323308
 30
0.0
 10
18.823221
 20
262.061205
 30
0.0
 10
19.171221
 20
261.712909
 30
0.0
 10
19.433222
 20
261.295709
 30
0.0
 10
19.596222
 20
260.830708
 30
0.0
 10
19.651222
 20
260.341208
 30
0.0
 10
19.596222
 20
259.851710
 30
0.0
 10
19.433222
 20
259.386707
 30
0.0
 10
19.171221
 20
258.969509
 30
0.0
 10
18.823221
 20
258.621210
 30
0.0
 10
18.406221
 20
258.359110
 30
0.0
 10
17.941220
 20
258.196409
 30
0.0
 10
17.451220
 20
258.141209
 30
0.0
 10
16.961220
 20
258.196409
 30
0.0
 10
16.496223
 20
258.359110
 30
0.0
 10
16.079222
 20
258.621210
 30
0.0
 10
15.731223
 20
258.969509
 30
0.0
 10
15.469222
 20
259.386707
 30
0.0
 10
15.306221
 20
259.851710
 30
0.0
 10
15.251222
 20
260.341208
 30
0.0
 10
15.306221
 20
260.830708
 30
0.0
 10
15.306221
 20
260.830708
 30
0.0
 10
15.306221
 20
260.830708
 30
0.0
  0
LWPOLYLINE
  5
102
100
AcDbEntity
  8
0
 62
7
100
AcDbPolyline
 90
54
 70
1
 10
25.649223
 20
209.887449
 30
0.0
 10
25.709220
 20
210.376202
 30
0.0
 10
25.829221
 20
210.853803
 30
0.0
 10
26.007222
 20
211.313035
 30
0.0
 10
26.240221
 20
211.746927
 30
0.0
 10
26.525221
 20
212.148896
 30
0.0
 10
26.856222
 20
212.512850
 30
0.0
 10
27.230220
 20
212.833285
 30
0.0
 10
27.641221
 20
213.105319
 30
0.0
 10
28.082221
 20
213.324831
 30
0.0
 10
28.546223
 20
213.488517
 30
0.0
 10
29.027222
 20
213.593874
 30
0.0
 10
29.518221
 20
213.639306
 30
0.0
 10
30.010222
 20
213.624066
 30
0.0
 10
30.497222
 20
213.548599
 30
0.0
 10
30.970221
 20
213.413813
 30
0.0
 10
31.424220
 20
213.221843
 30
0.0
 10
31.850221
 20
212.975604
 30
0.0
 10
32.243221
 20
212.678819
 30
0.0
 10
32.597221
 20
212.335978
 30
0.0
 10
32.906223
 20
211.952294
 30
0.0
 10
33.165221
 20
211.533564
 30
0.0
 10
33.371221
 20
211.086182
 30
0.0
 10
33.520223
 20
210.616847
 30
0.0
 10
33.611222
 20
210.132754
 30
0.0
 10
33.641223
 20
209.641205
 30
0.0
 10
33.611222
 20
209.149661
 30
0.0
 10
33.520223
 20
208.665537
 30
0.0
 10
33.371221
 20
208.196227
 30
0.0
 10
33.165221
 20
207.748823
 30
0.0
 10
32.906223
 20
207.330118
 30
0.0
 10
32.597221
 20
206.946437
 30
0.0
 10
32.243221
 20
206.603590
 30
0.0
 10
31.850221
 20
206.306805
 30
0.0
 10
31.424220
 20
206.060567
 30
0.0
 10
30.970221
 20
205.868571
 30
0.0
 10
30.497222
 20
205.733810
 30
0.0
 10
30.010222
 20
205.658259
 30
0.0
 10
29.518221
 20
205.643019
 30
0.0
 10
29.027222
 20
205.688544
 30
0.0
 10
28.546223
 20
205.793895
 30
0.0
 10
28.082221
 20
205.957584
 30
0.0
 10
27.641221
 20
206.177096
 30
0.0
 10
27.230220
 20
206.449133
 30
0.0
 10
26.856222
 20
206.769568
 30
0.0
 10
26.525221
 20
207.133491
 30
0.0
 10
26.240221
 20
207.535463
 30
0.0
 10
26.007222
 20
207.969377
 30
0.0
 10
25.829221
 20
208.428580
 30
0.0
 10
25.709220
 20
208.906216
 30
0.0
 10
25.649223
 20
209.394968
 30
0.0
 10
25.649223
 20
209.887449
 30
0.0
 10
25.649223
 20
209.887449
 30
0.0
 10
25.649223
 20
209.887449
 30
0.0
  0
LWPOLYLINE
  5
103
100
AcDbEntity
  8
0
 62
7
100
AcDbPolyline
 90
31
 70
1
 10
58.246222
 20
19.941194
 30
0.0
 10
58.409223
 20
20.406215
 30
0.0
 10
58.671221
 20
20.823193
 30
0.0
 10
59.019221
 20
21.171204
 30
0.0
 10
59.436221
 20
21.433222
 30
0.0
 10
59.901221
 20
21.596205
 30
0.0
 10
60.391221
 20
21.651210
 30
0.0
 10
60.881221
 20
21.596205
 30
0.0
 10
61.346222
 20
21.433222
 30
0.0
 10
61.763222
 20
21.171204
 30
0.0
 10
62.111222
 20
20.823193
 30
0.0
 10
62.373223
 20
20.406215
 30
0.0
 10
62.536220
 20
19.941194
 30
0.0
 10
62.591223
 20
19.451203
 30
0.0
 10
62.536220
 20
18.961209
 30
0.0
 10
62.373223
 20
18.496220
 30
0.0
 10
62.111222
 20
18.079208
 30
0.0
 10
61.763222
 20
17.731200
 30
0.0
 10
61.346222
 20
17.469213
 30
0.0
 10
60.881221
 20
17.306198
 30
0.0
 10
60.391221
 20
17.251191
 30
0.0
 10
59.901221
 20
17.306198
 30
0.0
 10
59.436221
 20
17.469213
 30
0.0
 10
59.019221
 20
17.731200
 30
0.0
 10
58.671221
 20
18.079208
 30
0.0
 10
58.409223
 20
18.496220
 30
0.0
 10
58.246222
 20
18.961209
 30
0.0
 10
58.191223
 20
19.451203
 30
0.0
 10
58.246222
 20
19.941194
 30
0.0
 10
58.246222
 20
19.941194
 30
0.0
 10
58.246222
 20
19.941194
 30
0.0
  0
LWPOLYLINE
  5
104
100
AcDbEntity
  8
0
 62
7
100
AcDbPolyline
 90
31
 70
1
 10
58.246222
 20
400.321209
 30
0.0
 10
58.409223
 20
400.786209
 30
0.0
 10
58.671221
 20
401.203210
 30
0.0
 10
59.019221
 20
401.551207
 30
0.0
 10
59.436221
 20
401.813210
 30
0.0
 10
59.901221
 20
401.976208
 30
0.0
 10
60.391221
 20
402.031207
 30
0.0
 10
60.881221
 20
401.976208
 30
0.0
 10
61.346222
 20
401.813210
 30
0.0
 10
61.763222
 20
401.551207
 30
0.0
 10
62.111222
 20
401.203210
 30
0.0
 10
62.373223
 20
400.786209
 30
0.0
 10
62.536220
 20
400.321209
 30
0.0
 10
62.591223
 20
399.831209
 30
0.0
 10
62.536220
 20
399.341209
 30
0.0
 10
62.373223
 20
398.876208
 30
0.0
 10
62.111222
 20
398.459205
 30
0.0
 10
61.763222
 20
398.111206
 30
0.0
 10
61.346222
 20
397.849207
 30
0.0
 10
60.881221
 20
397.686210
 30
0.0
 10
60.391221
 20
397.631208
 30
0.0
 10
59.901221
 20
397.686210
 30
0.0
 10
59.436221
 20
397.849207
 30
0.0
 10
59.019221
 20
398.111206
 30
0.0
 10
58.671221
 20
398.459205
 30
0.0
 10
58.409223
 20
398.876208
 30
0.0
 10
58.246222
 20
399.341209
 30
0.0
 10
58.191223
 20
399.831209
 30
0.0
 10
58.246222
 20
400.321209
 30
0.0
 10
58.246222
 20
400.321209
 30
0.0
 10
58.246222
 20
400.321209
 30
0.0
  0
LWPOLYLINE
  5
105
100
AcDbEntity
  8
0
 62
7
100
AcDbPolyline
 90
31
 70
1
 10
79.686221
 20
260.830708
 30
0.0
 10
79.849222
 20
261.295709
 30
0.0
 10
80.111223
 20
261.712909
 30
0.0
 10
80.459222
 20
262.061205
 30
0.0
 10
80.876223
 20
262.323308
 30
0.0
 10
81.341220
 20
262.486006
 30
0.0
 10
81.831220
 20
262.541209
 30
0.0
 10
82.321223
 20
262.486006
 30
0.0
 10
82.786221
 20
262.323308
 30
0.0
 10
83.203221
 20
262.061205
 30
0.0
 10
83.551221
 20
261.712909
 30
0.0
 10
83.813222
 20
261.295709
 30
0.0
 10
83.976222
 20
260.830708
 30
0.0
 10
84.031221
 20
260.341208
 30
0.0
 10
83.976222
 20
259.851710
 30
0.0
 10
83.813222
 20
259.386707
 30
0.0
 10
83.551221
 20
258.969509
 30
0.0
 10
83.203221
 20
258.621210
 30
0.0
 10
82.786221
 20
258.359110
 30
0.0
 10
82.321223
 20
258.196409
 30
0.0
 10
81.831220
 20
258.141209
 30
0.0
 10
81.341220
 20
258.196409
 30
0.0
 10
80.876223
 20
258.359110
 30
0.0
 10
80.459222
 20
258.621210
 30
0.0
 10
80.111223
 20
258.969509
 30
0.0
 10
79.849222
 20
259.386707
 30
0.0
 10
79.686221
 20
259.851710
 30
0.0
 10
79.631222
 20
260.341208
 30
0.0
 10
79.686221
 20
260.830708
 30
0.0
 10
79.686221
 20
260.830708
 30
0.0
 10
79.686221
 20
260.830708
 30
0.0
  0
LWPOLYLINE
  5
106
100
AcDbEntity
  8
0
 62
7
100
AcDbPolyline
 90
31
 70
1
 10
123.946221
 20
8.131227
 30
0.0
 10
124.109221
 20
8.596217
 30
0.0
 10
124.371222
 20
9.013228
 30
0.0
 10
124.719222
 20
9.361237
 30
0.0
 10
125.136222
 20
9.623223
 30
0.0
 10
125.601223
 20
9.786235
 30
0.0
 10
126.091223
 20
9.841212
 30
0.0
 10
126.581222
 20
9.786235
 30
0.0
 10
127.046223
 20
9.623223
 30
0.0
 10
127.463221
 20
9.361237
 30
0.0
 10
127.811223
 20
9.013228
 30
0.0
 10
128.073221
 20
8.596217
 30
0.0
 10
128.236222
 20
8.131227
 30
0.0
 10
128.291221
 20
7.641233
 30
0.0
 10
128.236222
 20
7.151211
 30
0.0
 10
128.073221
 20
6.686221
 30
0.0
 10
127.811223
 20
6.269210
 30
0.0
 10
127.463221
 20
5.921230
 30
0.0
 10
127.046223
 20
5.659215
 30
0.0
 10
126.581222
 20
5.496231
 30
0.0
 10
126.091223
 20
5.441226
 30
0.0
 10
125.601223
 20
5.496231
 30
0.0
 10
125.136222
 20
5.659215
 30
0.0
 10
124.719222
 20
5.921230
 30
0.0
 10
124.371222
 20
6.269210
 30
0.0
 10
124.109221
 20
6.686221
 30
0.0
 10
123.946221
 20
7.151211
 30
0.0
 10
123.891221
 20
7.641233
 30
0.0
 10
123.946221
 20
8.131227
 30
0.0
 10
123.946221
 20
8.131227
 30
0.0
 10
123.946221
 20
8.131227
 30
0.0
  0
LWPOLYLINE
  5
107
100
AcDbEntity
  8
0
 62
7
100
AcDbPolyline
 90
31
 70
1
 10
123.946221
 20
412.131210
 30
0.0
 10
124.109221
 20
412.596205
 30
0.0
 10
124.371222
 20
413.013208
 30
0.0
 10
124.719222
 20
413.361205
 30
0.0
 10
125.136222
 20
413.623206
 30
0.0
 10
125.601223
 20
413.786209
 30
0.0
 10
126.091223
 20
413.841203
 30
0.0
 10
126.581222
 20
413.786209
 30
0.0
 10
127.046223
 20
413.623206
 30
0.0
 10
127.463221
 20
413.361205
 30
0.0
 10
127.811223
 20
413.013208
 30
0.0
 10
128.073221
 20
412.596205
 30
0.0
 10
128.236222
 20
412.131210
 30
0.0
 10
128.291221
 20
411.641210
 30
0.0
 10
128.236222
 20
411.151210
 30
0.0
 10
128.073221
 20
410.686204
 30
0.0
 10
127.811223
 20
410.269206
 30
0.0
 10
127.463221
 20
409.921206
 30
0.0
 10
127.046223
 20
409.659203
 30
0.0
 10
126.581222
 20
409.496208
 30
0.0
 10
126.091223
 20
409.441209
 30
0.0
 10
125.601223
 20
409.496208
 30
0.0
 10
125.136222
 20
409.659203
 30
0.0
 10
124.719222
 20
409.921206
 30
0.0
 10
124.371222
 20
410.269206
 30
0.0
 10
124.109221
 20
410.686204
 30
0.0
 10
123.946221
 20
411.151210
 30
0.0
 10
123.891221
 20
411.641210
 30
0.0
 10
123.946221
 20
412.131210
 30
0.0
 10
123.946221
 20
412.131210
 30
0.0
 10
123.946221
 20
412.131210
 30
0.0
  0
LWPOLYLINE
  5
108
100
AcDbEntity
  8
0
 62
7
100
AcDbPolyline
 90
31
 70
1
 10
154.046420
 20
8.131227
 30
0.0
 10
154.209121
 20
8.596217
 30
0.0
 10
154.471221
 20
9.013228
 30
0.0
 10
154.819523
 20
9.361237
 30
0.0
 10
155.236721
 20
9.623223
 30
0.0
 10
155.701721
 20
9.786235
 30
0.0
 10
156.191222
 20
9.841212
 30
0.0
 10
156.680722
 20
9.786235
 30
0.0
 10
157.145723
 20
9.623223
 30
0.0
 10
157.562920
 20
9.361237
 30
0.0
 10
157.911222
 20
9.013228
 30
0.0
 10
158.173322
 20
8.596217
 30
0.0
 10
158.336023
 20
8.131227
 30
0.0
 10
158.391223
 20
7.641233
 30
0.0
 10
158.336023
 20
7.151211
 30
0.0
 10
158.173322
 20
6.686221
 30
0.0
 10
157.911222
 20
6.269210
 30
0.0
 10
157.562920
 20
5.921230
 30
0.0
 10
157.145723
 20
5.659215
 30
0.0
 10
156.680722
 20
5.496231
 30
0.0
 10
156.191222
 20
5.441226
 30
0.0
 10
155.701721
 20
5.496231
 30
0.0
 10
155.236721
 20
5.659215
 30
0.0
 10
154.819523
 20
5.921230
 30
0.0
 10
154.471221
 20
6.269210
 30
0.0
 10
154.209121
 20
6.686221
 30
0.0
 10
154.046420
 20
7.151211
 30
0.0
 10
153.991220
 20
7.641233
 30
0.0
 10
154.046420
 20
8.131227
 30
0.0
 10
154.046420
 20
8.131227
 30
0.0
 10
154.046420
 20
8.131227
 30
0.0
  0
LWPOLYLINE
  5
109
100
AcDbEntity
  8
0
 62
7
100
AcDbPolyline
 90
31
 70
1
 10
154.046420
 20
412.131210
 30
0.0
 10
154.209121
 20
412.596205
 30
0.0
 10
154.471221
 20
413.013208
 30
0.0
 10
154.819523
 20
413.361205
 30
0.0
 10
155.236721
 20
413.623206
 30
0.0
 10
155.701721
 20
413.786209
 30
0.0
 10
156.191222
 20
413.841203
 30
0.0
 10
156.680722
 20
413.786209
 30
0.0
 10
157.145723
 20
413.623206
 30
0.0
 10
157.562920
 20
413.361205
 30
0.0
 10
157.911222
 20
413.013208
 30
0.0
 10
158.173322
 20
412.596205
 30
0.0
 10
158.336023
 20
412.131210
 30
0.0
 10
158.391223
 20
411.641210
 30
0.0
 10
158.336023
 20
411.151210
 30
0.0
 10
158.173322
 20
410.686204
 30
0.0
 10
157.911222
 20
410.269206
 30
0.0
 10
157.562920
 20
409.921206
 30
0.0
 10
157.145723
 20
409.659203
 30
0.0
 10
156.680722
 20
409.496208
 30
0.0
 10
156.191222
 20
409.441209
 30
0.0
 10
155.701721
 20
409.496208
 30
0.0
 10
155.236721
 20
409.659203
 30
0.0
 10
154.819523
 20
409.921206
 30
0.0
 10
154.471221
 20
410.269206
 30
0.0
 10
154.209121
 20
410.686204
 30
0.0
 10
154.046420
 20
411.151210
 30
0.0
 10
153.991220
 20
411.641210
 30
0.0
 10
154.046420
 20
412.131210
 30
0.0
 10
154.046420
 20
412.131210
 30
0.0
 10
154.046420
 20
412.131210
 30
0.0
  0
LWPOLYLINE
  5
10a
100
AcDbEntity
  8
0
 62
7
100
AcDbPolyline
 90
33
 70
1
 10
191.931223
 20
406.691210
 30
0.0
 10
191.986423
 20
407.181210
 30
0.0
 10
192.149121
 20
407.646205
 30
0.0
 10
192.411221
 20
408.063208
 30
0.0
 10
192.759523
 20
408.411207
 30
0.0
 10
193.176720
 20
408.673206
 30
0.0
 10
193.641721
 20
408.836209
 30
0.0
 10
194.131221
 20
408.891205
 30
0.0
 10
194.620722
 20
408.836209
 30
0.0
 10
195.085722
 20
408.673206
 30
0.0
 10
195.502923
 20
408.411207
 30
0.0
 10
195.851222
 20
408.063208
 30
0.0
 10
196.113322
 20
407.646205
 30
0.0
 10
196.276023
 20
407.181210
 30
0.0
 10
196.331223
 20
406.691210
 30
0.0
 10
196.331223
 20
396.691207
 30
0.0
 10
196.276023
 20
396.201207
 30
0.0
 10
196.113322
 20
395.736210
 30
0.0
 10
195.851222
 20
395.319204
 30
0.0
 10
195.502923
 20
394.971210
 30
0.0
 10
195.085722
 20
394.709209
 30
0.0
 10
194.620722
 20
394.546203
 30
0.0
 10
194.131221
 20
394.491209
 30
0.0
 10
193.641721
 20
394.546203
 30
0.0
 10
193.176720
 20
394.709209
 30
0.0
 10
192.759523
 20
394.971210
 30
0.0
 10
192.411221
 20
395.319204
 30
0.0
 10
192.149121
 20
395.736210
 30
0.0
 10
191.986423
 20
396.201207
 30
0.0
 10
191.931223
 20
396.691207
 30
0.0
 10
191.931223
 20
406.691210
 30
0.0
 10
191.931223
 20
406.691210
 30
0.0
 10
191.931223
 20
406.691210
 30
0.0
  0
LWPOLYLINE
  5
10b
100
AcDbEntity
  8
0
 62
7
100
AcDbPolyline
 90
31
 70
1
 10
202.286422
 20
308.130706
 30
0.0
 10
202.449123
 20
308.595707
 30
0.0
 10
202.711223
 20
309.012905
 30
0.0
 10
203.059522
 20
309.361206
 30
0.0
 10
203.476722
 20
309.623306
 30
0.0
 10
203.941723
 20
309.786205
 30
0.0
 10
204.431221
 20
309.841204
 30
0.0
 10
204.920721
 20
309.786205
 30
0.0
 10
205.385722
 20
309.623306
 30
0.0
 10
205.802922
 20
309.361206
 30
0.0
 10
206.151221
 20
309.012905
 30
0.0
 10
206.413321
 20
308.595707
 30
0.0
 10
206.576022
 20
308.130706
 30
0.0
 10
206.631222
 20
307.641206
 30
0.0
 10
206.576022
 20
307.151706
 30
0.0
 10
206.413321
 20
306.686705
 30
0.0
 10
206.151221
 20
306.269504
 30
0.0
 10
205.802922
 20
305.921205
 30
0.0
 10
205.385722
 20
305.659106
 30
0.0
 10
204.920721
 20
305.496405
 30
0.0
 10
204.431221
 20
305.441205
 30
0.0
 10
203.941723
 20
305.496405
 30
0.0
 10
203.476722
 20
305.659106
 30
0.0
 10
203.059522
 20
305.921205
 30
0.0
 10
202.711223
 20
306.269504
 30
0.0
 10
202.449123
 20
306.686705
 30
0.0
 10
202.286422
 20
307.151706
 30
0.0
 10
202.231222
 20
307.641206
 30
0.0
 10
202.286422
 20
308.130706
 30
0.0
 10
202.286422
 20
308.130706
 30
0.0
 10
202.286422
 20
308.130706
 30
0.0
  0
LWPOLYLINE
  5
10c
100
AcDbEntity
  8
0
 62
7
100
AcDbPolyline
 90
31
 70
1
 10
210.486423
 20
8.081218
 30
0.0
 10
210.649121
 20
8.546235
 30
0.0
 10
210.911221
 20
8.963219
 30
0.0
 10
211.259522
 20
9.311227
 30
0.0
 10
211.676723
 20
9.573214
 30
0.0
 10
212.141721
 20
9.736225
 30
0.0
 10
212.631221
 20
9.791230
 30
0.0
 10
213.120721
 20
9.736225
 30
0.0
 10
213.585722
 20
9.573214
 30
0.0
 10
214.002923
 20
9.311227
 30
0.0
 10
214.351222
 20
8.963219
 30
0.0
 10
214.613321
 20
8.546235
 30
0.0
 10
214.776022
 20
8.081218
 30
0.0
 10
214.831222
 20
7.591223
 30
0.0
 10
214.776022
 20
7.101229
 30
0.0
 10
214.613321
 20
6.636212
 30
0.0
 10
214.351222
 20
6.219228
 30
0.0
 10
214.002923
 20
5.871220
 30
0.0
 10
213.585722
 20
5.609233
 30
0.0
 10
213.120721
 20
5.446222
 30
0.0
 10
212.631221
 20
5.391217
 30
0.0
 10
212.141721
 20
5.446222
 30
0.0
 10
211.676723
 20
5.609233
 30
0.0
 10
211.259522
 20
5.871220
 30
0.0
 10
210.911221
 20
6.219228
 30
0.0
 10
210.649121
 20
6.636212
 30
0.0
 10
210.486423
 20
7.101229
 30
0.0
 10
210.431223
 20
7.591223
 30
0.0
 10
210.486423
 20
8.081218
 30
0.0
 10
210.486423
 20
8.081218
 30
0.0
 10
210.486423
 20
8.081218
 30
0.0
  0
LWPOLYLINE
  5
10d
100
AcDbEntity
  8
0
 62
7
100
AcDbPolyline
 90
31
 70
1
 10
210.486423
 20
69.181214
 30
0.0
 10
210.649121
 20
69.646200
 30
0.0
 10
210.911221
 20
70.063215
 30
0.0
 10
211.259522
 20
70.411195
 30
0.0
 10
211.676723
 20
70.673210
 30
0.0
 10
212.141721
 20
70.836222
 30
0.0
 10
212.631221
 20
70.891196
 30
0.0
 10
213.120721
 20
70.836222
 30
0.0
 10
213.585722
 20
70.673210
 30
0.0
 10
214.002923
 20
70.411195
 30
0.0
 10
214.351222
 20
70.063215
 30
0.0
 10
214.613321
 20
69.646200
 30
0.0
 10
214.776022
 20
69.181214
 30
0.0
 10
214.831222
 20
68.691220
 30
0.0
 10
214.776022
 20
68.201194
 30
0.0
 10
214.613321
 20
67.736208
 30
0.0
 10
214.351222
 20
67.319194
 30
0.0
 10
214.002923
 20
66.971214
 30
0.0
 10
213.585722
 20
66.709198
 30
0.0
 10
213.120721
 20
66.546218
 30
0.0
 10
212.631221
 20
66.491213
 30
0.0
 10
212.141721
 20
66.546218
 30
0.0
 10
211.676723
 20
66.709198
 30
0.0
 10
211.259522
 20
66.971214
 30
0.0
 10
210.911221
 20
67.319194
 30
0.0
 10
210.649121
 20
67.736208
 30
0.0
 10
210.486423
 20
68.201194
 30
0.0
 10
210.431223
 20
68.691220
 30
0.0
 10
210.486423
 20
69.181214
 30
0.0
 10
210.486423
 20
69.181214
 30
0.0
 10
210.486423
 20
69.181214
 30
0.0
  0
LWPOLYLINE
  5
10e
100
AcDbEntity
  8
0
 62
7
100
AcDbPolyline
 90
31
 70
1
 10
240.486382
 20
8.081218
 30
0.0
 10
240.649092
 20
8.546235
 30
0.0
 10
240.911192
 20
8.963219
 30
0.0
 10
241.259541
 20
9.311227
 30
0.0
 10
241.676671
 20
9.573214
 30
0.0
 10
242.141672
 20
9.736225
 30
0.0
 10
242.631223
 20
9.791230
 30
0.0
 10
243.120721
 20
9.736225
 30
0.0
 10
243.585721
 20
9.573214
 30
0.0
 10
244.002922
 20
9.311227
 30
0.0
 10
244.351221
 20
8.963219
 30
0.0
 10
244.613321
 20
8.546235
 30
0.0
 10
244.776022
 20
8.081218
 30
0.0
 10
244.831222
 20
7.591223
 30
0.0
 10
244.776022
 20
7.101229
 30
0.0
 10
244.613321
 20
6.636212
 30
0.0
 10
244.351221
 20
6.219228
 30
0.0
 10
244.002922
 20
5.871220
 30
0.0
 10
243.585721
 20
5.609233
 30
0.0
 10
243.120721
 20
5.446222
 30
0.0
 10
242.631223
 20
5.391217
 30
0.0
 10
242.141672
 20
5.446222
 30
0.0
 10
241.676671
 20
5.609233
 30
0.0
 10
241.259541
 20
5.871220
 30
0.0
 10
240.911192
 20
6.219228
 30
0.0
 10
240.649092
 20
6.636212
 30
0.0
 10
240.486382
 20
7.101229
 30
0.0
 10
240.431222
 20
7.591223
 30
0.0
 10
240.486382
 20
8.081218
 30
0.0
 10
240.486382
 20
8.081218
 30
0.0
 10
240.486382
 20
8.081218
 30
0.0
  0
LWPOLYLINE
  5
10f
100
AcDbEntity
  8
0
 62
7
100
AcDbPolyline
 90
31
 70
1
 10
240.486382
 20
69.181214
 30
0.0
 10
240.649092
 20
69.646200
 30
0.0
 10
240.911192
 20
70.063215
 30
0.0
 10
241.259541
 20
70.411195
 30
0.0
 10
241.676671
 20
70.673210
 30
0.0
 10
242.141672
 20
70.836222
 30
0.0
 10
242.631223
 20
70.891196
 30
0.0
 10
243.120721
 20
70.836222
 30
0.0
 10
243.585721
 20
70.673210
 30
0.0
 10
244.002922
 20
70.411195
 30
0.0
 10
244.351221
 20
70.063215
 30
0.0
 10
244.613321
 20
69.646200
 30
0.0
 10
244.776022
 20
69.181214
 30
0.0
 10
244.831222
 20
68.691220
 30
0.0
 10
244.776022
 20
68.201194
 30
0.0
 10
244.613321
 20
67.736208
 30
0.0
 10
244.351221
 20
67.319194
 30
0.0
 10
244.002922
 20
66.971214
 30
0.0
 10
243.585721
 20
66.709198
 30
0.0
 10
243.120721
 20
66.546218
 30
0.0
 10
242.631223
 20
66.491213
 30
0.0
 10
242.141672
 20
66.546218
 30
0.0
 10
241.676671
 20
66.709198
 30
0.0
 10
241.259541
 20
66.971214
 30
0.0
 10
240.911192
 20
67.319194
 30
0.0
 10
240.649092
 20
67.736208
 30
0.0
 10
240.486382
 20
68.201194
 30
0.0
 10
240.431222
 20
68.691220
 30
0.0
 10
240.486382
 20
69.181214
 30
0.0
 10
240.486382
 20
69.181214
 30
0.0
 10
240.486382
 20
69.181214
 30
0.0
  0
LWPOLYLINE
  5
110
100
AcDbEntity
  8
0
 62
7
100
AcDbPolyline
 90
31
 70
1
 10
244.706423
 20
308.130706
 30
0.0
 10
244.869121
 20
308.595707
 30
0.0
 10
245.131221
 20
309.012905
 30
0.0
 10
245.479523
 20
309.361206
 30
0.0
 10
245.896723
 20
309.623306
 30
0.0
 10
246.361721
 20
309.786205
 30
0.0
 10
246.851222
 20
309.841204
 30
0.0
 10
247.340722
 20
309.786205
 30
0.0
 10
247.805722
 20
309.623306
 30
0.0
 10
248.222923
 20
309.361206
 30
0.0
 10
248.571222
 20
309.012905
 30
0.0
 10
248.833322
 20
308.595707
 30
0.0
 10
248.996023
 20
308.130706
 30
0.0
 10
249.051223
 20
307.641206
 30
0.0
 10
248.996023
 20
307.151706
 30
0.0
 10
248.833322
 20
306.686705
 30
0.0
 10
248.571222
 20
306.269504
 30
0.0
 10
248.222923
 20
305.921205
 30
0.0
 10
247.805722
 20
305.659106
 30
0.0
 10
247.340722
 20
305.496405
 30
0.0
 10
246.851222
 20
305.441205
 30
0.0
 10
246.361721
 20
305.496405
 30
0.0
 10
245.896723
 20
305.659106
 30
0.0
 10
245.479523
 20
305.921205
 30
0.0
 10
245.131221
 20
306.269504
 30
0.0
 10
244.869121
 20
306.686705
 30
0.0
 10
244.706423
 20
307.151706
 30
0.0
 10
244.651223
 20
307.641206
 30
0.0
 10
244.706423
 20
308.130706
 30
0.0
 10
244.706423
 20
308.130706
 30
0.0
 10
244.706423
 20
308.130706
 30
0.0
  0
LWPOLYLINE
  5
111
100
AcDbEntity
  8
0
 62
7
100
AcDbPolyline
 90
22
 70
1
 10
108.307263
 20
219.894233
 30
0.0
 10
108.505662
 20
220.346232
 30
0.0
 10
108.840065
 20
220.710237
 30
0.0
 10
109.274362
 20
220.945235
 30
0.0
 10
109.761362
 20
221.026232
 30
0.0
 10
110.248464
 20
220.945235
 30
0.0
 10
110.682663
 20
220.710237
 30
0.0
 10
111.017164
 20
220.346232
 30
0.0
 10
111.215464
 20
219.894233
 30
0.0
 10
111.256262
 20
219.402235
 30
0.0
 10
111.135065
 20
218.923237
 30
0.0
 10
110.864964
 20
218.510235
 30
0.0
 10
110.475263
 20
218.207230
 30
0.0
 10
110.008264
 20
218.046234
 30
0.0
 10
109.514463
 20
218.046234
 30
0.0
 10
109.047464
 20
218.207230
 30
0.0
 10
108.657763
 20
218.510235
 30
0.0
 10
108.387662
 20
218.923237
 30
0.0
 10
108.266465
 20
219.402235
 30
0.0
 10
108.307263
 20
219.894233
 30
0.0
 10
108.307263
 20
219.894233
 30
0.0
 10
108.307263
 20
219.894233
 30
0.0
  0
LWPOLYLINE
  5
112
100
AcDbEntity
  8
0
 62
7
100
AcDbPolyline
 90
22
 70
1
 10
108.138539
 20
225.694230
 30
0.0
 10
108.336939
 20
226.146235
 30
0.0
 10
108.671341
 20
226.510236
 30
0.0
 10
109.105639
 20
226.745234
 30
0.0
 10
109.592638
 20
226.826232
 30
0.0
 10
110.079740
 20
226.745234
 30
0.0
 10
110.513939
 20
226.510236
 30
0.0
 10
110.848440
 20
226.146235
 30
0.0
 10
111.046740
 20
225.694230
 30
0.0
 10
111.087539
 20
225.202235
 30
0.0
 10
110.966341
 20
224.723233
 30
0.0
 10
110.696240
 20
224.310235
 30
0.0
 10
110.306539
 20
224.007233
 30
0.0
 10
109.839541
 20
223.846236
 30
0.0
 10
109.345739
 20
223.846236
 30
0.0
 10
108.878740
 20
224.007233
 30
0.0
 10
108.489040
 20
224.310235
 30
0.0
 10
108.218939
 20
224.723233
 30
0.0
 10
108.097741
 20
225.202235
 30
0.0
 10
108.138539
 20
225.694230
 30
0.0
 10
108.138539
 20
225.694230
 30
0.0
 10
108.138539
 20
225.694230
 30
0.0
  0
LWPOLYLINE
  5
113
100
AcDbEntity
  8
0
 62
7
100
AcDbPolyline
 90
22
 70
1
 10
253.517522
 20
351.944208
 30
0.0
 10
253.787623
 20
352.357206
 30
0.0
 10
254.177321
 20
352.660206
 30
0.0
 10
254.644323
 20
352.821208
 30
0.0
 10
255.138121
 20
352.821208
 30
0.0
 10
255.605123
 20
352.660206
 30
0.0
 10
255.994821
 20
352.357206
 30
0.0
 10
256.264922
 20
351.944208
 30
0.0
 10
256.386122
 20
351.465206
 30
0.0
 10
256.345321
 20
350.973203
 30
0.0
 10
256.146922
 20
350.521210
 30
0.0
 10
255.812522
 20
350.157208
 30
0.0
 10
255.378222
 20
349.922210
 30
0.0
 10
254.891222
 20
349.841204
 30
0.0
 10
254.404123
 20
349.922210
 30
0.0
 10
253.969921
 20
350.157208
 30
0.0
 10
253.635423
 20
350.521210
 30
0.0
 10
253.437123
 20
350.973203
 30
0.0
 10
253.396322
 20
351.465206
 30
0.0
 10
253.517522
 20
351.944208
 30
0.0
 10
253.517522
 20
351.944208
 30
0.0
 10
253.517522
 20
351.944208
 30
0.0
  0
LWPOLYLINE
  5
114
100
AcDbEntity
  8
0
 62
7
100
AcDbPolyline
 90
22
 70
1
 10
253.517522
 20
360.544208
 30
0.0
 10
253.787623
 20
360.957209
 30
0.0
 10
254.177321
 20
361.260203
 30
0.0
 10
254.644323
 20
361.421205
 30
0.0
 10
255.138121
 20
361.421205
 30
0.0
 10
255.605123
 20
361.260203
 30
0.0
 10
255.994821
 20
360.957209
 30
0.0
 10
256.264922
 20
360.544208
 30
0.0
 10
256.386122
 20
360.065209
 30
0.0
 10
256.345321
 20
359.573208
 30
0.0
 10
256.146922
 20
359.121204
 30
0.0
 10
255.812522
 20
358.757208
 30
0.0
 10
255.378222
 20
358.522210
 30
0.0
 10
254.891222
 20
358.441206
 30
0.0
 10
254.404123
 20
358.522210
 30
0.0
 10
253.969921
 20
358.757208
 30
0.0
 10
253.635423
 20
359.121204
 30
0.0
 10
253.437123
 20
359.573208
 30
0.0
 10
253.396322
 20
360.065209
 30
0.0
 10
253.517522
 20
360.544208
 30
0.0
 10
253.517522
 20
360.544208
 30
0.0
 10
253.517522
 20
360.544208
 30
0.0
  0
LWPOLYLINE
  5
115
100
AcDbEntity
  8
0
 62
7
100
AcDbPolyline
 90
31
 70
1
 10
292.946436
 20
76.131216
 30
0.0
 10
293.109109
 20
76.596208
 30
0.0
 10
293.371237
 20
77.013216
 30
0.0
 10
293.719527
 20
77.361194
 30
0.0
 10
294.136708
 20
77.623212
 30
0.0
 10
294.601726
 20
77.786198
 30
0.0
 10
295.091212
 20
77.841203
 30
0.0
 10
295.580726
 20
77.786198
 30
0.0
 10
296.045716
 20
77.623212
 30
0.0
 10
296.462925
 20
77.361194
 30
0.0
 10
296.811215
 20
77.013216
 30
0.0
 10
297.073315
 20
76.596208
 30
0.0
 10
297.236016
 20
76.131216
 30
0.0
 10
297.291219
 20
75.641193
 30
0.0
 10
297.236016
 20
75.151202
 30
0.0
 10
297.073315
 20
74.686210
 30
0.0
 10
296.811215
 20
74.269201
 30
0.0
 10
296.462925
 20
73.921221
 30
0.0
 10
296.045716
 20
73.659206
 30
0.0
 10
295.580726
 20
73.496220
 30
0.0
 10
295.091212
 20
73.441214
 30
0.0
 10
294.601726
 20
73.496220
 30
0.0
 10
294.136708
 20
73.659206
 30
0.0
 10
293.719527
 20
73.921221
 30
0.0
 10
293.371237
 20
74.269201
 30
0.0
 10
293.109109
 20
74.686210
 30
0.0
 10
292.946436
 20
75.151202
 30
0.0
 10
292.891233
 20
75.641193
 30
0.0
 10
292.946436
 20
76.131216
 30
0.0
 10
292.946436
 20
76.131216
 30
0.0
 10
292.946436
 20
76.131216
 30
0.0
  0
LWPOLYLINE
  5
116
100
AcDbEntity
  8
0
 62
7
100
AcDbPolyline
 90
31
 70
1
 10
292.946436
 20
333.131210
 30
0.0
 10
293.109109
 20
333.596205
 30
0.0
 10
293.371237
 20
334.013208
 30
0.0
 10
293.719527
 20
334.361205
 30
0.0
 10
294.136708
 20
334.623206
 30
0.0
 10
294.601726
 20
334.786209
 30
0.0
 10
295.091212
 20
334.841203
 30
0.0
 10
295.580726
 20
334.786209
 30
0.0
 10
296.045716
 20
334.623206
 30
0.0
 10
296.462925
 20
334.361205
 30
0.0
 10
296.811215
 20
334.013208
 30
0.0
 10
297.073315
 20
333.596205
 30
0.0
 10
297.236016
 20
333.131210
 30
0.0
 10
297.291219
 20
332.641210
 30
0.0
 10
297.236016
 20
332.151210
 30
0.0
 10
297.073315
 20
331.686204
 30
0.0
 10
296.811215
 20
331.269206
 30
0.0
 10
296.462925
 20
330.921206
 30
0.0
 10
296.045716
 20
330.659203
 30
0.0
 10
295.580726
 20
330.496208
 30
0.0
 10
295.091212
 20
330.441206
 30
0.0
 10
294.601726
 20
330.496208
 30
0.0
 10
294.136708
 20
330.659203
 30
0.0
 10
293.719527
 20
330.921206
 30
0.0
 10
293.371237
 20
331.269206
 30
0.0
 10
293.109109
 20
331.686204
 30
0.0
 10
292.946436
 20
332.151210
 30
0.0
 10
292.891233
 20
332.641210
 30
0.0
 10
292.946436
 20
333.131210
 30
0.0
 10
292.946436
 20
333.131210
 30
0.0
 10
292.946436
 20
333.131210
 30
0.0
  0
LWPOLYLINE
  5
117
100
AcDbEntity
  8
0
 62
7
100
AcDbPolyline
 90
31
 70
1
 10
323.046424
 20
76.131216
 30
0.0
 10
323.209125
 20
76.596208
 30
0.0
 10
323.471225
 20
77.013216
 30
0.0
 10
323.819515
 20
77.361194
 30
0.0
 10
324.236724
 20
77.623212
 30
0.0
 10
324.701714
 20
77.786198
 30
0.0
 10
325.191228
 20
77.841203
 30
0.0
 10
325.680714
 20
77.786198
 30
0.0
 10
326.145732
 20
77.623212
 30
0.0
 10
326.562913
 20
77.361194
 30
0.0
 10
326.911231
 20
77.013216
 30
0.0
 10
327.173331
 20
76.596208
 30
0.0
 10
327.336032
 20
76.131216
 30
0.0
 10
327.391235
 20
75.641193
 30
0.0
 10
327.336032
 20
75.151202
 30
0.0
 10
327.173331
 20
74.686210
 30
0.0
 10
326.911231
 20
74.269201
 30
0.0
 10
326.562913
 20
73.921221
 30
0.0
 10
326.145732
 20
73.659206
 30
0.0
 10
325.680714
 20
73.496220
 30
0.0
 10
325.191228
 20
73.441214
 30
0.0
 10
324.701714
 20
73.496220
 30
0.0
 10
324.236724
 20
73.659206
 30
0.0
 10
323.819515
 20
73.921221
 30
0.0
 10
323.471225
 20
74.269201
 30
0.0
 10
323.209125
 20
74.686210
 30
0.0
 10
323.046424
 20
75.151202
 30
0.0
 10
322.991221
 20
75.641193
 30
0.0
 10
323.046424
 20
76.131216
 30
0.0
 10
323.046424
 20
76.131216
 30
0.0
 10
323.046424
 20
76.131216
 30
0.0
  0
LWPOLYLINE
  5
118
100
AcDbEntity
  8
0
 62
7
100
AcDbPolyline
 90
31
 70
1
 10
323.046424
 20
333.131210
 30
0.0
 10
323.209125
 20
333.596205
 30
0.0
 10
323.471225
 20
334.013208
 30
0.0
 10
323.819515
 20
334.361205
 30
0.0
 10
324.236724
 20
334.623206
 30
0.0
 10
324.701714
 20
334.786209
 30
0.0
 10
325.191228
 20
334.841203
 30
0.0
 10
325.680714
 20
334.786209
 30
0.0
 10
326.145732
 20
334.623206
 30
0.0
 10
326.562913
 20
334.361205
 30
0.0
 10
326.911231
 20
334.013208
 30
0.0
 10
327.173331
 20
333.596205
 30
0.0
 10
327.336032
 20
333.131210
 30
0.0
 10
327.391235
 20
332.641210
 30
0.0
 10
327.336032
 20
332.151210
 30
0.0
 10
327.173331
 20
331.686204
 30
0.0
 10
326.911231
 20
331.269206
 30
0.0
 10
326.562913
 20
330.921206
 30
0.0
 10
326.145732
 20
330.659203
 30
0.0
 10
325.680714
 20
330.496208
 30
0.0
 10
325.191228
 20
330.441206
 30
0.0
 10
324.701714
 20
330.496208
 30
0.0
 10
324.236724
 20
330.659203
 30
0.0
 10
323.819515
 20
330.921206
 30
0.0
 10
323.471225
 20
331.269206
 30
0.0
 10
323.209125
 20
331.686204
 30
0.0
 10
323.046424
 20
332.151210
 30
0.0
 10
322.991221
 20
332.641210
 30
0.0
 10
323.046424
 20
333.131210
 30
0.0
 10
323.046424
 20
333.131210
 30
0.0
 10
323.046424
 20
333.131210
 30
0.0
  0
LWPOLYLINE
  5
119
100
AcDbEntity
  8
0
 62
7
100
AcDbPolyline
 90
22
 70
1
 10
331.661737
 20
97.388193
 30
0.0
 10
331.822011
 20
97.855218
 30
0.0
 10
332.125315
 20
98.245218
 30
0.0
 10
332.538234
 20
98.515220
 30
0.0
 10
333.017222
 20
98.636211
 30
0.0
 10
333.509220
 20
98.595201
 30
0.0
 10
333.961227
 20
98.397197
 30
0.0
 10
334.325209
 20
98.062196
 30
0.0
 10
334.560216
 20
97.628195
 30
0.0
 10
334.641213
 20
97.141190
 30
0.0
 10
334.560216
 20
96.654221
 30
0.0
 10
334.325209
 20
96.220220
 30
0.0
 10
333.961227
 20
95.885222
 30
0.0
 10
333.509220
 20
95.687215
 30
0.0
 10
333.017222
 20
95.646208
 30
0.0
 10
332.538234
 20
95.767194
 30
0.0
 10
332.125315
 20
96.037196
 30
0.0
 10
331.822011
 20
96.427196
 30
0.0
 10
331.661737
 20
96.894223
 30
0.0
 10
331.661737
 20
97.388193
 30
0.0
 10
331.661737
 20
97.388193
 30
0.0
 10
331.661737
 20
97.388193
 30
0.0
  0
LWPOLYLINE
  5
11a
100
AcDbEntity
  8
0
 62
7
100
AcDbPolyline
 90
22
 70
1
 10
331.661737
 20
265.288109
 30
0.0
 10
331.822011
 20
265.755108
 30
0.0
 10
332.125315
 20
266.144806
 30
0.0
 10
332.538234
 20
266.414906
 30
0.0
 10
333.017222
 20
266.536110
 30
0.0
 10
333.509220
 20
266.495309
 30
0.0
 10
333.961227
 20
266.296906
 30
0.0
 10
334.325209
 20
265.962510
 30
0.0
 10
334.560216
 20
265.528204
 30
0.0
 10
334.641213
 20
265.041207
 30
0.0
 10
334.560216
 20
264.554105
 30
0.0
 10
334.325209
 20
264.119909
 30
0.0
 10
333.961227
 20
263.785405
 30
0.0
 10
333.509220
 20
263.587105
 30
0.0
 10
333.017222
 20
263.546307
 30
0.0
 10
332.538234
 20
263.667510
 30
0.0
 10
332.125315
 20
263.937608
 30
0.0
 10
331.822011
 20
264.327309
 30
0.0
 10
331.661737
 20
264.794307
 30
0.0
 10
331.661737
 20
265.288109
 30
0.0
 10
331.661737
 20
265.288109
 30
0.0
 10
331.661737
 20
265.288109
 30
0.0
  0
LWPOLYLINE
  5
11b
100
AcDbEntity
  8
0
 62
7
100
AcDbPolyline
 90
22
 70
1
 10
337.461234
 20
97.388193
 30
0.0
 10
337.622214
 20
97.855218
 30
0.0
 10
337.925236
 20
98.245218
 30
0.0
 10
338.338212
 20
98.515220
 30
0.0
 10
338.817227
 20
98.636211
 30
0.0
 10
339.309225
 20
98.595201
 30
0.0
 10
339.761232
 20
98.397197
 30
0.0
 10
340.125214
 20
98.062196
 30
0.0
 10
340.360221
 20
97.628195
 30
0.0
 10
340.441219
 20
97.141190
 30
0.0
 10
340.360221
 20
96.654221
 30
0.0
 10
340.125214
 20
96.220220
 30
0.0
 10
339.761232
 20
95.885222
 30
0.0
 10
339.309225
 20
95.687215
 30
0.0
 10
338.817227
 20
95.646208
 30
0.0
 10
338.338212
 20
95.767194
 30
0.0
 10
337.925236
 20
96.037196
 30
0.0
 10
337.622214
 20
96.427196
 30
0.0
 10
337.461234
 20
96.894223
 30
0.0
 10
337.461234
 20
97.388193
 30
0.0
 10
337.461234
 20
97.388193
 30
0.0
 10
337.461234
 20
97.388193
 30
0.0
  0
LWPOLYLINE
  5
11c
100
AcDbEntity
  8
0
 62
7
100
AcDbPolyline
 90
22
 70
1
 10
337.461234
 20
265.288109
 30
0.0
 10
337.622214
 20
265.755108
 30
0.0
 10
337.925236
 20
266.144806
 30
0.0
 10
338.338212
 20
266.414906
 30
0.0
 10
338.817227
 20
266.536110
 30
0.0
 10
339.309225
 20
266.495309
 30
0.0
 10
339.761232
 20
266.296906
 30
0.0
 10
340.125214
 20
265.962510
 30
0.0
 10
340.360221
 20
265.528204
 30
0.0
 10
340.441219
 20
265.041207
 30
0.0
 10
340.360221
 20
264.554105
 30
0.0
 10
340.125214
 20
264.119909
 30
0.0
 10
339.761232
 20
263.785405
 30
0.0
 10
339.309225
 20
263.587105
 30
0.0
 10
338.817227
 20
263.546307
 30
0.0
 10
338.338212
 20
263.667510
 30
0.0
 10
337.925236
 20
263.937608
 30
0.0
 10
337.622214
 20
264.327309
 30
0.0
 10
337.461234
 20
264.794307
 30
0.0
 10
337.461234
 20
265.288109
 30
0.0
 10
337.461234
 20
265.288109
 30
0.0
 10
337.461234
 20
265.288109
 30
0.0
  0
LWPOLYLINE
  5
11d
100
AcDbEntity
  8
0
 62
7
100
AcDbPolyline
 90
22
 70
1
 10
342.922234
 20
92.628205
 30
0.0
 10
343.157212
 20
93.062206
 30
0.0
 10
343.521223
 20
93.397207
 30
0.0
 10
343.973230
 20
93.595211
 30
0.0
 10
344.465228
 20
93.636221
 30
0.0
 10
344.944215
 20
93.515201
 30
0.0
 10
345.357219
 20
93.245199
 30
0.0
 10
345.660213
 20
92.855194
 30
0.0
 10
345.821221
 20
92.388203
 30
0.0
 10
345.821221
 20
91.894202
 30
0.0
 10
345.660213
 20
91.427206
 30
0.0
 10
345.357219
 20
91.037206
 30
0.0
 10
344.944215
 20
90.767204
 30
0.0
 10
344.465228
 20
90.646218
 30
0.0
 10
343.973230
 20
90.687194
 30
0.0
 10
343.521223
 20
90.885204
 30
0.0
 10
343.157212
 20
91.220198
 30
0.0
 10
342.922234
 20
91.654203
 30
0.0
 10
342.841208
 20
92.141200
 30
0.0
 10
342.922234
 20
92.628205
 30
0.0
 10
342.922234
 20
92.628205
 30
0.0
 10
342.922234
 20
92.628205
 30
0.0
  0
LWPOLYLINE
  5
11e
100
AcDbEntity
  8
0
 62
7
100
AcDbPolyline
 90
22
 70
1
 10
342.922234
 20
260.528310
 30
0.0
 10
343.157212
 20
260.962509
 30
0.0
 10
343.521223
 20
261.297010
 30
0.0
 10
343.973230
 20
261.495305
 30
0.0
 10
344.465228
 20
261.536103
 30
0.0
 10
344.944215
 20
261.414908
 30
0.0
 10
345.357219
 20
261.144807
 30
0.0
 10
345.660213
 20
260.755109
 30
0.0
 10
345.821221
 20
260.288107
 30
0.0
 10
345.821221
 20
259.794309
 30
0.0
 10
345.660213
 20
259.327310
 30
0.0
 10
345.357219
 20
258.937606
 30
0.0
 10
344.944215
 20
258.667506
 30
0.0
 10
344.465228
 20
258.546308
 30
0.0
 10
343.973230
 20
258.587109
 30
0.0
 10
343.521223
 20
258.785506
 30
0.0
 10
343.157212
 20
259.119908
 30
0.0
 10
342.922234
 20
259.554208
 30
0.0
 10
342.841208
 20
260.041208
 30
0.0
 10
342.922234
 20
260.528310
 30
0.0
 10
342.922234
 20
260.528310
 30
0.0
 10
342.922234
 20
260.528310
 30
0.0
  0
LWPOLYLINE
  5
11f
100
AcDbEntity
  8
0
 62
7
100
AcDbPolyline
 90
22
 70
1
 10
348.722211
 20
92.628205
 30
0.0
 10
348.957218
 20
93.062206
 30
0.0
 10
349.321228
 20
93.397207
 30
0.0
 10
349.773235
 20
93.595211
 30
0.0
 10
350.265233
 20
93.636221
 30
0.0
 10
350.744221
 20
93.515201
 30
0.0
 10
351.157225
 20
93.245199
 30
0.0
 10
351.460218
 20
92.855194
 30
0.0
 10
351.621226
 20
92.388203
 30
0.0
 10
351.621226
 20
91.894202
 30
0.0
 10
351.460218
 20
91.427206
 30
0.0
 10
351.157225
 20
91.037206
 30
0.0
 10
350.744221
 20
90.767204
 30
0.0
 10
350.265233
 20
90.646218
 30
0.0
 10
349.773235
 20
90.687194
 30
0.0
 10
349.321228
 20
90.885204
 30
0.0
 10
348.957218
 20
91.220198
 30
0.0
 10
348.722211
 20
91.654203
 30
0.0
 10
348.641214
 20
92.141200
 30
0.0
 10
348.722211
 20
92.628205
 30
0.0
 10
348.722211
 20
92.628205
 30
0.0
 10
348.722211
 20
92.628205
 30
0.0
  0
LWPOLYLINE
  5
120
100
AcDbEntity
  8
0
 62
7
100
AcDbPolyline
 90
22
 70
1
 10
348.722211
 20
260.528310
 30
0.0
 10
348.957218
 20
260.962509
 30
0.0
 10
349.321228
 20
261.297010
 30
0.0
 10
349.773235
 20
261.495305
 30
0.0
 10
350.265233
 20
261.536103
 30
0.0
 10
350.744221
 20
261.414908
 30
0.0
 10
351.157225
 20
261.144807
 30
0.0
 10
351.460218
 20
260.755109
 30
0.0
 10
351.621226
 20
260.288107
 30
0.0
 10
351.621226
 20
259.794309
 30
0.0
 10
351.460218
 20
259.327310
 30
0.0
 10
351.157225
 20
258.937606
 30
0.0
 10
350.744221
 20
258.667506
 30
0.0
 10
350.265233
 20
258.546308
 30
0.0
 10
349.773235
 20
258.587109
 30
0.0
 10
349.321228
 20
258.785506
 30
0.0
 10
348.957218
 20
259.119908
 30
0.0
 10
348.722211
 20
259.554208
 30
0.0
 10
348.641214
 20
260.041208
 30
0.0
 10
348.722211
 20
260.528310
 30
0.0
 10
348.722211
 20
260.528310
 30
0.0
 10
348.722211
 20
260.528310
 30
0.0
  0
LWPOLYLINE
  5
121
100
AcDbEntity
  8
0
 62
7
100
AcDbPolyline
 90
31
 70
1
 10
357.746210
 20
19.941194
 30
0.0
 10
357.909222
 20
20.406215
 30
0.0
 10
358.171209
 20
20.823193
 30
0.0
 10
358.519217
 20
21.171204
 30
0.0
 10
358.936229
 20
21.433222
 30
0.0
 10
359.401218
 20
21.596205
 30
0.0
 10
359.891212
 20
21.651210
 30
0.0
 10
360.381235
 20
21.596205
 30
0.0
 10
360.846224
 20
21.433222
 30
0.0
 10
361.263207
 20
21.171204
 30
0.0
 10
361.611216
 20
20.823193
 30
0.0
 10
361.873231
 20
20.406215
 30
0.0
 10
362.036214
 20
19.941194
 30
0.0
 10
362.091219
 20
19.451203
 30
0.0
 10
362.036214
 20
18.961209
 30
0.0
 10
361.873231
 20
18.496220
 30
0.0
 10
361.611216
 20
18.079208
 30
0.0
 10
361.263207
 20
17.731200
 30
0.0
 10
360.846224
 20
17.469213
 30
0.0
 10
360.381235
 20
17.306198
 30
0.0
 10
359.891212
 20
17.251191
 30
0.0
 10
359.401218
 20
17.306198
 30
0.0
 10
358.936229
 20
17.469213
 30
0.0
 10
358.519217
 20
17.731200
 30
0.0
 10
358.171209
 20
18.079208
 30
0.0
 10
357.909222
 20
18.496220
 30
0.0
 10
357.746210
 20
18.961209
 30
0.0
 10
357.691234
 20
19.451203
 30
0.0
 10
357.746210
 20
19.941194
 30
0.0
 10
357.746210
 20
19.941194
 30
0.0
 10
357.746210
 20
19.941194
 30
0.0
  0
LWPOLYLINE
  5
122
100
AcDbEntity
  8
0
 62
7
100
AcDbPolyline
 90
31
 70
1
 10
357.746210
 20
400.321209
 30
0.0
 10
357.909222
 20
400.786209
 30
0.0
 10
358.171209
 20
401.203210
 30
0.0
 10
358.519217
 20
401.551207
 30
0.0
 10
358.936229
 20
401.813210
 30
0.0
 10
359.401218
 20
401.976208
 30
0.0
 10
359.891212
 20
402.031207
 30
0.0
 10
360.381235
 20
401.976208
 30
0.0
 10
360.846224
 20
401.813210
 30
0.0
 10
361.263207
 20
401.551207
 30
0.0
 10
361.611216
 20
401.203210
 30
0.0
 10
361.873231
 20
400.786209
 30
0.0
 10
362.036214
 20
400.321209
 30
0.0
 10
362.091219
 20
399.831209
 30
0.0
 10
362.036214
 20
399.341209
 30
0.0
 10
361.873231
 20
398.876208
 30
0.0
 10
361.611216
 20
398.459205
 30
0.0
 10
361.263207
 20
398.111206
 30
0.0
 10
360.846224
 20
397.849207
 30
0.0
 10
360.381235
 20
397.686210
 30
0.0
 10
359.891212
 20
397.631208
 30
0.0
 10
359.401218
 20
397.686210
 30
0.0
 10
358.936229
 20
397.849207
 30
0.0
 10
358.519217
 20
398.111206
 30
0.0
 10
358.171209
 20
398.459205
 30
0.0
 10
357.909222
 20
398.876208
 30
0.0
 10
357.746210
 20
399.341209
 30
0.0
 10
357.691234
 20
399.831209
 30
0.0
 10
357.746210
 20
400.321209
 30
0.0
 10
357.746210
 20
400.321209
 30
0.0
 10
357.746210
 20
400.321209
 30
0.0
  0
LWPOLYLINE
  5
123
100
AcDbEntity
  8
0
 62
7
100
AcDbPolyline
 90
54
 70
1
 10
386.649209
 20
209.887449
 30
0.0
 10
386.709210
 20
210.376202
 30
0.0
 10
386.829210
 20
210.853803
 30
0.0
 10
387.007236
 20
211.313035
 30
0.0
 10
387.240211
 20
211.746927
 30
0.0
 10
387.525227
 20
212.148896
 30
0.0
 10
387.856217
 20
212.512850
 30
0.0
 10
388.230218
 20
212.833285
 30
0.0
 10
388.641218
 20
213.105319
 30
0.0
 10
389.082219
 20
213.324831
 30
0.0
 10
389.546220
 20
213.488517
 30
0.0
 10
390.027212
 20
213.593874
 30
0.0
 10
390.518222
 20
213.639306
 30
0.0
 10
391.010220
 20
213.624066
 30
0.0
 10
391.497222
 20
213.548599
 30
0.0
 10
391.970227
 20
213.413813
 30
0.0
 10
392.424210
 20
213.221843
 30
0.0
 10
392.850224
 20
212.975604
 30
0.0
 10
393.243218
 20
212.678819
 30
0.0
 10
393.597210
 20
212.335978
 30
0.0
 10
393.906215
 20
211.952294
 30
0.0
 10
394.165210
 20
211.533564
 30
0.0
 10
394.371232
 20
211.086182
 30
0.0
 10
394.520218
 20
210.616847
 30
0.0
 10
394.611234
 20
210.132754
 30
0.0
 10
394.641206
 20
209.641205
 30
0.0
 10
394.611234
 20
209.149661
 30
0.0
 10
394.520218
 20
208.665537
 30
0.0
 10
394.371232
 20
208.196227
 30
0.0
 10
394.165210
 20
207.748823
 30
0.0
 10
393.906215
 20
207.330118
 30
0.0
 10
393.597210
 20
206.946437
 30
0.0
 10
393.243218
 20
206.603590
 30
0.0
 10
392.850224
 20
206.306805
 30
0.0
 10
392.424210
 20
206.060567
 30
0.0
 10
391.970227
 20
205.868571
 30
0.0
 10
391.497222
 20
205.733810
 30
0.0
 10
391.010220
 20
205.658259
 30
0.0
 10
390.518222
 20
205.643019
 30
0.0
 10
390.027212
 20
205.688544
 30
0.0
 10
389.546220
 20
205.793895
 30
0.0
 10
389.082219
 20
205.957584
 30
0.0
 10
388.641218
 20
206.177096
 30
0.0
 10
388.230218
 20
206.449133
 30
0.0
 10
387.856217
 20
206.769568
 30
0.0
 10
387.525227
 20
207.133491
 30
0.0
 10
387.240211
 20
207.535463
 30
0.0
 10
387.007236
 20
207.969377
 30
0.0
 10
386.829210
 20
208.428580
 30
0.0
 10
386.709210
 20
208.906216
 30
0.0
 10
386.649209
 20
209.394968
 30
0.0
 10
386.649209
 20
209.887449
 30
0.0
 10
386.649209
 20
209.887449
 30
0.0
 10
386.649209
 20
209.887449
 30
0.0
  0
LWPOLYLINE
  5
124
100
AcDbEntity
  8
0
 62
7
100
AcDbPolyline
 90
31
 70
1
 10
387.256213
 20
260.830708
 30
0.0
 10
387.419224
 20
261.295709
 30
0.0
 10
387.681211
 20
261.712909
 30
0.0
 10
388.029219
 20
262.061205
 30
0.0
 10
388.446231
 20
262.323308
 30
0.0
 10
388.911220
 20
262.486006
 30
0.0
 10
389.401214
 20
262.541209
 30
0.0
 10
389.891237
 20
262.486006
 30
0.0
 10
390.356226
 20
262.323308
 30
0.0
 10
390.773210
 20
262.061205
 30
0.0
 10
391.121218
 20
261.712909
 30
0.0
 10
391.383233
 20
261.295709
 30
0.0
 10
391.546216
 20
260.830708
 30
0.0
 10
391.601221
 20
260.341208
 30
0.0
 10
391.546216
 20
259.851710
 30
0.0
 10
391.383233
 20
259.386707
 30
0.0
 10
391.121218
 20
258.969509
 30
0.0
 10
390.773210
 20
258.621210
 30
0.0
 10
390.356226
 20
258.359110
 30
0.0
 10
389.891237
 20
258.196409
 30
0.0
 10
389.401214
 20
258.141209
 30
0.0
 10
388.911220
 20
258.196409
 30
0.0
 10
388.446231
 20
258.359110
 30
0.0
 10
388.029219
 20
258.621210
 30
0.0
 10
387.681211
 20
258.969509
 30
0.0
 10
387.419224
 20
259.386707
 30
0.0
 10
387.256213
 20
259.851710
 30
0.0
 10
387.201236
 20
260.341208
 30
0.0
 10
387.256213
 20
260.830708
 30
0.0
 10
387.256213
 20
260.830708
 30
0.0
 10
387.256213
 20
260.830708
 30
0.0
  0
LWPOLYLINE
  5
125
100
AcDbEntity
  8
0
 62
7
100
AcDbPolyline
 90
31
 70
1
 10
445.186218
 20
260.830708
 30
0.0
 10
445.349230
 20
261.295709
 30
0.0
 10
445.611217
 20
261.712909
 30
0.0
 10
445.959225
 20
262.061205
 30
0.0
 10
446.376237
 20
262.323308
 30
0.0
 10
446.841226
 20
262.486006
 30
0.0
 10
447.331220
 20
262.541209
 30
0.0
 10
447.821214
 20
262.486006
 30
0.0
 10
448.286232
 20
262.323308
 30
0.0
 10
448.703215
 20
262.061205
 30
0.0
 10
449.051224
 20
261.712909
 30
0.0
 10
449.313210
 20
261.295709
 30
0.0
 10
449.476222
 20
260.830708
 30
0.0
 10
449.531227
 20
260.341208
 30
0.0
 10
449.476222
 20
259.851710
 30
0.0
 10
449.313210
 20
259.386707
 30
0.0
 10
449.051224
 20
258.969509
 30
0.0
 10
448.703215
 20
258.621210
 30
0.0
 10
448.286232
 20
258.359110
 30
0.0
 10
447.821214
 20
258.196409
 30
0.0
 10
447.331220
 20
258.141209
 30
0.0
 10
446.841226
 20
258.196409
 30
0.0
 10
446.376237
 20
258.359110
 30
0.0
 10
445.959225
 20
258.621210
 30
0.0
 10
445.611217
 20
258.969509
 30
0.0
 10
445.349230
 20
259.386707
 30
0.0
 10
445.186218
 20
259.851710
 30
0.0
 10
445.131213
 20
260.341208
 30
0.0
 10
445.186218
 20
260.830708
 30
0.0
 10
445.186218
 20
260.830708
 30
0.0
 10
445.186218
 20
260.830708
 30
0.0
  0
LWPOLYLINE
  5
126
100
AcDbEntity
  8
0
 62
7
100
AcDbPolyline
 90
31
 70
1
 10
292.946351
 20
8.131115
 30
0.0
 10
293.109335
 20
8.596104
 30
0.0
 10
293.371350
 20
9.013115
 30
0.0
 10
293.719358
 20
9.361124
 30
0.0
 10
294.136341
 20
9.623111
 30
0.0
 10
294.601359
 20
9.786122
 30
0.0
 10
295.091353
 20
9.841099
 30
0.0
 10
295.581347
 20
9.786122
 30
0.0
 10
296.046337
 20
9.623111
 30
0.0
 10
296.463348
 20
9.361124
 30
0.0
 10
296.811356
 20
9.013115
 30
0.0
 10
297.073343
 20
8.596104
 30
0.0
 10
297.236355
 20
8.131115
 30
0.0
 10
297.291332
 20
7.641120
 30
0.0
 10
297.236355
 20
7.151098
 30
0.0
 10
297.073343
 20
6.686109
 30
0.0
 10
296.811356
 20
6.269097
 30
0.0
 10
296.463348
 20
5.921117
 30
0.0
 10
296.046337
 20
5.659102
 30
0.0
 10
295.581347
 20
5.496119
 30
0.0
 10
295.091353
 20
5.441113
 30
0.0
 10
294.601359
 20
5.496119
 30
0.0
 10
294.136341
 20
5.659102
 30
0.0
 10
293.719358
 20
5.921117
 30
0.0
 10
293.371350
 20
6.269097
 30
0.0
 10
293.109335
 20
6.686109
 30
0.0
 10
292.946351
 20
7.151098
 30
0.0
 10
292.891346
 20
7.641120
 30
0.0
 10
292.946351
 20
8.131115
 30
0.0
 10
292.946351
 20
8.131115
 30
0.0
 10
292.946351
 20
8.131115
 30
0.0
  0
LWPOLYLINE
  5
127
100
AcDbEntity
  8
0
 62
7
100
AcDbPolyline
 90
31
 70
1
 10
292.946351
 20
412.131105
 30
0.0
 10
293.109335
 20
412.596103
 30
0.0
 10
293.371350
 20
413.013103
 30
0.0
 10
293.719358
 20
413.361106
 30
0.0
 10
294.136341
 20
413.623104
 30
0.0
 10
294.601359
 20
413.786104
 30
0.0
 10
295.091353
 20
413.841104
 30
0.0
 10
295.581347
 20
413.786104
 30
0.0
 10
296.046337
 20
413.623104
 30
0.0
 10
296.463348
 20
413.361106
 30
0.0
 10
296.811356
 20
413.013103
 30
0.0
 10
297.073343
 20
412.596103
 30
0.0
 10
297.236355
 20
412.131105
 30
0.0
 10
297.291332
 20
411.641105
 30
0.0
 10
297.236355
 20
411.151105
 30
0.0
 10
297.073343
 20
410.686105
 30
0.0
 10
296.811356
 20
410.269107
 30
0.0
 10
296.463348
 20
409.921108
 30
0.0
 10
296.046337
 20
409.659104
 30
0.0
 10
295.581347
 20
409.496106
 30
0.0
 10
295.091353
 20
409.441104
 30
0.0
 10
294.601359
 20
409.496106
 30
0.0
 10
294.136341
 20
409.659104
 30
0.0
 10
293.719358
 20
409.921108
 30
0.0
 10
293.371350
 20
410.269107
 30
0.0
 10
293.109335
 20
410.686105
 30
0.0
 10
292.946351
 20
411.151105
 30
0.0
 10
292.891346
 20
411.641105
 30
0.0
 10
292.946351
 20
412.131105
 30
0.0
 10
292.946351
 20
412.131105
 30
0.0
 10
292.946351
 20
412.131105
 30
0.0
  0
LWPOLYLINE
  5
128
100
AcDbEntity
  8
0
 62
7
100
AcDbPolyline
 90
31
 70
1
 10
323.046537
 20
8.131115
 30
0.0
 10
323.209238
 20
8.596104
 30
0.0
 10
323.471338
 20
9.013115
 30
0.0
 10
323.819656
 20
9.361124
 30
0.0
 10
324.236837
 20
9.623111
 30
0.0
 10
324.701855
 20
9.786122
 30
0.0
 10
325.191341
 20
9.841099
 30
0.0
 10
325.680855
 20
9.786122
 30
0.0
 10
326.145845
 20
9.623111
 30
0.0
 10
326.563054
 20
9.361124
 30
0.0
 10
326.911344
 20
9.013115
 30
0.0
 10
327.173444
 20
8.596104
 30
0.0
 10
327.336145
 20
8.131115
 30
0.0
 10
327.391348
 20
7.641120
 30
0.0
 10
327.336145
 20
7.151098
 30
0.0
 10
327.173444
 20
6.686109
 30
0.0
 10
326.911344
 20
6.269097
 30
0.0
 10
326.563054
 20
5.921117
 30
0.0
 10
326.145845
 20
5.659102
 30
0.0
 10
325.680855
 20
5.496119
 30
0.0
 10
325.191341
 20
5.441113
 30
0.0
 10
324.701855
 20
5.496119
 30
0.0
 10
324.236837
 20
5.659102
 30
0.0
 10
323.819656
 20
5.921117
 30
0.0
 10
323.471338
 20
6.269097
 30
0.0
 10
323.209238
 20
6.686109
 30
0.0
 10
323.046537
 20
7.151098
 30
0.0
 10
322.991334
 20
7.641120
 30
0.0
 10
323.046537
 20
8.131115
 30
0.0
 10
323.046537
 20
8.131115
 30
0.0
 10
323.046537
 20
8.131115
 30
0.0
  0
LWPOLYLINE
  5
129
100
AcDbEntity
  8
0
 62
7
100
AcDbPolyline
 90
31
 70
1
 10
323.046537
 20
412.131105
 30
0.0
 10
323.209238
 20
412.596103
 30
0.0
 10
323.471338
 20
413.013103
 30
0.0
 10
323.819656
 20
413.361106
 30
0.0
 10
324.236837
 20
413.623104
 30
0.0
 10
324.701855
 20
413.786104
 30
0.0
 10
325.191341
 20
413.841104
 30
0.0
 10
325.680855
 20
413.786104
 30
0.0
 10
326.145845
 20
413.623104
 30
0.0
 10
326.563054
 20
413.361106
 30
0.0
 10
326.911344
 20
413.013103
 30
0.0
 10
327.173444
 20
412.596103
 30
0.0
 10
327.336145
 20
412.131105
 30
0.0
 10
327.391348
 20
411.641105
 30
0.0
 10
327.336145
 20
411.151105
 30
0.0
 10
327.173444
 20
410.686105
 30
0.0
 10
326.911344
 20
410.269107
 30
0.0
 10
326.563054
 20
409.921108
 30
0.0
 10
326.145845
 20
409.659104
 30
0.0
 10
325.680855
 20
409.496106
 30
0.0
 10
325.191341
 20
409.441104
 30
0.0
 10
324.701855
 20
409.496106
 30
0.0
 10
324.236837
 20
409.659104
 30
0.0
 10
323.819656
 20
409.921108
 30
0.0
 10
323.471338
 20
410.269107
 30
0.0
 10
323.209238
 20
410.686105
 30
0.0
 10
323.046537
 20
411.151105
 30
0.0
 10
322.991334
 20
411.641105
 30
0.0
 10
323.046537
 20
412.131105
 30
0.0
 10
323.046537
 20
412.131105
 30
0.0
 10
323.046537
 20
412.131105
 30
0.0
  0
LWPOLYLINE
  5
12a
100
AcDbEntity
  8
0
 62
7
100
AcDbPolyline
 90
22
 70
1
 10
249.146735
 20
340.961237
 30
0.0
 10
249.344734
 20
340.509238
 30
0.0
 10
249.385735
 20
340.017234
 30
0.0
 10
249.264735
 20
339.538235
 30
0.0
 10
248.994733
 20
339.125234
 30
0.0
 10
248.604733
 20
338.822238
 30
0.0
 10
248.137734
 20
338.661238
 30
0.0
 10
247.643735
 20
338.661238
 30
0.0
 10
247.176734
 20
338.822238
 30
0.0
 10
246.786734
 20
339.125234
 30
0.0
 10
246.516735
 20
339.538235
 30
0.0
 10
246.395735
 20
340.017234
 30
0.0
 10
246.436736
 20
340.509238
 30
0.0
 10
246.634734
 20
340.961237
 30
0.0
 10
246.969735
 20
341.325235
 30
0.0
 10
247.403734
 20
341.560233
 30
0.0
 10
247.890733
 20
341.641237
 30
0.0
 10
248.377733
 20
341.560233
 30
0.0
 10
248.811735
 20
341.325235
 30
0.0
 10
249.146735
 20
340.961237
 30
0.0
 10
249.146735
 20
340.961237
 30
0.0
 10
249.146735
 20
340.961237
 30
0.0
  0
LWPOLYLINE
  5
12b
100
AcDbEntity
  8
0
 62
7
100
AcDbPolyline
 90
22
 70
1
 10
249.385735
 20
345.817237
 30
0.0
 10
249.264735
 20
345.338235
 30
0.0
 10
248.994733
 20
344.925237
 30
0.0
 10
248.604733
 20
344.622237
 30
0.0
 10
248.137734
 20
344.461235
 30
0.0
 10
247.643735
 20
344.461235
 30
0.0
 10
247.176734
 20
344.622237
 30
0.0
 10
246.786734
 20
344.925237
 30
0.0
 10
246.516735
 20
345.338235
 30
0.0
 10
246.395735
 20
345.817237
 30
0.0
 10
246.436736
 20
346.309238
 30
0.0
 10
246.634734
 20
346.761233
 30
0.0
 10
246.969735
 20
347.125235
 30
0.0
 10
247.403734
 20
347.360233
 30
0.0
 10
247.890733
 20
347.441237
 30
0.0
 10
248.377733
 20
347.360233
 30
0.0
 10
248.811735
 20
347.125235
 30
0.0
 10
249.146735
 20
346.761233
 30
0.0
 10
249.344734
 20
346.309238
 30
0.0
 10
249.385735
 20
345.817237
 30
0.0
 10
249.385735
 20
345.817237
 30
0.0
 10
249.385735
 20
345.817237
 30
0.0
  0
ENDSEC
  0
SECTION
  2
OBJECTS
  0
DICTIONARY
  5
C
330
0
100
AcDbDictionary
  3
ACAD_GROUP
350
D
  3
ACAD_MLINESTYLE
350
17
  0
DICTIONARY
  5
D
330
C
100
AcDbDictionary
  0
DICTIONARY
  5
1A
330
C
100
AcDbDictionary
  0
DICTIONARY
  5
17
330
C
100
AcDbDictionary
  3
STANDARD
350
18
  0
DICTIONARY
  5
19
330
C
100
AcDbDictionary
  0
ENDSEC
  0
EOF
