solid OpenSCAD_Model
  facet normal -0.614213 -0.78914 -0
    outer loop
      vertex -10.0318 88.0928 0
      vertex -9.64084 87.7885 0
      vertex -9.64084 87.7885 100
    endloop
  endfacet
  facet normal -0.614213 -0.78914 0
    outer loop
      vertex -10.0318 88.0928 0
      vertex -9.64084 87.7885 100
      vertex -10.0318 88.0928 100
    endloop
  endfacet
  facet normal -0.614213 0.78914 0
    outer loop
      vertex -10.0318 97.5072 0
      vertex -10.0318 97.5072 100
      vertex -9.64084 97.8115 0
    endloop
  endfacet
  facet normal -0.614213 0.78914 0
    outer loop
      vertex -10.0318 97.5072 100
      vertex -9.64084 97.8115 100
      vertex -9.64084 97.8115 0
    endloop
  endfacet
  facet normal -0.735713 -0.677293 0
    outer loop
      vertex -10.3674 88.4574 0
      vertex -10.0318 88.0928 0
      vertex -10.3674 88.4574 100
    endloop
  endfacet
  facet normal -0.735713 -0.677293 0
    outer loop
      vertex -10.3674 88.4574 100
      vertex -10.0318 88.0928 0
      vertex -10.0318 88.0928 100
    endloop
  endfacet
  facet normal -0.735713 0.677293 0
    outer loop
      vertex -10.3674 97.1426 0
      vertex -10.0318 97.5072 100
      vertex -10.0318 97.5072 0
    endloop
  endfacet
  facet normal -0.735713 0.677293 0
    outer loop
      vertex -10.3674 97.1426 0
      vertex -10.3674 97.1426 100
      vertex -10.0318 97.5072 100
    endloop
  endfacet
  facet normal -0.837169 -0.546944 0
    outer loop
      vertex -10.6384 88.8722 0
      vertex -10.3674 88.4574 0
      vertex -10.6384 88.8722 100
    endloop
  endfacet
  facet normal -0.837169 -0.546944 0
    outer loop
      vertex -10.6384 88.8722 100
      vertex -10.3674 88.4574 0
      vertex -10.3674 88.4574 100
    endloop
  endfacet
  facet normal -0.837169 0.546944 0
    outer loop
      vertex -10.6384 96.7278 0
      vertex -10.3674 97.1426 100
      vertex -10.3674 97.1426 0
    endloop
  endfacet
  facet normal -0.837169 0.546944 0
    outer loop
      vertex -10.6384 96.7278 0
      vertex -10.6384 96.7278 100
      vertex -10.3674 97.1426 100
    endloop
  endfacet
  facet normal -0.915772 -0.401699 0
    outer loop
      vertex -10.8374 89.3259 0
      vertex -10.6384 88.8722 0
      vertex -10.8374 89.3259 100
    endloop
  endfacet
  facet normal -0.915772 -0.401699 0
    outer loop
      vertex -10.8374 89.3259 100
      vertex -10.6384 88.8722 0
      vertex -10.6384 88.8722 100
    endloop
  endfacet
  facet normal -0.915772 0.401699 0
    outer loop
      vertex -10.8374 96.2741 0
      vertex -10.6384 96.7278 100
      vertex -10.6384 96.7278 0
    endloop
  endfacet
  facet normal -0.915772 0.401699 0
    outer loop
      vertex -10.8374 96.2741 0
      vertex -10.8374 96.2741 100
      vertex -10.6384 96.7278 100
    endloop
  endfacet
  facet normal -0.969403 -0.245476 0
    outer loop
      vertex -10.9591 89.8062 0
      vertex -10.8374 89.3259 0
      vertex -10.9591 89.8062 100
    endloop
  endfacet
  facet normal -0.969403 -0.245476 0
    outer loop
      vertex -10.9591 89.8062 100
      vertex -10.8374 89.3259 0
      vertex -10.8374 89.3259 100
    endloop
  endfacet
  facet normal -0.969403 0.245476 0
    outer loop
      vertex -10.9591 95.7938 0
      vertex -10.8374 96.2741 100
      vertex -10.8374 96.2741 0
    endloop
  endfacet
  facet normal -0.969403 0.245476 0
    outer loop
      vertex -10.9591 95.7938 0
      vertex -10.9591 95.7938 100
      vertex -10.8374 96.2741 100
    endloop
  endfacet
  facet normal 0 0 -1
    outer loop
      vertex -11 90.3 0
      vertex -10.0318 88.0928 0
      vertex -10.3674 88.4574 0
    endloop
  endfacet
  facet normal 0 0 -1
    outer loop
      vertex -11 90.3 0
      vertex -10.3674 88.4574 0
      vertex -10.6384 88.8722 0
    endloop
  endfacet
  facet normal 0 0 -1
    outer loop
      vertex -11 90.3 0
      vertex -10.6384 88.8722 0
      vertex -10.8374 89.3259 0
    endloop
  endfacet
  facet normal 0 0 -1
    outer loop
      vertex -11 90.3 0
      vertex -10.8374 89.3259 0
      vertex -10.9591 89.8062 0
    endloop
  endfacet
  facet normal -0.996583 -0.0825969 0
    outer loop
      vertex -11 90.3 0
      vertex -10.9591 89.8062 0
      vertex -11 90.3 100
    endloop
  endfacet
  facet normal -1 -0 0
    outer loop
      vertex -11 90.3 0
      vertex -11 90.3 100
      vertex -11 95.3 100
    endloop
  endfacet
  facet normal 0 0 -1
    outer loop
      vertex -11 90.3 0
      vertex -11 95.3 0
      vertex -3.2 90.3 0
    endloop
  endfacet
  facet normal -1 0 0
    outer loop
      vertex -11 90.3 0
      vertex -11 95.3 100
      vertex -11 95.3 0
    endloop
  endfacet
  facet normal 0 0 -1
    outer loop
      vertex -11 90.3 0
      vertex -3.2 90.3 0
      vertex -8 87.3 0
    endloop
  endfacet
  facet normal 0 0 -1
    outer loop
      vertex -11 90.3 0
      vertex -8 87.3 0
      vertex -8.24773 87.3103 0
    endloop
  endfacet
  facet normal 0 0 -1
    outer loop
      vertex -11 90.3 0
      vertex -8.24773 87.3103 0
      vertex -8.73645 87.3918 0
    endloop
  endfacet
  facet normal 0 0 -1
    outer loop
      vertex -11 90.3 0
      vertex -8.73645 87.3918 0
      vertex -9.20508 87.5527 0
    endloop
  endfacet
  facet normal 0 0 -1
    outer loop
      vertex -11 90.3 0
      vertex -9.20508 87.5527 0
      vertex -9.64084 87.7885 0
    endloop
  endfacet
  facet normal 0 0 -1
    outer loop
      vertex -11 90.3 0
      vertex -9.64084 87.7885 0
      vertex -10.0318 88.0928 0
    endloop
  endfacet
  facet normal 0 0 1
    outer loop
      vertex -11 90.3 100
      vertex -10.0318 88.0928 100
      vertex -9.64084 87.7885 100
    endloop
  endfacet
  facet normal 0 0 1
    outer loop
      vertex -11 90.3 100
      vertex -10.3674 88.4574 100
      vertex -10.0318 88.0928 100
    endloop
  endfacet
  facet normal 0 0 1
    outer loop
      vertex -11 90.3 100
      vertex -10.6384 88.8722 100
      vertex -10.3674 88.4574 100
    endloop
  endfacet
  facet normal 0 0 1
    outer loop
      vertex -11 90.3 100
      vertex -10.8374 89.3259 100
      vertex -10.6384 88.8722 100
    endloop
  endfacet
  facet normal -0.996583 -0.0825969 0
    outer loop
      vertex -11 90.3 100
      vertex -10.9591 89.8062 0
      vertex -10.9591 89.8062 100
    endloop
  endfacet
  facet normal 0 0 1
    outer loop
      vertex -11 90.3 100
      vertex -10.9591 89.8062 100
      vertex -10.8374 89.3259 100
    endloop
  endfacet
  facet normal -0 0 1
    outer loop
      vertex -11 90.3 100
      vertex -8 87.3 100
      vertex -11 95.3 100
    endloop
  endfacet
  facet normal 0 0 1
    outer loop
      vertex -11 90.3 100
      vertex -8.24773 87.3103 100
      vertex -8 87.3 100
    endloop
  endfacet
  facet normal 0 0 1
    outer loop
      vertex -11 90.3 100
      vertex -8.73645 87.3918 100
      vertex -8.24773 87.3103 100
    endloop
  endfacet
  facet normal 0 0 1
    outer loop
      vertex -11 90.3 100
      vertex -9.20508 87.5527 100
      vertex -8.73645 87.3918 100
    endloop
  endfacet
  facet normal 0 0 1
    outer loop
      vertex -11 90.3 100
      vertex -9.64084 87.7885 100
      vertex -9.20508 87.5527 100
    endloop
  endfacet
  facet normal 0 0 -1
    outer loop
      vertex -11 95.3 0
      vertex -10.0318 97.5072 0
      vertex -9.64084 97.8115 0
    endloop
  endfacet
  facet normal 0 0 -1
    outer loop
      vertex -11 95.3 0
      vertex -10.3674 97.1426 0
      vertex -10.0318 97.5072 0
    endloop
  endfacet
  facet normal 0 0 -1
    outer loop
      vertex -11 95.3 0
      vertex -10.6384 96.7278 0
      vertex -10.3674 97.1426 0
    endloop
  endfacet
  facet normal 0 0 -1
    outer loop
      vertex -11 95.3 0
      vertex -10.8374 96.2741 0
      vertex -10.6384 96.7278 0
    endloop
  endfacet
  facet normal 0 0 -1
    outer loop
      vertex -11 95.3 0
      vertex -10.9591 95.7938 0
      vertex -10.8374 96.2741 0
    endloop
  endfacet
  facet normal -0.996583 0.0825969 0
    outer loop
      vertex -11 95.3 0
      vertex -10.9591 95.7938 100
      vertex -10.9591 95.7938 0
    endloop
  endfacet
  facet normal -0.996583 0.0825969 0
    outer loop
      vertex -11 95.3 0
      vertex -11 95.3 100
      vertex -10.9591 95.7938 100
    endloop
  endfacet
  facet normal 0 0 -1
    outer loop
      vertex -11 95.3 0
      vertex -8 98.3 0
      vertex -3.2 90.3 0
    endloop
  endfacet
  facet normal 0 0 -1
    outer loop
      vertex -11 95.3 0
      vertex -8.24773 98.2897 0
      vertex -8 98.3 0
    endloop
  endfacet
  facet normal 0 0 -1
    outer loop
      vertex -11 95.3 0
      vertex -8.73645 98.2082 0
      vertex -8.24773 98.2897 0
    endloop
  endfacet
  facet normal 0 0 -1
    outer loop
      vertex -11 95.3 0
      vertex -9.20508 98.0473 0
      vertex -8.73645 98.2082 0
    endloop
  endfacet
  facet normal 0 0 -1
    outer loop
      vertex -11 95.3 0
      vertex -9.64084 97.8115 0
      vertex -9.20508 98.0473 0
    endloop
  endfacet
  facet normal 0 0 1
    outer loop
      vertex -11 95.3 100
      vertex -10.0318 97.5072 100
      vertex -10.3674 97.1426 100
    endloop
  endfacet
  facet normal 0 0 1
    outer loop
      vertex -11 95.3 100
      vertex -10.3674 97.1426 100
      vertex -10.6384 96.7278 100
    endloop
  endfacet
  facet normal 0 0 1
    outer loop
      vertex -11 95.3 100
      vertex -10.6384 96.7278 100
      vertex -10.8374 96.2741 100
    endloop
  endfacet
  facet normal 0 0 1
    outer loop
      vertex -11 95.3 100
      vertex -10.8374 96.2741 100
      vertex -10.9591 95.7938 100
    endloop
  endfacet
  facet normal 0 0 1
    outer loop
      vertex -11 95.3 100
      vertex -8 87.3 100
      vertex -8 98.3 100
    endloop
  endfacet
  facet normal 0 0 1
    outer loop
      vertex -11 95.3 100
      vertex -8 98.3 100
      vertex -8.24773 98.2897 100
    endloop
  endfacet
  facet normal 0 0 1
    outer loop
      vertex -11 95.3 100
      vertex -8.24773 98.2897 100
      vertex -8.73645 98.2082 100
    endloop
  endfacet
  facet normal 0 0 1
    outer loop
      vertex -11 95.3 100
      vertex -8.73645 98.2082 100
      vertex -9.20508 98.0473 100
    endloop
  endfacet
  facet normal 0 0 1
    outer loop
      vertex -11 95.3 100
      vertex -9.20508 98.0473 100
      vertex -9.64084 97.8115 100
    endloop
  endfacet
  facet normal 0 0 1
    outer loop
      vertex -11 95.3 100
      vertex -9.64084 97.8115 100
      vertex -10.0318 97.5072 100
    endloop
  endfacet
  facet normal -0 0 -1
    outer loop
      vertex -3.2 87.3 0
      vertex -3.2 90.3 0
      vertex 0 90.3 0
    endloop
  endfacet
  facet normal 0 -1 -0
    outer loop
      vertex -3.2 87.3 0
      vertex 0 87.3 0
      vertex 0 87.3 1
    endloop
  endfacet
  facet normal 0 0 -1
    outer loop
      vertex -3.2 87.3 0
      vertex 0 90.3 0
      vertex 0 87.3 0
    endloop
  endfacet
  facet normal 0 0 -1
    outer loop
      vertex -3.2 90.3 0
      vertex 0 98.3 0
      vertex 0 90.3 0
    endloop
  endfacet
  facet normal 0 -1 0
    outer loop
      vertex -8 87.3 0
      vertex -3.2 87.3 0
      vertex 0 87.3 1
    endloop
  endfacet
  facet normal 0 0 -1
    outer loop
      vertex -8 87.3 0
      vertex -3.2 90.3 0
      vertex -3.2 87.3 0
    endloop
  endfacet
  facet normal 0 -1 0
    outer loop
      vertex -8 87.3 0
      vertex 0 87.3 1
      vertex -8 87.3 100
    endloop
  endfacet
  facet normal 0 -1 0
    outer loop
      vertex -8 87.3 100
      vertex 0 87.3 1
      vertex 0 87.3 100
    endloop
  endfacet
  facet normal 0 0 1
    outer loop
      vertex -8 87.3 100
      vertex 0 87.3 100
      vertex -8 98.3 100
    endloop
  endfacet
  facet normal 0 1 0
    outer loop
      vertex -8 98.3 0
      vertex -8 98.3 100
      vertex 0 98.3 0
    endloop
  endfacet
  facet normal 0 0 -1
    outer loop
      vertex -8 98.3 0
      vertex 0 98.3 0
      vertex -3.2 90.3 0
    endloop
  endfacet
  facet normal -0 0 1
    outer loop
      vertex -8 98.3 100
      vertex 0 87.3 100
      vertex 0 98.3 100
    endloop
  endfacet
  facet normal 0 1 -0
    outer loop
      vertex -8 98.3 100
      vertex 0 98.3 100
      vertex 0 98.3 0
    endloop
  endfacet
  facet normal -0.0413566 -0.999144 -0
    outer loop
      vertex -8.24773 87.3103 0
      vertex -8 87.3 0
      vertex -8 87.3 100
    endloop
  endfacet
  facet normal -0.0413566 -0.999144 0
    outer loop
      vertex -8.24773 87.3103 0
      vertex -8 87.3 100
      vertex -8.24773 87.3103 100
    endloop
  endfacet
  facet normal -0.0413566 0.999144 0
    outer loop
      vertex -8.24773 98.2897 0
      vertex -8.24773 98.2897 100
      vertex -8 98.3 0
    endloop
  endfacet
  facet normal -0.0413566 0.999144 0
    outer loop
      vertex -8.24773 98.2897 100
      vertex -8 98.3 100
      vertex -8 98.3 0
    endloop
  endfacet
  facet normal -0.164604 -0.98636 -0
    outer loop
      vertex -8.73645 87.3918 0
      vertex -8.24773 87.3103 0
      vertex -8.24773 87.3103 100
    endloop
  endfacet
  facet normal -0.164604 -0.98636 0
    outer loop
      vertex -8.73645 87.3918 0
      vertex -8.24773 87.3103 100
      vertex -8.73645 87.3918 100
    endloop
  endfacet
  facet normal -0.164604 0.98636 0
    outer loop
      vertex -8.73645 98.2082 0
      vertex -8.73645 98.2082 100
      vertex -8.24773 98.2897 0
    endloop
  endfacet
  facet normal -0.164604 0.98636 0
    outer loop
      vertex -8.73645 98.2082 100
      vertex -8.24773 98.2897 100
      vertex -8.24773 98.2897 0
    endloop
  endfacet
  facet normal -0.324687 -0.945821 -0
    outer loop
      vertex -9.20508 87.5527 0
      vertex -8.73645 87.3918 0
      vertex -8.73645 87.3918 100
    endloop
  endfacet
  facet normal -0.324687 -0.945821 0
    outer loop
      vertex -9.20508 87.5527 0
      vertex -8.73645 87.3918 100
      vertex -9.20508 87.5527 100
    endloop
  endfacet
  facet normal -0.324687 0.945821 0
    outer loop
      vertex -9.20508 98.0473 0
      vertex -9.20508 98.0473 100
      vertex -8.73645 98.2082 0
    endloop
  endfacet
  facet normal -0.324687 0.945821 0
    outer loop
      vertex -9.20508 98.0473 100
      vertex -8.73645 98.2082 100
      vertex -8.73645 98.2082 0
    endloop
  endfacet
  facet normal -0.475952 -0.879471 -0
    outer loop
      vertex -9.64084 87.7885 0
      vertex -9.20508 87.5527 0
      vertex -9.20508 87.5527 100
    endloop
  endfacet
  facet normal -0.475952 -0.879471 0
    outer loop
      vertex -9.64084 87.7885 0
      vertex -9.20508 87.5527 100
      vertex -9.64084 87.7885 100
    endloop
  endfacet
  facet normal -0.475952 0.879471 0
    outer loop
      vertex -9.64084 97.8115 0
      vertex -9.64084 97.8115 100
      vertex -9.20508 98.0473 0
    endloop
  endfacet
  facet normal -0.475952 0.879471 0
    outer loop
      vertex -9.64084 97.8115 100
      vertex -9.20508 98.0473 100
      vertex -9.20508 98.0473 0
    endloop
  endfacet
  facet normal -1 0 0
    outer loop
      vertex 0 0 0
      vertex 0 0 1
      vertex 0 84.3 0
    endloop
  endfacet
  facet normal 0 0 -1
    outer loop
      vertex 0 0 0
      vertex 0 84.3 0
      vertex 3 3 0
    endloop
  endfacet
  facet normal 0 -1 -0
    outer loop
      vertex 0 0 0
      vertex 21.95 0 0
      vertex 21.95 0 1
    endloop
  endfacet
  facet normal 0 -1 0
    outer loop
      vertex 0 0 0
      vertex 21.95 0 1
      vertex 0 0 1
    endloop
  endfacet
  facet normal 0 0 -1
    outer loop
      vertex 0 0 0
      vertex 3 3 0
      vertex 21.95 0 0
    endloop
  endfacet
  facet normal -1 0 0
    outer loop
      vertex 0 0 1
      vertex 0 87.3 1
      vertex 0 84.3 0
    endloop
  endfacet
  facet normal 0 0 1
    outer loop
      vertex 0 0 1
      vertex 21.95 0 1
      vertex 3 3 1
    endloop
  endfacet
  facet normal 0 0 1
    outer loop
      vertex 0 0 1
      vertex 3 3 1
      vertex 0 87.3 1
    endloop
  endfacet
  facet normal 0 0 -1
    outer loop
      vertex 0 84.3 0
      vertex 0 87.3 0
      vertex 3 95.3 0
    endloop
  endfacet
  facet normal -1 0 0
    outer loop
      vertex 0 84.3 0
      vertex 0 87.3 1
      vertex 0 87.3 0
    endloop
  endfacet
  facet normal 0 0 -1
    outer loop
      vertex 0 84.3 0
      vertex 3 95.3 0
      vertex 3 3 0
    endloop
  endfacet
  facet normal 0 0 -1
    outer loop
      vertex 0 87.3 0
      vertex 0 90.3 0
      vertex 3 95.3 0
    endloop
  endfacet
  facet normal 0.0413566 -0.999144 0
    outer loop
      vertex 0 87.3 1
      vertex 0.247726 87.3103 1
      vertex 0.247726 87.3103 100
    endloop
  endfacet
  facet normal 0.0413566 -0.999144 0
    outer loop
      vertex 0 87.3 1
      vertex 0.247726 87.3103 100
      vertex 0 87.3 100
    endloop
  endfacet
  facet normal -0 0 1
    outer loop
      vertex 0 87.3 1
      vertex 3 3 1
      vertex 0.247726 87.3103 1
    endloop
  endfacet
  facet normal 0 0 1
    outer loop
      vertex 0 87.3 100
      vertex 0.247726 87.3103 100
      vertex 0.73645 87.3918 100
    endloop
  endfacet
  facet normal 0 0 1
    outer loop
      vertex 0 87.3 100
      vertex 0.73645 87.3918 100
      vertex 1.20508 87.5527 100
    endloop
  endfacet
  facet normal 0 0 1
    outer loop
      vertex 0 87.3 100
      vertex 1.20508 87.5527 100
      vertex 1.64084 87.7885 100
    endloop
  endfacet
  facet normal 0 0 1
    outer loop
      vertex 0 87.3 100
      vertex 1.64084 87.7885 100
      vertex 2.03183 88.0928 100
    endloop
  endfacet
  facet normal 0 0 1
    outer loop
      vertex 0 87.3 100
      vertex 2.03183 88.0928 100
      vertex 2.36742 88.4574 100
    endloop
  endfacet
  facet normal 0 0 1
    outer loop
      vertex 0 87.3 100
      vertex 2.36742 88.4574 100
      vertex 2.63841 88.8722 100
    endloop
  endfacet
  facet normal 0 0 1
    outer loop
      vertex 0 87.3 100
      vertex 2.63841 88.8722 100
      vertex 2.83745 89.3259 100
    endloop
  endfacet
  facet normal 0 0 1
    outer loop
      vertex 0 87.3 100
      vertex 2.83745 89.3259 100
      vertex 2.95908 89.8062 100
    endloop
  endfacet
  facet normal 0 0 1
    outer loop
      vertex 0 87.3 100
      vertex 2.95908 89.8062 100
      vertex 3 90.3 100
    endloop
  endfacet
  facet normal 0 0 1
    outer loop
      vertex 0 87.3 100
      vertex 3 90.3 100
      vertex 0 98.3 100
    endloop
  endfacet
  facet normal 0 0 -1
    outer loop
      vertex 0 90.3 0
      vertex 0 98.3 0
      vertex 3 95.3 0
    endloop
  endfacet
  facet normal 0.0413566 0.999144 0
    outer loop
      vertex 0 98.3 0
      vertex 0 98.3 100
      vertex 0.247726 98.2897 0
    endloop
  endfacet
  facet normal 0 0 -1
    outer loop
      vertex 0 98.3 0
      vertex 0.247726 98.2897 0
      vertex 0.73645 98.2082 0
    endloop
  endfacet
  facet normal 0 0 -1
    outer loop
      vertex 0 98.3 0
      vertex 0.73645 98.2082 0
      vertex 1.20508 98.0473 0
    endloop
  endfacet
  facet normal 0 0 -1
    outer loop
      vertex 0 98.3 0
      vertex 1.20508 98.0473 0
      vertex 1.64084 97.8115 0
    endloop
  endfacet
  facet normal 0 0 -1
    outer loop
      vertex 0 98.3 0
      vertex 1.64084 97.8115 0
      vertex 2.03183 97.5072 0
    endloop
  endfacet
  facet normal 0 0 -1
    outer loop
      vertex 0 98.3 0
      vertex 2.03183 97.5072 0
      vertex 2.36742 97.1426 0
    endloop
  endfacet
  facet normal 0 0 -1
    outer loop
      vertex 0 98.3 0
      vertex 2.36742 97.1426 0
      vertex 2.63841 96.7278 0
    endloop
  endfacet
  facet normal 0 0 -1
    outer loop
      vertex 0 98.3 0
      vertex 2.63841 96.7278 0
      vertex 2.83745 96.2741 0
    endloop
  endfacet
  facet normal 0 0 -1
    outer loop
      vertex 0 98.3 0
      vertex 2.83745 96.2741 0
      vertex 2.95908 95.7938 0
    endloop
  endfacet
  facet normal 0 0 -1
    outer loop
      vertex 0 98.3 0
      vertex 2.95908 95.7938 0
      vertex 3 95.3 0
    endloop
  endfacet
  facet normal 0.0413566 0.999144 -0
    outer loop
      vertex 0 98.3 100
      vertex 0.247726 98.2897 100
      vertex 0.247726 98.2897 0
    endloop
  endfacet
  facet normal 0 0 1
    outer loop
      vertex 0 98.3 100
      vertex 0.73645 98.2082 100
      vertex 0.247726 98.2897 100
    endloop
  endfacet
  facet normal 0 0 1
    outer loop
      vertex 0 98.3 100
      vertex 1.20508 98.0473 100
      vertex 0.73645 98.2082 100
    endloop
  endfacet
  facet normal 0 0 1
    outer loop
      vertex 0 98.3 100
      vertex 1.64084 97.8115 100
      vertex 1.20508 98.0473 100
    endloop
  endfacet
  facet normal 0 0 1
    outer loop
      vertex 0 98.3 100
      vertex 2.03183 97.5072 100
      vertex 1.64084 97.8115 100
    endloop
  endfacet
  facet normal 0 0 1
    outer loop
      vertex 0 98.3 100
      vertex 2.36742 97.1426 100
      vertex 2.03183 97.5072 100
    endloop
  endfacet
  facet normal 0 0 1
    outer loop
      vertex 0 98.3 100
      vertex 2.63841 96.7278 100
      vertex 2.36742 97.1426 100
    endloop
  endfacet
  facet normal 0 0 1
    outer loop
      vertex 0 98.3 100
      vertex 2.83745 96.2741 100
      vertex 2.63841 96.7278 100
    endloop
  endfacet
  facet normal 0 0 1
    outer loop
      vertex 0 98.3 100
      vertex 2.95908 95.7938 100
      vertex 2.83745 96.2741 100
    endloop
  endfacet
  facet normal 0 0 1
    outer loop
      vertex 0 98.3 100
      vertex 3 90.3 100
      vertex 3 95.3 100
    endloop
  endfacet
  facet normal 0 0 1
    outer loop
      vertex 0 98.3 100
      vertex 3 95.3 100
      vertex 2.95908 95.7938 100
    endloop
  endfacet
  facet normal 0.164604 -0.98636 0
    outer loop
      vertex 0.247726 87.3103 1
      vertex 0.73645 87.3918 1
      vertex 0.73645 87.3918 100
    endloop
  endfacet
  facet normal 0.164604 -0.98636 0
    outer loop
      vertex 0.247726 87.3103 1
      vertex 0.73645 87.3918 100
      vertex 0.247726 87.3103 100
    endloop
  endfacet
  facet normal -0 0 1
    outer loop
      vertex 0.247726 87.3103 1
      vertex 3 3 1
      vertex 0.73645 87.3918 1
    endloop
  endfacet
  facet normal 0.164604 0.98636 0
    outer loop
      vertex 0.247726 98.2897 0
      vertex 0.247726 98.2897 100
      vertex 0.73645 98.2082 0
    endloop
  endfacet
  facet normal 0.164604 0.98636 -0
    outer loop
      vertex 0.247726 98.2897 100
      vertex 0.73645 98.2082 100
      vertex 0.73645 98.2082 0
    endloop
  endfacet
  facet normal 0.324687 -0.945821 0
    outer loop
      vertex 0.73645 87.3918 1
      vertex 1.20508 87.5527 1
      vertex 1.20508 87.5527 100
    endloop
  endfacet
  facet normal 0.324687 -0.945821 0
    outer loop
      vertex 0.73645 87.3918 1
      vertex 1.20508 87.5527 100
      vertex 0.73645 87.3918 100
    endloop
  endfacet
  facet normal -0 0 1
    outer loop
      vertex 0.73645 87.3918 1
      vertex 3 3 1
      vertex 1.20508 87.5527 1
    endloop
  endfacet
  facet normal 0.324687 0.945821 0
    outer loop
      vertex 0.73645 98.2082 0
      vertex 0.73645 98.2082 100
      vertex 1.20508 98.0473 0
    endloop
  endfacet
  facet normal 0.324687 0.945821 -0
    outer loop
      vertex 0.73645 98.2082 100
      vertex 1.20508 98.0473 100
      vertex 1.20508 98.0473 0
    endloop
  endfacet
  facet normal 0.475952 -0.879471 0
    outer loop
      vertex 1.20508 87.5527 1
      vertex 1.64084 87.7885 1
      vertex 1.64084 87.7885 100
    endloop
  endfacet
  facet normal 0.475952 -0.879471 0
    outer loop
      vertex 1.20508 87.5527 1
      vertex 1.64084 87.7885 100
      vertex 1.20508 87.5527 100
    endloop
  endfacet
  facet normal -0 0 1
    outer loop
      vertex 1.20508 87.5527 1
      vertex 3 3 1
      vertex 1.64084 87.7885 1
    endloop
  endfacet
  facet normal 0.475952 0.879471 0
    outer loop
      vertex 1.20508 98.0473 0
      vertex 1.20508 98.0473 100
      vertex 1.64084 97.8115 0
    endloop
  endfacet
  facet normal 0.475952 0.879471 -0
    outer loop
      vertex 1.20508 98.0473 100
      vertex 1.64084 97.8115 100
      vertex 1.64084 97.8115 0
    endloop
  endfacet
  facet normal 0.614213 -0.78914 0
    outer loop
      vertex 1.64084 87.7885 1
      vertex 2.03183 88.0928 1
      vertex 2.03183 88.0928 100
    endloop
  endfacet
  facet normal 0.614213 -0.78914 0
    outer loop
      vertex 1.64084 87.7885 1
      vertex 2.03183 88.0928 100
      vertex 1.64084 87.7885 100
    endloop
  endfacet
  facet normal -0 0 1
    outer loop
      vertex 1.64084 87.7885 1
      vertex 3 3 1
      vertex 2.03183 88.0928 1
    endloop
  endfacet
  facet normal 0.614213 0.78914 0
    outer loop
      vertex 1.64084 97.8115 0
      vertex 1.64084 97.8115 100
      vertex 2.03183 97.5072 0
    endloop
  endfacet
  facet normal 0.614213 0.78914 -0
    outer loop
      vertex 1.64084 97.8115 100
      vertex 2.03183 97.5072 100
      vertex 2.03183 97.5072 0
    endloop
  endfacet
  facet normal 0.735713 -0.677293 0
    outer loop
      vertex 2.03183 88.0928 1
      vertex 2.36742 88.4574 1
      vertex 2.03183 88.0928 100
    endloop
  endfacet
  facet normal -0 0 1
    outer loop
      vertex 2.03183 88.0928 1
      vertex 3 3 1
      vertex 2.36742 88.4574 1
    endloop
  endfacet
  facet normal 0.735713 -0.677293 0
    outer loop
      vertex 2.03183 88.0928 100
      vertex 2.36742 88.4574 1
      vertex 2.36742 88.4574 100
    endloop
  endfacet
  facet normal 0.735713 0.677293 0
    outer loop
      vertex 2.03183 97.5072 0
      vertex 2.03183 97.5072 100
      vertex 2.36742 97.1426 100
    endloop
  endfacet
  facet normal 0.735713 0.677293 0
    outer loop
      vertex 2.03183 97.5072 0
      vertex 2.36742 97.1426 100
      vertex 2.36742 97.1426 0
    endloop
  endfacet
  facet normal 0.837169 -0.546944 0
    outer loop
      vertex 2.36742 88.4574 1
      vertex 2.63841 88.8722 1
      vertex 2.36742 88.4574 100
    endloop
  endfacet
  facet normal -0 0 1
    outer loop
      vertex 2.36742 88.4574 1
      vertex 3 3 1
      vertex 2.63841 88.8722 1
    endloop
  endfacet
  facet normal 0.837169 -0.546944 0
    outer loop
      vertex 2.36742 88.4574 100
      vertex 2.63841 88.8722 1
      vertex 2.63841 88.8722 100
    endloop
  endfacet
  facet normal 0.837169 0.546944 0
    outer loop
      vertex 2.36742 97.1426 0
      vertex 2.36742 97.1426 100
      vertex 2.63841 96.7278 100
    endloop
  endfacet
  facet normal 0.837169 0.546944 0
    outer loop
      vertex 2.36742 97.1426 0
      vertex 2.63841 96.7278 100
      vertex 2.63841 96.7278 0
    endloop
  endfacet
  facet normal 0.915772 -0.401699 0
    outer loop
      vertex 2.63841 88.8722 1
      vertex 2.83745 89.3259 1
      vertex 2.63841 88.8722 100
    endloop
  endfacet
  facet normal -0 0 1
    outer loop
      vertex 2.63841 88.8722 1
      vertex 3 3 1
      vertex 2.83745 89.3259 1
    endloop
  endfacet
  facet normal 0.915772 -0.401699 0
    outer loop
      vertex 2.63841 88.8722 100
      vertex 2.83745 89.3259 1
      vertex 2.83745 89.3259 100
    endloop
  endfacet
  facet normal 0.915772 0.401699 0
    outer loop
      vertex 2.63841 96.7278 0
      vertex 2.63841 96.7278 100
      vertex 2.83745 96.2741 100
    endloop
  endfacet
  facet normal 0.915772 0.401699 0
    outer loop
      vertex 2.63841 96.7278 0
      vertex 2.83745 96.2741 100
      vertex 2.83745 96.2741 0
    endloop
  endfacet
  facet normal 0.969403 -0.245476 0
    outer loop
      vertex 2.83745 89.3259 1
      vertex 2.95908 89.8062 1
      vertex 2.83745 89.3259 100
    endloop
  endfacet
  facet normal -0 0 1
    outer loop
      vertex 2.83745 89.3259 1
      vertex 3 3 1
      vertex 2.95908 89.8062 1
    endloop
  endfacet
  facet normal 0.969403 -0.245476 0
    outer loop
      vertex 2.83745 89.3259 100
      vertex 2.95908 89.8062 1
      vertex 2.95908 89.8062 100
    endloop
  endfacet
  facet normal 0.969403 0.245476 0
    outer loop
      vertex 2.83745 96.2741 0
      vertex 2.83745 96.2741 100
      vertex 2.95908 95.7938 100
    endloop
  endfacet
  facet normal 0.969403 0.245476 0
    outer loop
      vertex 2.83745 96.2741 0
      vertex 2.95908 95.7938 100
      vertex 2.95908 95.7938 0
    endloop
  endfacet
  facet normal 0 0 1
    outer loop
      vertex 2.95908 89.8062 1
      vertex 3 3 1
      vertex 3 90.3 1
    endloop
  endfacet
  facet normal 0.996583 -0.0825969 0
    outer loop
      vertex 2.95908 89.8062 1
      vertex 3 90.3 1
      vertex 2.95908 89.8062 100
    endloop
  endfacet
  facet normal 0.996583 -0.0825969 0
    outer loop
      vertex 2.95908 89.8062 100
      vertex 3 90.3 1
      vertex 3 90.3 100
    endloop
  endfacet
  facet normal 0.996583 0.0825969 0
    outer loop
      vertex 2.95908 95.7938 0
      vertex 2.95908 95.7938 100
      vertex 3 95.3 100
    endloop
  endfacet
  facet normal 0.996583 0.0825969 0
    outer loop
      vertex 2.95908 95.7938 0
      vertex 3 95.3 100
      vertex 3 95.3 0
    endloop
  endfacet
  facet normal 1 0 0
    outer loop
      vertex 21.95 0 0
      vertex 21.95 3 0
      vertex 21.95 0 1
    endloop
  endfacet
  facet normal 1 -0 0
    outer loop
      vertex 21.95 0 1
      vertex 21.95 3 0
      vertex 21.95 3 1
    endloop
  endfacet
  facet normal 0 0 -1
    outer loop
      vertex 3 3 0
      vertex 21.95 3 0
      vertex 21.95 0 0
    endloop
  endfacet
  facet normal 0 1 0
    outer loop
      vertex 3 3 0
      vertex 3 3 1
      vertex 21.95 3 0
    endloop
  endfacet
  facet normal 1 0 0
    outer loop
      vertex 3 3 0
      vertex 3 90.3 1
      vertex 3 3 1
    endloop
  endfacet
  facet normal 1 0 0
    outer loop
      vertex 3 3 0
      vertex 3 95.3 0
      vertex 3 90.3 1
    endloop
  endfacet
  facet normal -0 0 1
    outer loop
      vertex 3 3 1
      vertex 21.95 0 1
      vertex 21.95 3 1
    endloop
  endfacet
  facet normal 0 1 -0
    outer loop
      vertex 3 3 1
      vertex 21.95 3 1
      vertex 21.95 3 0
    endloop
  endfacet
  facet normal 1 0 0
    outer loop
      vertex 3 90.3 1
      vertex 3 95.3 0
      vertex 3 95.3 100
    endloop
  endfacet
  facet normal 1 0 0
    outer loop
      vertex 3 90.3 1
      vertex 3 95.3 100
      vertex 3 90.3 100
    endloop
  endfacet
endsolid OpenSCAD_Model
