  0
SECTION
  2
HEADER
  9
$ACADVER
  1
AC1014
  9
$HANDSEED
  5
FFFF
  9
$MEASUREMENT
 70
     1
  0
ENDSEC
  0
SECTION
  2
TABLES
  0
TABLE
  2
VPORT
  5
8
330
0
100
AcDbSymbolTable
 70
     4
  0
VPORT
  5
2E
330
8
100
AcDbSymbolTableRecord
100
AcDbViewportTableRecord
  2
*ACTIVE
 70
     0
 10
0.0
 20
0.0
 11
1.0
 21
1.0
 12
210.0
 22
148.5
 13
0.0
 23
0.0
 14
10.0
 24
10.0
 15
10.0
 25
10.0
 16
0.0
 26
0.0
 36
1.0
 17
0.0
 27
0.0
 37
0.0
 40
341.0
 41
1.24
 42
50.0
 43
0.0
 44
0.0
 50
0.0
 51
0.0
 71
     0
 72
   100
 73
     1
 74
     3
 75
     0
 76
     0
 77
     0
 78
     0
  0
ENDTAB
  0
TABLE
  2
LTYPE
  5
5
330
0
100
AcDbSymbolTable
 70
     1
  0
LTYPE
  5
14
330
5
100
AcDbSymbolTableRecord
100
AcDbLinetypeTableRecord
  2
BYBLOCK
 70
     0
  3

 72
    65
 73
     0
 40
0.0
  0
LTYPE
  5
15
330
5
100
AcDbSymbolTableRecord
100
AcDbLinetypeTableRecord
  2
BYLAYER
 70
     0
  3

 72
    65
 73
     0
 40
0.0
  0
LTYPE
  5
16
330
5
100
AcDbSymbolTableRecord
100
AcDbLinetypeTableRecord
  2
CONTINUOUS
 70
     0
  3
Solid line
 72
    65
 73
     0
 40
0.0
  0
ENDTAB
  0
TABLE
  2
LAYER
  5
2
100
AcDbSymbolTable
 70
2
  0
LAYER
  5
50
100
AcDbSymbolTableRecord
100
AcDbLayerTableRecord
  2
0
 70
0
  6
CONTINUOUS
  0
LAYER
  5
51
100
AcDbSymbolTableRecord
100
AcDbLayerTableRecord
  2
ABDECKUNG
 70
0
  6
CONTINUOUS
  0
ENDTAB
  0
TABLE
  2
STYLE
  5
3
330
0
100
AcDbSymbolTable
 70
     1
  0
STYLE
  5
11
330
3
100
AcDbSymbolTableRecord
100
AcDbTextStyleTableRecord
  2
STANDARD
 70
     0
 40
0.0
 41
1.0
 50
0.0
 71
     0
 42
2.5
  3
txt
  4

  0
ENDTAB
  0
TABLE
  2
VIEW
  5
6
330
0
100
AcDbSymbolTable
 70
     0
  0
ENDTAB
  0
TABLE
  2
UCS
  5
7
330
0
100
AcDbSymbolTable
 70
     0
  0
ENDTAB
  0
TABLE
  2
APPID
  5
9
330
0
100
AcDbSymbolTable
 70
     2
  0
APPID
  5
12
330
9
100
AcDbSymbolTableRecord
100
AcDbRegAppTableRecord
  2
ACAD
 70
     0
  0
ENDTAB
  0
TABLE
  2
DIMSTYLE
  5
A
330
0
100
AcDbSymbolTable
 70
     1
  0
DIMSTYLE
105
27
330
A
100
AcDbSymbolTableRecord
100
AcDbDimStyleTableRecord
  2
ISO-25
 70
     0
  3

  4

  5

  6

  7

 40
1.0
 41
2.5
 42
0.625
 43
3.75
 44
1.25
 45
0.0
 46
0.0
 47
0.0
 48
0.0
140
2.5
141
2.5
142
0.0
143
0.03937007874016
144
1.0
145
0.0
146
1.0
147
0.625
 71
     0
 72
     0
 73
     0
 74
     0
 75
     0
 76
     0
 77
     1
 78
     8
170
     0
171
     3
172
     1
173
     0
174
     0
175
     0
176
     0
177
     0
178
     0
270
     2
271
     2
272
     2
273
     2
274
     3
340
11
275
     0
280
     0
281
     0
282
     0
283
     0
284
     8
285
     0
286
     0
287
     3
288
     0
  0
ENDTAB
  0
TABLE
  2
BLOCK_RECORD
  5
1
330
0
100
AcDbSymbolTable
 70
     1
  0
BLOCK_RECORD
  5
1F
330
1
100
AcDbSymbolTableRecord
100
AcDbBlockTableRecord
  2
*MODEL_SPACE
  0
BLOCK_RECORD
  5
1B
330
1
100
AcDbSymbolTableRecord
100
AcDbBlockTableRecord
  2
*PAPER_SPACE
  0
ENDTAB
  0
ENDSEC
  0
SECTION
  2
BLOCKS
  0
BLOCK
  5
20
330
1F
100
AcDbEntity
  8
0
100
AcDbBlockBegin
  2
*MODEL_SPACE
 70
     0
 10
0.0
 20
0.0
 30
0.0
  3
*MODEL_SPACE
  1

  0
ENDBLK
  5
21
330
1F
100
AcDbEntity
  8
0
100
AcDbBlockEnd
  0
BLOCK
  5
1C
330
1B
100
AcDbEntity
 67
     1
  8
0
100
AcDbBlockBegin
  2
*PAPER_SPACE
  1

  0
ENDBLK
  5
1D
330
1B
100
AcDbEntity
 67
     1
  8
0
100
AcDbBlockEnd
  0
ENDSEC
  0
SECTION
  2
ENTITIES
  0
SPLINE
  5
100
100
AcDbEntity
  8
ABDECKUNG
 62
7
100
AcDbSpline
 70
8
 71
3
 72
8
 73
4
 74
0
 40
0
 40
0
 40
0
 40
0
 40
1
 40
1
 40
1
 40
1
 10
402.491222
 20
17.891112
 30
0.0
 10
402.491222
 20
18.774806
 30
0.0
 10
401.774942
 20
19.491171
 30
0.0
 10
400.891022
 20
19.491171
 30
0.0
  0
SPLINE
  5
101
100
AcDbEntity
  8
ABDECKUNG
 62
7
100
AcDbSpline
 70
8
 71
3
 72
8
 73
4
 74
0
 40
0
 40
0
 40
0
 40
0
 40
1
 40
1
 40
1
 40
1
 10
400.891022
 20
19.491171
 30
0.0
 10
400.007384
 20
19.491171
 30
0.0
 10
399.291104
 20
18.774806
 30
0.0
 10
399.291104
 20
17.891112
 30
0.0
  0
SPLINE
  5
102
100
AcDbEntity
  8
ABDECKUNG
 62
7
100
AcDbSpline
 70
8
 71
3
 72
8
 73
4
 74
0
 40
0
 40
0
 40
0
 40
0
 40
1
 40
1
 40
1
 40
1
 10
399.291104
 20
17.891112
 30
0.0
 10
399.291104
 20
17.007418
 30
0.0
 10
400.007384
 20
16.291053
 30
0.0
 10
400.891022
 20
16.291053
 30
0.0
  0
SPLINE
  5
103
100
AcDbEntity
  8
ABDECKUNG
 62
7
100
AcDbSpline
 70
8
 71
3
 72
8
 73
4
 74
0
 40
0
 40
0
 40
0
 40
0
 40
1
 40
1
 40
1
 40
1
 10
400.891022
 20
16.291053
 30
0.0
 10
401.774942
 20
16.291053
 30
0.0
 10
402.491222
 20
17.007418
 30
0.0
 10
402.491222
 20
17.891112
 30
0.0
  0
SPLINE
  5
104
100
AcDbEntity
  8
ABDECKUNG
 62
7
100
AcDbSpline
 70
8
 71
3
 72
8
 73
4
 74
0
 40
0
 40
0
 40
0
 40
0
 40
1
 40
1
 40
1
 40
1
 10
7.991122
 20
17.891112
 30
0.0
 10
7.999589
 20
18.781071
 30
0.0
 10
7.281333
 20
19.507342
 30
0.0
 10
6.391204
 20
19.507342
 30
0.0
  0
SPLINE
  5
105
100
AcDbEntity
  8
ABDECKUNG
 62
7
100
AcDbSpline
 70
8
 71
3
 72
8
 73
4
 74
0
 40
0
 40
0
 40
0
 40
0
 40
1
 40
1
 40
1
 40
1
 10
6.391204
 20
19.507342
 30
0.0
 10
5.501076
 20
19.507342
 30
0.0
 10
4.782256
 20
18.781071
 30
0.0
 10
4.791287
 20
17.891112
 30
0.0
  0
SPLINE
  5
106
100
AcDbEntity
  8
ABDECKUNG
 62
7
100
AcDbSpline
 70
8
 71
3
 72
8
 73
4
 74
0
 40
0
 40
0
 40
0
 40
0
 40
1
 40
1
 40
1
 40
1
 10
4.791287
 20
17.891112
 30
0.0
 10
4.782820
 20
17.001152
 30
0.0
 10
5.501076
 20
16.274882
 30
0.0
 10
6.391204
 20
16.274882
 30
0.0
  0
SPLINE
  5
107
100
AcDbEntity
  8
ABDECKUNG
 62
7
100
AcDbSpline
 70
8
 71
3
 72
8
 73
4
 74
0
 40
0
 40
0
 40
0
 40
0
 40
1
 40
1
 40
1
 40
1
 10
6.391204
 20
16.274882
 30
0.0
 10
7.281333
 20
16.274882
 30
0.0
 10
8.000153
 20
17.001152
 30
0.0
 10
7.991122
 20
17.891112
 30
0.0
  0
LWPOLYLINE
  5
108
100
AcDbEntity
  8
ABDECKUNG
 62
7
100
AcDbPolyline
 90
9
 70
1
 10
0.141111
 20
29.811332
 30
0.0
 10
0.141111
 20
67.811312
 30
0.0
 10
407.141116
 20
67.811312
 30
0.0
 10
407.141116
 20
29.811332
 30
0.0
 10
0.141111
 20
29.811332
 30
0.0
 10
0.141111
 20
29.811332
 30
0.0
 10
0.141111
 20
29.811332
 30
0.0
 10
0.141111
 20
29.811332
 30
0.0
 10
0.141111
 20
29.811332
 30
0.0
  0
LWPOLYLINE
  5
109
100
AcDbEntity
  8
ABDECKUNG
 62
7
100
AcDbPolyline
 90
9
 70
1
 10
0.141111
 20
0.141112
 30
0.0
 10
0.141111
 20
25.141119
 30
0.0
 10
407.141116
 20
25.141119
 30
0.0
 10
407.141116
 20
0.141112
 30
0.0
 10
0.141111
 20
0.141112
 30
0.0
 10
0.141111
 20
0.141112
 30
0.0
 10
0.141111
 20
0.141112
 30
0.0
 10
0.141111
 20
0.141112
 30
0.0
 10
0.141111
 20
0.141112
 30
0.0
  0
LWPOLYLINE
  5
10a
100
AcDbEntity
  8
ABDECKUNG
 62
7
100
AcDbPolyline
 90
6
 70
1
 10
402.491222
 20
17.891112
 30
0.0
 10
402.491222
 20
17.891112
 30
0.0
 10
402.491222
 20
17.891112
 30
0.0
 10
402.491222
 20
17.891112
 30
0.0
 10
402.491222
 20
17.891112
 30
0.0
 10
402.491222
 20
17.891112
 30
0.0
  0
SPLINE
  5
10b
100
AcDbEntity
  8
ABDECKUNG
 62
7
100
AcDbSpline
 70
8
 71
3
 72
8
 73
4
 74
0
 40
0
 40
0
 40
0
 40
0
 40
1
 40
1
 40
1
 40
1
 10
0.141111
 20
247.216748
 30
0.0
 10
0.141111
 20
249.978224
 30
0.0
 10
2.379698
 20
252.216819
 30
0.0
 10
5.141242
 20
252.216749
 30
0.0
  0
LWPOLYLINE
  5
10c
100
AcDbEntity
  8
ABDECKUNG
 62
7
100
AcDbPolyline
 90
6
 70
1
 10
7.991122
 20
17.891112
 30
0.0
 10
7.991122
 20
17.891112
 30
0.0
 10
7.991122
 20
17.891112
 30
0.0
 10
7.991122
 20
17.891112
 30
0.0
 10
7.991122
 20
17.891112
 30
0.0
 10
7.991122
 20
17.891112
 30
0.0
  0
SPLINE
  5
10d
100
AcDbEntity
  8
ABDECKUNG
 62
7
100
AcDbSpline
 70
8
 71
3
 72
8
 73
4
 74
0
 40
0
 40
0
 40
0
 40
0
 40
1
 40
1
 40
1
 40
1
 10
402.141267
 20
252.216749
 30
0.0
 10
404.902529
 20
252.216664
 30
0.0
 10
407.141116
 20
249.978111
 30
0.0
 10
407.141116
 20
247.216748
 30
0.0
  0
LWPOLYLINE
  5
10e
100
AcDbEntity
  8
ABDECKUNG
 62
7
100
AcDbPolyline
 90
6
 70
1
 10
415.610040
 20
21.516115
 30
0.0
 10
415.610040
 20
21.516115
 30
0.0
 10
415.610040
 20
21.516115
 30
0.0
 10
415.610040
 20
21.516115
 30
0.0
 10
415.610040
 20
21.516115
 30
0.0
 10
415.610040
 20
21.516115
 30
0.0
  0
SPLINE
  5
10f
100
AcDbEntity
  8
ABDECKUNG
 62
7
100
AcDbSpline
 70
8
 71
3
 72
8
 73
4
 74
0
 40
0
 40
0
 40
0
 40
0
 40
1
 40
1
 40
1
 40
1
 10
407.141116
 20
79.716750
 30
0.0
 10
407.141116
 20
76.955383
 30
0.0
 10
404.902529
 20
74.716833
 30
0.0
 10
402.141267
 20
74.716748
 30
0.0
  0
LWPOLYLINE
  5
110
100
AcDbEntity
  8
ABDECKUNG
 62
7
100
AcDbPolyline
 90
6
 70
1
 10
0.141111
 20
79.716750
 30
0.0
 10
0.141111
 20
247.216748
 30
0.0
 10
0.141111
 20
79.716750
 30
0.0
 10
0.141111
 20
79.716750
 30
0.0
 10
0.141111
 20
79.716750
 30
0.0
 10
0.141111
 20
79.716750
 30
0.0
  0
SPLINE
  5
111
100
AcDbEntity
  8
ABDECKUNG
 62
7
100
AcDbSpline
 70
8
 71
3
 72
8
 73
4
 74
0
 40
0
 40
0
 40
0
 40
0
 40
1
 40
1
 40
1
 40
1
 10
5.141242
 20
74.716748
 30
0.0
 10
2.379698
 20
74.716675
 30
0.0
 10
0.141111
 20
76.955273
 30
0.0
 10
0.141111
 20
79.716750
 30
0.0
  0
LWPOLYLINE
  5
112
100
AcDbEntity
  8
ABDECKUNG
 62
7
100
AcDbPolyline
 90
6
 70
1
 10
5.141242
 20
252.216749
 30
0.0
 10
402.141267
 20
252.216749
 30
0.0
 10
5.141242
 20
252.216749
 30
0.0
 10
5.141242
 20
252.216749
 30
0.0
 10
5.141242
 20
252.216749
 30
0.0
 10
5.141242
 20
252.216749
 30
0.0
  0
SPLINE
  5
113
100
AcDbEntity
  8
ABDECKUNG
 62
7
100
AcDbSpline
 70
8
 71
3
 72
8
 73
4
 74
0
 40
0
 40
0
 40
0
 40
0
 40
1
 40
1
 40
1
 40
1
 10
176.241287
 20
106.716749
 30
0.0
 10
176.241287
 20
107.600438
 30
0.0
 10
175.525007
 20
108.316808
 30
0.0
 10
174.641369
 20
108.316808
 30
0.0
  0
SPLINE
  5
114
100
AcDbEntity
  8
ABDECKUNG
 62
7
100
AcDbSpline
 70
8
 71
3
 72
8
 73
4
 74
0
 40
0
 40
0
 40
0
 40
0
 40
1
 40
1
 40
1
 40
1
 10
174.641369
 20
108.316808
 30
0.0
 10
173.757449
 20
108.316808
 30
0.0
 10
173.041169
 20
107.600438
 30
0.0
 10
173.041169
 20
106.716749
 30
0.0
  0
SPLINE
  5
115
100
AcDbEntity
  8
ABDECKUNG
 62
7
100
AcDbSpline
 70
8
 71
3
 72
8
 73
4
 74
0
 40
0
 40
0
 40
0
 40
0
 40
1
 40
1
 40
1
 40
1
 10
173.041169
 20
106.716749
 30
0.0
 10
173.041169
 20
105.833061
 30
0.0
 10
173.757449
 20
105.116690
 30
0.0
 10
174.641369
 20
105.116690
 30
0.0
  0
SPLINE
  5
116
100
AcDbEntity
  8
ABDECKUNG
 62
7
100
AcDbSpline
 70
8
 71
3
 72
8
 73
4
 74
0
 40
0
 40
0
 40
0
 40
0
 40
1
 40
1
 40
1
 40
1
 10
174.641369
 20
105.116690
 30
0.0
 10
175.525007
 20
105.116690
 30
0.0
 10
176.241287
 20
105.833061
 30
0.0
 10
176.241287
 20
106.716749
 30
0.0
  0
LWPOLYLINE
  5
117
100
AcDbEntity
  8
ABDECKUNG
 62
7
100
AcDbPolyline
 90
6
 70
1
 10
407.141116
 20
247.216748
 30
0.0
 10
407.141116
 20
79.716750
 30
0.0
 10
407.141116
 20
247.216748
 30
0.0
 10
407.141116
 20
247.216748
 30
0.0
 10
407.141116
 20
247.216748
 30
0.0
 10
407.141116
 20
247.216748
 30
0.0
  0
SPLINE
  5
118
100
AcDbEntity
  8
ABDECKUNG
 62
7
100
AcDbSpline
 70
8
 71
3
 72
8
 73
4
 74
0
 40
0
 40
0
 40
0
 40
0
 40
1
 40
1
 40
1
 40
1
 10
234.241058
 20
106.716749
 30
0.0
 10
234.249524
 20
107.606697
 30
0.0
 10
233.531269
 20
108.332960
 30
0.0
 10
232.641140
 20
108.332960
 30
0.0
  0
SPLINE
  5
119
100
AcDbEntity
  8
ABDECKUNG
 62
7
100
AcDbSpline
 70
8
 71
3
 72
8
 73
4
 74
0
 40
0
 40
0
 40
0
 40
0
 40
1
 40
1
 40
1
 40
1
 10
232.641140
 20
108.332960
 30
0.0
 10
231.751011
 20
108.332960
 30
0.0
 10
231.032191
 20
107.606697
 30
0.0
 10
231.041222
 20
106.716749
 30
0.0
  0
SPLINE
  5
11a
100
AcDbEntity
  8
ABDECKUNG
 62
7
100
AcDbSpline
 70
8
 71
3
 72
8
 73
4
 74
0
 40
0
 40
0
 40
0
 40
0
 40
1
 40
1
 40
1
 40
1
 10
231.041222
 20
106.716749
 30
0.0
 10
231.032756
 20
105.826801
 30
0.0
 10
231.751011
 20
105.100539
 30
0.0
 10
232.641140
 20
105.100539
 30
0.0
  0
SPLINE
  5
11b
100
AcDbEntity
  8
ABDECKUNG
 62
7
100
AcDbSpline
 70
8
 71
3
 72
8
 73
4
 74
0
 40
0
 40
0
 40
0
 40
0
 40
1
 40
1
 40
1
 40
1
 10
232.641140
 20
105.100539
 30
0.0
 10
233.531269
 20
105.100539
 30
0.0
 10
234.250089
 20
105.826801
 30
0.0
 10
234.241058
 20
106.716749
 30
0.0
  0
LWPOLYLINE
  5
11c
100
AcDbEntity
  8
ABDECKUNG
 62
7
100
AcDbPolyline
 90
6
 70
1
 10
402.141267
 20
74.716748
 30
0.0
 10
5.141242
 20
74.716748
 30
0.0
 10
402.141267
 20
74.716748
 30
0.0
 10
402.141267
 20
74.716748
 30
0.0
 10
402.141267
 20
74.716748
 30
0.0
 10
402.141267
 20
74.716748
 30
0.0
  0
LWPOLYLINE
  5
11d
100
AcDbEntity
  8
ABDECKUNG
 62
7
100
AcDbPolyline
 90
6
 70
1
 10
0.141111
 20
79.716750
 30
0.0
 10
0.141111
 20
79.716750
 30
0.0
 10
0.141111
 20
79.716750
 30
0.0
 10
0.141111
 20
79.716750
 30
0.0
 10
0.141111
 20
79.716750
 30
0.0
 10
0.141111
 20
79.716750
 30
0.0
  0
SPLINE
  5
11e
100
AcDbEntity
  8
ABDECKUNG
 62
7
100
AcDbSpline
 70
8
 71
3
 72
8
 73
4
 74
0
 40
0
 40
0
 40
0
 40
0
 40
1
 40
1
 40
1
 40
1
 10
206.641136
 20
85.966750
 30
0.0
 10
206.641136
 20
87.623617
 30
0.0
 10
205.298040
 20
88.966772
 30
0.0
 10
203.641113
 20
88.966772
 30
0.0
  0
SPLINE
  5
11f
100
AcDbEntity
  8
ABDECKUNG
 62
7
100
AcDbSpline
 70
8
 71
3
 72
8
 73
4
 74
0
 40
0
 40
0
 40
0
 40
0
 40
1
 40
1
 40
1
 40
1
 10
203.641113
 20
88.966772
 30
0.0
 10
201.984187
 20
88.966772
 30
0.0
 10
200.641091
 20
87.623617
 30
0.0
 10
200.641091
 20
85.966750
 30
0.0
  0
SPLINE
  5
120
100
AcDbEntity
  8
ABDECKUNG
 62
7
100
AcDbSpline
 70
8
 71
3
 72
8
 73
4
 74
0
 40
0
 40
0
 40
0
 40
0
 40
1
 40
1
 40
1
 40
1
 10
200.641091
 20
85.966750
 30
0.0
 10
200.641091
 20
84.309882
 30
0.0
 10
201.984187
 20
82.966728
 30
0.0
 10
203.641113
 20
82.966728
 30
0.0
  0
SPLINE
  5
121
100
AcDbEntity
  8
ABDECKUNG
 62
7
100
AcDbSpline
 70
8
 71
3
 72
8
 73
4
 74
0
 40
0
 40
0
 40
0
 40
0
 40
1
 40
1
 40
1
 40
1
 10
203.641113
 20
82.966728
 30
0.0
 10
205.298040
 20
82.966728
 30
0.0
 10
206.641136
 20
84.309882
 30
0.0
 10
206.641136
 20
85.966750
 30
0.0
  0
LWPOLYLINE
  5
122
100
AcDbEntity
  8
ABDECKUNG
 62
7
100
AcDbPolyline
 90
6
 70
1
 10
176.241287
 20
106.716749
 30
0.0
 10
176.241287
 20
106.716749
 30
0.0
 10
176.241287
 20
106.716749
 30
0.0
 10
176.241287
 20
106.716749
 30
0.0
 10
176.241287
 20
106.716749
 30
0.0
 10
176.241287
 20
106.716749
 30
0.0
  0
LWPOLYLINE
  5
123
100
AcDbEntity
  8
ABDECKUNG
 62
7
100
AcDbPolyline
 90
6
 70
1
 10
234.241058
 20
106.716749
 30
0.0
 10
234.241058
 20
106.716749
 30
0.0
 10
234.241058
 20
106.716749
 30
0.0
 10
234.241058
 20
106.716749
 30
0.0
 10
234.241058
 20
106.716749
 30
0.0
 10
234.241058
 20
106.716749
 30
0.0
  0
LWPOLYLINE
  5
124
100
AcDbEntity
  8
ABDECKUNG
 62
7
100
AcDbPolyline
 90
6
 70
1
 10
206.641136
 20
85.966750
 30
0.0
 10
206.641136
 20
85.966750
 30
0.0
 10
206.641136
 20
85.966750
 30
0.0
 10
206.641136
 20
85.966750
 30
0.0
 10
206.641136
 20
85.966750
 30
0.0
 10
206.641136
 20
85.966750
 30
0.0
  0
ENDSEC
  0
SECTION
  2
OBJECTS
  0
DICTIONARY
  5
C
330
0
100
AcDbDictionary
  3
ACAD_GROUP
350
D
  3
ACAD_MLINESTYLE
350
17
  0
DICTIONARY
  5
D
330
C
100
AcDbDictionary
  0
DICTIONARY
  5
1A
330
C
100
AcDbDictionary
  0
DICTIONARY
  5
17
330
C
100
AcDbDictionary
  3
STANDARD
350
18
  0
DICTIONARY
  5
19
330
C
100
AcDbDictionary
  0
ENDSEC
  0
EOF
