  0
SECTION
  2
HEADER
  9
$ACADVER
  1
AC1014
  9
$HANDSEED
  5
FFFF
  9
$MEASUREMENT
 70
     1
  0
ENDSEC
  0
SECTION
  2
TABLES
  0
TABLE
  2
VPORT
  5
8
330
0
100
AcDbSymbolTable
 70
     4
  0
VPORT
  5
2E
330
8
100
AcDbSymbolTableRecord
100
AcDbViewportTableRecord
  2
*ACTIVE
 70
     0
 10
0.0
 20
0.0
 11
1.0
 21
1.0
 12
210.0
 22
148.5
 13
0.0
 23
0.0
 14
10.0
 24
10.0
 15
10.0
 25
10.0
 16
0.0
 26
0.0
 36
1.0
 17
0.0
 27
0.0
 37
0.0
 40
341.0
 41
1.24
 42
50.0
 43
0.0
 44
0.0
 50
0.0
 51
0.0
 71
     0
 72
   100
 73
     1
 74
     3
 75
     0
 76
     0
 77
     0
 78
     0
  0
ENDTAB
  0
TABLE
  2
LTYPE
  5
5
330
0
100
AcDbSymbolTable
 70
     1
  0
LTYPE
  5
14
330
5
100
AcDbSymbolTableRecord
100
AcDbLinetypeTableRecord
  2
BYBLOCK
 70
     0
  3

 72
    65
 73
     0
 40
0.0
  0
LTYPE
  5
15
330
5
100
AcDbSymbolTableRecord
100
AcDbLinetypeTableRecord
  2
BYLAYER
 70
     0
  3

 72
    65
 73
     0
 40
0.0
  0
LTYPE
  5
16
330
5
100
AcDbSymbolTableRecord
100
AcDbLinetypeTableRecord
  2
CONTINUOUS
 70
     0
  3
Solid line
 72
    65
 73
     0
 40
0.0
  0
ENDTAB
  0
TABLE
  2
LAYER
  5
2
100
AcDbSymbolTable
 70
2
  0
LAYER
  5
50
100
AcDbSymbolTableRecord
100
AcDbLayerTableRecord
  2
0
 70
0
  6
CONTINUOUS
  0
LAYER
  5
51
100
AcDbSymbolTableRecord
100
AcDbLayerTableRecord
  2
ABDECKUNG
 70
0
  6
CONTINUOUS
  0
ENDTAB
  0
TABLE
  2
STYLE
  5
3
330
0
100
AcDbSymbolTable
 70
     1
  0
STYLE
  5
11
330
3
100
AcDbSymbolTableRecord
100
AcDbTextStyleTableRecord
  2
STANDARD
 70
     0
 40
0.0
 41
1.0
 50
0.0
 71
     0
 42
2.5
  3
txt
  4

  0
ENDTAB
  0
TABLE
  2
VIEW
  5
6
330
0
100
AcDbSymbolTable
 70
     0
  0
ENDTAB
  0
TABLE
  2
UCS
  5
7
330
0
100
AcDbSymbolTable
 70
     0
  0
ENDTAB
  0
TABLE
  2
APPID
  5
9
330
0
100
AcDbSymbolTable
 70
     2
  0
APPID
  5
12
330
9
100
AcDbSymbolTableRecord
100
AcDbRegAppTableRecord
  2
ACAD
 70
     0
  0
ENDTAB
  0
TABLE
  2
DIMSTYLE
  5
A
330
0
100
AcDbSymbolTable
 70
     1
  0
DIMSTYLE
105
27
330
A
100
AcDbSymbolTableRecord
100
AcDbDimStyleTableRecord
  2
ISO-25
 70
     0
  3

  4

  5

  6

  7

 40
1.0
 41
2.5
 42
0.625
 43
3.75
 44
1.25
 45
0.0
 46
0.0
 47
0.0
 48
0.0
140
2.5
141
2.5
142
0.0
143
0.03937007874016
144
1.0
145
0.0
146
1.0
147
0.625
 71
     0
 72
     0
 73
     0
 74
     0
 75
     0
 76
     0
 77
     1
 78
     8
170
     0
171
     3
172
     1
173
     0
174
     0
175
     0
176
     0
177
     0
178
     0
270
     2
271
     2
272
     2
273
     2
274
     3
340
11
275
     0
280
     0
281
     0
282
     0
283
     0
284
     8
285
     0
286
     0
287
     3
288
     0
  0
ENDTAB
  0
TABLE
  2
BLOCK_RECORD
  5
1
330
0
100
AcDbSymbolTable
 70
     1
  0
BLOCK_RECORD
  5
1F
330
1
100
AcDbSymbolTableRecord
100
AcDbBlockTableRecord
  2
*MODEL_SPACE
  0
BLOCK_RECORD
  5
1B
330
1
100
AcDbSymbolTableRecord
100
AcDbBlockTableRecord
  2
*PAPER_SPACE
  0
ENDTAB
  0
ENDSEC
  0
SECTION
  2
BLOCKS
  0
BLOCK
  5
20
330
1F
100
AcDbEntity
  8
0
100
AcDbBlockBegin
  2
*MODEL_SPACE
 70
     0
 10
0.0
 20
0.0
 30
0.0
  3
*MODEL_SPACE
  1

  0
ENDBLK
  5
21
330
1F
100
AcDbEntity
  8
0
100
AcDbBlockEnd
  0
BLOCK
  5
1C
330
1B
100
AcDbEntity
 67
     1
  8
0
100
AcDbBlockBegin
  2
*PAPER_SPACE
  1

  0
ENDBLK
  5
1D
330
1B
100
AcDbEntity
 67
     1
  8
0
100
AcDbBlockEnd
  0
ENDSEC
  0
SECTION
  2
ENTITIES
  0
SPLINE
  5
100
100
AcDbEntity
  8
ABDECKUNG
 62
7
100
AcDbSpline
 70
8
 71
3
 72
8
 73
4
 74
0
 40
0
 40
0
 40
0
 40
0
 40
1
 40
1
 40
1
 40
1
 10
307.073272
 20
40.495877
 30
0.0
 10
307.753964
 20
40.102875
 30
0.0
 10
308.592615
 20
40.102875
 30
0.0
 10
309.273335
 20
40.495877
 30
0.0
  0
SPLINE
  5
101
100
AcDbEntity
  8
ABDECKUNG
 62
7
100
AcDbSpline
 70
8
 71
3
 72
8
 73
4
 74
0
 40
0
 40
0
 40
0
 40
0
 40
1
 40
1
 40
1
 40
1
 10
309.273335
 20
40.495877
 30
0.0
 10
309.954027
 20
40.888886
 30
0.0
 10
310.373353
 20
41.615188
 30
0.0
 10
310.373353
 20
42.401194
 30
0.0
  0
SPLINE
  5
102
100
AcDbEntity
  8
ABDECKUNG
 62
7
100
AcDbSpline
 70
8
 71
3
 72
8
 73
4
 74
0
 40
0
 40
0
 40
0
 40
0
 40
1
 40
1
 40
1
 40
1
 10
310.373353
 20
42.401194
 30
0.0
 10
310.373353
 20
43.187197
 30
0.0
 10
309.954027
 20
43.913495
 30
0.0
 10
309.273335
 20
44.306498
 30
0.0
  0
SPLINE
  5
103
100
AcDbEntity
  8
ABDECKUNG
 62
7
100
AcDbSpline
 70
8
 71
3
 72
8
 73
4
 74
0
 40
0
 40
0
 40
0
 40
0
 40
1
 40
1
 40
1
 40
1
 10
309.273335
 20
44.306498
 30
0.0
 10
308.592615
 20
44.699507
 30
0.0
 10
307.753964
 20
44.699507
 30
0.0
 10
307.073272
 20
44.306498
 30
0.0
  0
SPLINE
  5
104
100
AcDbEntity
  8
ABDECKUNG
 62
7
100
AcDbSpline
 70
8
 71
3
 72
8
 73
4
 74
0
 40
0
 40
0
 40
0
 40
0
 40
1
 40
1
 40
1
 40
1
 10
307.073272
 20
44.306498
 30
0.0
 10
306.392552
 20
43.913495
 30
0.0
 10
305.973226
 20
43.187197
 30
0.0
 10
305.973226
 20
42.401194
 30
0.0
  0
SPLINE
  5
105
100
AcDbEntity
  8
ABDECKUNG
 62
7
100
AcDbSpline
 70
8
 71
3
 72
8
 73
4
 74
0
 40
0
 40
0
 40
0
 40
0
 40
1
 40
1
 40
1
 40
1
 10
305.973226
 20
42.401194
 30
0.0
 10
305.973226
 20
41.615188
 30
0.0
 10
306.392552
 20
40.888886
 30
0.0
 10
307.073272
 20
40.495877
 30
0.0
  0
SPLINE
  5
106
100
AcDbEntity
  8
ABDECKUNG
 62
7
100
AcDbSpline
 70
8
 71
3
 72
8
 73
4
 74
0
 40
0
 40
0
 40
0
 40
0
 40
1
 40
1
 40
1
 40
1
 10
310.373353
 20
21.181187
 30
0.0
 10
310.373353
 20
21.967196
 30
0.0
 10
309.954027
 20
22.693492
 30
0.0
 10
309.273335
 20
23.086495
 30
0.0
  0
SPLINE
  5
107
100
AcDbEntity
  8
ABDECKUNG
 62
7
100
AcDbSpline
 70
8
 71
3
 72
8
 73
4
 74
0
 40
0
 40
0
 40
0
 40
0
 40
1
 40
1
 40
1
 40
1
 10
309.273335
 20
23.086495
 30
0.0
 10
308.592615
 20
23.479503
 30
0.0
 10
307.753964
 20
23.479503
 30
0.0
 10
307.073272
 20
23.086495
 30
0.0
  0
SPLINE
  5
108
100
AcDbEntity
  8
ABDECKUNG
 62
7
100
AcDbSpline
 70
8
 71
3
 72
8
 73
4
 74
0
 40
0
 40
0
 40
0
 40
0
 40
1
 40
1
 40
1
 40
1
 10
307.073272
 20
23.086495
 30
0.0
 10
306.392552
 20
22.693492
 30
0.0
 10
305.973226
 20
21.967196
 30
0.0
 10
305.973226
 20
21.181187
 30
0.0
  0
SPLINE
  5
109
100
AcDbEntity
  8
ABDECKUNG
 62
7
100
AcDbSpline
 70
8
 71
3
 72
8
 73
4
 74
0
 40
0
 40
0
 40
0
 40
0
 40
1
 40
1
 40
1
 40
1
 10
305.973226
 20
21.181187
 30
0.0
 10
305.973226
 20
20.395175
 30
0.0
 10
306.392552
 20
19.668877
 30
0.0
 10
307.073272
 20
19.275874
 30
0.0
  0
SPLINE
  5
10a
100
AcDbEntity
  8
ABDECKUNG
 62
7
100
AcDbSpline
 70
8
 71
3
 72
8
 73
4
 74
0
 40
0
 40
0
 40
0
 40
0
 40
1
 40
1
 40
1
 40
1
 10
307.073272
 20
19.275874
 30
0.0
 10
307.753964
 20
18.882874
 30
0.0
 10
308.592615
 20
18.882874
 30
0.0
 10
309.273335
 20
19.275874
 30
0.0
  0
SPLINE
  5
10b
100
AcDbEntity
  8
ABDECKUNG
 62
7
100
AcDbSpline
 70
8
 71
3
 72
8
 73
4
 74
0
 40
0
 40
0
 40
0
 40
0
 40
1
 40
1
 40
1
 40
1
 10
309.273335
 20
19.275874
 30
0.0
 10
309.954027
 20
19.668877
 30
0.0
 10
310.373353
 20
20.395175
 30
0.0
 10
310.373353
 20
21.181187
 30
0.0
  0
LWPOLYLINE
  5
10c
100
AcDbEntity
  8
ABDECKUNG
 62
7
100
AcDbPolyline
 90
10
 70
1
 10
1.423222
 20
0.141167
 30
0.0
 10
315.373117
 20
0.141111
 30
0.0
 10
315.373117
 20
165.141069
 30
0.0
 10
0.141111
 20
165.141069
 30
0.0
 10
0.141111
 20
0.141111
 30
0.0
 10
1.423222
 20
0.141167
 30
0.0
 10
1.423222
 20
0.141167
 30
0.0
 10
1.423222
 20
0.141167
 30
0.0
 10
1.423222
 20
0.141167
 30
0.0
 10
1.423222
 20
0.141167
 30
0.0
  0
LWPOLYLINE
  5
10d
100
AcDbEntity
  8
ABDECKUNG
 62
7
100
AcDbPolyline
 90
8
 70
1
 10
250.752161
 20
0.141167
 30
0.0
 10
250.752161
 20
0.141167
 30
0.0
 10
250.752161
 20
0.141167
 30
0.0
 10
250.752161
 20
0.141167
 30
0.0
 10
250.752161
 20
0.141167
 30
0.0
 10
250.752161
 20
0.141167
 30
0.0
 10
250.752161
 20
0.141167
 30
0.0
 10
250.752161
 20
0.141167
 30
0.0
  0
LWPOLYLINE
  5
10e
100
AcDbEntity
  8
ABDECKUNG
 62
7
100
AcDbPolyline
 90
8
 70
1
 10
307.073272
 20
40.495877
 30
0.0
 10
307.073272
 20
40.495877
 30
0.0
 10
307.073272
 20
40.495877
 30
0.0
 10
307.073272
 20
40.495877
 30
0.0
 10
307.073272
 20
40.495877
 30
0.0
 10
307.073272
 20
40.495877
 30
0.0
 10
307.073272
 20
40.495877
 30
0.0
 10
307.073272
 20
40.495877
 30
0.0
  0
SPLINE
  5
10f
100
AcDbEntity
  8
ABDECKUNG
 62
7
100
AcDbSpline
 70
8
 71
3
 72
8
 73
4
 74
0
 40
0
 40
0
 40
0
 40
0
 40
1
 40
1
 40
1
 40
1
 10
292.223359
 20
156.846465
 30
0.0
 10
291.542668
 20
157.239468
 30
0.0
 10
290.704016
 20
157.239468
 30
0.0
 10
290.023324
 20
156.846465
 30
0.0
  0
SPLINE
  5
110
100
AcDbEntity
  8
ABDECKUNG
 62
7
100
AcDbSpline
 70
8
 71
3
 72
8
 73
4
 74
0
 40
0
 40
0
 40
0
 40
0
 40
1
 40
1
 40
1
 40
1
 10
290.023324
 20
156.846465
 30
0.0
 10
289.342604
 20
156.453462
 30
0.0
 10
288.923278
 20
155.727163
 30
0.0
 10
288.923278
 20
154.941149
 30
0.0
  0
SPLINE
  5
111
100
AcDbEntity
  8
ABDECKUNG
 62
7
100
AcDbSpline
 70
8
 71
3
 72
8
 73
4
 74
0
 40
0
 40
0
 40
0
 40
0
 40
1
 40
1
 40
1
 40
1
 10
288.923278
 20
154.941149
 30
0.0
 10
288.923278
 20
154.155146
 30
0.0
 10
289.342604
 20
153.428847
 30
0.0
 10
290.023324
 20
153.035844
 30
0.0
  0
SPLINE
  5
112
100
AcDbEntity
  8
ABDECKUNG
 62
7
100
AcDbSpline
 70
8
 71
3
 72
8
 73
4
 74
0
 40
0
 40
0
 40
0
 40
0
 40
1
 40
1
 40
1
 40
1
 10
290.023324
 20
153.035844
 30
0.0
 10
290.704016
 20
152.642841
 30
0.0
 10
291.542668
 20
152.642841
 30
0.0
 10
292.223359
 20
153.035844
 30
0.0
  0
SPLINE
  5
113
100
AcDbEntity
  8
ABDECKUNG
 62
7
100
AcDbSpline
 70
8
 71
3
 72
8
 73
4
 74
0
 40
0
 40
0
 40
0
 40
0
 40
1
 40
1
 40
1
 40
1
 10
292.223359
 20
153.035844
 30
0.0
 10
292.904079
 20
153.428847
 30
0.0
 10
293.323405
 20
154.155146
 30
0.0
 10
293.323405
 20
154.941149
 30
0.0
  0
SPLINE
  5
114
100
AcDbEntity
  8
ABDECKUNG
 62
7
100
AcDbSpline
 70
8
 71
3
 72
8
 73
4
 74
0
 40
0
 40
0
 40
0
 40
0
 40
1
 40
1
 40
1
 40
1
 10
293.323405
 20
154.941149
 30
0.0
 10
293.323405
 20
155.727163
 30
0.0
 10
292.904079
 20
156.453462
 30
0.0
 10
292.223359
 20
156.846465
 30
0.0
  0
SPLINE
  5
115
100
AcDbEntity
  8
ABDECKUNG
 62
7
100
AcDbSpline
 70
8
 71
3
 72
8
 73
4
 74
0
 40
0
 40
0
 40
0
 40
0
 40
1
 40
1
 40
1
 40
1
 10
6.517884
 20
44.321871
 30
0.0
 10
5.834491
 20
43.924748
 30
0.0
 10
5.416650
 20
43.191563
 30
0.0
 10
5.423300
 20
42.401194
 30
0.0
  0
SPLINE
  5
116
100
AcDbEntity
  8
ABDECKUNG
 62
7
100
AcDbSpline
 70
8
 71
3
 72
8
 73
4
 74
0
 40
0
 40
0
 40
0
 40
0
 40
1
 40
1
 40
1
 40
1
 10
5.423300
 20
42.401194
 30
0.0
 10
5.416648
 20
41.610825
 30
0.0
 10
5.834491
 20
40.877634
 30
0.0
 10
6.517884
 20
40.480519
 30
0.0
  0
SPLINE
  5
117
100
AcDbEntity
  8
ABDECKUNG
 62
7
100
AcDbSpline
 70
8
 71
3
 72
8
 73
4
 74
0
 40
0
 40
0
 40
0
 40
0
 40
1
 40
1
 40
1
 40
1
 10
6.517884
 20
40.480519
 30
0.0
 10
7.201274
 20
40.083396
 30
0.0
 10
8.045171
 20
40.083396
 30
0.0
 10
8.728563
 20
40.480519
 30
0.0
  0
SPLINE
  5
118
100
AcDbEntity
  8
ABDECKUNG
 62
7
100
AcDbSpline
 70
8
 71
3
 72
8
 73
4
 74
0
 40
0
 40
0
 40
0
 40
0
 40
1
 40
1
 40
1
 40
1
 10
8.728563
 20
40.480519
 30
0.0
 10
9.411954
 20
40.877634
 30
0.0
 10
9.829797
 20
41.610825
 30
0.0
 10
9.823145
 20
42.401194
 30
0.0
  0
SPLINE
  5
119
100
AcDbEntity
  8
ABDECKUNG
 62
7
100
AcDbSpline
 70
8
 71
3
 72
8
 73
4
 74
0
 40
0
 40
0
 40
0
 40
0
 40
1
 40
1
 40
1
 40
1
 10
9.823145
 20
42.401194
 30
0.0
 10
9.829797
 20
43.191563
 30
0.0
 10
9.411954
 20
43.924748
 30
0.0
 10
8.728563
 20
44.321871
 30
0.0
  0
SPLINE
  5
11a
100
AcDbEntity
  8
ABDECKUNG
 62
7
100
AcDbSpline
 70
8
 71
3
 72
8
 73
4
 74
0
 40
0
 40
0
 40
0
 40
0
 40
1
 40
1
 40
1
 40
1
 10
8.728563
 20
44.321871
 30
0.0
 10
8.045171
 20
44.718986
 30
0.0
 10
7.201274
 20
44.718986
 30
0.0
 10
6.517884
 20
44.321871
 30
0.0
  0
LWPOLYLINE
  5
11b
100
AcDbEntity
  8
ABDECKUNG
 62
7
100
AcDbPolyline
 90
8
 70
1
 10
310.373353
 20
21.181187
 30
0.0
 10
310.373353
 20
21.181187
 30
0.0
 10
310.373353
 20
21.181187
 30
0.0
 10
310.373353
 20
21.181187
 30
0.0
 10
310.373353
 20
21.181187
 30
0.0
 10
310.373353
 20
21.181187
 30
0.0
 10
310.373353
 20
21.181187
 30
0.0
 10
310.373353
 20
21.181187
 30
0.0
  0
SPLINE
  5
11c
100
AcDbEntity
  8
ABDECKUNG
 62
7
100
AcDbSpline
 70
8
 71
3
 72
8
 73
4
 74
0
 40
0
 40
0
 40
0
 40
0
 40
1
 40
1
 40
1
 40
1
 10
9.823145
 20
21.181187
 30
0.0
 10
9.829797
 20
21.971556
 30
0.0
 10
9.411954
 20
22.704747
 30
0.0
 10
8.728563
 20
23.101862
 30
0.0
  0
SPLINE
  5
11d
100
AcDbEntity
  8
ABDECKUNG
 62
7
100
AcDbSpline
 70
8
 71
3
 72
8
 73
4
 74
0
 40
0
 40
0
 40
0
 40
0
 40
1
 40
1
 40
1
 40
1
 10
8.728563
 20
23.101862
 30
0.0
 10
8.045171
 20
23.498974
 30
0.0
 10
7.201274
 20
23.498974
 30
0.0
 10
6.517884
 20
23.101862
 30
0.0
  0
SPLINE
  5
11e
100
AcDbEntity
  8
ABDECKUNG
 62
7
100
AcDbSpline
 70
8
 71
3
 72
8
 73
4
 74
0
 40
0
 40
0
 40
0
 40
0
 40
1
 40
1
 40
1
 40
1
 10
6.517884
 20
23.101862
 30
0.0
 10
5.834491
 20
22.704747
 30
0.0
 10
5.416650
 20
21.971556
 30
0.0
 10
5.423300
 20
21.181187
 30
0.0
  0
SPLINE
  5
11f
100
AcDbEntity
  8
ABDECKUNG
 62
7
100
AcDbSpline
 70
8
 71
3
 72
8
 73
4
 74
0
 40
0
 40
0
 40
0
 40
0
 40
1
 40
1
 40
1
 40
1
 10
5.423300
 20
21.181187
 30
0.0
 10
5.416648
 20
20.390821
 30
0.0
 10
5.834491
 20
19.657622
 30
0.0
 10
6.517884
 20
19.260507
 30
0.0
  0
SPLINE
  5
120
100
AcDbEntity
  8
ABDECKUNG
 62
7
100
AcDbSpline
 70
8
 71
3
 72
8
 73
4
 74
0
 40
0
 40
0
 40
0
 40
0
 40
1
 40
1
 40
1
 40
1
 10
6.517884
 20
19.260507
 30
0.0
 10
7.201274
 20
18.863395
 30
0.0
 10
8.045171
 20
18.863395
 30
0.0
 10
8.728563
 20
19.260507
 30
0.0
  0
SPLINE
  5
121
100
AcDbEntity
  8
ABDECKUNG
 62
7
100
AcDbSpline
 70
8
 71
3
 72
8
 73
4
 74
0
 40
0
 40
0
 40
0
 40
0
 40
1
 40
1
 40
1
 40
1
 10
8.728563
 20
19.260507
 30
0.0
 10
9.411954
 20
19.657622
 30
0.0
 10
9.829797
 20
20.390821
 30
0.0
 10
9.823145
 20
21.181187
 30
0.0
  0
LWPOLYLINE
  5
122
100
AcDbEntity
  8
ABDECKUNG
 62
7
100
AcDbPolyline
 90
9
 70
1
 10
310.373353
 20
42.401194
 30
0.0
 10
310.373353
 20
42.401194
 30
0.0
 10
310.373353
 20
42.401194
 30
0.0
 10
310.373353
 20
42.401194
 30
0.0
 10
310.373353
 20
42.401194
 30
0.0
 10
310.373353
 20
42.401194
 30
0.0
 10
310.373353
 20
42.401194
 30
0.0
 10
310.373353
 20
42.401194
 30
0.0
 10
310.373353
 20
42.401194
 30
0.0
  0
LWPOLYLINE
  5
123
100
AcDbEntity
  8
ABDECKUNG
 62
7
100
AcDbPolyline
 90
9
 70
1
 10
310.373353
 20
21.181187
 30
0.0
 10
310.373353
 20
21.181187
 30
0.0
 10
310.373353
 20
21.181187
 30
0.0
 10
310.373353
 20
21.181187
 30
0.0
 10
310.373353
 20
21.181187
 30
0.0
 10
310.373353
 20
21.181187
 30
0.0
 10
310.373353
 20
21.181187
 30
0.0
 10
310.373353
 20
21.181187
 30
0.0
 10
310.373353
 20
21.181187
 30
0.0
  0
LWPOLYLINE
  5
124
100
AcDbEntity
  8
ABDECKUNG
 62
7
100
AcDbPolyline
 90
8
 70
1
 10
6.517884
 20
44.321871
 30
0.0
 10
6.517884
 20
44.321871
 30
0.0
 10
6.517884
 20
44.321871
 30
0.0
 10
6.517884
 20
44.321871
 30
0.0
 10
6.517884
 20
44.321871
 30
0.0
 10
6.517884
 20
44.321871
 30
0.0
 10
6.517884
 20
44.321871
 30
0.0
 10
6.517884
 20
44.321871
 30
0.0
  0
LWPOLYLINE
  5
125
100
AcDbEntity
  8
ABDECKUNG
 62
7
100
AcDbPolyline
 90
8
 70
1
 10
9.823145
 20
21.181187
 30
0.0
 10
9.823145
 20
21.181187
 30
0.0
 10
9.823145
 20
21.181187
 30
0.0
 10
9.823145
 20
21.181187
 30
0.0
 10
9.823145
 20
21.181187
 30
0.0
 10
9.823145
 20
21.181187
 30
0.0
 10
9.823145
 20
21.181187
 30
0.0
 10
9.823145
 20
21.181187
 30
0.0
  0
SPLINE
  5
126
100
AcDbEntity
  8
ABDECKUNG
 62
7
100
AcDbSpline
 70
8
 71
3
 72
8
 73
4
 74
0
 40
0
 40
0
 40
0
 40
0
 40
1
 40
1
 40
1
 40
1
 10
25.773426
 20
156.846465
 30
0.0
 10
25.092724
 20
157.239468
 30
0.0
 10
24.254065
 20
157.239468
 30
0.0
 10
23.573363
 20
156.846465
 30
0.0
  0
SPLINE
  5
127
100
AcDbEntity
  8
ABDECKUNG
 62
7
100
AcDbSpline
 70
8
 71
3
 72
8
 73
4
 74
0
 40
0
 40
0
 40
0
 40
0
 40
1
 40
1
 40
1
 40
1
 10
23.573363
 20
156.846465
 30
0.0
 10
22.892661
 20
156.453462
 30
0.0
 10
22.473331
 20
155.727163
 30
0.0
 10
22.473331
 20
154.941151
 30
0.0
  0
SPLINE
  5
128
100
AcDbEntity
  8
ABDECKUNG
 62
7
100
AcDbSpline
 70
8
 71
3
 72
8
 73
4
 74
0
 40
0
 40
0
 40
0
 40
0
 40
1
 40
1
 40
1
 40
1
 10
22.473331
 20
154.941151
 30
0.0
 10
22.473331
 20
154.155146
 30
0.0
 10
22.892661
 20
153.428847
 30
0.0
 10
23.573363
 20
153.035844
 30
0.0
  0
SPLINE
  5
129
100
AcDbEntity
  8
ABDECKUNG
 62
7
100
AcDbSpline
 70
8
 71
3
 72
8
 73
4
 74
0
 40
0
 40
0
 40
0
 40
0
 40
1
 40
1
 40
1
 40
1
 10
23.573363
 20
153.035844
 30
0.0
 10
24.254065
 20
152.642841
 30
0.0
 10
25.092724
 20
152.642841
 30
0.0
 10
25.773426
 20
153.035844
 30
0.0
  0
SPLINE
  5
12a
100
AcDbEntity
  8
ABDECKUNG
 62
7
100
AcDbSpline
 70
8
 71
3
 72
8
 73
4
 74
0
 40
0
 40
0
 40
0
 40
0
 40
1
 40
1
 40
1
 40
1
 10
25.773426
 20
153.035844
 30
0.0
 10
26.454129
 20
153.428847
 30
0.0
 10
26.873458
 20
154.155146
 30
0.0
 10
26.873458
 20
154.941151
 30
0.0
  0
SPLINE
  5
12b
100
AcDbEntity
  8
ABDECKUNG
 62
7
100
AcDbSpline
 70
8
 71
3
 72
8
 73
4
 74
0
 40
0
 40
0
 40
0
 40
0
 40
1
 40
1
 40
1
 40
1
 10
26.873458
 20
154.941151
 30
0.0
 10
26.873458
 20
155.727163
 30
0.0
 10
26.454129
 20
156.453462
 30
0.0
 10
25.773426
 20
156.846465
 30
0.0
  0
LWPOLYLINE
  5
12c
100
AcDbEntity
  8
ABDECKUNG
 62
7
100
AcDbPolyline
 90
9
 70
1
 10
9.823145
 20
42.401194
 30
0.0
 10
9.823145
 20
42.401194
 30
0.0
 10
9.823145
 20
42.401194
 30
0.0
 10
9.823145
 20
42.401194
 30
0.0
 10
9.823145
 20
42.401194
 30
0.0
 10
9.823145
 20
42.401194
 30
0.0
 10
9.823145
 20
42.401194
 30
0.0
 10
9.823145
 20
42.401194
 30
0.0
 10
9.823145
 20
42.401194
 30
0.0
  0
LWPOLYLINE
  5
12d
100
AcDbEntity
  8
ABDECKUNG
 62
7
100
AcDbPolyline
 90
9
 70
1
 10
9.823145
 20
21.181187
 30
0.0
 10
9.823145
 20
21.181187
 30
0.0
 10
9.823145
 20
21.181187
 30
0.0
 10
9.823145
 20
21.181187
 30
0.0
 10
9.823145
 20
21.181187
 30
0.0
 10
9.823145
 20
21.181187
 30
0.0
 10
9.823145
 20
21.181187
 30
0.0
 10
9.823145
 20
21.181187
 30
0.0
 10
9.823145
 20
21.181187
 30
0.0
  0
LWPOLYLINE
  5
12e
100
AcDbEntity
  8
ABDECKUNG
 62
7
100
AcDbPolyline
 90
8
 70
1
 10
292.223359
 20
156.846465
 30
0.0
 10
292.223359
 20
156.846465
 30
0.0
 10
292.223359
 20
156.846465
 30
0.0
 10
292.223359
 20
156.846465
 30
0.0
 10
292.223359
 20
156.846465
 30
0.0
 10
292.223359
 20
156.846465
 30
0.0
 10
292.223359
 20
156.846465
 30
0.0
 10
292.223359
 20
156.846465
 30
0.0
  0
LWPOLYLINE
  5
12f
100
AcDbEntity
  8
ABDECKUNG
 62
7
100
AcDbPolyline
 90
8
 70
1
 10
25.773426
 20
156.846465
 30
0.0
 10
25.773426
 20
156.846465
 30
0.0
 10
25.773426
 20
156.846465
 30
0.0
 10
25.773426
 20
156.846465
 30
0.0
 10
25.773426
 20
156.846465
 30
0.0
 10
25.773426
 20
156.846465
 30
0.0
 10
25.773426
 20
156.846465
 30
0.0
 10
25.773426
 20
156.846465
 30
0.0
  0
LWPOLYLINE
  5
130
100
AcDbEntity
  8
ABDECKUNG
 62
7
100
AcDbPolyline
 90
9
 70
1
 10
26.873458
 20
154.941151
 30
0.0
 10
26.873458
 20
154.941151
 30
0.0
 10
26.873458
 20
154.941151
 30
0.0
 10
26.873458
 20
154.941151
 30
0.0
 10
26.873458
 20
154.941151
 30
0.0
 10
26.873458
 20
154.941151
 30
0.0
 10
26.873458
 20
154.941151
 30
0.0
 10
26.873458
 20
154.941151
 30
0.0
 10
26.873458
 20
154.941151
 30
0.0
  0
LWPOLYLINE
  5
131
100
AcDbEntity
  8
ABDECKUNG
 62
7
100
AcDbPolyline
 90
9
 70
1
 10
293.323405
 20
154.941149
 30
0.0
 10
293.323405
 20
154.941149
 30
0.0
 10
293.323405
 20
154.941149
 30
0.0
 10
293.323405
 20
154.941149
 30
0.0
 10
293.323405
 20
154.941149
 30
0.0
 10
293.323405
 20
154.941149
 30
0.0
 10
293.323405
 20
154.941149
 30
0.0
 10
293.323405
 20
154.941149
 30
0.0
 10
293.323405
 20
154.941149
 30
0.0
  0
ENDSEC
  0
SECTION
  2
OBJECTS
  0
DICTIONARY
  5
C
330
0
100
AcDbDictionary
  3
ACAD_GROUP
350
D
  3
ACAD_MLINESTYLE
350
17
  0
DICTIONARY
  5
D
330
C
100
AcDbDictionary
  0
DICTIONARY
  5
1A
330
C
100
AcDbDictionary
  0
DICTIONARY
  5
17
330
C
100
AcDbDictionary
  3
STANDARD
350
18
  0
DICTIONARY
  5
19
330
C
100
AcDbDictionary
  0
ENDSEC
  0
EOF
